M48
; DRILL file {KiCad (5.1.10)-1} date 11/28/21 19:13:52
; FORMAT={-:-/ absolute / metric / decimal}
; #@! TF.CreationDate,2021-11-28T19:13:52+01:00
; #@! TF.GenerationSoftware,Kicad,Pcbnew,(5.1.10)-1
FMAT,2
METRIC
T1C0.400
T2C0.800
T3C1.000
T4C1.100
T5C3.200
%
G90
G05
T1
X74.83Y-104.53
X78.24Y-80.22
X84.83Y-104.63
X109.13Y-80.93
X123.13Y-84.73
T2
X101.93Y-73.67
X101.93Y-83.83
T3
X96.43Y-87.23
X96.43Y-101.73
X98.93Y-101.73
X101.43Y-87.23
X101.43Y-101.73
T4
X91.26Y-72.55
X91.26Y-75.09
X91.26Y-77.63
X91.26Y-80.17
X91.26Y-82.71
X91.26Y-85.25
X91.26Y-87.79
X91.26Y-90.33
X91.26Y-92.87
X91.26Y-95.41
X91.26Y-97.95
X91.26Y-100.49
X106.5Y-72.55
X106.5Y-75.09
X106.5Y-77.63
X106.5Y-80.17
X106.5Y-82.71
X106.5Y-85.25
X106.5Y-87.79
X106.5Y-90.33
X106.5Y-92.87
X106.5Y-95.41
X106.5Y-97.95
X106.5Y-100.49
T5
X78.56Y-73.83
X78.56Y-114.57
X119.28Y-73.83
X119.28Y-114.54
T0
M30
