%TF.GenerationSoftware,KiCad,Pcbnew,(5.1.10)-1*%
%TF.CreationDate,2021-11-28T19:12:49+01:00*%
%TF.ProjectId,VolumeKnob,566f6c75-6d65-44b6-9e6f-622e6b696361,rev?*%
%TF.SameCoordinates,Original*%
%TF.FileFunction,Copper,L2,Bot*%
%TF.FilePolarity,Positive*%
%FSLAX46Y46*%
G04 Gerber Fmt 4.6, Leading zero omitted, Abs format (unit mm)*
G04 Created by KiCad (PCBNEW (5.1.10)-1) date 2021-11-28 19:12:49*
%MOMM*%
%LPD*%
G01*
G04 APERTURE LIST*
%TA.AperFunction,ComponentPad*%
%ADD10R,2.000000X2.000000*%
%TD*%
%TA.AperFunction,ComponentPad*%
%ADD11C,2.000000*%
%TD*%
%TA.AperFunction,ComponentPad*%
%ADD12O,1.600000X1.600000*%
%TD*%
%TA.AperFunction,ComponentPad*%
%ADD13C,1.600000*%
%TD*%
%TA.AperFunction,ComponentPad*%
%ADD14R,1.600000X1.600000*%
%TD*%
%TA.AperFunction,ViaPad*%
%ADD15C,0.800000*%
%TD*%
%TA.AperFunction,Conductor*%
%ADD16C,0.250000*%
%TD*%
%TA.AperFunction,Conductor*%
%ADD17C,0.254000*%
%TD*%
%TA.AperFunction,Conductor*%
%ADD18C,0.100000*%
%TD*%
G04 APERTURE END LIST*
D10*
%TO.P,SW1,A*%
%TO.N,D7*%
X96430000Y-101730000D03*
D11*
%TO.P,SW1,C*%
%TO.N,GND*%
X98930000Y-101730000D03*
%TO.P,SW1,B*%
%TO.N,C6*%
X101430000Y-101730000D03*
%TO.P,SW1,S1*%
%TO.N,GND*%
X96430000Y-87230000D03*
%TO.P,SW1,S2*%
%TO.N,ButtonR*%
X101430000Y-87230000D03*
%TD*%
D12*
%TO.P,R1,2*%
%TO.N,VCC*%
X101930000Y-73670000D03*
D13*
%TO.P,R1,1*%
%TO.N,ButtonR*%
X101930000Y-83830000D03*
%TD*%
D14*
%TO.P,U1,1*%
%TO.N,Net-(U1-Pad1)*%
X91260000Y-72550000D03*
D13*
%TO.P,U1,2*%
%TO.N,Net-(U1-Pad2)*%
X91260000Y-75090000D03*
%TO.P,U1,3*%
%TO.N,Net-(U1-Pad3)*%
X91260000Y-77630000D03*
%TO.P,U1,4*%
%TO.N,Net-(U1-Pad4)*%
X91260000Y-80170000D03*
%TO.P,U1,5*%
%TO.N,ButtonR*%
X91260000Y-82710000D03*
%TO.P,U1,6*%
%TO.N,Net-(U1-Pad6)*%
X91260000Y-85250000D03*
%TO.P,U1,7*%
%TO.N,Net-(U1-Pad7)*%
X91260000Y-87790000D03*
%TO.P,U1,8*%
%TO.N,C6*%
X91260000Y-90330000D03*
%TO.P,U1,9*%
%TO.N,D7*%
X91260000Y-92870000D03*
%TO.P,U1,10*%
%TO.N,DIN*%
X91260000Y-95410000D03*
%TO.P,U1,11*%
%TO.N,Net-(U1-Pad11)*%
X91260000Y-97950000D03*
%TO.P,U1,12*%
%TO.N,Net-(U1-Pad12)*%
X91260000Y-100490000D03*
%TO.P,U1,13*%
%TO.N,Net-(U1-Pad13)*%
X106500000Y-100490000D03*
%TO.P,U1,14*%
%TO.N,Net-(U1-Pad14)*%
X106500000Y-97950000D03*
%TO.P,U1,15*%
%TO.N,Net-(U1-Pad15)*%
X106500000Y-95410000D03*
%TO.P,U1,16*%
%TO.N,Net-(U1-Pad16)*%
X106500000Y-92870000D03*
%TO.P,U1,17*%
%TO.N,Net-(U1-Pad17)*%
X106500000Y-90330000D03*
%TO.P,U1,18*%
%TO.N,Net-(U1-Pad18)*%
X106500000Y-87790000D03*
%TO.P,U1,19*%
%TO.N,Net-(U1-Pad19)*%
X106500000Y-85250000D03*
%TO.P,U1,20*%
%TO.N,Net-(U1-Pad20)*%
X106500000Y-82710000D03*
%TO.P,U1,21*%
%TO.N,VCC*%
X106500000Y-80170000D03*
%TO.P,U1,22*%
%TO.N,Net-(U1-Pad22)*%
X106500000Y-77630000D03*
%TO.P,U1,23*%
%TO.N,GND*%
X106500000Y-75090000D03*
%TO.P,U1,24*%
%TO.N,Net-(U1-Pad24)*%
X106500000Y-72550000D03*
%TD*%
D15*
%TO.N,VCC*%
X74830000Y-104530000D03*
X84830000Y-104630000D03*
%TO.N,Net-(D1-Pad4)*%
X123130000Y-84730000D03*
X109130000Y-80930000D03*
%TO.N,GND*%
X78240000Y-80220000D03*
%TD*%
D16*
%TO.N,VCC*%
X84730000Y-104530000D02*
X84830000Y-104630000D01*
X74830000Y-104530000D02*
X84730000Y-104530000D01*
%TO.N,ButtonR*%
X92380000Y-83830000D02*
X91260000Y-82710000D01*
X101930000Y-83830000D02*
X92380000Y-83830000D01*
%TO.N,Net-(D1-Pad4)*%
X109130000Y-80930000D02*
X114230000Y-80930000D01*
X118030000Y-84730000D02*
X123130000Y-84730000D01*
X114230000Y-80930000D02*
X118030000Y-84730000D01*
%TO.N,C6*%
X96560000Y-90330000D02*
X91040000Y-90330000D01*
X101430000Y-95200000D02*
X96560000Y-90330000D01*
X101430000Y-101730000D02*
X101430000Y-95200000D01*
%TD*%
D17*
%TO.N,GND*%
X114254242Y-68784949D02*
X115560921Y-69013001D01*
X116832734Y-69389730D01*
X118052824Y-69910142D01*
X119205003Y-70567333D01*
X120274021Y-71352603D01*
X121245692Y-72255536D01*
X122107142Y-73264165D01*
X122846958Y-74365127D01*
X123455327Y-75543818D01*
X123924191Y-76784629D01*
X124247332Y-78071108D01*
X124421121Y-79391165D01*
X124452201Y-80238782D01*
X124452200Y-108216232D01*
X124375051Y-109554242D01*
X124146999Y-110860923D01*
X123770270Y-112132734D01*
X123249857Y-113352827D01*
X122592667Y-114505003D01*
X121807396Y-115574021D01*
X120904464Y-116545693D01*
X119895835Y-117407142D01*
X118794869Y-118146960D01*
X117616178Y-118755329D01*
X116375374Y-119224190D01*
X115088893Y-119547331D01*
X113768835Y-119721121D01*
X112921246Y-119752200D01*
X84943768Y-119752200D01*
X83605758Y-119675051D01*
X82299077Y-119446999D01*
X81027266Y-119070270D01*
X79807173Y-118549857D01*
X78654997Y-117892667D01*
X77585979Y-117107396D01*
X76614307Y-116204464D01*
X75752858Y-115195835D01*
X75201418Y-114375204D01*
X76582200Y-114375204D01*
X76582200Y-114764796D01*
X76658205Y-115146903D01*
X76807296Y-115506840D01*
X77023742Y-115830774D01*
X77299226Y-116106258D01*
X77623160Y-116322704D01*
X77983097Y-116471795D01*
X78365204Y-116547800D01*
X78754796Y-116547800D01*
X79136903Y-116471795D01*
X79496840Y-116322704D01*
X79820774Y-116106258D01*
X80096258Y-115830774D01*
X80312704Y-115506840D01*
X80461795Y-115146903D01*
X80537800Y-114764796D01*
X80537800Y-114375204D01*
X80531833Y-114345204D01*
X117302200Y-114345204D01*
X117302200Y-114734796D01*
X117378205Y-115116903D01*
X117527296Y-115476840D01*
X117743742Y-115800774D01*
X118019226Y-116076258D01*
X118343160Y-116292704D01*
X118703097Y-116441795D01*
X119085204Y-116517800D01*
X119474796Y-116517800D01*
X119856903Y-116441795D01*
X120216840Y-116292704D01*
X120540774Y-116076258D01*
X120816258Y-115800774D01*
X121032704Y-115476840D01*
X121181795Y-115116903D01*
X121257800Y-114734796D01*
X121257800Y-114345204D01*
X121181795Y-113963097D01*
X121032704Y-113603160D01*
X120816258Y-113279226D01*
X120540774Y-113003742D01*
X120216840Y-112787296D01*
X119856903Y-112638205D01*
X119474796Y-112562200D01*
X119085204Y-112562200D01*
X118703097Y-112638205D01*
X118343160Y-112787296D01*
X118019226Y-113003742D01*
X117743742Y-113279226D01*
X117527296Y-113603160D01*
X117378205Y-113963097D01*
X117302200Y-114345204D01*
X80531833Y-114345204D01*
X80461795Y-113993097D01*
X80312704Y-113633160D01*
X80096258Y-113309226D01*
X79820774Y-113033742D01*
X79496840Y-112817296D01*
X79136903Y-112668205D01*
X78754796Y-112592200D01*
X78365204Y-112592200D01*
X77983097Y-112668205D01*
X77623160Y-112817296D01*
X77299226Y-113033742D01*
X77023742Y-113309226D01*
X76807296Y-113633160D01*
X76658205Y-113993097D01*
X76582200Y-114375204D01*
X75201418Y-114375204D01*
X75013040Y-114094869D01*
X74404671Y-112916178D01*
X73935810Y-111675374D01*
X73612669Y-110388893D01*
X73438879Y-109068835D01*
X73407800Y-108221246D01*
X73407800Y-104453393D01*
X74052200Y-104453393D01*
X74052200Y-104606607D01*
X74082091Y-104756876D01*
X74140723Y-104898426D01*
X74225844Y-105025818D01*
X74334182Y-105134156D01*
X74461574Y-105219277D01*
X74603124Y-105277909D01*
X74753393Y-105307800D01*
X74906607Y-105307800D01*
X75056876Y-105277909D01*
X75198426Y-105219277D01*
X75325818Y-105134156D01*
X75427174Y-105032800D01*
X84163691Y-105032800D01*
X84225844Y-105125818D01*
X84334182Y-105234156D01*
X84461574Y-105319277D01*
X84603124Y-105377909D01*
X84753393Y-105407800D01*
X84906607Y-105407800D01*
X85056876Y-105377909D01*
X85198426Y-105319277D01*
X85325818Y-105234156D01*
X85434156Y-105125818D01*
X85519277Y-104998426D01*
X85577909Y-104856876D01*
X85607800Y-104706607D01*
X85607800Y-104553393D01*
X85577909Y-104403124D01*
X85519277Y-104261574D01*
X85434156Y-104134182D01*
X85325818Y-104025844D01*
X85198426Y-103940723D01*
X85056876Y-103882091D01*
X84906607Y-103852200D01*
X84753393Y-103852200D01*
X84603124Y-103882091D01*
X84461574Y-103940723D01*
X84334182Y-104025844D01*
X84332826Y-104027200D01*
X75427174Y-104027200D01*
X75325818Y-103925844D01*
X75198426Y-103840723D01*
X75056876Y-103782091D01*
X74906607Y-103752200D01*
X74753393Y-103752200D01*
X74603124Y-103782091D01*
X74461574Y-103840723D01*
X74334182Y-103925844D01*
X74225844Y-104034182D01*
X74140723Y-104161574D01*
X74082091Y-104303124D01*
X74052200Y-104453393D01*
X73407800Y-104453393D01*
X73407800Y-100373997D01*
X90082200Y-100373997D01*
X90082200Y-100606003D01*
X90127462Y-100833552D01*
X90216247Y-101047898D01*
X90345143Y-101240804D01*
X90509196Y-101404857D01*
X90702102Y-101533753D01*
X90916448Y-101622538D01*
X91143997Y-101667800D01*
X91376003Y-101667800D01*
X91603552Y-101622538D01*
X91817898Y-101533753D01*
X92010804Y-101404857D01*
X92174857Y-101240804D01*
X92303753Y-101047898D01*
X92392538Y-100833552D01*
X92413135Y-100730000D01*
X95050372Y-100730000D01*
X95050372Y-102730000D01*
X95057666Y-102804062D01*
X95079269Y-102875277D01*
X95114351Y-102940910D01*
X95161562Y-102998438D01*
X95219090Y-103045649D01*
X95284723Y-103080731D01*
X95355938Y-103102334D01*
X95430000Y-103109628D01*
X97430000Y-103109628D01*
X97504062Y-103102334D01*
X97575277Y-103080731D01*
X97640910Y-103045649D01*
X97698438Y-102998438D01*
X97745649Y-102940910D01*
X97770973Y-102893532D01*
X98032473Y-103155032D01*
X98177975Y-103009530D01*
X98291302Y-103243678D01*
X98598877Y-103339197D01*
X98919178Y-103372875D01*
X99239895Y-103343418D01*
X99548703Y-103251960D01*
X99568698Y-103243678D01*
X99682026Y-103009527D01*
X98930000Y-102257502D01*
X98915858Y-102271644D01*
X98388356Y-101744142D01*
X98402498Y-101730000D01*
X98388356Y-101715858D01*
X98915858Y-101188356D01*
X98930000Y-101202498D01*
X99682026Y-100450473D01*
X99568698Y-100216322D01*
X99261123Y-100120803D01*
X98940822Y-100087125D01*
X98620105Y-100116582D01*
X98311297Y-100208040D01*
X98291302Y-100216322D01*
X98177975Y-100450470D01*
X98032473Y-100304968D01*
X97770973Y-100566468D01*
X97745649Y-100519090D01*
X97698438Y-100461562D01*
X97640910Y-100414351D01*
X97575277Y-100379269D01*
X97504062Y-100357666D01*
X97430000Y-100350372D01*
X95430000Y-100350372D01*
X95355938Y-100357666D01*
X95284723Y-100379269D01*
X95219090Y-100414351D01*
X95161562Y-100461562D01*
X95114351Y-100519090D01*
X95079269Y-100584723D01*
X95057666Y-100655938D01*
X95050372Y-100730000D01*
X92413135Y-100730000D01*
X92437800Y-100606003D01*
X92437800Y-100373997D01*
X92392538Y-100146448D01*
X92303753Y-99932102D01*
X92174857Y-99739196D01*
X92010804Y-99575143D01*
X91817898Y-99446247D01*
X91603552Y-99357462D01*
X91376003Y-99312200D01*
X91143997Y-99312200D01*
X90916448Y-99357462D01*
X90702102Y-99446247D01*
X90509196Y-99575143D01*
X90345143Y-99739196D01*
X90216247Y-99932102D01*
X90127462Y-100146448D01*
X90082200Y-100373997D01*
X73407800Y-100373997D01*
X73407800Y-97833997D01*
X90082200Y-97833997D01*
X90082200Y-98066003D01*
X90127462Y-98293552D01*
X90216247Y-98507898D01*
X90345143Y-98700804D01*
X90509196Y-98864857D01*
X90702102Y-98993753D01*
X90916448Y-99082538D01*
X91143997Y-99127800D01*
X91376003Y-99127800D01*
X91603552Y-99082538D01*
X91817898Y-98993753D01*
X92010804Y-98864857D01*
X92174857Y-98700804D01*
X92303753Y-98507898D01*
X92392538Y-98293552D01*
X92437800Y-98066003D01*
X92437800Y-97833997D01*
X92392538Y-97606448D01*
X92303753Y-97392102D01*
X92174857Y-97199196D01*
X92010804Y-97035143D01*
X91817898Y-96906247D01*
X91603552Y-96817462D01*
X91376003Y-96772200D01*
X91143997Y-96772200D01*
X90916448Y-96817462D01*
X90702102Y-96906247D01*
X90509196Y-97035143D01*
X90345143Y-97199196D01*
X90216247Y-97392102D01*
X90127462Y-97606448D01*
X90082200Y-97833997D01*
X73407800Y-97833997D01*
X73407800Y-95293997D01*
X90082200Y-95293997D01*
X90082200Y-95526003D01*
X90127462Y-95753552D01*
X90216247Y-95967898D01*
X90345143Y-96160804D01*
X90509196Y-96324857D01*
X90702102Y-96453753D01*
X90916448Y-96542538D01*
X91143997Y-96587800D01*
X91376003Y-96587800D01*
X91603552Y-96542538D01*
X91817898Y-96453753D01*
X92010804Y-96324857D01*
X92174857Y-96160804D01*
X92303753Y-95967898D01*
X92392538Y-95753552D01*
X92437800Y-95526003D01*
X92437800Y-95293997D01*
X92392538Y-95066448D01*
X92303753Y-94852102D01*
X92174857Y-94659196D01*
X92010804Y-94495143D01*
X91817898Y-94366247D01*
X91603552Y-94277462D01*
X91376003Y-94232200D01*
X91143997Y-94232200D01*
X90916448Y-94277462D01*
X90702102Y-94366247D01*
X90509196Y-94495143D01*
X90345143Y-94659196D01*
X90216247Y-94852102D01*
X90127462Y-95066448D01*
X90082200Y-95293997D01*
X73407800Y-95293997D01*
X73407800Y-92753997D01*
X90082200Y-92753997D01*
X90082200Y-92986003D01*
X90127462Y-93213552D01*
X90216247Y-93427898D01*
X90345143Y-93620804D01*
X90509196Y-93784857D01*
X90702102Y-93913753D01*
X90916448Y-94002538D01*
X91143997Y-94047800D01*
X91376003Y-94047800D01*
X91603552Y-94002538D01*
X91817898Y-93913753D01*
X92010804Y-93784857D01*
X92174857Y-93620804D01*
X92303753Y-93427898D01*
X92392538Y-93213552D01*
X92437800Y-92986003D01*
X92437800Y-92753997D01*
X92392538Y-92526448D01*
X92303753Y-92312102D01*
X92174857Y-92119196D01*
X92010804Y-91955143D01*
X91817898Y-91826247D01*
X91603552Y-91737462D01*
X91376003Y-91692200D01*
X91143997Y-91692200D01*
X90916448Y-91737462D01*
X90702102Y-91826247D01*
X90509196Y-91955143D01*
X90345143Y-92119196D01*
X90216247Y-92312102D01*
X90127462Y-92526448D01*
X90082200Y-92753997D01*
X73407800Y-92753997D01*
X73407800Y-90213997D01*
X90082200Y-90213997D01*
X90082200Y-90446003D01*
X90127462Y-90673552D01*
X90216247Y-90887898D01*
X90345143Y-91080804D01*
X90509196Y-91244857D01*
X90702102Y-91373753D01*
X90916448Y-91462538D01*
X91143997Y-91507800D01*
X91376003Y-91507800D01*
X91603552Y-91462538D01*
X91817898Y-91373753D01*
X92010804Y-91244857D01*
X92174857Y-91080804D01*
X92303753Y-90887898D01*
X92326575Y-90832800D01*
X96351734Y-90832800D01*
X100927201Y-95408268D01*
X100927200Y-100446946D01*
X100777367Y-100509009D01*
X100551703Y-100659793D01*
X100359793Y-100851703D01*
X100259319Y-101002073D01*
X100209527Y-100977974D01*
X99457502Y-101730000D01*
X100209527Y-102482026D01*
X100259319Y-102457927D01*
X100359793Y-102608297D01*
X100551703Y-102800207D01*
X100777367Y-102950991D01*
X101028110Y-103054852D01*
X101294299Y-103107800D01*
X101565701Y-103107800D01*
X101831890Y-103054852D01*
X102082633Y-102950991D01*
X102308297Y-102800207D01*
X102500207Y-102608297D01*
X102650991Y-102382633D01*
X102754852Y-102131890D01*
X102807800Y-101865701D01*
X102807800Y-101594299D01*
X102754852Y-101328110D01*
X102650991Y-101077367D01*
X102500207Y-100851703D01*
X102308297Y-100659793D01*
X102082633Y-100509009D01*
X101932800Y-100446946D01*
X101932800Y-100373997D01*
X105322200Y-100373997D01*
X105322200Y-100606003D01*
X105367462Y-100833552D01*
X105456247Y-101047898D01*
X105585143Y-101240804D01*
X105749196Y-101404857D01*
X105942102Y-101533753D01*
X106156448Y-101622538D01*
X106383997Y-101667800D01*
X106616003Y-101667800D01*
X106843552Y-101622538D01*
X107057898Y-101533753D01*
X107250804Y-101404857D01*
X107414857Y-101240804D01*
X107543753Y-101047898D01*
X107632538Y-100833552D01*
X107677800Y-100606003D01*
X107677800Y-100373997D01*
X107632538Y-100146448D01*
X107543753Y-99932102D01*
X107414857Y-99739196D01*
X107250804Y-99575143D01*
X107057898Y-99446247D01*
X106843552Y-99357462D01*
X106616003Y-99312200D01*
X106383997Y-99312200D01*
X106156448Y-99357462D01*
X105942102Y-99446247D01*
X105749196Y-99575143D01*
X105585143Y-99739196D01*
X105456247Y-99932102D01*
X105367462Y-100146448D01*
X105322200Y-100373997D01*
X101932800Y-100373997D01*
X101932800Y-97833997D01*
X105322200Y-97833997D01*
X105322200Y-98066003D01*
X105367462Y-98293552D01*
X105456247Y-98507898D01*
X105585143Y-98700804D01*
X105749196Y-98864857D01*
X105942102Y-98993753D01*
X106156448Y-99082538D01*
X106383997Y-99127800D01*
X106616003Y-99127800D01*
X106843552Y-99082538D01*
X107057898Y-98993753D01*
X107250804Y-98864857D01*
X107414857Y-98700804D01*
X107543753Y-98507898D01*
X107632538Y-98293552D01*
X107677800Y-98066003D01*
X107677800Y-97833997D01*
X107632538Y-97606448D01*
X107543753Y-97392102D01*
X107414857Y-97199196D01*
X107250804Y-97035143D01*
X107057898Y-96906247D01*
X106843552Y-96817462D01*
X106616003Y-96772200D01*
X106383997Y-96772200D01*
X106156448Y-96817462D01*
X105942102Y-96906247D01*
X105749196Y-97035143D01*
X105585143Y-97199196D01*
X105456247Y-97392102D01*
X105367462Y-97606448D01*
X105322200Y-97833997D01*
X101932800Y-97833997D01*
X101932800Y-95293997D01*
X105322200Y-95293997D01*
X105322200Y-95526003D01*
X105367462Y-95753552D01*
X105456247Y-95967898D01*
X105585143Y-96160804D01*
X105749196Y-96324857D01*
X105942102Y-96453753D01*
X106156448Y-96542538D01*
X106383997Y-96587800D01*
X106616003Y-96587800D01*
X106843552Y-96542538D01*
X107057898Y-96453753D01*
X107250804Y-96324857D01*
X107414857Y-96160804D01*
X107543753Y-95967898D01*
X107632538Y-95753552D01*
X107677800Y-95526003D01*
X107677800Y-95293997D01*
X107632538Y-95066448D01*
X107543753Y-94852102D01*
X107414857Y-94659196D01*
X107250804Y-94495143D01*
X107057898Y-94366247D01*
X106843552Y-94277462D01*
X106616003Y-94232200D01*
X106383997Y-94232200D01*
X106156448Y-94277462D01*
X105942102Y-94366247D01*
X105749196Y-94495143D01*
X105585143Y-94659196D01*
X105456247Y-94852102D01*
X105367462Y-95066448D01*
X105322200Y-95293997D01*
X101932800Y-95293997D01*
X101932800Y-95224691D01*
X101935232Y-95199999D01*
X101925524Y-95101434D01*
X101914911Y-95066448D01*
X101896774Y-95006656D01*
X101850085Y-94919308D01*
X101787253Y-94842747D01*
X101768075Y-94827008D01*
X99695064Y-92753997D01*
X105322200Y-92753997D01*
X105322200Y-92986003D01*
X105367462Y-93213552D01*
X105456247Y-93427898D01*
X105585143Y-93620804D01*
X105749196Y-93784857D01*
X105942102Y-93913753D01*
X106156448Y-94002538D01*
X106383997Y-94047800D01*
X106616003Y-94047800D01*
X106843552Y-94002538D01*
X107057898Y-93913753D01*
X107250804Y-93784857D01*
X107414857Y-93620804D01*
X107543753Y-93427898D01*
X107632538Y-93213552D01*
X107677800Y-92986003D01*
X107677800Y-92753997D01*
X107632538Y-92526448D01*
X107543753Y-92312102D01*
X107414857Y-92119196D01*
X107250804Y-91955143D01*
X107057898Y-91826247D01*
X106843552Y-91737462D01*
X106616003Y-91692200D01*
X106383997Y-91692200D01*
X106156448Y-91737462D01*
X105942102Y-91826247D01*
X105749196Y-91955143D01*
X105585143Y-92119196D01*
X105456247Y-92312102D01*
X105367462Y-92526448D01*
X105322200Y-92753997D01*
X99695064Y-92753997D01*
X97155064Y-90213997D01*
X105322200Y-90213997D01*
X105322200Y-90446003D01*
X105367462Y-90673552D01*
X105456247Y-90887898D01*
X105585143Y-91080804D01*
X105749196Y-91244857D01*
X105942102Y-91373753D01*
X106156448Y-91462538D01*
X106383997Y-91507800D01*
X106616003Y-91507800D01*
X106843552Y-91462538D01*
X107057898Y-91373753D01*
X107250804Y-91244857D01*
X107414857Y-91080804D01*
X107543753Y-90887898D01*
X107632538Y-90673552D01*
X107677800Y-90446003D01*
X107677800Y-90213997D01*
X107632538Y-89986448D01*
X107543753Y-89772102D01*
X107414857Y-89579196D01*
X107250804Y-89415143D01*
X107057898Y-89286247D01*
X106843552Y-89197462D01*
X106616003Y-89152200D01*
X106383997Y-89152200D01*
X106156448Y-89197462D01*
X105942102Y-89286247D01*
X105749196Y-89415143D01*
X105585143Y-89579196D01*
X105456247Y-89772102D01*
X105367462Y-89986448D01*
X105322200Y-90213997D01*
X97155064Y-90213997D01*
X96932996Y-89991930D01*
X96917253Y-89972747D01*
X96840692Y-89909915D01*
X96753344Y-89863226D01*
X96658566Y-89834476D01*
X96584692Y-89827200D01*
X96560000Y-89824768D01*
X96535308Y-89827200D01*
X92326575Y-89827200D01*
X92303753Y-89772102D01*
X92174857Y-89579196D01*
X92010804Y-89415143D01*
X91817898Y-89286247D01*
X91603552Y-89197462D01*
X91376003Y-89152200D01*
X91143997Y-89152200D01*
X90916448Y-89197462D01*
X90702102Y-89286247D01*
X90509196Y-89415143D01*
X90345143Y-89579196D01*
X90216247Y-89772102D01*
X90127462Y-89986448D01*
X90082200Y-90213997D01*
X73407800Y-90213997D01*
X73407800Y-87673997D01*
X90082200Y-87673997D01*
X90082200Y-87906003D01*
X90127462Y-88133552D01*
X90216247Y-88347898D01*
X90345143Y-88540804D01*
X90509196Y-88704857D01*
X90702102Y-88833753D01*
X90916448Y-88922538D01*
X91143997Y-88967800D01*
X91376003Y-88967800D01*
X91603552Y-88922538D01*
X91817898Y-88833753D01*
X92010804Y-88704857D01*
X92174857Y-88540804D01*
X92195755Y-88509527D01*
X95677974Y-88509527D01*
X95791302Y-88743678D01*
X96098877Y-88839197D01*
X96419178Y-88872875D01*
X96739895Y-88843418D01*
X97048703Y-88751960D01*
X97068698Y-88743678D01*
X97182026Y-88509527D01*
X96430000Y-87757502D01*
X95677974Y-88509527D01*
X92195755Y-88509527D01*
X92303753Y-88347898D01*
X92392538Y-88133552D01*
X92437800Y-87906003D01*
X92437800Y-87673997D01*
X92392538Y-87446448D01*
X92303753Y-87232102D01*
X92295118Y-87219178D01*
X94787125Y-87219178D01*
X94816582Y-87539895D01*
X94908040Y-87848703D01*
X94916322Y-87868698D01*
X95150473Y-87982026D01*
X95902498Y-87230000D01*
X96957502Y-87230000D01*
X97709527Y-87982026D01*
X97943678Y-87868698D01*
X98039197Y-87561123D01*
X98072875Y-87240822D01*
X98059418Y-87094299D01*
X100052200Y-87094299D01*
X100052200Y-87365701D01*
X100105148Y-87631890D01*
X100209009Y-87882633D01*
X100359793Y-88108297D01*
X100551703Y-88300207D01*
X100777367Y-88450991D01*
X101028110Y-88554852D01*
X101294299Y-88607800D01*
X101565701Y-88607800D01*
X101831890Y-88554852D01*
X102082633Y-88450991D01*
X102308297Y-88300207D01*
X102500207Y-88108297D01*
X102650991Y-87882633D01*
X102737410Y-87673997D01*
X105322200Y-87673997D01*
X105322200Y-87906003D01*
X105367462Y-88133552D01*
X105456247Y-88347898D01*
X105585143Y-88540804D01*
X105749196Y-88704857D01*
X105942102Y-88833753D01*
X106156448Y-88922538D01*
X106383997Y-88967800D01*
X106616003Y-88967800D01*
X106843552Y-88922538D01*
X107057898Y-88833753D01*
X107250804Y-88704857D01*
X107414857Y-88540804D01*
X107543753Y-88347898D01*
X107632538Y-88133552D01*
X107677800Y-87906003D01*
X107677800Y-87673997D01*
X107632538Y-87446448D01*
X107543753Y-87232102D01*
X107414857Y-87039196D01*
X107250804Y-86875143D01*
X107057898Y-86746247D01*
X106843552Y-86657462D01*
X106616003Y-86612200D01*
X106383997Y-86612200D01*
X106156448Y-86657462D01*
X105942102Y-86746247D01*
X105749196Y-86875143D01*
X105585143Y-87039196D01*
X105456247Y-87232102D01*
X105367462Y-87446448D01*
X105322200Y-87673997D01*
X102737410Y-87673997D01*
X102754852Y-87631890D01*
X102807800Y-87365701D01*
X102807800Y-87094299D01*
X102754852Y-86828110D01*
X102650991Y-86577367D01*
X102500207Y-86351703D01*
X102308297Y-86159793D01*
X102082633Y-86009009D01*
X101831890Y-85905148D01*
X101565701Y-85852200D01*
X101294299Y-85852200D01*
X101028110Y-85905148D01*
X100777367Y-86009009D01*
X100551703Y-86159793D01*
X100359793Y-86351703D01*
X100209009Y-86577367D01*
X100105148Y-86828110D01*
X100052200Y-87094299D01*
X98059418Y-87094299D01*
X98043418Y-86920105D01*
X97951960Y-86611297D01*
X97943678Y-86591302D01*
X97709527Y-86477974D01*
X96957502Y-87230000D01*
X95902498Y-87230000D01*
X95150473Y-86477974D01*
X94916322Y-86591302D01*
X94820803Y-86898877D01*
X94787125Y-87219178D01*
X92295118Y-87219178D01*
X92174857Y-87039196D01*
X92010804Y-86875143D01*
X91817898Y-86746247D01*
X91603552Y-86657462D01*
X91376003Y-86612200D01*
X91143997Y-86612200D01*
X90916448Y-86657462D01*
X90702102Y-86746247D01*
X90509196Y-86875143D01*
X90345143Y-87039196D01*
X90216247Y-87232102D01*
X90127462Y-87446448D01*
X90082200Y-87673997D01*
X73407800Y-87673997D01*
X73407800Y-85133997D01*
X90082200Y-85133997D01*
X90082200Y-85366003D01*
X90127462Y-85593552D01*
X90216247Y-85807898D01*
X90345143Y-86000804D01*
X90509196Y-86164857D01*
X90702102Y-86293753D01*
X90916448Y-86382538D01*
X91143997Y-86427800D01*
X91376003Y-86427800D01*
X91603552Y-86382538D01*
X91817898Y-86293753D01*
X92010804Y-86164857D01*
X92174857Y-86000804D01*
X92208487Y-85950473D01*
X95677974Y-85950473D01*
X96430000Y-86702498D01*
X97182026Y-85950473D01*
X97068698Y-85716322D01*
X96761123Y-85620803D01*
X96440822Y-85587125D01*
X96120105Y-85616582D01*
X95811297Y-85708040D01*
X95791302Y-85716322D01*
X95677974Y-85950473D01*
X92208487Y-85950473D01*
X92303753Y-85807898D01*
X92392538Y-85593552D01*
X92437800Y-85366003D01*
X92437800Y-85133997D01*
X105322200Y-85133997D01*
X105322200Y-85366003D01*
X105367462Y-85593552D01*
X105456247Y-85807898D01*
X105585143Y-86000804D01*
X105749196Y-86164857D01*
X105942102Y-86293753D01*
X106156448Y-86382538D01*
X106383997Y-86427800D01*
X106616003Y-86427800D01*
X106843552Y-86382538D01*
X107057898Y-86293753D01*
X107250804Y-86164857D01*
X107414857Y-86000804D01*
X107543753Y-85807898D01*
X107632538Y-85593552D01*
X107677800Y-85366003D01*
X107677800Y-85133997D01*
X107632538Y-84906448D01*
X107543753Y-84692102D01*
X107414857Y-84499196D01*
X107250804Y-84335143D01*
X107057898Y-84206247D01*
X106843552Y-84117462D01*
X106616003Y-84072200D01*
X106383997Y-84072200D01*
X106156448Y-84117462D01*
X105942102Y-84206247D01*
X105749196Y-84335143D01*
X105585143Y-84499196D01*
X105456247Y-84692102D01*
X105367462Y-84906448D01*
X105322200Y-85133997D01*
X92437800Y-85133997D01*
X92392538Y-84906448D01*
X92303753Y-84692102D01*
X92174857Y-84499196D01*
X92010804Y-84335143D01*
X91817898Y-84206247D01*
X91603552Y-84117462D01*
X91376003Y-84072200D01*
X91143997Y-84072200D01*
X90916448Y-84117462D01*
X90702102Y-84206247D01*
X90509196Y-84335143D01*
X90345143Y-84499196D01*
X90216247Y-84692102D01*
X90127462Y-84906448D01*
X90082200Y-85133997D01*
X73407800Y-85133997D01*
X73407800Y-82593997D01*
X90082200Y-82593997D01*
X90082200Y-82826003D01*
X90127462Y-83053552D01*
X90216247Y-83267898D01*
X90345143Y-83460804D01*
X90509196Y-83624857D01*
X90702102Y-83753753D01*
X90916448Y-83842538D01*
X91143997Y-83887800D01*
X91376003Y-83887800D01*
X91603552Y-83842538D01*
X91658649Y-83819716D01*
X92007008Y-84168075D01*
X92022747Y-84187253D01*
X92099308Y-84250085D01*
X92186656Y-84296774D01*
X92281434Y-84325524D01*
X92355308Y-84332800D01*
X92355315Y-84332800D01*
X92379999Y-84335231D01*
X92404684Y-84332800D01*
X100863425Y-84332800D01*
X100886247Y-84387898D01*
X101015143Y-84580804D01*
X101179196Y-84744857D01*
X101372102Y-84873753D01*
X101586448Y-84962538D01*
X101813997Y-85007800D01*
X102046003Y-85007800D01*
X102273552Y-84962538D01*
X102487898Y-84873753D01*
X102680804Y-84744857D01*
X102844857Y-84580804D01*
X102973753Y-84387898D01*
X103062538Y-84173552D01*
X103107800Y-83946003D01*
X103107800Y-83713997D01*
X103062538Y-83486448D01*
X102973753Y-83272102D01*
X102844857Y-83079196D01*
X102680804Y-82915143D01*
X102487898Y-82786247D01*
X102273552Y-82697462D01*
X102046003Y-82652200D01*
X101813997Y-82652200D01*
X101586448Y-82697462D01*
X101372102Y-82786247D01*
X101179196Y-82915143D01*
X101015143Y-83079196D01*
X100886247Y-83272102D01*
X100863425Y-83327200D01*
X92588267Y-83327200D01*
X92369716Y-83108649D01*
X92392538Y-83053552D01*
X92437800Y-82826003D01*
X92437800Y-82593997D01*
X105322200Y-82593997D01*
X105322200Y-82826003D01*
X105367462Y-83053552D01*
X105456247Y-83267898D01*
X105585143Y-83460804D01*
X105749196Y-83624857D01*
X105942102Y-83753753D01*
X106156448Y-83842538D01*
X106383997Y-83887800D01*
X106616003Y-83887800D01*
X106843552Y-83842538D01*
X107057898Y-83753753D01*
X107250804Y-83624857D01*
X107414857Y-83460804D01*
X107543753Y-83267898D01*
X107632538Y-83053552D01*
X107677800Y-82826003D01*
X107677800Y-82593997D01*
X107632538Y-82366448D01*
X107543753Y-82152102D01*
X107414857Y-81959196D01*
X107250804Y-81795143D01*
X107057898Y-81666247D01*
X106843552Y-81577462D01*
X106616003Y-81532200D01*
X106383997Y-81532200D01*
X106156448Y-81577462D01*
X105942102Y-81666247D01*
X105749196Y-81795143D01*
X105585143Y-81959196D01*
X105456247Y-82152102D01*
X105367462Y-82366448D01*
X105322200Y-82593997D01*
X92437800Y-82593997D01*
X92392538Y-82366448D01*
X92303753Y-82152102D01*
X92174857Y-81959196D01*
X92010804Y-81795143D01*
X91817898Y-81666247D01*
X91603552Y-81577462D01*
X91376003Y-81532200D01*
X91143997Y-81532200D01*
X90916448Y-81577462D01*
X90702102Y-81666247D01*
X90509196Y-81795143D01*
X90345143Y-81959196D01*
X90216247Y-82152102D01*
X90127462Y-82366448D01*
X90082200Y-82593997D01*
X73407800Y-82593997D01*
X73407800Y-80243768D01*
X73418742Y-80053997D01*
X90082200Y-80053997D01*
X90082200Y-80286003D01*
X90127462Y-80513552D01*
X90216247Y-80727898D01*
X90345143Y-80920804D01*
X90509196Y-81084857D01*
X90702102Y-81213753D01*
X90916448Y-81302538D01*
X91143997Y-81347800D01*
X91376003Y-81347800D01*
X91603552Y-81302538D01*
X91817898Y-81213753D01*
X92010804Y-81084857D01*
X92174857Y-80920804D01*
X92303753Y-80727898D01*
X92392538Y-80513552D01*
X92437800Y-80286003D01*
X92437800Y-80053997D01*
X105322200Y-80053997D01*
X105322200Y-80286003D01*
X105367462Y-80513552D01*
X105456247Y-80727898D01*
X105585143Y-80920804D01*
X105749196Y-81084857D01*
X105942102Y-81213753D01*
X106156448Y-81302538D01*
X106383997Y-81347800D01*
X106616003Y-81347800D01*
X106843552Y-81302538D01*
X107057898Y-81213753D01*
X107250804Y-81084857D01*
X107414857Y-80920804D01*
X107459899Y-80853393D01*
X108352200Y-80853393D01*
X108352200Y-81006607D01*
X108382091Y-81156876D01*
X108440723Y-81298426D01*
X108525844Y-81425818D01*
X108634182Y-81534156D01*
X108761574Y-81619277D01*
X108903124Y-81677909D01*
X109053393Y-81707800D01*
X109206607Y-81707800D01*
X109356876Y-81677909D01*
X109498426Y-81619277D01*
X109625818Y-81534156D01*
X109727174Y-81432800D01*
X114021734Y-81432800D01*
X117657008Y-85068075D01*
X117672747Y-85087253D01*
X117691925Y-85102992D01*
X117691926Y-85102993D01*
X117749308Y-85150085D01*
X117836656Y-85196774D01*
X117931434Y-85225524D01*
X118030000Y-85235232D01*
X118054692Y-85232800D01*
X122532826Y-85232800D01*
X122634182Y-85334156D01*
X122761574Y-85419277D01*
X122903124Y-85477909D01*
X123053393Y-85507800D01*
X123206607Y-85507800D01*
X123356876Y-85477909D01*
X123498426Y-85419277D01*
X123625818Y-85334156D01*
X123734156Y-85225818D01*
X123819277Y-85098426D01*
X123877909Y-84956876D01*
X123907800Y-84806607D01*
X123907800Y-84653393D01*
X123877909Y-84503124D01*
X123819277Y-84361574D01*
X123734156Y-84234182D01*
X123625818Y-84125844D01*
X123498426Y-84040723D01*
X123356876Y-83982091D01*
X123206607Y-83952200D01*
X123053393Y-83952200D01*
X122903124Y-83982091D01*
X122761574Y-84040723D01*
X122634182Y-84125844D01*
X122532826Y-84227200D01*
X118238267Y-84227200D01*
X114602996Y-80591930D01*
X114587253Y-80572747D01*
X114510692Y-80509915D01*
X114423344Y-80463226D01*
X114328566Y-80434476D01*
X114254692Y-80427200D01*
X114230000Y-80424768D01*
X114205308Y-80427200D01*
X109727174Y-80427200D01*
X109625818Y-80325844D01*
X109498426Y-80240723D01*
X109356876Y-80182091D01*
X109206607Y-80152200D01*
X109053393Y-80152200D01*
X108903124Y-80182091D01*
X108761574Y-80240723D01*
X108634182Y-80325844D01*
X108525844Y-80434182D01*
X108440723Y-80561574D01*
X108382091Y-80703124D01*
X108352200Y-80853393D01*
X107459899Y-80853393D01*
X107543753Y-80727898D01*
X107632538Y-80513552D01*
X107677800Y-80286003D01*
X107677800Y-80053997D01*
X107632538Y-79826448D01*
X107543753Y-79612102D01*
X107414857Y-79419196D01*
X107250804Y-79255143D01*
X107057898Y-79126247D01*
X106843552Y-79037462D01*
X106616003Y-78992200D01*
X106383997Y-78992200D01*
X106156448Y-79037462D01*
X105942102Y-79126247D01*
X105749196Y-79255143D01*
X105585143Y-79419196D01*
X105456247Y-79612102D01*
X105367462Y-79826448D01*
X105322200Y-80053997D01*
X92437800Y-80053997D01*
X92392538Y-79826448D01*
X92303753Y-79612102D01*
X92174857Y-79419196D01*
X92010804Y-79255143D01*
X91817898Y-79126247D01*
X91603552Y-79037462D01*
X91376003Y-78992200D01*
X91143997Y-78992200D01*
X90916448Y-79037462D01*
X90702102Y-79126247D01*
X90509196Y-79255143D01*
X90345143Y-79419196D01*
X90216247Y-79612102D01*
X90127462Y-79826448D01*
X90082200Y-80053997D01*
X73418742Y-80053997D01*
X73484949Y-78905758D01*
X73713001Y-77599079D01*
X73738203Y-77513997D01*
X90082200Y-77513997D01*
X90082200Y-77746003D01*
X90127462Y-77973552D01*
X90216247Y-78187898D01*
X90345143Y-78380804D01*
X90509196Y-78544857D01*
X90702102Y-78673753D01*
X90916448Y-78762538D01*
X91143997Y-78807800D01*
X91376003Y-78807800D01*
X91603552Y-78762538D01*
X91817898Y-78673753D01*
X92010804Y-78544857D01*
X92174857Y-78380804D01*
X92303753Y-78187898D01*
X92392538Y-77973552D01*
X92437800Y-77746003D01*
X92437800Y-77513997D01*
X105322200Y-77513997D01*
X105322200Y-77746003D01*
X105367462Y-77973552D01*
X105456247Y-78187898D01*
X105585143Y-78380804D01*
X105749196Y-78544857D01*
X105942102Y-78673753D01*
X106156448Y-78762538D01*
X106383997Y-78807800D01*
X106616003Y-78807800D01*
X106843552Y-78762538D01*
X107057898Y-78673753D01*
X107250804Y-78544857D01*
X107414857Y-78380804D01*
X107543753Y-78187898D01*
X107632538Y-77973552D01*
X107677800Y-77746003D01*
X107677800Y-77513997D01*
X107632538Y-77286448D01*
X107543753Y-77072102D01*
X107414857Y-76879196D01*
X107250804Y-76715143D01*
X107057898Y-76586247D01*
X106843552Y-76497462D01*
X106826091Y-76493989D01*
X107016941Y-76436094D01*
X107104424Y-76221926D01*
X106500000Y-75617502D01*
X105895576Y-76221926D01*
X105983059Y-76436094D01*
X106185269Y-76491729D01*
X106156448Y-76497462D01*
X105942102Y-76586247D01*
X105749196Y-76715143D01*
X105585143Y-76879196D01*
X105456247Y-77072102D01*
X105367462Y-77286448D01*
X105322200Y-77513997D01*
X92437800Y-77513997D01*
X92392538Y-77286448D01*
X92303753Y-77072102D01*
X92174857Y-76879196D01*
X92010804Y-76715143D01*
X91817898Y-76586247D01*
X91603552Y-76497462D01*
X91376003Y-76452200D01*
X91143997Y-76452200D01*
X90916448Y-76497462D01*
X90702102Y-76586247D01*
X90509196Y-76715143D01*
X90345143Y-76879196D01*
X90216247Y-77072102D01*
X90127462Y-77286448D01*
X90082200Y-77513997D01*
X73738203Y-77513997D01*
X74089730Y-76327266D01*
X74610142Y-75107176D01*
X75267333Y-73954997D01*
X75502243Y-73635204D01*
X76582200Y-73635204D01*
X76582200Y-74024796D01*
X76658205Y-74406903D01*
X76807296Y-74766840D01*
X77023742Y-75090774D01*
X77299226Y-75366258D01*
X77623160Y-75582704D01*
X77983097Y-75731795D01*
X78365204Y-75807800D01*
X78754796Y-75807800D01*
X79136903Y-75731795D01*
X79496840Y-75582704D01*
X79820774Y-75366258D01*
X80096258Y-75090774D01*
X80174285Y-74973997D01*
X90082200Y-74973997D01*
X90082200Y-75206003D01*
X90127462Y-75433552D01*
X90216247Y-75647898D01*
X90345143Y-75840804D01*
X90509196Y-76004857D01*
X90702102Y-76133753D01*
X90916448Y-76222538D01*
X91143997Y-76267800D01*
X91376003Y-76267800D01*
X91603552Y-76222538D01*
X91817898Y-76133753D01*
X92010804Y-76004857D01*
X92174857Y-75840804D01*
X92303753Y-75647898D01*
X92392538Y-75433552D01*
X92437800Y-75206003D01*
X92437800Y-75127537D01*
X105058546Y-75127537D01*
X105093566Y-75408030D01*
X105153906Y-75606941D01*
X105368074Y-75694424D01*
X105972498Y-75090000D01*
X107027502Y-75090000D01*
X107631926Y-75694424D01*
X107846094Y-75606941D01*
X107921080Y-75334398D01*
X107941454Y-75052463D01*
X107906434Y-74771970D01*
X107846094Y-74573059D01*
X107631926Y-74485576D01*
X107027502Y-75090000D01*
X105972498Y-75090000D01*
X105368074Y-74485576D01*
X105153906Y-74573059D01*
X105078920Y-74845602D01*
X105058546Y-75127537D01*
X92437800Y-75127537D01*
X92437800Y-74973997D01*
X92392538Y-74746448D01*
X92303753Y-74532102D01*
X92174857Y-74339196D01*
X92010804Y-74175143D01*
X91817898Y-74046247D01*
X91603552Y-73957462D01*
X91376003Y-73912200D01*
X91143997Y-73912200D01*
X90916448Y-73957462D01*
X90702102Y-74046247D01*
X90509196Y-74175143D01*
X90345143Y-74339196D01*
X90216247Y-74532102D01*
X90127462Y-74746448D01*
X90082200Y-74973997D01*
X80174285Y-74973997D01*
X80312704Y-74766840D01*
X80461795Y-74406903D01*
X80537800Y-74024796D01*
X80537800Y-73635204D01*
X80461795Y-73253097D01*
X80312704Y-72893160D01*
X80096258Y-72569226D01*
X79820774Y-72293742D01*
X79496840Y-72077296D01*
X79136903Y-71928205D01*
X78754796Y-71852200D01*
X78365204Y-71852200D01*
X77983097Y-71928205D01*
X77623160Y-72077296D01*
X77299226Y-72293742D01*
X77023742Y-72569226D01*
X76807296Y-72893160D01*
X76658205Y-73253097D01*
X76582200Y-73635204D01*
X75502243Y-73635204D01*
X76052603Y-72885979D01*
X76955536Y-71914308D01*
X77147916Y-71750000D01*
X90080372Y-71750000D01*
X90080372Y-73350000D01*
X90087666Y-73424062D01*
X90109269Y-73495277D01*
X90144351Y-73560910D01*
X90191562Y-73618438D01*
X90249090Y-73665649D01*
X90314723Y-73700731D01*
X90385938Y-73722334D01*
X90460000Y-73729628D01*
X92060000Y-73729628D01*
X92134062Y-73722334D01*
X92205277Y-73700731D01*
X92270910Y-73665649D01*
X92328438Y-73618438D01*
X92375649Y-73560910D01*
X92379344Y-73553997D01*
X100752200Y-73553997D01*
X100752200Y-73786003D01*
X100797462Y-74013552D01*
X100886247Y-74227898D01*
X101015143Y-74420804D01*
X101179196Y-74584857D01*
X101372102Y-74713753D01*
X101586448Y-74802538D01*
X101813997Y-74847800D01*
X102046003Y-74847800D01*
X102273552Y-74802538D01*
X102487898Y-74713753D01*
X102680804Y-74584857D01*
X102844857Y-74420804D01*
X102973753Y-74227898D01*
X103062538Y-74013552D01*
X103107800Y-73786003D01*
X103107800Y-73553997D01*
X103062538Y-73326448D01*
X102973753Y-73112102D01*
X102844857Y-72919196D01*
X102680804Y-72755143D01*
X102487898Y-72626247D01*
X102273552Y-72537462D01*
X102046003Y-72492200D01*
X101813997Y-72492200D01*
X101586448Y-72537462D01*
X101372102Y-72626247D01*
X101179196Y-72755143D01*
X101015143Y-72919196D01*
X100886247Y-73112102D01*
X100797462Y-73326448D01*
X100752200Y-73553997D01*
X92379344Y-73553997D01*
X92410731Y-73495277D01*
X92432334Y-73424062D01*
X92439628Y-73350000D01*
X92439628Y-72433997D01*
X105322200Y-72433997D01*
X105322200Y-72666003D01*
X105367462Y-72893552D01*
X105456247Y-73107898D01*
X105585143Y-73300804D01*
X105749196Y-73464857D01*
X105942102Y-73593753D01*
X106156448Y-73682538D01*
X106173909Y-73686011D01*
X105983059Y-73743906D01*
X105895576Y-73958074D01*
X106500000Y-74562498D01*
X107104424Y-73958074D01*
X107016941Y-73743906D01*
X106814731Y-73688271D01*
X106843552Y-73682538D01*
X106957826Y-73635204D01*
X117302200Y-73635204D01*
X117302200Y-74024796D01*
X117378205Y-74406903D01*
X117527296Y-74766840D01*
X117743742Y-75090774D01*
X118019226Y-75366258D01*
X118343160Y-75582704D01*
X118703097Y-75731795D01*
X119085204Y-75807800D01*
X119474796Y-75807800D01*
X119856903Y-75731795D01*
X120216840Y-75582704D01*
X120540774Y-75366258D01*
X120816258Y-75090774D01*
X121032704Y-74766840D01*
X121181795Y-74406903D01*
X121257800Y-74024796D01*
X121257800Y-73635204D01*
X121181795Y-73253097D01*
X121032704Y-72893160D01*
X120816258Y-72569226D01*
X120540774Y-72293742D01*
X120216840Y-72077296D01*
X119856903Y-71928205D01*
X119474796Y-71852200D01*
X119085204Y-71852200D01*
X118703097Y-71928205D01*
X118343160Y-72077296D01*
X118019226Y-72293742D01*
X117743742Y-72569226D01*
X117527296Y-72893160D01*
X117378205Y-73253097D01*
X117302200Y-73635204D01*
X106957826Y-73635204D01*
X107057898Y-73593753D01*
X107250804Y-73464857D01*
X107414857Y-73300804D01*
X107543753Y-73107898D01*
X107632538Y-72893552D01*
X107677800Y-72666003D01*
X107677800Y-72433997D01*
X107632538Y-72206448D01*
X107543753Y-71992102D01*
X107414857Y-71799196D01*
X107250804Y-71635143D01*
X107057898Y-71506247D01*
X106843552Y-71417462D01*
X106616003Y-71372200D01*
X106383997Y-71372200D01*
X106156448Y-71417462D01*
X105942102Y-71506247D01*
X105749196Y-71635143D01*
X105585143Y-71799196D01*
X105456247Y-71992102D01*
X105367462Y-72206448D01*
X105322200Y-72433997D01*
X92439628Y-72433997D01*
X92439628Y-71750000D01*
X92432334Y-71675938D01*
X92410731Y-71604723D01*
X92375649Y-71539090D01*
X92328438Y-71481562D01*
X92270910Y-71434351D01*
X92205277Y-71399269D01*
X92134062Y-71377666D01*
X92060000Y-71370372D01*
X90460000Y-71370372D01*
X90385938Y-71377666D01*
X90314723Y-71399269D01*
X90249090Y-71434351D01*
X90191562Y-71481562D01*
X90144351Y-71539090D01*
X90109269Y-71604723D01*
X90087666Y-71675938D01*
X90080372Y-71750000D01*
X77147916Y-71750000D01*
X77964165Y-71052858D01*
X79065127Y-70313042D01*
X80243818Y-69704673D01*
X81484629Y-69235809D01*
X82771108Y-68912668D01*
X84091165Y-68738879D01*
X84938755Y-68707800D01*
X112916232Y-68707800D01*
X114254242Y-68784949D01*
%TA.AperFunction,Conductor*%
D18*
G36*
X114254242Y-68784949D02*
G01*
X115560921Y-69013001D01*
X116832734Y-69389730D01*
X118052824Y-69910142D01*
X119205003Y-70567333D01*
X120274021Y-71352603D01*
X121245692Y-72255536D01*
X122107142Y-73264165D01*
X122846958Y-74365127D01*
X123455327Y-75543818D01*
X123924191Y-76784629D01*
X124247332Y-78071108D01*
X124421121Y-79391165D01*
X124452201Y-80238782D01*
X124452200Y-108216232D01*
X124375051Y-109554242D01*
X124146999Y-110860923D01*
X123770270Y-112132734D01*
X123249857Y-113352827D01*
X122592667Y-114505003D01*
X121807396Y-115574021D01*
X120904464Y-116545693D01*
X119895835Y-117407142D01*
X118794869Y-118146960D01*
X117616178Y-118755329D01*
X116375374Y-119224190D01*
X115088893Y-119547331D01*
X113768835Y-119721121D01*
X112921246Y-119752200D01*
X84943768Y-119752200D01*
X83605758Y-119675051D01*
X82299077Y-119446999D01*
X81027266Y-119070270D01*
X79807173Y-118549857D01*
X78654997Y-117892667D01*
X77585979Y-117107396D01*
X76614307Y-116204464D01*
X75752858Y-115195835D01*
X75201418Y-114375204D01*
X76582200Y-114375204D01*
X76582200Y-114764796D01*
X76658205Y-115146903D01*
X76807296Y-115506840D01*
X77023742Y-115830774D01*
X77299226Y-116106258D01*
X77623160Y-116322704D01*
X77983097Y-116471795D01*
X78365204Y-116547800D01*
X78754796Y-116547800D01*
X79136903Y-116471795D01*
X79496840Y-116322704D01*
X79820774Y-116106258D01*
X80096258Y-115830774D01*
X80312704Y-115506840D01*
X80461795Y-115146903D01*
X80537800Y-114764796D01*
X80537800Y-114375204D01*
X80531833Y-114345204D01*
X117302200Y-114345204D01*
X117302200Y-114734796D01*
X117378205Y-115116903D01*
X117527296Y-115476840D01*
X117743742Y-115800774D01*
X118019226Y-116076258D01*
X118343160Y-116292704D01*
X118703097Y-116441795D01*
X119085204Y-116517800D01*
X119474796Y-116517800D01*
X119856903Y-116441795D01*
X120216840Y-116292704D01*
X120540774Y-116076258D01*
X120816258Y-115800774D01*
X121032704Y-115476840D01*
X121181795Y-115116903D01*
X121257800Y-114734796D01*
X121257800Y-114345204D01*
X121181795Y-113963097D01*
X121032704Y-113603160D01*
X120816258Y-113279226D01*
X120540774Y-113003742D01*
X120216840Y-112787296D01*
X119856903Y-112638205D01*
X119474796Y-112562200D01*
X119085204Y-112562200D01*
X118703097Y-112638205D01*
X118343160Y-112787296D01*
X118019226Y-113003742D01*
X117743742Y-113279226D01*
X117527296Y-113603160D01*
X117378205Y-113963097D01*
X117302200Y-114345204D01*
X80531833Y-114345204D01*
X80461795Y-113993097D01*
X80312704Y-113633160D01*
X80096258Y-113309226D01*
X79820774Y-113033742D01*
X79496840Y-112817296D01*
X79136903Y-112668205D01*
X78754796Y-112592200D01*
X78365204Y-112592200D01*
X77983097Y-112668205D01*
X77623160Y-112817296D01*
X77299226Y-113033742D01*
X77023742Y-113309226D01*
X76807296Y-113633160D01*
X76658205Y-113993097D01*
X76582200Y-114375204D01*
X75201418Y-114375204D01*
X75013040Y-114094869D01*
X74404671Y-112916178D01*
X73935810Y-111675374D01*
X73612669Y-110388893D01*
X73438879Y-109068835D01*
X73407800Y-108221246D01*
X73407800Y-104453393D01*
X74052200Y-104453393D01*
X74052200Y-104606607D01*
X74082091Y-104756876D01*
X74140723Y-104898426D01*
X74225844Y-105025818D01*
X74334182Y-105134156D01*
X74461574Y-105219277D01*
X74603124Y-105277909D01*
X74753393Y-105307800D01*
X74906607Y-105307800D01*
X75056876Y-105277909D01*
X75198426Y-105219277D01*
X75325818Y-105134156D01*
X75427174Y-105032800D01*
X84163691Y-105032800D01*
X84225844Y-105125818D01*
X84334182Y-105234156D01*
X84461574Y-105319277D01*
X84603124Y-105377909D01*
X84753393Y-105407800D01*
X84906607Y-105407800D01*
X85056876Y-105377909D01*
X85198426Y-105319277D01*
X85325818Y-105234156D01*
X85434156Y-105125818D01*
X85519277Y-104998426D01*
X85577909Y-104856876D01*
X85607800Y-104706607D01*
X85607800Y-104553393D01*
X85577909Y-104403124D01*
X85519277Y-104261574D01*
X85434156Y-104134182D01*
X85325818Y-104025844D01*
X85198426Y-103940723D01*
X85056876Y-103882091D01*
X84906607Y-103852200D01*
X84753393Y-103852200D01*
X84603124Y-103882091D01*
X84461574Y-103940723D01*
X84334182Y-104025844D01*
X84332826Y-104027200D01*
X75427174Y-104027200D01*
X75325818Y-103925844D01*
X75198426Y-103840723D01*
X75056876Y-103782091D01*
X74906607Y-103752200D01*
X74753393Y-103752200D01*
X74603124Y-103782091D01*
X74461574Y-103840723D01*
X74334182Y-103925844D01*
X74225844Y-104034182D01*
X74140723Y-104161574D01*
X74082091Y-104303124D01*
X74052200Y-104453393D01*
X73407800Y-104453393D01*
X73407800Y-100373997D01*
X90082200Y-100373997D01*
X90082200Y-100606003D01*
X90127462Y-100833552D01*
X90216247Y-101047898D01*
X90345143Y-101240804D01*
X90509196Y-101404857D01*
X90702102Y-101533753D01*
X90916448Y-101622538D01*
X91143997Y-101667800D01*
X91376003Y-101667800D01*
X91603552Y-101622538D01*
X91817898Y-101533753D01*
X92010804Y-101404857D01*
X92174857Y-101240804D01*
X92303753Y-101047898D01*
X92392538Y-100833552D01*
X92413135Y-100730000D01*
X95050372Y-100730000D01*
X95050372Y-102730000D01*
X95057666Y-102804062D01*
X95079269Y-102875277D01*
X95114351Y-102940910D01*
X95161562Y-102998438D01*
X95219090Y-103045649D01*
X95284723Y-103080731D01*
X95355938Y-103102334D01*
X95430000Y-103109628D01*
X97430000Y-103109628D01*
X97504062Y-103102334D01*
X97575277Y-103080731D01*
X97640910Y-103045649D01*
X97698438Y-102998438D01*
X97745649Y-102940910D01*
X97770973Y-102893532D01*
X98032473Y-103155032D01*
X98177975Y-103009530D01*
X98291302Y-103243678D01*
X98598877Y-103339197D01*
X98919178Y-103372875D01*
X99239895Y-103343418D01*
X99548703Y-103251960D01*
X99568698Y-103243678D01*
X99682026Y-103009527D01*
X98930000Y-102257502D01*
X98915858Y-102271644D01*
X98388356Y-101744142D01*
X98402498Y-101730000D01*
X98388356Y-101715858D01*
X98915858Y-101188356D01*
X98930000Y-101202498D01*
X99682026Y-100450473D01*
X99568698Y-100216322D01*
X99261123Y-100120803D01*
X98940822Y-100087125D01*
X98620105Y-100116582D01*
X98311297Y-100208040D01*
X98291302Y-100216322D01*
X98177975Y-100450470D01*
X98032473Y-100304968D01*
X97770973Y-100566468D01*
X97745649Y-100519090D01*
X97698438Y-100461562D01*
X97640910Y-100414351D01*
X97575277Y-100379269D01*
X97504062Y-100357666D01*
X97430000Y-100350372D01*
X95430000Y-100350372D01*
X95355938Y-100357666D01*
X95284723Y-100379269D01*
X95219090Y-100414351D01*
X95161562Y-100461562D01*
X95114351Y-100519090D01*
X95079269Y-100584723D01*
X95057666Y-100655938D01*
X95050372Y-100730000D01*
X92413135Y-100730000D01*
X92437800Y-100606003D01*
X92437800Y-100373997D01*
X92392538Y-100146448D01*
X92303753Y-99932102D01*
X92174857Y-99739196D01*
X92010804Y-99575143D01*
X91817898Y-99446247D01*
X91603552Y-99357462D01*
X91376003Y-99312200D01*
X91143997Y-99312200D01*
X90916448Y-99357462D01*
X90702102Y-99446247D01*
X90509196Y-99575143D01*
X90345143Y-99739196D01*
X90216247Y-99932102D01*
X90127462Y-100146448D01*
X90082200Y-100373997D01*
X73407800Y-100373997D01*
X73407800Y-97833997D01*
X90082200Y-97833997D01*
X90082200Y-98066003D01*
X90127462Y-98293552D01*
X90216247Y-98507898D01*
X90345143Y-98700804D01*
X90509196Y-98864857D01*
X90702102Y-98993753D01*
X90916448Y-99082538D01*
X91143997Y-99127800D01*
X91376003Y-99127800D01*
X91603552Y-99082538D01*
X91817898Y-98993753D01*
X92010804Y-98864857D01*
X92174857Y-98700804D01*
X92303753Y-98507898D01*
X92392538Y-98293552D01*
X92437800Y-98066003D01*
X92437800Y-97833997D01*
X92392538Y-97606448D01*
X92303753Y-97392102D01*
X92174857Y-97199196D01*
X92010804Y-97035143D01*
X91817898Y-96906247D01*
X91603552Y-96817462D01*
X91376003Y-96772200D01*
X91143997Y-96772200D01*
X90916448Y-96817462D01*
X90702102Y-96906247D01*
X90509196Y-97035143D01*
X90345143Y-97199196D01*
X90216247Y-97392102D01*
X90127462Y-97606448D01*
X90082200Y-97833997D01*
X73407800Y-97833997D01*
X73407800Y-95293997D01*
X90082200Y-95293997D01*
X90082200Y-95526003D01*
X90127462Y-95753552D01*
X90216247Y-95967898D01*
X90345143Y-96160804D01*
X90509196Y-96324857D01*
X90702102Y-96453753D01*
X90916448Y-96542538D01*
X91143997Y-96587800D01*
X91376003Y-96587800D01*
X91603552Y-96542538D01*
X91817898Y-96453753D01*
X92010804Y-96324857D01*
X92174857Y-96160804D01*
X92303753Y-95967898D01*
X92392538Y-95753552D01*
X92437800Y-95526003D01*
X92437800Y-95293997D01*
X92392538Y-95066448D01*
X92303753Y-94852102D01*
X92174857Y-94659196D01*
X92010804Y-94495143D01*
X91817898Y-94366247D01*
X91603552Y-94277462D01*
X91376003Y-94232200D01*
X91143997Y-94232200D01*
X90916448Y-94277462D01*
X90702102Y-94366247D01*
X90509196Y-94495143D01*
X90345143Y-94659196D01*
X90216247Y-94852102D01*
X90127462Y-95066448D01*
X90082200Y-95293997D01*
X73407800Y-95293997D01*
X73407800Y-92753997D01*
X90082200Y-92753997D01*
X90082200Y-92986003D01*
X90127462Y-93213552D01*
X90216247Y-93427898D01*
X90345143Y-93620804D01*
X90509196Y-93784857D01*
X90702102Y-93913753D01*
X90916448Y-94002538D01*
X91143997Y-94047800D01*
X91376003Y-94047800D01*
X91603552Y-94002538D01*
X91817898Y-93913753D01*
X92010804Y-93784857D01*
X92174857Y-93620804D01*
X92303753Y-93427898D01*
X92392538Y-93213552D01*
X92437800Y-92986003D01*
X92437800Y-92753997D01*
X92392538Y-92526448D01*
X92303753Y-92312102D01*
X92174857Y-92119196D01*
X92010804Y-91955143D01*
X91817898Y-91826247D01*
X91603552Y-91737462D01*
X91376003Y-91692200D01*
X91143997Y-91692200D01*
X90916448Y-91737462D01*
X90702102Y-91826247D01*
X90509196Y-91955143D01*
X90345143Y-92119196D01*
X90216247Y-92312102D01*
X90127462Y-92526448D01*
X90082200Y-92753997D01*
X73407800Y-92753997D01*
X73407800Y-90213997D01*
X90082200Y-90213997D01*
X90082200Y-90446003D01*
X90127462Y-90673552D01*
X90216247Y-90887898D01*
X90345143Y-91080804D01*
X90509196Y-91244857D01*
X90702102Y-91373753D01*
X90916448Y-91462538D01*
X91143997Y-91507800D01*
X91376003Y-91507800D01*
X91603552Y-91462538D01*
X91817898Y-91373753D01*
X92010804Y-91244857D01*
X92174857Y-91080804D01*
X92303753Y-90887898D01*
X92326575Y-90832800D01*
X96351734Y-90832800D01*
X100927201Y-95408268D01*
X100927200Y-100446946D01*
X100777367Y-100509009D01*
X100551703Y-100659793D01*
X100359793Y-100851703D01*
X100259319Y-101002073D01*
X100209527Y-100977974D01*
X99457502Y-101730000D01*
X100209527Y-102482026D01*
X100259319Y-102457927D01*
X100359793Y-102608297D01*
X100551703Y-102800207D01*
X100777367Y-102950991D01*
X101028110Y-103054852D01*
X101294299Y-103107800D01*
X101565701Y-103107800D01*
X101831890Y-103054852D01*
X102082633Y-102950991D01*
X102308297Y-102800207D01*
X102500207Y-102608297D01*
X102650991Y-102382633D01*
X102754852Y-102131890D01*
X102807800Y-101865701D01*
X102807800Y-101594299D01*
X102754852Y-101328110D01*
X102650991Y-101077367D01*
X102500207Y-100851703D01*
X102308297Y-100659793D01*
X102082633Y-100509009D01*
X101932800Y-100446946D01*
X101932800Y-100373997D01*
X105322200Y-100373997D01*
X105322200Y-100606003D01*
X105367462Y-100833552D01*
X105456247Y-101047898D01*
X105585143Y-101240804D01*
X105749196Y-101404857D01*
X105942102Y-101533753D01*
X106156448Y-101622538D01*
X106383997Y-101667800D01*
X106616003Y-101667800D01*
X106843552Y-101622538D01*
X107057898Y-101533753D01*
X107250804Y-101404857D01*
X107414857Y-101240804D01*
X107543753Y-101047898D01*
X107632538Y-100833552D01*
X107677800Y-100606003D01*
X107677800Y-100373997D01*
X107632538Y-100146448D01*
X107543753Y-99932102D01*
X107414857Y-99739196D01*
X107250804Y-99575143D01*
X107057898Y-99446247D01*
X106843552Y-99357462D01*
X106616003Y-99312200D01*
X106383997Y-99312200D01*
X106156448Y-99357462D01*
X105942102Y-99446247D01*
X105749196Y-99575143D01*
X105585143Y-99739196D01*
X105456247Y-99932102D01*
X105367462Y-100146448D01*
X105322200Y-100373997D01*
X101932800Y-100373997D01*
X101932800Y-97833997D01*
X105322200Y-97833997D01*
X105322200Y-98066003D01*
X105367462Y-98293552D01*
X105456247Y-98507898D01*
X105585143Y-98700804D01*
X105749196Y-98864857D01*
X105942102Y-98993753D01*
X106156448Y-99082538D01*
X106383997Y-99127800D01*
X106616003Y-99127800D01*
X106843552Y-99082538D01*
X107057898Y-98993753D01*
X107250804Y-98864857D01*
X107414857Y-98700804D01*
X107543753Y-98507898D01*
X107632538Y-98293552D01*
X107677800Y-98066003D01*
X107677800Y-97833997D01*
X107632538Y-97606448D01*
X107543753Y-97392102D01*
X107414857Y-97199196D01*
X107250804Y-97035143D01*
X107057898Y-96906247D01*
X106843552Y-96817462D01*
X106616003Y-96772200D01*
X106383997Y-96772200D01*
X106156448Y-96817462D01*
X105942102Y-96906247D01*
X105749196Y-97035143D01*
X105585143Y-97199196D01*
X105456247Y-97392102D01*
X105367462Y-97606448D01*
X105322200Y-97833997D01*
X101932800Y-97833997D01*
X101932800Y-95293997D01*
X105322200Y-95293997D01*
X105322200Y-95526003D01*
X105367462Y-95753552D01*
X105456247Y-95967898D01*
X105585143Y-96160804D01*
X105749196Y-96324857D01*
X105942102Y-96453753D01*
X106156448Y-96542538D01*
X106383997Y-96587800D01*
X106616003Y-96587800D01*
X106843552Y-96542538D01*
X107057898Y-96453753D01*
X107250804Y-96324857D01*
X107414857Y-96160804D01*
X107543753Y-95967898D01*
X107632538Y-95753552D01*
X107677800Y-95526003D01*
X107677800Y-95293997D01*
X107632538Y-95066448D01*
X107543753Y-94852102D01*
X107414857Y-94659196D01*
X107250804Y-94495143D01*
X107057898Y-94366247D01*
X106843552Y-94277462D01*
X106616003Y-94232200D01*
X106383997Y-94232200D01*
X106156448Y-94277462D01*
X105942102Y-94366247D01*
X105749196Y-94495143D01*
X105585143Y-94659196D01*
X105456247Y-94852102D01*
X105367462Y-95066448D01*
X105322200Y-95293997D01*
X101932800Y-95293997D01*
X101932800Y-95224691D01*
X101935232Y-95199999D01*
X101925524Y-95101434D01*
X101914911Y-95066448D01*
X101896774Y-95006656D01*
X101850085Y-94919308D01*
X101787253Y-94842747D01*
X101768075Y-94827008D01*
X99695064Y-92753997D01*
X105322200Y-92753997D01*
X105322200Y-92986003D01*
X105367462Y-93213552D01*
X105456247Y-93427898D01*
X105585143Y-93620804D01*
X105749196Y-93784857D01*
X105942102Y-93913753D01*
X106156448Y-94002538D01*
X106383997Y-94047800D01*
X106616003Y-94047800D01*
X106843552Y-94002538D01*
X107057898Y-93913753D01*
X107250804Y-93784857D01*
X107414857Y-93620804D01*
X107543753Y-93427898D01*
X107632538Y-93213552D01*
X107677800Y-92986003D01*
X107677800Y-92753997D01*
X107632538Y-92526448D01*
X107543753Y-92312102D01*
X107414857Y-92119196D01*
X107250804Y-91955143D01*
X107057898Y-91826247D01*
X106843552Y-91737462D01*
X106616003Y-91692200D01*
X106383997Y-91692200D01*
X106156448Y-91737462D01*
X105942102Y-91826247D01*
X105749196Y-91955143D01*
X105585143Y-92119196D01*
X105456247Y-92312102D01*
X105367462Y-92526448D01*
X105322200Y-92753997D01*
X99695064Y-92753997D01*
X97155064Y-90213997D01*
X105322200Y-90213997D01*
X105322200Y-90446003D01*
X105367462Y-90673552D01*
X105456247Y-90887898D01*
X105585143Y-91080804D01*
X105749196Y-91244857D01*
X105942102Y-91373753D01*
X106156448Y-91462538D01*
X106383997Y-91507800D01*
X106616003Y-91507800D01*
X106843552Y-91462538D01*
X107057898Y-91373753D01*
X107250804Y-91244857D01*
X107414857Y-91080804D01*
X107543753Y-90887898D01*
X107632538Y-90673552D01*
X107677800Y-90446003D01*
X107677800Y-90213997D01*
X107632538Y-89986448D01*
X107543753Y-89772102D01*
X107414857Y-89579196D01*
X107250804Y-89415143D01*
X107057898Y-89286247D01*
X106843552Y-89197462D01*
X106616003Y-89152200D01*
X106383997Y-89152200D01*
X106156448Y-89197462D01*
X105942102Y-89286247D01*
X105749196Y-89415143D01*
X105585143Y-89579196D01*
X105456247Y-89772102D01*
X105367462Y-89986448D01*
X105322200Y-90213997D01*
X97155064Y-90213997D01*
X96932996Y-89991930D01*
X96917253Y-89972747D01*
X96840692Y-89909915D01*
X96753344Y-89863226D01*
X96658566Y-89834476D01*
X96584692Y-89827200D01*
X96560000Y-89824768D01*
X96535308Y-89827200D01*
X92326575Y-89827200D01*
X92303753Y-89772102D01*
X92174857Y-89579196D01*
X92010804Y-89415143D01*
X91817898Y-89286247D01*
X91603552Y-89197462D01*
X91376003Y-89152200D01*
X91143997Y-89152200D01*
X90916448Y-89197462D01*
X90702102Y-89286247D01*
X90509196Y-89415143D01*
X90345143Y-89579196D01*
X90216247Y-89772102D01*
X90127462Y-89986448D01*
X90082200Y-90213997D01*
X73407800Y-90213997D01*
X73407800Y-87673997D01*
X90082200Y-87673997D01*
X90082200Y-87906003D01*
X90127462Y-88133552D01*
X90216247Y-88347898D01*
X90345143Y-88540804D01*
X90509196Y-88704857D01*
X90702102Y-88833753D01*
X90916448Y-88922538D01*
X91143997Y-88967800D01*
X91376003Y-88967800D01*
X91603552Y-88922538D01*
X91817898Y-88833753D01*
X92010804Y-88704857D01*
X92174857Y-88540804D01*
X92195755Y-88509527D01*
X95677974Y-88509527D01*
X95791302Y-88743678D01*
X96098877Y-88839197D01*
X96419178Y-88872875D01*
X96739895Y-88843418D01*
X97048703Y-88751960D01*
X97068698Y-88743678D01*
X97182026Y-88509527D01*
X96430000Y-87757502D01*
X95677974Y-88509527D01*
X92195755Y-88509527D01*
X92303753Y-88347898D01*
X92392538Y-88133552D01*
X92437800Y-87906003D01*
X92437800Y-87673997D01*
X92392538Y-87446448D01*
X92303753Y-87232102D01*
X92295118Y-87219178D01*
X94787125Y-87219178D01*
X94816582Y-87539895D01*
X94908040Y-87848703D01*
X94916322Y-87868698D01*
X95150473Y-87982026D01*
X95902498Y-87230000D01*
X96957502Y-87230000D01*
X97709527Y-87982026D01*
X97943678Y-87868698D01*
X98039197Y-87561123D01*
X98072875Y-87240822D01*
X98059418Y-87094299D01*
X100052200Y-87094299D01*
X100052200Y-87365701D01*
X100105148Y-87631890D01*
X100209009Y-87882633D01*
X100359793Y-88108297D01*
X100551703Y-88300207D01*
X100777367Y-88450991D01*
X101028110Y-88554852D01*
X101294299Y-88607800D01*
X101565701Y-88607800D01*
X101831890Y-88554852D01*
X102082633Y-88450991D01*
X102308297Y-88300207D01*
X102500207Y-88108297D01*
X102650991Y-87882633D01*
X102737410Y-87673997D01*
X105322200Y-87673997D01*
X105322200Y-87906003D01*
X105367462Y-88133552D01*
X105456247Y-88347898D01*
X105585143Y-88540804D01*
X105749196Y-88704857D01*
X105942102Y-88833753D01*
X106156448Y-88922538D01*
X106383997Y-88967800D01*
X106616003Y-88967800D01*
X106843552Y-88922538D01*
X107057898Y-88833753D01*
X107250804Y-88704857D01*
X107414857Y-88540804D01*
X107543753Y-88347898D01*
X107632538Y-88133552D01*
X107677800Y-87906003D01*
X107677800Y-87673997D01*
X107632538Y-87446448D01*
X107543753Y-87232102D01*
X107414857Y-87039196D01*
X107250804Y-86875143D01*
X107057898Y-86746247D01*
X106843552Y-86657462D01*
X106616003Y-86612200D01*
X106383997Y-86612200D01*
X106156448Y-86657462D01*
X105942102Y-86746247D01*
X105749196Y-86875143D01*
X105585143Y-87039196D01*
X105456247Y-87232102D01*
X105367462Y-87446448D01*
X105322200Y-87673997D01*
X102737410Y-87673997D01*
X102754852Y-87631890D01*
X102807800Y-87365701D01*
X102807800Y-87094299D01*
X102754852Y-86828110D01*
X102650991Y-86577367D01*
X102500207Y-86351703D01*
X102308297Y-86159793D01*
X102082633Y-86009009D01*
X101831890Y-85905148D01*
X101565701Y-85852200D01*
X101294299Y-85852200D01*
X101028110Y-85905148D01*
X100777367Y-86009009D01*
X100551703Y-86159793D01*
X100359793Y-86351703D01*
X100209009Y-86577367D01*
X100105148Y-86828110D01*
X100052200Y-87094299D01*
X98059418Y-87094299D01*
X98043418Y-86920105D01*
X97951960Y-86611297D01*
X97943678Y-86591302D01*
X97709527Y-86477974D01*
X96957502Y-87230000D01*
X95902498Y-87230000D01*
X95150473Y-86477974D01*
X94916322Y-86591302D01*
X94820803Y-86898877D01*
X94787125Y-87219178D01*
X92295118Y-87219178D01*
X92174857Y-87039196D01*
X92010804Y-86875143D01*
X91817898Y-86746247D01*
X91603552Y-86657462D01*
X91376003Y-86612200D01*
X91143997Y-86612200D01*
X90916448Y-86657462D01*
X90702102Y-86746247D01*
X90509196Y-86875143D01*
X90345143Y-87039196D01*
X90216247Y-87232102D01*
X90127462Y-87446448D01*
X90082200Y-87673997D01*
X73407800Y-87673997D01*
X73407800Y-85133997D01*
X90082200Y-85133997D01*
X90082200Y-85366003D01*
X90127462Y-85593552D01*
X90216247Y-85807898D01*
X90345143Y-86000804D01*
X90509196Y-86164857D01*
X90702102Y-86293753D01*
X90916448Y-86382538D01*
X91143997Y-86427800D01*
X91376003Y-86427800D01*
X91603552Y-86382538D01*
X91817898Y-86293753D01*
X92010804Y-86164857D01*
X92174857Y-86000804D01*
X92208487Y-85950473D01*
X95677974Y-85950473D01*
X96430000Y-86702498D01*
X97182026Y-85950473D01*
X97068698Y-85716322D01*
X96761123Y-85620803D01*
X96440822Y-85587125D01*
X96120105Y-85616582D01*
X95811297Y-85708040D01*
X95791302Y-85716322D01*
X95677974Y-85950473D01*
X92208487Y-85950473D01*
X92303753Y-85807898D01*
X92392538Y-85593552D01*
X92437800Y-85366003D01*
X92437800Y-85133997D01*
X105322200Y-85133997D01*
X105322200Y-85366003D01*
X105367462Y-85593552D01*
X105456247Y-85807898D01*
X105585143Y-86000804D01*
X105749196Y-86164857D01*
X105942102Y-86293753D01*
X106156448Y-86382538D01*
X106383997Y-86427800D01*
X106616003Y-86427800D01*
X106843552Y-86382538D01*
X107057898Y-86293753D01*
X107250804Y-86164857D01*
X107414857Y-86000804D01*
X107543753Y-85807898D01*
X107632538Y-85593552D01*
X107677800Y-85366003D01*
X107677800Y-85133997D01*
X107632538Y-84906448D01*
X107543753Y-84692102D01*
X107414857Y-84499196D01*
X107250804Y-84335143D01*
X107057898Y-84206247D01*
X106843552Y-84117462D01*
X106616003Y-84072200D01*
X106383997Y-84072200D01*
X106156448Y-84117462D01*
X105942102Y-84206247D01*
X105749196Y-84335143D01*
X105585143Y-84499196D01*
X105456247Y-84692102D01*
X105367462Y-84906448D01*
X105322200Y-85133997D01*
X92437800Y-85133997D01*
X92392538Y-84906448D01*
X92303753Y-84692102D01*
X92174857Y-84499196D01*
X92010804Y-84335143D01*
X91817898Y-84206247D01*
X91603552Y-84117462D01*
X91376003Y-84072200D01*
X91143997Y-84072200D01*
X90916448Y-84117462D01*
X90702102Y-84206247D01*
X90509196Y-84335143D01*
X90345143Y-84499196D01*
X90216247Y-84692102D01*
X90127462Y-84906448D01*
X90082200Y-85133997D01*
X73407800Y-85133997D01*
X73407800Y-82593997D01*
X90082200Y-82593997D01*
X90082200Y-82826003D01*
X90127462Y-83053552D01*
X90216247Y-83267898D01*
X90345143Y-83460804D01*
X90509196Y-83624857D01*
X90702102Y-83753753D01*
X90916448Y-83842538D01*
X91143997Y-83887800D01*
X91376003Y-83887800D01*
X91603552Y-83842538D01*
X91658649Y-83819716D01*
X92007008Y-84168075D01*
X92022747Y-84187253D01*
X92099308Y-84250085D01*
X92186656Y-84296774D01*
X92281434Y-84325524D01*
X92355308Y-84332800D01*
X92355315Y-84332800D01*
X92379999Y-84335231D01*
X92404684Y-84332800D01*
X100863425Y-84332800D01*
X100886247Y-84387898D01*
X101015143Y-84580804D01*
X101179196Y-84744857D01*
X101372102Y-84873753D01*
X101586448Y-84962538D01*
X101813997Y-85007800D01*
X102046003Y-85007800D01*
X102273552Y-84962538D01*
X102487898Y-84873753D01*
X102680804Y-84744857D01*
X102844857Y-84580804D01*
X102973753Y-84387898D01*
X103062538Y-84173552D01*
X103107800Y-83946003D01*
X103107800Y-83713997D01*
X103062538Y-83486448D01*
X102973753Y-83272102D01*
X102844857Y-83079196D01*
X102680804Y-82915143D01*
X102487898Y-82786247D01*
X102273552Y-82697462D01*
X102046003Y-82652200D01*
X101813997Y-82652200D01*
X101586448Y-82697462D01*
X101372102Y-82786247D01*
X101179196Y-82915143D01*
X101015143Y-83079196D01*
X100886247Y-83272102D01*
X100863425Y-83327200D01*
X92588267Y-83327200D01*
X92369716Y-83108649D01*
X92392538Y-83053552D01*
X92437800Y-82826003D01*
X92437800Y-82593997D01*
X105322200Y-82593997D01*
X105322200Y-82826003D01*
X105367462Y-83053552D01*
X105456247Y-83267898D01*
X105585143Y-83460804D01*
X105749196Y-83624857D01*
X105942102Y-83753753D01*
X106156448Y-83842538D01*
X106383997Y-83887800D01*
X106616003Y-83887800D01*
X106843552Y-83842538D01*
X107057898Y-83753753D01*
X107250804Y-83624857D01*
X107414857Y-83460804D01*
X107543753Y-83267898D01*
X107632538Y-83053552D01*
X107677800Y-82826003D01*
X107677800Y-82593997D01*
X107632538Y-82366448D01*
X107543753Y-82152102D01*
X107414857Y-81959196D01*
X107250804Y-81795143D01*
X107057898Y-81666247D01*
X106843552Y-81577462D01*
X106616003Y-81532200D01*
X106383997Y-81532200D01*
X106156448Y-81577462D01*
X105942102Y-81666247D01*
X105749196Y-81795143D01*
X105585143Y-81959196D01*
X105456247Y-82152102D01*
X105367462Y-82366448D01*
X105322200Y-82593997D01*
X92437800Y-82593997D01*
X92392538Y-82366448D01*
X92303753Y-82152102D01*
X92174857Y-81959196D01*
X92010804Y-81795143D01*
X91817898Y-81666247D01*
X91603552Y-81577462D01*
X91376003Y-81532200D01*
X91143997Y-81532200D01*
X90916448Y-81577462D01*
X90702102Y-81666247D01*
X90509196Y-81795143D01*
X90345143Y-81959196D01*
X90216247Y-82152102D01*
X90127462Y-82366448D01*
X90082200Y-82593997D01*
X73407800Y-82593997D01*
X73407800Y-80243768D01*
X73418742Y-80053997D01*
X90082200Y-80053997D01*
X90082200Y-80286003D01*
X90127462Y-80513552D01*
X90216247Y-80727898D01*
X90345143Y-80920804D01*
X90509196Y-81084857D01*
X90702102Y-81213753D01*
X90916448Y-81302538D01*
X91143997Y-81347800D01*
X91376003Y-81347800D01*
X91603552Y-81302538D01*
X91817898Y-81213753D01*
X92010804Y-81084857D01*
X92174857Y-80920804D01*
X92303753Y-80727898D01*
X92392538Y-80513552D01*
X92437800Y-80286003D01*
X92437800Y-80053997D01*
X105322200Y-80053997D01*
X105322200Y-80286003D01*
X105367462Y-80513552D01*
X105456247Y-80727898D01*
X105585143Y-80920804D01*
X105749196Y-81084857D01*
X105942102Y-81213753D01*
X106156448Y-81302538D01*
X106383997Y-81347800D01*
X106616003Y-81347800D01*
X106843552Y-81302538D01*
X107057898Y-81213753D01*
X107250804Y-81084857D01*
X107414857Y-80920804D01*
X107459899Y-80853393D01*
X108352200Y-80853393D01*
X108352200Y-81006607D01*
X108382091Y-81156876D01*
X108440723Y-81298426D01*
X108525844Y-81425818D01*
X108634182Y-81534156D01*
X108761574Y-81619277D01*
X108903124Y-81677909D01*
X109053393Y-81707800D01*
X109206607Y-81707800D01*
X109356876Y-81677909D01*
X109498426Y-81619277D01*
X109625818Y-81534156D01*
X109727174Y-81432800D01*
X114021734Y-81432800D01*
X117657008Y-85068075D01*
X117672747Y-85087253D01*
X117691925Y-85102992D01*
X117691926Y-85102993D01*
X117749308Y-85150085D01*
X117836656Y-85196774D01*
X117931434Y-85225524D01*
X118030000Y-85235232D01*
X118054692Y-85232800D01*
X122532826Y-85232800D01*
X122634182Y-85334156D01*
X122761574Y-85419277D01*
X122903124Y-85477909D01*
X123053393Y-85507800D01*
X123206607Y-85507800D01*
X123356876Y-85477909D01*
X123498426Y-85419277D01*
X123625818Y-85334156D01*
X123734156Y-85225818D01*
X123819277Y-85098426D01*
X123877909Y-84956876D01*
X123907800Y-84806607D01*
X123907800Y-84653393D01*
X123877909Y-84503124D01*
X123819277Y-84361574D01*
X123734156Y-84234182D01*
X123625818Y-84125844D01*
X123498426Y-84040723D01*
X123356876Y-83982091D01*
X123206607Y-83952200D01*
X123053393Y-83952200D01*
X122903124Y-83982091D01*
X122761574Y-84040723D01*
X122634182Y-84125844D01*
X122532826Y-84227200D01*
X118238267Y-84227200D01*
X114602996Y-80591930D01*
X114587253Y-80572747D01*
X114510692Y-80509915D01*
X114423344Y-80463226D01*
X114328566Y-80434476D01*
X114254692Y-80427200D01*
X114230000Y-80424768D01*
X114205308Y-80427200D01*
X109727174Y-80427200D01*
X109625818Y-80325844D01*
X109498426Y-80240723D01*
X109356876Y-80182091D01*
X109206607Y-80152200D01*
X109053393Y-80152200D01*
X108903124Y-80182091D01*
X108761574Y-80240723D01*
X108634182Y-80325844D01*
X108525844Y-80434182D01*
X108440723Y-80561574D01*
X108382091Y-80703124D01*
X108352200Y-80853393D01*
X107459899Y-80853393D01*
X107543753Y-80727898D01*
X107632538Y-80513552D01*
X107677800Y-80286003D01*
X107677800Y-80053997D01*
X107632538Y-79826448D01*
X107543753Y-79612102D01*
X107414857Y-79419196D01*
X107250804Y-79255143D01*
X107057898Y-79126247D01*
X106843552Y-79037462D01*
X106616003Y-78992200D01*
X106383997Y-78992200D01*
X106156448Y-79037462D01*
X105942102Y-79126247D01*
X105749196Y-79255143D01*
X105585143Y-79419196D01*
X105456247Y-79612102D01*
X105367462Y-79826448D01*
X105322200Y-80053997D01*
X92437800Y-80053997D01*
X92392538Y-79826448D01*
X92303753Y-79612102D01*
X92174857Y-79419196D01*
X92010804Y-79255143D01*
X91817898Y-79126247D01*
X91603552Y-79037462D01*
X91376003Y-78992200D01*
X91143997Y-78992200D01*
X90916448Y-79037462D01*
X90702102Y-79126247D01*
X90509196Y-79255143D01*
X90345143Y-79419196D01*
X90216247Y-79612102D01*
X90127462Y-79826448D01*
X90082200Y-80053997D01*
X73418742Y-80053997D01*
X73484949Y-78905758D01*
X73713001Y-77599079D01*
X73738203Y-77513997D01*
X90082200Y-77513997D01*
X90082200Y-77746003D01*
X90127462Y-77973552D01*
X90216247Y-78187898D01*
X90345143Y-78380804D01*
X90509196Y-78544857D01*
X90702102Y-78673753D01*
X90916448Y-78762538D01*
X91143997Y-78807800D01*
X91376003Y-78807800D01*
X91603552Y-78762538D01*
X91817898Y-78673753D01*
X92010804Y-78544857D01*
X92174857Y-78380804D01*
X92303753Y-78187898D01*
X92392538Y-77973552D01*
X92437800Y-77746003D01*
X92437800Y-77513997D01*
X105322200Y-77513997D01*
X105322200Y-77746003D01*
X105367462Y-77973552D01*
X105456247Y-78187898D01*
X105585143Y-78380804D01*
X105749196Y-78544857D01*
X105942102Y-78673753D01*
X106156448Y-78762538D01*
X106383997Y-78807800D01*
X106616003Y-78807800D01*
X106843552Y-78762538D01*
X107057898Y-78673753D01*
X107250804Y-78544857D01*
X107414857Y-78380804D01*
X107543753Y-78187898D01*
X107632538Y-77973552D01*
X107677800Y-77746003D01*
X107677800Y-77513997D01*
X107632538Y-77286448D01*
X107543753Y-77072102D01*
X107414857Y-76879196D01*
X107250804Y-76715143D01*
X107057898Y-76586247D01*
X106843552Y-76497462D01*
X106826091Y-76493989D01*
X107016941Y-76436094D01*
X107104424Y-76221926D01*
X106500000Y-75617502D01*
X105895576Y-76221926D01*
X105983059Y-76436094D01*
X106185269Y-76491729D01*
X106156448Y-76497462D01*
X105942102Y-76586247D01*
X105749196Y-76715143D01*
X105585143Y-76879196D01*
X105456247Y-77072102D01*
X105367462Y-77286448D01*
X105322200Y-77513997D01*
X92437800Y-77513997D01*
X92392538Y-77286448D01*
X92303753Y-77072102D01*
X92174857Y-76879196D01*
X92010804Y-76715143D01*
X91817898Y-76586247D01*
X91603552Y-76497462D01*
X91376003Y-76452200D01*
X91143997Y-76452200D01*
X90916448Y-76497462D01*
X90702102Y-76586247D01*
X90509196Y-76715143D01*
X90345143Y-76879196D01*
X90216247Y-77072102D01*
X90127462Y-77286448D01*
X90082200Y-77513997D01*
X73738203Y-77513997D01*
X74089730Y-76327266D01*
X74610142Y-75107176D01*
X75267333Y-73954997D01*
X75502243Y-73635204D01*
X76582200Y-73635204D01*
X76582200Y-74024796D01*
X76658205Y-74406903D01*
X76807296Y-74766840D01*
X77023742Y-75090774D01*
X77299226Y-75366258D01*
X77623160Y-75582704D01*
X77983097Y-75731795D01*
X78365204Y-75807800D01*
X78754796Y-75807800D01*
X79136903Y-75731795D01*
X79496840Y-75582704D01*
X79820774Y-75366258D01*
X80096258Y-75090774D01*
X80174285Y-74973997D01*
X90082200Y-74973997D01*
X90082200Y-75206003D01*
X90127462Y-75433552D01*
X90216247Y-75647898D01*
X90345143Y-75840804D01*
X90509196Y-76004857D01*
X90702102Y-76133753D01*
X90916448Y-76222538D01*
X91143997Y-76267800D01*
X91376003Y-76267800D01*
X91603552Y-76222538D01*
X91817898Y-76133753D01*
X92010804Y-76004857D01*
X92174857Y-75840804D01*
X92303753Y-75647898D01*
X92392538Y-75433552D01*
X92437800Y-75206003D01*
X92437800Y-75127537D01*
X105058546Y-75127537D01*
X105093566Y-75408030D01*
X105153906Y-75606941D01*
X105368074Y-75694424D01*
X105972498Y-75090000D01*
X107027502Y-75090000D01*
X107631926Y-75694424D01*
X107846094Y-75606941D01*
X107921080Y-75334398D01*
X107941454Y-75052463D01*
X107906434Y-74771970D01*
X107846094Y-74573059D01*
X107631926Y-74485576D01*
X107027502Y-75090000D01*
X105972498Y-75090000D01*
X105368074Y-74485576D01*
X105153906Y-74573059D01*
X105078920Y-74845602D01*
X105058546Y-75127537D01*
X92437800Y-75127537D01*
X92437800Y-74973997D01*
X92392538Y-74746448D01*
X92303753Y-74532102D01*
X92174857Y-74339196D01*
X92010804Y-74175143D01*
X91817898Y-74046247D01*
X91603552Y-73957462D01*
X91376003Y-73912200D01*
X91143997Y-73912200D01*
X90916448Y-73957462D01*
X90702102Y-74046247D01*
X90509196Y-74175143D01*
X90345143Y-74339196D01*
X90216247Y-74532102D01*
X90127462Y-74746448D01*
X90082200Y-74973997D01*
X80174285Y-74973997D01*
X80312704Y-74766840D01*
X80461795Y-74406903D01*
X80537800Y-74024796D01*
X80537800Y-73635204D01*
X80461795Y-73253097D01*
X80312704Y-72893160D01*
X80096258Y-72569226D01*
X79820774Y-72293742D01*
X79496840Y-72077296D01*
X79136903Y-71928205D01*
X78754796Y-71852200D01*
X78365204Y-71852200D01*
X77983097Y-71928205D01*
X77623160Y-72077296D01*
X77299226Y-72293742D01*
X77023742Y-72569226D01*
X76807296Y-72893160D01*
X76658205Y-73253097D01*
X76582200Y-73635204D01*
X75502243Y-73635204D01*
X76052603Y-72885979D01*
X76955536Y-71914308D01*
X77147916Y-71750000D01*
X90080372Y-71750000D01*
X90080372Y-73350000D01*
X90087666Y-73424062D01*
X90109269Y-73495277D01*
X90144351Y-73560910D01*
X90191562Y-73618438D01*
X90249090Y-73665649D01*
X90314723Y-73700731D01*
X90385938Y-73722334D01*
X90460000Y-73729628D01*
X92060000Y-73729628D01*
X92134062Y-73722334D01*
X92205277Y-73700731D01*
X92270910Y-73665649D01*
X92328438Y-73618438D01*
X92375649Y-73560910D01*
X92379344Y-73553997D01*
X100752200Y-73553997D01*
X100752200Y-73786003D01*
X100797462Y-74013552D01*
X100886247Y-74227898D01*
X101015143Y-74420804D01*
X101179196Y-74584857D01*
X101372102Y-74713753D01*
X101586448Y-74802538D01*
X101813997Y-74847800D01*
X102046003Y-74847800D01*
X102273552Y-74802538D01*
X102487898Y-74713753D01*
X102680804Y-74584857D01*
X102844857Y-74420804D01*
X102973753Y-74227898D01*
X103062538Y-74013552D01*
X103107800Y-73786003D01*
X103107800Y-73553997D01*
X103062538Y-73326448D01*
X102973753Y-73112102D01*
X102844857Y-72919196D01*
X102680804Y-72755143D01*
X102487898Y-72626247D01*
X102273552Y-72537462D01*
X102046003Y-72492200D01*
X101813997Y-72492200D01*
X101586448Y-72537462D01*
X101372102Y-72626247D01*
X101179196Y-72755143D01*
X101015143Y-72919196D01*
X100886247Y-73112102D01*
X100797462Y-73326448D01*
X100752200Y-73553997D01*
X92379344Y-73553997D01*
X92410731Y-73495277D01*
X92432334Y-73424062D01*
X92439628Y-73350000D01*
X92439628Y-72433997D01*
X105322200Y-72433997D01*
X105322200Y-72666003D01*
X105367462Y-72893552D01*
X105456247Y-73107898D01*
X105585143Y-73300804D01*
X105749196Y-73464857D01*
X105942102Y-73593753D01*
X106156448Y-73682538D01*
X106173909Y-73686011D01*
X105983059Y-73743906D01*
X105895576Y-73958074D01*
X106500000Y-74562498D01*
X107104424Y-73958074D01*
X107016941Y-73743906D01*
X106814731Y-73688271D01*
X106843552Y-73682538D01*
X106957826Y-73635204D01*
X117302200Y-73635204D01*
X117302200Y-74024796D01*
X117378205Y-74406903D01*
X117527296Y-74766840D01*
X117743742Y-75090774D01*
X118019226Y-75366258D01*
X118343160Y-75582704D01*
X118703097Y-75731795D01*
X119085204Y-75807800D01*
X119474796Y-75807800D01*
X119856903Y-75731795D01*
X120216840Y-75582704D01*
X120540774Y-75366258D01*
X120816258Y-75090774D01*
X121032704Y-74766840D01*
X121181795Y-74406903D01*
X121257800Y-74024796D01*
X121257800Y-73635204D01*
X121181795Y-73253097D01*
X121032704Y-72893160D01*
X120816258Y-72569226D01*
X120540774Y-72293742D01*
X120216840Y-72077296D01*
X119856903Y-71928205D01*
X119474796Y-71852200D01*
X119085204Y-71852200D01*
X118703097Y-71928205D01*
X118343160Y-72077296D01*
X118019226Y-72293742D01*
X117743742Y-72569226D01*
X117527296Y-72893160D01*
X117378205Y-73253097D01*
X117302200Y-73635204D01*
X106957826Y-73635204D01*
X107057898Y-73593753D01*
X107250804Y-73464857D01*
X107414857Y-73300804D01*
X107543753Y-73107898D01*
X107632538Y-72893552D01*
X107677800Y-72666003D01*
X107677800Y-72433997D01*
X107632538Y-72206448D01*
X107543753Y-71992102D01*
X107414857Y-71799196D01*
X107250804Y-71635143D01*
X107057898Y-71506247D01*
X106843552Y-71417462D01*
X106616003Y-71372200D01*
X106383997Y-71372200D01*
X106156448Y-71417462D01*
X105942102Y-71506247D01*
X105749196Y-71635143D01*
X105585143Y-71799196D01*
X105456247Y-71992102D01*
X105367462Y-72206448D01*
X105322200Y-72433997D01*
X92439628Y-72433997D01*
X92439628Y-71750000D01*
X92432334Y-71675938D01*
X92410731Y-71604723D01*
X92375649Y-71539090D01*
X92328438Y-71481562D01*
X92270910Y-71434351D01*
X92205277Y-71399269D01*
X92134062Y-71377666D01*
X92060000Y-71370372D01*
X90460000Y-71370372D01*
X90385938Y-71377666D01*
X90314723Y-71399269D01*
X90249090Y-71434351D01*
X90191562Y-71481562D01*
X90144351Y-71539090D01*
X90109269Y-71604723D01*
X90087666Y-71675938D01*
X90080372Y-71750000D01*
X77147916Y-71750000D01*
X77964165Y-71052858D01*
X79065127Y-70313042D01*
X80243818Y-69704673D01*
X81484629Y-69235809D01*
X82771108Y-68912668D01*
X84091165Y-68738879D01*
X84938755Y-68707800D01*
X112916232Y-68707800D01*
X114254242Y-68784949D01*
G37*
%TD.AperFunction*%
%TD*%
M02*
