%TF.GenerationSoftware,KiCad,Pcbnew,(5.1.10)-1*%
%TF.CreationDate,2021-11-28T19:12:49+01:00*%
%TF.ProjectId,VolumeKnob,566f6c75-6d65-44b6-9e6f-622e6b696361,rev?*%
%TF.SameCoordinates,Original*%
%TF.FileFunction,Legend,Top*%
%TF.FilePolarity,Positive*%
%FSLAX46Y46*%
G04 Gerber Fmt 4.6, Leading zero omitted, Abs format (unit mm)*
G04 Created by KiCad (PCBNEW (5.1.10)-1) date 2021-11-28 19:12:49*
%MOMM*%
%LPD*%
G01*
G04 APERTURE LIST*
%ADD10C,0.120000*%
%ADD11C,0.150000*%
G04 APERTURE END LIST*
D10*
%TO.C,SW1*%
X101930000Y-94230000D02*
G75*
G03*
X101930000Y-94230000I-3000000J0D01*
G01*
X92630000Y-92430000D02*
X92630000Y-87530000D01*
X105230000Y-87530000D02*
X105230000Y-92430000D01*
X105230000Y-96030000D02*
X105230000Y-100930000D01*
X105230000Y-100930000D02*
X102430000Y-100930000D01*
X92630000Y-96130000D02*
X92630000Y-100930000D01*
X92630000Y-100930000D02*
X95130000Y-100930000D01*
X95130000Y-101730000D02*
X94830000Y-102030000D01*
X94830000Y-102030000D02*
X94830000Y-101430000D01*
X94830000Y-101430000D02*
X95130000Y-101730000D01*
X92630000Y-87530000D02*
X95230000Y-87530000D01*
X97630000Y-87530000D02*
X100230000Y-87530000D01*
X102630000Y-87530000D02*
X105230000Y-87530000D01*
X98430000Y-94230000D02*
X99430000Y-94230000D01*
X98930000Y-94730000D02*
X98930000Y-93730000D01*
%TO.C,D8*%
X82580000Y-72880000D02*
X89880000Y-72880000D01*
X82580000Y-78380000D02*
X89880000Y-78380000D01*
X89880000Y-78380000D02*
X89880000Y-77230000D01*
%TO.C,R1*%
X100560000Y-82020000D02*
X103300000Y-82020000D01*
X103300000Y-82020000D02*
X103300000Y-75480000D01*
X103300000Y-75480000D02*
X100560000Y-75480000D01*
X100560000Y-75480000D02*
X100560000Y-82020000D01*
X101930000Y-82790000D02*
X101930000Y-82020000D01*
X101930000Y-74710000D02*
X101930000Y-75480000D01*
%TO.C,D7*%
X73480000Y-85980000D02*
X80780000Y-85980000D01*
X73480000Y-91480000D02*
X80780000Y-91480000D01*
X80780000Y-91480000D02*
X80780000Y-90330000D01*
%TO.C,D6*%
X75280000Y-101880000D02*
X82580000Y-101880000D01*
X75280000Y-107380000D02*
X82580000Y-107380000D01*
X82580000Y-107380000D02*
X82580000Y-106230000D01*
%TO.C,D5*%
X87280000Y-112480000D02*
X94580000Y-112480000D01*
X87280000Y-117980000D02*
X94580000Y-117980000D01*
X94580000Y-117980000D02*
X94580000Y-116830000D01*
%TO.C,D4*%
X103280000Y-112480000D02*
X110580000Y-112480000D01*
X103280000Y-117980000D02*
X110580000Y-117980000D01*
X110580000Y-117980000D02*
X110580000Y-116830000D01*
%TO.C,D3*%
X115180000Y-101880000D02*
X122480000Y-101880000D01*
X115180000Y-107380000D02*
X122480000Y-107380000D01*
X122480000Y-107380000D02*
X122480000Y-106230000D01*
%TO.C,D2*%
X117080000Y-85980000D02*
X124380000Y-85980000D01*
X117080000Y-91480000D02*
X124380000Y-91480000D01*
X124380000Y-91480000D02*
X124380000Y-90330000D01*
%TO.C,D1*%
X107980000Y-72880000D02*
X115280000Y-72880000D01*
X107980000Y-78380000D02*
X115280000Y-78380000D01*
X115280000Y-78380000D02*
X115280000Y-77230000D01*
%TO.C,SW1*%
D11*
X103434761Y-91563333D02*
X103482380Y-91420476D01*
X103482380Y-91182380D01*
X103434761Y-91087142D01*
X103387142Y-91039523D01*
X103291904Y-90991904D01*
X103196666Y-90991904D01*
X103101428Y-91039523D01*
X103053809Y-91087142D01*
X103006190Y-91182380D01*
X102958571Y-91372857D01*
X102910952Y-91468095D01*
X102863333Y-91515714D01*
X102768095Y-91563333D01*
X102672857Y-91563333D01*
X102577619Y-91515714D01*
X102530000Y-91468095D01*
X102482380Y-91372857D01*
X102482380Y-91134761D01*
X102530000Y-90991904D01*
X102482380Y-90658571D02*
X103482380Y-90420476D01*
X102768095Y-90230000D01*
X103482380Y-90039523D01*
X102482380Y-89801428D01*
X103482380Y-88896666D02*
X103482380Y-89468095D01*
X103482380Y-89182380D02*
X102482380Y-89182380D01*
X102625238Y-89277619D01*
X102720476Y-89372857D01*
X102768095Y-89468095D01*
%TO.C,D8*%
X85491904Y-72582380D02*
X85491904Y-71582380D01*
X85730000Y-71582380D01*
X85872857Y-71630000D01*
X85968095Y-71725238D01*
X86015714Y-71820476D01*
X86063333Y-72010952D01*
X86063333Y-72153809D01*
X86015714Y-72344285D01*
X85968095Y-72439523D01*
X85872857Y-72534761D01*
X85730000Y-72582380D01*
X85491904Y-72582380D01*
X86634761Y-72010952D02*
X86539523Y-71963333D01*
X86491904Y-71915714D01*
X86444285Y-71820476D01*
X86444285Y-71772857D01*
X86491904Y-71677619D01*
X86539523Y-71630000D01*
X86634761Y-71582380D01*
X86825238Y-71582380D01*
X86920476Y-71630000D01*
X86968095Y-71677619D01*
X87015714Y-71772857D01*
X87015714Y-71820476D01*
X86968095Y-71915714D01*
X86920476Y-71963333D01*
X86825238Y-72010952D01*
X86634761Y-72010952D01*
X86539523Y-72058571D01*
X86491904Y-72106190D01*
X86444285Y-72201428D01*
X86444285Y-72391904D01*
X86491904Y-72487142D01*
X86539523Y-72534761D01*
X86634761Y-72582380D01*
X86825238Y-72582380D01*
X86920476Y-72534761D01*
X86968095Y-72487142D01*
X87015714Y-72391904D01*
X87015714Y-72201428D01*
X86968095Y-72106190D01*
X86920476Y-72058571D01*
X86825238Y-72010952D01*
%TO.C,R1*%
X100012380Y-78916666D02*
X99536190Y-79250000D01*
X100012380Y-79488095D02*
X99012380Y-79488095D01*
X99012380Y-79107142D01*
X99060000Y-79011904D01*
X99107619Y-78964285D01*
X99202857Y-78916666D01*
X99345714Y-78916666D01*
X99440952Y-78964285D01*
X99488571Y-79011904D01*
X99536190Y-79107142D01*
X99536190Y-79488095D01*
X100012380Y-77964285D02*
X100012380Y-78535714D01*
X100012380Y-78250000D02*
X99012380Y-78250000D01*
X99155238Y-78345238D01*
X99250476Y-78440476D01*
X99298095Y-78535714D01*
X102482380Y-80468571D02*
X102482380Y-81040000D01*
X102482380Y-80754285D02*
X101482380Y-80754285D01*
X101625238Y-80849523D01*
X101720476Y-80944761D01*
X101768095Y-81040000D01*
X101482380Y-79849523D02*
X101482380Y-79754285D01*
X101530000Y-79659047D01*
X101577619Y-79611428D01*
X101672857Y-79563809D01*
X101863333Y-79516190D01*
X102101428Y-79516190D01*
X102291904Y-79563809D01*
X102387142Y-79611428D01*
X102434761Y-79659047D01*
X102482380Y-79754285D01*
X102482380Y-79849523D01*
X102434761Y-79944761D01*
X102387142Y-79992380D01*
X102291904Y-80040000D01*
X102101428Y-80087619D01*
X101863333Y-80087619D01*
X101672857Y-80040000D01*
X101577619Y-79992380D01*
X101530000Y-79944761D01*
X101482380Y-79849523D01*
X102482380Y-78325714D02*
X101482380Y-78325714D01*
X102101428Y-78230476D02*
X102482380Y-77944761D01*
X101815714Y-77944761D02*
X102196666Y-78325714D01*
X102482380Y-77563809D02*
X102482380Y-77325714D01*
X102291904Y-77325714D01*
X102244285Y-77420952D01*
X102149047Y-77516190D01*
X102006190Y-77563809D01*
X101768095Y-77563809D01*
X101625238Y-77516190D01*
X101530000Y-77420952D01*
X101482380Y-77278095D01*
X101482380Y-77087619D01*
X101530000Y-76944761D01*
X101625238Y-76849523D01*
X101768095Y-76801904D01*
X102006190Y-76801904D01*
X102149047Y-76849523D01*
X102244285Y-76944761D01*
X102291904Y-77040000D01*
X102482380Y-77040000D01*
X102482380Y-76801904D01*
%TO.C,U1*%
X95936190Y-73322380D02*
X95936190Y-72322380D01*
X96317142Y-72322380D01*
X96412380Y-72370000D01*
X96460000Y-72417619D01*
X96507619Y-72512857D01*
X96507619Y-72655714D01*
X96460000Y-72750952D01*
X96412380Y-72798571D01*
X96317142Y-72846190D01*
X95936190Y-72846190D01*
X96936190Y-73322380D02*
X96936190Y-72655714D01*
X96936190Y-72846190D02*
X96983809Y-72750952D01*
X97031428Y-72703333D01*
X97126666Y-72655714D01*
X97221904Y-72655714D01*
X97698095Y-73322380D02*
X97602857Y-73274761D01*
X97555238Y-73227142D01*
X97507619Y-73131904D01*
X97507619Y-72846190D01*
X97555238Y-72750952D01*
X97602857Y-72703333D01*
X97698095Y-72655714D01*
X97840952Y-72655714D01*
X97936190Y-72703333D01*
X97983809Y-72750952D01*
X98031428Y-72846190D01*
X98031428Y-73131904D01*
X97983809Y-73227142D01*
X97936190Y-73274761D01*
X97840952Y-73322380D01*
X97698095Y-73322380D01*
X98460000Y-73322380D02*
X98460000Y-72322380D01*
X98793333Y-73036666D01*
X99126666Y-72322380D01*
X99126666Y-73322380D01*
X99602857Y-73322380D02*
X99602857Y-72655714D01*
X99602857Y-72322380D02*
X99555238Y-72370000D01*
X99602857Y-72417619D01*
X99650476Y-72370000D01*
X99602857Y-72322380D01*
X99602857Y-72417619D01*
X100507619Y-73274761D02*
X100412380Y-73322380D01*
X100221904Y-73322380D01*
X100126666Y-73274761D01*
X100079047Y-73227142D01*
X100031428Y-73131904D01*
X100031428Y-72846190D01*
X100079047Y-72750952D01*
X100126666Y-72703333D01*
X100221904Y-72655714D01*
X100412380Y-72655714D01*
X100507619Y-72703333D01*
X100936190Y-73322380D02*
X100936190Y-72655714D01*
X100936190Y-72846190D02*
X100983809Y-72750952D01*
X101031428Y-72703333D01*
X101126666Y-72655714D01*
X101221904Y-72655714D01*
X101698095Y-73322380D02*
X101602857Y-73274761D01*
X101555238Y-73227142D01*
X101507619Y-73131904D01*
X101507619Y-72846190D01*
X101555238Y-72750952D01*
X101602857Y-72703333D01*
X101698095Y-72655714D01*
X101840952Y-72655714D01*
X101936190Y-72703333D01*
X101983809Y-72750952D01*
X102031428Y-72846190D01*
X102031428Y-73131904D01*
X101983809Y-73227142D01*
X101936190Y-73274761D01*
X101840952Y-73322380D01*
X101698095Y-73322380D01*
%TO.C,D7*%
X76391904Y-85682380D02*
X76391904Y-84682380D01*
X76630000Y-84682380D01*
X76772857Y-84730000D01*
X76868095Y-84825238D01*
X76915714Y-84920476D01*
X76963333Y-85110952D01*
X76963333Y-85253809D01*
X76915714Y-85444285D01*
X76868095Y-85539523D01*
X76772857Y-85634761D01*
X76630000Y-85682380D01*
X76391904Y-85682380D01*
X77296666Y-84682380D02*
X77963333Y-84682380D01*
X77534761Y-85682380D01*
%TO.C,D6*%
X78191904Y-101582380D02*
X78191904Y-100582380D01*
X78430000Y-100582380D01*
X78572857Y-100630000D01*
X78668095Y-100725238D01*
X78715714Y-100820476D01*
X78763333Y-101010952D01*
X78763333Y-101153809D01*
X78715714Y-101344285D01*
X78668095Y-101439523D01*
X78572857Y-101534761D01*
X78430000Y-101582380D01*
X78191904Y-101582380D01*
X79620476Y-100582380D02*
X79430000Y-100582380D01*
X79334761Y-100630000D01*
X79287142Y-100677619D01*
X79191904Y-100820476D01*
X79144285Y-101010952D01*
X79144285Y-101391904D01*
X79191904Y-101487142D01*
X79239523Y-101534761D01*
X79334761Y-101582380D01*
X79525238Y-101582380D01*
X79620476Y-101534761D01*
X79668095Y-101487142D01*
X79715714Y-101391904D01*
X79715714Y-101153809D01*
X79668095Y-101058571D01*
X79620476Y-101010952D01*
X79525238Y-100963333D01*
X79334761Y-100963333D01*
X79239523Y-101010952D01*
X79191904Y-101058571D01*
X79144285Y-101153809D01*
%TO.C,D5*%
X90191904Y-112182380D02*
X90191904Y-111182380D01*
X90430000Y-111182380D01*
X90572857Y-111230000D01*
X90668095Y-111325238D01*
X90715714Y-111420476D01*
X90763333Y-111610952D01*
X90763333Y-111753809D01*
X90715714Y-111944285D01*
X90668095Y-112039523D01*
X90572857Y-112134761D01*
X90430000Y-112182380D01*
X90191904Y-112182380D01*
X91668095Y-111182380D02*
X91191904Y-111182380D01*
X91144285Y-111658571D01*
X91191904Y-111610952D01*
X91287142Y-111563333D01*
X91525238Y-111563333D01*
X91620476Y-111610952D01*
X91668095Y-111658571D01*
X91715714Y-111753809D01*
X91715714Y-111991904D01*
X91668095Y-112087142D01*
X91620476Y-112134761D01*
X91525238Y-112182380D01*
X91287142Y-112182380D01*
X91191904Y-112134761D01*
X91144285Y-112087142D01*
%TO.C,D4*%
X106191904Y-112182380D02*
X106191904Y-111182380D01*
X106430000Y-111182380D01*
X106572857Y-111230000D01*
X106668095Y-111325238D01*
X106715714Y-111420476D01*
X106763333Y-111610952D01*
X106763333Y-111753809D01*
X106715714Y-111944285D01*
X106668095Y-112039523D01*
X106572857Y-112134761D01*
X106430000Y-112182380D01*
X106191904Y-112182380D01*
X107620476Y-111515714D02*
X107620476Y-112182380D01*
X107382380Y-111134761D02*
X107144285Y-111849047D01*
X107763333Y-111849047D01*
%TO.C,D3*%
X118091904Y-101582380D02*
X118091904Y-100582380D01*
X118330000Y-100582380D01*
X118472857Y-100630000D01*
X118568095Y-100725238D01*
X118615714Y-100820476D01*
X118663333Y-101010952D01*
X118663333Y-101153809D01*
X118615714Y-101344285D01*
X118568095Y-101439523D01*
X118472857Y-101534761D01*
X118330000Y-101582380D01*
X118091904Y-101582380D01*
X118996666Y-100582380D02*
X119615714Y-100582380D01*
X119282380Y-100963333D01*
X119425238Y-100963333D01*
X119520476Y-101010952D01*
X119568095Y-101058571D01*
X119615714Y-101153809D01*
X119615714Y-101391904D01*
X119568095Y-101487142D01*
X119520476Y-101534761D01*
X119425238Y-101582380D01*
X119139523Y-101582380D01*
X119044285Y-101534761D01*
X118996666Y-101487142D01*
%TO.C,D2*%
X119991904Y-85682380D02*
X119991904Y-84682380D01*
X120230000Y-84682380D01*
X120372857Y-84730000D01*
X120468095Y-84825238D01*
X120515714Y-84920476D01*
X120563333Y-85110952D01*
X120563333Y-85253809D01*
X120515714Y-85444285D01*
X120468095Y-85539523D01*
X120372857Y-85634761D01*
X120230000Y-85682380D01*
X119991904Y-85682380D01*
X120944285Y-84777619D02*
X120991904Y-84730000D01*
X121087142Y-84682380D01*
X121325238Y-84682380D01*
X121420476Y-84730000D01*
X121468095Y-84777619D01*
X121515714Y-84872857D01*
X121515714Y-84968095D01*
X121468095Y-85110952D01*
X120896666Y-85682380D01*
X121515714Y-85682380D01*
%TO.C,D1*%
X110891904Y-72582380D02*
X110891904Y-71582380D01*
X111130000Y-71582380D01*
X111272857Y-71630000D01*
X111368095Y-71725238D01*
X111415714Y-71820476D01*
X111463333Y-72010952D01*
X111463333Y-72153809D01*
X111415714Y-72344285D01*
X111368095Y-72439523D01*
X111272857Y-72534761D01*
X111130000Y-72582380D01*
X110891904Y-72582380D01*
X112415714Y-72582380D02*
X111844285Y-72582380D01*
X112130000Y-72582380D02*
X112130000Y-71582380D01*
X112034761Y-71725238D01*
X111939523Y-71820476D01*
X111844285Y-71868095D01*
%TD*%
M02*
