%TF.GenerationSoftware,KiCad,Pcbnew,(5.1.10)-1*%
%TF.CreationDate,2021-12-21T20:41:06+01:00*%
%TF.ProjectId,VolumeKnob,566f6c75-6d65-44b6-9e6f-622e6b696361,rev?*%
%TF.SameCoordinates,Original*%
%TF.FileFunction,Legend,Bot*%
%TF.FilePolarity,Positive*%
%FSLAX46Y46*%
G04 Gerber Fmt 4.6, Leading zero omitted, Abs format (unit mm)*
G04 Created by KiCad (PCBNEW (5.1.10)-1) date 2021-12-21 20:41:06*
%MOMM*%
%LPD*%
G01*
G04 APERTURE LIST*
%ADD10C,0.500000*%
%ADD11C,0.010000*%
G04 APERTURE END LIST*
D10*
X116058571Y-103687142D02*
X115487142Y-103687142D01*
X115201428Y-103830000D01*
X114915714Y-104115714D01*
X114772857Y-104687142D01*
X114772857Y-105687142D01*
X114915714Y-106258571D01*
X115201428Y-106544285D01*
X115487142Y-106687142D01*
X116058571Y-106687142D01*
X116344285Y-106544285D01*
X116630000Y-106258571D01*
X116772857Y-105687142D01*
X116772857Y-104687142D01*
X116630000Y-104115714D01*
X116344285Y-103830000D01*
X116058571Y-103687142D01*
X113487142Y-104687142D02*
X113487142Y-107687142D01*
X113487142Y-104830000D02*
X113201428Y-104687142D01*
X112630000Y-104687142D01*
X112344285Y-104830000D01*
X112201428Y-104972857D01*
X112058571Y-105258571D01*
X112058571Y-106115714D01*
X112201428Y-106401428D01*
X112344285Y-106544285D01*
X112630000Y-106687142D01*
X113201428Y-106687142D01*
X113487142Y-106544285D01*
X109630000Y-106544285D02*
X109915714Y-106687142D01*
X110487142Y-106687142D01*
X110772857Y-106544285D01*
X110915714Y-106258571D01*
X110915714Y-105115714D01*
X110772857Y-104830000D01*
X110487142Y-104687142D01*
X109915714Y-104687142D01*
X109630000Y-104830000D01*
X109487142Y-105115714D01*
X109487142Y-105401428D01*
X110915714Y-105687142D01*
X108201428Y-104687142D02*
X108201428Y-106687142D01*
X108201428Y-104972857D02*
X108058571Y-104830000D01*
X107772857Y-104687142D01*
X107344285Y-104687142D01*
X107058571Y-104830000D01*
X106915714Y-105115714D01*
X106915714Y-106687142D01*
X105915714Y-103687142D02*
X104915714Y-106687142D01*
X103915714Y-103687142D01*
X102487142Y-106687142D02*
X102772857Y-106544285D01*
X102915714Y-106401428D01*
X103058571Y-106115714D01*
X103058571Y-105258571D01*
X102915714Y-104972857D01*
X102772857Y-104830000D01*
X102487142Y-104687142D01*
X102058571Y-104687142D01*
X101772857Y-104830000D01*
X101630000Y-104972857D01*
X101487142Y-105258571D01*
X101487142Y-106115714D01*
X101630000Y-106401428D01*
X101772857Y-106544285D01*
X102058571Y-106687142D01*
X102487142Y-106687142D01*
X99772857Y-106687142D02*
X100058571Y-106544285D01*
X100201428Y-106258571D01*
X100201428Y-103687142D01*
X97344285Y-104687142D02*
X97344285Y-106687142D01*
X98630000Y-104687142D02*
X98630000Y-106258571D01*
X98487142Y-106544285D01*
X98201428Y-106687142D01*
X97772857Y-106687142D01*
X97487142Y-106544285D01*
X97344285Y-106401428D01*
X95915714Y-106687142D02*
X95915714Y-104687142D01*
X95915714Y-104972857D02*
X95772857Y-104830000D01*
X95487142Y-104687142D01*
X95058571Y-104687142D01*
X94772857Y-104830000D01*
X94630000Y-105115714D01*
X94630000Y-106687142D01*
X94630000Y-105115714D02*
X94487142Y-104830000D01*
X94201428Y-104687142D01*
X93772857Y-104687142D01*
X93487142Y-104830000D01*
X93344285Y-105115714D01*
X93344285Y-106687142D01*
X90772857Y-106544285D02*
X91058571Y-106687142D01*
X91630000Y-106687142D01*
X91915714Y-106544285D01*
X92058571Y-106258571D01*
X92058571Y-105115714D01*
X91915714Y-104830000D01*
X91630000Y-104687142D01*
X91058571Y-104687142D01*
X90772857Y-104830000D01*
X90630000Y-105115714D01*
X90630000Y-105401428D01*
X92058571Y-105687142D01*
X89344285Y-106687142D02*
X89344285Y-103687142D01*
X87630000Y-106687142D02*
X88915714Y-104972857D01*
X87630000Y-103687142D02*
X89344285Y-105401428D01*
X86344285Y-104687142D02*
X86344285Y-106687142D01*
X86344285Y-104972857D02*
X86201428Y-104830000D01*
X85915714Y-104687142D01*
X85487142Y-104687142D01*
X85201428Y-104830000D01*
X85058571Y-105115714D01*
X85058571Y-106687142D01*
X83201428Y-106687142D02*
X83487142Y-106544285D01*
X83630000Y-106401428D01*
X83772857Y-106115714D01*
X83772857Y-105258571D01*
X83630000Y-104972857D01*
X83487142Y-104830000D01*
X83201428Y-104687142D01*
X82772857Y-104687142D01*
X82487142Y-104830000D01*
X82344285Y-104972857D01*
X82201428Y-105258571D01*
X82201428Y-106115714D01*
X82344285Y-106401428D01*
X82487142Y-106544285D01*
X82772857Y-106687142D01*
X83201428Y-106687142D01*
X80915714Y-106687142D02*
X80915714Y-103687142D01*
X80915714Y-104830000D02*
X80630000Y-104687142D01*
X80058571Y-104687142D01*
X79772857Y-104830000D01*
X79630000Y-104972857D01*
X79487142Y-105258571D01*
X79487142Y-106115714D01*
X79630000Y-106401428D01*
X79772857Y-106544285D01*
X80058571Y-106687142D01*
X80630000Y-106687142D01*
X80915714Y-106544285D01*
X104558571Y-111687142D02*
X105558571Y-110258571D01*
X106272857Y-111687142D02*
X106272857Y-108687142D01*
X105130000Y-108687142D01*
X104844285Y-108830000D01*
X104701428Y-108972857D01*
X104558571Y-109258571D01*
X104558571Y-109687142D01*
X104701428Y-109972857D01*
X104844285Y-110115714D01*
X105130000Y-110258571D01*
X106272857Y-110258571D01*
X103272857Y-110115714D02*
X102272857Y-110115714D01*
X101844285Y-111687142D02*
X103272857Y-111687142D01*
X103272857Y-108687142D01*
X101844285Y-108687142D01*
X100987142Y-108687142D02*
X99987142Y-111687142D01*
X98987142Y-108687142D01*
X95130000Y-108687142D02*
X94844285Y-108687142D01*
X94558571Y-108830000D01*
X94415714Y-108972857D01*
X94272857Y-109258571D01*
X94130000Y-109830000D01*
X94130000Y-110544285D01*
X94272857Y-111115714D01*
X94415714Y-111401428D01*
X94558571Y-111544285D01*
X94844285Y-111687142D01*
X95130000Y-111687142D01*
X95415714Y-111544285D01*
X95558571Y-111401428D01*
X95701428Y-111115714D01*
X95844285Y-110544285D01*
X95844285Y-109830000D01*
X95701428Y-109258571D01*
X95558571Y-108972857D01*
X95415714Y-108830000D01*
X95130000Y-108687142D01*
X92844285Y-111401428D02*
X92701428Y-111544285D01*
X92844285Y-111687142D01*
X92987142Y-111544285D01*
X92844285Y-111401428D01*
X92844285Y-111687142D01*
X91701428Y-108687142D02*
X89844285Y-108687142D01*
X90844285Y-109830000D01*
X90415714Y-109830000D01*
X90130000Y-109972857D01*
X89987142Y-110115714D01*
X89844285Y-110401428D01*
X89844285Y-111115714D01*
X89987142Y-111401428D01*
X90130000Y-111544285D01*
X90415714Y-111687142D01*
X91272857Y-111687142D01*
X91558571Y-111544285D01*
X91701428Y-111401428D01*
D11*
%TO.C,G\u002A\u002A\u002A*%
G36*
X116287829Y-88818663D02*
G01*
X116415822Y-88819861D01*
X116535601Y-88821995D01*
X116642494Y-88825065D01*
X116731826Y-88829069D01*
X116798922Y-88834008D01*
X116839109Y-88839880D01*
X116847520Y-88843067D01*
X116856973Y-88855460D01*
X116867584Y-88881231D01*
X116879994Y-88923203D01*
X116894842Y-88984199D01*
X116912769Y-89067043D01*
X116934415Y-89174557D01*
X116960419Y-89309564D01*
X116991423Y-89474888D01*
X116994372Y-89490767D01*
X117020871Y-89633258D01*
X117045724Y-89766356D01*
X117068187Y-89886122D01*
X117087519Y-89988619D01*
X117102975Y-90069907D01*
X117113814Y-90126051D01*
X117119292Y-90153110D01*
X117119458Y-90153825D01*
X117124276Y-90168144D01*
X117133619Y-90181864D01*
X117150675Y-90196560D01*
X117178635Y-90213807D01*
X117220687Y-90235180D01*
X117280022Y-90262255D01*
X117359829Y-90296605D01*
X117463297Y-90339807D01*
X117593615Y-90393435D01*
X117658386Y-90419963D01*
X117782841Y-90470016D01*
X117891529Y-90511969D01*
X117981053Y-90544605D01*
X118048016Y-90566710D01*
X118089021Y-90577067D01*
X118098652Y-90577477D01*
X118120524Y-90566415D01*
X118166912Y-90538178D01*
X118234526Y-90494927D01*
X118320078Y-90438821D01*
X118420279Y-90372020D01*
X118531840Y-90296684D01*
X118651470Y-90214973D01*
X118668588Y-90203208D01*
X118788898Y-90121059D01*
X118901510Y-90045327D01*
X119003157Y-89978121D01*
X119090575Y-89921549D01*
X119160497Y-89877722D01*
X119209658Y-89848749D01*
X119234793Y-89836739D01*
X119236265Y-89836530D01*
X119258745Y-89848880D01*
X119303914Y-89885705D01*
X119371412Y-89946668D01*
X119460876Y-90031432D01*
X119571945Y-90139661D01*
X119704259Y-90271017D01*
X119731882Y-90298673D01*
X119834437Y-90401890D01*
X119929060Y-90497921D01*
X120013160Y-90584073D01*
X120084141Y-90657654D01*
X120139408Y-90715971D01*
X120176370Y-90756331D01*
X120192430Y-90776040D01*
X120192905Y-90777266D01*
X120191534Y-90784528D01*
X120186320Y-90796464D01*
X120175612Y-90815558D01*
X120157761Y-90844297D01*
X120131114Y-90885167D01*
X120094022Y-90940653D01*
X120044833Y-91013242D01*
X119981898Y-91105419D01*
X119903565Y-91219669D01*
X119808184Y-91358480D01*
X119772621Y-91410195D01*
X119698199Y-91519040D01*
X119629534Y-91620677D01*
X119569145Y-91711286D01*
X119519548Y-91787045D01*
X119483259Y-91844134D01*
X119462797Y-91878731D01*
X119459642Y-91885323D01*
X119456253Y-91901698D01*
X119457767Y-91924432D01*
X119465434Y-91957028D01*
X119480506Y-92002988D01*
X119504235Y-92065816D01*
X119537873Y-92149017D01*
X119582671Y-92256092D01*
X119639882Y-92390546D01*
X119641554Y-92394458D01*
X119692451Y-92512587D01*
X119739957Y-92621139D01*
X119782228Y-92716037D01*
X119817425Y-92793208D01*
X119843707Y-92848577D01*
X119859230Y-92878069D01*
X119861555Y-92881304D01*
X119882581Y-92889360D01*
X119933220Y-92902627D01*
X120009753Y-92920306D01*
X120108466Y-92941598D01*
X120225640Y-92965702D01*
X120357559Y-92991820D01*
X120500506Y-93019152D01*
X120515725Y-93022008D01*
X120658309Y-93049069D01*
X120790797Y-93074898D01*
X120909404Y-93098706D01*
X121010345Y-93119703D01*
X121089833Y-93137098D01*
X121144082Y-93150103D01*
X121169309Y-93157928D01*
X121170280Y-93158541D01*
X121176080Y-93170457D01*
X121180823Y-93197443D01*
X121184596Y-93242186D01*
X121187487Y-93307372D01*
X121189582Y-93395690D01*
X121190970Y-93509826D01*
X121191737Y-93652467D01*
X121191972Y-93825194D01*
X121191833Y-93992859D01*
X121191334Y-94129853D01*
X121190348Y-94239372D01*
X121188749Y-94324613D01*
X121186412Y-94388771D01*
X121183209Y-94435041D01*
X121179017Y-94466619D01*
X121173708Y-94486702D01*
X121167156Y-94498484D01*
X121165362Y-94500454D01*
X121141306Y-94521577D01*
X121131300Y-94527064D01*
X121110961Y-94530101D01*
X121062048Y-94538625D01*
X120989251Y-94551755D01*
X120897259Y-94568611D01*
X120790761Y-94588312D01*
X120674446Y-94609977D01*
X120553003Y-94632725D01*
X120431122Y-94655677D01*
X120313492Y-94677951D01*
X120204802Y-94698667D01*
X120109741Y-94716943D01*
X120032998Y-94731900D01*
X119979263Y-94742657D01*
X119953462Y-94748270D01*
X119900006Y-94773130D01*
X119866144Y-94819097D01*
X119866041Y-94819316D01*
X119846599Y-94863239D01*
X119818670Y-94929775D01*
X119784116Y-95014177D01*
X119744802Y-95111695D01*
X119702592Y-95217581D01*
X119659348Y-95327086D01*
X119616936Y-95435461D01*
X119577218Y-95537957D01*
X119542059Y-95629825D01*
X119513322Y-95706317D01*
X119492872Y-95762683D01*
X119482571Y-95794175D01*
X119481705Y-95798588D01*
X119490995Y-95818555D01*
X119517408Y-95862979D01*
X119558757Y-95928492D01*
X119612859Y-96011726D01*
X119677527Y-96109316D01*
X119750577Y-96217893D01*
X119819388Y-96318879D01*
X119914494Y-96457654D01*
X119992157Y-96571191D01*
X120054032Y-96662220D01*
X120101774Y-96733472D01*
X120137037Y-96787678D01*
X120161475Y-96827568D01*
X120176742Y-96855874D01*
X120184493Y-96875326D01*
X120186382Y-96888655D01*
X120184063Y-96898592D01*
X120179191Y-96907866D01*
X120177752Y-96910430D01*
X120159319Y-96934000D01*
X120120469Y-96976702D01*
X120064454Y-97035359D01*
X119994525Y-97106793D01*
X119913935Y-97187828D01*
X119825936Y-97275284D01*
X119733778Y-97365986D01*
X119640716Y-97456755D01*
X119550000Y-97544413D01*
X119464882Y-97625784D01*
X119388615Y-97697689D01*
X119324450Y-97756952D01*
X119275640Y-97800394D01*
X119245436Y-97824838D01*
X119237595Y-97829064D01*
X119216716Y-97819749D01*
X119171515Y-97793293D01*
X119105448Y-97751925D01*
X119021973Y-97697877D01*
X118924545Y-97633379D01*
X118816621Y-97560662D01*
X118730330Y-97501701D01*
X118616047Y-97423331D01*
X118509204Y-97350405D01*
X118413369Y-97285331D01*
X118332110Y-97230519D01*
X118268992Y-97188376D01*
X118227584Y-97161312D01*
X118213138Y-97152473D01*
X118195796Y-97145570D01*
X118175355Y-97144713D01*
X118146897Y-97151723D01*
X118105504Y-97168423D01*
X118046260Y-97196635D01*
X117964246Y-97238181D01*
X117919300Y-97261351D01*
X117818175Y-97312189D01*
X117738651Y-97349133D01*
X117683038Y-97371199D01*
X117653648Y-97377401D01*
X117650336Y-97376068D01*
X117641046Y-97357845D01*
X117620074Y-97311174D01*
X117588638Y-97238922D01*
X117547956Y-97143955D01*
X117499245Y-97029139D01*
X117443723Y-96897340D01*
X117382607Y-96751424D01*
X117317115Y-96594259D01*
X117270190Y-96481187D01*
X117174480Y-96250149D01*
X117090938Y-96048381D01*
X117018758Y-95873872D01*
X116957133Y-95724608D01*
X116905257Y-95598576D01*
X116862324Y-95493765D01*
X116827527Y-95408162D01*
X116800059Y-95339754D01*
X116779116Y-95286529D01*
X116763889Y-95246475D01*
X116753572Y-95217579D01*
X116747360Y-95197828D01*
X116744446Y-95185210D01*
X116744023Y-95177713D01*
X116745285Y-95173324D01*
X116745782Y-95172456D01*
X116762625Y-95157153D01*
X116801329Y-95126983D01*
X116855971Y-95086445D01*
X116914709Y-95044224D01*
X117093428Y-94904919D01*
X117241002Y-94761175D01*
X117360146Y-94609154D01*
X117453576Y-94445015D01*
X117524007Y-94264919D01*
X117560027Y-94131916D01*
X117574655Y-94040819D01*
X117583299Y-93928961D01*
X117585764Y-93808949D01*
X117581857Y-93693391D01*
X117571382Y-93594895D01*
X117568566Y-93578797D01*
X117512299Y-93369983D01*
X117426727Y-93176067D01*
X117313938Y-92999235D01*
X117176017Y-92841672D01*
X117015050Y-92705563D01*
X116833125Y-92593095D01*
X116632326Y-92506451D01*
X116509442Y-92469255D01*
X116405014Y-92450296D01*
X116280000Y-92440000D01*
X116146553Y-92438366D01*
X116016825Y-92445392D01*
X115902970Y-92461078D01*
X115866439Y-92469298D01*
X115656228Y-92539973D01*
X115463465Y-92637955D01*
X115290278Y-92761015D01*
X115138791Y-92906925D01*
X115011131Y-93073459D01*
X114909424Y-93258389D01*
X114835795Y-93459487D01*
X114807531Y-93578797D01*
X114795533Y-93673263D01*
X114790344Y-93787394D01*
X114791767Y-93908387D01*
X114799603Y-94023440D01*
X114813654Y-94119749D01*
X114816099Y-94130977D01*
X114873181Y-94325642D01*
X114952038Y-94501863D01*
X115055280Y-94663333D01*
X115185515Y-94813743D01*
X115345352Y-94956786D01*
X115461235Y-95043940D01*
X115525386Y-95090140D01*
X115579052Y-95130154D01*
X115616298Y-95159467D01*
X115630943Y-95173073D01*
X115625919Y-95190226D01*
X115609184Y-95235571D01*
X115581998Y-95306017D01*
X115545622Y-95398472D01*
X115501317Y-95509844D01*
X115450345Y-95637042D01*
X115393966Y-95776975D01*
X115333441Y-95926550D01*
X115270033Y-96082677D01*
X115205000Y-96242264D01*
X115139605Y-96402219D01*
X115075109Y-96559451D01*
X115012773Y-96710868D01*
X114953857Y-96853379D01*
X114899623Y-96983893D01*
X114851332Y-97099317D01*
X114810244Y-97196561D01*
X114777622Y-97272532D01*
X114754726Y-97324140D01*
X114746127Y-97342231D01*
X114725782Y-97374927D01*
X114709602Y-97388794D01*
X114709437Y-97388797D01*
X114690579Y-97381225D01*
X114647543Y-97360393D01*
X114585952Y-97329126D01*
X114511432Y-97290252D01*
X114477039Y-97272020D01*
X114396282Y-97229581D01*
X114323661Y-97192469D01*
X114265587Y-97163886D01*
X114228473Y-97147030D01*
X114221261Y-97144384D01*
X114193721Y-97144765D01*
X114153284Y-97161028D01*
X114094928Y-97195538D01*
X114051928Y-97224140D01*
X114000978Y-97258937D01*
X113927609Y-97309095D01*
X113837342Y-97370837D01*
X113735698Y-97440387D01*
X113628200Y-97513966D01*
X113543569Y-97571910D01*
X113442746Y-97640207D01*
X113349909Y-97701683D01*
X113269027Y-97753823D01*
X113204068Y-97794110D01*
X113159003Y-97820029D01*
X113137905Y-97829064D01*
X113119277Y-97817438D01*
X113079603Y-97784265D01*
X113021625Y-97732103D01*
X112948084Y-97663509D01*
X112861724Y-97581042D01*
X112765286Y-97487259D01*
X112661512Y-97384719D01*
X112661357Y-97384564D01*
X112559535Y-97282830D01*
X112464998Y-97187703D01*
X112380522Y-97102029D01*
X112308886Y-97028653D01*
X112252868Y-96970421D01*
X112215245Y-96930180D01*
X112198795Y-96910777D01*
X112198592Y-96910430D01*
X112193336Y-96900891D01*
X112190216Y-96891379D01*
X112190885Y-96879166D01*
X112196998Y-96861519D01*
X112210209Y-96835709D01*
X112232173Y-96799005D01*
X112264543Y-96748675D01*
X112308975Y-96681989D01*
X112367122Y-96596217D01*
X112440639Y-96488627D01*
X112531179Y-96356489D01*
X112556956Y-96318879D01*
X112635528Y-96203470D01*
X112707625Y-96096114D01*
X112771060Y-96000177D01*
X112823649Y-95919027D01*
X112863205Y-95856031D01*
X112887543Y-95814556D01*
X112894639Y-95798588D01*
X112888595Y-95777575D01*
X112871708Y-95729920D01*
X112845840Y-95660370D01*
X112812855Y-95573675D01*
X112774618Y-95474583D01*
X112732992Y-95367843D01*
X112689840Y-95258205D01*
X112647027Y-95150416D01*
X112606416Y-95049225D01*
X112569871Y-94959382D01*
X112539256Y-94885636D01*
X112516435Y-94832734D01*
X112510303Y-94819316D01*
X112476412Y-94773190D01*
X112422902Y-94748210D01*
X112422882Y-94748205D01*
X112395498Y-94742212D01*
X112340595Y-94731174D01*
X112262877Y-94715976D01*
X112167044Y-94697500D01*
X112057798Y-94676632D01*
X111939843Y-94654256D01*
X111817878Y-94631257D01*
X111696607Y-94608518D01*
X111580730Y-94586924D01*
X111474951Y-94567359D01*
X111383972Y-94550708D01*
X111312493Y-94537855D01*
X111265216Y-94529685D01*
X111247111Y-94527064D01*
X111228975Y-94516507D01*
X111210981Y-94500454D01*
X111204109Y-94490207D01*
X111198510Y-94472436D01*
X111194057Y-94443945D01*
X111190626Y-94401539D01*
X111188090Y-94342022D01*
X111186323Y-94262199D01*
X111185200Y-94158874D01*
X111184594Y-94028851D01*
X111184379Y-93868934D01*
X111184372Y-93825194D01*
X111184609Y-93651550D01*
X111185380Y-93509083D01*
X111186772Y-93395105D01*
X111188871Y-93306929D01*
X111191767Y-93241869D01*
X111195545Y-93197238D01*
X111200294Y-93170347D01*
X111206064Y-93158541D01*
X111227108Y-93151471D01*
X111277685Y-93139115D01*
X111354007Y-93122263D01*
X111452289Y-93101703D01*
X111568746Y-93078227D01*
X111699592Y-93052623D01*
X111841042Y-93025681D01*
X111860619Y-93022008D01*
X112003225Y-92994836D01*
X112135737Y-92968700D01*
X112254365Y-92944412D01*
X112355323Y-92922789D01*
X112434823Y-92904643D01*
X112489077Y-92890788D01*
X112514297Y-92882040D01*
X112515261Y-92881304D01*
X112527653Y-92860034D01*
X112550790Y-92812323D01*
X112582624Y-92742966D01*
X112621106Y-92656758D01*
X112664186Y-92558495D01*
X112709816Y-92452973D01*
X112755947Y-92344987D01*
X112800529Y-92239333D01*
X112841514Y-92140806D01*
X112876852Y-92054202D01*
X112904495Y-91984316D01*
X112922393Y-91935944D01*
X112928505Y-91914152D01*
X112926666Y-91903458D01*
X112919895Y-91887184D01*
X112906311Y-91862421D01*
X112884034Y-91826258D01*
X112851185Y-91775785D01*
X112805882Y-91708093D01*
X112746245Y-91620271D01*
X112670394Y-91509410D01*
X112612042Y-91424397D01*
X112501460Y-91263119D01*
X112409273Y-91127985D01*
X112334429Y-91017412D01*
X112275878Y-90929815D01*
X112232569Y-90863610D01*
X112203451Y-90817214D01*
X112187473Y-90789043D01*
X112183439Y-90778320D01*
X112195016Y-90762820D01*
X112228017Y-90726146D01*
X112279848Y-90670996D01*
X112347913Y-90600071D01*
X112429616Y-90516070D01*
X112522364Y-90421695D01*
X112623560Y-90319643D01*
X112644461Y-90298673D01*
X112782356Y-90161336D01*
X112897549Y-90048558D01*
X112990348Y-89960050D01*
X113061064Y-89895524D01*
X113110008Y-89854691D01*
X113137488Y-89837264D01*
X113141066Y-89836530D01*
X113166564Y-89845843D01*
X113214060Y-89871575D01*
X113278022Y-89910420D01*
X113352921Y-89959069D01*
X113403943Y-89993753D01*
X113583297Y-90117703D01*
X113736856Y-90223555D01*
X113866579Y-90312620D01*
X113974424Y-90386208D01*
X114062353Y-90445628D01*
X114132323Y-90492191D01*
X114186295Y-90527205D01*
X114226227Y-90551982D01*
X114254079Y-90567831D01*
X114271811Y-90576061D01*
X114277464Y-90577723D01*
X114303733Y-90573519D01*
X114357252Y-90557329D01*
X114434156Y-90530533D01*
X114530580Y-90494514D01*
X114642657Y-90450653D01*
X114717731Y-90420363D01*
X114860708Y-90361898D01*
X114975441Y-90314459D01*
X115065117Y-90276469D01*
X115132926Y-90246352D01*
X115182058Y-90222531D01*
X115215701Y-90203430D01*
X115237045Y-90187472D01*
X115249279Y-90173081D01*
X115255591Y-90158679D01*
X115256878Y-90153825D01*
X115261950Y-90128990D01*
X115272447Y-90074793D01*
X115287626Y-89995170D01*
X115306743Y-89894057D01*
X115329052Y-89775392D01*
X115353811Y-89643111D01*
X115380274Y-89501152D01*
X115382244Y-89490563D01*
X115413874Y-89322002D01*
X115440443Y-89184043D01*
X115462583Y-89073899D01*
X115480925Y-88988789D01*
X115496100Y-88925926D01*
X115508739Y-88882528D01*
X115519475Y-88855809D01*
X115528937Y-88842986D01*
X115529103Y-88842863D01*
X115554534Y-88836546D01*
X115609145Y-88831171D01*
X115688261Y-88826738D01*
X115787208Y-88823244D01*
X115901312Y-88820691D01*
X116025900Y-88819078D01*
X116156297Y-88818401D01*
X116287829Y-88818663D01*
G37*
X116287829Y-88818663D02*
X116415822Y-88819861D01*
X116535601Y-88821995D01*
X116642494Y-88825065D01*
X116731826Y-88829069D01*
X116798922Y-88834008D01*
X116839109Y-88839880D01*
X116847520Y-88843067D01*
X116856973Y-88855460D01*
X116867584Y-88881231D01*
X116879994Y-88923203D01*
X116894842Y-88984199D01*
X116912769Y-89067043D01*
X116934415Y-89174557D01*
X116960419Y-89309564D01*
X116991423Y-89474888D01*
X116994372Y-89490767D01*
X117020871Y-89633258D01*
X117045724Y-89766356D01*
X117068187Y-89886122D01*
X117087519Y-89988619D01*
X117102975Y-90069907D01*
X117113814Y-90126051D01*
X117119292Y-90153110D01*
X117119458Y-90153825D01*
X117124276Y-90168144D01*
X117133619Y-90181864D01*
X117150675Y-90196560D01*
X117178635Y-90213807D01*
X117220687Y-90235180D01*
X117280022Y-90262255D01*
X117359829Y-90296605D01*
X117463297Y-90339807D01*
X117593615Y-90393435D01*
X117658386Y-90419963D01*
X117782841Y-90470016D01*
X117891529Y-90511969D01*
X117981053Y-90544605D01*
X118048016Y-90566710D01*
X118089021Y-90577067D01*
X118098652Y-90577477D01*
X118120524Y-90566415D01*
X118166912Y-90538178D01*
X118234526Y-90494927D01*
X118320078Y-90438821D01*
X118420279Y-90372020D01*
X118531840Y-90296684D01*
X118651470Y-90214973D01*
X118668588Y-90203208D01*
X118788898Y-90121059D01*
X118901510Y-90045327D01*
X119003157Y-89978121D01*
X119090575Y-89921549D01*
X119160497Y-89877722D01*
X119209658Y-89848749D01*
X119234793Y-89836739D01*
X119236265Y-89836530D01*
X119258745Y-89848880D01*
X119303914Y-89885705D01*
X119371412Y-89946668D01*
X119460876Y-90031432D01*
X119571945Y-90139661D01*
X119704259Y-90271017D01*
X119731882Y-90298673D01*
X119834437Y-90401890D01*
X119929060Y-90497921D01*
X120013160Y-90584073D01*
X120084141Y-90657654D01*
X120139408Y-90715971D01*
X120176370Y-90756331D01*
X120192430Y-90776040D01*
X120192905Y-90777266D01*
X120191534Y-90784528D01*
X120186320Y-90796464D01*
X120175612Y-90815558D01*
X120157761Y-90844297D01*
X120131114Y-90885167D01*
X120094022Y-90940653D01*
X120044833Y-91013242D01*
X119981898Y-91105419D01*
X119903565Y-91219669D01*
X119808184Y-91358480D01*
X119772621Y-91410195D01*
X119698199Y-91519040D01*
X119629534Y-91620677D01*
X119569145Y-91711286D01*
X119519548Y-91787045D01*
X119483259Y-91844134D01*
X119462797Y-91878731D01*
X119459642Y-91885323D01*
X119456253Y-91901698D01*
X119457767Y-91924432D01*
X119465434Y-91957028D01*
X119480506Y-92002988D01*
X119504235Y-92065816D01*
X119537873Y-92149017D01*
X119582671Y-92256092D01*
X119639882Y-92390546D01*
X119641554Y-92394458D01*
X119692451Y-92512587D01*
X119739957Y-92621139D01*
X119782228Y-92716037D01*
X119817425Y-92793208D01*
X119843707Y-92848577D01*
X119859230Y-92878069D01*
X119861555Y-92881304D01*
X119882581Y-92889360D01*
X119933220Y-92902627D01*
X120009753Y-92920306D01*
X120108466Y-92941598D01*
X120225640Y-92965702D01*
X120357559Y-92991820D01*
X120500506Y-93019152D01*
X120515725Y-93022008D01*
X120658309Y-93049069D01*
X120790797Y-93074898D01*
X120909404Y-93098706D01*
X121010345Y-93119703D01*
X121089833Y-93137098D01*
X121144082Y-93150103D01*
X121169309Y-93157928D01*
X121170280Y-93158541D01*
X121176080Y-93170457D01*
X121180823Y-93197443D01*
X121184596Y-93242186D01*
X121187487Y-93307372D01*
X121189582Y-93395690D01*
X121190970Y-93509826D01*
X121191737Y-93652467D01*
X121191972Y-93825194D01*
X121191833Y-93992859D01*
X121191334Y-94129853D01*
X121190348Y-94239372D01*
X121188749Y-94324613D01*
X121186412Y-94388771D01*
X121183209Y-94435041D01*
X121179017Y-94466619D01*
X121173708Y-94486702D01*
X121167156Y-94498484D01*
X121165362Y-94500454D01*
X121141306Y-94521577D01*
X121131300Y-94527064D01*
X121110961Y-94530101D01*
X121062048Y-94538625D01*
X120989251Y-94551755D01*
X120897259Y-94568611D01*
X120790761Y-94588312D01*
X120674446Y-94609977D01*
X120553003Y-94632725D01*
X120431122Y-94655677D01*
X120313492Y-94677951D01*
X120204802Y-94698667D01*
X120109741Y-94716943D01*
X120032998Y-94731900D01*
X119979263Y-94742657D01*
X119953462Y-94748270D01*
X119900006Y-94773130D01*
X119866144Y-94819097D01*
X119866041Y-94819316D01*
X119846599Y-94863239D01*
X119818670Y-94929775D01*
X119784116Y-95014177D01*
X119744802Y-95111695D01*
X119702592Y-95217581D01*
X119659348Y-95327086D01*
X119616936Y-95435461D01*
X119577218Y-95537957D01*
X119542059Y-95629825D01*
X119513322Y-95706317D01*
X119492872Y-95762683D01*
X119482571Y-95794175D01*
X119481705Y-95798588D01*
X119490995Y-95818555D01*
X119517408Y-95862979D01*
X119558757Y-95928492D01*
X119612859Y-96011726D01*
X119677527Y-96109316D01*
X119750577Y-96217893D01*
X119819388Y-96318879D01*
X119914494Y-96457654D01*
X119992157Y-96571191D01*
X120054032Y-96662220D01*
X120101774Y-96733472D01*
X120137037Y-96787678D01*
X120161475Y-96827568D01*
X120176742Y-96855874D01*
X120184493Y-96875326D01*
X120186382Y-96888655D01*
X120184063Y-96898592D01*
X120179191Y-96907866D01*
X120177752Y-96910430D01*
X120159319Y-96934000D01*
X120120469Y-96976702D01*
X120064454Y-97035359D01*
X119994525Y-97106793D01*
X119913935Y-97187828D01*
X119825936Y-97275284D01*
X119733778Y-97365986D01*
X119640716Y-97456755D01*
X119550000Y-97544413D01*
X119464882Y-97625784D01*
X119388615Y-97697689D01*
X119324450Y-97756952D01*
X119275640Y-97800394D01*
X119245436Y-97824838D01*
X119237595Y-97829064D01*
X119216716Y-97819749D01*
X119171515Y-97793293D01*
X119105448Y-97751925D01*
X119021973Y-97697877D01*
X118924545Y-97633379D01*
X118816621Y-97560662D01*
X118730330Y-97501701D01*
X118616047Y-97423331D01*
X118509204Y-97350405D01*
X118413369Y-97285331D01*
X118332110Y-97230519D01*
X118268992Y-97188376D01*
X118227584Y-97161312D01*
X118213138Y-97152473D01*
X118195796Y-97145570D01*
X118175355Y-97144713D01*
X118146897Y-97151723D01*
X118105504Y-97168423D01*
X118046260Y-97196635D01*
X117964246Y-97238181D01*
X117919300Y-97261351D01*
X117818175Y-97312189D01*
X117738651Y-97349133D01*
X117683038Y-97371199D01*
X117653648Y-97377401D01*
X117650336Y-97376068D01*
X117641046Y-97357845D01*
X117620074Y-97311174D01*
X117588638Y-97238922D01*
X117547956Y-97143955D01*
X117499245Y-97029139D01*
X117443723Y-96897340D01*
X117382607Y-96751424D01*
X117317115Y-96594259D01*
X117270190Y-96481187D01*
X117174480Y-96250149D01*
X117090938Y-96048381D01*
X117018758Y-95873872D01*
X116957133Y-95724608D01*
X116905257Y-95598576D01*
X116862324Y-95493765D01*
X116827527Y-95408162D01*
X116800059Y-95339754D01*
X116779116Y-95286529D01*
X116763889Y-95246475D01*
X116753572Y-95217579D01*
X116747360Y-95197828D01*
X116744446Y-95185210D01*
X116744023Y-95177713D01*
X116745285Y-95173324D01*
X116745782Y-95172456D01*
X116762625Y-95157153D01*
X116801329Y-95126983D01*
X116855971Y-95086445D01*
X116914709Y-95044224D01*
X117093428Y-94904919D01*
X117241002Y-94761175D01*
X117360146Y-94609154D01*
X117453576Y-94445015D01*
X117524007Y-94264919D01*
X117560027Y-94131916D01*
X117574655Y-94040819D01*
X117583299Y-93928961D01*
X117585764Y-93808949D01*
X117581857Y-93693391D01*
X117571382Y-93594895D01*
X117568566Y-93578797D01*
X117512299Y-93369983D01*
X117426727Y-93176067D01*
X117313938Y-92999235D01*
X117176017Y-92841672D01*
X117015050Y-92705563D01*
X116833125Y-92593095D01*
X116632326Y-92506451D01*
X116509442Y-92469255D01*
X116405014Y-92450296D01*
X116280000Y-92440000D01*
X116146553Y-92438366D01*
X116016825Y-92445392D01*
X115902970Y-92461078D01*
X115866439Y-92469298D01*
X115656228Y-92539973D01*
X115463465Y-92637955D01*
X115290278Y-92761015D01*
X115138791Y-92906925D01*
X115011131Y-93073459D01*
X114909424Y-93258389D01*
X114835795Y-93459487D01*
X114807531Y-93578797D01*
X114795533Y-93673263D01*
X114790344Y-93787394D01*
X114791767Y-93908387D01*
X114799603Y-94023440D01*
X114813654Y-94119749D01*
X114816099Y-94130977D01*
X114873181Y-94325642D01*
X114952038Y-94501863D01*
X115055280Y-94663333D01*
X115185515Y-94813743D01*
X115345352Y-94956786D01*
X115461235Y-95043940D01*
X115525386Y-95090140D01*
X115579052Y-95130154D01*
X115616298Y-95159467D01*
X115630943Y-95173073D01*
X115625919Y-95190226D01*
X115609184Y-95235571D01*
X115581998Y-95306017D01*
X115545622Y-95398472D01*
X115501317Y-95509844D01*
X115450345Y-95637042D01*
X115393966Y-95776975D01*
X115333441Y-95926550D01*
X115270033Y-96082677D01*
X115205000Y-96242264D01*
X115139605Y-96402219D01*
X115075109Y-96559451D01*
X115012773Y-96710868D01*
X114953857Y-96853379D01*
X114899623Y-96983893D01*
X114851332Y-97099317D01*
X114810244Y-97196561D01*
X114777622Y-97272532D01*
X114754726Y-97324140D01*
X114746127Y-97342231D01*
X114725782Y-97374927D01*
X114709602Y-97388794D01*
X114709437Y-97388797D01*
X114690579Y-97381225D01*
X114647543Y-97360393D01*
X114585952Y-97329126D01*
X114511432Y-97290252D01*
X114477039Y-97272020D01*
X114396282Y-97229581D01*
X114323661Y-97192469D01*
X114265587Y-97163886D01*
X114228473Y-97147030D01*
X114221261Y-97144384D01*
X114193721Y-97144765D01*
X114153284Y-97161028D01*
X114094928Y-97195538D01*
X114051928Y-97224140D01*
X114000978Y-97258937D01*
X113927609Y-97309095D01*
X113837342Y-97370837D01*
X113735698Y-97440387D01*
X113628200Y-97513966D01*
X113543569Y-97571910D01*
X113442746Y-97640207D01*
X113349909Y-97701683D01*
X113269027Y-97753823D01*
X113204068Y-97794110D01*
X113159003Y-97820029D01*
X113137905Y-97829064D01*
X113119277Y-97817438D01*
X113079603Y-97784265D01*
X113021625Y-97732103D01*
X112948084Y-97663509D01*
X112861724Y-97581042D01*
X112765286Y-97487259D01*
X112661512Y-97384719D01*
X112661357Y-97384564D01*
X112559535Y-97282830D01*
X112464998Y-97187703D01*
X112380522Y-97102029D01*
X112308886Y-97028653D01*
X112252868Y-96970421D01*
X112215245Y-96930180D01*
X112198795Y-96910777D01*
X112198592Y-96910430D01*
X112193336Y-96900891D01*
X112190216Y-96891379D01*
X112190885Y-96879166D01*
X112196998Y-96861519D01*
X112210209Y-96835709D01*
X112232173Y-96799005D01*
X112264543Y-96748675D01*
X112308975Y-96681989D01*
X112367122Y-96596217D01*
X112440639Y-96488627D01*
X112531179Y-96356489D01*
X112556956Y-96318879D01*
X112635528Y-96203470D01*
X112707625Y-96096114D01*
X112771060Y-96000177D01*
X112823649Y-95919027D01*
X112863205Y-95856031D01*
X112887543Y-95814556D01*
X112894639Y-95798588D01*
X112888595Y-95777575D01*
X112871708Y-95729920D01*
X112845840Y-95660370D01*
X112812855Y-95573675D01*
X112774618Y-95474583D01*
X112732992Y-95367843D01*
X112689840Y-95258205D01*
X112647027Y-95150416D01*
X112606416Y-95049225D01*
X112569871Y-94959382D01*
X112539256Y-94885636D01*
X112516435Y-94832734D01*
X112510303Y-94819316D01*
X112476412Y-94773190D01*
X112422902Y-94748210D01*
X112422882Y-94748205D01*
X112395498Y-94742212D01*
X112340595Y-94731174D01*
X112262877Y-94715976D01*
X112167044Y-94697500D01*
X112057798Y-94676632D01*
X111939843Y-94654256D01*
X111817878Y-94631257D01*
X111696607Y-94608518D01*
X111580730Y-94586924D01*
X111474951Y-94567359D01*
X111383972Y-94550708D01*
X111312493Y-94537855D01*
X111265216Y-94529685D01*
X111247111Y-94527064D01*
X111228975Y-94516507D01*
X111210981Y-94500454D01*
X111204109Y-94490207D01*
X111198510Y-94472436D01*
X111194057Y-94443945D01*
X111190626Y-94401539D01*
X111188090Y-94342022D01*
X111186323Y-94262199D01*
X111185200Y-94158874D01*
X111184594Y-94028851D01*
X111184379Y-93868934D01*
X111184372Y-93825194D01*
X111184609Y-93651550D01*
X111185380Y-93509083D01*
X111186772Y-93395105D01*
X111188871Y-93306929D01*
X111191767Y-93241869D01*
X111195545Y-93197238D01*
X111200294Y-93170347D01*
X111206064Y-93158541D01*
X111227108Y-93151471D01*
X111277685Y-93139115D01*
X111354007Y-93122263D01*
X111452289Y-93101703D01*
X111568746Y-93078227D01*
X111699592Y-93052623D01*
X111841042Y-93025681D01*
X111860619Y-93022008D01*
X112003225Y-92994836D01*
X112135737Y-92968700D01*
X112254365Y-92944412D01*
X112355323Y-92922789D01*
X112434823Y-92904643D01*
X112489077Y-92890788D01*
X112514297Y-92882040D01*
X112515261Y-92881304D01*
X112527653Y-92860034D01*
X112550790Y-92812323D01*
X112582624Y-92742966D01*
X112621106Y-92656758D01*
X112664186Y-92558495D01*
X112709816Y-92452973D01*
X112755947Y-92344987D01*
X112800529Y-92239333D01*
X112841514Y-92140806D01*
X112876852Y-92054202D01*
X112904495Y-91984316D01*
X112922393Y-91935944D01*
X112928505Y-91914152D01*
X112926666Y-91903458D01*
X112919895Y-91887184D01*
X112906311Y-91862421D01*
X112884034Y-91826258D01*
X112851185Y-91775785D01*
X112805882Y-91708093D01*
X112746245Y-91620271D01*
X112670394Y-91509410D01*
X112612042Y-91424397D01*
X112501460Y-91263119D01*
X112409273Y-91127985D01*
X112334429Y-91017412D01*
X112275878Y-90929815D01*
X112232569Y-90863610D01*
X112203451Y-90817214D01*
X112187473Y-90789043D01*
X112183439Y-90778320D01*
X112195016Y-90762820D01*
X112228017Y-90726146D01*
X112279848Y-90670996D01*
X112347913Y-90600071D01*
X112429616Y-90516070D01*
X112522364Y-90421695D01*
X112623560Y-90319643D01*
X112644461Y-90298673D01*
X112782356Y-90161336D01*
X112897549Y-90048558D01*
X112990348Y-89960050D01*
X113061064Y-89895524D01*
X113110008Y-89854691D01*
X113137488Y-89837264D01*
X113141066Y-89836530D01*
X113166564Y-89845843D01*
X113214060Y-89871575D01*
X113278022Y-89910420D01*
X113352921Y-89959069D01*
X113403943Y-89993753D01*
X113583297Y-90117703D01*
X113736856Y-90223555D01*
X113866579Y-90312620D01*
X113974424Y-90386208D01*
X114062353Y-90445628D01*
X114132323Y-90492191D01*
X114186295Y-90527205D01*
X114226227Y-90551982D01*
X114254079Y-90567831D01*
X114271811Y-90576061D01*
X114277464Y-90577723D01*
X114303733Y-90573519D01*
X114357252Y-90557329D01*
X114434156Y-90530533D01*
X114530580Y-90494514D01*
X114642657Y-90450653D01*
X114717731Y-90420363D01*
X114860708Y-90361898D01*
X114975441Y-90314459D01*
X115065117Y-90276469D01*
X115132926Y-90246352D01*
X115182058Y-90222531D01*
X115215701Y-90203430D01*
X115237045Y-90187472D01*
X115249279Y-90173081D01*
X115255591Y-90158679D01*
X115256878Y-90153825D01*
X115261950Y-90128990D01*
X115272447Y-90074793D01*
X115287626Y-89995170D01*
X115306743Y-89894057D01*
X115329052Y-89775392D01*
X115353811Y-89643111D01*
X115380274Y-89501152D01*
X115382244Y-89490563D01*
X115413874Y-89322002D01*
X115440443Y-89184043D01*
X115462583Y-89073899D01*
X115480925Y-88988789D01*
X115496100Y-88925926D01*
X115508739Y-88882528D01*
X115519475Y-88855809D01*
X115528937Y-88842986D01*
X115529103Y-88842863D01*
X115554534Y-88836546D01*
X115609145Y-88831171D01*
X115688261Y-88826738D01*
X115787208Y-88823244D01*
X115901312Y-88820691D01*
X116025900Y-88819078D01*
X116156297Y-88818401D01*
X116287829Y-88818663D01*
G36*
X81371830Y-87557132D02*
G01*
X81391861Y-87568566D01*
X81429882Y-87591742D01*
X81504025Y-87635567D01*
X81606353Y-87695401D01*
X81728929Y-87766602D01*
X81863400Y-87844290D01*
X82017551Y-87933167D01*
X82177755Y-88025628D01*
X82330535Y-88113889D01*
X82462414Y-88190164D01*
X82536500Y-88233082D01*
X82646711Y-88296865D01*
X82787021Y-88377871D01*
X82943462Y-88468046D01*
X83102067Y-88559337D01*
X83196900Y-88613848D01*
X83338558Y-88695322D01*
X83511727Y-88795070D01*
X83703953Y-88905909D01*
X83902785Y-89020659D01*
X84095770Y-89132138D01*
X84187500Y-89185170D01*
X84347624Y-89277759D01*
X84496846Y-89364012D01*
X84628419Y-89440033D01*
X84735596Y-89501925D01*
X84811631Y-89545790D01*
X84847900Y-89566658D01*
X84892410Y-89592286D01*
X84973063Y-89638863D01*
X85082043Y-89701871D01*
X85211536Y-89776792D01*
X85353730Y-89859109D01*
X85394000Y-89882429D01*
X85565894Y-89981916D01*
X85753195Y-90090211D01*
X85940579Y-90198462D01*
X86112727Y-90297816D01*
X86238652Y-90370402D01*
X86613404Y-90586234D01*
X86600500Y-96685044D01*
X86359200Y-96824817D01*
X86083320Y-96984584D01*
X85847845Y-97120864D01*
X85649250Y-97235685D01*
X85484014Y-97331074D01*
X85348612Y-97409059D01*
X85239521Y-97471668D01*
X85153217Y-97520929D01*
X85086178Y-97558868D01*
X85034880Y-97587514D01*
X85013000Y-97599551D01*
X84935403Y-97642831D01*
X84874763Y-97678220D01*
X84847900Y-97695487D01*
X84818642Y-97713899D01*
X84752758Y-97753181D01*
X84657705Y-97808956D01*
X84540939Y-97876848D01*
X84416100Y-97948923D01*
X84280548Y-98026938D01*
X84154724Y-98099374D01*
X84047473Y-98161138D01*
X83967640Y-98207135D01*
X83927150Y-98230494D01*
X83867337Y-98265054D01*
X83808041Y-98299300D01*
X83742896Y-98336905D01*
X83665533Y-98381541D01*
X83569586Y-98436883D01*
X83448688Y-98506602D01*
X83296471Y-98594373D01*
X83108000Y-98703042D01*
X82839476Y-98857870D01*
X82610952Y-98989649D01*
X82418415Y-99100698D01*
X82257854Y-99193338D01*
X82125256Y-99269886D01*
X82016608Y-99332664D01*
X81927899Y-99383990D01*
X81855116Y-99426185D01*
X81794248Y-99461567D01*
X81741280Y-99492457D01*
X81692203Y-99521174D01*
X81647500Y-99547397D01*
X81551302Y-99603580D01*
X81466596Y-99652526D01*
X81406612Y-99686609D01*
X81391520Y-99694902D01*
X81363296Y-99703474D01*
X81325934Y-99698764D01*
X81271160Y-99677474D01*
X81190702Y-99636310D01*
X81076286Y-99571976D01*
X81061320Y-99563371D01*
X80769157Y-99395124D01*
X80517168Y-99249966D01*
X80301486Y-99125667D01*
X80118247Y-99019997D01*
X79963582Y-98930725D01*
X79833626Y-98855622D01*
X79724512Y-98792458D01*
X79691700Y-98773437D01*
X79582993Y-98710537D01*
X79443710Y-98630159D01*
X79287350Y-98540081D01*
X79127413Y-98448082D01*
X79073250Y-98416971D01*
X79806000Y-98416971D01*
X79826741Y-98440032D01*
X79882844Y-98481185D01*
X79965130Y-98534095D01*
X80040950Y-98579089D01*
X80148402Y-98640917D01*
X80284989Y-98719712D01*
X80435917Y-98806928D01*
X80586392Y-98894021D01*
X80644200Y-98927523D01*
X80766259Y-98998162D01*
X80871786Y-99058983D01*
X80953479Y-99105799D01*
X81004040Y-99134422D01*
X81017140Y-99141432D01*
X81007823Y-99121099D01*
X80978977Y-99066372D01*
X80935887Y-98987181D01*
X80912559Y-98944950D01*
X80855661Y-98843038D01*
X80801335Y-98746814D01*
X80759213Y-98673310D01*
X80750964Y-98659200D01*
X80678938Y-98536135D01*
X80598222Y-98396926D01*
X80516446Y-98254854D01*
X80441241Y-98123201D01*
X80380238Y-98015248D01*
X80356944Y-97973400D01*
X80308118Y-97888504D01*
X80261786Y-97813817D01*
X80235612Y-97775901D01*
X80191368Y-97718102D01*
X80154980Y-97788601D01*
X80093522Y-97903726D01*
X80020378Y-98034927D01*
X79946720Y-98162549D01*
X79883719Y-98266933D01*
X79877496Y-98276822D01*
X79836909Y-98345771D01*
X79811003Y-98399088D01*
X79806000Y-98416971D01*
X79073250Y-98416971D01*
X79018600Y-98385581D01*
X78885990Y-98309260D01*
X78767934Y-98240926D01*
X78671761Y-98184851D01*
X78604800Y-98145309D01*
X78574381Y-98126576D01*
X78574100Y-98126372D01*
X78539534Y-98104926D01*
X78475319Y-98068008D01*
X78409000Y-98031130D01*
X78347043Y-97996492D01*
X78249993Y-97941427D01*
X78126689Y-97871014D01*
X77985968Y-97790333D01*
X77836669Y-97704462D01*
X77752494Y-97655900D01*
X78434405Y-97655900D01*
X78669352Y-97790153D01*
X78776881Y-97851755D01*
X78913550Y-97930285D01*
X79064537Y-98017214D01*
X79215021Y-98104014D01*
X79272350Y-98137132D01*
X79395260Y-98207026D01*
X79502793Y-98266006D01*
X79587368Y-98310088D01*
X79641401Y-98335287D01*
X79657275Y-98339428D01*
X79677710Y-98313550D01*
X79714728Y-98256017D01*
X79758178Y-98182949D01*
X79806382Y-98099035D01*
X79847907Y-98026523D01*
X79870933Y-97986100D01*
X79899223Y-97937240D01*
X79942907Y-97863012D01*
X79980987Y-97798872D01*
X80021745Y-97726584D01*
X80047338Y-97673455D01*
X80051508Y-97655900D01*
X80348028Y-97655900D01*
X80575784Y-98049600D01*
X80657265Y-98191094D01*
X80737011Y-98330728D01*
X80808555Y-98457097D01*
X80865432Y-98558797D01*
X80892623Y-98608400D01*
X80940639Y-98694968D01*
X80983023Y-98767145D01*
X81011065Y-98810134D01*
X81012211Y-98811600D01*
X81039722Y-98852723D01*
X81081820Y-98922981D01*
X81126570Y-99002100D01*
X81203859Y-99140208D01*
X81262393Y-99236775D01*
X81306475Y-99295523D01*
X81340410Y-99320173D01*
X81368502Y-99314451D01*
X81395054Y-99282077D01*
X81412890Y-99249750D01*
X81450476Y-99179617D01*
X81467834Y-99148783D01*
X81655605Y-99148783D01*
X81740452Y-99097470D01*
X81786503Y-99070297D01*
X81869177Y-99022196D01*
X81981010Y-98957481D01*
X82114539Y-98880468D01*
X82262302Y-98795470D01*
X82346000Y-98747417D01*
X82492880Y-98663049D01*
X82624499Y-98587260D01*
X82734641Y-98523643D01*
X82817088Y-98475796D01*
X82865623Y-98447312D01*
X82876007Y-98440913D01*
X82867285Y-98417411D01*
X82837210Y-98357378D01*
X82789753Y-98268319D01*
X82728889Y-98157739D01*
X82681550Y-98073518D01*
X82605859Y-97940483D01*
X82550824Y-97846485D01*
X82512213Y-97786270D01*
X82485797Y-97754587D01*
X82467348Y-97746184D01*
X82452635Y-97755808D01*
X82440189Y-97773792D01*
X82412538Y-97819628D01*
X82366442Y-97897893D01*
X82308721Y-97996944D01*
X82256241Y-98087700D01*
X82183576Y-98213678D01*
X82096801Y-98363915D01*
X82007293Y-98518722D01*
X81933330Y-98646500D01*
X81863732Y-98767480D01*
X81798938Y-98881606D01*
X81745514Y-98977215D01*
X81710024Y-99042645D01*
X81706188Y-99050041D01*
X81655605Y-99148783D01*
X81467834Y-99148783D01*
X81495128Y-99100301D01*
X81500526Y-99091000D01*
X81554271Y-98998596D01*
X81621868Y-98882060D01*
X81698427Y-98749857D01*
X81779059Y-98610451D01*
X81858873Y-98472303D01*
X81932980Y-98343880D01*
X81996490Y-98233643D01*
X82044513Y-98150057D01*
X82072161Y-98101586D01*
X82072828Y-98100400D01*
X82109522Y-98037137D01*
X82137681Y-97992013D01*
X82141848Y-97986100D01*
X82170508Y-97941325D01*
X82208317Y-97874133D01*
X82248340Y-97798070D01*
X82283642Y-97726678D01*
X82307286Y-97673503D01*
X82311429Y-97657510D01*
X82625400Y-97657510D01*
X82637211Y-97683588D01*
X82669161Y-97743673D01*
X82716021Y-97828611D01*
X82772566Y-97929249D01*
X82833566Y-98036431D01*
X82893796Y-98141004D01*
X82948027Y-98233814D01*
X82991032Y-98305706D01*
X83017585Y-98347526D01*
X83023345Y-98354400D01*
X83046985Y-98342250D01*
X83107275Y-98308534D01*
X83197023Y-98257347D01*
X83309041Y-98192789D01*
X83419230Y-98128809D01*
X83566627Y-98043150D01*
X83718884Y-97955016D01*
X83862286Y-97872323D01*
X83983115Y-97802989D01*
X84035100Y-97773349D01*
X84263700Y-97643480D01*
X83444550Y-97643340D01*
X83246352Y-97643732D01*
X83065432Y-97644910D01*
X82907776Y-97646771D01*
X82779374Y-97649210D01*
X82686212Y-97652124D01*
X82634279Y-97655409D01*
X82625400Y-97657510D01*
X82311429Y-97657510D01*
X82312777Y-97652310D01*
X82286077Y-97650316D01*
X82214134Y-97648798D01*
X82102501Y-97647774D01*
X81956733Y-97647260D01*
X81782383Y-97647274D01*
X81585005Y-97647833D01*
X81370155Y-97648954D01*
X81325545Y-97649248D01*
X80348028Y-97655900D01*
X80051508Y-97655900D01*
X80052326Y-97652460D01*
X80025428Y-97650223D01*
X79953878Y-97648577D01*
X79843819Y-97647546D01*
X79701396Y-97647155D01*
X79532753Y-97647429D01*
X79344035Y-97648392D01*
X79238373Y-97649187D01*
X78434405Y-97655900D01*
X77752494Y-97655900D01*
X77687631Y-97618480D01*
X77547693Y-97537469D01*
X77425694Y-97466505D01*
X77410667Y-97457719D01*
X78115311Y-97457719D01*
X78128067Y-97466497D01*
X78161707Y-97473668D01*
X78220377Y-97479372D01*
X78308221Y-97483748D01*
X78429384Y-97486938D01*
X78588010Y-97489080D01*
X78788246Y-97490316D01*
X79034234Y-97490785D01*
X79094002Y-97490800D01*
X80338095Y-97490800D01*
X82345132Y-97490800D01*
X82595856Y-97490800D01*
X83556778Y-97490411D01*
X83773766Y-97489769D01*
X83975396Y-97488112D01*
X84155876Y-97485565D01*
X84309412Y-97482257D01*
X84430213Y-97478316D01*
X84512485Y-97473870D01*
X84550436Y-97469046D01*
X84551724Y-97468456D01*
X84562891Y-97460501D01*
X84568977Y-97449681D01*
X84567511Y-97431067D01*
X84556020Y-97399731D01*
X84532034Y-97350743D01*
X84493080Y-97279173D01*
X84436687Y-97180093D01*
X84360383Y-97048572D01*
X84261697Y-96879683D01*
X84225431Y-96817700D01*
X84138876Y-96669428D01*
X84053295Y-96522210D01*
X83975019Y-96386985D01*
X83910383Y-96274691D01*
X83868811Y-96201750D01*
X83819935Y-96117514D01*
X83780300Y-96053525D01*
X83756416Y-96020139D01*
X83753027Y-96017600D01*
X83725648Y-96030065D01*
X83676616Y-96059925D01*
X83614440Y-96092556D01*
X83528452Y-96128259D01*
X83480733Y-96145049D01*
X83424216Y-96164829D01*
X83381442Y-96186896D01*
X83344496Y-96219918D01*
X83305461Y-96272562D01*
X83256422Y-96353496D01*
X83200414Y-96451974D01*
X83121892Y-96589981D01*
X83025837Y-96757035D01*
X82920725Y-96938542D01*
X82815028Y-97119909D01*
X82717221Y-97286545D01*
X82645100Y-97408250D01*
X82595856Y-97490800D01*
X82345132Y-97490800D01*
X82298261Y-97408250D01*
X82268434Y-97356327D01*
X82219145Y-97271194D01*
X82156572Y-97163492D01*
X82086892Y-97043868D01*
X82066417Y-97008774D01*
X81996215Y-96888341D01*
X81931707Y-96777404D01*
X81878944Y-96686384D01*
X81843975Y-96625705D01*
X81837914Y-96615074D01*
X81798260Y-96546150D01*
X81748402Y-96460779D01*
X81726711Y-96424000D01*
X81678439Y-96340469D01*
X81634470Y-96261152D01*
X81619850Y-96233500D01*
X81580661Y-96157300D01*
X81339414Y-96159698D01*
X81098168Y-96162096D01*
X80887831Y-96527998D01*
X80804192Y-96673253D01*
X80716931Y-96824389D01*
X80634558Y-96966688D01*
X80565589Y-97085431D01*
X80543974Y-97122500D01*
X80483783Y-97226308D01*
X80429734Y-97320875D01*
X80389306Y-97393049D01*
X80374275Y-97420950D01*
X80338095Y-97490800D01*
X79094002Y-97490800D01*
X79309883Y-97490452D01*
X79508961Y-97489463D01*
X79685721Y-97487910D01*
X79834650Y-97485871D01*
X79950234Y-97483425D01*
X80026958Y-97480650D01*
X80059309Y-97477623D01*
X80060000Y-97477104D01*
X80047915Y-97451501D01*
X80014599Y-97389961D01*
X79964460Y-97300402D01*
X79901905Y-97190743D01*
X79865613Y-97127854D01*
X79788336Y-96994241D01*
X79711308Y-96860675D01*
X79642214Y-96740513D01*
X79588744Y-96647109D01*
X79577408Y-96627200D01*
X79491643Y-96476378D01*
X79426429Y-96363557D01*
X79376964Y-96282713D01*
X79338444Y-96227826D01*
X79306069Y-96192873D01*
X79275036Y-96171833D01*
X79272560Y-96170889D01*
X79517348Y-96170889D01*
X79518324Y-96201073D01*
X79541870Y-96261008D01*
X79582912Y-96337830D01*
X79583770Y-96339271D01*
X79749934Y-96620982D01*
X79918698Y-96912539D01*
X80061872Y-97164594D01*
X80117399Y-97262462D01*
X80163000Y-97341032D01*
X80193531Y-97391557D01*
X80203827Y-97405894D01*
X80217319Y-97383712D01*
X80251503Y-97325585D01*
X80301674Y-97239565D01*
X80363126Y-97133701D01*
X80384317Y-97097100D01*
X80466851Y-96954461D01*
X80563160Y-96788015D01*
X80661577Y-96617927D01*
X80750435Y-96464358D01*
X80754840Y-96456745D01*
X80822176Y-96339122D01*
X80879377Y-96236819D01*
X80922016Y-96157941D01*
X80945671Y-96110592D01*
X80946783Y-96107433D01*
X81711017Y-96107433D01*
X81770304Y-96195866D01*
X81814334Y-96265472D01*
X81869518Y-96358015D01*
X81916346Y-96440021D01*
X82008507Y-96604388D01*
X82101071Y-96767552D01*
X82190552Y-96923558D01*
X82273466Y-97066450D01*
X82346330Y-97190274D01*
X82405659Y-97289074D01*
X82447969Y-97356896D01*
X82469776Y-97387783D01*
X82471574Y-97389039D01*
X82492229Y-97369222D01*
X82525499Y-97320386D01*
X82533816Y-97306489D01*
X82566026Y-97250715D01*
X82615880Y-97163672D01*
X82675984Y-97058290D01*
X82726123Y-96970100D01*
X82802898Y-96835493D01*
X82891814Y-96680577D01*
X82979345Y-96528881D01*
X83025151Y-96449917D01*
X83083955Y-96345848D01*
X83130535Y-96257652D01*
X83160294Y-96194460D01*
X83168635Y-96165406D01*
X83168503Y-96165151D01*
X83138114Y-96148556D01*
X83078393Y-96131946D01*
X83067018Y-96129683D01*
X82984170Y-96094759D01*
X82892967Y-96026392D01*
X82806224Y-95937321D01*
X82736756Y-95840281D01*
X82703006Y-95767862D01*
X82668068Y-95662000D01*
X82097295Y-95662000D01*
X82015392Y-95789635D01*
X81946680Y-95881951D01*
X81863776Y-95973585D01*
X81822253Y-96012352D01*
X81711017Y-96107433D01*
X80946783Y-96107433D01*
X80948999Y-96101145D01*
X80930821Y-96074590D01*
X80884921Y-96030819D01*
X80859121Y-96009387D01*
X80795243Y-95947873D01*
X80724150Y-95863918D01*
X80677726Y-95799837D01*
X80586207Y-95662000D01*
X80016101Y-95662000D01*
X79974247Y-95771593D01*
X79917405Y-95876201D01*
X79833479Y-95978503D01*
X79736765Y-96063908D01*
X79641562Y-96117827D01*
X79631568Y-96121282D01*
X79565661Y-96145561D01*
X79521537Y-96167634D01*
X79517348Y-96170889D01*
X79272560Y-96170889D01*
X79240543Y-96158685D01*
X79197788Y-96147407D01*
X79194012Y-96146442D01*
X79106468Y-96117078D01*
X79029651Y-96079918D01*
X79006799Y-96064569D01*
X78955613Y-96034081D01*
X78919134Y-96029061D01*
X78918019Y-96029670D01*
X78895439Y-96057438D01*
X78855550Y-96119137D01*
X78805143Y-96203977D01*
X78777078Y-96253570D01*
X78723476Y-96349318D01*
X78677181Y-96431010D01*
X78645146Y-96486419D01*
X78636808Y-96500200D01*
X78614461Y-96537521D01*
X78573576Y-96607656D01*
X78520736Y-96699265D01*
X78481986Y-96766900D01*
X78407984Y-96896063D01*
X78325264Y-97039903D01*
X78248377Y-97173133D01*
X78226991Y-97210069D01*
X78174959Y-97305164D01*
X78136403Y-97386012D01*
X78116370Y-97441421D01*
X78115311Y-97457719D01*
X77410667Y-97457719D01*
X77380300Y-97439964D01*
X77336052Y-97414236D01*
X77255479Y-97367579D01*
X77146266Y-97304435D01*
X77016098Y-97229246D01*
X76872660Y-97146456D01*
X76821500Y-97116942D01*
X76671145Y-97030100D01*
X76527579Y-96946972D01*
X76399505Y-96872612D01*
X76295625Y-96812076D01*
X76224644Y-96770418D01*
X76211900Y-96762855D01*
X76084900Y-96687143D01*
X76084900Y-96456521D01*
X76409623Y-96456521D01*
X76410381Y-96458963D01*
X76436951Y-96485746D01*
X76497251Y-96529317D01*
X76580429Y-96582107D01*
X76622303Y-96606780D01*
X76714468Y-96659840D01*
X76837671Y-96730785D01*
X76978932Y-96812139D01*
X77125273Y-96896427D01*
X77202500Y-96940912D01*
X77327957Y-97012604D01*
X77438181Y-97074496D01*
X77525655Y-97122457D01*
X77582865Y-97152354D01*
X77601890Y-97160493D01*
X77599801Y-97140947D01*
X77576072Y-97089901D01*
X77540976Y-97027250D01*
X77505023Y-96966137D01*
X77448615Y-96869446D01*
X77376652Y-96745613D01*
X77294037Y-96603079D01*
X77205671Y-96450283D01*
X77166985Y-96383284D01*
X77080788Y-96234354D01*
X77001052Y-96097390D01*
X76931944Y-95979485D01*
X76877630Y-95887731D01*
X76842276Y-95829224D01*
X76832733Y-95814241D01*
X76815148Y-95791162D01*
X76798537Y-95784303D01*
X76777646Y-95799411D01*
X76747220Y-95842233D01*
X76702007Y-95918518D01*
X76644597Y-96020057D01*
X76581245Y-96131338D01*
X76522079Y-96232781D01*
X76474178Y-96312395D01*
X76446842Y-96355051D01*
X76416696Y-96412377D01*
X76409623Y-96456521D01*
X76084900Y-96456521D01*
X76084900Y-95597000D01*
X76402400Y-95597000D01*
X76402976Y-95749597D01*
X76404582Y-95883215D01*
X76407034Y-95990167D01*
X76410149Y-96062764D01*
X76413743Y-96093315D01*
X76414269Y-96093800D01*
X76431136Y-96073293D01*
X76467703Y-96017733D01*
X76518266Y-95936057D01*
X76566669Y-95855017D01*
X76623572Y-95757319D01*
X76651771Y-95707720D01*
X76961200Y-95707720D01*
X76974351Y-95760860D01*
X76986648Y-95778888D01*
X77006913Y-95808245D01*
X77047716Y-95874308D01*
X77104575Y-95969573D01*
X77173008Y-96086536D01*
X77243800Y-96209418D01*
X77320974Y-96344290D01*
X77392308Y-96468867D01*
X77452802Y-96574425D01*
X77497457Y-96652238D01*
X77519603Y-96690700D01*
X77556664Y-96754910D01*
X77606349Y-96841209D01*
X77643935Y-96906600D01*
X77690193Y-96986407D01*
X77729061Y-97052171D01*
X77748817Y-97084400D01*
X77775748Y-97129763D01*
X77813771Y-97197906D01*
X77827946Y-97224100D01*
X77886004Y-97316291D01*
X77935288Y-97359532D01*
X77951800Y-97363322D01*
X77968154Y-97342582D01*
X78004806Y-97285227D01*
X78057088Y-97198887D01*
X78120337Y-97091191D01*
X78155000Y-97031048D01*
X78232593Y-96895585D01*
X78311328Y-96758125D01*
X78383037Y-96632932D01*
X78439550Y-96534267D01*
X78449562Y-96516786D01*
X78510979Y-96410023D01*
X78585300Y-96281505D01*
X78659750Y-96153310D01*
X78685823Y-96108576D01*
X78745201Y-96005017D01*
X78781627Y-95934180D01*
X78798680Y-95885464D01*
X78799939Y-95848271D01*
X78788985Y-95812000D01*
X78787333Y-95807962D01*
X78771469Y-95769565D01*
X78755488Y-95738563D01*
X78734173Y-95714166D01*
X78702303Y-95695583D01*
X78654662Y-95682027D01*
X78586031Y-95672705D01*
X78491190Y-95666829D01*
X78364922Y-95663609D01*
X78202009Y-95662255D01*
X77997231Y-95661977D01*
X77822985Y-95662000D01*
X77590830Y-95662130D01*
X77404468Y-95662698D01*
X77258896Y-95663970D01*
X77149106Y-95666211D01*
X77070094Y-95669686D01*
X77016854Y-95674661D01*
X76984380Y-95681402D01*
X76967667Y-95690174D01*
X76961709Y-95701243D01*
X76961200Y-95707720D01*
X76651771Y-95707720D01*
X76669416Y-95676685D01*
X76698915Y-95622538D01*
X76707200Y-95604503D01*
X76695101Y-95574990D01*
X76674685Y-95535662D01*
X76932378Y-95535662D01*
X78701100Y-95522300D01*
X78708451Y-95329186D01*
X78710904Y-95241020D01*
X78707399Y-95175507D01*
X78693561Y-95117933D01*
X78665014Y-95053588D01*
X78617383Y-94967758D01*
X78583816Y-94910086D01*
X78534513Y-94825555D01*
X78489496Y-94748035D01*
X78444031Y-94669273D01*
X78393387Y-94581019D01*
X78332829Y-94475019D01*
X78257627Y-94343022D01*
X78163046Y-94176777D01*
X78140994Y-94138000D01*
X78083004Y-94037918D01*
X78029586Y-93949064D01*
X77988746Y-93884612D01*
X77975208Y-93865207D01*
X77951247Y-93836993D01*
X77929915Y-93827862D01*
X77905485Y-93843220D01*
X77872230Y-93888474D01*
X77824424Y-93969030D01*
X77778156Y-94051251D01*
X77735717Y-94126372D01*
X77673223Y-94235940D01*
X77596117Y-94370464D01*
X77509841Y-94520454D01*
X77419839Y-94676420D01*
X77393364Y-94722200D01*
X77304176Y-94876715D01*
X77217964Y-95026770D01*
X77139952Y-95163224D01*
X77075359Y-95276935D01*
X77029409Y-95358762D01*
X77019571Y-95376581D01*
X76932378Y-95535662D01*
X76674685Y-95535662D01*
X76663193Y-95513527D01*
X76618056Y-95431569D01*
X76566273Y-95340572D01*
X76514423Y-95251992D01*
X76469090Y-95177285D01*
X76436853Y-95127908D01*
X76425794Y-95114660D01*
X76417857Y-95133911D01*
X76411298Y-95198771D01*
X76406371Y-95304063D01*
X76403325Y-95444609D01*
X76402400Y-95597000D01*
X76084900Y-95597000D01*
X76084900Y-93706200D01*
X76402400Y-93706200D01*
X76402400Y-94752435D01*
X76475560Y-94883367D01*
X76571765Y-95054890D01*
X76646762Y-95186539D01*
X76703697Y-95283024D01*
X76745718Y-95349053D01*
X76775971Y-95389332D01*
X76797602Y-95408571D01*
X76813760Y-95411478D01*
X76824540Y-95405476D01*
X76854810Y-95368068D01*
X76859600Y-95351660D01*
X76872982Y-95315188D01*
X76905302Y-95261283D01*
X76906524Y-95259521D01*
X76944592Y-95200004D01*
X76993861Y-95116775D01*
X77030085Y-95052400D01*
X77077485Y-94967550D01*
X77140348Y-94857122D01*
X77208301Y-94739278D01*
X77240447Y-94684100D01*
X77304892Y-94573408D01*
X77367330Y-94465268D01*
X77418409Y-94375915D01*
X77437971Y-94341200D01*
X77483316Y-94261760D01*
X77542796Y-94159933D01*
X77604130Y-94056728D01*
X77608714Y-94049100D01*
X77665579Y-93953080D01*
X77717518Y-93862825D01*
X77754503Y-93795797D01*
X77758181Y-93788750D01*
X77795810Y-93715700D01*
X78078800Y-93715700D01*
X78090517Y-93744012D01*
X78120098Y-93800928D01*
X78159188Y-93871540D01*
X78199430Y-93940943D01*
X78232468Y-93994229D01*
X78244328Y-94011000D01*
X78271091Y-94051464D01*
X78312921Y-94122059D01*
X78361093Y-94208030D01*
X78364454Y-94214200D01*
X78432229Y-94337385D01*
X78501309Y-94460391D01*
X78567061Y-94575259D01*
X78624852Y-94674029D01*
X78670049Y-94748742D01*
X78698021Y-94791439D01*
X78704478Y-94798400D01*
X78707215Y-94774222D01*
X78709635Y-94706579D01*
X78711612Y-94602803D01*
X78713021Y-94470230D01*
X78713736Y-94316191D01*
X78713800Y-94252300D01*
X78713800Y-93706200D01*
X78396300Y-93706200D01*
X78276020Y-93706912D01*
X78176647Y-93708856D01*
X78107799Y-93711745D01*
X78079094Y-93715290D01*
X78078800Y-93715700D01*
X77795810Y-93715700D01*
X77800704Y-93706200D01*
X76402400Y-93706200D01*
X76084900Y-93706200D01*
X76084900Y-92509706D01*
X76402400Y-92509706D01*
X76402400Y-93553800D01*
X77803206Y-93553800D01*
X77792135Y-93534750D01*
X78079364Y-93534750D01*
X78102936Y-93541965D01*
X78167709Y-93547926D01*
X78264090Y-93552057D01*
X78382483Y-93553782D01*
X78396300Y-93553800D01*
X78713800Y-93553800D01*
X78713800Y-93003466D01*
X78713786Y-92998460D01*
X78894551Y-92998460D01*
X78895052Y-93290223D01*
X78896118Y-93584619D01*
X78897728Y-93876990D01*
X78899865Y-94162678D01*
X78902509Y-94437025D01*
X78905642Y-94695372D01*
X78909244Y-94933062D01*
X78913297Y-95145435D01*
X78917781Y-95327834D01*
X78922679Y-95475600D01*
X78927970Y-95584076D01*
X78933636Y-95648603D01*
X78936426Y-95662432D01*
X78999578Y-95784826D01*
X79092567Y-95885986D01*
X79202019Y-95951601D01*
X79209100Y-95954194D01*
X79305953Y-95982833D01*
X79385149Y-95988385D01*
X79473923Y-95971533D01*
X79508200Y-95961701D01*
X79639213Y-95897025D01*
X79741853Y-95792568D01*
X79811012Y-95653709D01*
X79816050Y-95637599D01*
X79824194Y-95605450D01*
X79831191Y-95565382D01*
X79834670Y-95535000D01*
X80034600Y-95535000D01*
X80288600Y-95535000D01*
X80411019Y-95533295D01*
X80489584Y-95527583D01*
X80531147Y-95516965D01*
X80542600Y-95501683D01*
X80536383Y-95462745D01*
X80519873Y-95388914D01*
X80496279Y-95294271D01*
X80489046Y-95266733D01*
X80467064Y-95182569D01*
X80435389Y-95059402D01*
X80396642Y-94907514D01*
X80353441Y-94737188D01*
X80308408Y-94558706D01*
X80288994Y-94481460D01*
X80142494Y-93897821D01*
X80088642Y-93986160D01*
X80072996Y-94013927D01*
X80060710Y-94044049D01*
X80051379Y-94082688D01*
X80044597Y-94136011D01*
X80039957Y-94210180D01*
X80037052Y-94311361D01*
X80035477Y-94445717D01*
X80034826Y-94619413D01*
X80034694Y-94804750D01*
X80034600Y-95535000D01*
X79834670Y-95535000D01*
X79837119Y-95513613D01*
X79842059Y-95446364D01*
X79846091Y-95359852D01*
X79849295Y-95250298D01*
X79851752Y-95113919D01*
X79853541Y-94946935D01*
X79854743Y-94745566D01*
X79855437Y-94506029D01*
X79855704Y-94224545D01*
X79855624Y-93897332D01*
X79855532Y-93774589D01*
X79855509Y-93718900D01*
X80034600Y-93718900D01*
X80047300Y-93731600D01*
X80060000Y-93718900D01*
X80047300Y-93706200D01*
X80034600Y-93718900D01*
X79855509Y-93718900D01*
X79855409Y-93483372D01*
X79855536Y-93207353D01*
X79855895Y-92950687D01*
X79856469Y-92717528D01*
X79857240Y-92512029D01*
X79858190Y-92338346D01*
X79859303Y-92200632D01*
X79860561Y-92103042D01*
X79861947Y-92049729D01*
X79862788Y-92040745D01*
X79870428Y-92062940D01*
X79889163Y-92129930D01*
X79917827Y-92237214D01*
X79955253Y-92380288D01*
X80000276Y-92554651D01*
X80051729Y-92755799D01*
X80108446Y-92979231D01*
X80169261Y-93220444D01*
X80197421Y-93332661D01*
X80295092Y-93721965D01*
X80381436Y-94064968D01*
X80457259Y-94364699D01*
X80523369Y-94624184D01*
X80580576Y-94846454D01*
X80629685Y-95034535D01*
X80671507Y-95191455D01*
X80706847Y-95320244D01*
X80736515Y-95423929D01*
X80761318Y-95505538D01*
X80782064Y-95568099D01*
X80799561Y-95614641D01*
X80814617Y-95648191D01*
X80815863Y-95650643D01*
X80913146Y-95792674D01*
X81037516Y-95898002D01*
X81162290Y-95954743D01*
X81245603Y-95978362D01*
X81305431Y-95988960D01*
X81363018Y-95987138D01*
X81439608Y-95973500D01*
X81484865Y-95963898D01*
X81625566Y-95908901D01*
X81749864Y-95812105D01*
X81848248Y-95682043D01*
X81886037Y-95604026D01*
X81902948Y-95553146D01*
X81915444Y-95510738D01*
X82125981Y-95510738D01*
X82141044Y-95523715D01*
X82181627Y-95531043D01*
X82256227Y-95534283D01*
X82369688Y-95535000D01*
X82625400Y-95535000D01*
X82625400Y-94797138D01*
X82625028Y-94577234D01*
X82623722Y-94402326D01*
X82621199Y-94266612D01*
X82617173Y-94164292D01*
X82611361Y-94089566D01*
X82603477Y-94036634D01*
X82593237Y-93999693D01*
X82585427Y-93981978D01*
X82556706Y-93932830D01*
X82538286Y-93912902D01*
X82536958Y-93913389D01*
X82528593Y-93939460D01*
X82509814Y-94007751D01*
X82482477Y-94111187D01*
X82448443Y-94242694D01*
X82409566Y-94395195D01*
X82387940Y-94480900D01*
X82316506Y-94764333D01*
X82256822Y-94999760D01*
X82208544Y-95188513D01*
X82171329Y-95331925D01*
X82144834Y-95431329D01*
X82128716Y-95488057D01*
X82127941Y-95490550D01*
X82125981Y-95510738D01*
X81915444Y-95510738D01*
X81930054Y-95461158D01*
X81965198Y-95336225D01*
X82006223Y-95186514D01*
X82050973Y-95020190D01*
X82097290Y-94845420D01*
X82143018Y-94670369D01*
X82185999Y-94503202D01*
X82224078Y-94352086D01*
X82255097Y-94225186D01*
X82276900Y-94130669D01*
X82283322Y-94099900D01*
X82294543Y-94051441D01*
X82315002Y-93970308D01*
X82340564Y-93872834D01*
X82344373Y-93858600D01*
X82375942Y-93739116D01*
X82408354Y-93613600D01*
X82432981Y-93515700D01*
X82449199Y-93450378D01*
X82475770Y-93344038D01*
X82510628Y-93204921D01*
X82551705Y-93041265D01*
X82596935Y-92861312D01*
X82643195Y-92677500D01*
X82815900Y-91991700D01*
X82828600Y-93807800D01*
X82831007Y-94108093D01*
X82833898Y-94394284D01*
X82837192Y-94662200D01*
X82840811Y-94907668D01*
X82844675Y-95126514D01*
X82848704Y-95314567D01*
X82852820Y-95467652D01*
X82856943Y-95581598D01*
X82860993Y-95652231D01*
X82864106Y-95674700D01*
X82949229Y-95812525D01*
X83058594Y-95910670D01*
X83184764Y-95967404D01*
X83320302Y-95981001D01*
X83457772Y-95949729D01*
X83580882Y-95877087D01*
X83854329Y-95877087D01*
X83932014Y-96009727D01*
X83971579Y-96077544D01*
X84030208Y-96178375D01*
X84101535Y-96301258D01*
X84179196Y-96435230D01*
X84225600Y-96515365D01*
X84302293Y-96647829D01*
X84374755Y-96772923D01*
X84437150Y-96880578D01*
X84483642Y-96960724D01*
X84502242Y-96992731D01*
X84596081Y-97155845D01*
X84666424Y-97282241D01*
X84679545Y-97306650D01*
X84716059Y-97355352D01*
X84752804Y-97355382D01*
X84784650Y-97325397D01*
X84819112Y-97276084D01*
X84857410Y-97211195D01*
X84857611Y-97210824D01*
X84882558Y-97166163D01*
X84889887Y-97153283D01*
X85079645Y-97153283D01*
X85083156Y-97160600D01*
X85114947Y-97147940D01*
X85174196Y-97115318D01*
X85224809Y-97084400D01*
X85292318Y-97042724D01*
X85340587Y-97015046D01*
X85355901Y-97008200D01*
X85380680Y-96996027D01*
X85440417Y-96962799D01*
X85526418Y-96913446D01*
X85629991Y-96852902D01*
X85640769Y-96846547D01*
X85768524Y-96771375D01*
X85901788Y-96693325D01*
X86022948Y-96622695D01*
X86098850Y-96578727D01*
X86182987Y-96528214D01*
X86246900Y-96486023D01*
X86280274Y-96459114D01*
X86282832Y-96454629D01*
X86269874Y-96423416D01*
X86238267Y-96370085D01*
X86231982Y-96360500D01*
X86199122Y-96307643D01*
X86148910Y-96222792D01*
X86088621Y-96118383D01*
X86035299Y-96024281D01*
X85977129Y-95922610D01*
X85927524Y-95839508D01*
X85891842Y-95783710D01*
X85875595Y-95763931D01*
X85857653Y-95784318D01*
X85822472Y-95838632D01*
X85776934Y-95916096D01*
X85766280Y-95935050D01*
X85723082Y-96011678D01*
X85659132Y-96124017D01*
X85579160Y-96263828D01*
X85487897Y-96422876D01*
X85390075Y-96592924D01*
X85290423Y-96765736D01*
X85193674Y-96933075D01*
X85124343Y-97052650D01*
X85092467Y-97114194D01*
X85079645Y-97153283D01*
X84889887Y-97153283D01*
X84927505Y-97087176D01*
X84987173Y-96983012D01*
X85056282Y-96862818D01*
X85129554Y-96735743D01*
X85201710Y-96610935D01*
X85267472Y-96497543D01*
X85321559Y-96404714D01*
X85358694Y-96341596D01*
X85370265Y-96322400D01*
X85394222Y-96281450D01*
X85433861Y-96211493D01*
X85478253Y-96131900D01*
X85543298Y-96014885D01*
X85589923Y-95932545D01*
X85624017Y-95874949D01*
X85651471Y-95832165D01*
X85678174Y-95794261D01*
X85679750Y-95792104D01*
X85704319Y-95758116D01*
X85720364Y-95730571D01*
X85723546Y-95708802D01*
X85709526Y-95692146D01*
X85673966Y-95679935D01*
X85612526Y-95671506D01*
X85520869Y-95666192D01*
X85394654Y-95663328D01*
X85229544Y-95662249D01*
X85021200Y-95662289D01*
X84835635Y-95662650D01*
X83947070Y-95664412D01*
X83900699Y-95770749D01*
X83854329Y-95877087D01*
X83580882Y-95877087D01*
X83589738Y-95871862D01*
X83615985Y-95849491D01*
X83688219Y-95769893D01*
X83729939Y-95680333D01*
X83743178Y-95628608D01*
X83748335Y-95586972D01*
X85970270Y-95586972D01*
X85979724Y-95616378D01*
X86009486Y-95677284D01*
X86053271Y-95758789D01*
X86104791Y-95849994D01*
X86157761Y-95939998D01*
X86205892Y-96017900D01*
X86242899Y-96072800D01*
X86262495Y-96093798D01*
X86262575Y-96093800D01*
X86268753Y-96069661D01*
X86274181Y-96002291D01*
X86278558Y-95899254D01*
X86281581Y-95768117D01*
X86282950Y-95616444D01*
X86283000Y-95580719D01*
X86281905Y-95405822D01*
X86278755Y-95265407D01*
X86273747Y-95163627D01*
X86267081Y-95104637D01*
X86259614Y-95091769D01*
X86238838Y-95121711D01*
X86200109Y-95184104D01*
X86150232Y-95267300D01*
X86096014Y-95359651D01*
X86044259Y-95449508D01*
X86001775Y-95525224D01*
X85975367Y-95575151D01*
X85970270Y-95586972D01*
X83748335Y-95586972D01*
X83748751Y-95583620D01*
X83751544Y-95536188D01*
X83971600Y-95536188D01*
X84834478Y-95534335D01*
X85038818Y-95533281D01*
X85226667Y-95531128D01*
X85392069Y-95528038D01*
X85529067Y-95524170D01*
X85631707Y-95519684D01*
X85694032Y-95514740D01*
X85710774Y-95510774D01*
X85704906Y-95477890D01*
X85673499Y-95407576D01*
X85619078Y-95304745D01*
X85544169Y-95174308D01*
X85498810Y-95098605D01*
X85472922Y-95054801D01*
X85426750Y-94975554D01*
X85365290Y-94869484D01*
X85293540Y-94745211D01*
X85228900Y-94632938D01*
X85152436Y-94500078D01*
X85082163Y-94378200D01*
X85023052Y-94275913D01*
X84980078Y-94201823D01*
X84960062Y-94167632D01*
X84924540Y-94106332D01*
X84877695Y-94023628D01*
X84849370Y-93972900D01*
X84808496Y-93899550D01*
X84777127Y-93843852D01*
X84765323Y-93823394D01*
X84743773Y-93822194D01*
X84704697Y-93862916D01*
X84647105Y-93946895D01*
X84570011Y-94075467D01*
X84541594Y-94125300D01*
X84487992Y-94219736D01*
X84441865Y-94300182D01*
X84410334Y-94354251D01*
X84402853Y-94366600D01*
X84380048Y-94404842D01*
X84337287Y-94478258D01*
X84279740Y-94577872D01*
X84212575Y-94694703D01*
X84140960Y-94819775D01*
X84070063Y-94944108D01*
X84044610Y-94988900D01*
X84007368Y-95061173D01*
X83985512Y-95127298D01*
X83975077Y-95205706D01*
X83972096Y-95314828D01*
X83972060Y-95326044D01*
X83971600Y-95536188D01*
X83751544Y-95536188D01*
X83753505Y-95502914D01*
X83757457Y-95384834D01*
X83760619Y-95227724D01*
X83763007Y-95029927D01*
X83764636Y-94789787D01*
X83765521Y-94505650D01*
X83765675Y-94175858D01*
X83765115Y-93798756D01*
X83764842Y-93706200D01*
X83971600Y-93706200D01*
X83972786Y-94811100D01*
X84042043Y-94690377D01*
X84082119Y-94620650D01*
X84139832Y-94520407D01*
X84207416Y-94403128D01*
X84276136Y-94283977D01*
X84347688Y-94159732D01*
X84418743Y-94035936D01*
X84480828Y-93927379D01*
X84523544Y-93852250D01*
X84595576Y-93724841D01*
X84886094Y-93724841D01*
X84898454Y-93756947D01*
X84929185Y-93813313D01*
X84941202Y-93833200D01*
X84971924Y-93884310D01*
X85022578Y-93970224D01*
X85087764Y-94081710D01*
X85162080Y-94209537D01*
X85223575Y-94315800D01*
X85301276Y-94450260D01*
X85374004Y-94575956D01*
X85436366Y-94683579D01*
X85482970Y-94763821D01*
X85505018Y-94801594D01*
X85539162Y-94860566D01*
X85590929Y-94950971D01*
X85652999Y-95059991D01*
X85711500Y-95163212D01*
X85771005Y-95266701D01*
X85821796Y-95351759D01*
X85858645Y-95409859D01*
X85876323Y-95432473D01*
X85876600Y-95432520D01*
X85893949Y-95411885D01*
X85929635Y-95356860D01*
X85977309Y-95277454D01*
X86001229Y-95236002D01*
X86065956Y-95121646D01*
X86133903Y-95000272D01*
X86191768Y-94895658D01*
X86198623Y-94883124D01*
X86284088Y-94726549D01*
X86277194Y-94222724D01*
X86270300Y-93718900D01*
X85578150Y-93712141D01*
X85396604Y-93711052D01*
X85232864Y-93711381D01*
X85093442Y-93713010D01*
X84984850Y-93715818D01*
X84913599Y-93719686D01*
X84886202Y-93724495D01*
X84886094Y-93724841D01*
X84595576Y-93724841D01*
X84606115Y-93706200D01*
X83971600Y-93706200D01*
X83764842Y-93706200D01*
X83763854Y-93372689D01*
X83763682Y-93325200D01*
X83762674Y-93020400D01*
X83971600Y-93020400D01*
X83971600Y-93553800D01*
X84610743Y-93553800D01*
X84604703Y-93543767D01*
X84886000Y-93543767D01*
X84910319Y-93546388D01*
X84978953Y-93548752D01*
X85085418Y-93550769D01*
X85223228Y-93552344D01*
X85385901Y-93553384D01*
X85566950Y-93553796D01*
X85584500Y-93553800D01*
X86283000Y-93553800D01*
X86283000Y-93030671D01*
X86282590Y-92852004D01*
X86280974Y-92716833D01*
X86277571Y-92617857D01*
X86271801Y-92547775D01*
X86263084Y-92499286D01*
X86250839Y-92465089D01*
X86236062Y-92440121D01*
X86201005Y-92385003D01*
X86151857Y-92301841D01*
X86098486Y-92207384D01*
X86091616Y-92194900D01*
X86035470Y-92094217D01*
X85979581Y-91996765D01*
X85935466Y-91922609D01*
X85933169Y-91918894D01*
X85872231Y-91820688D01*
X85662258Y-92185594D01*
X85581903Y-92325217D01*
X85484387Y-92494624D01*
X85377905Y-92679580D01*
X85270652Y-92865850D01*
X85170824Y-93039198D01*
X85169142Y-93042117D01*
X85087346Y-93184568D01*
X85014813Y-93311710D01*
X84955152Y-93417147D01*
X84911973Y-93494485D01*
X84888885Y-93537327D01*
X84886000Y-93543767D01*
X84604703Y-93543767D01*
X84561043Y-93471250D01*
X84523877Y-93408492D01*
X84465931Y-93309359D01*
X84391672Y-93181554D01*
X84305567Y-93032785D01*
X84212083Y-92870756D01*
X84115687Y-92703172D01*
X84104591Y-92683850D01*
X84053512Y-92596684D01*
X84012042Y-92529295D01*
X83986392Y-92491618D01*
X83981591Y-92487000D01*
X83978624Y-92511163D01*
X83976007Y-92578705D01*
X83973879Y-92682205D01*
X83972380Y-92814243D01*
X83971649Y-92967399D01*
X83971600Y-93020400D01*
X83762674Y-93020400D01*
X83762380Y-92931836D01*
X83761328Y-92586067D01*
X83760195Y-92284692D01*
X83758649Y-92024509D01*
X83758534Y-92013289D01*
X83971523Y-92013289D01*
X83973242Y-92065077D01*
X83979682Y-92112227D01*
X83993769Y-92161647D01*
X84018426Y-92220245D01*
X84056580Y-92294930D01*
X84111154Y-92392611D01*
X84185074Y-92520196D01*
X84281265Y-92684593D01*
X84286220Y-92693063D01*
X84318015Y-92747942D01*
X84368859Y-92836304D01*
X84432638Y-92947498D01*
X84503238Y-93070876D01*
X84530400Y-93118417D01*
X84597907Y-93233749D01*
X84657884Y-93330828D01*
X84705468Y-93402199D01*
X84735800Y-93440404D01*
X84743083Y-93444709D01*
X84768230Y-93420041D01*
X84806011Y-93366201D01*
X84823885Y-93336855D01*
X84881579Y-93237541D01*
X84956253Y-93108506D01*
X85039627Y-92964103D01*
X85123418Y-92818683D01*
X85199345Y-92686600D01*
X85240958Y-92614000D01*
X85288793Y-92530687D01*
X85354413Y-92416795D01*
X85430110Y-92285681D01*
X85508177Y-92150705D01*
X85529813Y-92113345D01*
X85597118Y-91996309D01*
X85654320Y-91895220D01*
X85697009Y-91817997D01*
X85720779Y-91772557D01*
X85724200Y-91764095D01*
X85699765Y-91760887D01*
X85630319Y-91757946D01*
X85521653Y-91755363D01*
X85379556Y-91753227D01*
X85209817Y-91751630D01*
X85018226Y-91750661D01*
X84847900Y-91750400D01*
X83971600Y-91750400D01*
X83971600Y-91949955D01*
X83971523Y-92013289D01*
X83758534Y-92013289D01*
X83756359Y-91802316D01*
X83753802Y-91659824D01*
X85977745Y-91659824D01*
X85978756Y-91692281D01*
X85993108Y-91723708D01*
X86003399Y-91740836D01*
X86037348Y-91797752D01*
X86086928Y-91882381D01*
X86142552Y-91978336D01*
X86153906Y-91998050D01*
X86203547Y-92082109D01*
X86243748Y-92146039D01*
X86267945Y-92179557D01*
X86271420Y-92182200D01*
X86274922Y-92158060D01*
X86277998Y-92090685D01*
X86280479Y-91987638D01*
X86282193Y-91856480D01*
X86282971Y-91704778D01*
X86283000Y-91668757D01*
X86282959Y-91483704D01*
X86281336Y-91346949D01*
X86275877Y-91255992D01*
X86264331Y-91208333D01*
X86244446Y-91201475D01*
X86213968Y-91232918D01*
X86170646Y-91300164D01*
X86112227Y-91400714D01*
X86084681Y-91448736D01*
X86027715Y-91548805D01*
X85993067Y-91615583D01*
X85977745Y-91659824D01*
X83753802Y-91659824D01*
X83752995Y-91614912D01*
X83748224Y-91459096D01*
X83741716Y-91331665D01*
X83737794Y-91284905D01*
X83957307Y-91284905D01*
X83961976Y-91380937D01*
X83970828Y-91467774D01*
X83979520Y-91535554D01*
X83984880Y-91564252D01*
X84011631Y-91572200D01*
X84081986Y-91579130D01*
X84188759Y-91585011D01*
X84324764Y-91589815D01*
X84482815Y-91593511D01*
X84655727Y-91596070D01*
X84836312Y-91597463D01*
X85017386Y-91597659D01*
X85191761Y-91596630D01*
X85352252Y-91594345D01*
X85491673Y-91590776D01*
X85602838Y-91585892D01*
X85678560Y-91579664D01*
X85711654Y-91572062D01*
X85712263Y-91571364D01*
X85712935Y-91531216D01*
X85703157Y-91514337D01*
X85683656Y-91484307D01*
X85643313Y-91417586D01*
X85586454Y-91321611D01*
X85517406Y-91203818D01*
X85440495Y-91071644D01*
X85360049Y-90932524D01*
X85280393Y-90793895D01*
X85205853Y-90663194D01*
X85140758Y-90547856D01*
X85138541Y-90543900D01*
X85072379Y-90427295D01*
X85000856Y-90303807D01*
X84929865Y-90183333D01*
X84887025Y-90111965D01*
X85081198Y-90111965D01*
X85096612Y-90160342D01*
X85120848Y-90207350D01*
X85155716Y-90268366D01*
X85209994Y-90362990D01*
X85279114Y-90483292D01*
X85358511Y-90621341D01*
X85443618Y-90769209D01*
X85529868Y-90918965D01*
X85612694Y-91062680D01*
X85687530Y-91192425D01*
X85749809Y-91300270D01*
X85794964Y-91378284D01*
X85815573Y-91413689D01*
X85850089Y-91467020D01*
X85874515Y-91495015D01*
X85877532Y-91496239D01*
X85894132Y-91475416D01*
X85931087Y-91417823D01*
X85983814Y-91330949D01*
X86047730Y-91222282D01*
X86089128Y-91150466D01*
X86155418Y-91031231D01*
X86209555Y-90927257D01*
X86247709Y-90846452D01*
X86266052Y-90796725D01*
X86265996Y-90785132D01*
X86239203Y-90767821D01*
X86175651Y-90729676D01*
X86082742Y-90674978D01*
X85967876Y-90608005D01*
X85838452Y-90533038D01*
X85701872Y-90454357D01*
X85565535Y-90376239D01*
X85436843Y-90302966D01*
X85323195Y-90238817D01*
X85267000Y-90207428D01*
X85196576Y-90166667D01*
X85143924Y-90133246D01*
X85128569Y-90121663D01*
X85092005Y-90097358D01*
X85081198Y-90111965D01*
X84887025Y-90111965D01*
X84865297Y-90075769D01*
X84813044Y-89991013D01*
X84778999Y-89938960D01*
X84775615Y-89934300D01*
X84737595Y-89883500D01*
X84698917Y-89934300D01*
X84656480Y-89997864D01*
X84627715Y-90048600D01*
X84599343Y-90100726D01*
X84553919Y-90180772D01*
X84500388Y-90273012D01*
X84490462Y-90289900D01*
X84380863Y-90476342D01*
X84293021Y-90626680D01*
X84222607Y-90748402D01*
X84165291Y-90848992D01*
X84116741Y-90935936D01*
X84115824Y-90937600D01*
X84066206Y-91026351D01*
X84019013Y-91108860D01*
X83993400Y-91152337D01*
X83966663Y-91212353D01*
X83957307Y-91284905D01*
X83737794Y-91284905D01*
X83733140Y-91229419D01*
X83722164Y-91149155D01*
X83708457Y-91087673D01*
X83691687Y-91041770D01*
X83671525Y-91008245D01*
X83647638Y-90983896D01*
X83619696Y-90965523D01*
X83587366Y-90949923D01*
X83550319Y-90933894D01*
X83514599Y-90917409D01*
X83460482Y-90891918D01*
X83411761Y-90873660D01*
X83358639Y-90861431D01*
X83291318Y-90854025D01*
X83199999Y-90850238D01*
X83074886Y-90848867D01*
X82955600Y-90848700D01*
X82748561Y-90851198D01*
X82585275Y-90861258D01*
X82458830Y-90882727D01*
X82362316Y-90919452D01*
X82288822Y-90975281D01*
X82231435Y-91054059D01*
X82183245Y-91159635D01*
X82137341Y-91295855D01*
X82134260Y-91305900D01*
X82103196Y-91408887D01*
X82076373Y-91500170D01*
X82058596Y-91563334D01*
X82056180Y-91572600D01*
X82042661Y-91624714D01*
X82019853Y-91711094D01*
X81991670Y-91816949D01*
X81977192Y-91871050D01*
X81918190Y-92091968D01*
X81855163Y-92329419D01*
X81793781Y-92561974D01*
X81739717Y-92768202D01*
X81736874Y-92779100D01*
X81715918Y-92858858D01*
X81684690Y-92976923D01*
X81646049Y-93122525D01*
X81602853Y-93284897D01*
X81557961Y-93453270D01*
X81551466Y-93477600D01*
X81507628Y-93642609D01*
X81466206Y-93800077D01*
X81429774Y-93940102D01*
X81400904Y-94052780D01*
X81382172Y-94128208D01*
X81379951Y-94137597D01*
X81365553Y-94197052D01*
X81353399Y-94232151D01*
X81340924Y-94238712D01*
X81325563Y-94212551D01*
X81304754Y-94149485D01*
X81275931Y-94045332D01*
X81240073Y-93909400D01*
X81202493Y-93766596D01*
X81161325Y-93610710D01*
X81123299Y-93467201D01*
X81109179Y-93414100D01*
X81074168Y-93282335D01*
X81036630Y-93140592D01*
X81003668Y-93015702D01*
X80998222Y-92995000D01*
X80903755Y-92635645D01*
X80830055Y-92355898D01*
X81026911Y-92355898D01*
X81065177Y-92503999D01*
X81093753Y-92612916D01*
X81124129Y-92726203D01*
X81138606Y-92779100D01*
X81169399Y-92891579D01*
X81209592Y-93040296D01*
X81255714Y-93212343D01*
X81304291Y-93394815D01*
X81306037Y-93401400D01*
X81325017Y-93468416D01*
X81337814Y-93491715D01*
X81350420Y-93476902D01*
X81360327Y-93452200D01*
X81381453Y-93384612D01*
X81402302Y-93300788D01*
X81405210Y-93287100D01*
X81420333Y-93221548D01*
X81445359Y-93121470D01*
X81476613Y-93001289D01*
X81505521Y-92893400D01*
X81552859Y-92719371D01*
X81587805Y-92586355D01*
X81610629Y-92486169D01*
X81621601Y-92410627D01*
X81620990Y-92351547D01*
X81609067Y-92300744D01*
X81586100Y-92250034D01*
X81552359Y-92191233D01*
X81529905Y-92153490D01*
X81473691Y-92057103D01*
X81423319Y-91968415D01*
X81387793Y-91903339D01*
X81382219Y-91892490D01*
X81353523Y-91846020D01*
X81332539Y-91843160D01*
X81323870Y-91854390D01*
X81302564Y-91890245D01*
X81261851Y-91958929D01*
X81208186Y-92049549D01*
X81164716Y-92122999D01*
X81026911Y-92355898D01*
X80830055Y-92355898D01*
X80821152Y-92322105D01*
X80749275Y-92051088D01*
X80686989Y-91819299D01*
X80672214Y-91765540D01*
X80872800Y-91765540D01*
X80879114Y-91795745D01*
X80895180Y-91858823D01*
X80916678Y-91938837D01*
X80939291Y-92019847D01*
X80958698Y-92085914D01*
X80964962Y-92105697D01*
X80983160Y-92110121D01*
X81018555Y-92068349D01*
X81050356Y-92016797D01*
X81099022Y-91932328D01*
X81143934Y-91854540D01*
X81163785Y-91820250D01*
X81173826Y-91802940D01*
X81497349Y-91802940D01*
X81530626Y-91857123D01*
X81546801Y-91877400D01*
X81576728Y-91922454D01*
X81616111Y-91992159D01*
X81633612Y-92025911D01*
X81667575Y-92087380D01*
X81692826Y-92122124D01*
X81700213Y-92125252D01*
X81711587Y-92096990D01*
X81731389Y-92032609D01*
X81755616Y-91945246D01*
X81759038Y-91932291D01*
X81806792Y-91750400D01*
X81645393Y-91750400D01*
X81550856Y-91754573D01*
X81502800Y-91770421D01*
X81497349Y-91802940D01*
X81173826Y-91802940D01*
X81204304Y-91750400D01*
X81038552Y-91750400D01*
X80954279Y-91752517D01*
X80894601Y-91758057D01*
X80872800Y-91765540D01*
X80672214Y-91765540D01*
X80633159Y-91623446D01*
X80586648Y-91460234D01*
X80546321Y-91326371D01*
X80511042Y-91218563D01*
X80479675Y-91133516D01*
X80451085Y-91067937D01*
X80424136Y-91018534D01*
X80397691Y-90982012D01*
X80370615Y-90955077D01*
X80341772Y-90934438D01*
X80310028Y-90916799D01*
X80275564Y-90899531D01*
X80231726Y-90880291D01*
X80183018Y-90866555D01*
X80120261Y-90857426D01*
X80034281Y-90852010D01*
X79915902Y-90849410D01*
X79755945Y-90848731D01*
X79755200Y-90848731D01*
X79560406Y-90850666D01*
X79408311Y-90857622D01*
X79290924Y-90871281D01*
X79200252Y-90893321D01*
X79128305Y-90925423D01*
X79067092Y-90969265D01*
X79033707Y-91000385D01*
X78982628Y-91059944D01*
X78949687Y-91125329D01*
X78926489Y-91215449D01*
X78918549Y-91259707D01*
X78913122Y-91318149D01*
X78908429Y-91421148D01*
X78904451Y-91564046D01*
X78901170Y-91742186D01*
X78898567Y-91950908D01*
X78896622Y-92185555D01*
X78895317Y-92441468D01*
X78894633Y-92713989D01*
X78894551Y-92998460D01*
X78713786Y-92998460D01*
X78713347Y-92843219D01*
X78712079Y-92702305D01*
X78710134Y-92587843D01*
X78707647Y-92506953D01*
X78704755Y-92466754D01*
X78703452Y-92463716D01*
X78685762Y-92490965D01*
X78643794Y-92560985D01*
X78578367Y-92672379D01*
X78490302Y-92823752D01*
X78383887Y-93007700D01*
X78346183Y-93072393D01*
X78295749Y-93158169D01*
X78260148Y-93218367D01*
X78218048Y-93291919D01*
X78188933Y-93347679D01*
X78179835Y-93370767D01*
X78165230Y-93401459D01*
X78130758Y-93450714D01*
X78129600Y-93452200D01*
X78094709Y-93502059D01*
X78079388Y-93534329D01*
X78079364Y-93534750D01*
X77792135Y-93534750D01*
X77744153Y-93452193D01*
X77704384Y-93383594D01*
X77645517Y-93281827D01*
X77572529Y-93155519D01*
X77490396Y-93013293D01*
X77404097Y-92863776D01*
X77318609Y-92715592D01*
X77238908Y-92577366D01*
X77169971Y-92457724D01*
X77116776Y-92365291D01*
X77085471Y-92310738D01*
X77034317Y-92222325D01*
X76982928Y-92135107D01*
X76965473Y-92106000D01*
X76916302Y-92022241D01*
X76865495Y-91932191D01*
X76858480Y-91919388D01*
X76824808Y-91862402D01*
X76801644Y-91832074D01*
X76797057Y-91830488D01*
X76780493Y-91856186D01*
X76749292Y-91909394D01*
X76738587Y-91928200D01*
X76704891Y-91987200D01*
X76653457Y-92076572D01*
X76592089Y-92182776D01*
X76545357Y-92263403D01*
X76402400Y-92509706D01*
X76084900Y-92509706D01*
X76084900Y-91657919D01*
X76402400Y-91657919D01*
X76403408Y-91810292D01*
X76406219Y-91942744D01*
X76410516Y-92047886D01*
X76415979Y-92118333D01*
X76422290Y-92146696D01*
X76423490Y-92146763D01*
X76445044Y-92120315D01*
X76484931Y-92060538D01*
X76536150Y-91978133D01*
X76561628Y-91935511D01*
X76615639Y-91842548D01*
X76660293Y-91762925D01*
X76666896Y-91750400D01*
X76930811Y-91750400D01*
X76983829Y-91832950D01*
X77012182Y-91879500D01*
X77060750Y-91961760D01*
X77124652Y-92071271D01*
X77199007Y-92199574D01*
X77278935Y-92338210D01*
X77359556Y-92478720D01*
X77435987Y-92612645D01*
X77503350Y-92731526D01*
X77541465Y-92799418D01*
X77582330Y-92870976D01*
X77639225Y-92968529D01*
X77701924Y-93074585D01*
X77722642Y-93109300D01*
X77782380Y-93210560D01*
X77837046Y-93305758D01*
X77877696Y-93379231D01*
X77887698Y-93398373D01*
X77931141Y-93484246D01*
X77998076Y-93372973D01*
X78046189Y-93291717D01*
X78089817Y-93215975D01*
X78103655Y-93191176D01*
X78128242Y-93147662D01*
X78173658Y-93068525D01*
X78235120Y-92962015D01*
X78307846Y-92836379D01*
X78387051Y-92699867D01*
X78467954Y-92560727D01*
X78545770Y-92427208D01*
X78615718Y-92307558D01*
X78642885Y-92261237D01*
X78680001Y-92189794D01*
X78701164Y-92121058D01*
X78710667Y-92035738D01*
X78712735Y-91947250D01*
X78713800Y-91750400D01*
X76930811Y-91750400D01*
X76666896Y-91750400D01*
X76688669Y-91709100D01*
X76694109Y-91697077D01*
X76687607Y-91662581D01*
X76660826Y-91596104D01*
X76648896Y-91570857D01*
X76961200Y-91570857D01*
X76979178Y-91578938D01*
X77034698Y-91585183D01*
X77130138Y-91589651D01*
X77267877Y-91592398D01*
X77450293Y-91593484D01*
X77679764Y-91592964D01*
X77831150Y-91591983D01*
X78701100Y-91585300D01*
X78713800Y-91396446D01*
X78718189Y-91288077D01*
X78712715Y-91216764D01*
X78695887Y-91169456D01*
X78686272Y-91155146D01*
X78654274Y-91106808D01*
X78608540Y-91029796D01*
X78558790Y-90940496D01*
X78557230Y-90937600D01*
X78503106Y-90838844D01*
X78436034Y-90719300D01*
X78360458Y-90586588D01*
X78280825Y-90448327D01*
X78201581Y-90312138D01*
X78127171Y-90185641D01*
X78062043Y-90076455D01*
X78010642Y-89992200D01*
X77977413Y-89940496D01*
X77968663Y-89928868D01*
X77929584Y-89911260D01*
X77912015Y-89916168D01*
X77891763Y-89942996D01*
X77851087Y-90007239D01*
X77794189Y-90101882D01*
X77725277Y-90219908D01*
X77648553Y-90354303D01*
X77634739Y-90378800D01*
X77555532Y-90518918D01*
X77482237Y-90647452D01*
X77419439Y-90756450D01*
X77371722Y-90837963D01*
X77343670Y-90884039D01*
X77341849Y-90886800D01*
X77306290Y-90943892D01*
X77258861Y-91025301D01*
X77222721Y-91090000D01*
X77167170Y-91189574D01*
X77101751Y-91304065D01*
X77053745Y-91386373D01*
X77007996Y-91467484D01*
X76974914Y-91533116D01*
X76961254Y-91569805D01*
X76961200Y-91570857D01*
X76648896Y-91570857D01*
X76619740Y-91509157D01*
X76570325Y-91413250D01*
X76518554Y-91319892D01*
X76470403Y-91240592D01*
X76431846Y-91186862D01*
X76425785Y-91180169D01*
X76417683Y-91195794D01*
X76411090Y-91258012D01*
X76406211Y-91362633D01*
X76403252Y-91505467D01*
X76402400Y-91657919D01*
X76084900Y-91657919D01*
X76084900Y-90812710D01*
X76402400Y-90812710D01*
X76415247Y-90850295D01*
X76444589Y-90902175D01*
X76488868Y-90973767D01*
X76527139Y-91040457D01*
X76626724Y-91219376D01*
X76704935Y-91352343D01*
X76761835Y-91439462D01*
X76797489Y-91480834D01*
X76808454Y-91483913D01*
X76827442Y-91458511D01*
X76867347Y-91395678D01*
X76924074Y-91302195D01*
X76993521Y-91184843D01*
X77071591Y-91050406D01*
X77093100Y-91012960D01*
X77182580Y-90856869D01*
X77273355Y-90698609D01*
X77358767Y-90549779D01*
X77432161Y-90421978D01*
X77486326Y-90327763D01*
X77539462Y-90233695D01*
X77580058Y-90158451D01*
X77603331Y-90111118D01*
X77606536Y-90099400D01*
X77580236Y-90111172D01*
X77520603Y-90142531D01*
X77438223Y-90187537D01*
X77343685Y-90240252D01*
X77247576Y-90294736D01*
X77160483Y-90345050D01*
X77092995Y-90385256D01*
X77062800Y-90404399D01*
X77005703Y-90440043D01*
X76924289Y-90487530D01*
X76859600Y-90523678D01*
X76694506Y-90615898D01*
X76563240Y-90693223D01*
X76468952Y-90753663D01*
X76414792Y-90795225D01*
X76402400Y-90812710D01*
X76084900Y-90812710D01*
X76084900Y-90576433D01*
X76326200Y-90435434D01*
X76422898Y-90379123D01*
X76552656Y-90303840D01*
X76704499Y-90215937D01*
X76867447Y-90121769D01*
X77030526Y-90027688D01*
X77062800Y-90009091D01*
X77248490Y-89902114D01*
X77413068Y-89807300D01*
X78085402Y-89807300D01*
X78431351Y-90410624D01*
X78534897Y-90590458D01*
X78616605Y-90730207D01*
X78679371Y-90834156D01*
X78726089Y-90906593D01*
X78759654Y-90951804D01*
X78782961Y-90974075D01*
X78798906Y-90977693D01*
X78808749Y-90969424D01*
X78848372Y-90920220D01*
X78901067Y-90862293D01*
X78903462Y-90859820D01*
X79031800Y-90763458D01*
X79197525Y-90698381D01*
X79380534Y-90667387D01*
X79478330Y-90658062D01*
X79536980Y-90646868D01*
X79755200Y-90646868D01*
X79778448Y-90652471D01*
X79839594Y-90656522D01*
X79925742Y-90658193D01*
X79931749Y-90658200D01*
X80138183Y-90669378D01*
X80306665Y-90705929D01*
X80442859Y-90772379D01*
X80552427Y-90873252D01*
X80641032Y-91013073D01*
X80714337Y-91196368D01*
X80748392Y-91310743D01*
X80782223Y-91432794D01*
X80809668Y-91514219D01*
X80838309Y-91563236D01*
X80875725Y-91588060D01*
X80929498Y-91596910D01*
X81007207Y-91598001D01*
X81013393Y-91598000D01*
X81103958Y-91594167D01*
X81161672Y-91583728D01*
X81177600Y-91571442D01*
X81177347Y-91570665D01*
X81494739Y-91570665D01*
X81495168Y-91572711D01*
X81523291Y-91580065D01*
X81588161Y-91585008D01*
X81675744Y-91586469D01*
X81675882Y-91586468D01*
X81847372Y-91585300D01*
X81927335Y-91318600D01*
X81975644Y-91163951D01*
X82017097Y-91048994D01*
X82056368Y-90963946D01*
X82098132Y-90899023D01*
X82147063Y-90844445D01*
X82159582Y-90832549D01*
X82242379Y-90765331D01*
X82329139Y-90718867D01*
X82432793Y-90688864D01*
X82566272Y-90671030D01*
X82666181Y-90664379D01*
X82926620Y-90651087D01*
X82854307Y-90521293D01*
X82803441Y-90430741D01*
X82753220Y-90342511D01*
X82730173Y-90302600D01*
X82691471Y-90235399D01*
X82639054Y-90143357D01*
X82584017Y-90045960D01*
X82582026Y-90042419D01*
X82534730Y-89961356D01*
X82496245Y-89900963D01*
X82473539Y-89872038D01*
X82471362Y-89870969D01*
X82451623Y-89891032D01*
X82419076Y-89941629D01*
X82405342Y-89966050D01*
X82376078Y-90018548D01*
X82326221Y-90106474D01*
X82260665Y-90221314D01*
X82184308Y-90354552D01*
X82102045Y-90497674D01*
X82018773Y-90642166D01*
X81939388Y-90779514D01*
X81868786Y-90901203D01*
X81811863Y-90998719D01*
X81795526Y-91026500D01*
X81751281Y-91102753D01*
X81716330Y-91165207D01*
X81702546Y-91191600D01*
X81681067Y-91231108D01*
X81641226Y-91299880D01*
X81591183Y-91383855D01*
X81585209Y-91393742D01*
X81538831Y-91474089D01*
X81506710Y-91536967D01*
X81494739Y-91570665D01*
X81177347Y-91570665D01*
X81172305Y-91555229D01*
X81155358Y-91519876D01*
X81125161Y-91462548D01*
X81080119Y-91380409D01*
X81018636Y-91270624D01*
X80939115Y-91130358D01*
X80839960Y-90956775D01*
X80719576Y-90747040D01*
X80576366Y-90498317D01*
X80456815Y-90291062D01*
X80383597Y-90165131D01*
X80318062Y-90054152D01*
X80264835Y-89965819D01*
X80228538Y-89907823D01*
X80214875Y-89888515D01*
X80188487Y-89891023D01*
X80157832Y-89932102D01*
X80132912Y-89977708D01*
X80088157Y-90057226D01*
X80029251Y-90160641D01*
X79961881Y-90277940D01*
X79939350Y-90316968D01*
X79874031Y-90430705D01*
X79818908Y-90528102D01*
X79778490Y-90601078D01*
X79757290Y-90641550D01*
X79755200Y-90646868D01*
X79536980Y-90646868D01*
X79538992Y-90646484D01*
X79576043Y-90626600D01*
X79603005Y-90592353D01*
X79621559Y-90559463D01*
X79652221Y-90504670D01*
X79702473Y-90416681D01*
X79766205Y-90306121D01*
X79837309Y-90183616D01*
X79864198Y-90137500D01*
X80056975Y-89807300D01*
X79964484Y-89806010D01*
X80370322Y-89806010D01*
X80377934Y-89831986D01*
X80409221Y-89896102D01*
X80461325Y-89993179D01*
X80531387Y-90118039D01*
X80616549Y-90265503D01*
X80713951Y-90430391D01*
X80726971Y-90452181D01*
X80782496Y-90547412D01*
X80842159Y-90653272D01*
X80865737Y-90696300D01*
X80908643Y-90774437D01*
X80945199Y-90838970D01*
X80960765Y-90865075D01*
X80984326Y-90904297D01*
X81026244Y-90975758D01*
X81079604Y-91067626D01*
X81114100Y-91127386D01*
X81192689Y-91263584D01*
X81249864Y-91361754D01*
X81289387Y-91427991D01*
X81315024Y-91468390D01*
X81330537Y-91489043D01*
X81339690Y-91496045D01*
X81342012Y-91496400D01*
X81357678Y-91475884D01*
X81391067Y-91421522D01*
X81435625Y-91344089D01*
X81446319Y-91324950D01*
X81510112Y-91212130D01*
X81583873Y-91084537D01*
X81648120Y-90975700D01*
X81708936Y-90873209D01*
X81768969Y-90770445D01*
X81815930Y-90688459D01*
X81818658Y-90683600D01*
X81853006Y-90622942D01*
X81906929Y-90528500D01*
X81974587Y-90410471D01*
X82050134Y-90279054D01*
X82102425Y-90188300D01*
X82322164Y-89807300D01*
X81723402Y-89803191D01*
X82633742Y-89803191D01*
X82642038Y-89827708D01*
X82672166Y-89887961D01*
X82719915Y-89976068D01*
X82781079Y-90084145D01*
X82814028Y-90140905D01*
X82886114Y-90264515D01*
X82953098Y-90380114D01*
X83008813Y-90477011D01*
X83047094Y-90544512D01*
X83055170Y-90559100D01*
X83082825Y-90605673D01*
X83111793Y-90634105D01*
X83155553Y-90650388D01*
X83227581Y-90660514D01*
X83297298Y-90666747D01*
X83492483Y-90701550D01*
X83656197Y-90769108D01*
X83783568Y-90867216D01*
X83811605Y-90899296D01*
X83857723Y-90952961D01*
X83891377Y-90984706D01*
X83898943Y-90988399D01*
X83915814Y-90967353D01*
X83953685Y-90908545D01*
X84008618Y-90818468D01*
X84076673Y-90703617D01*
X84153910Y-90570483D01*
X84178343Y-90527844D01*
X84262546Y-90380481D01*
X84342956Y-90239762D01*
X84414408Y-90114723D01*
X84471739Y-90014401D01*
X84509785Y-89947831D01*
X84513417Y-89941478D01*
X84550694Y-89871884D01*
X84572687Y-89822080D01*
X84575358Y-89805692D01*
X84548352Y-89803105D01*
X84477328Y-89800826D01*
X84369069Y-89798864D01*
X84230354Y-89797229D01*
X84067965Y-89795927D01*
X83888681Y-89794970D01*
X83699285Y-89794364D01*
X83506555Y-89794118D01*
X83317273Y-89794243D01*
X83138220Y-89794745D01*
X82976176Y-89795635D01*
X82837921Y-89796920D01*
X82730237Y-89798609D01*
X82659904Y-89800712D01*
X82633742Y-89803191D01*
X81723402Y-89803191D01*
X81352254Y-89800644D01*
X81135333Y-89799462D01*
X80934695Y-89798958D01*
X80755932Y-89799102D01*
X80604640Y-89799864D01*
X80486412Y-89801212D01*
X80406842Y-89803117D01*
X80371523Y-89805547D01*
X80370322Y-89806010D01*
X79964484Y-89806010D01*
X79563187Y-89800413D01*
X79361453Y-89798455D01*
X79131624Y-89797609D01*
X78896105Y-89797876D01*
X78677298Y-89799254D01*
X78577401Y-89800413D01*
X78085402Y-89807300D01*
X77413068Y-89807300D01*
X77458753Y-89780981D01*
X77675907Y-89655878D01*
X77743738Y-89616800D01*
X78425280Y-89616800D01*
X79242640Y-89616800D01*
X80340432Y-89616800D01*
X81330516Y-89616800D01*
X81549163Y-89616259D01*
X81751075Y-89614717D01*
X81930805Y-89612294D01*
X82082906Y-89609111D01*
X82201933Y-89605287D01*
X82282437Y-89600943D01*
X82318973Y-89596199D01*
X82320600Y-89594944D01*
X82320308Y-89594206D01*
X82629633Y-89594206D01*
X82651896Y-89599984D01*
X82719717Y-89605147D01*
X82827853Y-89609547D01*
X82971065Y-89613035D01*
X83144111Y-89615463D01*
X83341750Y-89616683D01*
X83428356Y-89616800D01*
X84235545Y-89616800D01*
X84122622Y-89545734D01*
X84071907Y-89515118D01*
X83984364Y-89463666D01*
X83867345Y-89395613D01*
X83728205Y-89315194D01*
X83574295Y-89226644D01*
X83412970Y-89134198D01*
X83251583Y-89042093D01*
X83097487Y-88954564D01*
X83029839Y-88916305D01*
X83014288Y-88934685D01*
X82979106Y-88988273D01*
X82929627Y-89068032D01*
X82871185Y-89164927D01*
X82809115Y-89269923D01*
X82748751Y-89373984D01*
X82695426Y-89468076D01*
X82654475Y-89543161D01*
X82631233Y-89590205D01*
X82629633Y-89594206D01*
X82320308Y-89594206D01*
X82307453Y-89561751D01*
X82274678Y-89505791D01*
X82262285Y-89486994D01*
X82222932Y-89424834D01*
X82168998Y-89334393D01*
X82110166Y-89232019D01*
X82090935Y-89197700D01*
X82037769Y-89102637D01*
X81991703Y-89021194D01*
X81959925Y-88966041D01*
X81952400Y-88953494D01*
X81925381Y-88907388D01*
X81886060Y-88837420D01*
X81866072Y-88801094D01*
X81822318Y-88723329D01*
X81764052Y-88622850D01*
X81703253Y-88520291D01*
X81698208Y-88511900D01*
X81637211Y-88409498D01*
X81577099Y-88306805D01*
X81530157Y-88224821D01*
X81527346Y-88219800D01*
X81478581Y-88133275D01*
X81663668Y-88133275D01*
X81665215Y-88141722D01*
X81673212Y-88159841D01*
X81690426Y-88192609D01*
X81719622Y-88244998D01*
X81763568Y-88321984D01*
X81825031Y-88428540D01*
X81906775Y-88569642D01*
X81998534Y-88727800D01*
X82084150Y-88875812D01*
X82169555Y-89024292D01*
X82248080Y-89161588D01*
X82313056Y-89276045D01*
X82351015Y-89343724D01*
X82400926Y-89431116D01*
X82441972Y-89498354D01*
X82467914Y-89535422D01*
X82473000Y-89539591D01*
X82489148Y-89518301D01*
X82525450Y-89460155D01*
X82577390Y-89372701D01*
X82640449Y-89263491D01*
X82681058Y-89191877D01*
X82747146Y-89072164D01*
X82802157Y-88967876D01*
X82842089Y-88886978D01*
X82862944Y-88837434D01*
X82864700Y-88826164D01*
X82839901Y-88808112D01*
X82778014Y-88769354D01*
X82686177Y-88714181D01*
X82571528Y-88646881D01*
X82442795Y-88572652D01*
X82297209Y-88489078D01*
X82152597Y-88405484D01*
X82020451Y-88328555D01*
X81912264Y-88264976D01*
X81853253Y-88229766D01*
X81770082Y-88180985D01*
X81705271Y-88145714D01*
X81669456Y-88129640D01*
X81665804Y-88129528D01*
X81663668Y-88133275D01*
X81478581Y-88133275D01*
X81461255Y-88102534D01*
X81414467Y-88023013D01*
X81382243Y-87974230D01*
X81359840Y-87949177D01*
X81342521Y-87940850D01*
X81338428Y-87940560D01*
X81323400Y-87949618D01*
X81298503Y-87979551D01*
X81261266Y-88034323D01*
X81209217Y-88117897D01*
X81139883Y-88234234D01*
X81050794Y-88387299D01*
X80945483Y-88570559D01*
X80918305Y-88617949D01*
X80881289Y-88682312D01*
X80831380Y-88768948D01*
X80765523Y-88883157D01*
X80680664Y-89030239D01*
X80573748Y-89215492D01*
X80562027Y-89235800D01*
X80502080Y-89339506D01*
X80446117Y-89436060D01*
X80402755Y-89510603D01*
X80388920Y-89534250D01*
X80340432Y-89616800D01*
X79242640Y-89616800D01*
X79440580Y-89616231D01*
X79621209Y-89614618D01*
X79778538Y-89612101D01*
X79906578Y-89608819D01*
X79999340Y-89604912D01*
X80050834Y-89600520D01*
X80059435Y-89597750D01*
X80044797Y-89566222D01*
X80010259Y-89516558D01*
X80009200Y-89515200D01*
X79974406Y-89466414D01*
X79958998Y-89436318D01*
X79958964Y-89435866D01*
X79946548Y-89408930D01*
X79913472Y-89348119D01*
X79865273Y-89263082D01*
X79807487Y-89163471D01*
X79745649Y-89058935D01*
X79688280Y-88963997D01*
X79654064Y-88908095D01*
X79495082Y-88997936D01*
X79412901Y-89045098D01*
X79347182Y-89084137D01*
X79311512Y-89106970D01*
X79310700Y-89107589D01*
X79274925Y-89130725D01*
X79211917Y-89167711D01*
X79171000Y-89190736D01*
X79106304Y-89227042D01*
X79009609Y-89281873D01*
X78892931Y-89348393D01*
X78768287Y-89419762D01*
X78740990Y-89435435D01*
X78425280Y-89616800D01*
X77743738Y-89616800D01*
X77882267Y-89536994D01*
X78040700Y-89445720D01*
X78202122Y-89352657D01*
X78367128Y-89257410D01*
X78524138Y-89166671D01*
X78661572Y-89087132D01*
X78767850Y-89025488D01*
X78777300Y-89019995D01*
X79006720Y-88886874D01*
X79084134Y-88842100D01*
X79806972Y-88842100D01*
X79818910Y-88873527D01*
X79851800Y-88937561D01*
X79899977Y-89023538D01*
X79935166Y-89083400D01*
X79999679Y-89193158D01*
X80062107Y-89302604D01*
X80112395Y-89393990D01*
X80127640Y-89423037D01*
X80165871Y-89487311D01*
X80197833Y-89522770D01*
X80212374Y-89524637D01*
X80230327Y-89497466D01*
X80269966Y-89432236D01*
X80327736Y-89334971D01*
X80400079Y-89211698D01*
X80483441Y-89068442D01*
X80570193Y-88918300D01*
X80663776Y-88755748D01*
X80752256Y-88601967D01*
X80831464Y-88464212D01*
X80897231Y-88349734D01*
X80945388Y-88265788D01*
X80969523Y-88223573D01*
X81032423Y-88113047D01*
X80905955Y-88185473D01*
X80644651Y-88335364D01*
X80424785Y-88462061D01*
X80243511Y-88567265D01*
X80097984Y-88652676D01*
X79985359Y-88719993D01*
X79902790Y-88770917D01*
X79847433Y-88807147D01*
X79816443Y-88830384D01*
X79806972Y-88842100D01*
X79084134Y-88842100D01*
X79268314Y-88735577D01*
X79550085Y-88573020D01*
X79840034Y-88406121D01*
X80126167Y-88241796D01*
X80263200Y-88163250D01*
X80413652Y-88076767D01*
X80562639Y-87990580D01*
X80699410Y-87910948D01*
X80813210Y-87844131D01*
X80891417Y-87797522D01*
X80976415Y-87746928D01*
X81043727Y-87708394D01*
X81082503Y-87688072D01*
X81087385Y-87686399D01*
X81113824Y-87673889D01*
X81169158Y-87641619D01*
X81219529Y-87610365D01*
X81291213Y-87567740D01*
X81336922Y-87551223D01*
X81371830Y-87557132D01*
G37*
X81371830Y-87557132D02*
X81391861Y-87568566D01*
X81429882Y-87591742D01*
X81504025Y-87635567D01*
X81606353Y-87695401D01*
X81728929Y-87766602D01*
X81863400Y-87844290D01*
X82017551Y-87933167D01*
X82177755Y-88025628D01*
X82330535Y-88113889D01*
X82462414Y-88190164D01*
X82536500Y-88233082D01*
X82646711Y-88296865D01*
X82787021Y-88377871D01*
X82943462Y-88468046D01*
X83102067Y-88559337D01*
X83196900Y-88613848D01*
X83338558Y-88695322D01*
X83511727Y-88795070D01*
X83703953Y-88905909D01*
X83902785Y-89020659D01*
X84095770Y-89132138D01*
X84187500Y-89185170D01*
X84347624Y-89277759D01*
X84496846Y-89364012D01*
X84628419Y-89440033D01*
X84735596Y-89501925D01*
X84811631Y-89545790D01*
X84847900Y-89566658D01*
X84892410Y-89592286D01*
X84973063Y-89638863D01*
X85082043Y-89701871D01*
X85211536Y-89776792D01*
X85353730Y-89859109D01*
X85394000Y-89882429D01*
X85565894Y-89981916D01*
X85753195Y-90090211D01*
X85940579Y-90198462D01*
X86112727Y-90297816D01*
X86238652Y-90370402D01*
X86613404Y-90586234D01*
X86600500Y-96685044D01*
X86359200Y-96824817D01*
X86083320Y-96984584D01*
X85847845Y-97120864D01*
X85649250Y-97235685D01*
X85484014Y-97331074D01*
X85348612Y-97409059D01*
X85239521Y-97471668D01*
X85153217Y-97520929D01*
X85086178Y-97558868D01*
X85034880Y-97587514D01*
X85013000Y-97599551D01*
X84935403Y-97642831D01*
X84874763Y-97678220D01*
X84847900Y-97695487D01*
X84818642Y-97713899D01*
X84752758Y-97753181D01*
X84657705Y-97808956D01*
X84540939Y-97876848D01*
X84416100Y-97948923D01*
X84280548Y-98026938D01*
X84154724Y-98099374D01*
X84047473Y-98161138D01*
X83967640Y-98207135D01*
X83927150Y-98230494D01*
X83867337Y-98265054D01*
X83808041Y-98299300D01*
X83742896Y-98336905D01*
X83665533Y-98381541D01*
X83569586Y-98436883D01*
X83448688Y-98506602D01*
X83296471Y-98594373D01*
X83108000Y-98703042D01*
X82839476Y-98857870D01*
X82610952Y-98989649D01*
X82418415Y-99100698D01*
X82257854Y-99193338D01*
X82125256Y-99269886D01*
X82016608Y-99332664D01*
X81927899Y-99383990D01*
X81855116Y-99426185D01*
X81794248Y-99461567D01*
X81741280Y-99492457D01*
X81692203Y-99521174D01*
X81647500Y-99547397D01*
X81551302Y-99603580D01*
X81466596Y-99652526D01*
X81406612Y-99686609D01*
X81391520Y-99694902D01*
X81363296Y-99703474D01*
X81325934Y-99698764D01*
X81271160Y-99677474D01*
X81190702Y-99636310D01*
X81076286Y-99571976D01*
X81061320Y-99563371D01*
X80769157Y-99395124D01*
X80517168Y-99249966D01*
X80301486Y-99125667D01*
X80118247Y-99019997D01*
X79963582Y-98930725D01*
X79833626Y-98855622D01*
X79724512Y-98792458D01*
X79691700Y-98773437D01*
X79582993Y-98710537D01*
X79443710Y-98630159D01*
X79287350Y-98540081D01*
X79127413Y-98448082D01*
X79073250Y-98416971D01*
X79806000Y-98416971D01*
X79826741Y-98440032D01*
X79882844Y-98481185D01*
X79965130Y-98534095D01*
X80040950Y-98579089D01*
X80148402Y-98640917D01*
X80284989Y-98719712D01*
X80435917Y-98806928D01*
X80586392Y-98894021D01*
X80644200Y-98927523D01*
X80766259Y-98998162D01*
X80871786Y-99058983D01*
X80953479Y-99105799D01*
X81004040Y-99134422D01*
X81017140Y-99141432D01*
X81007823Y-99121099D01*
X80978977Y-99066372D01*
X80935887Y-98987181D01*
X80912559Y-98944950D01*
X80855661Y-98843038D01*
X80801335Y-98746814D01*
X80759213Y-98673310D01*
X80750964Y-98659200D01*
X80678938Y-98536135D01*
X80598222Y-98396926D01*
X80516446Y-98254854D01*
X80441241Y-98123201D01*
X80380238Y-98015248D01*
X80356944Y-97973400D01*
X80308118Y-97888504D01*
X80261786Y-97813817D01*
X80235612Y-97775901D01*
X80191368Y-97718102D01*
X80154980Y-97788601D01*
X80093522Y-97903726D01*
X80020378Y-98034927D01*
X79946720Y-98162549D01*
X79883719Y-98266933D01*
X79877496Y-98276822D01*
X79836909Y-98345771D01*
X79811003Y-98399088D01*
X79806000Y-98416971D01*
X79073250Y-98416971D01*
X79018600Y-98385581D01*
X78885990Y-98309260D01*
X78767934Y-98240926D01*
X78671761Y-98184851D01*
X78604800Y-98145309D01*
X78574381Y-98126576D01*
X78574100Y-98126372D01*
X78539534Y-98104926D01*
X78475319Y-98068008D01*
X78409000Y-98031130D01*
X78347043Y-97996492D01*
X78249993Y-97941427D01*
X78126689Y-97871014D01*
X77985968Y-97790333D01*
X77836669Y-97704462D01*
X77752494Y-97655900D01*
X78434405Y-97655900D01*
X78669352Y-97790153D01*
X78776881Y-97851755D01*
X78913550Y-97930285D01*
X79064537Y-98017214D01*
X79215021Y-98104014D01*
X79272350Y-98137132D01*
X79395260Y-98207026D01*
X79502793Y-98266006D01*
X79587368Y-98310088D01*
X79641401Y-98335287D01*
X79657275Y-98339428D01*
X79677710Y-98313550D01*
X79714728Y-98256017D01*
X79758178Y-98182949D01*
X79806382Y-98099035D01*
X79847907Y-98026523D01*
X79870933Y-97986100D01*
X79899223Y-97937240D01*
X79942907Y-97863012D01*
X79980987Y-97798872D01*
X80021745Y-97726584D01*
X80047338Y-97673455D01*
X80051508Y-97655900D01*
X80348028Y-97655900D01*
X80575784Y-98049600D01*
X80657265Y-98191094D01*
X80737011Y-98330728D01*
X80808555Y-98457097D01*
X80865432Y-98558797D01*
X80892623Y-98608400D01*
X80940639Y-98694968D01*
X80983023Y-98767145D01*
X81011065Y-98810134D01*
X81012211Y-98811600D01*
X81039722Y-98852723D01*
X81081820Y-98922981D01*
X81126570Y-99002100D01*
X81203859Y-99140208D01*
X81262393Y-99236775D01*
X81306475Y-99295523D01*
X81340410Y-99320173D01*
X81368502Y-99314451D01*
X81395054Y-99282077D01*
X81412890Y-99249750D01*
X81450476Y-99179617D01*
X81467834Y-99148783D01*
X81655605Y-99148783D01*
X81740452Y-99097470D01*
X81786503Y-99070297D01*
X81869177Y-99022196D01*
X81981010Y-98957481D01*
X82114539Y-98880468D01*
X82262302Y-98795470D01*
X82346000Y-98747417D01*
X82492880Y-98663049D01*
X82624499Y-98587260D01*
X82734641Y-98523643D01*
X82817088Y-98475796D01*
X82865623Y-98447312D01*
X82876007Y-98440913D01*
X82867285Y-98417411D01*
X82837210Y-98357378D01*
X82789753Y-98268319D01*
X82728889Y-98157739D01*
X82681550Y-98073518D01*
X82605859Y-97940483D01*
X82550824Y-97846485D01*
X82512213Y-97786270D01*
X82485797Y-97754587D01*
X82467348Y-97746184D01*
X82452635Y-97755808D01*
X82440189Y-97773792D01*
X82412538Y-97819628D01*
X82366442Y-97897893D01*
X82308721Y-97996944D01*
X82256241Y-98087700D01*
X82183576Y-98213678D01*
X82096801Y-98363915D01*
X82007293Y-98518722D01*
X81933330Y-98646500D01*
X81863732Y-98767480D01*
X81798938Y-98881606D01*
X81745514Y-98977215D01*
X81710024Y-99042645D01*
X81706188Y-99050041D01*
X81655605Y-99148783D01*
X81467834Y-99148783D01*
X81495128Y-99100301D01*
X81500526Y-99091000D01*
X81554271Y-98998596D01*
X81621868Y-98882060D01*
X81698427Y-98749857D01*
X81779059Y-98610451D01*
X81858873Y-98472303D01*
X81932980Y-98343880D01*
X81996490Y-98233643D01*
X82044513Y-98150057D01*
X82072161Y-98101586D01*
X82072828Y-98100400D01*
X82109522Y-98037137D01*
X82137681Y-97992013D01*
X82141848Y-97986100D01*
X82170508Y-97941325D01*
X82208317Y-97874133D01*
X82248340Y-97798070D01*
X82283642Y-97726678D01*
X82307286Y-97673503D01*
X82311429Y-97657510D01*
X82625400Y-97657510D01*
X82637211Y-97683588D01*
X82669161Y-97743673D01*
X82716021Y-97828611D01*
X82772566Y-97929249D01*
X82833566Y-98036431D01*
X82893796Y-98141004D01*
X82948027Y-98233814D01*
X82991032Y-98305706D01*
X83017585Y-98347526D01*
X83023345Y-98354400D01*
X83046985Y-98342250D01*
X83107275Y-98308534D01*
X83197023Y-98257347D01*
X83309041Y-98192789D01*
X83419230Y-98128809D01*
X83566627Y-98043150D01*
X83718884Y-97955016D01*
X83862286Y-97872323D01*
X83983115Y-97802989D01*
X84035100Y-97773349D01*
X84263700Y-97643480D01*
X83444550Y-97643340D01*
X83246352Y-97643732D01*
X83065432Y-97644910D01*
X82907776Y-97646771D01*
X82779374Y-97649210D01*
X82686212Y-97652124D01*
X82634279Y-97655409D01*
X82625400Y-97657510D01*
X82311429Y-97657510D01*
X82312777Y-97652310D01*
X82286077Y-97650316D01*
X82214134Y-97648798D01*
X82102501Y-97647774D01*
X81956733Y-97647260D01*
X81782383Y-97647274D01*
X81585005Y-97647833D01*
X81370155Y-97648954D01*
X81325545Y-97649248D01*
X80348028Y-97655900D01*
X80051508Y-97655900D01*
X80052326Y-97652460D01*
X80025428Y-97650223D01*
X79953878Y-97648577D01*
X79843819Y-97647546D01*
X79701396Y-97647155D01*
X79532753Y-97647429D01*
X79344035Y-97648392D01*
X79238373Y-97649187D01*
X78434405Y-97655900D01*
X77752494Y-97655900D01*
X77687631Y-97618480D01*
X77547693Y-97537469D01*
X77425694Y-97466505D01*
X77410667Y-97457719D01*
X78115311Y-97457719D01*
X78128067Y-97466497D01*
X78161707Y-97473668D01*
X78220377Y-97479372D01*
X78308221Y-97483748D01*
X78429384Y-97486938D01*
X78588010Y-97489080D01*
X78788246Y-97490316D01*
X79034234Y-97490785D01*
X79094002Y-97490800D01*
X80338095Y-97490800D01*
X82345132Y-97490800D01*
X82595856Y-97490800D01*
X83556778Y-97490411D01*
X83773766Y-97489769D01*
X83975396Y-97488112D01*
X84155876Y-97485565D01*
X84309412Y-97482257D01*
X84430213Y-97478316D01*
X84512485Y-97473870D01*
X84550436Y-97469046D01*
X84551724Y-97468456D01*
X84562891Y-97460501D01*
X84568977Y-97449681D01*
X84567511Y-97431067D01*
X84556020Y-97399731D01*
X84532034Y-97350743D01*
X84493080Y-97279173D01*
X84436687Y-97180093D01*
X84360383Y-97048572D01*
X84261697Y-96879683D01*
X84225431Y-96817700D01*
X84138876Y-96669428D01*
X84053295Y-96522210D01*
X83975019Y-96386985D01*
X83910383Y-96274691D01*
X83868811Y-96201750D01*
X83819935Y-96117514D01*
X83780300Y-96053525D01*
X83756416Y-96020139D01*
X83753027Y-96017600D01*
X83725648Y-96030065D01*
X83676616Y-96059925D01*
X83614440Y-96092556D01*
X83528452Y-96128259D01*
X83480733Y-96145049D01*
X83424216Y-96164829D01*
X83381442Y-96186896D01*
X83344496Y-96219918D01*
X83305461Y-96272562D01*
X83256422Y-96353496D01*
X83200414Y-96451974D01*
X83121892Y-96589981D01*
X83025837Y-96757035D01*
X82920725Y-96938542D01*
X82815028Y-97119909D01*
X82717221Y-97286545D01*
X82645100Y-97408250D01*
X82595856Y-97490800D01*
X82345132Y-97490800D01*
X82298261Y-97408250D01*
X82268434Y-97356327D01*
X82219145Y-97271194D01*
X82156572Y-97163492D01*
X82086892Y-97043868D01*
X82066417Y-97008774D01*
X81996215Y-96888341D01*
X81931707Y-96777404D01*
X81878944Y-96686384D01*
X81843975Y-96625705D01*
X81837914Y-96615074D01*
X81798260Y-96546150D01*
X81748402Y-96460779D01*
X81726711Y-96424000D01*
X81678439Y-96340469D01*
X81634470Y-96261152D01*
X81619850Y-96233500D01*
X81580661Y-96157300D01*
X81339414Y-96159698D01*
X81098168Y-96162096D01*
X80887831Y-96527998D01*
X80804192Y-96673253D01*
X80716931Y-96824389D01*
X80634558Y-96966688D01*
X80565589Y-97085431D01*
X80543974Y-97122500D01*
X80483783Y-97226308D01*
X80429734Y-97320875D01*
X80389306Y-97393049D01*
X80374275Y-97420950D01*
X80338095Y-97490800D01*
X79094002Y-97490800D01*
X79309883Y-97490452D01*
X79508961Y-97489463D01*
X79685721Y-97487910D01*
X79834650Y-97485871D01*
X79950234Y-97483425D01*
X80026958Y-97480650D01*
X80059309Y-97477623D01*
X80060000Y-97477104D01*
X80047915Y-97451501D01*
X80014599Y-97389961D01*
X79964460Y-97300402D01*
X79901905Y-97190743D01*
X79865613Y-97127854D01*
X79788336Y-96994241D01*
X79711308Y-96860675D01*
X79642214Y-96740513D01*
X79588744Y-96647109D01*
X79577408Y-96627200D01*
X79491643Y-96476378D01*
X79426429Y-96363557D01*
X79376964Y-96282713D01*
X79338444Y-96227826D01*
X79306069Y-96192873D01*
X79275036Y-96171833D01*
X79272560Y-96170889D01*
X79517348Y-96170889D01*
X79518324Y-96201073D01*
X79541870Y-96261008D01*
X79582912Y-96337830D01*
X79583770Y-96339271D01*
X79749934Y-96620982D01*
X79918698Y-96912539D01*
X80061872Y-97164594D01*
X80117399Y-97262462D01*
X80163000Y-97341032D01*
X80193531Y-97391557D01*
X80203827Y-97405894D01*
X80217319Y-97383712D01*
X80251503Y-97325585D01*
X80301674Y-97239565D01*
X80363126Y-97133701D01*
X80384317Y-97097100D01*
X80466851Y-96954461D01*
X80563160Y-96788015D01*
X80661577Y-96617927D01*
X80750435Y-96464358D01*
X80754840Y-96456745D01*
X80822176Y-96339122D01*
X80879377Y-96236819D01*
X80922016Y-96157941D01*
X80945671Y-96110592D01*
X80946783Y-96107433D01*
X81711017Y-96107433D01*
X81770304Y-96195866D01*
X81814334Y-96265472D01*
X81869518Y-96358015D01*
X81916346Y-96440021D01*
X82008507Y-96604388D01*
X82101071Y-96767552D01*
X82190552Y-96923558D01*
X82273466Y-97066450D01*
X82346330Y-97190274D01*
X82405659Y-97289074D01*
X82447969Y-97356896D01*
X82469776Y-97387783D01*
X82471574Y-97389039D01*
X82492229Y-97369222D01*
X82525499Y-97320386D01*
X82533816Y-97306489D01*
X82566026Y-97250715D01*
X82615880Y-97163672D01*
X82675984Y-97058290D01*
X82726123Y-96970100D01*
X82802898Y-96835493D01*
X82891814Y-96680577D01*
X82979345Y-96528881D01*
X83025151Y-96449917D01*
X83083955Y-96345848D01*
X83130535Y-96257652D01*
X83160294Y-96194460D01*
X83168635Y-96165406D01*
X83168503Y-96165151D01*
X83138114Y-96148556D01*
X83078393Y-96131946D01*
X83067018Y-96129683D01*
X82984170Y-96094759D01*
X82892967Y-96026392D01*
X82806224Y-95937321D01*
X82736756Y-95840281D01*
X82703006Y-95767862D01*
X82668068Y-95662000D01*
X82097295Y-95662000D01*
X82015392Y-95789635D01*
X81946680Y-95881951D01*
X81863776Y-95973585D01*
X81822253Y-96012352D01*
X81711017Y-96107433D01*
X80946783Y-96107433D01*
X80948999Y-96101145D01*
X80930821Y-96074590D01*
X80884921Y-96030819D01*
X80859121Y-96009387D01*
X80795243Y-95947873D01*
X80724150Y-95863918D01*
X80677726Y-95799837D01*
X80586207Y-95662000D01*
X80016101Y-95662000D01*
X79974247Y-95771593D01*
X79917405Y-95876201D01*
X79833479Y-95978503D01*
X79736765Y-96063908D01*
X79641562Y-96117827D01*
X79631568Y-96121282D01*
X79565661Y-96145561D01*
X79521537Y-96167634D01*
X79517348Y-96170889D01*
X79272560Y-96170889D01*
X79240543Y-96158685D01*
X79197788Y-96147407D01*
X79194012Y-96146442D01*
X79106468Y-96117078D01*
X79029651Y-96079918D01*
X79006799Y-96064569D01*
X78955613Y-96034081D01*
X78919134Y-96029061D01*
X78918019Y-96029670D01*
X78895439Y-96057438D01*
X78855550Y-96119137D01*
X78805143Y-96203977D01*
X78777078Y-96253570D01*
X78723476Y-96349318D01*
X78677181Y-96431010D01*
X78645146Y-96486419D01*
X78636808Y-96500200D01*
X78614461Y-96537521D01*
X78573576Y-96607656D01*
X78520736Y-96699265D01*
X78481986Y-96766900D01*
X78407984Y-96896063D01*
X78325264Y-97039903D01*
X78248377Y-97173133D01*
X78226991Y-97210069D01*
X78174959Y-97305164D01*
X78136403Y-97386012D01*
X78116370Y-97441421D01*
X78115311Y-97457719D01*
X77410667Y-97457719D01*
X77380300Y-97439964D01*
X77336052Y-97414236D01*
X77255479Y-97367579D01*
X77146266Y-97304435D01*
X77016098Y-97229246D01*
X76872660Y-97146456D01*
X76821500Y-97116942D01*
X76671145Y-97030100D01*
X76527579Y-96946972D01*
X76399505Y-96872612D01*
X76295625Y-96812076D01*
X76224644Y-96770418D01*
X76211900Y-96762855D01*
X76084900Y-96687143D01*
X76084900Y-96456521D01*
X76409623Y-96456521D01*
X76410381Y-96458963D01*
X76436951Y-96485746D01*
X76497251Y-96529317D01*
X76580429Y-96582107D01*
X76622303Y-96606780D01*
X76714468Y-96659840D01*
X76837671Y-96730785D01*
X76978932Y-96812139D01*
X77125273Y-96896427D01*
X77202500Y-96940912D01*
X77327957Y-97012604D01*
X77438181Y-97074496D01*
X77525655Y-97122457D01*
X77582865Y-97152354D01*
X77601890Y-97160493D01*
X77599801Y-97140947D01*
X77576072Y-97089901D01*
X77540976Y-97027250D01*
X77505023Y-96966137D01*
X77448615Y-96869446D01*
X77376652Y-96745613D01*
X77294037Y-96603079D01*
X77205671Y-96450283D01*
X77166985Y-96383284D01*
X77080788Y-96234354D01*
X77001052Y-96097390D01*
X76931944Y-95979485D01*
X76877630Y-95887731D01*
X76842276Y-95829224D01*
X76832733Y-95814241D01*
X76815148Y-95791162D01*
X76798537Y-95784303D01*
X76777646Y-95799411D01*
X76747220Y-95842233D01*
X76702007Y-95918518D01*
X76644597Y-96020057D01*
X76581245Y-96131338D01*
X76522079Y-96232781D01*
X76474178Y-96312395D01*
X76446842Y-96355051D01*
X76416696Y-96412377D01*
X76409623Y-96456521D01*
X76084900Y-96456521D01*
X76084900Y-95597000D01*
X76402400Y-95597000D01*
X76402976Y-95749597D01*
X76404582Y-95883215D01*
X76407034Y-95990167D01*
X76410149Y-96062764D01*
X76413743Y-96093315D01*
X76414269Y-96093800D01*
X76431136Y-96073293D01*
X76467703Y-96017733D01*
X76518266Y-95936057D01*
X76566669Y-95855017D01*
X76623572Y-95757319D01*
X76651771Y-95707720D01*
X76961200Y-95707720D01*
X76974351Y-95760860D01*
X76986648Y-95778888D01*
X77006913Y-95808245D01*
X77047716Y-95874308D01*
X77104575Y-95969573D01*
X77173008Y-96086536D01*
X77243800Y-96209418D01*
X77320974Y-96344290D01*
X77392308Y-96468867D01*
X77452802Y-96574425D01*
X77497457Y-96652238D01*
X77519603Y-96690700D01*
X77556664Y-96754910D01*
X77606349Y-96841209D01*
X77643935Y-96906600D01*
X77690193Y-96986407D01*
X77729061Y-97052171D01*
X77748817Y-97084400D01*
X77775748Y-97129763D01*
X77813771Y-97197906D01*
X77827946Y-97224100D01*
X77886004Y-97316291D01*
X77935288Y-97359532D01*
X77951800Y-97363322D01*
X77968154Y-97342582D01*
X78004806Y-97285227D01*
X78057088Y-97198887D01*
X78120337Y-97091191D01*
X78155000Y-97031048D01*
X78232593Y-96895585D01*
X78311328Y-96758125D01*
X78383037Y-96632932D01*
X78439550Y-96534267D01*
X78449562Y-96516786D01*
X78510979Y-96410023D01*
X78585300Y-96281505D01*
X78659750Y-96153310D01*
X78685823Y-96108576D01*
X78745201Y-96005017D01*
X78781627Y-95934180D01*
X78798680Y-95885464D01*
X78799939Y-95848271D01*
X78788985Y-95812000D01*
X78787333Y-95807962D01*
X78771469Y-95769565D01*
X78755488Y-95738563D01*
X78734173Y-95714166D01*
X78702303Y-95695583D01*
X78654662Y-95682027D01*
X78586031Y-95672705D01*
X78491190Y-95666829D01*
X78364922Y-95663609D01*
X78202009Y-95662255D01*
X77997231Y-95661977D01*
X77822985Y-95662000D01*
X77590830Y-95662130D01*
X77404468Y-95662698D01*
X77258896Y-95663970D01*
X77149106Y-95666211D01*
X77070094Y-95669686D01*
X77016854Y-95674661D01*
X76984380Y-95681402D01*
X76967667Y-95690174D01*
X76961709Y-95701243D01*
X76961200Y-95707720D01*
X76651771Y-95707720D01*
X76669416Y-95676685D01*
X76698915Y-95622538D01*
X76707200Y-95604503D01*
X76695101Y-95574990D01*
X76674685Y-95535662D01*
X76932378Y-95535662D01*
X78701100Y-95522300D01*
X78708451Y-95329186D01*
X78710904Y-95241020D01*
X78707399Y-95175507D01*
X78693561Y-95117933D01*
X78665014Y-95053588D01*
X78617383Y-94967758D01*
X78583816Y-94910086D01*
X78534513Y-94825555D01*
X78489496Y-94748035D01*
X78444031Y-94669273D01*
X78393387Y-94581019D01*
X78332829Y-94475019D01*
X78257627Y-94343022D01*
X78163046Y-94176777D01*
X78140994Y-94138000D01*
X78083004Y-94037918D01*
X78029586Y-93949064D01*
X77988746Y-93884612D01*
X77975208Y-93865207D01*
X77951247Y-93836993D01*
X77929915Y-93827862D01*
X77905485Y-93843220D01*
X77872230Y-93888474D01*
X77824424Y-93969030D01*
X77778156Y-94051251D01*
X77735717Y-94126372D01*
X77673223Y-94235940D01*
X77596117Y-94370464D01*
X77509841Y-94520454D01*
X77419839Y-94676420D01*
X77393364Y-94722200D01*
X77304176Y-94876715D01*
X77217964Y-95026770D01*
X77139952Y-95163224D01*
X77075359Y-95276935D01*
X77029409Y-95358762D01*
X77019571Y-95376581D01*
X76932378Y-95535662D01*
X76674685Y-95535662D01*
X76663193Y-95513527D01*
X76618056Y-95431569D01*
X76566273Y-95340572D01*
X76514423Y-95251992D01*
X76469090Y-95177285D01*
X76436853Y-95127908D01*
X76425794Y-95114660D01*
X76417857Y-95133911D01*
X76411298Y-95198771D01*
X76406371Y-95304063D01*
X76403325Y-95444609D01*
X76402400Y-95597000D01*
X76084900Y-95597000D01*
X76084900Y-93706200D01*
X76402400Y-93706200D01*
X76402400Y-94752435D01*
X76475560Y-94883367D01*
X76571765Y-95054890D01*
X76646762Y-95186539D01*
X76703697Y-95283024D01*
X76745718Y-95349053D01*
X76775971Y-95389332D01*
X76797602Y-95408571D01*
X76813760Y-95411478D01*
X76824540Y-95405476D01*
X76854810Y-95368068D01*
X76859600Y-95351660D01*
X76872982Y-95315188D01*
X76905302Y-95261283D01*
X76906524Y-95259521D01*
X76944592Y-95200004D01*
X76993861Y-95116775D01*
X77030085Y-95052400D01*
X77077485Y-94967550D01*
X77140348Y-94857122D01*
X77208301Y-94739278D01*
X77240447Y-94684100D01*
X77304892Y-94573408D01*
X77367330Y-94465268D01*
X77418409Y-94375915D01*
X77437971Y-94341200D01*
X77483316Y-94261760D01*
X77542796Y-94159933D01*
X77604130Y-94056728D01*
X77608714Y-94049100D01*
X77665579Y-93953080D01*
X77717518Y-93862825D01*
X77754503Y-93795797D01*
X77758181Y-93788750D01*
X77795810Y-93715700D01*
X78078800Y-93715700D01*
X78090517Y-93744012D01*
X78120098Y-93800928D01*
X78159188Y-93871540D01*
X78199430Y-93940943D01*
X78232468Y-93994229D01*
X78244328Y-94011000D01*
X78271091Y-94051464D01*
X78312921Y-94122059D01*
X78361093Y-94208030D01*
X78364454Y-94214200D01*
X78432229Y-94337385D01*
X78501309Y-94460391D01*
X78567061Y-94575259D01*
X78624852Y-94674029D01*
X78670049Y-94748742D01*
X78698021Y-94791439D01*
X78704478Y-94798400D01*
X78707215Y-94774222D01*
X78709635Y-94706579D01*
X78711612Y-94602803D01*
X78713021Y-94470230D01*
X78713736Y-94316191D01*
X78713800Y-94252300D01*
X78713800Y-93706200D01*
X78396300Y-93706200D01*
X78276020Y-93706912D01*
X78176647Y-93708856D01*
X78107799Y-93711745D01*
X78079094Y-93715290D01*
X78078800Y-93715700D01*
X77795810Y-93715700D01*
X77800704Y-93706200D01*
X76402400Y-93706200D01*
X76084900Y-93706200D01*
X76084900Y-92509706D01*
X76402400Y-92509706D01*
X76402400Y-93553800D01*
X77803206Y-93553800D01*
X77792135Y-93534750D01*
X78079364Y-93534750D01*
X78102936Y-93541965D01*
X78167709Y-93547926D01*
X78264090Y-93552057D01*
X78382483Y-93553782D01*
X78396300Y-93553800D01*
X78713800Y-93553800D01*
X78713800Y-93003466D01*
X78713786Y-92998460D01*
X78894551Y-92998460D01*
X78895052Y-93290223D01*
X78896118Y-93584619D01*
X78897728Y-93876990D01*
X78899865Y-94162678D01*
X78902509Y-94437025D01*
X78905642Y-94695372D01*
X78909244Y-94933062D01*
X78913297Y-95145435D01*
X78917781Y-95327834D01*
X78922679Y-95475600D01*
X78927970Y-95584076D01*
X78933636Y-95648603D01*
X78936426Y-95662432D01*
X78999578Y-95784826D01*
X79092567Y-95885986D01*
X79202019Y-95951601D01*
X79209100Y-95954194D01*
X79305953Y-95982833D01*
X79385149Y-95988385D01*
X79473923Y-95971533D01*
X79508200Y-95961701D01*
X79639213Y-95897025D01*
X79741853Y-95792568D01*
X79811012Y-95653709D01*
X79816050Y-95637599D01*
X79824194Y-95605450D01*
X79831191Y-95565382D01*
X79834670Y-95535000D01*
X80034600Y-95535000D01*
X80288600Y-95535000D01*
X80411019Y-95533295D01*
X80489584Y-95527583D01*
X80531147Y-95516965D01*
X80542600Y-95501683D01*
X80536383Y-95462745D01*
X80519873Y-95388914D01*
X80496279Y-95294271D01*
X80489046Y-95266733D01*
X80467064Y-95182569D01*
X80435389Y-95059402D01*
X80396642Y-94907514D01*
X80353441Y-94737188D01*
X80308408Y-94558706D01*
X80288994Y-94481460D01*
X80142494Y-93897821D01*
X80088642Y-93986160D01*
X80072996Y-94013927D01*
X80060710Y-94044049D01*
X80051379Y-94082688D01*
X80044597Y-94136011D01*
X80039957Y-94210180D01*
X80037052Y-94311361D01*
X80035477Y-94445717D01*
X80034826Y-94619413D01*
X80034694Y-94804750D01*
X80034600Y-95535000D01*
X79834670Y-95535000D01*
X79837119Y-95513613D01*
X79842059Y-95446364D01*
X79846091Y-95359852D01*
X79849295Y-95250298D01*
X79851752Y-95113919D01*
X79853541Y-94946935D01*
X79854743Y-94745566D01*
X79855437Y-94506029D01*
X79855704Y-94224545D01*
X79855624Y-93897332D01*
X79855532Y-93774589D01*
X79855509Y-93718900D01*
X80034600Y-93718900D01*
X80047300Y-93731600D01*
X80060000Y-93718900D01*
X80047300Y-93706200D01*
X80034600Y-93718900D01*
X79855509Y-93718900D01*
X79855409Y-93483372D01*
X79855536Y-93207353D01*
X79855895Y-92950687D01*
X79856469Y-92717528D01*
X79857240Y-92512029D01*
X79858190Y-92338346D01*
X79859303Y-92200632D01*
X79860561Y-92103042D01*
X79861947Y-92049729D01*
X79862788Y-92040745D01*
X79870428Y-92062940D01*
X79889163Y-92129930D01*
X79917827Y-92237214D01*
X79955253Y-92380288D01*
X80000276Y-92554651D01*
X80051729Y-92755799D01*
X80108446Y-92979231D01*
X80169261Y-93220444D01*
X80197421Y-93332661D01*
X80295092Y-93721965D01*
X80381436Y-94064968D01*
X80457259Y-94364699D01*
X80523369Y-94624184D01*
X80580576Y-94846454D01*
X80629685Y-95034535D01*
X80671507Y-95191455D01*
X80706847Y-95320244D01*
X80736515Y-95423929D01*
X80761318Y-95505538D01*
X80782064Y-95568099D01*
X80799561Y-95614641D01*
X80814617Y-95648191D01*
X80815863Y-95650643D01*
X80913146Y-95792674D01*
X81037516Y-95898002D01*
X81162290Y-95954743D01*
X81245603Y-95978362D01*
X81305431Y-95988960D01*
X81363018Y-95987138D01*
X81439608Y-95973500D01*
X81484865Y-95963898D01*
X81625566Y-95908901D01*
X81749864Y-95812105D01*
X81848248Y-95682043D01*
X81886037Y-95604026D01*
X81902948Y-95553146D01*
X81915444Y-95510738D01*
X82125981Y-95510738D01*
X82141044Y-95523715D01*
X82181627Y-95531043D01*
X82256227Y-95534283D01*
X82369688Y-95535000D01*
X82625400Y-95535000D01*
X82625400Y-94797138D01*
X82625028Y-94577234D01*
X82623722Y-94402326D01*
X82621199Y-94266612D01*
X82617173Y-94164292D01*
X82611361Y-94089566D01*
X82603477Y-94036634D01*
X82593237Y-93999693D01*
X82585427Y-93981978D01*
X82556706Y-93932830D01*
X82538286Y-93912902D01*
X82536958Y-93913389D01*
X82528593Y-93939460D01*
X82509814Y-94007751D01*
X82482477Y-94111187D01*
X82448443Y-94242694D01*
X82409566Y-94395195D01*
X82387940Y-94480900D01*
X82316506Y-94764333D01*
X82256822Y-94999760D01*
X82208544Y-95188513D01*
X82171329Y-95331925D01*
X82144834Y-95431329D01*
X82128716Y-95488057D01*
X82127941Y-95490550D01*
X82125981Y-95510738D01*
X81915444Y-95510738D01*
X81930054Y-95461158D01*
X81965198Y-95336225D01*
X82006223Y-95186514D01*
X82050973Y-95020190D01*
X82097290Y-94845420D01*
X82143018Y-94670369D01*
X82185999Y-94503202D01*
X82224078Y-94352086D01*
X82255097Y-94225186D01*
X82276900Y-94130669D01*
X82283322Y-94099900D01*
X82294543Y-94051441D01*
X82315002Y-93970308D01*
X82340564Y-93872834D01*
X82344373Y-93858600D01*
X82375942Y-93739116D01*
X82408354Y-93613600D01*
X82432981Y-93515700D01*
X82449199Y-93450378D01*
X82475770Y-93344038D01*
X82510628Y-93204921D01*
X82551705Y-93041265D01*
X82596935Y-92861312D01*
X82643195Y-92677500D01*
X82815900Y-91991700D01*
X82828600Y-93807800D01*
X82831007Y-94108093D01*
X82833898Y-94394284D01*
X82837192Y-94662200D01*
X82840811Y-94907668D01*
X82844675Y-95126514D01*
X82848704Y-95314567D01*
X82852820Y-95467652D01*
X82856943Y-95581598D01*
X82860993Y-95652231D01*
X82864106Y-95674700D01*
X82949229Y-95812525D01*
X83058594Y-95910670D01*
X83184764Y-95967404D01*
X83320302Y-95981001D01*
X83457772Y-95949729D01*
X83580882Y-95877087D01*
X83854329Y-95877087D01*
X83932014Y-96009727D01*
X83971579Y-96077544D01*
X84030208Y-96178375D01*
X84101535Y-96301258D01*
X84179196Y-96435230D01*
X84225600Y-96515365D01*
X84302293Y-96647829D01*
X84374755Y-96772923D01*
X84437150Y-96880578D01*
X84483642Y-96960724D01*
X84502242Y-96992731D01*
X84596081Y-97155845D01*
X84666424Y-97282241D01*
X84679545Y-97306650D01*
X84716059Y-97355352D01*
X84752804Y-97355382D01*
X84784650Y-97325397D01*
X84819112Y-97276084D01*
X84857410Y-97211195D01*
X84857611Y-97210824D01*
X84882558Y-97166163D01*
X84889887Y-97153283D01*
X85079645Y-97153283D01*
X85083156Y-97160600D01*
X85114947Y-97147940D01*
X85174196Y-97115318D01*
X85224809Y-97084400D01*
X85292318Y-97042724D01*
X85340587Y-97015046D01*
X85355901Y-97008200D01*
X85380680Y-96996027D01*
X85440417Y-96962799D01*
X85526418Y-96913446D01*
X85629991Y-96852902D01*
X85640769Y-96846547D01*
X85768524Y-96771375D01*
X85901788Y-96693325D01*
X86022948Y-96622695D01*
X86098850Y-96578727D01*
X86182987Y-96528214D01*
X86246900Y-96486023D01*
X86280274Y-96459114D01*
X86282832Y-96454629D01*
X86269874Y-96423416D01*
X86238267Y-96370085D01*
X86231982Y-96360500D01*
X86199122Y-96307643D01*
X86148910Y-96222792D01*
X86088621Y-96118383D01*
X86035299Y-96024281D01*
X85977129Y-95922610D01*
X85927524Y-95839508D01*
X85891842Y-95783710D01*
X85875595Y-95763931D01*
X85857653Y-95784318D01*
X85822472Y-95838632D01*
X85776934Y-95916096D01*
X85766280Y-95935050D01*
X85723082Y-96011678D01*
X85659132Y-96124017D01*
X85579160Y-96263828D01*
X85487897Y-96422876D01*
X85390075Y-96592924D01*
X85290423Y-96765736D01*
X85193674Y-96933075D01*
X85124343Y-97052650D01*
X85092467Y-97114194D01*
X85079645Y-97153283D01*
X84889887Y-97153283D01*
X84927505Y-97087176D01*
X84987173Y-96983012D01*
X85056282Y-96862818D01*
X85129554Y-96735743D01*
X85201710Y-96610935D01*
X85267472Y-96497543D01*
X85321559Y-96404714D01*
X85358694Y-96341596D01*
X85370265Y-96322400D01*
X85394222Y-96281450D01*
X85433861Y-96211493D01*
X85478253Y-96131900D01*
X85543298Y-96014885D01*
X85589923Y-95932545D01*
X85624017Y-95874949D01*
X85651471Y-95832165D01*
X85678174Y-95794261D01*
X85679750Y-95792104D01*
X85704319Y-95758116D01*
X85720364Y-95730571D01*
X85723546Y-95708802D01*
X85709526Y-95692146D01*
X85673966Y-95679935D01*
X85612526Y-95671506D01*
X85520869Y-95666192D01*
X85394654Y-95663328D01*
X85229544Y-95662249D01*
X85021200Y-95662289D01*
X84835635Y-95662650D01*
X83947070Y-95664412D01*
X83900699Y-95770749D01*
X83854329Y-95877087D01*
X83580882Y-95877087D01*
X83589738Y-95871862D01*
X83615985Y-95849491D01*
X83688219Y-95769893D01*
X83729939Y-95680333D01*
X83743178Y-95628608D01*
X83748335Y-95586972D01*
X85970270Y-95586972D01*
X85979724Y-95616378D01*
X86009486Y-95677284D01*
X86053271Y-95758789D01*
X86104791Y-95849994D01*
X86157761Y-95939998D01*
X86205892Y-96017900D01*
X86242899Y-96072800D01*
X86262495Y-96093798D01*
X86262575Y-96093800D01*
X86268753Y-96069661D01*
X86274181Y-96002291D01*
X86278558Y-95899254D01*
X86281581Y-95768117D01*
X86282950Y-95616444D01*
X86283000Y-95580719D01*
X86281905Y-95405822D01*
X86278755Y-95265407D01*
X86273747Y-95163627D01*
X86267081Y-95104637D01*
X86259614Y-95091769D01*
X86238838Y-95121711D01*
X86200109Y-95184104D01*
X86150232Y-95267300D01*
X86096014Y-95359651D01*
X86044259Y-95449508D01*
X86001775Y-95525224D01*
X85975367Y-95575151D01*
X85970270Y-95586972D01*
X83748335Y-95586972D01*
X83748751Y-95583620D01*
X83751544Y-95536188D01*
X83971600Y-95536188D01*
X84834478Y-95534335D01*
X85038818Y-95533281D01*
X85226667Y-95531128D01*
X85392069Y-95528038D01*
X85529067Y-95524170D01*
X85631707Y-95519684D01*
X85694032Y-95514740D01*
X85710774Y-95510774D01*
X85704906Y-95477890D01*
X85673499Y-95407576D01*
X85619078Y-95304745D01*
X85544169Y-95174308D01*
X85498810Y-95098605D01*
X85472922Y-95054801D01*
X85426750Y-94975554D01*
X85365290Y-94869484D01*
X85293540Y-94745211D01*
X85228900Y-94632938D01*
X85152436Y-94500078D01*
X85082163Y-94378200D01*
X85023052Y-94275913D01*
X84980078Y-94201823D01*
X84960062Y-94167632D01*
X84924540Y-94106332D01*
X84877695Y-94023628D01*
X84849370Y-93972900D01*
X84808496Y-93899550D01*
X84777127Y-93843852D01*
X84765323Y-93823394D01*
X84743773Y-93822194D01*
X84704697Y-93862916D01*
X84647105Y-93946895D01*
X84570011Y-94075467D01*
X84541594Y-94125300D01*
X84487992Y-94219736D01*
X84441865Y-94300182D01*
X84410334Y-94354251D01*
X84402853Y-94366600D01*
X84380048Y-94404842D01*
X84337287Y-94478258D01*
X84279740Y-94577872D01*
X84212575Y-94694703D01*
X84140960Y-94819775D01*
X84070063Y-94944108D01*
X84044610Y-94988900D01*
X84007368Y-95061173D01*
X83985512Y-95127298D01*
X83975077Y-95205706D01*
X83972096Y-95314828D01*
X83972060Y-95326044D01*
X83971600Y-95536188D01*
X83751544Y-95536188D01*
X83753505Y-95502914D01*
X83757457Y-95384834D01*
X83760619Y-95227724D01*
X83763007Y-95029927D01*
X83764636Y-94789787D01*
X83765521Y-94505650D01*
X83765675Y-94175858D01*
X83765115Y-93798756D01*
X83764842Y-93706200D01*
X83971600Y-93706200D01*
X83972786Y-94811100D01*
X84042043Y-94690377D01*
X84082119Y-94620650D01*
X84139832Y-94520407D01*
X84207416Y-94403128D01*
X84276136Y-94283977D01*
X84347688Y-94159732D01*
X84418743Y-94035936D01*
X84480828Y-93927379D01*
X84523544Y-93852250D01*
X84595576Y-93724841D01*
X84886094Y-93724841D01*
X84898454Y-93756947D01*
X84929185Y-93813313D01*
X84941202Y-93833200D01*
X84971924Y-93884310D01*
X85022578Y-93970224D01*
X85087764Y-94081710D01*
X85162080Y-94209537D01*
X85223575Y-94315800D01*
X85301276Y-94450260D01*
X85374004Y-94575956D01*
X85436366Y-94683579D01*
X85482970Y-94763821D01*
X85505018Y-94801594D01*
X85539162Y-94860566D01*
X85590929Y-94950971D01*
X85652999Y-95059991D01*
X85711500Y-95163212D01*
X85771005Y-95266701D01*
X85821796Y-95351759D01*
X85858645Y-95409859D01*
X85876323Y-95432473D01*
X85876600Y-95432520D01*
X85893949Y-95411885D01*
X85929635Y-95356860D01*
X85977309Y-95277454D01*
X86001229Y-95236002D01*
X86065956Y-95121646D01*
X86133903Y-95000272D01*
X86191768Y-94895658D01*
X86198623Y-94883124D01*
X86284088Y-94726549D01*
X86277194Y-94222724D01*
X86270300Y-93718900D01*
X85578150Y-93712141D01*
X85396604Y-93711052D01*
X85232864Y-93711381D01*
X85093442Y-93713010D01*
X84984850Y-93715818D01*
X84913599Y-93719686D01*
X84886202Y-93724495D01*
X84886094Y-93724841D01*
X84595576Y-93724841D01*
X84606115Y-93706200D01*
X83971600Y-93706200D01*
X83764842Y-93706200D01*
X83763854Y-93372689D01*
X83763682Y-93325200D01*
X83762674Y-93020400D01*
X83971600Y-93020400D01*
X83971600Y-93553800D01*
X84610743Y-93553800D01*
X84604703Y-93543767D01*
X84886000Y-93543767D01*
X84910319Y-93546388D01*
X84978953Y-93548752D01*
X85085418Y-93550769D01*
X85223228Y-93552344D01*
X85385901Y-93553384D01*
X85566950Y-93553796D01*
X85584500Y-93553800D01*
X86283000Y-93553800D01*
X86283000Y-93030671D01*
X86282590Y-92852004D01*
X86280974Y-92716833D01*
X86277571Y-92617857D01*
X86271801Y-92547775D01*
X86263084Y-92499286D01*
X86250839Y-92465089D01*
X86236062Y-92440121D01*
X86201005Y-92385003D01*
X86151857Y-92301841D01*
X86098486Y-92207384D01*
X86091616Y-92194900D01*
X86035470Y-92094217D01*
X85979581Y-91996765D01*
X85935466Y-91922609D01*
X85933169Y-91918894D01*
X85872231Y-91820688D01*
X85662258Y-92185594D01*
X85581903Y-92325217D01*
X85484387Y-92494624D01*
X85377905Y-92679580D01*
X85270652Y-92865850D01*
X85170824Y-93039198D01*
X85169142Y-93042117D01*
X85087346Y-93184568D01*
X85014813Y-93311710D01*
X84955152Y-93417147D01*
X84911973Y-93494485D01*
X84888885Y-93537327D01*
X84886000Y-93543767D01*
X84604703Y-93543767D01*
X84561043Y-93471250D01*
X84523877Y-93408492D01*
X84465931Y-93309359D01*
X84391672Y-93181554D01*
X84305567Y-93032785D01*
X84212083Y-92870756D01*
X84115687Y-92703172D01*
X84104591Y-92683850D01*
X84053512Y-92596684D01*
X84012042Y-92529295D01*
X83986392Y-92491618D01*
X83981591Y-92487000D01*
X83978624Y-92511163D01*
X83976007Y-92578705D01*
X83973879Y-92682205D01*
X83972380Y-92814243D01*
X83971649Y-92967399D01*
X83971600Y-93020400D01*
X83762674Y-93020400D01*
X83762380Y-92931836D01*
X83761328Y-92586067D01*
X83760195Y-92284692D01*
X83758649Y-92024509D01*
X83758534Y-92013289D01*
X83971523Y-92013289D01*
X83973242Y-92065077D01*
X83979682Y-92112227D01*
X83993769Y-92161647D01*
X84018426Y-92220245D01*
X84056580Y-92294930D01*
X84111154Y-92392611D01*
X84185074Y-92520196D01*
X84281265Y-92684593D01*
X84286220Y-92693063D01*
X84318015Y-92747942D01*
X84368859Y-92836304D01*
X84432638Y-92947498D01*
X84503238Y-93070876D01*
X84530400Y-93118417D01*
X84597907Y-93233749D01*
X84657884Y-93330828D01*
X84705468Y-93402199D01*
X84735800Y-93440404D01*
X84743083Y-93444709D01*
X84768230Y-93420041D01*
X84806011Y-93366201D01*
X84823885Y-93336855D01*
X84881579Y-93237541D01*
X84956253Y-93108506D01*
X85039627Y-92964103D01*
X85123418Y-92818683D01*
X85199345Y-92686600D01*
X85240958Y-92614000D01*
X85288793Y-92530687D01*
X85354413Y-92416795D01*
X85430110Y-92285681D01*
X85508177Y-92150705D01*
X85529813Y-92113345D01*
X85597118Y-91996309D01*
X85654320Y-91895220D01*
X85697009Y-91817997D01*
X85720779Y-91772557D01*
X85724200Y-91764095D01*
X85699765Y-91760887D01*
X85630319Y-91757946D01*
X85521653Y-91755363D01*
X85379556Y-91753227D01*
X85209817Y-91751630D01*
X85018226Y-91750661D01*
X84847900Y-91750400D01*
X83971600Y-91750400D01*
X83971600Y-91949955D01*
X83971523Y-92013289D01*
X83758534Y-92013289D01*
X83756359Y-91802316D01*
X83753802Y-91659824D01*
X85977745Y-91659824D01*
X85978756Y-91692281D01*
X85993108Y-91723708D01*
X86003399Y-91740836D01*
X86037348Y-91797752D01*
X86086928Y-91882381D01*
X86142552Y-91978336D01*
X86153906Y-91998050D01*
X86203547Y-92082109D01*
X86243748Y-92146039D01*
X86267945Y-92179557D01*
X86271420Y-92182200D01*
X86274922Y-92158060D01*
X86277998Y-92090685D01*
X86280479Y-91987638D01*
X86282193Y-91856480D01*
X86282971Y-91704778D01*
X86283000Y-91668757D01*
X86282959Y-91483704D01*
X86281336Y-91346949D01*
X86275877Y-91255992D01*
X86264331Y-91208333D01*
X86244446Y-91201475D01*
X86213968Y-91232918D01*
X86170646Y-91300164D01*
X86112227Y-91400714D01*
X86084681Y-91448736D01*
X86027715Y-91548805D01*
X85993067Y-91615583D01*
X85977745Y-91659824D01*
X83753802Y-91659824D01*
X83752995Y-91614912D01*
X83748224Y-91459096D01*
X83741716Y-91331665D01*
X83737794Y-91284905D01*
X83957307Y-91284905D01*
X83961976Y-91380937D01*
X83970828Y-91467774D01*
X83979520Y-91535554D01*
X83984880Y-91564252D01*
X84011631Y-91572200D01*
X84081986Y-91579130D01*
X84188759Y-91585011D01*
X84324764Y-91589815D01*
X84482815Y-91593511D01*
X84655727Y-91596070D01*
X84836312Y-91597463D01*
X85017386Y-91597659D01*
X85191761Y-91596630D01*
X85352252Y-91594345D01*
X85491673Y-91590776D01*
X85602838Y-91585892D01*
X85678560Y-91579664D01*
X85711654Y-91572062D01*
X85712263Y-91571364D01*
X85712935Y-91531216D01*
X85703157Y-91514337D01*
X85683656Y-91484307D01*
X85643313Y-91417586D01*
X85586454Y-91321611D01*
X85517406Y-91203818D01*
X85440495Y-91071644D01*
X85360049Y-90932524D01*
X85280393Y-90793895D01*
X85205853Y-90663194D01*
X85140758Y-90547856D01*
X85138541Y-90543900D01*
X85072379Y-90427295D01*
X85000856Y-90303807D01*
X84929865Y-90183333D01*
X84887025Y-90111965D01*
X85081198Y-90111965D01*
X85096612Y-90160342D01*
X85120848Y-90207350D01*
X85155716Y-90268366D01*
X85209994Y-90362990D01*
X85279114Y-90483292D01*
X85358511Y-90621341D01*
X85443618Y-90769209D01*
X85529868Y-90918965D01*
X85612694Y-91062680D01*
X85687530Y-91192425D01*
X85749809Y-91300270D01*
X85794964Y-91378284D01*
X85815573Y-91413689D01*
X85850089Y-91467020D01*
X85874515Y-91495015D01*
X85877532Y-91496239D01*
X85894132Y-91475416D01*
X85931087Y-91417823D01*
X85983814Y-91330949D01*
X86047730Y-91222282D01*
X86089128Y-91150466D01*
X86155418Y-91031231D01*
X86209555Y-90927257D01*
X86247709Y-90846452D01*
X86266052Y-90796725D01*
X86265996Y-90785132D01*
X86239203Y-90767821D01*
X86175651Y-90729676D01*
X86082742Y-90674978D01*
X85967876Y-90608005D01*
X85838452Y-90533038D01*
X85701872Y-90454357D01*
X85565535Y-90376239D01*
X85436843Y-90302966D01*
X85323195Y-90238817D01*
X85267000Y-90207428D01*
X85196576Y-90166667D01*
X85143924Y-90133246D01*
X85128569Y-90121663D01*
X85092005Y-90097358D01*
X85081198Y-90111965D01*
X84887025Y-90111965D01*
X84865297Y-90075769D01*
X84813044Y-89991013D01*
X84778999Y-89938960D01*
X84775615Y-89934300D01*
X84737595Y-89883500D01*
X84698917Y-89934300D01*
X84656480Y-89997864D01*
X84627715Y-90048600D01*
X84599343Y-90100726D01*
X84553919Y-90180772D01*
X84500388Y-90273012D01*
X84490462Y-90289900D01*
X84380863Y-90476342D01*
X84293021Y-90626680D01*
X84222607Y-90748402D01*
X84165291Y-90848992D01*
X84116741Y-90935936D01*
X84115824Y-90937600D01*
X84066206Y-91026351D01*
X84019013Y-91108860D01*
X83993400Y-91152337D01*
X83966663Y-91212353D01*
X83957307Y-91284905D01*
X83737794Y-91284905D01*
X83733140Y-91229419D01*
X83722164Y-91149155D01*
X83708457Y-91087673D01*
X83691687Y-91041770D01*
X83671525Y-91008245D01*
X83647638Y-90983896D01*
X83619696Y-90965523D01*
X83587366Y-90949923D01*
X83550319Y-90933894D01*
X83514599Y-90917409D01*
X83460482Y-90891918D01*
X83411761Y-90873660D01*
X83358639Y-90861431D01*
X83291318Y-90854025D01*
X83199999Y-90850238D01*
X83074886Y-90848867D01*
X82955600Y-90848700D01*
X82748561Y-90851198D01*
X82585275Y-90861258D01*
X82458830Y-90882727D01*
X82362316Y-90919452D01*
X82288822Y-90975281D01*
X82231435Y-91054059D01*
X82183245Y-91159635D01*
X82137341Y-91295855D01*
X82134260Y-91305900D01*
X82103196Y-91408887D01*
X82076373Y-91500170D01*
X82058596Y-91563334D01*
X82056180Y-91572600D01*
X82042661Y-91624714D01*
X82019853Y-91711094D01*
X81991670Y-91816949D01*
X81977192Y-91871050D01*
X81918190Y-92091968D01*
X81855163Y-92329419D01*
X81793781Y-92561974D01*
X81739717Y-92768202D01*
X81736874Y-92779100D01*
X81715918Y-92858858D01*
X81684690Y-92976923D01*
X81646049Y-93122525D01*
X81602853Y-93284897D01*
X81557961Y-93453270D01*
X81551466Y-93477600D01*
X81507628Y-93642609D01*
X81466206Y-93800077D01*
X81429774Y-93940102D01*
X81400904Y-94052780D01*
X81382172Y-94128208D01*
X81379951Y-94137597D01*
X81365553Y-94197052D01*
X81353399Y-94232151D01*
X81340924Y-94238712D01*
X81325563Y-94212551D01*
X81304754Y-94149485D01*
X81275931Y-94045332D01*
X81240073Y-93909400D01*
X81202493Y-93766596D01*
X81161325Y-93610710D01*
X81123299Y-93467201D01*
X81109179Y-93414100D01*
X81074168Y-93282335D01*
X81036630Y-93140592D01*
X81003668Y-93015702D01*
X80998222Y-92995000D01*
X80903755Y-92635645D01*
X80830055Y-92355898D01*
X81026911Y-92355898D01*
X81065177Y-92503999D01*
X81093753Y-92612916D01*
X81124129Y-92726203D01*
X81138606Y-92779100D01*
X81169399Y-92891579D01*
X81209592Y-93040296D01*
X81255714Y-93212343D01*
X81304291Y-93394815D01*
X81306037Y-93401400D01*
X81325017Y-93468416D01*
X81337814Y-93491715D01*
X81350420Y-93476902D01*
X81360327Y-93452200D01*
X81381453Y-93384612D01*
X81402302Y-93300788D01*
X81405210Y-93287100D01*
X81420333Y-93221548D01*
X81445359Y-93121470D01*
X81476613Y-93001289D01*
X81505521Y-92893400D01*
X81552859Y-92719371D01*
X81587805Y-92586355D01*
X81610629Y-92486169D01*
X81621601Y-92410627D01*
X81620990Y-92351547D01*
X81609067Y-92300744D01*
X81586100Y-92250034D01*
X81552359Y-92191233D01*
X81529905Y-92153490D01*
X81473691Y-92057103D01*
X81423319Y-91968415D01*
X81387793Y-91903339D01*
X81382219Y-91892490D01*
X81353523Y-91846020D01*
X81332539Y-91843160D01*
X81323870Y-91854390D01*
X81302564Y-91890245D01*
X81261851Y-91958929D01*
X81208186Y-92049549D01*
X81164716Y-92122999D01*
X81026911Y-92355898D01*
X80830055Y-92355898D01*
X80821152Y-92322105D01*
X80749275Y-92051088D01*
X80686989Y-91819299D01*
X80672214Y-91765540D01*
X80872800Y-91765540D01*
X80879114Y-91795745D01*
X80895180Y-91858823D01*
X80916678Y-91938837D01*
X80939291Y-92019847D01*
X80958698Y-92085914D01*
X80964962Y-92105697D01*
X80983160Y-92110121D01*
X81018555Y-92068349D01*
X81050356Y-92016797D01*
X81099022Y-91932328D01*
X81143934Y-91854540D01*
X81163785Y-91820250D01*
X81173826Y-91802940D01*
X81497349Y-91802940D01*
X81530626Y-91857123D01*
X81546801Y-91877400D01*
X81576728Y-91922454D01*
X81616111Y-91992159D01*
X81633612Y-92025911D01*
X81667575Y-92087380D01*
X81692826Y-92122124D01*
X81700213Y-92125252D01*
X81711587Y-92096990D01*
X81731389Y-92032609D01*
X81755616Y-91945246D01*
X81759038Y-91932291D01*
X81806792Y-91750400D01*
X81645393Y-91750400D01*
X81550856Y-91754573D01*
X81502800Y-91770421D01*
X81497349Y-91802940D01*
X81173826Y-91802940D01*
X81204304Y-91750400D01*
X81038552Y-91750400D01*
X80954279Y-91752517D01*
X80894601Y-91758057D01*
X80872800Y-91765540D01*
X80672214Y-91765540D01*
X80633159Y-91623446D01*
X80586648Y-91460234D01*
X80546321Y-91326371D01*
X80511042Y-91218563D01*
X80479675Y-91133516D01*
X80451085Y-91067937D01*
X80424136Y-91018534D01*
X80397691Y-90982012D01*
X80370615Y-90955077D01*
X80341772Y-90934438D01*
X80310028Y-90916799D01*
X80275564Y-90899531D01*
X80231726Y-90880291D01*
X80183018Y-90866555D01*
X80120261Y-90857426D01*
X80034281Y-90852010D01*
X79915902Y-90849410D01*
X79755945Y-90848731D01*
X79755200Y-90848731D01*
X79560406Y-90850666D01*
X79408311Y-90857622D01*
X79290924Y-90871281D01*
X79200252Y-90893321D01*
X79128305Y-90925423D01*
X79067092Y-90969265D01*
X79033707Y-91000385D01*
X78982628Y-91059944D01*
X78949687Y-91125329D01*
X78926489Y-91215449D01*
X78918549Y-91259707D01*
X78913122Y-91318149D01*
X78908429Y-91421148D01*
X78904451Y-91564046D01*
X78901170Y-91742186D01*
X78898567Y-91950908D01*
X78896622Y-92185555D01*
X78895317Y-92441468D01*
X78894633Y-92713989D01*
X78894551Y-92998460D01*
X78713786Y-92998460D01*
X78713347Y-92843219D01*
X78712079Y-92702305D01*
X78710134Y-92587843D01*
X78707647Y-92506953D01*
X78704755Y-92466754D01*
X78703452Y-92463716D01*
X78685762Y-92490965D01*
X78643794Y-92560985D01*
X78578367Y-92672379D01*
X78490302Y-92823752D01*
X78383887Y-93007700D01*
X78346183Y-93072393D01*
X78295749Y-93158169D01*
X78260148Y-93218367D01*
X78218048Y-93291919D01*
X78188933Y-93347679D01*
X78179835Y-93370767D01*
X78165230Y-93401459D01*
X78130758Y-93450714D01*
X78129600Y-93452200D01*
X78094709Y-93502059D01*
X78079388Y-93534329D01*
X78079364Y-93534750D01*
X77792135Y-93534750D01*
X77744153Y-93452193D01*
X77704384Y-93383594D01*
X77645517Y-93281827D01*
X77572529Y-93155519D01*
X77490396Y-93013293D01*
X77404097Y-92863776D01*
X77318609Y-92715592D01*
X77238908Y-92577366D01*
X77169971Y-92457724D01*
X77116776Y-92365291D01*
X77085471Y-92310738D01*
X77034317Y-92222325D01*
X76982928Y-92135107D01*
X76965473Y-92106000D01*
X76916302Y-92022241D01*
X76865495Y-91932191D01*
X76858480Y-91919388D01*
X76824808Y-91862402D01*
X76801644Y-91832074D01*
X76797057Y-91830488D01*
X76780493Y-91856186D01*
X76749292Y-91909394D01*
X76738587Y-91928200D01*
X76704891Y-91987200D01*
X76653457Y-92076572D01*
X76592089Y-92182776D01*
X76545357Y-92263403D01*
X76402400Y-92509706D01*
X76084900Y-92509706D01*
X76084900Y-91657919D01*
X76402400Y-91657919D01*
X76403408Y-91810292D01*
X76406219Y-91942744D01*
X76410516Y-92047886D01*
X76415979Y-92118333D01*
X76422290Y-92146696D01*
X76423490Y-92146763D01*
X76445044Y-92120315D01*
X76484931Y-92060538D01*
X76536150Y-91978133D01*
X76561628Y-91935511D01*
X76615639Y-91842548D01*
X76660293Y-91762925D01*
X76666896Y-91750400D01*
X76930811Y-91750400D01*
X76983829Y-91832950D01*
X77012182Y-91879500D01*
X77060750Y-91961760D01*
X77124652Y-92071271D01*
X77199007Y-92199574D01*
X77278935Y-92338210D01*
X77359556Y-92478720D01*
X77435987Y-92612645D01*
X77503350Y-92731526D01*
X77541465Y-92799418D01*
X77582330Y-92870976D01*
X77639225Y-92968529D01*
X77701924Y-93074585D01*
X77722642Y-93109300D01*
X77782380Y-93210560D01*
X77837046Y-93305758D01*
X77877696Y-93379231D01*
X77887698Y-93398373D01*
X77931141Y-93484246D01*
X77998076Y-93372973D01*
X78046189Y-93291717D01*
X78089817Y-93215975D01*
X78103655Y-93191176D01*
X78128242Y-93147662D01*
X78173658Y-93068525D01*
X78235120Y-92962015D01*
X78307846Y-92836379D01*
X78387051Y-92699867D01*
X78467954Y-92560727D01*
X78545770Y-92427208D01*
X78615718Y-92307558D01*
X78642885Y-92261237D01*
X78680001Y-92189794D01*
X78701164Y-92121058D01*
X78710667Y-92035738D01*
X78712735Y-91947250D01*
X78713800Y-91750400D01*
X76930811Y-91750400D01*
X76666896Y-91750400D01*
X76688669Y-91709100D01*
X76694109Y-91697077D01*
X76687607Y-91662581D01*
X76660826Y-91596104D01*
X76648896Y-91570857D01*
X76961200Y-91570857D01*
X76979178Y-91578938D01*
X77034698Y-91585183D01*
X77130138Y-91589651D01*
X77267877Y-91592398D01*
X77450293Y-91593484D01*
X77679764Y-91592964D01*
X77831150Y-91591983D01*
X78701100Y-91585300D01*
X78713800Y-91396446D01*
X78718189Y-91288077D01*
X78712715Y-91216764D01*
X78695887Y-91169456D01*
X78686272Y-91155146D01*
X78654274Y-91106808D01*
X78608540Y-91029796D01*
X78558790Y-90940496D01*
X78557230Y-90937600D01*
X78503106Y-90838844D01*
X78436034Y-90719300D01*
X78360458Y-90586588D01*
X78280825Y-90448327D01*
X78201581Y-90312138D01*
X78127171Y-90185641D01*
X78062043Y-90076455D01*
X78010642Y-89992200D01*
X77977413Y-89940496D01*
X77968663Y-89928868D01*
X77929584Y-89911260D01*
X77912015Y-89916168D01*
X77891763Y-89942996D01*
X77851087Y-90007239D01*
X77794189Y-90101882D01*
X77725277Y-90219908D01*
X77648553Y-90354303D01*
X77634739Y-90378800D01*
X77555532Y-90518918D01*
X77482237Y-90647452D01*
X77419439Y-90756450D01*
X77371722Y-90837963D01*
X77343670Y-90884039D01*
X77341849Y-90886800D01*
X77306290Y-90943892D01*
X77258861Y-91025301D01*
X77222721Y-91090000D01*
X77167170Y-91189574D01*
X77101751Y-91304065D01*
X77053745Y-91386373D01*
X77007996Y-91467484D01*
X76974914Y-91533116D01*
X76961254Y-91569805D01*
X76961200Y-91570857D01*
X76648896Y-91570857D01*
X76619740Y-91509157D01*
X76570325Y-91413250D01*
X76518554Y-91319892D01*
X76470403Y-91240592D01*
X76431846Y-91186862D01*
X76425785Y-91180169D01*
X76417683Y-91195794D01*
X76411090Y-91258012D01*
X76406211Y-91362633D01*
X76403252Y-91505467D01*
X76402400Y-91657919D01*
X76084900Y-91657919D01*
X76084900Y-90812710D01*
X76402400Y-90812710D01*
X76415247Y-90850295D01*
X76444589Y-90902175D01*
X76488868Y-90973767D01*
X76527139Y-91040457D01*
X76626724Y-91219376D01*
X76704935Y-91352343D01*
X76761835Y-91439462D01*
X76797489Y-91480834D01*
X76808454Y-91483913D01*
X76827442Y-91458511D01*
X76867347Y-91395678D01*
X76924074Y-91302195D01*
X76993521Y-91184843D01*
X77071591Y-91050406D01*
X77093100Y-91012960D01*
X77182580Y-90856869D01*
X77273355Y-90698609D01*
X77358767Y-90549779D01*
X77432161Y-90421978D01*
X77486326Y-90327763D01*
X77539462Y-90233695D01*
X77580058Y-90158451D01*
X77603331Y-90111118D01*
X77606536Y-90099400D01*
X77580236Y-90111172D01*
X77520603Y-90142531D01*
X77438223Y-90187537D01*
X77343685Y-90240252D01*
X77247576Y-90294736D01*
X77160483Y-90345050D01*
X77092995Y-90385256D01*
X77062800Y-90404399D01*
X77005703Y-90440043D01*
X76924289Y-90487530D01*
X76859600Y-90523678D01*
X76694506Y-90615898D01*
X76563240Y-90693223D01*
X76468952Y-90753663D01*
X76414792Y-90795225D01*
X76402400Y-90812710D01*
X76084900Y-90812710D01*
X76084900Y-90576433D01*
X76326200Y-90435434D01*
X76422898Y-90379123D01*
X76552656Y-90303840D01*
X76704499Y-90215937D01*
X76867447Y-90121769D01*
X77030526Y-90027688D01*
X77062800Y-90009091D01*
X77248490Y-89902114D01*
X77413068Y-89807300D01*
X78085402Y-89807300D01*
X78431351Y-90410624D01*
X78534897Y-90590458D01*
X78616605Y-90730207D01*
X78679371Y-90834156D01*
X78726089Y-90906593D01*
X78759654Y-90951804D01*
X78782961Y-90974075D01*
X78798906Y-90977693D01*
X78808749Y-90969424D01*
X78848372Y-90920220D01*
X78901067Y-90862293D01*
X78903462Y-90859820D01*
X79031800Y-90763458D01*
X79197525Y-90698381D01*
X79380534Y-90667387D01*
X79478330Y-90658062D01*
X79536980Y-90646868D01*
X79755200Y-90646868D01*
X79778448Y-90652471D01*
X79839594Y-90656522D01*
X79925742Y-90658193D01*
X79931749Y-90658200D01*
X80138183Y-90669378D01*
X80306665Y-90705929D01*
X80442859Y-90772379D01*
X80552427Y-90873252D01*
X80641032Y-91013073D01*
X80714337Y-91196368D01*
X80748392Y-91310743D01*
X80782223Y-91432794D01*
X80809668Y-91514219D01*
X80838309Y-91563236D01*
X80875725Y-91588060D01*
X80929498Y-91596910D01*
X81007207Y-91598001D01*
X81013393Y-91598000D01*
X81103958Y-91594167D01*
X81161672Y-91583728D01*
X81177600Y-91571442D01*
X81177347Y-91570665D01*
X81494739Y-91570665D01*
X81495168Y-91572711D01*
X81523291Y-91580065D01*
X81588161Y-91585008D01*
X81675744Y-91586469D01*
X81675882Y-91586468D01*
X81847372Y-91585300D01*
X81927335Y-91318600D01*
X81975644Y-91163951D01*
X82017097Y-91048994D01*
X82056368Y-90963946D01*
X82098132Y-90899023D01*
X82147063Y-90844445D01*
X82159582Y-90832549D01*
X82242379Y-90765331D01*
X82329139Y-90718867D01*
X82432793Y-90688864D01*
X82566272Y-90671030D01*
X82666181Y-90664379D01*
X82926620Y-90651087D01*
X82854307Y-90521293D01*
X82803441Y-90430741D01*
X82753220Y-90342511D01*
X82730173Y-90302600D01*
X82691471Y-90235399D01*
X82639054Y-90143357D01*
X82584017Y-90045960D01*
X82582026Y-90042419D01*
X82534730Y-89961356D01*
X82496245Y-89900963D01*
X82473539Y-89872038D01*
X82471362Y-89870969D01*
X82451623Y-89891032D01*
X82419076Y-89941629D01*
X82405342Y-89966050D01*
X82376078Y-90018548D01*
X82326221Y-90106474D01*
X82260665Y-90221314D01*
X82184308Y-90354552D01*
X82102045Y-90497674D01*
X82018773Y-90642166D01*
X81939388Y-90779514D01*
X81868786Y-90901203D01*
X81811863Y-90998719D01*
X81795526Y-91026500D01*
X81751281Y-91102753D01*
X81716330Y-91165207D01*
X81702546Y-91191600D01*
X81681067Y-91231108D01*
X81641226Y-91299880D01*
X81591183Y-91383855D01*
X81585209Y-91393742D01*
X81538831Y-91474089D01*
X81506710Y-91536967D01*
X81494739Y-91570665D01*
X81177347Y-91570665D01*
X81172305Y-91555229D01*
X81155358Y-91519876D01*
X81125161Y-91462548D01*
X81080119Y-91380409D01*
X81018636Y-91270624D01*
X80939115Y-91130358D01*
X80839960Y-90956775D01*
X80719576Y-90747040D01*
X80576366Y-90498317D01*
X80456815Y-90291062D01*
X80383597Y-90165131D01*
X80318062Y-90054152D01*
X80264835Y-89965819D01*
X80228538Y-89907823D01*
X80214875Y-89888515D01*
X80188487Y-89891023D01*
X80157832Y-89932102D01*
X80132912Y-89977708D01*
X80088157Y-90057226D01*
X80029251Y-90160641D01*
X79961881Y-90277940D01*
X79939350Y-90316968D01*
X79874031Y-90430705D01*
X79818908Y-90528102D01*
X79778490Y-90601078D01*
X79757290Y-90641550D01*
X79755200Y-90646868D01*
X79536980Y-90646868D01*
X79538992Y-90646484D01*
X79576043Y-90626600D01*
X79603005Y-90592353D01*
X79621559Y-90559463D01*
X79652221Y-90504670D01*
X79702473Y-90416681D01*
X79766205Y-90306121D01*
X79837309Y-90183616D01*
X79864198Y-90137500D01*
X80056975Y-89807300D01*
X79964484Y-89806010D01*
X80370322Y-89806010D01*
X80377934Y-89831986D01*
X80409221Y-89896102D01*
X80461325Y-89993179D01*
X80531387Y-90118039D01*
X80616549Y-90265503D01*
X80713951Y-90430391D01*
X80726971Y-90452181D01*
X80782496Y-90547412D01*
X80842159Y-90653272D01*
X80865737Y-90696300D01*
X80908643Y-90774437D01*
X80945199Y-90838970D01*
X80960765Y-90865075D01*
X80984326Y-90904297D01*
X81026244Y-90975758D01*
X81079604Y-91067626D01*
X81114100Y-91127386D01*
X81192689Y-91263584D01*
X81249864Y-91361754D01*
X81289387Y-91427991D01*
X81315024Y-91468390D01*
X81330537Y-91489043D01*
X81339690Y-91496045D01*
X81342012Y-91496400D01*
X81357678Y-91475884D01*
X81391067Y-91421522D01*
X81435625Y-91344089D01*
X81446319Y-91324950D01*
X81510112Y-91212130D01*
X81583873Y-91084537D01*
X81648120Y-90975700D01*
X81708936Y-90873209D01*
X81768969Y-90770445D01*
X81815930Y-90688459D01*
X81818658Y-90683600D01*
X81853006Y-90622942D01*
X81906929Y-90528500D01*
X81974587Y-90410471D01*
X82050134Y-90279054D01*
X82102425Y-90188300D01*
X82322164Y-89807300D01*
X81723402Y-89803191D01*
X82633742Y-89803191D01*
X82642038Y-89827708D01*
X82672166Y-89887961D01*
X82719915Y-89976068D01*
X82781079Y-90084145D01*
X82814028Y-90140905D01*
X82886114Y-90264515D01*
X82953098Y-90380114D01*
X83008813Y-90477011D01*
X83047094Y-90544512D01*
X83055170Y-90559100D01*
X83082825Y-90605673D01*
X83111793Y-90634105D01*
X83155553Y-90650388D01*
X83227581Y-90660514D01*
X83297298Y-90666747D01*
X83492483Y-90701550D01*
X83656197Y-90769108D01*
X83783568Y-90867216D01*
X83811605Y-90899296D01*
X83857723Y-90952961D01*
X83891377Y-90984706D01*
X83898943Y-90988399D01*
X83915814Y-90967353D01*
X83953685Y-90908545D01*
X84008618Y-90818468D01*
X84076673Y-90703617D01*
X84153910Y-90570483D01*
X84178343Y-90527844D01*
X84262546Y-90380481D01*
X84342956Y-90239762D01*
X84414408Y-90114723D01*
X84471739Y-90014401D01*
X84509785Y-89947831D01*
X84513417Y-89941478D01*
X84550694Y-89871884D01*
X84572687Y-89822080D01*
X84575358Y-89805692D01*
X84548352Y-89803105D01*
X84477328Y-89800826D01*
X84369069Y-89798864D01*
X84230354Y-89797229D01*
X84067965Y-89795927D01*
X83888681Y-89794970D01*
X83699285Y-89794364D01*
X83506555Y-89794118D01*
X83317273Y-89794243D01*
X83138220Y-89794745D01*
X82976176Y-89795635D01*
X82837921Y-89796920D01*
X82730237Y-89798609D01*
X82659904Y-89800712D01*
X82633742Y-89803191D01*
X81723402Y-89803191D01*
X81352254Y-89800644D01*
X81135333Y-89799462D01*
X80934695Y-89798958D01*
X80755932Y-89799102D01*
X80604640Y-89799864D01*
X80486412Y-89801212D01*
X80406842Y-89803117D01*
X80371523Y-89805547D01*
X80370322Y-89806010D01*
X79964484Y-89806010D01*
X79563187Y-89800413D01*
X79361453Y-89798455D01*
X79131624Y-89797609D01*
X78896105Y-89797876D01*
X78677298Y-89799254D01*
X78577401Y-89800413D01*
X78085402Y-89807300D01*
X77413068Y-89807300D01*
X77458753Y-89780981D01*
X77675907Y-89655878D01*
X77743738Y-89616800D01*
X78425280Y-89616800D01*
X79242640Y-89616800D01*
X80340432Y-89616800D01*
X81330516Y-89616800D01*
X81549163Y-89616259D01*
X81751075Y-89614717D01*
X81930805Y-89612294D01*
X82082906Y-89609111D01*
X82201933Y-89605287D01*
X82282437Y-89600943D01*
X82318973Y-89596199D01*
X82320600Y-89594944D01*
X82320308Y-89594206D01*
X82629633Y-89594206D01*
X82651896Y-89599984D01*
X82719717Y-89605147D01*
X82827853Y-89609547D01*
X82971065Y-89613035D01*
X83144111Y-89615463D01*
X83341750Y-89616683D01*
X83428356Y-89616800D01*
X84235545Y-89616800D01*
X84122622Y-89545734D01*
X84071907Y-89515118D01*
X83984364Y-89463666D01*
X83867345Y-89395613D01*
X83728205Y-89315194D01*
X83574295Y-89226644D01*
X83412970Y-89134198D01*
X83251583Y-89042093D01*
X83097487Y-88954564D01*
X83029839Y-88916305D01*
X83014288Y-88934685D01*
X82979106Y-88988273D01*
X82929627Y-89068032D01*
X82871185Y-89164927D01*
X82809115Y-89269923D01*
X82748751Y-89373984D01*
X82695426Y-89468076D01*
X82654475Y-89543161D01*
X82631233Y-89590205D01*
X82629633Y-89594206D01*
X82320308Y-89594206D01*
X82307453Y-89561751D01*
X82274678Y-89505791D01*
X82262285Y-89486994D01*
X82222932Y-89424834D01*
X82168998Y-89334393D01*
X82110166Y-89232019D01*
X82090935Y-89197700D01*
X82037769Y-89102637D01*
X81991703Y-89021194D01*
X81959925Y-88966041D01*
X81952400Y-88953494D01*
X81925381Y-88907388D01*
X81886060Y-88837420D01*
X81866072Y-88801094D01*
X81822318Y-88723329D01*
X81764052Y-88622850D01*
X81703253Y-88520291D01*
X81698208Y-88511900D01*
X81637211Y-88409498D01*
X81577099Y-88306805D01*
X81530157Y-88224821D01*
X81527346Y-88219800D01*
X81478581Y-88133275D01*
X81663668Y-88133275D01*
X81665215Y-88141722D01*
X81673212Y-88159841D01*
X81690426Y-88192609D01*
X81719622Y-88244998D01*
X81763568Y-88321984D01*
X81825031Y-88428540D01*
X81906775Y-88569642D01*
X81998534Y-88727800D01*
X82084150Y-88875812D01*
X82169555Y-89024292D01*
X82248080Y-89161588D01*
X82313056Y-89276045D01*
X82351015Y-89343724D01*
X82400926Y-89431116D01*
X82441972Y-89498354D01*
X82467914Y-89535422D01*
X82473000Y-89539591D01*
X82489148Y-89518301D01*
X82525450Y-89460155D01*
X82577390Y-89372701D01*
X82640449Y-89263491D01*
X82681058Y-89191877D01*
X82747146Y-89072164D01*
X82802157Y-88967876D01*
X82842089Y-88886978D01*
X82862944Y-88837434D01*
X82864700Y-88826164D01*
X82839901Y-88808112D01*
X82778014Y-88769354D01*
X82686177Y-88714181D01*
X82571528Y-88646881D01*
X82442795Y-88572652D01*
X82297209Y-88489078D01*
X82152597Y-88405484D01*
X82020451Y-88328555D01*
X81912264Y-88264976D01*
X81853253Y-88229766D01*
X81770082Y-88180985D01*
X81705271Y-88145714D01*
X81669456Y-88129640D01*
X81665804Y-88129528D01*
X81663668Y-88133275D01*
X81478581Y-88133275D01*
X81461255Y-88102534D01*
X81414467Y-88023013D01*
X81382243Y-87974230D01*
X81359840Y-87949177D01*
X81342521Y-87940850D01*
X81338428Y-87940560D01*
X81323400Y-87949618D01*
X81298503Y-87979551D01*
X81261266Y-88034323D01*
X81209217Y-88117897D01*
X81139883Y-88234234D01*
X81050794Y-88387299D01*
X80945483Y-88570559D01*
X80918305Y-88617949D01*
X80881289Y-88682312D01*
X80831380Y-88768948D01*
X80765523Y-88883157D01*
X80680664Y-89030239D01*
X80573748Y-89215492D01*
X80562027Y-89235800D01*
X80502080Y-89339506D01*
X80446117Y-89436060D01*
X80402755Y-89510603D01*
X80388920Y-89534250D01*
X80340432Y-89616800D01*
X79242640Y-89616800D01*
X79440580Y-89616231D01*
X79621209Y-89614618D01*
X79778538Y-89612101D01*
X79906578Y-89608819D01*
X79999340Y-89604912D01*
X80050834Y-89600520D01*
X80059435Y-89597750D01*
X80044797Y-89566222D01*
X80010259Y-89516558D01*
X80009200Y-89515200D01*
X79974406Y-89466414D01*
X79958998Y-89436318D01*
X79958964Y-89435866D01*
X79946548Y-89408930D01*
X79913472Y-89348119D01*
X79865273Y-89263082D01*
X79807487Y-89163471D01*
X79745649Y-89058935D01*
X79688280Y-88963997D01*
X79654064Y-88908095D01*
X79495082Y-88997936D01*
X79412901Y-89045098D01*
X79347182Y-89084137D01*
X79311512Y-89106970D01*
X79310700Y-89107589D01*
X79274925Y-89130725D01*
X79211917Y-89167711D01*
X79171000Y-89190736D01*
X79106304Y-89227042D01*
X79009609Y-89281873D01*
X78892931Y-89348393D01*
X78768287Y-89419762D01*
X78740990Y-89435435D01*
X78425280Y-89616800D01*
X77743738Y-89616800D01*
X77882267Y-89536994D01*
X78040700Y-89445720D01*
X78202122Y-89352657D01*
X78367128Y-89257410D01*
X78524138Y-89166671D01*
X78661572Y-89087132D01*
X78767850Y-89025488D01*
X78777300Y-89019995D01*
X79006720Y-88886874D01*
X79084134Y-88842100D01*
X79806972Y-88842100D01*
X79818910Y-88873527D01*
X79851800Y-88937561D01*
X79899977Y-89023538D01*
X79935166Y-89083400D01*
X79999679Y-89193158D01*
X80062107Y-89302604D01*
X80112395Y-89393990D01*
X80127640Y-89423037D01*
X80165871Y-89487311D01*
X80197833Y-89522770D01*
X80212374Y-89524637D01*
X80230327Y-89497466D01*
X80269966Y-89432236D01*
X80327736Y-89334971D01*
X80400079Y-89211698D01*
X80483441Y-89068442D01*
X80570193Y-88918300D01*
X80663776Y-88755748D01*
X80752256Y-88601967D01*
X80831464Y-88464212D01*
X80897231Y-88349734D01*
X80945388Y-88265788D01*
X80969523Y-88223573D01*
X81032423Y-88113047D01*
X80905955Y-88185473D01*
X80644651Y-88335364D01*
X80424785Y-88462061D01*
X80243511Y-88567265D01*
X80097984Y-88652676D01*
X79985359Y-88719993D01*
X79902790Y-88770917D01*
X79847433Y-88807147D01*
X79816443Y-88830384D01*
X79806972Y-88842100D01*
X79084134Y-88842100D01*
X79268314Y-88735577D01*
X79550085Y-88573020D01*
X79840034Y-88406121D01*
X80126167Y-88241796D01*
X80263200Y-88163250D01*
X80413652Y-88076767D01*
X80562639Y-87990580D01*
X80699410Y-87910948D01*
X80813210Y-87844131D01*
X80891417Y-87797522D01*
X80976415Y-87746928D01*
X81043727Y-87708394D01*
X81082503Y-87688072D01*
X81087385Y-87686399D01*
X81113824Y-87673889D01*
X81169158Y-87641619D01*
X81219529Y-87610365D01*
X81291213Y-87567740D01*
X81336922Y-87551223D01*
X81371830Y-87557132D01*
%TD*%
M02*
