%TF.GenerationSoftware,KiCad,Pcbnew,(5.1.10)-1*%
%TF.CreationDate,2021-11-16T11:27:34+01:00*%
%TF.ProjectId,VolumeKnob,566f6c75-6d65-44b6-9e6f-622e6b696361,rev?*%
%TF.SameCoordinates,Original*%
%TF.FileFunction,Legend,Bot*%
%TF.FilePolarity,Positive*%
%FSLAX46Y46*%
G04 Gerber Fmt 4.6, Leading zero omitted, Abs format (unit mm)*
G04 Created by KiCad (PCBNEW (5.1.10)-1) date 2021-11-16 11:27:34*
%MOMM*%
%LPD*%
G01*
G04 APERTURE LIST*
%ADD10C,0.500000*%
%ADD11C,0.010000*%
G04 APERTURE END LIST*
D10*
X96628571Y-84257142D02*
X96057142Y-84257142D01*
X95771428Y-84400000D01*
X95485714Y-84685714D01*
X95342857Y-85257142D01*
X95342857Y-86257142D01*
X95485714Y-86828571D01*
X95771428Y-87114285D01*
X96057142Y-87257142D01*
X96628571Y-87257142D01*
X96914285Y-87114285D01*
X97200000Y-86828571D01*
X97342857Y-86257142D01*
X97342857Y-85257142D01*
X97200000Y-84685714D01*
X96914285Y-84400000D01*
X96628571Y-84257142D01*
X94057142Y-85257142D02*
X94057142Y-88257142D01*
X94057142Y-85400000D02*
X93771428Y-85257142D01*
X93200000Y-85257142D01*
X92914285Y-85400000D01*
X92771428Y-85542857D01*
X92628571Y-85828571D01*
X92628571Y-86685714D01*
X92771428Y-86971428D01*
X92914285Y-87114285D01*
X93200000Y-87257142D01*
X93771428Y-87257142D01*
X94057142Y-87114285D01*
X90200000Y-87114285D02*
X90485714Y-87257142D01*
X91057142Y-87257142D01*
X91342857Y-87114285D01*
X91485714Y-86828571D01*
X91485714Y-85685714D01*
X91342857Y-85400000D01*
X91057142Y-85257142D01*
X90485714Y-85257142D01*
X90200000Y-85400000D01*
X90057142Y-85685714D01*
X90057142Y-85971428D01*
X91485714Y-86257142D01*
X88771428Y-85257142D02*
X88771428Y-87257142D01*
X88771428Y-85542857D02*
X88628571Y-85400000D01*
X88342857Y-85257142D01*
X87914285Y-85257142D01*
X87628571Y-85400000D01*
X87485714Y-85685714D01*
X87485714Y-87257142D01*
X86485714Y-84257142D02*
X85485714Y-87257142D01*
X84485714Y-84257142D01*
X83057142Y-87257142D02*
X83342857Y-87114285D01*
X83485714Y-86971428D01*
X83628571Y-86685714D01*
X83628571Y-85828571D01*
X83485714Y-85542857D01*
X83342857Y-85400000D01*
X83057142Y-85257142D01*
X82628571Y-85257142D01*
X82342857Y-85400000D01*
X82200000Y-85542857D01*
X82057142Y-85828571D01*
X82057142Y-86685714D01*
X82200000Y-86971428D01*
X82342857Y-87114285D01*
X82628571Y-87257142D01*
X83057142Y-87257142D01*
X80342857Y-87257142D02*
X80628571Y-87114285D01*
X80771428Y-86828571D01*
X80771428Y-84257142D01*
X77914285Y-85257142D02*
X77914285Y-87257142D01*
X79200000Y-85257142D02*
X79200000Y-86828571D01*
X79057142Y-87114285D01*
X78771428Y-87257142D01*
X78342857Y-87257142D01*
X78057142Y-87114285D01*
X77914285Y-86971428D01*
X76485714Y-87257142D02*
X76485714Y-85257142D01*
X76485714Y-85542857D02*
X76342857Y-85400000D01*
X76057142Y-85257142D01*
X75628571Y-85257142D01*
X75342857Y-85400000D01*
X75200000Y-85685714D01*
X75200000Y-87257142D01*
X75200000Y-85685714D02*
X75057142Y-85400000D01*
X74771428Y-85257142D01*
X74342857Y-85257142D01*
X74057142Y-85400000D01*
X73914285Y-85685714D01*
X73914285Y-87257142D01*
X71342857Y-87114285D02*
X71628571Y-87257142D01*
X72200000Y-87257142D01*
X72485714Y-87114285D01*
X72628571Y-86828571D01*
X72628571Y-85685714D01*
X72485714Y-85400000D01*
X72200000Y-85257142D01*
X71628571Y-85257142D01*
X71342857Y-85400000D01*
X71200000Y-85685714D01*
X71200000Y-85971428D01*
X72628571Y-86257142D01*
X69914285Y-87257142D02*
X69914285Y-84257142D01*
X68200000Y-87257142D02*
X69485714Y-85542857D01*
X68200000Y-84257142D02*
X69914285Y-85971428D01*
X66914285Y-85257142D02*
X66914285Y-87257142D01*
X66914285Y-85542857D02*
X66771428Y-85400000D01*
X66485714Y-85257142D01*
X66057142Y-85257142D01*
X65771428Y-85400000D01*
X65628571Y-85685714D01*
X65628571Y-87257142D01*
X63771428Y-87257142D02*
X64057142Y-87114285D01*
X64200000Y-86971428D01*
X64342857Y-86685714D01*
X64342857Y-85828571D01*
X64200000Y-85542857D01*
X64057142Y-85400000D01*
X63771428Y-85257142D01*
X63342857Y-85257142D01*
X63057142Y-85400000D01*
X62914285Y-85542857D01*
X62771428Y-85828571D01*
X62771428Y-86685714D01*
X62914285Y-86971428D01*
X63057142Y-87114285D01*
X63342857Y-87257142D01*
X63771428Y-87257142D01*
X61485714Y-87257142D02*
X61485714Y-84257142D01*
X61485714Y-85400000D02*
X61200000Y-85257142D01*
X60628571Y-85257142D01*
X60342857Y-85400000D01*
X60200000Y-85542857D01*
X60057142Y-85828571D01*
X60057142Y-86685714D01*
X60200000Y-86971428D01*
X60342857Y-87114285D01*
X60628571Y-87257142D01*
X61200000Y-87257142D01*
X61485714Y-87114285D01*
X85128571Y-92257142D02*
X86128571Y-90828571D01*
X86842857Y-92257142D02*
X86842857Y-89257142D01*
X85700000Y-89257142D01*
X85414285Y-89400000D01*
X85271428Y-89542857D01*
X85128571Y-89828571D01*
X85128571Y-90257142D01*
X85271428Y-90542857D01*
X85414285Y-90685714D01*
X85700000Y-90828571D01*
X86842857Y-90828571D01*
X83842857Y-90685714D02*
X82842857Y-90685714D01*
X82414285Y-92257142D02*
X83842857Y-92257142D01*
X83842857Y-89257142D01*
X82414285Y-89257142D01*
X81557142Y-89257142D02*
X80557142Y-92257142D01*
X79557142Y-89257142D01*
X75700000Y-89257142D02*
X75414285Y-89257142D01*
X75128571Y-89400000D01*
X74985714Y-89542857D01*
X74842857Y-89828571D01*
X74700000Y-90400000D01*
X74700000Y-91114285D01*
X74842857Y-91685714D01*
X74985714Y-91971428D01*
X75128571Y-92114285D01*
X75414285Y-92257142D01*
X75700000Y-92257142D01*
X75985714Y-92114285D01*
X76128571Y-91971428D01*
X76271428Y-91685714D01*
X76414285Y-91114285D01*
X76414285Y-90400000D01*
X76271428Y-89828571D01*
X76128571Y-89542857D01*
X75985714Y-89400000D01*
X75700000Y-89257142D01*
X73414285Y-91971428D02*
X73271428Y-92114285D01*
X73414285Y-92257142D01*
X73557142Y-92114285D01*
X73414285Y-91971428D01*
X73414285Y-92257142D01*
X70414285Y-92257142D02*
X72128571Y-92257142D01*
X71271428Y-92257142D02*
X71271428Y-89257142D01*
X71557142Y-89685714D01*
X71842857Y-89971428D01*
X72128571Y-90114285D01*
D11*
%TO.C,G\u002A\u002A\u002A*%
G36*
X96857829Y-69388663D02*
G01*
X96985822Y-69389861D01*
X97105601Y-69391995D01*
X97212494Y-69395065D01*
X97301826Y-69399069D01*
X97368922Y-69404008D01*
X97409109Y-69409880D01*
X97417520Y-69413067D01*
X97426973Y-69425460D01*
X97437584Y-69451231D01*
X97449994Y-69493203D01*
X97464842Y-69554199D01*
X97482769Y-69637043D01*
X97504415Y-69744557D01*
X97530419Y-69879564D01*
X97561423Y-70044888D01*
X97564372Y-70060767D01*
X97590871Y-70203258D01*
X97615724Y-70336356D01*
X97638187Y-70456122D01*
X97657519Y-70558619D01*
X97672975Y-70639907D01*
X97683814Y-70696051D01*
X97689292Y-70723110D01*
X97689458Y-70723825D01*
X97694276Y-70738144D01*
X97703619Y-70751864D01*
X97720675Y-70766560D01*
X97748635Y-70783807D01*
X97790687Y-70805180D01*
X97850022Y-70832255D01*
X97929829Y-70866605D01*
X98033297Y-70909807D01*
X98163615Y-70963435D01*
X98228386Y-70989963D01*
X98352841Y-71040016D01*
X98461529Y-71081969D01*
X98551053Y-71114605D01*
X98618016Y-71136710D01*
X98659021Y-71147067D01*
X98668652Y-71147477D01*
X98690524Y-71136415D01*
X98736912Y-71108178D01*
X98804526Y-71064927D01*
X98890078Y-71008821D01*
X98990279Y-70942020D01*
X99101840Y-70866684D01*
X99221470Y-70784973D01*
X99238588Y-70773208D01*
X99358898Y-70691059D01*
X99471510Y-70615327D01*
X99573157Y-70548121D01*
X99660575Y-70491549D01*
X99730497Y-70447722D01*
X99779658Y-70418749D01*
X99804793Y-70406739D01*
X99806265Y-70406530D01*
X99828745Y-70418880D01*
X99873914Y-70455705D01*
X99941412Y-70516668D01*
X100030876Y-70601432D01*
X100141945Y-70709661D01*
X100274259Y-70841017D01*
X100301882Y-70868673D01*
X100404437Y-70971890D01*
X100499060Y-71067921D01*
X100583160Y-71154073D01*
X100654141Y-71227654D01*
X100709408Y-71285971D01*
X100746370Y-71326331D01*
X100762430Y-71346040D01*
X100762905Y-71347266D01*
X100761534Y-71354528D01*
X100756320Y-71366464D01*
X100745612Y-71385558D01*
X100727761Y-71414297D01*
X100701114Y-71455167D01*
X100664022Y-71510653D01*
X100614833Y-71583242D01*
X100551898Y-71675419D01*
X100473565Y-71789669D01*
X100378184Y-71928480D01*
X100342621Y-71980195D01*
X100268199Y-72089040D01*
X100199534Y-72190677D01*
X100139145Y-72281286D01*
X100089548Y-72357045D01*
X100053259Y-72414134D01*
X100032797Y-72448731D01*
X100029642Y-72455323D01*
X100026253Y-72471698D01*
X100027767Y-72494432D01*
X100035434Y-72527028D01*
X100050506Y-72572988D01*
X100074235Y-72635816D01*
X100107873Y-72719017D01*
X100152671Y-72826092D01*
X100209882Y-72960546D01*
X100211554Y-72964458D01*
X100262451Y-73082587D01*
X100309957Y-73191139D01*
X100352228Y-73286037D01*
X100387425Y-73363208D01*
X100413707Y-73418577D01*
X100429230Y-73448069D01*
X100431555Y-73451304D01*
X100452581Y-73459360D01*
X100503220Y-73472627D01*
X100579753Y-73490306D01*
X100678466Y-73511598D01*
X100795640Y-73535702D01*
X100927559Y-73561820D01*
X101070506Y-73589152D01*
X101085725Y-73592008D01*
X101228309Y-73619069D01*
X101360797Y-73644898D01*
X101479404Y-73668706D01*
X101580345Y-73689703D01*
X101659833Y-73707098D01*
X101714082Y-73720103D01*
X101739309Y-73727928D01*
X101740280Y-73728541D01*
X101746080Y-73740457D01*
X101750823Y-73767443D01*
X101754596Y-73812186D01*
X101757487Y-73877372D01*
X101759582Y-73965690D01*
X101760970Y-74079826D01*
X101761737Y-74222467D01*
X101761972Y-74395194D01*
X101761833Y-74562859D01*
X101761334Y-74699853D01*
X101760348Y-74809372D01*
X101758749Y-74894613D01*
X101756412Y-74958771D01*
X101753209Y-75005041D01*
X101749017Y-75036619D01*
X101743708Y-75056702D01*
X101737156Y-75068484D01*
X101735362Y-75070454D01*
X101711306Y-75091577D01*
X101701300Y-75097064D01*
X101680961Y-75100101D01*
X101632048Y-75108625D01*
X101559251Y-75121755D01*
X101467259Y-75138611D01*
X101360761Y-75158312D01*
X101244446Y-75179977D01*
X101123003Y-75202725D01*
X101001122Y-75225677D01*
X100883492Y-75247951D01*
X100774802Y-75268667D01*
X100679741Y-75286943D01*
X100602998Y-75301900D01*
X100549263Y-75312657D01*
X100523462Y-75318270D01*
X100470006Y-75343130D01*
X100436144Y-75389097D01*
X100436041Y-75389316D01*
X100416599Y-75433239D01*
X100388670Y-75499775D01*
X100354116Y-75584177D01*
X100314802Y-75681695D01*
X100272592Y-75787581D01*
X100229348Y-75897086D01*
X100186936Y-76005461D01*
X100147218Y-76107957D01*
X100112059Y-76199825D01*
X100083322Y-76276317D01*
X100062872Y-76332683D01*
X100052571Y-76364175D01*
X100051705Y-76368588D01*
X100060995Y-76388555D01*
X100087408Y-76432979D01*
X100128757Y-76498492D01*
X100182859Y-76581726D01*
X100247527Y-76679316D01*
X100320577Y-76787893D01*
X100389388Y-76888879D01*
X100484494Y-77027654D01*
X100562157Y-77141191D01*
X100624032Y-77232220D01*
X100671774Y-77303472D01*
X100707037Y-77357678D01*
X100731475Y-77397568D01*
X100746742Y-77425874D01*
X100754493Y-77445326D01*
X100756382Y-77458655D01*
X100754063Y-77468592D01*
X100749191Y-77477866D01*
X100747752Y-77480430D01*
X100729319Y-77504000D01*
X100690469Y-77546702D01*
X100634454Y-77605359D01*
X100564525Y-77676793D01*
X100483935Y-77757828D01*
X100395936Y-77845284D01*
X100303778Y-77935986D01*
X100210716Y-78026755D01*
X100120000Y-78114413D01*
X100034882Y-78195784D01*
X99958615Y-78267689D01*
X99894450Y-78326952D01*
X99845640Y-78370394D01*
X99815436Y-78394838D01*
X99807595Y-78399064D01*
X99786716Y-78389749D01*
X99741515Y-78363293D01*
X99675448Y-78321925D01*
X99591973Y-78267877D01*
X99494545Y-78203379D01*
X99386621Y-78130662D01*
X99300330Y-78071701D01*
X99186047Y-77993331D01*
X99079204Y-77920405D01*
X98983369Y-77855331D01*
X98902110Y-77800519D01*
X98838992Y-77758376D01*
X98797584Y-77731312D01*
X98783138Y-77722473D01*
X98765796Y-77715570D01*
X98745355Y-77714713D01*
X98716897Y-77721723D01*
X98675504Y-77738423D01*
X98616260Y-77766635D01*
X98534246Y-77808181D01*
X98489300Y-77831351D01*
X98388175Y-77882189D01*
X98308651Y-77919133D01*
X98253038Y-77941199D01*
X98223648Y-77947401D01*
X98220336Y-77946068D01*
X98211046Y-77927845D01*
X98190074Y-77881174D01*
X98158638Y-77808922D01*
X98117956Y-77713955D01*
X98069245Y-77599139D01*
X98013723Y-77467340D01*
X97952607Y-77321424D01*
X97887115Y-77164259D01*
X97840190Y-77051187D01*
X97744480Y-76820149D01*
X97660938Y-76618381D01*
X97588758Y-76443872D01*
X97527133Y-76294608D01*
X97475257Y-76168576D01*
X97432324Y-76063765D01*
X97397527Y-75978162D01*
X97370059Y-75909754D01*
X97349116Y-75856529D01*
X97333889Y-75816475D01*
X97323572Y-75787579D01*
X97317360Y-75767828D01*
X97314446Y-75755210D01*
X97314023Y-75747713D01*
X97315285Y-75743324D01*
X97315782Y-75742456D01*
X97332625Y-75727153D01*
X97371329Y-75696983D01*
X97425971Y-75656445D01*
X97484709Y-75614224D01*
X97663428Y-75474919D01*
X97811002Y-75331175D01*
X97930146Y-75179154D01*
X98023576Y-75015015D01*
X98094007Y-74834919D01*
X98130027Y-74701916D01*
X98144655Y-74610819D01*
X98153299Y-74498961D01*
X98155764Y-74378949D01*
X98151857Y-74263391D01*
X98141382Y-74164895D01*
X98138566Y-74148797D01*
X98082299Y-73939983D01*
X97996727Y-73746067D01*
X97883938Y-73569235D01*
X97746017Y-73411672D01*
X97585050Y-73275563D01*
X97403125Y-73163095D01*
X97202326Y-73076451D01*
X97079442Y-73039255D01*
X96975014Y-73020296D01*
X96850000Y-73010000D01*
X96716553Y-73008366D01*
X96586825Y-73015392D01*
X96472970Y-73031078D01*
X96436439Y-73039298D01*
X96226228Y-73109973D01*
X96033465Y-73207955D01*
X95860278Y-73331015D01*
X95708791Y-73476925D01*
X95581131Y-73643459D01*
X95479424Y-73828389D01*
X95405795Y-74029487D01*
X95377531Y-74148797D01*
X95365533Y-74243263D01*
X95360344Y-74357394D01*
X95361767Y-74478387D01*
X95369603Y-74593440D01*
X95383654Y-74689749D01*
X95386099Y-74700977D01*
X95443181Y-74895642D01*
X95522038Y-75071863D01*
X95625280Y-75233333D01*
X95755515Y-75383743D01*
X95915352Y-75526786D01*
X96031235Y-75613940D01*
X96095386Y-75660140D01*
X96149052Y-75700154D01*
X96186298Y-75729467D01*
X96200943Y-75743073D01*
X96195919Y-75760226D01*
X96179184Y-75805571D01*
X96151998Y-75876017D01*
X96115622Y-75968472D01*
X96071317Y-76079844D01*
X96020345Y-76207042D01*
X95963966Y-76346975D01*
X95903441Y-76496550D01*
X95840033Y-76652677D01*
X95775000Y-76812264D01*
X95709605Y-76972219D01*
X95645109Y-77129451D01*
X95582773Y-77280868D01*
X95523857Y-77423379D01*
X95469623Y-77553893D01*
X95421332Y-77669317D01*
X95380244Y-77766561D01*
X95347622Y-77842532D01*
X95324726Y-77894140D01*
X95316127Y-77912231D01*
X95295782Y-77944927D01*
X95279602Y-77958794D01*
X95279437Y-77958797D01*
X95260579Y-77951225D01*
X95217543Y-77930393D01*
X95155952Y-77899126D01*
X95081432Y-77860252D01*
X95047039Y-77842020D01*
X94966282Y-77799581D01*
X94893661Y-77762469D01*
X94835587Y-77733886D01*
X94798473Y-77717030D01*
X94791261Y-77714384D01*
X94763721Y-77714765D01*
X94723284Y-77731028D01*
X94664928Y-77765538D01*
X94621928Y-77794140D01*
X94570978Y-77828937D01*
X94497609Y-77879095D01*
X94407342Y-77940837D01*
X94305698Y-78010387D01*
X94198200Y-78083966D01*
X94113569Y-78141910D01*
X94012746Y-78210207D01*
X93919909Y-78271683D01*
X93839027Y-78323823D01*
X93774068Y-78364110D01*
X93729003Y-78390029D01*
X93707905Y-78399064D01*
X93689277Y-78387438D01*
X93649603Y-78354265D01*
X93591625Y-78302103D01*
X93518084Y-78233509D01*
X93431724Y-78151042D01*
X93335286Y-78057259D01*
X93231512Y-77954719D01*
X93231357Y-77954564D01*
X93129535Y-77852830D01*
X93034998Y-77757703D01*
X92950522Y-77672029D01*
X92878886Y-77598653D01*
X92822868Y-77540421D01*
X92785245Y-77500180D01*
X92768795Y-77480777D01*
X92768592Y-77480430D01*
X92763336Y-77470891D01*
X92760216Y-77461379D01*
X92760885Y-77449166D01*
X92766998Y-77431519D01*
X92780209Y-77405709D01*
X92802173Y-77369005D01*
X92834543Y-77318675D01*
X92878975Y-77251989D01*
X92937122Y-77166217D01*
X93010639Y-77058627D01*
X93101179Y-76926489D01*
X93126956Y-76888879D01*
X93205528Y-76773470D01*
X93277625Y-76666114D01*
X93341060Y-76570177D01*
X93393649Y-76489027D01*
X93433205Y-76426031D01*
X93457543Y-76384556D01*
X93464639Y-76368588D01*
X93458595Y-76347575D01*
X93441708Y-76299920D01*
X93415840Y-76230370D01*
X93382855Y-76143675D01*
X93344618Y-76044583D01*
X93302992Y-75937843D01*
X93259840Y-75828205D01*
X93217027Y-75720416D01*
X93176416Y-75619225D01*
X93139871Y-75529382D01*
X93109256Y-75455636D01*
X93086435Y-75402734D01*
X93080303Y-75389316D01*
X93046412Y-75343190D01*
X92992902Y-75318210D01*
X92992882Y-75318205D01*
X92965498Y-75312212D01*
X92910595Y-75301174D01*
X92832877Y-75285976D01*
X92737044Y-75267500D01*
X92627798Y-75246632D01*
X92509843Y-75224256D01*
X92387878Y-75201257D01*
X92266607Y-75178518D01*
X92150730Y-75156924D01*
X92044951Y-75137359D01*
X91953972Y-75120708D01*
X91882493Y-75107855D01*
X91835216Y-75099685D01*
X91817111Y-75097064D01*
X91798975Y-75086507D01*
X91780981Y-75070454D01*
X91774109Y-75060207D01*
X91768510Y-75042436D01*
X91764057Y-75013945D01*
X91760626Y-74971539D01*
X91758090Y-74912022D01*
X91756323Y-74832199D01*
X91755200Y-74728874D01*
X91754594Y-74598851D01*
X91754379Y-74438934D01*
X91754372Y-74395194D01*
X91754609Y-74221550D01*
X91755380Y-74079083D01*
X91756772Y-73965105D01*
X91758871Y-73876929D01*
X91761767Y-73811869D01*
X91765545Y-73767238D01*
X91770294Y-73740347D01*
X91776064Y-73728541D01*
X91797108Y-73721471D01*
X91847685Y-73709115D01*
X91924007Y-73692263D01*
X92022289Y-73671703D01*
X92138746Y-73648227D01*
X92269592Y-73622623D01*
X92411042Y-73595681D01*
X92430619Y-73592008D01*
X92573225Y-73564836D01*
X92705737Y-73538700D01*
X92824365Y-73514412D01*
X92925323Y-73492789D01*
X93004823Y-73474643D01*
X93059077Y-73460788D01*
X93084297Y-73452040D01*
X93085261Y-73451304D01*
X93097653Y-73430034D01*
X93120790Y-73382323D01*
X93152624Y-73312966D01*
X93191106Y-73226758D01*
X93234186Y-73128495D01*
X93279816Y-73022973D01*
X93325947Y-72914987D01*
X93370529Y-72809333D01*
X93411514Y-72710806D01*
X93446852Y-72624202D01*
X93474495Y-72554316D01*
X93492393Y-72505944D01*
X93498505Y-72484152D01*
X93496666Y-72473458D01*
X93489895Y-72457184D01*
X93476311Y-72432421D01*
X93454034Y-72396258D01*
X93421185Y-72345785D01*
X93375882Y-72278093D01*
X93316245Y-72190271D01*
X93240394Y-72079410D01*
X93182042Y-71994397D01*
X93071460Y-71833119D01*
X92979273Y-71697985D01*
X92904429Y-71587412D01*
X92845878Y-71499815D01*
X92802569Y-71433610D01*
X92773451Y-71387214D01*
X92757473Y-71359043D01*
X92753439Y-71348320D01*
X92765016Y-71332820D01*
X92798017Y-71296146D01*
X92849848Y-71240996D01*
X92917913Y-71170071D01*
X92999616Y-71086070D01*
X93092364Y-70991695D01*
X93193560Y-70889643D01*
X93214461Y-70868673D01*
X93352356Y-70731336D01*
X93467549Y-70618558D01*
X93560348Y-70530050D01*
X93631064Y-70465524D01*
X93680008Y-70424691D01*
X93707488Y-70407264D01*
X93711066Y-70406530D01*
X93736564Y-70415843D01*
X93784060Y-70441575D01*
X93848022Y-70480420D01*
X93922921Y-70529069D01*
X93973943Y-70563753D01*
X94153297Y-70687703D01*
X94306856Y-70793555D01*
X94436579Y-70882620D01*
X94544424Y-70956208D01*
X94632353Y-71015628D01*
X94702323Y-71062191D01*
X94756295Y-71097205D01*
X94796227Y-71121982D01*
X94824079Y-71137831D01*
X94841811Y-71146061D01*
X94847464Y-71147723D01*
X94873733Y-71143519D01*
X94927252Y-71127329D01*
X95004156Y-71100533D01*
X95100580Y-71064514D01*
X95212657Y-71020653D01*
X95287731Y-70990363D01*
X95430708Y-70931898D01*
X95545441Y-70884459D01*
X95635117Y-70846469D01*
X95702926Y-70816352D01*
X95752058Y-70792531D01*
X95785701Y-70773430D01*
X95807045Y-70757472D01*
X95819279Y-70743081D01*
X95825591Y-70728679D01*
X95826878Y-70723825D01*
X95831950Y-70698990D01*
X95842447Y-70644793D01*
X95857626Y-70565170D01*
X95876743Y-70464057D01*
X95899052Y-70345392D01*
X95923811Y-70213111D01*
X95950274Y-70071152D01*
X95952244Y-70060563D01*
X95983874Y-69892002D01*
X96010443Y-69754043D01*
X96032583Y-69643899D01*
X96050925Y-69558789D01*
X96066100Y-69495926D01*
X96078739Y-69452528D01*
X96089475Y-69425809D01*
X96098937Y-69412986D01*
X96099103Y-69412863D01*
X96124534Y-69406546D01*
X96179145Y-69401171D01*
X96258261Y-69396738D01*
X96357208Y-69393244D01*
X96471312Y-69390691D01*
X96595900Y-69389078D01*
X96726297Y-69388401D01*
X96857829Y-69388663D01*
G37*
X96857829Y-69388663D02*
X96985822Y-69389861D01*
X97105601Y-69391995D01*
X97212494Y-69395065D01*
X97301826Y-69399069D01*
X97368922Y-69404008D01*
X97409109Y-69409880D01*
X97417520Y-69413067D01*
X97426973Y-69425460D01*
X97437584Y-69451231D01*
X97449994Y-69493203D01*
X97464842Y-69554199D01*
X97482769Y-69637043D01*
X97504415Y-69744557D01*
X97530419Y-69879564D01*
X97561423Y-70044888D01*
X97564372Y-70060767D01*
X97590871Y-70203258D01*
X97615724Y-70336356D01*
X97638187Y-70456122D01*
X97657519Y-70558619D01*
X97672975Y-70639907D01*
X97683814Y-70696051D01*
X97689292Y-70723110D01*
X97689458Y-70723825D01*
X97694276Y-70738144D01*
X97703619Y-70751864D01*
X97720675Y-70766560D01*
X97748635Y-70783807D01*
X97790687Y-70805180D01*
X97850022Y-70832255D01*
X97929829Y-70866605D01*
X98033297Y-70909807D01*
X98163615Y-70963435D01*
X98228386Y-70989963D01*
X98352841Y-71040016D01*
X98461529Y-71081969D01*
X98551053Y-71114605D01*
X98618016Y-71136710D01*
X98659021Y-71147067D01*
X98668652Y-71147477D01*
X98690524Y-71136415D01*
X98736912Y-71108178D01*
X98804526Y-71064927D01*
X98890078Y-71008821D01*
X98990279Y-70942020D01*
X99101840Y-70866684D01*
X99221470Y-70784973D01*
X99238588Y-70773208D01*
X99358898Y-70691059D01*
X99471510Y-70615327D01*
X99573157Y-70548121D01*
X99660575Y-70491549D01*
X99730497Y-70447722D01*
X99779658Y-70418749D01*
X99804793Y-70406739D01*
X99806265Y-70406530D01*
X99828745Y-70418880D01*
X99873914Y-70455705D01*
X99941412Y-70516668D01*
X100030876Y-70601432D01*
X100141945Y-70709661D01*
X100274259Y-70841017D01*
X100301882Y-70868673D01*
X100404437Y-70971890D01*
X100499060Y-71067921D01*
X100583160Y-71154073D01*
X100654141Y-71227654D01*
X100709408Y-71285971D01*
X100746370Y-71326331D01*
X100762430Y-71346040D01*
X100762905Y-71347266D01*
X100761534Y-71354528D01*
X100756320Y-71366464D01*
X100745612Y-71385558D01*
X100727761Y-71414297D01*
X100701114Y-71455167D01*
X100664022Y-71510653D01*
X100614833Y-71583242D01*
X100551898Y-71675419D01*
X100473565Y-71789669D01*
X100378184Y-71928480D01*
X100342621Y-71980195D01*
X100268199Y-72089040D01*
X100199534Y-72190677D01*
X100139145Y-72281286D01*
X100089548Y-72357045D01*
X100053259Y-72414134D01*
X100032797Y-72448731D01*
X100029642Y-72455323D01*
X100026253Y-72471698D01*
X100027767Y-72494432D01*
X100035434Y-72527028D01*
X100050506Y-72572988D01*
X100074235Y-72635816D01*
X100107873Y-72719017D01*
X100152671Y-72826092D01*
X100209882Y-72960546D01*
X100211554Y-72964458D01*
X100262451Y-73082587D01*
X100309957Y-73191139D01*
X100352228Y-73286037D01*
X100387425Y-73363208D01*
X100413707Y-73418577D01*
X100429230Y-73448069D01*
X100431555Y-73451304D01*
X100452581Y-73459360D01*
X100503220Y-73472627D01*
X100579753Y-73490306D01*
X100678466Y-73511598D01*
X100795640Y-73535702D01*
X100927559Y-73561820D01*
X101070506Y-73589152D01*
X101085725Y-73592008D01*
X101228309Y-73619069D01*
X101360797Y-73644898D01*
X101479404Y-73668706D01*
X101580345Y-73689703D01*
X101659833Y-73707098D01*
X101714082Y-73720103D01*
X101739309Y-73727928D01*
X101740280Y-73728541D01*
X101746080Y-73740457D01*
X101750823Y-73767443D01*
X101754596Y-73812186D01*
X101757487Y-73877372D01*
X101759582Y-73965690D01*
X101760970Y-74079826D01*
X101761737Y-74222467D01*
X101761972Y-74395194D01*
X101761833Y-74562859D01*
X101761334Y-74699853D01*
X101760348Y-74809372D01*
X101758749Y-74894613D01*
X101756412Y-74958771D01*
X101753209Y-75005041D01*
X101749017Y-75036619D01*
X101743708Y-75056702D01*
X101737156Y-75068484D01*
X101735362Y-75070454D01*
X101711306Y-75091577D01*
X101701300Y-75097064D01*
X101680961Y-75100101D01*
X101632048Y-75108625D01*
X101559251Y-75121755D01*
X101467259Y-75138611D01*
X101360761Y-75158312D01*
X101244446Y-75179977D01*
X101123003Y-75202725D01*
X101001122Y-75225677D01*
X100883492Y-75247951D01*
X100774802Y-75268667D01*
X100679741Y-75286943D01*
X100602998Y-75301900D01*
X100549263Y-75312657D01*
X100523462Y-75318270D01*
X100470006Y-75343130D01*
X100436144Y-75389097D01*
X100436041Y-75389316D01*
X100416599Y-75433239D01*
X100388670Y-75499775D01*
X100354116Y-75584177D01*
X100314802Y-75681695D01*
X100272592Y-75787581D01*
X100229348Y-75897086D01*
X100186936Y-76005461D01*
X100147218Y-76107957D01*
X100112059Y-76199825D01*
X100083322Y-76276317D01*
X100062872Y-76332683D01*
X100052571Y-76364175D01*
X100051705Y-76368588D01*
X100060995Y-76388555D01*
X100087408Y-76432979D01*
X100128757Y-76498492D01*
X100182859Y-76581726D01*
X100247527Y-76679316D01*
X100320577Y-76787893D01*
X100389388Y-76888879D01*
X100484494Y-77027654D01*
X100562157Y-77141191D01*
X100624032Y-77232220D01*
X100671774Y-77303472D01*
X100707037Y-77357678D01*
X100731475Y-77397568D01*
X100746742Y-77425874D01*
X100754493Y-77445326D01*
X100756382Y-77458655D01*
X100754063Y-77468592D01*
X100749191Y-77477866D01*
X100747752Y-77480430D01*
X100729319Y-77504000D01*
X100690469Y-77546702D01*
X100634454Y-77605359D01*
X100564525Y-77676793D01*
X100483935Y-77757828D01*
X100395936Y-77845284D01*
X100303778Y-77935986D01*
X100210716Y-78026755D01*
X100120000Y-78114413D01*
X100034882Y-78195784D01*
X99958615Y-78267689D01*
X99894450Y-78326952D01*
X99845640Y-78370394D01*
X99815436Y-78394838D01*
X99807595Y-78399064D01*
X99786716Y-78389749D01*
X99741515Y-78363293D01*
X99675448Y-78321925D01*
X99591973Y-78267877D01*
X99494545Y-78203379D01*
X99386621Y-78130662D01*
X99300330Y-78071701D01*
X99186047Y-77993331D01*
X99079204Y-77920405D01*
X98983369Y-77855331D01*
X98902110Y-77800519D01*
X98838992Y-77758376D01*
X98797584Y-77731312D01*
X98783138Y-77722473D01*
X98765796Y-77715570D01*
X98745355Y-77714713D01*
X98716897Y-77721723D01*
X98675504Y-77738423D01*
X98616260Y-77766635D01*
X98534246Y-77808181D01*
X98489300Y-77831351D01*
X98388175Y-77882189D01*
X98308651Y-77919133D01*
X98253038Y-77941199D01*
X98223648Y-77947401D01*
X98220336Y-77946068D01*
X98211046Y-77927845D01*
X98190074Y-77881174D01*
X98158638Y-77808922D01*
X98117956Y-77713955D01*
X98069245Y-77599139D01*
X98013723Y-77467340D01*
X97952607Y-77321424D01*
X97887115Y-77164259D01*
X97840190Y-77051187D01*
X97744480Y-76820149D01*
X97660938Y-76618381D01*
X97588758Y-76443872D01*
X97527133Y-76294608D01*
X97475257Y-76168576D01*
X97432324Y-76063765D01*
X97397527Y-75978162D01*
X97370059Y-75909754D01*
X97349116Y-75856529D01*
X97333889Y-75816475D01*
X97323572Y-75787579D01*
X97317360Y-75767828D01*
X97314446Y-75755210D01*
X97314023Y-75747713D01*
X97315285Y-75743324D01*
X97315782Y-75742456D01*
X97332625Y-75727153D01*
X97371329Y-75696983D01*
X97425971Y-75656445D01*
X97484709Y-75614224D01*
X97663428Y-75474919D01*
X97811002Y-75331175D01*
X97930146Y-75179154D01*
X98023576Y-75015015D01*
X98094007Y-74834919D01*
X98130027Y-74701916D01*
X98144655Y-74610819D01*
X98153299Y-74498961D01*
X98155764Y-74378949D01*
X98151857Y-74263391D01*
X98141382Y-74164895D01*
X98138566Y-74148797D01*
X98082299Y-73939983D01*
X97996727Y-73746067D01*
X97883938Y-73569235D01*
X97746017Y-73411672D01*
X97585050Y-73275563D01*
X97403125Y-73163095D01*
X97202326Y-73076451D01*
X97079442Y-73039255D01*
X96975014Y-73020296D01*
X96850000Y-73010000D01*
X96716553Y-73008366D01*
X96586825Y-73015392D01*
X96472970Y-73031078D01*
X96436439Y-73039298D01*
X96226228Y-73109973D01*
X96033465Y-73207955D01*
X95860278Y-73331015D01*
X95708791Y-73476925D01*
X95581131Y-73643459D01*
X95479424Y-73828389D01*
X95405795Y-74029487D01*
X95377531Y-74148797D01*
X95365533Y-74243263D01*
X95360344Y-74357394D01*
X95361767Y-74478387D01*
X95369603Y-74593440D01*
X95383654Y-74689749D01*
X95386099Y-74700977D01*
X95443181Y-74895642D01*
X95522038Y-75071863D01*
X95625280Y-75233333D01*
X95755515Y-75383743D01*
X95915352Y-75526786D01*
X96031235Y-75613940D01*
X96095386Y-75660140D01*
X96149052Y-75700154D01*
X96186298Y-75729467D01*
X96200943Y-75743073D01*
X96195919Y-75760226D01*
X96179184Y-75805571D01*
X96151998Y-75876017D01*
X96115622Y-75968472D01*
X96071317Y-76079844D01*
X96020345Y-76207042D01*
X95963966Y-76346975D01*
X95903441Y-76496550D01*
X95840033Y-76652677D01*
X95775000Y-76812264D01*
X95709605Y-76972219D01*
X95645109Y-77129451D01*
X95582773Y-77280868D01*
X95523857Y-77423379D01*
X95469623Y-77553893D01*
X95421332Y-77669317D01*
X95380244Y-77766561D01*
X95347622Y-77842532D01*
X95324726Y-77894140D01*
X95316127Y-77912231D01*
X95295782Y-77944927D01*
X95279602Y-77958794D01*
X95279437Y-77958797D01*
X95260579Y-77951225D01*
X95217543Y-77930393D01*
X95155952Y-77899126D01*
X95081432Y-77860252D01*
X95047039Y-77842020D01*
X94966282Y-77799581D01*
X94893661Y-77762469D01*
X94835587Y-77733886D01*
X94798473Y-77717030D01*
X94791261Y-77714384D01*
X94763721Y-77714765D01*
X94723284Y-77731028D01*
X94664928Y-77765538D01*
X94621928Y-77794140D01*
X94570978Y-77828937D01*
X94497609Y-77879095D01*
X94407342Y-77940837D01*
X94305698Y-78010387D01*
X94198200Y-78083966D01*
X94113569Y-78141910D01*
X94012746Y-78210207D01*
X93919909Y-78271683D01*
X93839027Y-78323823D01*
X93774068Y-78364110D01*
X93729003Y-78390029D01*
X93707905Y-78399064D01*
X93689277Y-78387438D01*
X93649603Y-78354265D01*
X93591625Y-78302103D01*
X93518084Y-78233509D01*
X93431724Y-78151042D01*
X93335286Y-78057259D01*
X93231512Y-77954719D01*
X93231357Y-77954564D01*
X93129535Y-77852830D01*
X93034998Y-77757703D01*
X92950522Y-77672029D01*
X92878886Y-77598653D01*
X92822868Y-77540421D01*
X92785245Y-77500180D01*
X92768795Y-77480777D01*
X92768592Y-77480430D01*
X92763336Y-77470891D01*
X92760216Y-77461379D01*
X92760885Y-77449166D01*
X92766998Y-77431519D01*
X92780209Y-77405709D01*
X92802173Y-77369005D01*
X92834543Y-77318675D01*
X92878975Y-77251989D01*
X92937122Y-77166217D01*
X93010639Y-77058627D01*
X93101179Y-76926489D01*
X93126956Y-76888879D01*
X93205528Y-76773470D01*
X93277625Y-76666114D01*
X93341060Y-76570177D01*
X93393649Y-76489027D01*
X93433205Y-76426031D01*
X93457543Y-76384556D01*
X93464639Y-76368588D01*
X93458595Y-76347575D01*
X93441708Y-76299920D01*
X93415840Y-76230370D01*
X93382855Y-76143675D01*
X93344618Y-76044583D01*
X93302992Y-75937843D01*
X93259840Y-75828205D01*
X93217027Y-75720416D01*
X93176416Y-75619225D01*
X93139871Y-75529382D01*
X93109256Y-75455636D01*
X93086435Y-75402734D01*
X93080303Y-75389316D01*
X93046412Y-75343190D01*
X92992902Y-75318210D01*
X92992882Y-75318205D01*
X92965498Y-75312212D01*
X92910595Y-75301174D01*
X92832877Y-75285976D01*
X92737044Y-75267500D01*
X92627798Y-75246632D01*
X92509843Y-75224256D01*
X92387878Y-75201257D01*
X92266607Y-75178518D01*
X92150730Y-75156924D01*
X92044951Y-75137359D01*
X91953972Y-75120708D01*
X91882493Y-75107855D01*
X91835216Y-75099685D01*
X91817111Y-75097064D01*
X91798975Y-75086507D01*
X91780981Y-75070454D01*
X91774109Y-75060207D01*
X91768510Y-75042436D01*
X91764057Y-75013945D01*
X91760626Y-74971539D01*
X91758090Y-74912022D01*
X91756323Y-74832199D01*
X91755200Y-74728874D01*
X91754594Y-74598851D01*
X91754379Y-74438934D01*
X91754372Y-74395194D01*
X91754609Y-74221550D01*
X91755380Y-74079083D01*
X91756772Y-73965105D01*
X91758871Y-73876929D01*
X91761767Y-73811869D01*
X91765545Y-73767238D01*
X91770294Y-73740347D01*
X91776064Y-73728541D01*
X91797108Y-73721471D01*
X91847685Y-73709115D01*
X91924007Y-73692263D01*
X92022289Y-73671703D01*
X92138746Y-73648227D01*
X92269592Y-73622623D01*
X92411042Y-73595681D01*
X92430619Y-73592008D01*
X92573225Y-73564836D01*
X92705737Y-73538700D01*
X92824365Y-73514412D01*
X92925323Y-73492789D01*
X93004823Y-73474643D01*
X93059077Y-73460788D01*
X93084297Y-73452040D01*
X93085261Y-73451304D01*
X93097653Y-73430034D01*
X93120790Y-73382323D01*
X93152624Y-73312966D01*
X93191106Y-73226758D01*
X93234186Y-73128495D01*
X93279816Y-73022973D01*
X93325947Y-72914987D01*
X93370529Y-72809333D01*
X93411514Y-72710806D01*
X93446852Y-72624202D01*
X93474495Y-72554316D01*
X93492393Y-72505944D01*
X93498505Y-72484152D01*
X93496666Y-72473458D01*
X93489895Y-72457184D01*
X93476311Y-72432421D01*
X93454034Y-72396258D01*
X93421185Y-72345785D01*
X93375882Y-72278093D01*
X93316245Y-72190271D01*
X93240394Y-72079410D01*
X93182042Y-71994397D01*
X93071460Y-71833119D01*
X92979273Y-71697985D01*
X92904429Y-71587412D01*
X92845878Y-71499815D01*
X92802569Y-71433610D01*
X92773451Y-71387214D01*
X92757473Y-71359043D01*
X92753439Y-71348320D01*
X92765016Y-71332820D01*
X92798017Y-71296146D01*
X92849848Y-71240996D01*
X92917913Y-71170071D01*
X92999616Y-71086070D01*
X93092364Y-70991695D01*
X93193560Y-70889643D01*
X93214461Y-70868673D01*
X93352356Y-70731336D01*
X93467549Y-70618558D01*
X93560348Y-70530050D01*
X93631064Y-70465524D01*
X93680008Y-70424691D01*
X93707488Y-70407264D01*
X93711066Y-70406530D01*
X93736564Y-70415843D01*
X93784060Y-70441575D01*
X93848022Y-70480420D01*
X93922921Y-70529069D01*
X93973943Y-70563753D01*
X94153297Y-70687703D01*
X94306856Y-70793555D01*
X94436579Y-70882620D01*
X94544424Y-70956208D01*
X94632353Y-71015628D01*
X94702323Y-71062191D01*
X94756295Y-71097205D01*
X94796227Y-71121982D01*
X94824079Y-71137831D01*
X94841811Y-71146061D01*
X94847464Y-71147723D01*
X94873733Y-71143519D01*
X94927252Y-71127329D01*
X95004156Y-71100533D01*
X95100580Y-71064514D01*
X95212657Y-71020653D01*
X95287731Y-70990363D01*
X95430708Y-70931898D01*
X95545441Y-70884459D01*
X95635117Y-70846469D01*
X95702926Y-70816352D01*
X95752058Y-70792531D01*
X95785701Y-70773430D01*
X95807045Y-70757472D01*
X95819279Y-70743081D01*
X95825591Y-70728679D01*
X95826878Y-70723825D01*
X95831950Y-70698990D01*
X95842447Y-70644793D01*
X95857626Y-70565170D01*
X95876743Y-70464057D01*
X95899052Y-70345392D01*
X95923811Y-70213111D01*
X95950274Y-70071152D01*
X95952244Y-70060563D01*
X95983874Y-69892002D01*
X96010443Y-69754043D01*
X96032583Y-69643899D01*
X96050925Y-69558789D01*
X96066100Y-69495926D01*
X96078739Y-69452528D01*
X96089475Y-69425809D01*
X96098937Y-69412986D01*
X96099103Y-69412863D01*
X96124534Y-69406546D01*
X96179145Y-69401171D01*
X96258261Y-69396738D01*
X96357208Y-69393244D01*
X96471312Y-69390691D01*
X96595900Y-69389078D01*
X96726297Y-69388401D01*
X96857829Y-69388663D01*
G36*
X61941830Y-68127132D02*
G01*
X61961861Y-68138566D01*
X61999882Y-68161742D01*
X62074025Y-68205567D01*
X62176353Y-68265401D01*
X62298929Y-68336602D01*
X62433400Y-68414290D01*
X62587551Y-68503167D01*
X62747755Y-68595628D01*
X62900535Y-68683889D01*
X63032414Y-68760164D01*
X63106500Y-68803082D01*
X63216711Y-68866865D01*
X63357021Y-68947871D01*
X63513462Y-69038046D01*
X63672067Y-69129337D01*
X63766900Y-69183848D01*
X63908558Y-69265322D01*
X64081727Y-69365070D01*
X64273953Y-69475909D01*
X64472785Y-69590659D01*
X64665770Y-69702138D01*
X64757500Y-69755170D01*
X64917624Y-69847759D01*
X65066846Y-69934012D01*
X65198419Y-70010033D01*
X65305596Y-70071925D01*
X65381631Y-70115790D01*
X65417900Y-70136658D01*
X65462410Y-70162286D01*
X65543063Y-70208863D01*
X65652043Y-70271871D01*
X65781536Y-70346792D01*
X65923730Y-70429109D01*
X65964000Y-70452429D01*
X66135894Y-70551916D01*
X66323195Y-70660211D01*
X66510579Y-70768462D01*
X66682727Y-70867816D01*
X66808652Y-70940402D01*
X67183404Y-71156234D01*
X67170500Y-77255044D01*
X66929200Y-77394817D01*
X66653320Y-77554584D01*
X66417845Y-77690864D01*
X66219250Y-77805685D01*
X66054014Y-77901074D01*
X65918612Y-77979059D01*
X65809521Y-78041668D01*
X65723217Y-78090929D01*
X65656178Y-78128868D01*
X65604880Y-78157514D01*
X65583000Y-78169551D01*
X65505403Y-78212831D01*
X65444763Y-78248220D01*
X65417900Y-78265487D01*
X65388642Y-78283899D01*
X65322758Y-78323181D01*
X65227705Y-78378956D01*
X65110939Y-78446848D01*
X64986100Y-78518923D01*
X64850548Y-78596938D01*
X64724724Y-78669374D01*
X64617473Y-78731138D01*
X64537640Y-78777135D01*
X64497150Y-78800494D01*
X64437337Y-78835054D01*
X64378041Y-78869300D01*
X64312896Y-78906905D01*
X64235533Y-78951541D01*
X64139586Y-79006883D01*
X64018688Y-79076602D01*
X63866471Y-79164373D01*
X63678000Y-79273042D01*
X63409476Y-79427870D01*
X63180952Y-79559649D01*
X62988415Y-79670698D01*
X62827854Y-79763338D01*
X62695256Y-79839886D01*
X62586608Y-79902664D01*
X62497899Y-79953990D01*
X62425116Y-79996185D01*
X62364248Y-80031567D01*
X62311280Y-80062457D01*
X62262203Y-80091174D01*
X62217500Y-80117397D01*
X62121302Y-80173580D01*
X62036596Y-80222526D01*
X61976612Y-80256609D01*
X61961520Y-80264902D01*
X61933296Y-80273474D01*
X61895934Y-80268764D01*
X61841160Y-80247474D01*
X61760702Y-80206310D01*
X61646286Y-80141976D01*
X61631320Y-80133371D01*
X61339157Y-79965124D01*
X61087168Y-79819966D01*
X60871486Y-79695667D01*
X60688247Y-79589997D01*
X60533582Y-79500725D01*
X60403626Y-79425622D01*
X60294512Y-79362458D01*
X60261700Y-79343437D01*
X60152993Y-79280537D01*
X60013710Y-79200159D01*
X59857350Y-79110081D01*
X59697413Y-79018082D01*
X59643250Y-78986971D01*
X60376000Y-78986971D01*
X60396741Y-79010032D01*
X60452844Y-79051185D01*
X60535130Y-79104095D01*
X60610950Y-79149089D01*
X60718402Y-79210917D01*
X60854989Y-79289712D01*
X61005917Y-79376928D01*
X61156392Y-79464021D01*
X61214200Y-79497523D01*
X61336259Y-79568162D01*
X61441786Y-79628983D01*
X61523479Y-79675799D01*
X61574040Y-79704422D01*
X61587140Y-79711432D01*
X61577823Y-79691099D01*
X61548977Y-79636372D01*
X61505887Y-79557181D01*
X61482559Y-79514950D01*
X61425661Y-79413038D01*
X61371335Y-79316814D01*
X61329213Y-79243310D01*
X61320964Y-79229200D01*
X61248938Y-79106135D01*
X61168222Y-78966926D01*
X61086446Y-78824854D01*
X61011241Y-78693201D01*
X60950238Y-78585248D01*
X60926944Y-78543400D01*
X60878118Y-78458504D01*
X60831786Y-78383817D01*
X60805612Y-78345901D01*
X60761368Y-78288102D01*
X60724980Y-78358601D01*
X60663522Y-78473726D01*
X60590378Y-78604927D01*
X60516720Y-78732549D01*
X60453719Y-78836933D01*
X60447496Y-78846822D01*
X60406909Y-78915771D01*
X60381003Y-78969088D01*
X60376000Y-78986971D01*
X59643250Y-78986971D01*
X59588600Y-78955581D01*
X59455990Y-78879260D01*
X59337934Y-78810926D01*
X59241761Y-78754851D01*
X59174800Y-78715309D01*
X59144381Y-78696576D01*
X59144100Y-78696372D01*
X59109534Y-78674926D01*
X59045319Y-78638008D01*
X58979000Y-78601130D01*
X58917043Y-78566492D01*
X58819993Y-78511427D01*
X58696689Y-78441014D01*
X58555968Y-78360333D01*
X58406669Y-78274462D01*
X58322494Y-78225900D01*
X59004405Y-78225900D01*
X59239352Y-78360153D01*
X59346881Y-78421755D01*
X59483550Y-78500285D01*
X59634537Y-78587214D01*
X59785021Y-78674014D01*
X59842350Y-78707132D01*
X59965260Y-78777026D01*
X60072793Y-78836006D01*
X60157368Y-78880088D01*
X60211401Y-78905287D01*
X60227275Y-78909428D01*
X60247710Y-78883550D01*
X60284728Y-78826017D01*
X60328178Y-78752949D01*
X60376382Y-78669035D01*
X60417907Y-78596523D01*
X60440933Y-78556100D01*
X60469223Y-78507240D01*
X60512907Y-78433012D01*
X60550987Y-78368872D01*
X60591745Y-78296584D01*
X60617338Y-78243455D01*
X60621508Y-78225900D01*
X60918028Y-78225900D01*
X61145784Y-78619600D01*
X61227265Y-78761094D01*
X61307011Y-78900728D01*
X61378555Y-79027097D01*
X61435432Y-79128797D01*
X61462623Y-79178400D01*
X61510639Y-79264968D01*
X61553023Y-79337145D01*
X61581065Y-79380134D01*
X61582211Y-79381600D01*
X61609722Y-79422723D01*
X61651820Y-79492981D01*
X61696570Y-79572100D01*
X61773859Y-79710208D01*
X61832393Y-79806775D01*
X61876475Y-79865523D01*
X61910410Y-79890173D01*
X61938502Y-79884451D01*
X61965054Y-79852077D01*
X61982890Y-79819750D01*
X62020476Y-79749617D01*
X62037834Y-79718783D01*
X62225605Y-79718783D01*
X62310452Y-79667470D01*
X62356503Y-79640297D01*
X62439177Y-79592196D01*
X62551010Y-79527481D01*
X62684539Y-79450468D01*
X62832302Y-79365470D01*
X62916000Y-79317417D01*
X63062880Y-79233049D01*
X63194499Y-79157260D01*
X63304641Y-79093643D01*
X63387088Y-79045796D01*
X63435623Y-79017312D01*
X63446007Y-79010913D01*
X63437285Y-78987411D01*
X63407210Y-78927378D01*
X63359753Y-78838319D01*
X63298889Y-78727739D01*
X63251550Y-78643518D01*
X63175859Y-78510483D01*
X63120824Y-78416485D01*
X63082213Y-78356270D01*
X63055797Y-78324587D01*
X63037348Y-78316184D01*
X63022635Y-78325808D01*
X63010189Y-78343792D01*
X62982538Y-78389628D01*
X62936442Y-78467893D01*
X62878721Y-78566944D01*
X62826241Y-78657700D01*
X62753576Y-78783678D01*
X62666801Y-78933915D01*
X62577293Y-79088722D01*
X62503330Y-79216500D01*
X62433732Y-79337480D01*
X62368938Y-79451606D01*
X62315514Y-79547215D01*
X62280024Y-79612645D01*
X62276188Y-79620041D01*
X62225605Y-79718783D01*
X62037834Y-79718783D01*
X62065128Y-79670301D01*
X62070526Y-79661000D01*
X62124271Y-79568596D01*
X62191868Y-79452060D01*
X62268427Y-79319857D01*
X62349059Y-79180451D01*
X62428873Y-79042303D01*
X62502980Y-78913880D01*
X62566490Y-78803643D01*
X62614513Y-78720057D01*
X62642161Y-78671586D01*
X62642828Y-78670400D01*
X62679522Y-78607137D01*
X62707681Y-78562013D01*
X62711848Y-78556100D01*
X62740508Y-78511325D01*
X62778317Y-78444133D01*
X62818340Y-78368070D01*
X62853642Y-78296678D01*
X62877286Y-78243503D01*
X62881429Y-78227510D01*
X63195400Y-78227510D01*
X63207211Y-78253588D01*
X63239161Y-78313673D01*
X63286021Y-78398611D01*
X63342566Y-78499249D01*
X63403566Y-78606431D01*
X63463796Y-78711004D01*
X63518027Y-78803814D01*
X63561032Y-78875706D01*
X63587585Y-78917526D01*
X63593345Y-78924400D01*
X63616985Y-78912250D01*
X63677275Y-78878534D01*
X63767023Y-78827347D01*
X63879041Y-78762789D01*
X63989230Y-78698809D01*
X64136627Y-78613150D01*
X64288884Y-78525016D01*
X64432286Y-78442323D01*
X64553115Y-78372989D01*
X64605100Y-78343349D01*
X64833700Y-78213480D01*
X64014550Y-78213340D01*
X63816352Y-78213732D01*
X63635432Y-78214910D01*
X63477776Y-78216771D01*
X63349374Y-78219210D01*
X63256212Y-78222124D01*
X63204279Y-78225409D01*
X63195400Y-78227510D01*
X62881429Y-78227510D01*
X62882777Y-78222310D01*
X62856077Y-78220316D01*
X62784134Y-78218798D01*
X62672501Y-78217774D01*
X62526733Y-78217260D01*
X62352383Y-78217274D01*
X62155005Y-78217833D01*
X61940155Y-78218954D01*
X61895545Y-78219248D01*
X60918028Y-78225900D01*
X60621508Y-78225900D01*
X60622326Y-78222460D01*
X60595428Y-78220223D01*
X60523878Y-78218577D01*
X60413819Y-78217546D01*
X60271396Y-78217155D01*
X60102753Y-78217429D01*
X59914035Y-78218392D01*
X59808373Y-78219187D01*
X59004405Y-78225900D01*
X58322494Y-78225900D01*
X58257631Y-78188480D01*
X58117693Y-78107469D01*
X57995694Y-78036505D01*
X57980667Y-78027719D01*
X58685311Y-78027719D01*
X58698067Y-78036497D01*
X58731707Y-78043668D01*
X58790377Y-78049372D01*
X58878221Y-78053748D01*
X58999384Y-78056938D01*
X59158010Y-78059080D01*
X59358246Y-78060316D01*
X59604234Y-78060785D01*
X59664002Y-78060800D01*
X60908095Y-78060800D01*
X62915132Y-78060800D01*
X63165856Y-78060800D01*
X64126778Y-78060411D01*
X64343766Y-78059769D01*
X64545396Y-78058112D01*
X64725876Y-78055565D01*
X64879412Y-78052257D01*
X65000213Y-78048316D01*
X65082485Y-78043870D01*
X65120436Y-78039046D01*
X65121724Y-78038456D01*
X65132891Y-78030501D01*
X65138977Y-78019681D01*
X65137511Y-78001067D01*
X65126020Y-77969731D01*
X65102034Y-77920743D01*
X65063080Y-77849173D01*
X65006687Y-77750093D01*
X64930383Y-77618572D01*
X64831697Y-77449683D01*
X64795431Y-77387700D01*
X64708876Y-77239428D01*
X64623295Y-77092210D01*
X64545019Y-76956985D01*
X64480383Y-76844691D01*
X64438811Y-76771750D01*
X64389935Y-76687514D01*
X64350300Y-76623525D01*
X64326416Y-76590139D01*
X64323027Y-76587600D01*
X64295648Y-76600065D01*
X64246616Y-76629925D01*
X64184440Y-76662556D01*
X64098452Y-76698259D01*
X64050733Y-76715049D01*
X63994216Y-76734829D01*
X63951442Y-76756896D01*
X63914496Y-76789918D01*
X63875461Y-76842562D01*
X63826422Y-76923496D01*
X63770414Y-77021974D01*
X63691892Y-77159981D01*
X63595837Y-77327035D01*
X63490725Y-77508542D01*
X63385028Y-77689909D01*
X63287221Y-77856545D01*
X63215100Y-77978250D01*
X63165856Y-78060800D01*
X62915132Y-78060800D01*
X62868261Y-77978250D01*
X62838434Y-77926327D01*
X62789145Y-77841194D01*
X62726572Y-77733492D01*
X62656892Y-77613868D01*
X62636417Y-77578774D01*
X62566215Y-77458341D01*
X62501707Y-77347404D01*
X62448944Y-77256384D01*
X62413975Y-77195705D01*
X62407914Y-77185074D01*
X62368260Y-77116150D01*
X62318402Y-77030779D01*
X62296711Y-76994000D01*
X62248439Y-76910469D01*
X62204470Y-76831152D01*
X62189850Y-76803500D01*
X62150661Y-76727300D01*
X61909414Y-76729698D01*
X61668168Y-76732096D01*
X61457831Y-77097998D01*
X61374192Y-77243253D01*
X61286931Y-77394389D01*
X61204558Y-77536688D01*
X61135589Y-77655431D01*
X61113974Y-77692500D01*
X61053783Y-77796308D01*
X60999734Y-77890875D01*
X60959306Y-77963049D01*
X60944275Y-77990950D01*
X60908095Y-78060800D01*
X59664002Y-78060800D01*
X59879883Y-78060452D01*
X60078961Y-78059463D01*
X60255721Y-78057910D01*
X60404650Y-78055871D01*
X60520234Y-78053425D01*
X60596958Y-78050650D01*
X60629309Y-78047623D01*
X60630000Y-78047104D01*
X60617915Y-78021501D01*
X60584599Y-77959961D01*
X60534460Y-77870402D01*
X60471905Y-77760743D01*
X60435613Y-77697854D01*
X60358336Y-77564241D01*
X60281308Y-77430675D01*
X60212214Y-77310513D01*
X60158744Y-77217109D01*
X60147408Y-77197200D01*
X60061643Y-77046378D01*
X59996429Y-76933557D01*
X59946964Y-76852713D01*
X59908444Y-76797826D01*
X59876069Y-76762873D01*
X59845036Y-76741833D01*
X59842560Y-76740889D01*
X60087348Y-76740889D01*
X60088324Y-76771073D01*
X60111870Y-76831008D01*
X60152912Y-76907830D01*
X60153770Y-76909271D01*
X60319934Y-77190982D01*
X60488698Y-77482539D01*
X60631872Y-77734594D01*
X60687399Y-77832462D01*
X60733000Y-77911032D01*
X60763531Y-77961557D01*
X60773827Y-77975894D01*
X60787319Y-77953712D01*
X60821503Y-77895585D01*
X60871674Y-77809565D01*
X60933126Y-77703701D01*
X60954317Y-77667100D01*
X61036851Y-77524461D01*
X61133160Y-77358015D01*
X61231577Y-77187927D01*
X61320435Y-77034358D01*
X61324840Y-77026745D01*
X61392176Y-76909122D01*
X61449377Y-76806819D01*
X61492016Y-76727941D01*
X61515671Y-76680592D01*
X61516783Y-76677433D01*
X62281017Y-76677433D01*
X62340304Y-76765866D01*
X62384334Y-76835472D01*
X62439518Y-76928015D01*
X62486346Y-77010021D01*
X62578507Y-77174388D01*
X62671071Y-77337552D01*
X62760552Y-77493558D01*
X62843466Y-77636450D01*
X62916330Y-77760274D01*
X62975659Y-77859074D01*
X63017969Y-77926896D01*
X63039776Y-77957783D01*
X63041574Y-77959039D01*
X63062229Y-77939222D01*
X63095499Y-77890386D01*
X63103816Y-77876489D01*
X63136026Y-77820715D01*
X63185880Y-77733672D01*
X63245984Y-77628290D01*
X63296123Y-77540100D01*
X63372898Y-77405493D01*
X63461814Y-77250577D01*
X63549345Y-77098881D01*
X63595151Y-77019917D01*
X63653955Y-76915848D01*
X63700535Y-76827652D01*
X63730294Y-76764460D01*
X63738635Y-76735406D01*
X63738503Y-76735151D01*
X63708114Y-76718556D01*
X63648393Y-76701946D01*
X63637018Y-76699683D01*
X63554170Y-76664759D01*
X63462967Y-76596392D01*
X63376224Y-76507321D01*
X63306756Y-76410281D01*
X63273006Y-76337862D01*
X63238068Y-76232000D01*
X62667295Y-76232000D01*
X62585392Y-76359635D01*
X62516680Y-76451951D01*
X62433776Y-76543585D01*
X62392253Y-76582352D01*
X62281017Y-76677433D01*
X61516783Y-76677433D01*
X61518999Y-76671145D01*
X61500821Y-76644590D01*
X61454921Y-76600819D01*
X61429121Y-76579387D01*
X61365243Y-76517873D01*
X61294150Y-76433918D01*
X61247726Y-76369837D01*
X61156207Y-76232000D01*
X60586101Y-76232000D01*
X60544247Y-76341593D01*
X60487405Y-76446201D01*
X60403479Y-76548503D01*
X60306765Y-76633908D01*
X60211562Y-76687827D01*
X60201568Y-76691282D01*
X60135661Y-76715561D01*
X60091537Y-76737634D01*
X60087348Y-76740889D01*
X59842560Y-76740889D01*
X59810543Y-76728685D01*
X59767788Y-76717407D01*
X59764012Y-76716442D01*
X59676468Y-76687078D01*
X59599651Y-76649918D01*
X59576799Y-76634569D01*
X59525613Y-76604081D01*
X59489134Y-76599061D01*
X59488019Y-76599670D01*
X59465439Y-76627438D01*
X59425550Y-76689137D01*
X59375143Y-76773977D01*
X59347078Y-76823570D01*
X59293476Y-76919318D01*
X59247181Y-77001010D01*
X59215146Y-77056419D01*
X59206808Y-77070200D01*
X59184461Y-77107521D01*
X59143576Y-77177656D01*
X59090736Y-77269265D01*
X59051986Y-77336900D01*
X58977984Y-77466063D01*
X58895264Y-77609903D01*
X58818377Y-77743133D01*
X58796991Y-77780069D01*
X58744959Y-77875164D01*
X58706403Y-77956012D01*
X58686370Y-78011421D01*
X58685311Y-78027719D01*
X57980667Y-78027719D01*
X57950300Y-78009964D01*
X57906052Y-77984236D01*
X57825479Y-77937579D01*
X57716266Y-77874435D01*
X57586098Y-77799246D01*
X57442660Y-77716456D01*
X57391500Y-77686942D01*
X57241145Y-77600100D01*
X57097579Y-77516972D01*
X56969505Y-77442612D01*
X56865625Y-77382076D01*
X56794644Y-77340418D01*
X56781900Y-77332855D01*
X56654900Y-77257143D01*
X56654900Y-77026521D01*
X56979623Y-77026521D01*
X56980381Y-77028963D01*
X57006951Y-77055746D01*
X57067251Y-77099317D01*
X57150429Y-77152107D01*
X57192303Y-77176780D01*
X57284468Y-77229840D01*
X57407671Y-77300785D01*
X57548932Y-77382139D01*
X57695273Y-77466427D01*
X57772500Y-77510912D01*
X57897957Y-77582604D01*
X58008181Y-77644496D01*
X58095655Y-77692457D01*
X58152865Y-77722354D01*
X58171890Y-77730493D01*
X58169801Y-77710947D01*
X58146072Y-77659901D01*
X58110976Y-77597250D01*
X58075023Y-77536137D01*
X58018615Y-77439446D01*
X57946652Y-77315613D01*
X57864037Y-77173079D01*
X57775671Y-77020283D01*
X57736985Y-76953284D01*
X57650788Y-76804354D01*
X57571052Y-76667390D01*
X57501944Y-76549485D01*
X57447630Y-76457731D01*
X57412276Y-76399224D01*
X57402733Y-76384241D01*
X57385148Y-76361162D01*
X57368537Y-76354303D01*
X57347646Y-76369411D01*
X57317220Y-76412233D01*
X57272007Y-76488518D01*
X57214597Y-76590057D01*
X57151245Y-76701338D01*
X57092079Y-76802781D01*
X57044178Y-76882395D01*
X57016842Y-76925051D01*
X56986696Y-76982377D01*
X56979623Y-77026521D01*
X56654900Y-77026521D01*
X56654900Y-76167000D01*
X56972400Y-76167000D01*
X56972976Y-76319597D01*
X56974582Y-76453215D01*
X56977034Y-76560167D01*
X56980149Y-76632764D01*
X56983743Y-76663315D01*
X56984269Y-76663800D01*
X57001136Y-76643293D01*
X57037703Y-76587733D01*
X57088266Y-76506057D01*
X57136669Y-76425017D01*
X57193572Y-76327319D01*
X57221771Y-76277720D01*
X57531200Y-76277720D01*
X57544351Y-76330860D01*
X57556648Y-76348888D01*
X57576913Y-76378245D01*
X57617716Y-76444308D01*
X57674575Y-76539573D01*
X57743008Y-76656536D01*
X57813800Y-76779418D01*
X57890974Y-76914290D01*
X57962308Y-77038867D01*
X58022802Y-77144425D01*
X58067457Y-77222238D01*
X58089603Y-77260700D01*
X58126664Y-77324910D01*
X58176349Y-77411209D01*
X58213935Y-77476600D01*
X58260193Y-77556407D01*
X58299061Y-77622171D01*
X58318817Y-77654400D01*
X58345748Y-77699763D01*
X58383771Y-77767906D01*
X58397946Y-77794100D01*
X58456004Y-77886291D01*
X58505288Y-77929532D01*
X58521800Y-77933322D01*
X58538154Y-77912582D01*
X58574806Y-77855227D01*
X58627088Y-77768887D01*
X58690337Y-77661191D01*
X58725000Y-77601048D01*
X58802593Y-77465585D01*
X58881328Y-77328125D01*
X58953037Y-77202932D01*
X59009550Y-77104267D01*
X59019562Y-77086786D01*
X59080979Y-76980023D01*
X59155300Y-76851505D01*
X59229750Y-76723310D01*
X59255823Y-76678576D01*
X59315201Y-76575017D01*
X59351627Y-76504180D01*
X59368680Y-76455464D01*
X59369939Y-76418271D01*
X59358985Y-76382000D01*
X59357333Y-76377962D01*
X59341469Y-76339565D01*
X59325488Y-76308563D01*
X59304173Y-76284166D01*
X59272303Y-76265583D01*
X59224662Y-76252027D01*
X59156031Y-76242705D01*
X59061190Y-76236829D01*
X58934922Y-76233609D01*
X58772009Y-76232255D01*
X58567231Y-76231977D01*
X58392985Y-76232000D01*
X58160830Y-76232130D01*
X57974468Y-76232698D01*
X57828896Y-76233970D01*
X57719106Y-76236211D01*
X57640094Y-76239686D01*
X57586854Y-76244661D01*
X57554380Y-76251402D01*
X57537667Y-76260174D01*
X57531709Y-76271243D01*
X57531200Y-76277720D01*
X57221771Y-76277720D01*
X57239416Y-76246685D01*
X57268915Y-76192538D01*
X57277200Y-76174503D01*
X57265101Y-76144990D01*
X57244685Y-76105662D01*
X57502378Y-76105662D01*
X59271100Y-76092300D01*
X59278451Y-75899186D01*
X59280904Y-75811020D01*
X59277399Y-75745507D01*
X59263561Y-75687933D01*
X59235014Y-75623588D01*
X59187383Y-75537758D01*
X59153816Y-75480086D01*
X59104513Y-75395555D01*
X59059496Y-75318035D01*
X59014031Y-75239273D01*
X58963387Y-75151019D01*
X58902829Y-75045019D01*
X58827627Y-74913022D01*
X58733046Y-74746777D01*
X58710994Y-74708000D01*
X58653004Y-74607918D01*
X58599586Y-74519064D01*
X58558746Y-74454612D01*
X58545208Y-74435207D01*
X58521247Y-74406993D01*
X58499915Y-74397862D01*
X58475485Y-74413220D01*
X58442230Y-74458474D01*
X58394424Y-74539030D01*
X58348156Y-74621251D01*
X58305717Y-74696372D01*
X58243223Y-74805940D01*
X58166117Y-74940464D01*
X58079841Y-75090454D01*
X57989839Y-75246420D01*
X57963364Y-75292200D01*
X57874176Y-75446715D01*
X57787964Y-75596770D01*
X57709952Y-75733224D01*
X57645359Y-75846935D01*
X57599409Y-75928762D01*
X57589571Y-75946581D01*
X57502378Y-76105662D01*
X57244685Y-76105662D01*
X57233193Y-76083527D01*
X57188056Y-76001569D01*
X57136273Y-75910572D01*
X57084423Y-75821992D01*
X57039090Y-75747285D01*
X57006853Y-75697908D01*
X56995794Y-75684660D01*
X56987857Y-75703911D01*
X56981298Y-75768771D01*
X56976371Y-75874063D01*
X56973325Y-76014609D01*
X56972400Y-76167000D01*
X56654900Y-76167000D01*
X56654900Y-74276200D01*
X56972400Y-74276200D01*
X56972400Y-75322435D01*
X57045560Y-75453367D01*
X57141765Y-75624890D01*
X57216762Y-75756539D01*
X57273697Y-75853024D01*
X57315718Y-75919053D01*
X57345971Y-75959332D01*
X57367602Y-75978571D01*
X57383760Y-75981478D01*
X57394540Y-75975476D01*
X57424810Y-75938068D01*
X57429600Y-75921660D01*
X57442982Y-75885188D01*
X57475302Y-75831283D01*
X57476524Y-75829521D01*
X57514592Y-75770004D01*
X57563861Y-75686775D01*
X57600085Y-75622400D01*
X57647485Y-75537550D01*
X57710348Y-75427122D01*
X57778301Y-75309278D01*
X57810447Y-75254100D01*
X57874892Y-75143408D01*
X57937330Y-75035268D01*
X57988409Y-74945915D01*
X58007971Y-74911200D01*
X58053316Y-74831760D01*
X58112796Y-74729933D01*
X58174130Y-74626728D01*
X58178714Y-74619100D01*
X58235579Y-74523080D01*
X58287518Y-74432825D01*
X58324503Y-74365797D01*
X58328181Y-74358750D01*
X58365810Y-74285700D01*
X58648800Y-74285700D01*
X58660517Y-74314012D01*
X58690098Y-74370928D01*
X58729188Y-74441540D01*
X58769430Y-74510943D01*
X58802468Y-74564229D01*
X58814328Y-74581000D01*
X58841091Y-74621464D01*
X58882921Y-74692059D01*
X58931093Y-74778030D01*
X58934454Y-74784200D01*
X59002229Y-74907385D01*
X59071309Y-75030391D01*
X59137061Y-75145259D01*
X59194852Y-75244029D01*
X59240049Y-75318742D01*
X59268021Y-75361439D01*
X59274478Y-75368400D01*
X59277215Y-75344222D01*
X59279635Y-75276579D01*
X59281612Y-75172803D01*
X59283021Y-75040230D01*
X59283736Y-74886191D01*
X59283800Y-74822300D01*
X59283800Y-74276200D01*
X58966300Y-74276200D01*
X58846020Y-74276912D01*
X58746647Y-74278856D01*
X58677799Y-74281745D01*
X58649094Y-74285290D01*
X58648800Y-74285700D01*
X58365810Y-74285700D01*
X58370704Y-74276200D01*
X56972400Y-74276200D01*
X56654900Y-74276200D01*
X56654900Y-73079706D01*
X56972400Y-73079706D01*
X56972400Y-74123800D01*
X58373206Y-74123800D01*
X58362135Y-74104750D01*
X58649364Y-74104750D01*
X58672936Y-74111965D01*
X58737709Y-74117926D01*
X58834090Y-74122057D01*
X58952483Y-74123782D01*
X58966300Y-74123800D01*
X59283800Y-74123800D01*
X59283800Y-73573466D01*
X59283786Y-73568460D01*
X59464551Y-73568460D01*
X59465052Y-73860223D01*
X59466118Y-74154619D01*
X59467728Y-74446990D01*
X59469865Y-74732678D01*
X59472509Y-75007025D01*
X59475642Y-75265372D01*
X59479244Y-75503062D01*
X59483297Y-75715435D01*
X59487781Y-75897834D01*
X59492679Y-76045600D01*
X59497970Y-76154076D01*
X59503636Y-76218603D01*
X59506426Y-76232432D01*
X59569578Y-76354826D01*
X59662567Y-76455986D01*
X59772019Y-76521601D01*
X59779100Y-76524194D01*
X59875953Y-76552833D01*
X59955149Y-76558385D01*
X60043923Y-76541533D01*
X60078200Y-76531701D01*
X60209213Y-76467025D01*
X60311853Y-76362568D01*
X60381012Y-76223709D01*
X60386050Y-76207599D01*
X60394194Y-76175450D01*
X60401191Y-76135382D01*
X60404670Y-76105000D01*
X60604600Y-76105000D01*
X60858600Y-76105000D01*
X60981019Y-76103295D01*
X61059584Y-76097583D01*
X61101147Y-76086965D01*
X61112600Y-76071683D01*
X61106383Y-76032745D01*
X61089873Y-75958914D01*
X61066279Y-75864271D01*
X61059046Y-75836733D01*
X61037064Y-75752569D01*
X61005389Y-75629402D01*
X60966642Y-75477514D01*
X60923441Y-75307188D01*
X60878408Y-75128706D01*
X60858994Y-75051460D01*
X60712494Y-74467821D01*
X60658642Y-74556160D01*
X60642996Y-74583927D01*
X60630710Y-74614049D01*
X60621379Y-74652688D01*
X60614597Y-74706011D01*
X60609957Y-74780180D01*
X60607052Y-74881361D01*
X60605477Y-75015717D01*
X60604826Y-75189413D01*
X60604694Y-75374750D01*
X60604600Y-76105000D01*
X60404670Y-76105000D01*
X60407119Y-76083613D01*
X60412059Y-76016364D01*
X60416091Y-75929852D01*
X60419295Y-75820298D01*
X60421752Y-75683919D01*
X60423541Y-75516935D01*
X60424743Y-75315566D01*
X60425437Y-75076029D01*
X60425704Y-74794545D01*
X60425624Y-74467332D01*
X60425532Y-74344589D01*
X60425509Y-74288900D01*
X60604600Y-74288900D01*
X60617300Y-74301600D01*
X60630000Y-74288900D01*
X60617300Y-74276200D01*
X60604600Y-74288900D01*
X60425509Y-74288900D01*
X60425409Y-74053372D01*
X60425536Y-73777353D01*
X60425895Y-73520687D01*
X60426469Y-73287528D01*
X60427240Y-73082029D01*
X60428190Y-72908346D01*
X60429303Y-72770632D01*
X60430561Y-72673042D01*
X60431947Y-72619729D01*
X60432788Y-72610745D01*
X60440428Y-72632940D01*
X60459163Y-72699930D01*
X60487827Y-72807214D01*
X60525253Y-72950288D01*
X60570276Y-73124651D01*
X60621729Y-73325799D01*
X60678446Y-73549231D01*
X60739261Y-73790444D01*
X60767421Y-73902661D01*
X60865092Y-74291965D01*
X60951436Y-74634968D01*
X61027259Y-74934699D01*
X61093369Y-75194184D01*
X61150576Y-75416454D01*
X61199685Y-75604535D01*
X61241507Y-75761455D01*
X61276847Y-75890244D01*
X61306515Y-75993929D01*
X61331318Y-76075538D01*
X61352064Y-76138099D01*
X61369561Y-76184641D01*
X61384617Y-76218191D01*
X61385863Y-76220643D01*
X61483146Y-76362674D01*
X61607516Y-76468002D01*
X61732290Y-76524743D01*
X61815603Y-76548362D01*
X61875431Y-76558960D01*
X61933018Y-76557138D01*
X62009608Y-76543500D01*
X62054865Y-76533898D01*
X62195566Y-76478901D01*
X62319864Y-76382105D01*
X62418248Y-76252043D01*
X62456037Y-76174026D01*
X62472948Y-76123146D01*
X62485444Y-76080738D01*
X62695981Y-76080738D01*
X62711044Y-76093715D01*
X62751627Y-76101043D01*
X62826227Y-76104283D01*
X62939688Y-76105000D01*
X63195400Y-76105000D01*
X63195400Y-75367138D01*
X63195028Y-75147234D01*
X63193722Y-74972326D01*
X63191199Y-74836612D01*
X63187173Y-74734292D01*
X63181361Y-74659566D01*
X63173477Y-74606634D01*
X63163237Y-74569693D01*
X63155427Y-74551978D01*
X63126706Y-74502830D01*
X63108286Y-74482902D01*
X63106958Y-74483389D01*
X63098593Y-74509460D01*
X63079814Y-74577751D01*
X63052477Y-74681187D01*
X63018443Y-74812694D01*
X62979566Y-74965195D01*
X62957940Y-75050900D01*
X62886506Y-75334333D01*
X62826822Y-75569760D01*
X62778544Y-75758513D01*
X62741329Y-75901925D01*
X62714834Y-76001329D01*
X62698716Y-76058057D01*
X62697941Y-76060550D01*
X62695981Y-76080738D01*
X62485444Y-76080738D01*
X62500054Y-76031158D01*
X62535198Y-75906225D01*
X62576223Y-75756514D01*
X62620973Y-75590190D01*
X62667290Y-75415420D01*
X62713018Y-75240369D01*
X62755999Y-75073202D01*
X62794078Y-74922086D01*
X62825097Y-74795186D01*
X62846900Y-74700669D01*
X62853322Y-74669900D01*
X62864543Y-74621441D01*
X62885002Y-74540308D01*
X62910564Y-74442834D01*
X62914373Y-74428600D01*
X62945942Y-74309116D01*
X62978354Y-74183600D01*
X63002981Y-74085700D01*
X63019199Y-74020378D01*
X63045770Y-73914038D01*
X63080628Y-73774921D01*
X63121705Y-73611265D01*
X63166935Y-73431312D01*
X63213195Y-73247500D01*
X63385900Y-72561700D01*
X63398600Y-74377800D01*
X63401007Y-74678093D01*
X63403898Y-74964284D01*
X63407192Y-75232200D01*
X63410811Y-75477668D01*
X63414675Y-75696514D01*
X63418704Y-75884567D01*
X63422820Y-76037652D01*
X63426943Y-76151598D01*
X63430993Y-76222231D01*
X63434106Y-76244700D01*
X63519229Y-76382525D01*
X63628594Y-76480670D01*
X63754764Y-76537404D01*
X63890302Y-76551001D01*
X64027772Y-76519729D01*
X64150882Y-76447087D01*
X64424329Y-76447087D01*
X64502014Y-76579727D01*
X64541579Y-76647544D01*
X64600208Y-76748375D01*
X64671535Y-76871258D01*
X64749196Y-77005230D01*
X64795600Y-77085365D01*
X64872293Y-77217829D01*
X64944755Y-77342923D01*
X65007150Y-77450578D01*
X65053642Y-77530724D01*
X65072242Y-77562731D01*
X65166081Y-77725845D01*
X65236424Y-77852241D01*
X65249545Y-77876650D01*
X65286059Y-77925352D01*
X65322804Y-77925382D01*
X65354650Y-77895397D01*
X65389112Y-77846084D01*
X65427410Y-77781195D01*
X65427611Y-77780824D01*
X65452558Y-77736163D01*
X65459887Y-77723283D01*
X65649645Y-77723283D01*
X65653156Y-77730600D01*
X65684947Y-77717940D01*
X65744196Y-77685318D01*
X65794809Y-77654400D01*
X65862318Y-77612724D01*
X65910587Y-77585046D01*
X65925901Y-77578200D01*
X65950680Y-77566027D01*
X66010417Y-77532799D01*
X66096418Y-77483446D01*
X66199991Y-77422902D01*
X66210769Y-77416547D01*
X66338524Y-77341375D01*
X66471788Y-77263325D01*
X66592948Y-77192695D01*
X66668850Y-77148727D01*
X66752987Y-77098214D01*
X66816900Y-77056023D01*
X66850274Y-77029114D01*
X66852832Y-77024629D01*
X66839874Y-76993416D01*
X66808267Y-76940085D01*
X66801982Y-76930500D01*
X66769122Y-76877643D01*
X66718910Y-76792792D01*
X66658621Y-76688383D01*
X66605299Y-76594281D01*
X66547129Y-76492610D01*
X66497524Y-76409508D01*
X66461842Y-76353710D01*
X66445595Y-76333931D01*
X66427653Y-76354318D01*
X66392472Y-76408632D01*
X66346934Y-76486096D01*
X66336280Y-76505050D01*
X66293082Y-76581678D01*
X66229132Y-76694017D01*
X66149160Y-76833828D01*
X66057897Y-76992876D01*
X65960075Y-77162924D01*
X65860423Y-77335736D01*
X65763674Y-77503075D01*
X65694343Y-77622650D01*
X65662467Y-77684194D01*
X65649645Y-77723283D01*
X65459887Y-77723283D01*
X65497505Y-77657176D01*
X65557173Y-77553012D01*
X65626282Y-77432818D01*
X65699554Y-77305743D01*
X65771710Y-77180935D01*
X65837472Y-77067543D01*
X65891559Y-76974714D01*
X65928694Y-76911596D01*
X65940265Y-76892400D01*
X65964222Y-76851450D01*
X66003861Y-76781493D01*
X66048253Y-76701900D01*
X66113298Y-76584885D01*
X66159923Y-76502545D01*
X66194017Y-76444949D01*
X66221471Y-76402165D01*
X66248174Y-76364261D01*
X66249750Y-76362104D01*
X66274319Y-76328116D01*
X66290364Y-76300571D01*
X66293546Y-76278802D01*
X66279526Y-76262146D01*
X66243966Y-76249935D01*
X66182526Y-76241506D01*
X66090869Y-76236192D01*
X65964654Y-76233328D01*
X65799544Y-76232249D01*
X65591200Y-76232289D01*
X65405635Y-76232650D01*
X64517070Y-76234412D01*
X64470699Y-76340749D01*
X64424329Y-76447087D01*
X64150882Y-76447087D01*
X64159738Y-76441862D01*
X64185985Y-76419491D01*
X64258219Y-76339893D01*
X64299939Y-76250333D01*
X64313178Y-76198608D01*
X64318335Y-76156972D01*
X66540270Y-76156972D01*
X66549724Y-76186378D01*
X66579486Y-76247284D01*
X66623271Y-76328789D01*
X66674791Y-76419994D01*
X66727761Y-76509998D01*
X66775892Y-76587900D01*
X66812899Y-76642800D01*
X66832495Y-76663798D01*
X66832575Y-76663800D01*
X66838753Y-76639661D01*
X66844181Y-76572291D01*
X66848558Y-76469254D01*
X66851581Y-76338117D01*
X66852950Y-76186444D01*
X66853000Y-76150719D01*
X66851905Y-75975822D01*
X66848755Y-75835407D01*
X66843747Y-75733627D01*
X66837081Y-75674637D01*
X66829614Y-75661769D01*
X66808838Y-75691711D01*
X66770109Y-75754104D01*
X66720232Y-75837300D01*
X66666014Y-75929651D01*
X66614259Y-76019508D01*
X66571775Y-76095224D01*
X66545367Y-76145151D01*
X66540270Y-76156972D01*
X64318335Y-76156972D01*
X64318751Y-76153620D01*
X64321544Y-76106188D01*
X64541600Y-76106188D01*
X65404478Y-76104335D01*
X65608818Y-76103281D01*
X65796667Y-76101128D01*
X65962069Y-76098038D01*
X66099067Y-76094170D01*
X66201707Y-76089684D01*
X66264032Y-76084740D01*
X66280774Y-76080774D01*
X66274906Y-76047890D01*
X66243499Y-75977576D01*
X66189078Y-75874745D01*
X66114169Y-75744308D01*
X66068810Y-75668605D01*
X66042922Y-75624801D01*
X65996750Y-75545554D01*
X65935290Y-75439484D01*
X65863540Y-75315211D01*
X65798900Y-75202938D01*
X65722436Y-75070078D01*
X65652163Y-74948200D01*
X65593052Y-74845913D01*
X65550078Y-74771823D01*
X65530062Y-74737632D01*
X65494540Y-74676332D01*
X65447695Y-74593628D01*
X65419370Y-74542900D01*
X65378496Y-74469550D01*
X65347127Y-74413852D01*
X65335323Y-74393394D01*
X65313773Y-74392194D01*
X65274697Y-74432916D01*
X65217105Y-74516895D01*
X65140011Y-74645467D01*
X65111594Y-74695300D01*
X65057992Y-74789736D01*
X65011865Y-74870182D01*
X64980334Y-74924251D01*
X64972853Y-74936600D01*
X64950048Y-74974842D01*
X64907287Y-75048258D01*
X64849740Y-75147872D01*
X64782575Y-75264703D01*
X64710960Y-75389775D01*
X64640063Y-75514108D01*
X64614610Y-75558900D01*
X64577368Y-75631173D01*
X64555512Y-75697298D01*
X64545077Y-75775706D01*
X64542096Y-75884828D01*
X64542060Y-75896044D01*
X64541600Y-76106188D01*
X64321544Y-76106188D01*
X64323505Y-76072914D01*
X64327457Y-75954834D01*
X64330619Y-75797724D01*
X64333007Y-75599927D01*
X64334636Y-75359787D01*
X64335521Y-75075650D01*
X64335675Y-74745858D01*
X64335115Y-74368756D01*
X64334842Y-74276200D01*
X64541600Y-74276200D01*
X64542786Y-75381100D01*
X64612043Y-75260377D01*
X64652119Y-75190650D01*
X64709832Y-75090407D01*
X64777416Y-74973128D01*
X64846136Y-74853977D01*
X64917688Y-74729732D01*
X64988743Y-74605936D01*
X65050828Y-74497379D01*
X65093544Y-74422250D01*
X65165576Y-74294841D01*
X65456094Y-74294841D01*
X65468454Y-74326947D01*
X65499185Y-74383313D01*
X65511202Y-74403200D01*
X65541924Y-74454310D01*
X65592578Y-74540224D01*
X65657764Y-74651710D01*
X65732080Y-74779537D01*
X65793575Y-74885800D01*
X65871276Y-75020260D01*
X65944004Y-75145956D01*
X66006366Y-75253579D01*
X66052970Y-75333821D01*
X66075018Y-75371594D01*
X66109162Y-75430566D01*
X66160929Y-75520971D01*
X66222999Y-75629991D01*
X66281500Y-75733212D01*
X66341005Y-75836701D01*
X66391796Y-75921759D01*
X66428645Y-75979859D01*
X66446323Y-76002473D01*
X66446600Y-76002520D01*
X66463949Y-75981885D01*
X66499635Y-75926860D01*
X66547309Y-75847454D01*
X66571229Y-75806002D01*
X66635956Y-75691646D01*
X66703903Y-75570272D01*
X66761768Y-75465658D01*
X66768623Y-75453124D01*
X66854088Y-75296549D01*
X66847194Y-74792724D01*
X66840300Y-74288900D01*
X66148150Y-74282141D01*
X65966604Y-74281052D01*
X65802864Y-74281381D01*
X65663442Y-74283010D01*
X65554850Y-74285818D01*
X65483599Y-74289686D01*
X65456202Y-74294495D01*
X65456094Y-74294841D01*
X65165576Y-74294841D01*
X65176115Y-74276200D01*
X64541600Y-74276200D01*
X64334842Y-74276200D01*
X64333854Y-73942689D01*
X64333682Y-73895200D01*
X64332674Y-73590400D01*
X64541600Y-73590400D01*
X64541600Y-74123800D01*
X65180743Y-74123800D01*
X65174703Y-74113767D01*
X65456000Y-74113767D01*
X65480319Y-74116388D01*
X65548953Y-74118752D01*
X65655418Y-74120769D01*
X65793228Y-74122344D01*
X65955901Y-74123384D01*
X66136950Y-74123796D01*
X66154500Y-74123800D01*
X66853000Y-74123800D01*
X66853000Y-73600671D01*
X66852590Y-73422004D01*
X66850974Y-73286833D01*
X66847571Y-73187857D01*
X66841801Y-73117775D01*
X66833084Y-73069286D01*
X66820839Y-73035089D01*
X66806062Y-73010121D01*
X66771005Y-72955003D01*
X66721857Y-72871841D01*
X66668486Y-72777384D01*
X66661616Y-72764900D01*
X66605470Y-72664217D01*
X66549581Y-72566765D01*
X66505466Y-72492609D01*
X66503169Y-72488894D01*
X66442231Y-72390688D01*
X66232258Y-72755594D01*
X66151903Y-72895217D01*
X66054387Y-73064624D01*
X65947905Y-73249580D01*
X65840652Y-73435850D01*
X65740824Y-73609198D01*
X65739142Y-73612117D01*
X65657346Y-73754568D01*
X65584813Y-73881710D01*
X65525152Y-73987147D01*
X65481973Y-74064485D01*
X65458885Y-74107327D01*
X65456000Y-74113767D01*
X65174703Y-74113767D01*
X65131043Y-74041250D01*
X65093877Y-73978492D01*
X65035931Y-73879359D01*
X64961672Y-73751554D01*
X64875567Y-73602785D01*
X64782083Y-73440756D01*
X64685687Y-73273172D01*
X64674591Y-73253850D01*
X64623512Y-73166684D01*
X64582042Y-73099295D01*
X64556392Y-73061618D01*
X64551591Y-73057000D01*
X64548624Y-73081163D01*
X64546007Y-73148705D01*
X64543879Y-73252205D01*
X64542380Y-73384243D01*
X64541649Y-73537399D01*
X64541600Y-73590400D01*
X64332674Y-73590400D01*
X64332380Y-73501836D01*
X64331328Y-73156067D01*
X64330195Y-72854692D01*
X64328649Y-72594509D01*
X64328534Y-72583289D01*
X64541523Y-72583289D01*
X64543242Y-72635077D01*
X64549682Y-72682227D01*
X64563769Y-72731647D01*
X64588426Y-72790245D01*
X64626580Y-72864930D01*
X64681154Y-72962611D01*
X64755074Y-73090196D01*
X64851265Y-73254593D01*
X64856220Y-73263063D01*
X64888015Y-73317942D01*
X64938859Y-73406304D01*
X65002638Y-73517498D01*
X65073238Y-73640876D01*
X65100400Y-73688417D01*
X65167907Y-73803749D01*
X65227884Y-73900828D01*
X65275468Y-73972199D01*
X65305800Y-74010404D01*
X65313083Y-74014709D01*
X65338230Y-73990041D01*
X65376011Y-73936201D01*
X65393885Y-73906855D01*
X65451579Y-73807541D01*
X65526253Y-73678506D01*
X65609627Y-73534103D01*
X65693418Y-73388683D01*
X65769345Y-73256600D01*
X65810958Y-73184000D01*
X65858793Y-73100687D01*
X65924413Y-72986795D01*
X66000110Y-72855681D01*
X66078177Y-72720705D01*
X66099813Y-72683345D01*
X66167118Y-72566309D01*
X66224320Y-72465220D01*
X66267009Y-72387997D01*
X66290779Y-72342557D01*
X66294200Y-72334095D01*
X66269765Y-72330887D01*
X66200319Y-72327946D01*
X66091653Y-72325363D01*
X65949556Y-72323227D01*
X65779817Y-72321630D01*
X65588226Y-72320661D01*
X65417900Y-72320400D01*
X64541600Y-72320400D01*
X64541600Y-72519955D01*
X64541523Y-72583289D01*
X64328534Y-72583289D01*
X64326359Y-72372316D01*
X64323802Y-72229824D01*
X66547745Y-72229824D01*
X66548756Y-72262281D01*
X66563108Y-72293708D01*
X66573399Y-72310836D01*
X66607348Y-72367752D01*
X66656928Y-72452381D01*
X66712552Y-72548336D01*
X66723906Y-72568050D01*
X66773547Y-72652109D01*
X66813748Y-72716039D01*
X66837945Y-72749557D01*
X66841420Y-72752200D01*
X66844922Y-72728060D01*
X66847998Y-72660685D01*
X66850479Y-72557638D01*
X66852193Y-72426480D01*
X66852971Y-72274778D01*
X66853000Y-72238757D01*
X66852959Y-72053704D01*
X66851336Y-71916949D01*
X66845877Y-71825992D01*
X66834331Y-71778333D01*
X66814446Y-71771475D01*
X66783968Y-71802918D01*
X66740646Y-71870164D01*
X66682227Y-71970714D01*
X66654681Y-72018736D01*
X66597715Y-72118805D01*
X66563067Y-72185583D01*
X66547745Y-72229824D01*
X64323802Y-72229824D01*
X64322995Y-72184912D01*
X64318224Y-72029096D01*
X64311716Y-71901665D01*
X64307794Y-71854905D01*
X64527307Y-71854905D01*
X64531976Y-71950937D01*
X64540828Y-72037774D01*
X64549520Y-72105554D01*
X64554880Y-72134252D01*
X64581631Y-72142200D01*
X64651986Y-72149130D01*
X64758759Y-72155011D01*
X64894764Y-72159815D01*
X65052815Y-72163511D01*
X65225727Y-72166070D01*
X65406312Y-72167463D01*
X65587386Y-72167659D01*
X65761761Y-72166630D01*
X65922252Y-72164345D01*
X66061673Y-72160776D01*
X66172838Y-72155892D01*
X66248560Y-72149664D01*
X66281654Y-72142062D01*
X66282263Y-72141364D01*
X66282935Y-72101216D01*
X66273157Y-72084337D01*
X66253656Y-72054307D01*
X66213313Y-71987586D01*
X66156454Y-71891611D01*
X66087406Y-71773818D01*
X66010495Y-71641644D01*
X65930049Y-71502524D01*
X65850393Y-71363895D01*
X65775853Y-71233194D01*
X65710758Y-71117856D01*
X65708541Y-71113900D01*
X65642379Y-70997295D01*
X65570856Y-70873807D01*
X65499865Y-70753333D01*
X65457025Y-70681965D01*
X65651198Y-70681965D01*
X65666612Y-70730342D01*
X65690848Y-70777350D01*
X65725716Y-70838366D01*
X65779994Y-70932990D01*
X65849114Y-71053292D01*
X65928511Y-71191341D01*
X66013618Y-71339209D01*
X66099868Y-71488965D01*
X66182694Y-71632680D01*
X66257530Y-71762425D01*
X66319809Y-71870270D01*
X66364964Y-71948284D01*
X66385573Y-71983689D01*
X66420089Y-72037020D01*
X66444515Y-72065015D01*
X66447532Y-72066239D01*
X66464132Y-72045416D01*
X66501087Y-71987823D01*
X66553814Y-71900949D01*
X66617730Y-71792282D01*
X66659128Y-71720466D01*
X66725418Y-71601231D01*
X66779555Y-71497257D01*
X66817709Y-71416452D01*
X66836052Y-71366725D01*
X66835996Y-71355132D01*
X66809203Y-71337821D01*
X66745651Y-71299676D01*
X66652742Y-71244978D01*
X66537876Y-71178005D01*
X66408452Y-71103038D01*
X66271872Y-71024357D01*
X66135535Y-70946239D01*
X66006843Y-70872966D01*
X65893195Y-70808817D01*
X65837000Y-70777428D01*
X65766576Y-70736667D01*
X65713924Y-70703246D01*
X65698569Y-70691663D01*
X65662005Y-70667358D01*
X65651198Y-70681965D01*
X65457025Y-70681965D01*
X65435297Y-70645769D01*
X65383044Y-70561013D01*
X65348999Y-70508960D01*
X65345615Y-70504300D01*
X65307595Y-70453500D01*
X65268917Y-70504300D01*
X65226480Y-70567864D01*
X65197715Y-70618600D01*
X65169343Y-70670726D01*
X65123919Y-70750772D01*
X65070388Y-70843012D01*
X65060462Y-70859900D01*
X64950863Y-71046342D01*
X64863021Y-71196680D01*
X64792607Y-71318402D01*
X64735291Y-71418992D01*
X64686741Y-71505936D01*
X64685824Y-71507600D01*
X64636206Y-71596351D01*
X64589013Y-71678860D01*
X64563400Y-71722337D01*
X64536663Y-71782353D01*
X64527307Y-71854905D01*
X64307794Y-71854905D01*
X64303140Y-71799419D01*
X64292164Y-71719155D01*
X64278457Y-71657673D01*
X64261687Y-71611770D01*
X64241525Y-71578245D01*
X64217638Y-71553896D01*
X64189696Y-71535523D01*
X64157366Y-71519923D01*
X64120319Y-71503894D01*
X64084599Y-71487409D01*
X64030482Y-71461918D01*
X63981761Y-71443660D01*
X63928639Y-71431431D01*
X63861318Y-71424025D01*
X63769999Y-71420238D01*
X63644886Y-71418867D01*
X63525600Y-71418700D01*
X63318561Y-71421198D01*
X63155275Y-71431258D01*
X63028830Y-71452727D01*
X62932316Y-71489452D01*
X62858822Y-71545281D01*
X62801435Y-71624059D01*
X62753245Y-71729635D01*
X62707341Y-71865855D01*
X62704260Y-71875900D01*
X62673196Y-71978887D01*
X62646373Y-72070170D01*
X62628596Y-72133334D01*
X62626180Y-72142600D01*
X62612661Y-72194714D01*
X62589853Y-72281094D01*
X62561670Y-72386949D01*
X62547192Y-72441050D01*
X62488190Y-72661968D01*
X62425163Y-72899419D01*
X62363781Y-73131974D01*
X62309717Y-73338202D01*
X62306874Y-73349100D01*
X62285918Y-73428858D01*
X62254690Y-73546923D01*
X62216049Y-73692525D01*
X62172853Y-73854897D01*
X62127961Y-74023270D01*
X62121466Y-74047600D01*
X62077628Y-74212609D01*
X62036206Y-74370077D01*
X61999774Y-74510102D01*
X61970904Y-74622780D01*
X61952172Y-74698208D01*
X61949951Y-74707597D01*
X61935553Y-74767052D01*
X61923399Y-74802151D01*
X61910924Y-74808712D01*
X61895563Y-74782551D01*
X61874754Y-74719485D01*
X61845931Y-74615332D01*
X61810073Y-74479400D01*
X61772493Y-74336596D01*
X61731325Y-74180710D01*
X61693299Y-74037201D01*
X61679179Y-73984100D01*
X61644168Y-73852335D01*
X61606630Y-73710592D01*
X61573668Y-73585702D01*
X61568222Y-73565000D01*
X61473755Y-73205645D01*
X61400055Y-72925898D01*
X61596911Y-72925898D01*
X61635177Y-73073999D01*
X61663753Y-73182916D01*
X61694129Y-73296203D01*
X61708606Y-73349100D01*
X61739399Y-73461579D01*
X61779592Y-73610296D01*
X61825714Y-73782343D01*
X61874291Y-73964815D01*
X61876037Y-73971400D01*
X61895017Y-74038416D01*
X61907814Y-74061715D01*
X61920420Y-74046902D01*
X61930327Y-74022200D01*
X61951453Y-73954612D01*
X61972302Y-73870788D01*
X61975210Y-73857100D01*
X61990333Y-73791548D01*
X62015359Y-73691470D01*
X62046613Y-73571289D01*
X62075521Y-73463400D01*
X62122859Y-73289371D01*
X62157805Y-73156355D01*
X62180629Y-73056169D01*
X62191601Y-72980627D01*
X62190990Y-72921547D01*
X62179067Y-72870744D01*
X62156100Y-72820034D01*
X62122359Y-72761233D01*
X62099905Y-72723490D01*
X62043691Y-72627103D01*
X61993319Y-72538415D01*
X61957793Y-72473339D01*
X61952219Y-72462490D01*
X61923523Y-72416020D01*
X61902539Y-72413160D01*
X61893870Y-72424390D01*
X61872564Y-72460245D01*
X61831851Y-72528929D01*
X61778186Y-72619549D01*
X61734716Y-72692999D01*
X61596911Y-72925898D01*
X61400055Y-72925898D01*
X61391152Y-72892105D01*
X61319275Y-72621088D01*
X61256989Y-72389299D01*
X61242214Y-72335540D01*
X61442800Y-72335540D01*
X61449114Y-72365745D01*
X61465180Y-72428823D01*
X61486678Y-72508837D01*
X61509291Y-72589847D01*
X61528698Y-72655914D01*
X61534962Y-72675697D01*
X61553160Y-72680121D01*
X61588555Y-72638349D01*
X61620356Y-72586797D01*
X61669022Y-72502328D01*
X61713934Y-72424540D01*
X61733785Y-72390250D01*
X61743826Y-72372940D01*
X62067349Y-72372940D01*
X62100626Y-72427123D01*
X62116801Y-72447400D01*
X62146728Y-72492454D01*
X62186111Y-72562159D01*
X62203612Y-72595911D01*
X62237575Y-72657380D01*
X62262826Y-72692124D01*
X62270213Y-72695252D01*
X62281587Y-72666990D01*
X62301389Y-72602609D01*
X62325616Y-72515246D01*
X62329038Y-72502291D01*
X62376792Y-72320400D01*
X62215393Y-72320400D01*
X62120856Y-72324573D01*
X62072800Y-72340421D01*
X62067349Y-72372940D01*
X61743826Y-72372940D01*
X61774304Y-72320400D01*
X61608552Y-72320400D01*
X61524279Y-72322517D01*
X61464601Y-72328057D01*
X61442800Y-72335540D01*
X61242214Y-72335540D01*
X61203159Y-72193446D01*
X61156648Y-72030234D01*
X61116321Y-71896371D01*
X61081042Y-71788563D01*
X61049675Y-71703516D01*
X61021085Y-71637937D01*
X60994136Y-71588534D01*
X60967691Y-71552012D01*
X60940615Y-71525077D01*
X60911772Y-71504438D01*
X60880028Y-71486799D01*
X60845564Y-71469531D01*
X60801726Y-71450291D01*
X60753018Y-71436555D01*
X60690261Y-71427426D01*
X60604281Y-71422010D01*
X60485902Y-71419410D01*
X60325945Y-71418731D01*
X60325200Y-71418731D01*
X60130406Y-71420666D01*
X59978311Y-71427622D01*
X59860924Y-71441281D01*
X59770252Y-71463321D01*
X59698305Y-71495423D01*
X59637092Y-71539265D01*
X59603707Y-71570385D01*
X59552628Y-71629944D01*
X59519687Y-71695329D01*
X59496489Y-71785449D01*
X59488549Y-71829707D01*
X59483122Y-71888149D01*
X59478429Y-71991148D01*
X59474451Y-72134046D01*
X59471170Y-72312186D01*
X59468567Y-72520908D01*
X59466622Y-72755555D01*
X59465317Y-73011468D01*
X59464633Y-73283989D01*
X59464551Y-73568460D01*
X59283786Y-73568460D01*
X59283347Y-73413219D01*
X59282079Y-73272305D01*
X59280134Y-73157843D01*
X59277647Y-73076953D01*
X59274755Y-73036754D01*
X59273452Y-73033716D01*
X59255762Y-73060965D01*
X59213794Y-73130985D01*
X59148367Y-73242379D01*
X59060302Y-73393752D01*
X58953887Y-73577700D01*
X58916183Y-73642393D01*
X58865749Y-73728169D01*
X58830148Y-73788367D01*
X58788048Y-73861919D01*
X58758933Y-73917679D01*
X58749835Y-73940767D01*
X58735230Y-73971459D01*
X58700758Y-74020714D01*
X58699600Y-74022200D01*
X58664709Y-74072059D01*
X58649388Y-74104329D01*
X58649364Y-74104750D01*
X58362135Y-74104750D01*
X58314153Y-74022193D01*
X58274384Y-73953594D01*
X58215517Y-73851827D01*
X58142529Y-73725519D01*
X58060396Y-73583293D01*
X57974097Y-73433776D01*
X57888609Y-73285592D01*
X57808908Y-73147366D01*
X57739971Y-73027724D01*
X57686776Y-72935291D01*
X57655471Y-72880738D01*
X57604317Y-72792325D01*
X57552928Y-72705107D01*
X57535473Y-72676000D01*
X57486302Y-72592241D01*
X57435495Y-72502191D01*
X57428480Y-72489388D01*
X57394808Y-72432402D01*
X57371644Y-72402074D01*
X57367057Y-72400488D01*
X57350493Y-72426186D01*
X57319292Y-72479394D01*
X57308587Y-72498200D01*
X57274891Y-72557200D01*
X57223457Y-72646572D01*
X57162089Y-72752776D01*
X57115357Y-72833403D01*
X56972400Y-73079706D01*
X56654900Y-73079706D01*
X56654900Y-72227919D01*
X56972400Y-72227919D01*
X56973408Y-72380292D01*
X56976219Y-72512744D01*
X56980516Y-72617886D01*
X56985979Y-72688333D01*
X56992290Y-72716696D01*
X56993490Y-72716763D01*
X57015044Y-72690315D01*
X57054931Y-72630538D01*
X57106150Y-72548133D01*
X57131628Y-72505511D01*
X57185639Y-72412548D01*
X57230293Y-72332925D01*
X57236896Y-72320400D01*
X57500811Y-72320400D01*
X57553829Y-72402950D01*
X57582182Y-72449500D01*
X57630750Y-72531760D01*
X57694652Y-72641271D01*
X57769007Y-72769574D01*
X57848935Y-72908210D01*
X57929556Y-73048720D01*
X58005987Y-73182645D01*
X58073350Y-73301526D01*
X58111465Y-73369418D01*
X58152330Y-73440976D01*
X58209225Y-73538529D01*
X58271924Y-73644585D01*
X58292642Y-73679300D01*
X58352380Y-73780560D01*
X58407046Y-73875758D01*
X58447696Y-73949231D01*
X58457698Y-73968373D01*
X58501141Y-74054246D01*
X58568076Y-73942973D01*
X58616189Y-73861717D01*
X58659817Y-73785975D01*
X58673655Y-73761176D01*
X58698242Y-73717662D01*
X58743658Y-73638525D01*
X58805120Y-73532015D01*
X58877846Y-73406379D01*
X58957051Y-73269867D01*
X59037954Y-73130727D01*
X59115770Y-72997208D01*
X59185718Y-72877558D01*
X59212885Y-72831237D01*
X59250001Y-72759794D01*
X59271164Y-72691058D01*
X59280667Y-72605738D01*
X59282735Y-72517250D01*
X59283800Y-72320400D01*
X57500811Y-72320400D01*
X57236896Y-72320400D01*
X57258669Y-72279100D01*
X57264109Y-72267077D01*
X57257607Y-72232581D01*
X57230826Y-72166104D01*
X57218896Y-72140857D01*
X57531200Y-72140857D01*
X57549178Y-72148938D01*
X57604698Y-72155183D01*
X57700138Y-72159651D01*
X57837877Y-72162398D01*
X58020293Y-72163484D01*
X58249764Y-72162964D01*
X58401150Y-72161983D01*
X59271100Y-72155300D01*
X59283800Y-71966446D01*
X59288189Y-71858077D01*
X59282715Y-71786764D01*
X59265887Y-71739456D01*
X59256272Y-71725146D01*
X59224274Y-71676808D01*
X59178540Y-71599796D01*
X59128790Y-71510496D01*
X59127230Y-71507600D01*
X59073106Y-71408844D01*
X59006034Y-71289300D01*
X58930458Y-71156588D01*
X58850825Y-71018327D01*
X58771581Y-70882138D01*
X58697171Y-70755641D01*
X58632043Y-70646455D01*
X58580642Y-70562200D01*
X58547413Y-70510496D01*
X58538663Y-70498868D01*
X58499584Y-70481260D01*
X58482015Y-70486168D01*
X58461763Y-70512996D01*
X58421087Y-70577239D01*
X58364189Y-70671882D01*
X58295277Y-70789908D01*
X58218553Y-70924303D01*
X58204739Y-70948800D01*
X58125532Y-71088918D01*
X58052237Y-71217452D01*
X57989439Y-71326450D01*
X57941722Y-71407963D01*
X57913670Y-71454039D01*
X57911849Y-71456800D01*
X57876290Y-71513892D01*
X57828861Y-71595301D01*
X57792721Y-71660000D01*
X57737170Y-71759574D01*
X57671751Y-71874065D01*
X57623745Y-71956373D01*
X57577996Y-72037484D01*
X57544914Y-72103116D01*
X57531254Y-72139805D01*
X57531200Y-72140857D01*
X57218896Y-72140857D01*
X57189740Y-72079157D01*
X57140325Y-71983250D01*
X57088554Y-71889892D01*
X57040403Y-71810592D01*
X57001846Y-71756862D01*
X56995785Y-71750169D01*
X56987683Y-71765794D01*
X56981090Y-71828012D01*
X56976211Y-71932633D01*
X56973252Y-72075467D01*
X56972400Y-72227919D01*
X56654900Y-72227919D01*
X56654900Y-71382710D01*
X56972400Y-71382710D01*
X56985247Y-71420295D01*
X57014589Y-71472175D01*
X57058868Y-71543767D01*
X57097139Y-71610457D01*
X57196724Y-71789376D01*
X57274935Y-71922343D01*
X57331835Y-72009462D01*
X57367489Y-72050834D01*
X57378454Y-72053913D01*
X57397442Y-72028511D01*
X57437347Y-71965678D01*
X57494074Y-71872195D01*
X57563521Y-71754843D01*
X57641591Y-71620406D01*
X57663100Y-71582960D01*
X57752580Y-71426869D01*
X57843355Y-71268609D01*
X57928767Y-71119779D01*
X58002161Y-70991978D01*
X58056326Y-70897763D01*
X58109462Y-70803695D01*
X58150058Y-70728451D01*
X58173331Y-70681118D01*
X58176536Y-70669400D01*
X58150236Y-70681172D01*
X58090603Y-70712531D01*
X58008223Y-70757537D01*
X57913685Y-70810252D01*
X57817576Y-70864736D01*
X57730483Y-70915050D01*
X57662995Y-70955256D01*
X57632800Y-70974399D01*
X57575703Y-71010043D01*
X57494289Y-71057530D01*
X57429600Y-71093678D01*
X57264506Y-71185898D01*
X57133240Y-71263223D01*
X57038952Y-71323663D01*
X56984792Y-71365225D01*
X56972400Y-71382710D01*
X56654900Y-71382710D01*
X56654900Y-71146433D01*
X56896200Y-71005434D01*
X56992898Y-70949123D01*
X57122656Y-70873840D01*
X57274499Y-70785937D01*
X57437447Y-70691769D01*
X57600526Y-70597688D01*
X57632800Y-70579091D01*
X57818490Y-70472114D01*
X57983068Y-70377300D01*
X58655402Y-70377300D01*
X59001351Y-70980624D01*
X59104897Y-71160458D01*
X59186605Y-71300207D01*
X59249371Y-71404156D01*
X59296089Y-71476593D01*
X59329654Y-71521804D01*
X59352961Y-71544075D01*
X59368906Y-71547693D01*
X59378749Y-71539424D01*
X59418372Y-71490220D01*
X59471067Y-71432293D01*
X59473462Y-71429820D01*
X59601800Y-71333458D01*
X59767525Y-71268381D01*
X59950534Y-71237387D01*
X60048330Y-71228062D01*
X60106980Y-71216868D01*
X60325200Y-71216868D01*
X60348448Y-71222471D01*
X60409594Y-71226522D01*
X60495742Y-71228193D01*
X60501749Y-71228200D01*
X60708183Y-71239378D01*
X60876665Y-71275929D01*
X61012859Y-71342379D01*
X61122427Y-71443252D01*
X61211032Y-71583073D01*
X61284337Y-71766368D01*
X61318392Y-71880743D01*
X61352223Y-72002794D01*
X61379668Y-72084219D01*
X61408309Y-72133236D01*
X61445725Y-72158060D01*
X61499498Y-72166910D01*
X61577207Y-72168001D01*
X61583393Y-72168000D01*
X61673958Y-72164167D01*
X61731672Y-72153728D01*
X61747600Y-72141442D01*
X61747347Y-72140665D01*
X62064739Y-72140665D01*
X62065168Y-72142711D01*
X62093291Y-72150065D01*
X62158161Y-72155008D01*
X62245744Y-72156469D01*
X62245882Y-72156468D01*
X62417372Y-72155300D01*
X62497335Y-71888600D01*
X62545644Y-71733951D01*
X62587097Y-71618994D01*
X62626368Y-71533946D01*
X62668132Y-71469023D01*
X62717063Y-71414445D01*
X62729582Y-71402549D01*
X62812379Y-71335331D01*
X62899139Y-71288867D01*
X63002793Y-71258864D01*
X63136272Y-71241030D01*
X63236181Y-71234379D01*
X63496620Y-71221087D01*
X63424307Y-71091293D01*
X63373441Y-71000741D01*
X63323220Y-70912511D01*
X63300173Y-70872600D01*
X63261471Y-70805399D01*
X63209054Y-70713357D01*
X63154017Y-70615960D01*
X63152026Y-70612419D01*
X63104730Y-70531356D01*
X63066245Y-70470963D01*
X63043539Y-70442038D01*
X63041362Y-70440969D01*
X63021623Y-70461032D01*
X62989076Y-70511629D01*
X62975342Y-70536050D01*
X62946078Y-70588548D01*
X62896221Y-70676474D01*
X62830665Y-70791314D01*
X62754308Y-70924552D01*
X62672045Y-71067674D01*
X62588773Y-71212166D01*
X62509388Y-71349514D01*
X62438786Y-71471203D01*
X62381863Y-71568719D01*
X62365526Y-71596500D01*
X62321281Y-71672753D01*
X62286330Y-71735207D01*
X62272546Y-71761600D01*
X62251067Y-71801108D01*
X62211226Y-71869880D01*
X62161183Y-71953855D01*
X62155209Y-71963742D01*
X62108831Y-72044089D01*
X62076710Y-72106967D01*
X62064739Y-72140665D01*
X61747347Y-72140665D01*
X61742305Y-72125229D01*
X61725358Y-72089876D01*
X61695161Y-72032548D01*
X61650119Y-71950409D01*
X61588636Y-71840624D01*
X61509115Y-71700358D01*
X61409960Y-71526775D01*
X61289576Y-71317040D01*
X61146366Y-71068317D01*
X61026815Y-70861062D01*
X60953597Y-70735131D01*
X60888062Y-70624152D01*
X60834835Y-70535819D01*
X60798538Y-70477823D01*
X60784875Y-70458515D01*
X60758487Y-70461023D01*
X60727832Y-70502102D01*
X60702912Y-70547708D01*
X60658157Y-70627226D01*
X60599251Y-70730641D01*
X60531881Y-70847940D01*
X60509350Y-70886968D01*
X60444031Y-71000705D01*
X60388908Y-71098102D01*
X60348490Y-71171078D01*
X60327290Y-71211550D01*
X60325200Y-71216868D01*
X60106980Y-71216868D01*
X60108992Y-71216484D01*
X60146043Y-71196600D01*
X60173005Y-71162353D01*
X60191559Y-71129463D01*
X60222221Y-71074670D01*
X60272473Y-70986681D01*
X60336205Y-70876121D01*
X60407309Y-70753616D01*
X60434198Y-70707500D01*
X60626975Y-70377300D01*
X60534484Y-70376010D01*
X60940322Y-70376010D01*
X60947934Y-70401986D01*
X60979221Y-70466102D01*
X61031325Y-70563179D01*
X61101387Y-70688039D01*
X61186549Y-70835503D01*
X61283951Y-71000391D01*
X61296971Y-71022181D01*
X61352496Y-71117412D01*
X61412159Y-71223272D01*
X61435737Y-71266300D01*
X61478643Y-71344437D01*
X61515199Y-71408970D01*
X61530765Y-71435075D01*
X61554326Y-71474297D01*
X61596244Y-71545758D01*
X61649604Y-71637626D01*
X61684100Y-71697386D01*
X61762689Y-71833584D01*
X61819864Y-71931754D01*
X61859387Y-71997991D01*
X61885024Y-72038390D01*
X61900537Y-72059043D01*
X61909690Y-72066045D01*
X61912012Y-72066400D01*
X61927678Y-72045884D01*
X61961067Y-71991522D01*
X62005625Y-71914089D01*
X62016319Y-71894950D01*
X62080112Y-71782130D01*
X62153873Y-71654537D01*
X62218120Y-71545700D01*
X62278936Y-71443209D01*
X62338969Y-71340445D01*
X62385930Y-71258459D01*
X62388658Y-71253600D01*
X62423006Y-71192942D01*
X62476929Y-71098500D01*
X62544587Y-70980471D01*
X62620134Y-70849054D01*
X62672425Y-70758300D01*
X62892164Y-70377300D01*
X62293402Y-70373191D01*
X63203742Y-70373191D01*
X63212038Y-70397708D01*
X63242166Y-70457961D01*
X63289915Y-70546068D01*
X63351079Y-70654145D01*
X63384028Y-70710905D01*
X63456114Y-70834515D01*
X63523098Y-70950114D01*
X63578813Y-71047011D01*
X63617094Y-71114512D01*
X63625170Y-71129100D01*
X63652825Y-71175673D01*
X63681793Y-71204105D01*
X63725553Y-71220388D01*
X63797581Y-71230514D01*
X63867298Y-71236747D01*
X64062483Y-71271550D01*
X64226197Y-71339108D01*
X64353568Y-71437216D01*
X64381605Y-71469296D01*
X64427723Y-71522961D01*
X64461377Y-71554706D01*
X64468943Y-71558399D01*
X64485814Y-71537353D01*
X64523685Y-71478545D01*
X64578618Y-71388468D01*
X64646673Y-71273617D01*
X64723910Y-71140483D01*
X64748343Y-71097844D01*
X64832546Y-70950481D01*
X64912956Y-70809762D01*
X64984408Y-70684723D01*
X65041739Y-70584401D01*
X65079785Y-70517831D01*
X65083417Y-70511478D01*
X65120694Y-70441884D01*
X65142687Y-70392080D01*
X65145358Y-70375692D01*
X65118352Y-70373105D01*
X65047328Y-70370826D01*
X64939069Y-70368864D01*
X64800354Y-70367229D01*
X64637965Y-70365927D01*
X64458681Y-70364970D01*
X64269285Y-70364364D01*
X64076555Y-70364118D01*
X63887273Y-70364243D01*
X63708220Y-70364745D01*
X63546176Y-70365635D01*
X63407921Y-70366920D01*
X63300237Y-70368609D01*
X63229904Y-70370712D01*
X63203742Y-70373191D01*
X62293402Y-70373191D01*
X61922254Y-70370644D01*
X61705333Y-70369462D01*
X61504695Y-70368958D01*
X61325932Y-70369102D01*
X61174640Y-70369864D01*
X61056412Y-70371212D01*
X60976842Y-70373117D01*
X60941523Y-70375547D01*
X60940322Y-70376010D01*
X60534484Y-70376010D01*
X60133187Y-70370413D01*
X59931453Y-70368455D01*
X59701624Y-70367609D01*
X59466105Y-70367876D01*
X59247298Y-70369254D01*
X59147401Y-70370413D01*
X58655402Y-70377300D01*
X57983068Y-70377300D01*
X58028753Y-70350981D01*
X58245907Y-70225878D01*
X58313738Y-70186800D01*
X58995280Y-70186800D01*
X59812640Y-70186800D01*
X60910432Y-70186800D01*
X61900516Y-70186800D01*
X62119163Y-70186259D01*
X62321075Y-70184717D01*
X62500805Y-70182294D01*
X62652906Y-70179111D01*
X62771933Y-70175287D01*
X62852437Y-70170943D01*
X62888973Y-70166199D01*
X62890600Y-70164944D01*
X62890308Y-70164206D01*
X63199633Y-70164206D01*
X63221896Y-70169984D01*
X63289717Y-70175147D01*
X63397853Y-70179547D01*
X63541065Y-70183035D01*
X63714111Y-70185463D01*
X63911750Y-70186683D01*
X63998356Y-70186800D01*
X64805545Y-70186800D01*
X64692622Y-70115734D01*
X64641907Y-70085118D01*
X64554364Y-70033666D01*
X64437345Y-69965613D01*
X64298205Y-69885194D01*
X64144295Y-69796644D01*
X63982970Y-69704198D01*
X63821583Y-69612093D01*
X63667487Y-69524564D01*
X63599839Y-69486305D01*
X63584288Y-69504685D01*
X63549106Y-69558273D01*
X63499627Y-69638032D01*
X63441185Y-69734927D01*
X63379115Y-69839923D01*
X63318751Y-69943984D01*
X63265426Y-70038076D01*
X63224475Y-70113161D01*
X63201233Y-70160205D01*
X63199633Y-70164206D01*
X62890308Y-70164206D01*
X62877453Y-70131751D01*
X62844678Y-70075791D01*
X62832285Y-70056994D01*
X62792932Y-69994834D01*
X62738998Y-69904393D01*
X62680166Y-69802019D01*
X62660935Y-69767700D01*
X62607769Y-69672637D01*
X62561703Y-69591194D01*
X62529925Y-69536041D01*
X62522400Y-69523494D01*
X62495381Y-69477388D01*
X62456060Y-69407420D01*
X62436072Y-69371094D01*
X62392318Y-69293329D01*
X62334052Y-69192850D01*
X62273253Y-69090291D01*
X62268208Y-69081900D01*
X62207211Y-68979498D01*
X62147099Y-68876805D01*
X62100157Y-68794821D01*
X62097346Y-68789800D01*
X62048581Y-68703275D01*
X62233668Y-68703275D01*
X62235215Y-68711722D01*
X62243212Y-68729841D01*
X62260426Y-68762609D01*
X62289622Y-68814998D01*
X62333568Y-68891984D01*
X62395031Y-68998540D01*
X62476775Y-69139642D01*
X62568534Y-69297800D01*
X62654150Y-69445812D01*
X62739555Y-69594292D01*
X62818080Y-69731588D01*
X62883056Y-69846045D01*
X62921015Y-69913724D01*
X62970926Y-70001116D01*
X63011972Y-70068354D01*
X63037914Y-70105422D01*
X63043000Y-70109591D01*
X63059148Y-70088301D01*
X63095450Y-70030155D01*
X63147390Y-69942701D01*
X63210449Y-69833491D01*
X63251058Y-69761877D01*
X63317146Y-69642164D01*
X63372157Y-69537876D01*
X63412089Y-69456978D01*
X63432944Y-69407434D01*
X63434700Y-69396164D01*
X63409901Y-69378112D01*
X63348014Y-69339354D01*
X63256177Y-69284181D01*
X63141528Y-69216881D01*
X63012795Y-69142652D01*
X62867209Y-69059078D01*
X62722597Y-68975484D01*
X62590451Y-68898555D01*
X62482264Y-68834976D01*
X62423253Y-68799766D01*
X62340082Y-68750985D01*
X62275271Y-68715714D01*
X62239456Y-68699640D01*
X62235804Y-68699528D01*
X62233668Y-68703275D01*
X62048581Y-68703275D01*
X62031255Y-68672534D01*
X61984467Y-68593013D01*
X61952243Y-68544230D01*
X61929840Y-68519177D01*
X61912521Y-68510850D01*
X61908428Y-68510560D01*
X61893400Y-68519618D01*
X61868503Y-68549551D01*
X61831266Y-68604323D01*
X61779217Y-68687897D01*
X61709883Y-68804234D01*
X61620794Y-68957299D01*
X61515483Y-69140559D01*
X61488305Y-69187949D01*
X61451289Y-69252312D01*
X61401380Y-69338948D01*
X61335523Y-69453157D01*
X61250664Y-69600239D01*
X61143748Y-69785492D01*
X61132027Y-69805800D01*
X61072080Y-69909506D01*
X61016117Y-70006060D01*
X60972755Y-70080603D01*
X60958920Y-70104250D01*
X60910432Y-70186800D01*
X59812640Y-70186800D01*
X60010580Y-70186231D01*
X60191209Y-70184618D01*
X60348538Y-70182101D01*
X60476578Y-70178819D01*
X60569340Y-70174912D01*
X60620834Y-70170520D01*
X60629435Y-70167750D01*
X60614797Y-70136222D01*
X60580259Y-70086558D01*
X60579200Y-70085200D01*
X60544406Y-70036414D01*
X60528998Y-70006318D01*
X60528964Y-70005866D01*
X60516548Y-69978930D01*
X60483472Y-69918119D01*
X60435273Y-69833082D01*
X60377487Y-69733471D01*
X60315649Y-69628935D01*
X60258280Y-69533997D01*
X60224064Y-69478095D01*
X60065082Y-69567936D01*
X59982901Y-69615098D01*
X59917182Y-69654137D01*
X59881512Y-69676970D01*
X59880700Y-69677589D01*
X59844925Y-69700725D01*
X59781917Y-69737711D01*
X59741000Y-69760736D01*
X59676304Y-69797042D01*
X59579609Y-69851873D01*
X59462931Y-69918393D01*
X59338287Y-69989762D01*
X59310990Y-70005435D01*
X58995280Y-70186800D01*
X58313738Y-70186800D01*
X58452267Y-70106994D01*
X58610700Y-70015720D01*
X58772122Y-69922657D01*
X58937128Y-69827410D01*
X59094138Y-69736671D01*
X59231572Y-69657132D01*
X59337850Y-69595488D01*
X59347300Y-69589995D01*
X59576720Y-69456874D01*
X59654134Y-69412100D01*
X60376972Y-69412100D01*
X60388910Y-69443527D01*
X60421800Y-69507561D01*
X60469977Y-69593538D01*
X60505166Y-69653400D01*
X60569679Y-69763158D01*
X60632107Y-69872604D01*
X60682395Y-69963990D01*
X60697640Y-69993037D01*
X60735871Y-70057311D01*
X60767833Y-70092770D01*
X60782374Y-70094637D01*
X60800327Y-70067466D01*
X60839966Y-70002236D01*
X60897736Y-69904971D01*
X60970079Y-69781698D01*
X61053441Y-69638442D01*
X61140193Y-69488300D01*
X61233776Y-69325748D01*
X61322256Y-69171967D01*
X61401464Y-69034212D01*
X61467231Y-68919734D01*
X61515388Y-68835788D01*
X61539523Y-68793573D01*
X61602423Y-68683047D01*
X61475955Y-68755473D01*
X61214651Y-68905364D01*
X60994785Y-69032061D01*
X60813511Y-69137265D01*
X60667984Y-69222676D01*
X60555359Y-69289993D01*
X60472790Y-69340917D01*
X60417433Y-69377147D01*
X60386443Y-69400384D01*
X60376972Y-69412100D01*
X59654134Y-69412100D01*
X59838314Y-69305577D01*
X60120085Y-69143020D01*
X60410034Y-68976121D01*
X60696167Y-68811796D01*
X60833200Y-68733250D01*
X60983652Y-68646767D01*
X61132639Y-68560580D01*
X61269410Y-68480948D01*
X61383210Y-68414131D01*
X61461417Y-68367522D01*
X61546415Y-68316928D01*
X61613727Y-68278394D01*
X61652503Y-68258072D01*
X61657385Y-68256399D01*
X61683824Y-68243889D01*
X61739158Y-68211619D01*
X61789529Y-68180365D01*
X61861213Y-68137740D01*
X61906922Y-68121223D01*
X61941830Y-68127132D01*
G37*
X61941830Y-68127132D02*
X61961861Y-68138566D01*
X61999882Y-68161742D01*
X62074025Y-68205567D01*
X62176353Y-68265401D01*
X62298929Y-68336602D01*
X62433400Y-68414290D01*
X62587551Y-68503167D01*
X62747755Y-68595628D01*
X62900535Y-68683889D01*
X63032414Y-68760164D01*
X63106500Y-68803082D01*
X63216711Y-68866865D01*
X63357021Y-68947871D01*
X63513462Y-69038046D01*
X63672067Y-69129337D01*
X63766900Y-69183848D01*
X63908558Y-69265322D01*
X64081727Y-69365070D01*
X64273953Y-69475909D01*
X64472785Y-69590659D01*
X64665770Y-69702138D01*
X64757500Y-69755170D01*
X64917624Y-69847759D01*
X65066846Y-69934012D01*
X65198419Y-70010033D01*
X65305596Y-70071925D01*
X65381631Y-70115790D01*
X65417900Y-70136658D01*
X65462410Y-70162286D01*
X65543063Y-70208863D01*
X65652043Y-70271871D01*
X65781536Y-70346792D01*
X65923730Y-70429109D01*
X65964000Y-70452429D01*
X66135894Y-70551916D01*
X66323195Y-70660211D01*
X66510579Y-70768462D01*
X66682727Y-70867816D01*
X66808652Y-70940402D01*
X67183404Y-71156234D01*
X67170500Y-77255044D01*
X66929200Y-77394817D01*
X66653320Y-77554584D01*
X66417845Y-77690864D01*
X66219250Y-77805685D01*
X66054014Y-77901074D01*
X65918612Y-77979059D01*
X65809521Y-78041668D01*
X65723217Y-78090929D01*
X65656178Y-78128868D01*
X65604880Y-78157514D01*
X65583000Y-78169551D01*
X65505403Y-78212831D01*
X65444763Y-78248220D01*
X65417900Y-78265487D01*
X65388642Y-78283899D01*
X65322758Y-78323181D01*
X65227705Y-78378956D01*
X65110939Y-78446848D01*
X64986100Y-78518923D01*
X64850548Y-78596938D01*
X64724724Y-78669374D01*
X64617473Y-78731138D01*
X64537640Y-78777135D01*
X64497150Y-78800494D01*
X64437337Y-78835054D01*
X64378041Y-78869300D01*
X64312896Y-78906905D01*
X64235533Y-78951541D01*
X64139586Y-79006883D01*
X64018688Y-79076602D01*
X63866471Y-79164373D01*
X63678000Y-79273042D01*
X63409476Y-79427870D01*
X63180952Y-79559649D01*
X62988415Y-79670698D01*
X62827854Y-79763338D01*
X62695256Y-79839886D01*
X62586608Y-79902664D01*
X62497899Y-79953990D01*
X62425116Y-79996185D01*
X62364248Y-80031567D01*
X62311280Y-80062457D01*
X62262203Y-80091174D01*
X62217500Y-80117397D01*
X62121302Y-80173580D01*
X62036596Y-80222526D01*
X61976612Y-80256609D01*
X61961520Y-80264902D01*
X61933296Y-80273474D01*
X61895934Y-80268764D01*
X61841160Y-80247474D01*
X61760702Y-80206310D01*
X61646286Y-80141976D01*
X61631320Y-80133371D01*
X61339157Y-79965124D01*
X61087168Y-79819966D01*
X60871486Y-79695667D01*
X60688247Y-79589997D01*
X60533582Y-79500725D01*
X60403626Y-79425622D01*
X60294512Y-79362458D01*
X60261700Y-79343437D01*
X60152993Y-79280537D01*
X60013710Y-79200159D01*
X59857350Y-79110081D01*
X59697413Y-79018082D01*
X59643250Y-78986971D01*
X60376000Y-78986971D01*
X60396741Y-79010032D01*
X60452844Y-79051185D01*
X60535130Y-79104095D01*
X60610950Y-79149089D01*
X60718402Y-79210917D01*
X60854989Y-79289712D01*
X61005917Y-79376928D01*
X61156392Y-79464021D01*
X61214200Y-79497523D01*
X61336259Y-79568162D01*
X61441786Y-79628983D01*
X61523479Y-79675799D01*
X61574040Y-79704422D01*
X61587140Y-79711432D01*
X61577823Y-79691099D01*
X61548977Y-79636372D01*
X61505887Y-79557181D01*
X61482559Y-79514950D01*
X61425661Y-79413038D01*
X61371335Y-79316814D01*
X61329213Y-79243310D01*
X61320964Y-79229200D01*
X61248938Y-79106135D01*
X61168222Y-78966926D01*
X61086446Y-78824854D01*
X61011241Y-78693201D01*
X60950238Y-78585248D01*
X60926944Y-78543400D01*
X60878118Y-78458504D01*
X60831786Y-78383817D01*
X60805612Y-78345901D01*
X60761368Y-78288102D01*
X60724980Y-78358601D01*
X60663522Y-78473726D01*
X60590378Y-78604927D01*
X60516720Y-78732549D01*
X60453719Y-78836933D01*
X60447496Y-78846822D01*
X60406909Y-78915771D01*
X60381003Y-78969088D01*
X60376000Y-78986971D01*
X59643250Y-78986971D01*
X59588600Y-78955581D01*
X59455990Y-78879260D01*
X59337934Y-78810926D01*
X59241761Y-78754851D01*
X59174800Y-78715309D01*
X59144381Y-78696576D01*
X59144100Y-78696372D01*
X59109534Y-78674926D01*
X59045319Y-78638008D01*
X58979000Y-78601130D01*
X58917043Y-78566492D01*
X58819993Y-78511427D01*
X58696689Y-78441014D01*
X58555968Y-78360333D01*
X58406669Y-78274462D01*
X58322494Y-78225900D01*
X59004405Y-78225900D01*
X59239352Y-78360153D01*
X59346881Y-78421755D01*
X59483550Y-78500285D01*
X59634537Y-78587214D01*
X59785021Y-78674014D01*
X59842350Y-78707132D01*
X59965260Y-78777026D01*
X60072793Y-78836006D01*
X60157368Y-78880088D01*
X60211401Y-78905287D01*
X60227275Y-78909428D01*
X60247710Y-78883550D01*
X60284728Y-78826017D01*
X60328178Y-78752949D01*
X60376382Y-78669035D01*
X60417907Y-78596523D01*
X60440933Y-78556100D01*
X60469223Y-78507240D01*
X60512907Y-78433012D01*
X60550987Y-78368872D01*
X60591745Y-78296584D01*
X60617338Y-78243455D01*
X60621508Y-78225900D01*
X60918028Y-78225900D01*
X61145784Y-78619600D01*
X61227265Y-78761094D01*
X61307011Y-78900728D01*
X61378555Y-79027097D01*
X61435432Y-79128797D01*
X61462623Y-79178400D01*
X61510639Y-79264968D01*
X61553023Y-79337145D01*
X61581065Y-79380134D01*
X61582211Y-79381600D01*
X61609722Y-79422723D01*
X61651820Y-79492981D01*
X61696570Y-79572100D01*
X61773859Y-79710208D01*
X61832393Y-79806775D01*
X61876475Y-79865523D01*
X61910410Y-79890173D01*
X61938502Y-79884451D01*
X61965054Y-79852077D01*
X61982890Y-79819750D01*
X62020476Y-79749617D01*
X62037834Y-79718783D01*
X62225605Y-79718783D01*
X62310452Y-79667470D01*
X62356503Y-79640297D01*
X62439177Y-79592196D01*
X62551010Y-79527481D01*
X62684539Y-79450468D01*
X62832302Y-79365470D01*
X62916000Y-79317417D01*
X63062880Y-79233049D01*
X63194499Y-79157260D01*
X63304641Y-79093643D01*
X63387088Y-79045796D01*
X63435623Y-79017312D01*
X63446007Y-79010913D01*
X63437285Y-78987411D01*
X63407210Y-78927378D01*
X63359753Y-78838319D01*
X63298889Y-78727739D01*
X63251550Y-78643518D01*
X63175859Y-78510483D01*
X63120824Y-78416485D01*
X63082213Y-78356270D01*
X63055797Y-78324587D01*
X63037348Y-78316184D01*
X63022635Y-78325808D01*
X63010189Y-78343792D01*
X62982538Y-78389628D01*
X62936442Y-78467893D01*
X62878721Y-78566944D01*
X62826241Y-78657700D01*
X62753576Y-78783678D01*
X62666801Y-78933915D01*
X62577293Y-79088722D01*
X62503330Y-79216500D01*
X62433732Y-79337480D01*
X62368938Y-79451606D01*
X62315514Y-79547215D01*
X62280024Y-79612645D01*
X62276188Y-79620041D01*
X62225605Y-79718783D01*
X62037834Y-79718783D01*
X62065128Y-79670301D01*
X62070526Y-79661000D01*
X62124271Y-79568596D01*
X62191868Y-79452060D01*
X62268427Y-79319857D01*
X62349059Y-79180451D01*
X62428873Y-79042303D01*
X62502980Y-78913880D01*
X62566490Y-78803643D01*
X62614513Y-78720057D01*
X62642161Y-78671586D01*
X62642828Y-78670400D01*
X62679522Y-78607137D01*
X62707681Y-78562013D01*
X62711848Y-78556100D01*
X62740508Y-78511325D01*
X62778317Y-78444133D01*
X62818340Y-78368070D01*
X62853642Y-78296678D01*
X62877286Y-78243503D01*
X62881429Y-78227510D01*
X63195400Y-78227510D01*
X63207211Y-78253588D01*
X63239161Y-78313673D01*
X63286021Y-78398611D01*
X63342566Y-78499249D01*
X63403566Y-78606431D01*
X63463796Y-78711004D01*
X63518027Y-78803814D01*
X63561032Y-78875706D01*
X63587585Y-78917526D01*
X63593345Y-78924400D01*
X63616985Y-78912250D01*
X63677275Y-78878534D01*
X63767023Y-78827347D01*
X63879041Y-78762789D01*
X63989230Y-78698809D01*
X64136627Y-78613150D01*
X64288884Y-78525016D01*
X64432286Y-78442323D01*
X64553115Y-78372989D01*
X64605100Y-78343349D01*
X64833700Y-78213480D01*
X64014550Y-78213340D01*
X63816352Y-78213732D01*
X63635432Y-78214910D01*
X63477776Y-78216771D01*
X63349374Y-78219210D01*
X63256212Y-78222124D01*
X63204279Y-78225409D01*
X63195400Y-78227510D01*
X62881429Y-78227510D01*
X62882777Y-78222310D01*
X62856077Y-78220316D01*
X62784134Y-78218798D01*
X62672501Y-78217774D01*
X62526733Y-78217260D01*
X62352383Y-78217274D01*
X62155005Y-78217833D01*
X61940155Y-78218954D01*
X61895545Y-78219248D01*
X60918028Y-78225900D01*
X60621508Y-78225900D01*
X60622326Y-78222460D01*
X60595428Y-78220223D01*
X60523878Y-78218577D01*
X60413819Y-78217546D01*
X60271396Y-78217155D01*
X60102753Y-78217429D01*
X59914035Y-78218392D01*
X59808373Y-78219187D01*
X59004405Y-78225900D01*
X58322494Y-78225900D01*
X58257631Y-78188480D01*
X58117693Y-78107469D01*
X57995694Y-78036505D01*
X57980667Y-78027719D01*
X58685311Y-78027719D01*
X58698067Y-78036497D01*
X58731707Y-78043668D01*
X58790377Y-78049372D01*
X58878221Y-78053748D01*
X58999384Y-78056938D01*
X59158010Y-78059080D01*
X59358246Y-78060316D01*
X59604234Y-78060785D01*
X59664002Y-78060800D01*
X60908095Y-78060800D01*
X62915132Y-78060800D01*
X63165856Y-78060800D01*
X64126778Y-78060411D01*
X64343766Y-78059769D01*
X64545396Y-78058112D01*
X64725876Y-78055565D01*
X64879412Y-78052257D01*
X65000213Y-78048316D01*
X65082485Y-78043870D01*
X65120436Y-78039046D01*
X65121724Y-78038456D01*
X65132891Y-78030501D01*
X65138977Y-78019681D01*
X65137511Y-78001067D01*
X65126020Y-77969731D01*
X65102034Y-77920743D01*
X65063080Y-77849173D01*
X65006687Y-77750093D01*
X64930383Y-77618572D01*
X64831697Y-77449683D01*
X64795431Y-77387700D01*
X64708876Y-77239428D01*
X64623295Y-77092210D01*
X64545019Y-76956985D01*
X64480383Y-76844691D01*
X64438811Y-76771750D01*
X64389935Y-76687514D01*
X64350300Y-76623525D01*
X64326416Y-76590139D01*
X64323027Y-76587600D01*
X64295648Y-76600065D01*
X64246616Y-76629925D01*
X64184440Y-76662556D01*
X64098452Y-76698259D01*
X64050733Y-76715049D01*
X63994216Y-76734829D01*
X63951442Y-76756896D01*
X63914496Y-76789918D01*
X63875461Y-76842562D01*
X63826422Y-76923496D01*
X63770414Y-77021974D01*
X63691892Y-77159981D01*
X63595837Y-77327035D01*
X63490725Y-77508542D01*
X63385028Y-77689909D01*
X63287221Y-77856545D01*
X63215100Y-77978250D01*
X63165856Y-78060800D01*
X62915132Y-78060800D01*
X62868261Y-77978250D01*
X62838434Y-77926327D01*
X62789145Y-77841194D01*
X62726572Y-77733492D01*
X62656892Y-77613868D01*
X62636417Y-77578774D01*
X62566215Y-77458341D01*
X62501707Y-77347404D01*
X62448944Y-77256384D01*
X62413975Y-77195705D01*
X62407914Y-77185074D01*
X62368260Y-77116150D01*
X62318402Y-77030779D01*
X62296711Y-76994000D01*
X62248439Y-76910469D01*
X62204470Y-76831152D01*
X62189850Y-76803500D01*
X62150661Y-76727300D01*
X61909414Y-76729698D01*
X61668168Y-76732096D01*
X61457831Y-77097998D01*
X61374192Y-77243253D01*
X61286931Y-77394389D01*
X61204558Y-77536688D01*
X61135589Y-77655431D01*
X61113974Y-77692500D01*
X61053783Y-77796308D01*
X60999734Y-77890875D01*
X60959306Y-77963049D01*
X60944275Y-77990950D01*
X60908095Y-78060800D01*
X59664002Y-78060800D01*
X59879883Y-78060452D01*
X60078961Y-78059463D01*
X60255721Y-78057910D01*
X60404650Y-78055871D01*
X60520234Y-78053425D01*
X60596958Y-78050650D01*
X60629309Y-78047623D01*
X60630000Y-78047104D01*
X60617915Y-78021501D01*
X60584599Y-77959961D01*
X60534460Y-77870402D01*
X60471905Y-77760743D01*
X60435613Y-77697854D01*
X60358336Y-77564241D01*
X60281308Y-77430675D01*
X60212214Y-77310513D01*
X60158744Y-77217109D01*
X60147408Y-77197200D01*
X60061643Y-77046378D01*
X59996429Y-76933557D01*
X59946964Y-76852713D01*
X59908444Y-76797826D01*
X59876069Y-76762873D01*
X59845036Y-76741833D01*
X59842560Y-76740889D01*
X60087348Y-76740889D01*
X60088324Y-76771073D01*
X60111870Y-76831008D01*
X60152912Y-76907830D01*
X60153770Y-76909271D01*
X60319934Y-77190982D01*
X60488698Y-77482539D01*
X60631872Y-77734594D01*
X60687399Y-77832462D01*
X60733000Y-77911032D01*
X60763531Y-77961557D01*
X60773827Y-77975894D01*
X60787319Y-77953712D01*
X60821503Y-77895585D01*
X60871674Y-77809565D01*
X60933126Y-77703701D01*
X60954317Y-77667100D01*
X61036851Y-77524461D01*
X61133160Y-77358015D01*
X61231577Y-77187927D01*
X61320435Y-77034358D01*
X61324840Y-77026745D01*
X61392176Y-76909122D01*
X61449377Y-76806819D01*
X61492016Y-76727941D01*
X61515671Y-76680592D01*
X61516783Y-76677433D01*
X62281017Y-76677433D01*
X62340304Y-76765866D01*
X62384334Y-76835472D01*
X62439518Y-76928015D01*
X62486346Y-77010021D01*
X62578507Y-77174388D01*
X62671071Y-77337552D01*
X62760552Y-77493558D01*
X62843466Y-77636450D01*
X62916330Y-77760274D01*
X62975659Y-77859074D01*
X63017969Y-77926896D01*
X63039776Y-77957783D01*
X63041574Y-77959039D01*
X63062229Y-77939222D01*
X63095499Y-77890386D01*
X63103816Y-77876489D01*
X63136026Y-77820715D01*
X63185880Y-77733672D01*
X63245984Y-77628290D01*
X63296123Y-77540100D01*
X63372898Y-77405493D01*
X63461814Y-77250577D01*
X63549345Y-77098881D01*
X63595151Y-77019917D01*
X63653955Y-76915848D01*
X63700535Y-76827652D01*
X63730294Y-76764460D01*
X63738635Y-76735406D01*
X63738503Y-76735151D01*
X63708114Y-76718556D01*
X63648393Y-76701946D01*
X63637018Y-76699683D01*
X63554170Y-76664759D01*
X63462967Y-76596392D01*
X63376224Y-76507321D01*
X63306756Y-76410281D01*
X63273006Y-76337862D01*
X63238068Y-76232000D01*
X62667295Y-76232000D01*
X62585392Y-76359635D01*
X62516680Y-76451951D01*
X62433776Y-76543585D01*
X62392253Y-76582352D01*
X62281017Y-76677433D01*
X61516783Y-76677433D01*
X61518999Y-76671145D01*
X61500821Y-76644590D01*
X61454921Y-76600819D01*
X61429121Y-76579387D01*
X61365243Y-76517873D01*
X61294150Y-76433918D01*
X61247726Y-76369837D01*
X61156207Y-76232000D01*
X60586101Y-76232000D01*
X60544247Y-76341593D01*
X60487405Y-76446201D01*
X60403479Y-76548503D01*
X60306765Y-76633908D01*
X60211562Y-76687827D01*
X60201568Y-76691282D01*
X60135661Y-76715561D01*
X60091537Y-76737634D01*
X60087348Y-76740889D01*
X59842560Y-76740889D01*
X59810543Y-76728685D01*
X59767788Y-76717407D01*
X59764012Y-76716442D01*
X59676468Y-76687078D01*
X59599651Y-76649918D01*
X59576799Y-76634569D01*
X59525613Y-76604081D01*
X59489134Y-76599061D01*
X59488019Y-76599670D01*
X59465439Y-76627438D01*
X59425550Y-76689137D01*
X59375143Y-76773977D01*
X59347078Y-76823570D01*
X59293476Y-76919318D01*
X59247181Y-77001010D01*
X59215146Y-77056419D01*
X59206808Y-77070200D01*
X59184461Y-77107521D01*
X59143576Y-77177656D01*
X59090736Y-77269265D01*
X59051986Y-77336900D01*
X58977984Y-77466063D01*
X58895264Y-77609903D01*
X58818377Y-77743133D01*
X58796991Y-77780069D01*
X58744959Y-77875164D01*
X58706403Y-77956012D01*
X58686370Y-78011421D01*
X58685311Y-78027719D01*
X57980667Y-78027719D01*
X57950300Y-78009964D01*
X57906052Y-77984236D01*
X57825479Y-77937579D01*
X57716266Y-77874435D01*
X57586098Y-77799246D01*
X57442660Y-77716456D01*
X57391500Y-77686942D01*
X57241145Y-77600100D01*
X57097579Y-77516972D01*
X56969505Y-77442612D01*
X56865625Y-77382076D01*
X56794644Y-77340418D01*
X56781900Y-77332855D01*
X56654900Y-77257143D01*
X56654900Y-77026521D01*
X56979623Y-77026521D01*
X56980381Y-77028963D01*
X57006951Y-77055746D01*
X57067251Y-77099317D01*
X57150429Y-77152107D01*
X57192303Y-77176780D01*
X57284468Y-77229840D01*
X57407671Y-77300785D01*
X57548932Y-77382139D01*
X57695273Y-77466427D01*
X57772500Y-77510912D01*
X57897957Y-77582604D01*
X58008181Y-77644496D01*
X58095655Y-77692457D01*
X58152865Y-77722354D01*
X58171890Y-77730493D01*
X58169801Y-77710947D01*
X58146072Y-77659901D01*
X58110976Y-77597250D01*
X58075023Y-77536137D01*
X58018615Y-77439446D01*
X57946652Y-77315613D01*
X57864037Y-77173079D01*
X57775671Y-77020283D01*
X57736985Y-76953284D01*
X57650788Y-76804354D01*
X57571052Y-76667390D01*
X57501944Y-76549485D01*
X57447630Y-76457731D01*
X57412276Y-76399224D01*
X57402733Y-76384241D01*
X57385148Y-76361162D01*
X57368537Y-76354303D01*
X57347646Y-76369411D01*
X57317220Y-76412233D01*
X57272007Y-76488518D01*
X57214597Y-76590057D01*
X57151245Y-76701338D01*
X57092079Y-76802781D01*
X57044178Y-76882395D01*
X57016842Y-76925051D01*
X56986696Y-76982377D01*
X56979623Y-77026521D01*
X56654900Y-77026521D01*
X56654900Y-76167000D01*
X56972400Y-76167000D01*
X56972976Y-76319597D01*
X56974582Y-76453215D01*
X56977034Y-76560167D01*
X56980149Y-76632764D01*
X56983743Y-76663315D01*
X56984269Y-76663800D01*
X57001136Y-76643293D01*
X57037703Y-76587733D01*
X57088266Y-76506057D01*
X57136669Y-76425017D01*
X57193572Y-76327319D01*
X57221771Y-76277720D01*
X57531200Y-76277720D01*
X57544351Y-76330860D01*
X57556648Y-76348888D01*
X57576913Y-76378245D01*
X57617716Y-76444308D01*
X57674575Y-76539573D01*
X57743008Y-76656536D01*
X57813800Y-76779418D01*
X57890974Y-76914290D01*
X57962308Y-77038867D01*
X58022802Y-77144425D01*
X58067457Y-77222238D01*
X58089603Y-77260700D01*
X58126664Y-77324910D01*
X58176349Y-77411209D01*
X58213935Y-77476600D01*
X58260193Y-77556407D01*
X58299061Y-77622171D01*
X58318817Y-77654400D01*
X58345748Y-77699763D01*
X58383771Y-77767906D01*
X58397946Y-77794100D01*
X58456004Y-77886291D01*
X58505288Y-77929532D01*
X58521800Y-77933322D01*
X58538154Y-77912582D01*
X58574806Y-77855227D01*
X58627088Y-77768887D01*
X58690337Y-77661191D01*
X58725000Y-77601048D01*
X58802593Y-77465585D01*
X58881328Y-77328125D01*
X58953037Y-77202932D01*
X59009550Y-77104267D01*
X59019562Y-77086786D01*
X59080979Y-76980023D01*
X59155300Y-76851505D01*
X59229750Y-76723310D01*
X59255823Y-76678576D01*
X59315201Y-76575017D01*
X59351627Y-76504180D01*
X59368680Y-76455464D01*
X59369939Y-76418271D01*
X59358985Y-76382000D01*
X59357333Y-76377962D01*
X59341469Y-76339565D01*
X59325488Y-76308563D01*
X59304173Y-76284166D01*
X59272303Y-76265583D01*
X59224662Y-76252027D01*
X59156031Y-76242705D01*
X59061190Y-76236829D01*
X58934922Y-76233609D01*
X58772009Y-76232255D01*
X58567231Y-76231977D01*
X58392985Y-76232000D01*
X58160830Y-76232130D01*
X57974468Y-76232698D01*
X57828896Y-76233970D01*
X57719106Y-76236211D01*
X57640094Y-76239686D01*
X57586854Y-76244661D01*
X57554380Y-76251402D01*
X57537667Y-76260174D01*
X57531709Y-76271243D01*
X57531200Y-76277720D01*
X57221771Y-76277720D01*
X57239416Y-76246685D01*
X57268915Y-76192538D01*
X57277200Y-76174503D01*
X57265101Y-76144990D01*
X57244685Y-76105662D01*
X57502378Y-76105662D01*
X59271100Y-76092300D01*
X59278451Y-75899186D01*
X59280904Y-75811020D01*
X59277399Y-75745507D01*
X59263561Y-75687933D01*
X59235014Y-75623588D01*
X59187383Y-75537758D01*
X59153816Y-75480086D01*
X59104513Y-75395555D01*
X59059496Y-75318035D01*
X59014031Y-75239273D01*
X58963387Y-75151019D01*
X58902829Y-75045019D01*
X58827627Y-74913022D01*
X58733046Y-74746777D01*
X58710994Y-74708000D01*
X58653004Y-74607918D01*
X58599586Y-74519064D01*
X58558746Y-74454612D01*
X58545208Y-74435207D01*
X58521247Y-74406993D01*
X58499915Y-74397862D01*
X58475485Y-74413220D01*
X58442230Y-74458474D01*
X58394424Y-74539030D01*
X58348156Y-74621251D01*
X58305717Y-74696372D01*
X58243223Y-74805940D01*
X58166117Y-74940464D01*
X58079841Y-75090454D01*
X57989839Y-75246420D01*
X57963364Y-75292200D01*
X57874176Y-75446715D01*
X57787964Y-75596770D01*
X57709952Y-75733224D01*
X57645359Y-75846935D01*
X57599409Y-75928762D01*
X57589571Y-75946581D01*
X57502378Y-76105662D01*
X57244685Y-76105662D01*
X57233193Y-76083527D01*
X57188056Y-76001569D01*
X57136273Y-75910572D01*
X57084423Y-75821992D01*
X57039090Y-75747285D01*
X57006853Y-75697908D01*
X56995794Y-75684660D01*
X56987857Y-75703911D01*
X56981298Y-75768771D01*
X56976371Y-75874063D01*
X56973325Y-76014609D01*
X56972400Y-76167000D01*
X56654900Y-76167000D01*
X56654900Y-74276200D01*
X56972400Y-74276200D01*
X56972400Y-75322435D01*
X57045560Y-75453367D01*
X57141765Y-75624890D01*
X57216762Y-75756539D01*
X57273697Y-75853024D01*
X57315718Y-75919053D01*
X57345971Y-75959332D01*
X57367602Y-75978571D01*
X57383760Y-75981478D01*
X57394540Y-75975476D01*
X57424810Y-75938068D01*
X57429600Y-75921660D01*
X57442982Y-75885188D01*
X57475302Y-75831283D01*
X57476524Y-75829521D01*
X57514592Y-75770004D01*
X57563861Y-75686775D01*
X57600085Y-75622400D01*
X57647485Y-75537550D01*
X57710348Y-75427122D01*
X57778301Y-75309278D01*
X57810447Y-75254100D01*
X57874892Y-75143408D01*
X57937330Y-75035268D01*
X57988409Y-74945915D01*
X58007971Y-74911200D01*
X58053316Y-74831760D01*
X58112796Y-74729933D01*
X58174130Y-74626728D01*
X58178714Y-74619100D01*
X58235579Y-74523080D01*
X58287518Y-74432825D01*
X58324503Y-74365797D01*
X58328181Y-74358750D01*
X58365810Y-74285700D01*
X58648800Y-74285700D01*
X58660517Y-74314012D01*
X58690098Y-74370928D01*
X58729188Y-74441540D01*
X58769430Y-74510943D01*
X58802468Y-74564229D01*
X58814328Y-74581000D01*
X58841091Y-74621464D01*
X58882921Y-74692059D01*
X58931093Y-74778030D01*
X58934454Y-74784200D01*
X59002229Y-74907385D01*
X59071309Y-75030391D01*
X59137061Y-75145259D01*
X59194852Y-75244029D01*
X59240049Y-75318742D01*
X59268021Y-75361439D01*
X59274478Y-75368400D01*
X59277215Y-75344222D01*
X59279635Y-75276579D01*
X59281612Y-75172803D01*
X59283021Y-75040230D01*
X59283736Y-74886191D01*
X59283800Y-74822300D01*
X59283800Y-74276200D01*
X58966300Y-74276200D01*
X58846020Y-74276912D01*
X58746647Y-74278856D01*
X58677799Y-74281745D01*
X58649094Y-74285290D01*
X58648800Y-74285700D01*
X58365810Y-74285700D01*
X58370704Y-74276200D01*
X56972400Y-74276200D01*
X56654900Y-74276200D01*
X56654900Y-73079706D01*
X56972400Y-73079706D01*
X56972400Y-74123800D01*
X58373206Y-74123800D01*
X58362135Y-74104750D01*
X58649364Y-74104750D01*
X58672936Y-74111965D01*
X58737709Y-74117926D01*
X58834090Y-74122057D01*
X58952483Y-74123782D01*
X58966300Y-74123800D01*
X59283800Y-74123800D01*
X59283800Y-73573466D01*
X59283786Y-73568460D01*
X59464551Y-73568460D01*
X59465052Y-73860223D01*
X59466118Y-74154619D01*
X59467728Y-74446990D01*
X59469865Y-74732678D01*
X59472509Y-75007025D01*
X59475642Y-75265372D01*
X59479244Y-75503062D01*
X59483297Y-75715435D01*
X59487781Y-75897834D01*
X59492679Y-76045600D01*
X59497970Y-76154076D01*
X59503636Y-76218603D01*
X59506426Y-76232432D01*
X59569578Y-76354826D01*
X59662567Y-76455986D01*
X59772019Y-76521601D01*
X59779100Y-76524194D01*
X59875953Y-76552833D01*
X59955149Y-76558385D01*
X60043923Y-76541533D01*
X60078200Y-76531701D01*
X60209213Y-76467025D01*
X60311853Y-76362568D01*
X60381012Y-76223709D01*
X60386050Y-76207599D01*
X60394194Y-76175450D01*
X60401191Y-76135382D01*
X60404670Y-76105000D01*
X60604600Y-76105000D01*
X60858600Y-76105000D01*
X60981019Y-76103295D01*
X61059584Y-76097583D01*
X61101147Y-76086965D01*
X61112600Y-76071683D01*
X61106383Y-76032745D01*
X61089873Y-75958914D01*
X61066279Y-75864271D01*
X61059046Y-75836733D01*
X61037064Y-75752569D01*
X61005389Y-75629402D01*
X60966642Y-75477514D01*
X60923441Y-75307188D01*
X60878408Y-75128706D01*
X60858994Y-75051460D01*
X60712494Y-74467821D01*
X60658642Y-74556160D01*
X60642996Y-74583927D01*
X60630710Y-74614049D01*
X60621379Y-74652688D01*
X60614597Y-74706011D01*
X60609957Y-74780180D01*
X60607052Y-74881361D01*
X60605477Y-75015717D01*
X60604826Y-75189413D01*
X60604694Y-75374750D01*
X60604600Y-76105000D01*
X60404670Y-76105000D01*
X60407119Y-76083613D01*
X60412059Y-76016364D01*
X60416091Y-75929852D01*
X60419295Y-75820298D01*
X60421752Y-75683919D01*
X60423541Y-75516935D01*
X60424743Y-75315566D01*
X60425437Y-75076029D01*
X60425704Y-74794545D01*
X60425624Y-74467332D01*
X60425532Y-74344589D01*
X60425509Y-74288900D01*
X60604600Y-74288900D01*
X60617300Y-74301600D01*
X60630000Y-74288900D01*
X60617300Y-74276200D01*
X60604600Y-74288900D01*
X60425509Y-74288900D01*
X60425409Y-74053372D01*
X60425536Y-73777353D01*
X60425895Y-73520687D01*
X60426469Y-73287528D01*
X60427240Y-73082029D01*
X60428190Y-72908346D01*
X60429303Y-72770632D01*
X60430561Y-72673042D01*
X60431947Y-72619729D01*
X60432788Y-72610745D01*
X60440428Y-72632940D01*
X60459163Y-72699930D01*
X60487827Y-72807214D01*
X60525253Y-72950288D01*
X60570276Y-73124651D01*
X60621729Y-73325799D01*
X60678446Y-73549231D01*
X60739261Y-73790444D01*
X60767421Y-73902661D01*
X60865092Y-74291965D01*
X60951436Y-74634968D01*
X61027259Y-74934699D01*
X61093369Y-75194184D01*
X61150576Y-75416454D01*
X61199685Y-75604535D01*
X61241507Y-75761455D01*
X61276847Y-75890244D01*
X61306515Y-75993929D01*
X61331318Y-76075538D01*
X61352064Y-76138099D01*
X61369561Y-76184641D01*
X61384617Y-76218191D01*
X61385863Y-76220643D01*
X61483146Y-76362674D01*
X61607516Y-76468002D01*
X61732290Y-76524743D01*
X61815603Y-76548362D01*
X61875431Y-76558960D01*
X61933018Y-76557138D01*
X62009608Y-76543500D01*
X62054865Y-76533898D01*
X62195566Y-76478901D01*
X62319864Y-76382105D01*
X62418248Y-76252043D01*
X62456037Y-76174026D01*
X62472948Y-76123146D01*
X62485444Y-76080738D01*
X62695981Y-76080738D01*
X62711044Y-76093715D01*
X62751627Y-76101043D01*
X62826227Y-76104283D01*
X62939688Y-76105000D01*
X63195400Y-76105000D01*
X63195400Y-75367138D01*
X63195028Y-75147234D01*
X63193722Y-74972326D01*
X63191199Y-74836612D01*
X63187173Y-74734292D01*
X63181361Y-74659566D01*
X63173477Y-74606634D01*
X63163237Y-74569693D01*
X63155427Y-74551978D01*
X63126706Y-74502830D01*
X63108286Y-74482902D01*
X63106958Y-74483389D01*
X63098593Y-74509460D01*
X63079814Y-74577751D01*
X63052477Y-74681187D01*
X63018443Y-74812694D01*
X62979566Y-74965195D01*
X62957940Y-75050900D01*
X62886506Y-75334333D01*
X62826822Y-75569760D01*
X62778544Y-75758513D01*
X62741329Y-75901925D01*
X62714834Y-76001329D01*
X62698716Y-76058057D01*
X62697941Y-76060550D01*
X62695981Y-76080738D01*
X62485444Y-76080738D01*
X62500054Y-76031158D01*
X62535198Y-75906225D01*
X62576223Y-75756514D01*
X62620973Y-75590190D01*
X62667290Y-75415420D01*
X62713018Y-75240369D01*
X62755999Y-75073202D01*
X62794078Y-74922086D01*
X62825097Y-74795186D01*
X62846900Y-74700669D01*
X62853322Y-74669900D01*
X62864543Y-74621441D01*
X62885002Y-74540308D01*
X62910564Y-74442834D01*
X62914373Y-74428600D01*
X62945942Y-74309116D01*
X62978354Y-74183600D01*
X63002981Y-74085700D01*
X63019199Y-74020378D01*
X63045770Y-73914038D01*
X63080628Y-73774921D01*
X63121705Y-73611265D01*
X63166935Y-73431312D01*
X63213195Y-73247500D01*
X63385900Y-72561700D01*
X63398600Y-74377800D01*
X63401007Y-74678093D01*
X63403898Y-74964284D01*
X63407192Y-75232200D01*
X63410811Y-75477668D01*
X63414675Y-75696514D01*
X63418704Y-75884567D01*
X63422820Y-76037652D01*
X63426943Y-76151598D01*
X63430993Y-76222231D01*
X63434106Y-76244700D01*
X63519229Y-76382525D01*
X63628594Y-76480670D01*
X63754764Y-76537404D01*
X63890302Y-76551001D01*
X64027772Y-76519729D01*
X64150882Y-76447087D01*
X64424329Y-76447087D01*
X64502014Y-76579727D01*
X64541579Y-76647544D01*
X64600208Y-76748375D01*
X64671535Y-76871258D01*
X64749196Y-77005230D01*
X64795600Y-77085365D01*
X64872293Y-77217829D01*
X64944755Y-77342923D01*
X65007150Y-77450578D01*
X65053642Y-77530724D01*
X65072242Y-77562731D01*
X65166081Y-77725845D01*
X65236424Y-77852241D01*
X65249545Y-77876650D01*
X65286059Y-77925352D01*
X65322804Y-77925382D01*
X65354650Y-77895397D01*
X65389112Y-77846084D01*
X65427410Y-77781195D01*
X65427611Y-77780824D01*
X65452558Y-77736163D01*
X65459887Y-77723283D01*
X65649645Y-77723283D01*
X65653156Y-77730600D01*
X65684947Y-77717940D01*
X65744196Y-77685318D01*
X65794809Y-77654400D01*
X65862318Y-77612724D01*
X65910587Y-77585046D01*
X65925901Y-77578200D01*
X65950680Y-77566027D01*
X66010417Y-77532799D01*
X66096418Y-77483446D01*
X66199991Y-77422902D01*
X66210769Y-77416547D01*
X66338524Y-77341375D01*
X66471788Y-77263325D01*
X66592948Y-77192695D01*
X66668850Y-77148727D01*
X66752987Y-77098214D01*
X66816900Y-77056023D01*
X66850274Y-77029114D01*
X66852832Y-77024629D01*
X66839874Y-76993416D01*
X66808267Y-76940085D01*
X66801982Y-76930500D01*
X66769122Y-76877643D01*
X66718910Y-76792792D01*
X66658621Y-76688383D01*
X66605299Y-76594281D01*
X66547129Y-76492610D01*
X66497524Y-76409508D01*
X66461842Y-76353710D01*
X66445595Y-76333931D01*
X66427653Y-76354318D01*
X66392472Y-76408632D01*
X66346934Y-76486096D01*
X66336280Y-76505050D01*
X66293082Y-76581678D01*
X66229132Y-76694017D01*
X66149160Y-76833828D01*
X66057897Y-76992876D01*
X65960075Y-77162924D01*
X65860423Y-77335736D01*
X65763674Y-77503075D01*
X65694343Y-77622650D01*
X65662467Y-77684194D01*
X65649645Y-77723283D01*
X65459887Y-77723283D01*
X65497505Y-77657176D01*
X65557173Y-77553012D01*
X65626282Y-77432818D01*
X65699554Y-77305743D01*
X65771710Y-77180935D01*
X65837472Y-77067543D01*
X65891559Y-76974714D01*
X65928694Y-76911596D01*
X65940265Y-76892400D01*
X65964222Y-76851450D01*
X66003861Y-76781493D01*
X66048253Y-76701900D01*
X66113298Y-76584885D01*
X66159923Y-76502545D01*
X66194017Y-76444949D01*
X66221471Y-76402165D01*
X66248174Y-76364261D01*
X66249750Y-76362104D01*
X66274319Y-76328116D01*
X66290364Y-76300571D01*
X66293546Y-76278802D01*
X66279526Y-76262146D01*
X66243966Y-76249935D01*
X66182526Y-76241506D01*
X66090869Y-76236192D01*
X65964654Y-76233328D01*
X65799544Y-76232249D01*
X65591200Y-76232289D01*
X65405635Y-76232650D01*
X64517070Y-76234412D01*
X64470699Y-76340749D01*
X64424329Y-76447087D01*
X64150882Y-76447087D01*
X64159738Y-76441862D01*
X64185985Y-76419491D01*
X64258219Y-76339893D01*
X64299939Y-76250333D01*
X64313178Y-76198608D01*
X64318335Y-76156972D01*
X66540270Y-76156972D01*
X66549724Y-76186378D01*
X66579486Y-76247284D01*
X66623271Y-76328789D01*
X66674791Y-76419994D01*
X66727761Y-76509998D01*
X66775892Y-76587900D01*
X66812899Y-76642800D01*
X66832495Y-76663798D01*
X66832575Y-76663800D01*
X66838753Y-76639661D01*
X66844181Y-76572291D01*
X66848558Y-76469254D01*
X66851581Y-76338117D01*
X66852950Y-76186444D01*
X66853000Y-76150719D01*
X66851905Y-75975822D01*
X66848755Y-75835407D01*
X66843747Y-75733627D01*
X66837081Y-75674637D01*
X66829614Y-75661769D01*
X66808838Y-75691711D01*
X66770109Y-75754104D01*
X66720232Y-75837300D01*
X66666014Y-75929651D01*
X66614259Y-76019508D01*
X66571775Y-76095224D01*
X66545367Y-76145151D01*
X66540270Y-76156972D01*
X64318335Y-76156972D01*
X64318751Y-76153620D01*
X64321544Y-76106188D01*
X64541600Y-76106188D01*
X65404478Y-76104335D01*
X65608818Y-76103281D01*
X65796667Y-76101128D01*
X65962069Y-76098038D01*
X66099067Y-76094170D01*
X66201707Y-76089684D01*
X66264032Y-76084740D01*
X66280774Y-76080774D01*
X66274906Y-76047890D01*
X66243499Y-75977576D01*
X66189078Y-75874745D01*
X66114169Y-75744308D01*
X66068810Y-75668605D01*
X66042922Y-75624801D01*
X65996750Y-75545554D01*
X65935290Y-75439484D01*
X65863540Y-75315211D01*
X65798900Y-75202938D01*
X65722436Y-75070078D01*
X65652163Y-74948200D01*
X65593052Y-74845913D01*
X65550078Y-74771823D01*
X65530062Y-74737632D01*
X65494540Y-74676332D01*
X65447695Y-74593628D01*
X65419370Y-74542900D01*
X65378496Y-74469550D01*
X65347127Y-74413852D01*
X65335323Y-74393394D01*
X65313773Y-74392194D01*
X65274697Y-74432916D01*
X65217105Y-74516895D01*
X65140011Y-74645467D01*
X65111594Y-74695300D01*
X65057992Y-74789736D01*
X65011865Y-74870182D01*
X64980334Y-74924251D01*
X64972853Y-74936600D01*
X64950048Y-74974842D01*
X64907287Y-75048258D01*
X64849740Y-75147872D01*
X64782575Y-75264703D01*
X64710960Y-75389775D01*
X64640063Y-75514108D01*
X64614610Y-75558900D01*
X64577368Y-75631173D01*
X64555512Y-75697298D01*
X64545077Y-75775706D01*
X64542096Y-75884828D01*
X64542060Y-75896044D01*
X64541600Y-76106188D01*
X64321544Y-76106188D01*
X64323505Y-76072914D01*
X64327457Y-75954834D01*
X64330619Y-75797724D01*
X64333007Y-75599927D01*
X64334636Y-75359787D01*
X64335521Y-75075650D01*
X64335675Y-74745858D01*
X64335115Y-74368756D01*
X64334842Y-74276200D01*
X64541600Y-74276200D01*
X64542786Y-75381100D01*
X64612043Y-75260377D01*
X64652119Y-75190650D01*
X64709832Y-75090407D01*
X64777416Y-74973128D01*
X64846136Y-74853977D01*
X64917688Y-74729732D01*
X64988743Y-74605936D01*
X65050828Y-74497379D01*
X65093544Y-74422250D01*
X65165576Y-74294841D01*
X65456094Y-74294841D01*
X65468454Y-74326947D01*
X65499185Y-74383313D01*
X65511202Y-74403200D01*
X65541924Y-74454310D01*
X65592578Y-74540224D01*
X65657764Y-74651710D01*
X65732080Y-74779537D01*
X65793575Y-74885800D01*
X65871276Y-75020260D01*
X65944004Y-75145956D01*
X66006366Y-75253579D01*
X66052970Y-75333821D01*
X66075018Y-75371594D01*
X66109162Y-75430566D01*
X66160929Y-75520971D01*
X66222999Y-75629991D01*
X66281500Y-75733212D01*
X66341005Y-75836701D01*
X66391796Y-75921759D01*
X66428645Y-75979859D01*
X66446323Y-76002473D01*
X66446600Y-76002520D01*
X66463949Y-75981885D01*
X66499635Y-75926860D01*
X66547309Y-75847454D01*
X66571229Y-75806002D01*
X66635956Y-75691646D01*
X66703903Y-75570272D01*
X66761768Y-75465658D01*
X66768623Y-75453124D01*
X66854088Y-75296549D01*
X66847194Y-74792724D01*
X66840300Y-74288900D01*
X66148150Y-74282141D01*
X65966604Y-74281052D01*
X65802864Y-74281381D01*
X65663442Y-74283010D01*
X65554850Y-74285818D01*
X65483599Y-74289686D01*
X65456202Y-74294495D01*
X65456094Y-74294841D01*
X65165576Y-74294841D01*
X65176115Y-74276200D01*
X64541600Y-74276200D01*
X64334842Y-74276200D01*
X64333854Y-73942689D01*
X64333682Y-73895200D01*
X64332674Y-73590400D01*
X64541600Y-73590400D01*
X64541600Y-74123800D01*
X65180743Y-74123800D01*
X65174703Y-74113767D01*
X65456000Y-74113767D01*
X65480319Y-74116388D01*
X65548953Y-74118752D01*
X65655418Y-74120769D01*
X65793228Y-74122344D01*
X65955901Y-74123384D01*
X66136950Y-74123796D01*
X66154500Y-74123800D01*
X66853000Y-74123800D01*
X66853000Y-73600671D01*
X66852590Y-73422004D01*
X66850974Y-73286833D01*
X66847571Y-73187857D01*
X66841801Y-73117775D01*
X66833084Y-73069286D01*
X66820839Y-73035089D01*
X66806062Y-73010121D01*
X66771005Y-72955003D01*
X66721857Y-72871841D01*
X66668486Y-72777384D01*
X66661616Y-72764900D01*
X66605470Y-72664217D01*
X66549581Y-72566765D01*
X66505466Y-72492609D01*
X66503169Y-72488894D01*
X66442231Y-72390688D01*
X66232258Y-72755594D01*
X66151903Y-72895217D01*
X66054387Y-73064624D01*
X65947905Y-73249580D01*
X65840652Y-73435850D01*
X65740824Y-73609198D01*
X65739142Y-73612117D01*
X65657346Y-73754568D01*
X65584813Y-73881710D01*
X65525152Y-73987147D01*
X65481973Y-74064485D01*
X65458885Y-74107327D01*
X65456000Y-74113767D01*
X65174703Y-74113767D01*
X65131043Y-74041250D01*
X65093877Y-73978492D01*
X65035931Y-73879359D01*
X64961672Y-73751554D01*
X64875567Y-73602785D01*
X64782083Y-73440756D01*
X64685687Y-73273172D01*
X64674591Y-73253850D01*
X64623512Y-73166684D01*
X64582042Y-73099295D01*
X64556392Y-73061618D01*
X64551591Y-73057000D01*
X64548624Y-73081163D01*
X64546007Y-73148705D01*
X64543879Y-73252205D01*
X64542380Y-73384243D01*
X64541649Y-73537399D01*
X64541600Y-73590400D01*
X64332674Y-73590400D01*
X64332380Y-73501836D01*
X64331328Y-73156067D01*
X64330195Y-72854692D01*
X64328649Y-72594509D01*
X64328534Y-72583289D01*
X64541523Y-72583289D01*
X64543242Y-72635077D01*
X64549682Y-72682227D01*
X64563769Y-72731647D01*
X64588426Y-72790245D01*
X64626580Y-72864930D01*
X64681154Y-72962611D01*
X64755074Y-73090196D01*
X64851265Y-73254593D01*
X64856220Y-73263063D01*
X64888015Y-73317942D01*
X64938859Y-73406304D01*
X65002638Y-73517498D01*
X65073238Y-73640876D01*
X65100400Y-73688417D01*
X65167907Y-73803749D01*
X65227884Y-73900828D01*
X65275468Y-73972199D01*
X65305800Y-74010404D01*
X65313083Y-74014709D01*
X65338230Y-73990041D01*
X65376011Y-73936201D01*
X65393885Y-73906855D01*
X65451579Y-73807541D01*
X65526253Y-73678506D01*
X65609627Y-73534103D01*
X65693418Y-73388683D01*
X65769345Y-73256600D01*
X65810958Y-73184000D01*
X65858793Y-73100687D01*
X65924413Y-72986795D01*
X66000110Y-72855681D01*
X66078177Y-72720705D01*
X66099813Y-72683345D01*
X66167118Y-72566309D01*
X66224320Y-72465220D01*
X66267009Y-72387997D01*
X66290779Y-72342557D01*
X66294200Y-72334095D01*
X66269765Y-72330887D01*
X66200319Y-72327946D01*
X66091653Y-72325363D01*
X65949556Y-72323227D01*
X65779817Y-72321630D01*
X65588226Y-72320661D01*
X65417900Y-72320400D01*
X64541600Y-72320400D01*
X64541600Y-72519955D01*
X64541523Y-72583289D01*
X64328534Y-72583289D01*
X64326359Y-72372316D01*
X64323802Y-72229824D01*
X66547745Y-72229824D01*
X66548756Y-72262281D01*
X66563108Y-72293708D01*
X66573399Y-72310836D01*
X66607348Y-72367752D01*
X66656928Y-72452381D01*
X66712552Y-72548336D01*
X66723906Y-72568050D01*
X66773547Y-72652109D01*
X66813748Y-72716039D01*
X66837945Y-72749557D01*
X66841420Y-72752200D01*
X66844922Y-72728060D01*
X66847998Y-72660685D01*
X66850479Y-72557638D01*
X66852193Y-72426480D01*
X66852971Y-72274778D01*
X66853000Y-72238757D01*
X66852959Y-72053704D01*
X66851336Y-71916949D01*
X66845877Y-71825992D01*
X66834331Y-71778333D01*
X66814446Y-71771475D01*
X66783968Y-71802918D01*
X66740646Y-71870164D01*
X66682227Y-71970714D01*
X66654681Y-72018736D01*
X66597715Y-72118805D01*
X66563067Y-72185583D01*
X66547745Y-72229824D01*
X64323802Y-72229824D01*
X64322995Y-72184912D01*
X64318224Y-72029096D01*
X64311716Y-71901665D01*
X64307794Y-71854905D01*
X64527307Y-71854905D01*
X64531976Y-71950937D01*
X64540828Y-72037774D01*
X64549520Y-72105554D01*
X64554880Y-72134252D01*
X64581631Y-72142200D01*
X64651986Y-72149130D01*
X64758759Y-72155011D01*
X64894764Y-72159815D01*
X65052815Y-72163511D01*
X65225727Y-72166070D01*
X65406312Y-72167463D01*
X65587386Y-72167659D01*
X65761761Y-72166630D01*
X65922252Y-72164345D01*
X66061673Y-72160776D01*
X66172838Y-72155892D01*
X66248560Y-72149664D01*
X66281654Y-72142062D01*
X66282263Y-72141364D01*
X66282935Y-72101216D01*
X66273157Y-72084337D01*
X66253656Y-72054307D01*
X66213313Y-71987586D01*
X66156454Y-71891611D01*
X66087406Y-71773818D01*
X66010495Y-71641644D01*
X65930049Y-71502524D01*
X65850393Y-71363895D01*
X65775853Y-71233194D01*
X65710758Y-71117856D01*
X65708541Y-71113900D01*
X65642379Y-70997295D01*
X65570856Y-70873807D01*
X65499865Y-70753333D01*
X65457025Y-70681965D01*
X65651198Y-70681965D01*
X65666612Y-70730342D01*
X65690848Y-70777350D01*
X65725716Y-70838366D01*
X65779994Y-70932990D01*
X65849114Y-71053292D01*
X65928511Y-71191341D01*
X66013618Y-71339209D01*
X66099868Y-71488965D01*
X66182694Y-71632680D01*
X66257530Y-71762425D01*
X66319809Y-71870270D01*
X66364964Y-71948284D01*
X66385573Y-71983689D01*
X66420089Y-72037020D01*
X66444515Y-72065015D01*
X66447532Y-72066239D01*
X66464132Y-72045416D01*
X66501087Y-71987823D01*
X66553814Y-71900949D01*
X66617730Y-71792282D01*
X66659128Y-71720466D01*
X66725418Y-71601231D01*
X66779555Y-71497257D01*
X66817709Y-71416452D01*
X66836052Y-71366725D01*
X66835996Y-71355132D01*
X66809203Y-71337821D01*
X66745651Y-71299676D01*
X66652742Y-71244978D01*
X66537876Y-71178005D01*
X66408452Y-71103038D01*
X66271872Y-71024357D01*
X66135535Y-70946239D01*
X66006843Y-70872966D01*
X65893195Y-70808817D01*
X65837000Y-70777428D01*
X65766576Y-70736667D01*
X65713924Y-70703246D01*
X65698569Y-70691663D01*
X65662005Y-70667358D01*
X65651198Y-70681965D01*
X65457025Y-70681965D01*
X65435297Y-70645769D01*
X65383044Y-70561013D01*
X65348999Y-70508960D01*
X65345615Y-70504300D01*
X65307595Y-70453500D01*
X65268917Y-70504300D01*
X65226480Y-70567864D01*
X65197715Y-70618600D01*
X65169343Y-70670726D01*
X65123919Y-70750772D01*
X65070388Y-70843012D01*
X65060462Y-70859900D01*
X64950863Y-71046342D01*
X64863021Y-71196680D01*
X64792607Y-71318402D01*
X64735291Y-71418992D01*
X64686741Y-71505936D01*
X64685824Y-71507600D01*
X64636206Y-71596351D01*
X64589013Y-71678860D01*
X64563400Y-71722337D01*
X64536663Y-71782353D01*
X64527307Y-71854905D01*
X64307794Y-71854905D01*
X64303140Y-71799419D01*
X64292164Y-71719155D01*
X64278457Y-71657673D01*
X64261687Y-71611770D01*
X64241525Y-71578245D01*
X64217638Y-71553896D01*
X64189696Y-71535523D01*
X64157366Y-71519923D01*
X64120319Y-71503894D01*
X64084599Y-71487409D01*
X64030482Y-71461918D01*
X63981761Y-71443660D01*
X63928639Y-71431431D01*
X63861318Y-71424025D01*
X63769999Y-71420238D01*
X63644886Y-71418867D01*
X63525600Y-71418700D01*
X63318561Y-71421198D01*
X63155275Y-71431258D01*
X63028830Y-71452727D01*
X62932316Y-71489452D01*
X62858822Y-71545281D01*
X62801435Y-71624059D01*
X62753245Y-71729635D01*
X62707341Y-71865855D01*
X62704260Y-71875900D01*
X62673196Y-71978887D01*
X62646373Y-72070170D01*
X62628596Y-72133334D01*
X62626180Y-72142600D01*
X62612661Y-72194714D01*
X62589853Y-72281094D01*
X62561670Y-72386949D01*
X62547192Y-72441050D01*
X62488190Y-72661968D01*
X62425163Y-72899419D01*
X62363781Y-73131974D01*
X62309717Y-73338202D01*
X62306874Y-73349100D01*
X62285918Y-73428858D01*
X62254690Y-73546923D01*
X62216049Y-73692525D01*
X62172853Y-73854897D01*
X62127961Y-74023270D01*
X62121466Y-74047600D01*
X62077628Y-74212609D01*
X62036206Y-74370077D01*
X61999774Y-74510102D01*
X61970904Y-74622780D01*
X61952172Y-74698208D01*
X61949951Y-74707597D01*
X61935553Y-74767052D01*
X61923399Y-74802151D01*
X61910924Y-74808712D01*
X61895563Y-74782551D01*
X61874754Y-74719485D01*
X61845931Y-74615332D01*
X61810073Y-74479400D01*
X61772493Y-74336596D01*
X61731325Y-74180710D01*
X61693299Y-74037201D01*
X61679179Y-73984100D01*
X61644168Y-73852335D01*
X61606630Y-73710592D01*
X61573668Y-73585702D01*
X61568222Y-73565000D01*
X61473755Y-73205645D01*
X61400055Y-72925898D01*
X61596911Y-72925898D01*
X61635177Y-73073999D01*
X61663753Y-73182916D01*
X61694129Y-73296203D01*
X61708606Y-73349100D01*
X61739399Y-73461579D01*
X61779592Y-73610296D01*
X61825714Y-73782343D01*
X61874291Y-73964815D01*
X61876037Y-73971400D01*
X61895017Y-74038416D01*
X61907814Y-74061715D01*
X61920420Y-74046902D01*
X61930327Y-74022200D01*
X61951453Y-73954612D01*
X61972302Y-73870788D01*
X61975210Y-73857100D01*
X61990333Y-73791548D01*
X62015359Y-73691470D01*
X62046613Y-73571289D01*
X62075521Y-73463400D01*
X62122859Y-73289371D01*
X62157805Y-73156355D01*
X62180629Y-73056169D01*
X62191601Y-72980627D01*
X62190990Y-72921547D01*
X62179067Y-72870744D01*
X62156100Y-72820034D01*
X62122359Y-72761233D01*
X62099905Y-72723490D01*
X62043691Y-72627103D01*
X61993319Y-72538415D01*
X61957793Y-72473339D01*
X61952219Y-72462490D01*
X61923523Y-72416020D01*
X61902539Y-72413160D01*
X61893870Y-72424390D01*
X61872564Y-72460245D01*
X61831851Y-72528929D01*
X61778186Y-72619549D01*
X61734716Y-72692999D01*
X61596911Y-72925898D01*
X61400055Y-72925898D01*
X61391152Y-72892105D01*
X61319275Y-72621088D01*
X61256989Y-72389299D01*
X61242214Y-72335540D01*
X61442800Y-72335540D01*
X61449114Y-72365745D01*
X61465180Y-72428823D01*
X61486678Y-72508837D01*
X61509291Y-72589847D01*
X61528698Y-72655914D01*
X61534962Y-72675697D01*
X61553160Y-72680121D01*
X61588555Y-72638349D01*
X61620356Y-72586797D01*
X61669022Y-72502328D01*
X61713934Y-72424540D01*
X61733785Y-72390250D01*
X61743826Y-72372940D01*
X62067349Y-72372940D01*
X62100626Y-72427123D01*
X62116801Y-72447400D01*
X62146728Y-72492454D01*
X62186111Y-72562159D01*
X62203612Y-72595911D01*
X62237575Y-72657380D01*
X62262826Y-72692124D01*
X62270213Y-72695252D01*
X62281587Y-72666990D01*
X62301389Y-72602609D01*
X62325616Y-72515246D01*
X62329038Y-72502291D01*
X62376792Y-72320400D01*
X62215393Y-72320400D01*
X62120856Y-72324573D01*
X62072800Y-72340421D01*
X62067349Y-72372940D01*
X61743826Y-72372940D01*
X61774304Y-72320400D01*
X61608552Y-72320400D01*
X61524279Y-72322517D01*
X61464601Y-72328057D01*
X61442800Y-72335540D01*
X61242214Y-72335540D01*
X61203159Y-72193446D01*
X61156648Y-72030234D01*
X61116321Y-71896371D01*
X61081042Y-71788563D01*
X61049675Y-71703516D01*
X61021085Y-71637937D01*
X60994136Y-71588534D01*
X60967691Y-71552012D01*
X60940615Y-71525077D01*
X60911772Y-71504438D01*
X60880028Y-71486799D01*
X60845564Y-71469531D01*
X60801726Y-71450291D01*
X60753018Y-71436555D01*
X60690261Y-71427426D01*
X60604281Y-71422010D01*
X60485902Y-71419410D01*
X60325945Y-71418731D01*
X60325200Y-71418731D01*
X60130406Y-71420666D01*
X59978311Y-71427622D01*
X59860924Y-71441281D01*
X59770252Y-71463321D01*
X59698305Y-71495423D01*
X59637092Y-71539265D01*
X59603707Y-71570385D01*
X59552628Y-71629944D01*
X59519687Y-71695329D01*
X59496489Y-71785449D01*
X59488549Y-71829707D01*
X59483122Y-71888149D01*
X59478429Y-71991148D01*
X59474451Y-72134046D01*
X59471170Y-72312186D01*
X59468567Y-72520908D01*
X59466622Y-72755555D01*
X59465317Y-73011468D01*
X59464633Y-73283989D01*
X59464551Y-73568460D01*
X59283786Y-73568460D01*
X59283347Y-73413219D01*
X59282079Y-73272305D01*
X59280134Y-73157843D01*
X59277647Y-73076953D01*
X59274755Y-73036754D01*
X59273452Y-73033716D01*
X59255762Y-73060965D01*
X59213794Y-73130985D01*
X59148367Y-73242379D01*
X59060302Y-73393752D01*
X58953887Y-73577700D01*
X58916183Y-73642393D01*
X58865749Y-73728169D01*
X58830148Y-73788367D01*
X58788048Y-73861919D01*
X58758933Y-73917679D01*
X58749835Y-73940767D01*
X58735230Y-73971459D01*
X58700758Y-74020714D01*
X58699600Y-74022200D01*
X58664709Y-74072059D01*
X58649388Y-74104329D01*
X58649364Y-74104750D01*
X58362135Y-74104750D01*
X58314153Y-74022193D01*
X58274384Y-73953594D01*
X58215517Y-73851827D01*
X58142529Y-73725519D01*
X58060396Y-73583293D01*
X57974097Y-73433776D01*
X57888609Y-73285592D01*
X57808908Y-73147366D01*
X57739971Y-73027724D01*
X57686776Y-72935291D01*
X57655471Y-72880738D01*
X57604317Y-72792325D01*
X57552928Y-72705107D01*
X57535473Y-72676000D01*
X57486302Y-72592241D01*
X57435495Y-72502191D01*
X57428480Y-72489388D01*
X57394808Y-72432402D01*
X57371644Y-72402074D01*
X57367057Y-72400488D01*
X57350493Y-72426186D01*
X57319292Y-72479394D01*
X57308587Y-72498200D01*
X57274891Y-72557200D01*
X57223457Y-72646572D01*
X57162089Y-72752776D01*
X57115357Y-72833403D01*
X56972400Y-73079706D01*
X56654900Y-73079706D01*
X56654900Y-72227919D01*
X56972400Y-72227919D01*
X56973408Y-72380292D01*
X56976219Y-72512744D01*
X56980516Y-72617886D01*
X56985979Y-72688333D01*
X56992290Y-72716696D01*
X56993490Y-72716763D01*
X57015044Y-72690315D01*
X57054931Y-72630538D01*
X57106150Y-72548133D01*
X57131628Y-72505511D01*
X57185639Y-72412548D01*
X57230293Y-72332925D01*
X57236896Y-72320400D01*
X57500811Y-72320400D01*
X57553829Y-72402950D01*
X57582182Y-72449500D01*
X57630750Y-72531760D01*
X57694652Y-72641271D01*
X57769007Y-72769574D01*
X57848935Y-72908210D01*
X57929556Y-73048720D01*
X58005987Y-73182645D01*
X58073350Y-73301526D01*
X58111465Y-73369418D01*
X58152330Y-73440976D01*
X58209225Y-73538529D01*
X58271924Y-73644585D01*
X58292642Y-73679300D01*
X58352380Y-73780560D01*
X58407046Y-73875758D01*
X58447696Y-73949231D01*
X58457698Y-73968373D01*
X58501141Y-74054246D01*
X58568076Y-73942973D01*
X58616189Y-73861717D01*
X58659817Y-73785975D01*
X58673655Y-73761176D01*
X58698242Y-73717662D01*
X58743658Y-73638525D01*
X58805120Y-73532015D01*
X58877846Y-73406379D01*
X58957051Y-73269867D01*
X59037954Y-73130727D01*
X59115770Y-72997208D01*
X59185718Y-72877558D01*
X59212885Y-72831237D01*
X59250001Y-72759794D01*
X59271164Y-72691058D01*
X59280667Y-72605738D01*
X59282735Y-72517250D01*
X59283800Y-72320400D01*
X57500811Y-72320400D01*
X57236896Y-72320400D01*
X57258669Y-72279100D01*
X57264109Y-72267077D01*
X57257607Y-72232581D01*
X57230826Y-72166104D01*
X57218896Y-72140857D01*
X57531200Y-72140857D01*
X57549178Y-72148938D01*
X57604698Y-72155183D01*
X57700138Y-72159651D01*
X57837877Y-72162398D01*
X58020293Y-72163484D01*
X58249764Y-72162964D01*
X58401150Y-72161983D01*
X59271100Y-72155300D01*
X59283800Y-71966446D01*
X59288189Y-71858077D01*
X59282715Y-71786764D01*
X59265887Y-71739456D01*
X59256272Y-71725146D01*
X59224274Y-71676808D01*
X59178540Y-71599796D01*
X59128790Y-71510496D01*
X59127230Y-71507600D01*
X59073106Y-71408844D01*
X59006034Y-71289300D01*
X58930458Y-71156588D01*
X58850825Y-71018327D01*
X58771581Y-70882138D01*
X58697171Y-70755641D01*
X58632043Y-70646455D01*
X58580642Y-70562200D01*
X58547413Y-70510496D01*
X58538663Y-70498868D01*
X58499584Y-70481260D01*
X58482015Y-70486168D01*
X58461763Y-70512996D01*
X58421087Y-70577239D01*
X58364189Y-70671882D01*
X58295277Y-70789908D01*
X58218553Y-70924303D01*
X58204739Y-70948800D01*
X58125532Y-71088918D01*
X58052237Y-71217452D01*
X57989439Y-71326450D01*
X57941722Y-71407963D01*
X57913670Y-71454039D01*
X57911849Y-71456800D01*
X57876290Y-71513892D01*
X57828861Y-71595301D01*
X57792721Y-71660000D01*
X57737170Y-71759574D01*
X57671751Y-71874065D01*
X57623745Y-71956373D01*
X57577996Y-72037484D01*
X57544914Y-72103116D01*
X57531254Y-72139805D01*
X57531200Y-72140857D01*
X57218896Y-72140857D01*
X57189740Y-72079157D01*
X57140325Y-71983250D01*
X57088554Y-71889892D01*
X57040403Y-71810592D01*
X57001846Y-71756862D01*
X56995785Y-71750169D01*
X56987683Y-71765794D01*
X56981090Y-71828012D01*
X56976211Y-71932633D01*
X56973252Y-72075467D01*
X56972400Y-72227919D01*
X56654900Y-72227919D01*
X56654900Y-71382710D01*
X56972400Y-71382710D01*
X56985247Y-71420295D01*
X57014589Y-71472175D01*
X57058868Y-71543767D01*
X57097139Y-71610457D01*
X57196724Y-71789376D01*
X57274935Y-71922343D01*
X57331835Y-72009462D01*
X57367489Y-72050834D01*
X57378454Y-72053913D01*
X57397442Y-72028511D01*
X57437347Y-71965678D01*
X57494074Y-71872195D01*
X57563521Y-71754843D01*
X57641591Y-71620406D01*
X57663100Y-71582960D01*
X57752580Y-71426869D01*
X57843355Y-71268609D01*
X57928767Y-71119779D01*
X58002161Y-70991978D01*
X58056326Y-70897763D01*
X58109462Y-70803695D01*
X58150058Y-70728451D01*
X58173331Y-70681118D01*
X58176536Y-70669400D01*
X58150236Y-70681172D01*
X58090603Y-70712531D01*
X58008223Y-70757537D01*
X57913685Y-70810252D01*
X57817576Y-70864736D01*
X57730483Y-70915050D01*
X57662995Y-70955256D01*
X57632800Y-70974399D01*
X57575703Y-71010043D01*
X57494289Y-71057530D01*
X57429600Y-71093678D01*
X57264506Y-71185898D01*
X57133240Y-71263223D01*
X57038952Y-71323663D01*
X56984792Y-71365225D01*
X56972400Y-71382710D01*
X56654900Y-71382710D01*
X56654900Y-71146433D01*
X56896200Y-71005434D01*
X56992898Y-70949123D01*
X57122656Y-70873840D01*
X57274499Y-70785937D01*
X57437447Y-70691769D01*
X57600526Y-70597688D01*
X57632800Y-70579091D01*
X57818490Y-70472114D01*
X57983068Y-70377300D01*
X58655402Y-70377300D01*
X59001351Y-70980624D01*
X59104897Y-71160458D01*
X59186605Y-71300207D01*
X59249371Y-71404156D01*
X59296089Y-71476593D01*
X59329654Y-71521804D01*
X59352961Y-71544075D01*
X59368906Y-71547693D01*
X59378749Y-71539424D01*
X59418372Y-71490220D01*
X59471067Y-71432293D01*
X59473462Y-71429820D01*
X59601800Y-71333458D01*
X59767525Y-71268381D01*
X59950534Y-71237387D01*
X60048330Y-71228062D01*
X60106980Y-71216868D01*
X60325200Y-71216868D01*
X60348448Y-71222471D01*
X60409594Y-71226522D01*
X60495742Y-71228193D01*
X60501749Y-71228200D01*
X60708183Y-71239378D01*
X60876665Y-71275929D01*
X61012859Y-71342379D01*
X61122427Y-71443252D01*
X61211032Y-71583073D01*
X61284337Y-71766368D01*
X61318392Y-71880743D01*
X61352223Y-72002794D01*
X61379668Y-72084219D01*
X61408309Y-72133236D01*
X61445725Y-72158060D01*
X61499498Y-72166910D01*
X61577207Y-72168001D01*
X61583393Y-72168000D01*
X61673958Y-72164167D01*
X61731672Y-72153728D01*
X61747600Y-72141442D01*
X61747347Y-72140665D01*
X62064739Y-72140665D01*
X62065168Y-72142711D01*
X62093291Y-72150065D01*
X62158161Y-72155008D01*
X62245744Y-72156469D01*
X62245882Y-72156468D01*
X62417372Y-72155300D01*
X62497335Y-71888600D01*
X62545644Y-71733951D01*
X62587097Y-71618994D01*
X62626368Y-71533946D01*
X62668132Y-71469023D01*
X62717063Y-71414445D01*
X62729582Y-71402549D01*
X62812379Y-71335331D01*
X62899139Y-71288867D01*
X63002793Y-71258864D01*
X63136272Y-71241030D01*
X63236181Y-71234379D01*
X63496620Y-71221087D01*
X63424307Y-71091293D01*
X63373441Y-71000741D01*
X63323220Y-70912511D01*
X63300173Y-70872600D01*
X63261471Y-70805399D01*
X63209054Y-70713357D01*
X63154017Y-70615960D01*
X63152026Y-70612419D01*
X63104730Y-70531356D01*
X63066245Y-70470963D01*
X63043539Y-70442038D01*
X63041362Y-70440969D01*
X63021623Y-70461032D01*
X62989076Y-70511629D01*
X62975342Y-70536050D01*
X62946078Y-70588548D01*
X62896221Y-70676474D01*
X62830665Y-70791314D01*
X62754308Y-70924552D01*
X62672045Y-71067674D01*
X62588773Y-71212166D01*
X62509388Y-71349514D01*
X62438786Y-71471203D01*
X62381863Y-71568719D01*
X62365526Y-71596500D01*
X62321281Y-71672753D01*
X62286330Y-71735207D01*
X62272546Y-71761600D01*
X62251067Y-71801108D01*
X62211226Y-71869880D01*
X62161183Y-71953855D01*
X62155209Y-71963742D01*
X62108831Y-72044089D01*
X62076710Y-72106967D01*
X62064739Y-72140665D01*
X61747347Y-72140665D01*
X61742305Y-72125229D01*
X61725358Y-72089876D01*
X61695161Y-72032548D01*
X61650119Y-71950409D01*
X61588636Y-71840624D01*
X61509115Y-71700358D01*
X61409960Y-71526775D01*
X61289576Y-71317040D01*
X61146366Y-71068317D01*
X61026815Y-70861062D01*
X60953597Y-70735131D01*
X60888062Y-70624152D01*
X60834835Y-70535819D01*
X60798538Y-70477823D01*
X60784875Y-70458515D01*
X60758487Y-70461023D01*
X60727832Y-70502102D01*
X60702912Y-70547708D01*
X60658157Y-70627226D01*
X60599251Y-70730641D01*
X60531881Y-70847940D01*
X60509350Y-70886968D01*
X60444031Y-71000705D01*
X60388908Y-71098102D01*
X60348490Y-71171078D01*
X60327290Y-71211550D01*
X60325200Y-71216868D01*
X60106980Y-71216868D01*
X60108992Y-71216484D01*
X60146043Y-71196600D01*
X60173005Y-71162353D01*
X60191559Y-71129463D01*
X60222221Y-71074670D01*
X60272473Y-70986681D01*
X60336205Y-70876121D01*
X60407309Y-70753616D01*
X60434198Y-70707500D01*
X60626975Y-70377300D01*
X60534484Y-70376010D01*
X60940322Y-70376010D01*
X60947934Y-70401986D01*
X60979221Y-70466102D01*
X61031325Y-70563179D01*
X61101387Y-70688039D01*
X61186549Y-70835503D01*
X61283951Y-71000391D01*
X61296971Y-71022181D01*
X61352496Y-71117412D01*
X61412159Y-71223272D01*
X61435737Y-71266300D01*
X61478643Y-71344437D01*
X61515199Y-71408970D01*
X61530765Y-71435075D01*
X61554326Y-71474297D01*
X61596244Y-71545758D01*
X61649604Y-71637626D01*
X61684100Y-71697386D01*
X61762689Y-71833584D01*
X61819864Y-71931754D01*
X61859387Y-71997991D01*
X61885024Y-72038390D01*
X61900537Y-72059043D01*
X61909690Y-72066045D01*
X61912012Y-72066400D01*
X61927678Y-72045884D01*
X61961067Y-71991522D01*
X62005625Y-71914089D01*
X62016319Y-71894950D01*
X62080112Y-71782130D01*
X62153873Y-71654537D01*
X62218120Y-71545700D01*
X62278936Y-71443209D01*
X62338969Y-71340445D01*
X62385930Y-71258459D01*
X62388658Y-71253600D01*
X62423006Y-71192942D01*
X62476929Y-71098500D01*
X62544587Y-70980471D01*
X62620134Y-70849054D01*
X62672425Y-70758300D01*
X62892164Y-70377300D01*
X62293402Y-70373191D01*
X63203742Y-70373191D01*
X63212038Y-70397708D01*
X63242166Y-70457961D01*
X63289915Y-70546068D01*
X63351079Y-70654145D01*
X63384028Y-70710905D01*
X63456114Y-70834515D01*
X63523098Y-70950114D01*
X63578813Y-71047011D01*
X63617094Y-71114512D01*
X63625170Y-71129100D01*
X63652825Y-71175673D01*
X63681793Y-71204105D01*
X63725553Y-71220388D01*
X63797581Y-71230514D01*
X63867298Y-71236747D01*
X64062483Y-71271550D01*
X64226197Y-71339108D01*
X64353568Y-71437216D01*
X64381605Y-71469296D01*
X64427723Y-71522961D01*
X64461377Y-71554706D01*
X64468943Y-71558399D01*
X64485814Y-71537353D01*
X64523685Y-71478545D01*
X64578618Y-71388468D01*
X64646673Y-71273617D01*
X64723910Y-71140483D01*
X64748343Y-71097844D01*
X64832546Y-70950481D01*
X64912956Y-70809762D01*
X64984408Y-70684723D01*
X65041739Y-70584401D01*
X65079785Y-70517831D01*
X65083417Y-70511478D01*
X65120694Y-70441884D01*
X65142687Y-70392080D01*
X65145358Y-70375692D01*
X65118352Y-70373105D01*
X65047328Y-70370826D01*
X64939069Y-70368864D01*
X64800354Y-70367229D01*
X64637965Y-70365927D01*
X64458681Y-70364970D01*
X64269285Y-70364364D01*
X64076555Y-70364118D01*
X63887273Y-70364243D01*
X63708220Y-70364745D01*
X63546176Y-70365635D01*
X63407921Y-70366920D01*
X63300237Y-70368609D01*
X63229904Y-70370712D01*
X63203742Y-70373191D01*
X62293402Y-70373191D01*
X61922254Y-70370644D01*
X61705333Y-70369462D01*
X61504695Y-70368958D01*
X61325932Y-70369102D01*
X61174640Y-70369864D01*
X61056412Y-70371212D01*
X60976842Y-70373117D01*
X60941523Y-70375547D01*
X60940322Y-70376010D01*
X60534484Y-70376010D01*
X60133187Y-70370413D01*
X59931453Y-70368455D01*
X59701624Y-70367609D01*
X59466105Y-70367876D01*
X59247298Y-70369254D01*
X59147401Y-70370413D01*
X58655402Y-70377300D01*
X57983068Y-70377300D01*
X58028753Y-70350981D01*
X58245907Y-70225878D01*
X58313738Y-70186800D01*
X58995280Y-70186800D01*
X59812640Y-70186800D01*
X60910432Y-70186800D01*
X61900516Y-70186800D01*
X62119163Y-70186259D01*
X62321075Y-70184717D01*
X62500805Y-70182294D01*
X62652906Y-70179111D01*
X62771933Y-70175287D01*
X62852437Y-70170943D01*
X62888973Y-70166199D01*
X62890600Y-70164944D01*
X62890308Y-70164206D01*
X63199633Y-70164206D01*
X63221896Y-70169984D01*
X63289717Y-70175147D01*
X63397853Y-70179547D01*
X63541065Y-70183035D01*
X63714111Y-70185463D01*
X63911750Y-70186683D01*
X63998356Y-70186800D01*
X64805545Y-70186800D01*
X64692622Y-70115734D01*
X64641907Y-70085118D01*
X64554364Y-70033666D01*
X64437345Y-69965613D01*
X64298205Y-69885194D01*
X64144295Y-69796644D01*
X63982970Y-69704198D01*
X63821583Y-69612093D01*
X63667487Y-69524564D01*
X63599839Y-69486305D01*
X63584288Y-69504685D01*
X63549106Y-69558273D01*
X63499627Y-69638032D01*
X63441185Y-69734927D01*
X63379115Y-69839923D01*
X63318751Y-69943984D01*
X63265426Y-70038076D01*
X63224475Y-70113161D01*
X63201233Y-70160205D01*
X63199633Y-70164206D01*
X62890308Y-70164206D01*
X62877453Y-70131751D01*
X62844678Y-70075791D01*
X62832285Y-70056994D01*
X62792932Y-69994834D01*
X62738998Y-69904393D01*
X62680166Y-69802019D01*
X62660935Y-69767700D01*
X62607769Y-69672637D01*
X62561703Y-69591194D01*
X62529925Y-69536041D01*
X62522400Y-69523494D01*
X62495381Y-69477388D01*
X62456060Y-69407420D01*
X62436072Y-69371094D01*
X62392318Y-69293329D01*
X62334052Y-69192850D01*
X62273253Y-69090291D01*
X62268208Y-69081900D01*
X62207211Y-68979498D01*
X62147099Y-68876805D01*
X62100157Y-68794821D01*
X62097346Y-68789800D01*
X62048581Y-68703275D01*
X62233668Y-68703275D01*
X62235215Y-68711722D01*
X62243212Y-68729841D01*
X62260426Y-68762609D01*
X62289622Y-68814998D01*
X62333568Y-68891984D01*
X62395031Y-68998540D01*
X62476775Y-69139642D01*
X62568534Y-69297800D01*
X62654150Y-69445812D01*
X62739555Y-69594292D01*
X62818080Y-69731588D01*
X62883056Y-69846045D01*
X62921015Y-69913724D01*
X62970926Y-70001116D01*
X63011972Y-70068354D01*
X63037914Y-70105422D01*
X63043000Y-70109591D01*
X63059148Y-70088301D01*
X63095450Y-70030155D01*
X63147390Y-69942701D01*
X63210449Y-69833491D01*
X63251058Y-69761877D01*
X63317146Y-69642164D01*
X63372157Y-69537876D01*
X63412089Y-69456978D01*
X63432944Y-69407434D01*
X63434700Y-69396164D01*
X63409901Y-69378112D01*
X63348014Y-69339354D01*
X63256177Y-69284181D01*
X63141528Y-69216881D01*
X63012795Y-69142652D01*
X62867209Y-69059078D01*
X62722597Y-68975484D01*
X62590451Y-68898555D01*
X62482264Y-68834976D01*
X62423253Y-68799766D01*
X62340082Y-68750985D01*
X62275271Y-68715714D01*
X62239456Y-68699640D01*
X62235804Y-68699528D01*
X62233668Y-68703275D01*
X62048581Y-68703275D01*
X62031255Y-68672534D01*
X61984467Y-68593013D01*
X61952243Y-68544230D01*
X61929840Y-68519177D01*
X61912521Y-68510850D01*
X61908428Y-68510560D01*
X61893400Y-68519618D01*
X61868503Y-68549551D01*
X61831266Y-68604323D01*
X61779217Y-68687897D01*
X61709883Y-68804234D01*
X61620794Y-68957299D01*
X61515483Y-69140559D01*
X61488305Y-69187949D01*
X61451289Y-69252312D01*
X61401380Y-69338948D01*
X61335523Y-69453157D01*
X61250664Y-69600239D01*
X61143748Y-69785492D01*
X61132027Y-69805800D01*
X61072080Y-69909506D01*
X61016117Y-70006060D01*
X60972755Y-70080603D01*
X60958920Y-70104250D01*
X60910432Y-70186800D01*
X59812640Y-70186800D01*
X60010580Y-70186231D01*
X60191209Y-70184618D01*
X60348538Y-70182101D01*
X60476578Y-70178819D01*
X60569340Y-70174912D01*
X60620834Y-70170520D01*
X60629435Y-70167750D01*
X60614797Y-70136222D01*
X60580259Y-70086558D01*
X60579200Y-70085200D01*
X60544406Y-70036414D01*
X60528998Y-70006318D01*
X60528964Y-70005866D01*
X60516548Y-69978930D01*
X60483472Y-69918119D01*
X60435273Y-69833082D01*
X60377487Y-69733471D01*
X60315649Y-69628935D01*
X60258280Y-69533997D01*
X60224064Y-69478095D01*
X60065082Y-69567936D01*
X59982901Y-69615098D01*
X59917182Y-69654137D01*
X59881512Y-69676970D01*
X59880700Y-69677589D01*
X59844925Y-69700725D01*
X59781917Y-69737711D01*
X59741000Y-69760736D01*
X59676304Y-69797042D01*
X59579609Y-69851873D01*
X59462931Y-69918393D01*
X59338287Y-69989762D01*
X59310990Y-70005435D01*
X58995280Y-70186800D01*
X58313738Y-70186800D01*
X58452267Y-70106994D01*
X58610700Y-70015720D01*
X58772122Y-69922657D01*
X58937128Y-69827410D01*
X59094138Y-69736671D01*
X59231572Y-69657132D01*
X59337850Y-69595488D01*
X59347300Y-69589995D01*
X59576720Y-69456874D01*
X59654134Y-69412100D01*
X60376972Y-69412100D01*
X60388910Y-69443527D01*
X60421800Y-69507561D01*
X60469977Y-69593538D01*
X60505166Y-69653400D01*
X60569679Y-69763158D01*
X60632107Y-69872604D01*
X60682395Y-69963990D01*
X60697640Y-69993037D01*
X60735871Y-70057311D01*
X60767833Y-70092770D01*
X60782374Y-70094637D01*
X60800327Y-70067466D01*
X60839966Y-70002236D01*
X60897736Y-69904971D01*
X60970079Y-69781698D01*
X61053441Y-69638442D01*
X61140193Y-69488300D01*
X61233776Y-69325748D01*
X61322256Y-69171967D01*
X61401464Y-69034212D01*
X61467231Y-68919734D01*
X61515388Y-68835788D01*
X61539523Y-68793573D01*
X61602423Y-68683047D01*
X61475955Y-68755473D01*
X61214651Y-68905364D01*
X60994785Y-69032061D01*
X60813511Y-69137265D01*
X60667984Y-69222676D01*
X60555359Y-69289993D01*
X60472790Y-69340917D01*
X60417433Y-69377147D01*
X60386443Y-69400384D01*
X60376972Y-69412100D01*
X59654134Y-69412100D01*
X59838314Y-69305577D01*
X60120085Y-69143020D01*
X60410034Y-68976121D01*
X60696167Y-68811796D01*
X60833200Y-68733250D01*
X60983652Y-68646767D01*
X61132639Y-68560580D01*
X61269410Y-68480948D01*
X61383210Y-68414131D01*
X61461417Y-68367522D01*
X61546415Y-68316928D01*
X61613727Y-68278394D01*
X61652503Y-68258072D01*
X61657385Y-68256399D01*
X61683824Y-68243889D01*
X61739158Y-68211619D01*
X61789529Y-68180365D01*
X61861213Y-68137740D01*
X61906922Y-68121223D01*
X61941830Y-68127132D01*
%TD*%
M02*
