%TF.GenerationSoftware,KiCad,Pcbnew,(5.1.10)-1*%
%TF.CreationDate,2021-11-16T11:27:34+01:00*%
%TF.ProjectId,VolumeKnob,566f6c75-6d65-44b6-9e6f-622e6b696361,rev?*%
%TF.SameCoordinates,Original*%
%TF.FileFunction,Copper,L2,Bot*%
%TF.FilePolarity,Positive*%
%FSLAX46Y46*%
G04 Gerber Fmt 4.6, Leading zero omitted, Abs format (unit mm)*
G04 Created by KiCad (PCBNEW (5.1.10)-1) date 2021-11-16 11:27:34*
%MOMM*%
%LPD*%
G01*
G04 APERTURE LIST*
%TA.AperFunction,ComponentPad*%
%ADD10R,2.000000X2.000000*%
%TD*%
%TA.AperFunction,ComponentPad*%
%ADD11C,2.000000*%
%TD*%
%TA.AperFunction,ComponentPad*%
%ADD12O,1.600000X1.600000*%
%TD*%
%TA.AperFunction,ComponentPad*%
%ADD13C,1.600000*%
%TD*%
%TA.AperFunction,ComponentPad*%
%ADD14R,1.600000X1.600000*%
%TD*%
%TA.AperFunction,ViaPad*%
%ADD15C,0.800000*%
%TD*%
%TA.AperFunction,Conductor*%
%ADD16C,0.250000*%
%TD*%
%TA.AperFunction,Conductor*%
%ADD17C,0.254000*%
%TD*%
%TA.AperFunction,Conductor*%
%ADD18C,0.100000*%
%TD*%
G04 APERTURE END LIST*
D10*
%TO.P,SW1,A*%
%TO.N,D7*%
X77000000Y-82300000D03*
D11*
%TO.P,SW1,C*%
%TO.N,GND*%
X79500000Y-82300000D03*
%TO.P,SW1,B*%
%TO.N,C6*%
X82000000Y-82300000D03*
%TO.P,SW1,S1*%
%TO.N,GND*%
X77000000Y-67800000D03*
%TO.P,SW1,S2*%
%TO.N,ButtonR*%
X82000000Y-67800000D03*
%TD*%
D12*
%TO.P,R1,2*%
%TO.N,VCC*%
X82500000Y-54240000D03*
D13*
%TO.P,R1,1*%
%TO.N,ButtonR*%
X82500000Y-64400000D03*
%TD*%
D14*
%TO.P,U1,1*%
%TO.N,Net-(U1-Pad1)*%
X71680000Y-50830000D03*
D13*
%TO.P,U1,2*%
%TO.N,Net-(U1-Pad2)*%
X71680000Y-53370000D03*
%TO.P,U1,3*%
%TO.N,Net-(U1-Pad3)*%
X71680000Y-55910000D03*
%TO.P,U1,4*%
%TO.N,Net-(U1-Pad4)*%
X71680000Y-58450000D03*
%TO.P,U1,5*%
%TO.N,ButtonR*%
X71680000Y-60990000D03*
%TO.P,U1,6*%
%TO.N,Net-(U1-Pad6)*%
X71680000Y-63530000D03*
%TO.P,U1,7*%
%TO.N,Net-(U1-Pad7)*%
X71680000Y-66070000D03*
%TO.P,U1,8*%
%TO.N,C6*%
X71680000Y-68610000D03*
%TO.P,U1,9*%
%TO.N,D7*%
X71680000Y-71150000D03*
%TO.P,U1,10*%
%TO.N,DIN*%
X71680000Y-73690000D03*
%TO.P,U1,11*%
%TO.N,Net-(U1-Pad11)*%
X71680000Y-76230000D03*
%TO.P,U1,12*%
%TO.N,Net-(U1-Pad12)*%
X71680000Y-78770000D03*
%TO.P,U1,13*%
%TO.N,Net-(U1-Pad13)*%
X86920000Y-78770000D03*
%TO.P,U1,14*%
%TO.N,Net-(U1-Pad14)*%
X86920000Y-76230000D03*
%TO.P,U1,15*%
%TO.N,Net-(U1-Pad15)*%
X86920000Y-73690000D03*
%TO.P,U1,16*%
%TO.N,Net-(U1-Pad16)*%
X86920000Y-71150000D03*
%TO.P,U1,17*%
%TO.N,Net-(U1-Pad17)*%
X86920000Y-68610000D03*
%TO.P,U1,18*%
%TO.N,Net-(U1-Pad18)*%
X86920000Y-66070000D03*
%TO.P,U1,19*%
%TO.N,Net-(U1-Pad19)*%
X86920000Y-63530000D03*
%TO.P,U1,20*%
%TO.N,Net-(U1-Pad20)*%
X86920000Y-60990000D03*
%TO.P,U1,21*%
%TO.N,VCC*%
X86920000Y-58450000D03*
%TO.P,U1,22*%
%TO.N,Net-(U1-Pad22)*%
X86920000Y-55910000D03*
%TO.P,U1,23*%
%TO.N,GND*%
X86920000Y-53370000D03*
%TO.P,U1,24*%
%TO.N,Net-(U1-Pad24)*%
X86920000Y-50830000D03*
%TD*%
D15*
%TO.N,VCC*%
X55400000Y-85100000D03*
X65400000Y-85200000D03*
%TO.N,Net-(D1-Pad4)*%
X103700000Y-65300000D03*
X89700000Y-61500000D03*
%TO.N,GND*%
X58810000Y-60790000D03*
%TD*%
D16*
%TO.N,VCC*%
X65300000Y-85100000D02*
X65400000Y-85200000D01*
X55400000Y-85100000D02*
X65300000Y-85100000D01*
%TO.N,ButtonR*%
X75090000Y-64400000D02*
X71680000Y-60990000D01*
X82500000Y-64400000D02*
X75090000Y-64400000D01*
%TO.N,Net-(D1-Pad4)*%
X89700000Y-61500000D02*
X94800000Y-61500000D01*
X98600000Y-65300000D02*
X103700000Y-65300000D01*
X94800000Y-61500000D02*
X98600000Y-65300000D01*
%TO.N,C6*%
X71680000Y-69244998D02*
X71680000Y-68610000D01*
X82000000Y-78930000D02*
X82000000Y-82300000D01*
X71680000Y-68610000D02*
X82000000Y-78930000D01*
%TD*%
D17*
%TO.N,GND*%
X94824242Y-49354949D02*
X96130921Y-49583001D01*
X97402734Y-49959730D01*
X98622824Y-50480142D01*
X99775003Y-51137333D01*
X100844021Y-51922603D01*
X101815692Y-52825536D01*
X102677142Y-53834165D01*
X103416958Y-54935127D01*
X104025327Y-56113818D01*
X104494191Y-57354629D01*
X104817332Y-58641108D01*
X104991121Y-59961165D01*
X105022201Y-60808782D01*
X105022200Y-88786232D01*
X104945051Y-90124242D01*
X104716999Y-91430923D01*
X104340270Y-92702734D01*
X103819857Y-93922827D01*
X103162667Y-95075003D01*
X102377396Y-96144021D01*
X101474464Y-97115693D01*
X100465835Y-97977142D01*
X99364869Y-98716960D01*
X98186178Y-99325329D01*
X96945374Y-99794190D01*
X95658893Y-100117331D01*
X94338835Y-100291121D01*
X93491246Y-100322200D01*
X65513768Y-100322200D01*
X64175758Y-100245051D01*
X62869077Y-100016999D01*
X61597266Y-99640270D01*
X60377173Y-99119857D01*
X59224997Y-98462667D01*
X58155979Y-97677396D01*
X57184307Y-96774464D01*
X56322858Y-95765835D01*
X55771418Y-94945204D01*
X57152200Y-94945204D01*
X57152200Y-95334796D01*
X57228205Y-95716903D01*
X57377296Y-96076840D01*
X57593742Y-96400774D01*
X57869226Y-96676258D01*
X58193160Y-96892704D01*
X58553097Y-97041795D01*
X58935204Y-97117800D01*
X59324796Y-97117800D01*
X59706903Y-97041795D01*
X60066840Y-96892704D01*
X60390774Y-96676258D01*
X60666258Y-96400774D01*
X60882704Y-96076840D01*
X61031795Y-95716903D01*
X61107800Y-95334796D01*
X61107800Y-94945204D01*
X61101833Y-94915204D01*
X97872200Y-94915204D01*
X97872200Y-95304796D01*
X97948205Y-95686903D01*
X98097296Y-96046840D01*
X98313742Y-96370774D01*
X98589226Y-96646258D01*
X98913160Y-96862704D01*
X99273097Y-97011795D01*
X99655204Y-97087800D01*
X100044796Y-97087800D01*
X100426903Y-97011795D01*
X100786840Y-96862704D01*
X101110774Y-96646258D01*
X101386258Y-96370774D01*
X101602704Y-96046840D01*
X101751795Y-95686903D01*
X101827800Y-95304796D01*
X101827800Y-94915204D01*
X101751795Y-94533097D01*
X101602704Y-94173160D01*
X101386258Y-93849226D01*
X101110774Y-93573742D01*
X100786840Y-93357296D01*
X100426903Y-93208205D01*
X100044796Y-93132200D01*
X99655204Y-93132200D01*
X99273097Y-93208205D01*
X98913160Y-93357296D01*
X98589226Y-93573742D01*
X98313742Y-93849226D01*
X98097296Y-94173160D01*
X97948205Y-94533097D01*
X97872200Y-94915204D01*
X61101833Y-94915204D01*
X61031795Y-94563097D01*
X60882704Y-94203160D01*
X60666258Y-93879226D01*
X60390774Y-93603742D01*
X60066840Y-93387296D01*
X59706903Y-93238205D01*
X59324796Y-93162200D01*
X58935204Y-93162200D01*
X58553097Y-93238205D01*
X58193160Y-93387296D01*
X57869226Y-93603742D01*
X57593742Y-93879226D01*
X57377296Y-94203160D01*
X57228205Y-94563097D01*
X57152200Y-94945204D01*
X55771418Y-94945204D01*
X55583040Y-94664869D01*
X54974671Y-93486178D01*
X54505810Y-92245374D01*
X54182669Y-90958893D01*
X54008879Y-89638835D01*
X53977800Y-88791246D01*
X53977800Y-85023393D01*
X54622200Y-85023393D01*
X54622200Y-85176607D01*
X54652091Y-85326876D01*
X54710723Y-85468426D01*
X54795844Y-85595818D01*
X54904182Y-85704156D01*
X55031574Y-85789277D01*
X55173124Y-85847909D01*
X55323393Y-85877800D01*
X55476607Y-85877800D01*
X55626876Y-85847909D01*
X55768426Y-85789277D01*
X55895818Y-85704156D01*
X55997174Y-85602800D01*
X64733691Y-85602800D01*
X64795844Y-85695818D01*
X64904182Y-85804156D01*
X65031574Y-85889277D01*
X65173124Y-85947909D01*
X65323393Y-85977800D01*
X65476607Y-85977800D01*
X65626876Y-85947909D01*
X65768426Y-85889277D01*
X65895818Y-85804156D01*
X66004156Y-85695818D01*
X66089277Y-85568426D01*
X66147909Y-85426876D01*
X66177800Y-85276607D01*
X66177800Y-85123393D01*
X66147909Y-84973124D01*
X66089277Y-84831574D01*
X66004156Y-84704182D01*
X65895818Y-84595844D01*
X65768426Y-84510723D01*
X65626876Y-84452091D01*
X65476607Y-84422200D01*
X65323393Y-84422200D01*
X65173124Y-84452091D01*
X65031574Y-84510723D01*
X64904182Y-84595844D01*
X64902826Y-84597200D01*
X55997174Y-84597200D01*
X55895818Y-84495844D01*
X55768426Y-84410723D01*
X55626876Y-84352091D01*
X55476607Y-84322200D01*
X55323393Y-84322200D01*
X55173124Y-84352091D01*
X55031574Y-84410723D01*
X54904182Y-84495844D01*
X54795844Y-84604182D01*
X54710723Y-84731574D01*
X54652091Y-84873124D01*
X54622200Y-85023393D01*
X53977800Y-85023393D01*
X53977800Y-81300000D01*
X75620372Y-81300000D01*
X75620372Y-83300000D01*
X75627666Y-83374062D01*
X75649269Y-83445277D01*
X75684351Y-83510910D01*
X75731562Y-83568438D01*
X75789090Y-83615649D01*
X75854723Y-83650731D01*
X75925938Y-83672334D01*
X76000000Y-83679628D01*
X78000000Y-83679628D01*
X78074062Y-83672334D01*
X78145277Y-83650731D01*
X78210910Y-83615649D01*
X78268438Y-83568438D01*
X78315649Y-83510910D01*
X78340973Y-83463532D01*
X78602473Y-83725032D01*
X78747975Y-83579530D01*
X78861302Y-83813678D01*
X79168877Y-83909197D01*
X79489178Y-83942875D01*
X79809895Y-83913418D01*
X80118703Y-83821960D01*
X80138698Y-83813678D01*
X80252026Y-83579527D01*
X79500000Y-82827502D01*
X79485858Y-82841644D01*
X78958356Y-82314142D01*
X78972498Y-82300000D01*
X78958356Y-82285858D01*
X79485858Y-81758356D01*
X79500000Y-81772498D01*
X80252026Y-81020473D01*
X80138698Y-80786322D01*
X79831123Y-80690803D01*
X79510822Y-80657125D01*
X79190105Y-80686582D01*
X78881297Y-80778040D01*
X78861302Y-80786322D01*
X78747975Y-81020470D01*
X78602473Y-80874968D01*
X78340973Y-81136468D01*
X78315649Y-81089090D01*
X78268438Y-81031562D01*
X78210910Y-80984351D01*
X78145277Y-80949269D01*
X78074062Y-80927666D01*
X78000000Y-80920372D01*
X76000000Y-80920372D01*
X75925938Y-80927666D01*
X75854723Y-80949269D01*
X75789090Y-80984351D01*
X75731562Y-81031562D01*
X75684351Y-81089090D01*
X75649269Y-81154723D01*
X75627666Y-81225938D01*
X75620372Y-81300000D01*
X53977800Y-81300000D01*
X53977800Y-78653997D01*
X70502200Y-78653997D01*
X70502200Y-78886003D01*
X70547462Y-79113552D01*
X70636247Y-79327898D01*
X70765143Y-79520804D01*
X70929196Y-79684857D01*
X71122102Y-79813753D01*
X71336448Y-79902538D01*
X71563997Y-79947800D01*
X71796003Y-79947800D01*
X72023552Y-79902538D01*
X72237898Y-79813753D01*
X72430804Y-79684857D01*
X72594857Y-79520804D01*
X72723753Y-79327898D01*
X72812538Y-79113552D01*
X72857800Y-78886003D01*
X72857800Y-78653997D01*
X72812538Y-78426448D01*
X72723753Y-78212102D01*
X72594857Y-78019196D01*
X72430804Y-77855143D01*
X72237898Y-77726247D01*
X72023552Y-77637462D01*
X71796003Y-77592200D01*
X71563997Y-77592200D01*
X71336448Y-77637462D01*
X71122102Y-77726247D01*
X70929196Y-77855143D01*
X70765143Y-78019196D01*
X70636247Y-78212102D01*
X70547462Y-78426448D01*
X70502200Y-78653997D01*
X53977800Y-78653997D01*
X53977800Y-76113997D01*
X70502200Y-76113997D01*
X70502200Y-76346003D01*
X70547462Y-76573552D01*
X70636247Y-76787898D01*
X70765143Y-76980804D01*
X70929196Y-77144857D01*
X71122102Y-77273753D01*
X71336448Y-77362538D01*
X71563997Y-77407800D01*
X71796003Y-77407800D01*
X72023552Y-77362538D01*
X72237898Y-77273753D01*
X72430804Y-77144857D01*
X72594857Y-76980804D01*
X72723753Y-76787898D01*
X72812538Y-76573552D01*
X72857800Y-76346003D01*
X72857800Y-76113997D01*
X72812538Y-75886448D01*
X72723753Y-75672102D01*
X72594857Y-75479196D01*
X72430804Y-75315143D01*
X72237898Y-75186247D01*
X72023552Y-75097462D01*
X71796003Y-75052200D01*
X71563997Y-75052200D01*
X71336448Y-75097462D01*
X71122102Y-75186247D01*
X70929196Y-75315143D01*
X70765143Y-75479196D01*
X70636247Y-75672102D01*
X70547462Y-75886448D01*
X70502200Y-76113997D01*
X53977800Y-76113997D01*
X53977800Y-73573997D01*
X70502200Y-73573997D01*
X70502200Y-73806003D01*
X70547462Y-74033552D01*
X70636247Y-74247898D01*
X70765143Y-74440804D01*
X70929196Y-74604857D01*
X71122102Y-74733753D01*
X71336448Y-74822538D01*
X71563997Y-74867800D01*
X71796003Y-74867800D01*
X72023552Y-74822538D01*
X72237898Y-74733753D01*
X72430804Y-74604857D01*
X72594857Y-74440804D01*
X72723753Y-74247898D01*
X72812538Y-74033552D01*
X72857800Y-73806003D01*
X72857800Y-73573997D01*
X72812538Y-73346448D01*
X72723753Y-73132102D01*
X72594857Y-72939196D01*
X72430804Y-72775143D01*
X72237898Y-72646247D01*
X72023552Y-72557462D01*
X71796003Y-72512200D01*
X71563997Y-72512200D01*
X71336448Y-72557462D01*
X71122102Y-72646247D01*
X70929196Y-72775143D01*
X70765143Y-72939196D01*
X70636247Y-73132102D01*
X70547462Y-73346448D01*
X70502200Y-73573997D01*
X53977800Y-73573997D01*
X53977800Y-71033997D01*
X70502200Y-71033997D01*
X70502200Y-71266003D01*
X70547462Y-71493552D01*
X70636247Y-71707898D01*
X70765143Y-71900804D01*
X70929196Y-72064857D01*
X71122102Y-72193753D01*
X71336448Y-72282538D01*
X71563997Y-72327800D01*
X71796003Y-72327800D01*
X72023552Y-72282538D01*
X72237898Y-72193753D01*
X72430804Y-72064857D01*
X72594857Y-71900804D01*
X72723753Y-71707898D01*
X72812538Y-71493552D01*
X72857800Y-71266003D01*
X72857800Y-71033997D01*
X72812538Y-70806448D01*
X72723753Y-70592102D01*
X72594857Y-70399196D01*
X72430804Y-70235143D01*
X72237898Y-70106247D01*
X72023552Y-70017462D01*
X71796003Y-69972200D01*
X71563997Y-69972200D01*
X71336448Y-70017462D01*
X71122102Y-70106247D01*
X70929196Y-70235143D01*
X70765143Y-70399196D01*
X70636247Y-70592102D01*
X70547462Y-70806448D01*
X70502200Y-71033997D01*
X53977800Y-71033997D01*
X53977800Y-68493997D01*
X70502200Y-68493997D01*
X70502200Y-68726003D01*
X70547462Y-68953552D01*
X70636247Y-69167898D01*
X70765143Y-69360804D01*
X70929196Y-69524857D01*
X71122102Y-69653753D01*
X71336448Y-69742538D01*
X71563997Y-69787800D01*
X71796003Y-69787800D01*
X72023552Y-69742538D01*
X72078650Y-69719716D01*
X81497200Y-79138267D01*
X81497201Y-81016946D01*
X81347367Y-81079009D01*
X81121703Y-81229793D01*
X80929793Y-81421703D01*
X80829319Y-81572073D01*
X80779527Y-81547974D01*
X80027502Y-82300000D01*
X80779527Y-83052026D01*
X80829319Y-83027927D01*
X80929793Y-83178297D01*
X81121703Y-83370207D01*
X81347367Y-83520991D01*
X81598110Y-83624852D01*
X81864299Y-83677800D01*
X82135701Y-83677800D01*
X82401890Y-83624852D01*
X82652633Y-83520991D01*
X82878297Y-83370207D01*
X83070207Y-83178297D01*
X83220991Y-82952633D01*
X83324852Y-82701890D01*
X83377800Y-82435701D01*
X83377800Y-82164299D01*
X83324852Y-81898110D01*
X83220991Y-81647367D01*
X83070207Y-81421703D01*
X82878297Y-81229793D01*
X82652633Y-81079009D01*
X82502800Y-81016946D01*
X82502800Y-78954692D01*
X82505232Y-78930000D01*
X82495524Y-78831434D01*
X82466774Y-78736657D01*
X82466774Y-78736656D01*
X82422592Y-78653997D01*
X85742200Y-78653997D01*
X85742200Y-78886003D01*
X85787462Y-79113552D01*
X85876247Y-79327898D01*
X86005143Y-79520804D01*
X86169196Y-79684857D01*
X86362102Y-79813753D01*
X86576448Y-79902538D01*
X86803997Y-79947800D01*
X87036003Y-79947800D01*
X87263552Y-79902538D01*
X87477898Y-79813753D01*
X87670804Y-79684857D01*
X87834857Y-79520804D01*
X87963753Y-79327898D01*
X88052538Y-79113552D01*
X88097800Y-78886003D01*
X88097800Y-78653997D01*
X88052538Y-78426448D01*
X87963753Y-78212102D01*
X87834857Y-78019196D01*
X87670804Y-77855143D01*
X87477898Y-77726247D01*
X87263552Y-77637462D01*
X87036003Y-77592200D01*
X86803997Y-77592200D01*
X86576448Y-77637462D01*
X86362102Y-77726247D01*
X86169196Y-77855143D01*
X86005143Y-78019196D01*
X85876247Y-78212102D01*
X85787462Y-78426448D01*
X85742200Y-78653997D01*
X82422592Y-78653997D01*
X82420085Y-78649308D01*
X82357253Y-78572747D01*
X82338075Y-78557008D01*
X79895064Y-76113997D01*
X85742200Y-76113997D01*
X85742200Y-76346003D01*
X85787462Y-76573552D01*
X85876247Y-76787898D01*
X86005143Y-76980804D01*
X86169196Y-77144857D01*
X86362102Y-77273753D01*
X86576448Y-77362538D01*
X86803997Y-77407800D01*
X87036003Y-77407800D01*
X87263552Y-77362538D01*
X87477898Y-77273753D01*
X87670804Y-77144857D01*
X87834857Y-76980804D01*
X87963753Y-76787898D01*
X88052538Y-76573552D01*
X88097800Y-76346003D01*
X88097800Y-76113997D01*
X88052538Y-75886448D01*
X87963753Y-75672102D01*
X87834857Y-75479196D01*
X87670804Y-75315143D01*
X87477898Y-75186247D01*
X87263552Y-75097462D01*
X87036003Y-75052200D01*
X86803997Y-75052200D01*
X86576448Y-75097462D01*
X86362102Y-75186247D01*
X86169196Y-75315143D01*
X86005143Y-75479196D01*
X85876247Y-75672102D01*
X85787462Y-75886448D01*
X85742200Y-76113997D01*
X79895064Y-76113997D01*
X77355064Y-73573997D01*
X85742200Y-73573997D01*
X85742200Y-73806003D01*
X85787462Y-74033552D01*
X85876247Y-74247898D01*
X86005143Y-74440804D01*
X86169196Y-74604857D01*
X86362102Y-74733753D01*
X86576448Y-74822538D01*
X86803997Y-74867800D01*
X87036003Y-74867800D01*
X87263552Y-74822538D01*
X87477898Y-74733753D01*
X87670804Y-74604857D01*
X87834857Y-74440804D01*
X87963753Y-74247898D01*
X88052538Y-74033552D01*
X88097800Y-73806003D01*
X88097800Y-73573997D01*
X88052538Y-73346448D01*
X87963753Y-73132102D01*
X87834857Y-72939196D01*
X87670804Y-72775143D01*
X87477898Y-72646247D01*
X87263552Y-72557462D01*
X87036003Y-72512200D01*
X86803997Y-72512200D01*
X86576448Y-72557462D01*
X86362102Y-72646247D01*
X86169196Y-72775143D01*
X86005143Y-72939196D01*
X85876247Y-73132102D01*
X85787462Y-73346448D01*
X85742200Y-73573997D01*
X77355064Y-73573997D01*
X74815064Y-71033997D01*
X85742200Y-71033997D01*
X85742200Y-71266003D01*
X85787462Y-71493552D01*
X85876247Y-71707898D01*
X86005143Y-71900804D01*
X86169196Y-72064857D01*
X86362102Y-72193753D01*
X86576448Y-72282538D01*
X86803997Y-72327800D01*
X87036003Y-72327800D01*
X87263552Y-72282538D01*
X87477898Y-72193753D01*
X87670804Y-72064857D01*
X87834857Y-71900804D01*
X87963753Y-71707898D01*
X88052538Y-71493552D01*
X88097800Y-71266003D01*
X88097800Y-71033997D01*
X88052538Y-70806448D01*
X87963753Y-70592102D01*
X87834857Y-70399196D01*
X87670804Y-70235143D01*
X87477898Y-70106247D01*
X87263552Y-70017462D01*
X87036003Y-69972200D01*
X86803997Y-69972200D01*
X86576448Y-70017462D01*
X86362102Y-70106247D01*
X86169196Y-70235143D01*
X86005143Y-70399196D01*
X85876247Y-70592102D01*
X85787462Y-70806448D01*
X85742200Y-71033997D01*
X74815064Y-71033997D01*
X72860594Y-69079527D01*
X76247974Y-69079527D01*
X76361302Y-69313678D01*
X76668877Y-69409197D01*
X76989178Y-69442875D01*
X77309895Y-69413418D01*
X77618703Y-69321960D01*
X77638698Y-69313678D01*
X77752026Y-69079527D01*
X77000000Y-68327502D01*
X76247974Y-69079527D01*
X72860594Y-69079527D01*
X72789716Y-69008650D01*
X72812538Y-68953552D01*
X72857800Y-68726003D01*
X72857800Y-68493997D01*
X72812538Y-68266448D01*
X72723753Y-68052102D01*
X72594857Y-67859196D01*
X72524839Y-67789178D01*
X75357125Y-67789178D01*
X75386582Y-68109895D01*
X75478040Y-68418703D01*
X75486322Y-68438698D01*
X75720473Y-68552026D01*
X76472498Y-67800000D01*
X77527502Y-67800000D01*
X78279527Y-68552026D01*
X78513678Y-68438698D01*
X78609197Y-68131123D01*
X78642875Y-67810822D01*
X78629418Y-67664299D01*
X80622200Y-67664299D01*
X80622200Y-67935701D01*
X80675148Y-68201890D01*
X80779009Y-68452633D01*
X80929793Y-68678297D01*
X81121703Y-68870207D01*
X81347367Y-69020991D01*
X81598110Y-69124852D01*
X81864299Y-69177800D01*
X82135701Y-69177800D01*
X82401890Y-69124852D01*
X82652633Y-69020991D01*
X82878297Y-68870207D01*
X83070207Y-68678297D01*
X83193352Y-68493997D01*
X85742200Y-68493997D01*
X85742200Y-68726003D01*
X85787462Y-68953552D01*
X85876247Y-69167898D01*
X86005143Y-69360804D01*
X86169196Y-69524857D01*
X86362102Y-69653753D01*
X86576448Y-69742538D01*
X86803997Y-69787800D01*
X87036003Y-69787800D01*
X87263552Y-69742538D01*
X87477898Y-69653753D01*
X87670804Y-69524857D01*
X87834857Y-69360804D01*
X87963753Y-69167898D01*
X88052538Y-68953552D01*
X88097800Y-68726003D01*
X88097800Y-68493997D01*
X88052538Y-68266448D01*
X87963753Y-68052102D01*
X87834857Y-67859196D01*
X87670804Y-67695143D01*
X87477898Y-67566247D01*
X87263552Y-67477462D01*
X87036003Y-67432200D01*
X86803997Y-67432200D01*
X86576448Y-67477462D01*
X86362102Y-67566247D01*
X86169196Y-67695143D01*
X86005143Y-67859196D01*
X85876247Y-68052102D01*
X85787462Y-68266448D01*
X85742200Y-68493997D01*
X83193352Y-68493997D01*
X83220991Y-68452633D01*
X83324852Y-68201890D01*
X83377800Y-67935701D01*
X83377800Y-67664299D01*
X83324852Y-67398110D01*
X83220991Y-67147367D01*
X83070207Y-66921703D01*
X82878297Y-66729793D01*
X82652633Y-66579009D01*
X82401890Y-66475148D01*
X82135701Y-66422200D01*
X81864299Y-66422200D01*
X81598110Y-66475148D01*
X81347367Y-66579009D01*
X81121703Y-66729793D01*
X80929793Y-66921703D01*
X80779009Y-67147367D01*
X80675148Y-67398110D01*
X80622200Y-67664299D01*
X78629418Y-67664299D01*
X78613418Y-67490105D01*
X78521960Y-67181297D01*
X78513678Y-67161302D01*
X78279527Y-67047974D01*
X77527502Y-67800000D01*
X76472498Y-67800000D01*
X75720473Y-67047974D01*
X75486322Y-67161302D01*
X75390803Y-67468877D01*
X75357125Y-67789178D01*
X72524839Y-67789178D01*
X72430804Y-67695143D01*
X72237898Y-67566247D01*
X72023552Y-67477462D01*
X71796003Y-67432200D01*
X71563997Y-67432200D01*
X71336448Y-67477462D01*
X71122102Y-67566247D01*
X70929196Y-67695143D01*
X70765143Y-67859196D01*
X70636247Y-68052102D01*
X70547462Y-68266448D01*
X70502200Y-68493997D01*
X53977800Y-68493997D01*
X53977800Y-65953997D01*
X70502200Y-65953997D01*
X70502200Y-66186003D01*
X70547462Y-66413552D01*
X70636247Y-66627898D01*
X70765143Y-66820804D01*
X70929196Y-66984857D01*
X71122102Y-67113753D01*
X71336448Y-67202538D01*
X71563997Y-67247800D01*
X71796003Y-67247800D01*
X72023552Y-67202538D01*
X72237898Y-67113753D01*
X72430804Y-66984857D01*
X72594857Y-66820804D01*
X72723753Y-66627898D01*
X72768249Y-66520473D01*
X76247974Y-66520473D01*
X77000000Y-67272498D01*
X77752026Y-66520473D01*
X77638698Y-66286322D01*
X77331123Y-66190803D01*
X77010822Y-66157125D01*
X76690105Y-66186582D01*
X76381297Y-66278040D01*
X76361302Y-66286322D01*
X76247974Y-66520473D01*
X72768249Y-66520473D01*
X72812538Y-66413552D01*
X72857800Y-66186003D01*
X72857800Y-65953997D01*
X85742200Y-65953997D01*
X85742200Y-66186003D01*
X85787462Y-66413552D01*
X85876247Y-66627898D01*
X86005143Y-66820804D01*
X86169196Y-66984857D01*
X86362102Y-67113753D01*
X86576448Y-67202538D01*
X86803997Y-67247800D01*
X87036003Y-67247800D01*
X87263552Y-67202538D01*
X87477898Y-67113753D01*
X87670804Y-66984857D01*
X87834857Y-66820804D01*
X87963753Y-66627898D01*
X88052538Y-66413552D01*
X88097800Y-66186003D01*
X88097800Y-65953997D01*
X88052538Y-65726448D01*
X87963753Y-65512102D01*
X87834857Y-65319196D01*
X87670804Y-65155143D01*
X87477898Y-65026247D01*
X87263552Y-64937462D01*
X87036003Y-64892200D01*
X86803997Y-64892200D01*
X86576448Y-64937462D01*
X86362102Y-65026247D01*
X86169196Y-65155143D01*
X86005143Y-65319196D01*
X85876247Y-65512102D01*
X85787462Y-65726448D01*
X85742200Y-65953997D01*
X72857800Y-65953997D01*
X72812538Y-65726448D01*
X72723753Y-65512102D01*
X72594857Y-65319196D01*
X72430804Y-65155143D01*
X72237898Y-65026247D01*
X72023552Y-64937462D01*
X71796003Y-64892200D01*
X71563997Y-64892200D01*
X71336448Y-64937462D01*
X71122102Y-65026247D01*
X70929196Y-65155143D01*
X70765143Y-65319196D01*
X70636247Y-65512102D01*
X70547462Y-65726448D01*
X70502200Y-65953997D01*
X53977800Y-65953997D01*
X53977800Y-63413997D01*
X70502200Y-63413997D01*
X70502200Y-63646003D01*
X70547462Y-63873552D01*
X70636247Y-64087898D01*
X70765143Y-64280804D01*
X70929196Y-64444857D01*
X71122102Y-64573753D01*
X71336448Y-64662538D01*
X71563997Y-64707800D01*
X71796003Y-64707800D01*
X72023552Y-64662538D01*
X72237898Y-64573753D01*
X72430804Y-64444857D01*
X72594857Y-64280804D01*
X72723753Y-64087898D01*
X72812538Y-63873552D01*
X72857800Y-63646003D01*
X72857800Y-63413997D01*
X72812538Y-63186448D01*
X72723753Y-62972102D01*
X72594857Y-62779196D01*
X72430804Y-62615143D01*
X72237898Y-62486247D01*
X72023552Y-62397462D01*
X71796003Y-62352200D01*
X71563997Y-62352200D01*
X71336448Y-62397462D01*
X71122102Y-62486247D01*
X70929196Y-62615143D01*
X70765143Y-62779196D01*
X70636247Y-62972102D01*
X70547462Y-63186448D01*
X70502200Y-63413997D01*
X53977800Y-63413997D01*
X53977800Y-60873997D01*
X70502200Y-60873997D01*
X70502200Y-61106003D01*
X70547462Y-61333552D01*
X70636247Y-61547898D01*
X70765143Y-61740804D01*
X70929196Y-61904857D01*
X71122102Y-62033753D01*
X71336448Y-62122538D01*
X71563997Y-62167800D01*
X71796003Y-62167800D01*
X72023552Y-62122538D01*
X72078650Y-62099716D01*
X74717004Y-64738070D01*
X74732747Y-64757253D01*
X74809308Y-64820085D01*
X74896656Y-64866774D01*
X74991434Y-64895524D01*
X75065308Y-64902800D01*
X75065317Y-64902800D01*
X75089999Y-64905231D01*
X75114681Y-64902800D01*
X81433425Y-64902800D01*
X81456247Y-64957898D01*
X81585143Y-65150804D01*
X81749196Y-65314857D01*
X81942102Y-65443753D01*
X82156448Y-65532538D01*
X82383997Y-65577800D01*
X82616003Y-65577800D01*
X82843552Y-65532538D01*
X83057898Y-65443753D01*
X83250804Y-65314857D01*
X83414857Y-65150804D01*
X83543753Y-64957898D01*
X83632538Y-64743552D01*
X83677800Y-64516003D01*
X83677800Y-64283997D01*
X83632538Y-64056448D01*
X83543753Y-63842102D01*
X83414857Y-63649196D01*
X83250804Y-63485143D01*
X83144327Y-63413997D01*
X85742200Y-63413997D01*
X85742200Y-63646003D01*
X85787462Y-63873552D01*
X85876247Y-64087898D01*
X86005143Y-64280804D01*
X86169196Y-64444857D01*
X86362102Y-64573753D01*
X86576448Y-64662538D01*
X86803997Y-64707800D01*
X87036003Y-64707800D01*
X87263552Y-64662538D01*
X87477898Y-64573753D01*
X87670804Y-64444857D01*
X87834857Y-64280804D01*
X87963753Y-64087898D01*
X88052538Y-63873552D01*
X88097800Y-63646003D01*
X88097800Y-63413997D01*
X88052538Y-63186448D01*
X87963753Y-62972102D01*
X87834857Y-62779196D01*
X87670804Y-62615143D01*
X87477898Y-62486247D01*
X87263552Y-62397462D01*
X87036003Y-62352200D01*
X86803997Y-62352200D01*
X86576448Y-62397462D01*
X86362102Y-62486247D01*
X86169196Y-62615143D01*
X86005143Y-62779196D01*
X85876247Y-62972102D01*
X85787462Y-63186448D01*
X85742200Y-63413997D01*
X83144327Y-63413997D01*
X83057898Y-63356247D01*
X82843552Y-63267462D01*
X82616003Y-63222200D01*
X82383997Y-63222200D01*
X82156448Y-63267462D01*
X81942102Y-63356247D01*
X81749196Y-63485143D01*
X81585143Y-63649196D01*
X81456247Y-63842102D01*
X81433425Y-63897200D01*
X75298266Y-63897200D01*
X72789716Y-61388650D01*
X72812538Y-61333552D01*
X72857800Y-61106003D01*
X72857800Y-60873997D01*
X85742200Y-60873997D01*
X85742200Y-61106003D01*
X85787462Y-61333552D01*
X85876247Y-61547898D01*
X86005143Y-61740804D01*
X86169196Y-61904857D01*
X86362102Y-62033753D01*
X86576448Y-62122538D01*
X86803997Y-62167800D01*
X87036003Y-62167800D01*
X87263552Y-62122538D01*
X87477898Y-62033753D01*
X87670804Y-61904857D01*
X87834857Y-61740804D01*
X87963753Y-61547898D01*
X88015324Y-61423393D01*
X88922200Y-61423393D01*
X88922200Y-61576607D01*
X88952091Y-61726876D01*
X89010723Y-61868426D01*
X89095844Y-61995818D01*
X89204182Y-62104156D01*
X89331574Y-62189277D01*
X89473124Y-62247909D01*
X89623393Y-62277800D01*
X89776607Y-62277800D01*
X89926876Y-62247909D01*
X90068426Y-62189277D01*
X90195818Y-62104156D01*
X90297174Y-62002800D01*
X94591734Y-62002800D01*
X98227008Y-65638075D01*
X98242747Y-65657253D01*
X98261925Y-65672992D01*
X98261926Y-65672993D01*
X98319308Y-65720085D01*
X98406656Y-65766774D01*
X98501434Y-65795524D01*
X98600000Y-65805232D01*
X98624692Y-65802800D01*
X103102826Y-65802800D01*
X103204182Y-65904156D01*
X103331574Y-65989277D01*
X103473124Y-66047909D01*
X103623393Y-66077800D01*
X103776607Y-66077800D01*
X103926876Y-66047909D01*
X104068426Y-65989277D01*
X104195818Y-65904156D01*
X104304156Y-65795818D01*
X104389277Y-65668426D01*
X104447909Y-65526876D01*
X104477800Y-65376607D01*
X104477800Y-65223393D01*
X104447909Y-65073124D01*
X104389277Y-64931574D01*
X104304156Y-64804182D01*
X104195818Y-64695844D01*
X104068426Y-64610723D01*
X103926876Y-64552091D01*
X103776607Y-64522200D01*
X103623393Y-64522200D01*
X103473124Y-64552091D01*
X103331574Y-64610723D01*
X103204182Y-64695844D01*
X103102826Y-64797200D01*
X98808267Y-64797200D01*
X95172996Y-61161930D01*
X95157253Y-61142747D01*
X95080692Y-61079915D01*
X94993344Y-61033226D01*
X94898566Y-61004476D01*
X94824692Y-60997200D01*
X94800000Y-60994768D01*
X94775308Y-60997200D01*
X90297174Y-60997200D01*
X90195818Y-60895844D01*
X90068426Y-60810723D01*
X89926876Y-60752091D01*
X89776607Y-60722200D01*
X89623393Y-60722200D01*
X89473124Y-60752091D01*
X89331574Y-60810723D01*
X89204182Y-60895844D01*
X89095844Y-61004182D01*
X89010723Y-61131574D01*
X88952091Y-61273124D01*
X88922200Y-61423393D01*
X88015324Y-61423393D01*
X88052538Y-61333552D01*
X88097800Y-61106003D01*
X88097800Y-60873997D01*
X88052538Y-60646448D01*
X87963753Y-60432102D01*
X87834857Y-60239196D01*
X87670804Y-60075143D01*
X87477898Y-59946247D01*
X87263552Y-59857462D01*
X87036003Y-59812200D01*
X86803997Y-59812200D01*
X86576448Y-59857462D01*
X86362102Y-59946247D01*
X86169196Y-60075143D01*
X86005143Y-60239196D01*
X85876247Y-60432102D01*
X85787462Y-60646448D01*
X85742200Y-60873997D01*
X72857800Y-60873997D01*
X72812538Y-60646448D01*
X72723753Y-60432102D01*
X72594857Y-60239196D01*
X72430804Y-60075143D01*
X72237898Y-59946247D01*
X72023552Y-59857462D01*
X71796003Y-59812200D01*
X71563997Y-59812200D01*
X71336448Y-59857462D01*
X71122102Y-59946247D01*
X70929196Y-60075143D01*
X70765143Y-60239196D01*
X70636247Y-60432102D01*
X70547462Y-60646448D01*
X70502200Y-60873997D01*
X53977800Y-60873997D01*
X53977800Y-60813768D01*
X54054949Y-59475758D01*
X54254218Y-58333997D01*
X70502200Y-58333997D01*
X70502200Y-58566003D01*
X70547462Y-58793552D01*
X70636247Y-59007898D01*
X70765143Y-59200804D01*
X70929196Y-59364857D01*
X71122102Y-59493753D01*
X71336448Y-59582538D01*
X71563997Y-59627800D01*
X71796003Y-59627800D01*
X72023552Y-59582538D01*
X72237898Y-59493753D01*
X72430804Y-59364857D01*
X72594857Y-59200804D01*
X72723753Y-59007898D01*
X72812538Y-58793552D01*
X72857800Y-58566003D01*
X72857800Y-58333997D01*
X85742200Y-58333997D01*
X85742200Y-58566003D01*
X85787462Y-58793552D01*
X85876247Y-59007898D01*
X86005143Y-59200804D01*
X86169196Y-59364857D01*
X86362102Y-59493753D01*
X86576448Y-59582538D01*
X86803997Y-59627800D01*
X87036003Y-59627800D01*
X87263552Y-59582538D01*
X87477898Y-59493753D01*
X87670804Y-59364857D01*
X87834857Y-59200804D01*
X87963753Y-59007898D01*
X88052538Y-58793552D01*
X88097800Y-58566003D01*
X88097800Y-58333997D01*
X88052538Y-58106448D01*
X87963753Y-57892102D01*
X87834857Y-57699196D01*
X87670804Y-57535143D01*
X87477898Y-57406247D01*
X87263552Y-57317462D01*
X87036003Y-57272200D01*
X86803997Y-57272200D01*
X86576448Y-57317462D01*
X86362102Y-57406247D01*
X86169196Y-57535143D01*
X86005143Y-57699196D01*
X85876247Y-57892102D01*
X85787462Y-58106448D01*
X85742200Y-58333997D01*
X72857800Y-58333997D01*
X72812538Y-58106448D01*
X72723753Y-57892102D01*
X72594857Y-57699196D01*
X72430804Y-57535143D01*
X72237898Y-57406247D01*
X72023552Y-57317462D01*
X71796003Y-57272200D01*
X71563997Y-57272200D01*
X71336448Y-57317462D01*
X71122102Y-57406247D01*
X70929196Y-57535143D01*
X70765143Y-57699196D01*
X70636247Y-57892102D01*
X70547462Y-58106448D01*
X70502200Y-58333997D01*
X54254218Y-58333997D01*
X54283001Y-58169079D01*
X54659730Y-56897266D01*
X55180142Y-55677176D01*
X55837333Y-54524997D01*
X56072243Y-54205204D01*
X57152200Y-54205204D01*
X57152200Y-54594796D01*
X57228205Y-54976903D01*
X57377296Y-55336840D01*
X57593742Y-55660774D01*
X57869226Y-55936258D01*
X58193160Y-56152704D01*
X58553097Y-56301795D01*
X58935204Y-56377800D01*
X59324796Y-56377800D01*
X59706903Y-56301795D01*
X60066840Y-56152704D01*
X60390774Y-55936258D01*
X60533035Y-55793997D01*
X70502200Y-55793997D01*
X70502200Y-56026003D01*
X70547462Y-56253552D01*
X70636247Y-56467898D01*
X70765143Y-56660804D01*
X70929196Y-56824857D01*
X71122102Y-56953753D01*
X71336448Y-57042538D01*
X71563997Y-57087800D01*
X71796003Y-57087800D01*
X72023552Y-57042538D01*
X72237898Y-56953753D01*
X72430804Y-56824857D01*
X72594857Y-56660804D01*
X72723753Y-56467898D01*
X72812538Y-56253552D01*
X72857800Y-56026003D01*
X72857800Y-55793997D01*
X85742200Y-55793997D01*
X85742200Y-56026003D01*
X85787462Y-56253552D01*
X85876247Y-56467898D01*
X86005143Y-56660804D01*
X86169196Y-56824857D01*
X86362102Y-56953753D01*
X86576448Y-57042538D01*
X86803997Y-57087800D01*
X87036003Y-57087800D01*
X87263552Y-57042538D01*
X87477898Y-56953753D01*
X87670804Y-56824857D01*
X87834857Y-56660804D01*
X87963753Y-56467898D01*
X88052538Y-56253552D01*
X88097800Y-56026003D01*
X88097800Y-55793997D01*
X88052538Y-55566448D01*
X87963753Y-55352102D01*
X87834857Y-55159196D01*
X87670804Y-54995143D01*
X87477898Y-54866247D01*
X87263552Y-54777462D01*
X87246091Y-54773989D01*
X87436941Y-54716094D01*
X87524424Y-54501926D01*
X87227702Y-54205204D01*
X97872200Y-54205204D01*
X97872200Y-54594796D01*
X97948205Y-54976903D01*
X98097296Y-55336840D01*
X98313742Y-55660774D01*
X98589226Y-55936258D01*
X98913160Y-56152704D01*
X99273097Y-56301795D01*
X99655204Y-56377800D01*
X100044796Y-56377800D01*
X100426903Y-56301795D01*
X100786840Y-56152704D01*
X101110774Y-55936258D01*
X101386258Y-55660774D01*
X101602704Y-55336840D01*
X101751795Y-54976903D01*
X101827800Y-54594796D01*
X101827800Y-54205204D01*
X101751795Y-53823097D01*
X101602704Y-53463160D01*
X101386258Y-53139226D01*
X101110774Y-52863742D01*
X100786840Y-52647296D01*
X100426903Y-52498205D01*
X100044796Y-52422200D01*
X99655204Y-52422200D01*
X99273097Y-52498205D01*
X98913160Y-52647296D01*
X98589226Y-52863742D01*
X98313742Y-53139226D01*
X98097296Y-53463160D01*
X97948205Y-53823097D01*
X97872200Y-54205204D01*
X87227702Y-54205204D01*
X86920000Y-53897502D01*
X86315576Y-54501926D01*
X86403059Y-54716094D01*
X86605269Y-54771729D01*
X86576448Y-54777462D01*
X86362102Y-54866247D01*
X86169196Y-54995143D01*
X86005143Y-55159196D01*
X85876247Y-55352102D01*
X85787462Y-55566448D01*
X85742200Y-55793997D01*
X72857800Y-55793997D01*
X72812538Y-55566448D01*
X72723753Y-55352102D01*
X72594857Y-55159196D01*
X72430804Y-54995143D01*
X72237898Y-54866247D01*
X72023552Y-54777462D01*
X71796003Y-54732200D01*
X71563997Y-54732200D01*
X71336448Y-54777462D01*
X71122102Y-54866247D01*
X70929196Y-54995143D01*
X70765143Y-55159196D01*
X70636247Y-55352102D01*
X70547462Y-55566448D01*
X70502200Y-55793997D01*
X60533035Y-55793997D01*
X60666258Y-55660774D01*
X60882704Y-55336840D01*
X61031795Y-54976903D01*
X61107800Y-54594796D01*
X61107800Y-54205204D01*
X61031795Y-53823097D01*
X60882704Y-53463160D01*
X60742946Y-53253997D01*
X70502200Y-53253997D01*
X70502200Y-53486003D01*
X70547462Y-53713552D01*
X70636247Y-53927898D01*
X70765143Y-54120804D01*
X70929196Y-54284857D01*
X71122102Y-54413753D01*
X71336448Y-54502538D01*
X71563997Y-54547800D01*
X71796003Y-54547800D01*
X72023552Y-54502538D01*
X72237898Y-54413753D01*
X72430804Y-54284857D01*
X72591664Y-54123997D01*
X81322200Y-54123997D01*
X81322200Y-54356003D01*
X81367462Y-54583552D01*
X81456247Y-54797898D01*
X81585143Y-54990804D01*
X81749196Y-55154857D01*
X81942102Y-55283753D01*
X82156448Y-55372538D01*
X82383997Y-55417800D01*
X82616003Y-55417800D01*
X82843552Y-55372538D01*
X83057898Y-55283753D01*
X83250804Y-55154857D01*
X83414857Y-54990804D01*
X83543753Y-54797898D01*
X83632538Y-54583552D01*
X83677800Y-54356003D01*
X83677800Y-54123997D01*
X83632538Y-53896448D01*
X83543753Y-53682102D01*
X83414857Y-53489196D01*
X83333198Y-53407537D01*
X85478546Y-53407537D01*
X85513566Y-53688030D01*
X85573906Y-53886941D01*
X85788074Y-53974424D01*
X86392498Y-53370000D01*
X87447502Y-53370000D01*
X88051926Y-53974424D01*
X88266094Y-53886941D01*
X88341080Y-53614398D01*
X88361454Y-53332463D01*
X88326434Y-53051970D01*
X88266094Y-52853059D01*
X88051926Y-52765576D01*
X87447502Y-53370000D01*
X86392498Y-53370000D01*
X85788074Y-52765576D01*
X85573906Y-52853059D01*
X85498920Y-53125602D01*
X85478546Y-53407537D01*
X83333198Y-53407537D01*
X83250804Y-53325143D01*
X83057898Y-53196247D01*
X82843552Y-53107462D01*
X82616003Y-53062200D01*
X82383997Y-53062200D01*
X82156448Y-53107462D01*
X81942102Y-53196247D01*
X81749196Y-53325143D01*
X81585143Y-53489196D01*
X81456247Y-53682102D01*
X81367462Y-53896448D01*
X81322200Y-54123997D01*
X72591664Y-54123997D01*
X72594857Y-54120804D01*
X72723753Y-53927898D01*
X72812538Y-53713552D01*
X72857800Y-53486003D01*
X72857800Y-53253997D01*
X72812538Y-53026448D01*
X72723753Y-52812102D01*
X72594857Y-52619196D01*
X72430804Y-52455143D01*
X72237898Y-52326247D01*
X72023552Y-52237462D01*
X71796003Y-52192200D01*
X71563997Y-52192200D01*
X71336448Y-52237462D01*
X71122102Y-52326247D01*
X70929196Y-52455143D01*
X70765143Y-52619196D01*
X70636247Y-52812102D01*
X70547462Y-53026448D01*
X70502200Y-53253997D01*
X60742946Y-53253997D01*
X60666258Y-53139226D01*
X60390774Y-52863742D01*
X60066840Y-52647296D01*
X59706903Y-52498205D01*
X59324796Y-52422200D01*
X58935204Y-52422200D01*
X58553097Y-52498205D01*
X58193160Y-52647296D01*
X57869226Y-52863742D01*
X57593742Y-53139226D01*
X57377296Y-53463160D01*
X57228205Y-53823097D01*
X57152200Y-54205204D01*
X56072243Y-54205204D01*
X56622603Y-53455979D01*
X57525536Y-52484308D01*
X58534165Y-51622858D01*
X59635127Y-50883042D01*
X60813818Y-50274673D01*
X61461325Y-50030000D01*
X70500372Y-50030000D01*
X70500372Y-51630000D01*
X70507666Y-51704062D01*
X70529269Y-51775277D01*
X70564351Y-51840910D01*
X70611562Y-51898438D01*
X70669090Y-51945649D01*
X70734723Y-51980731D01*
X70805938Y-52002334D01*
X70880000Y-52009628D01*
X72480000Y-52009628D01*
X72554062Y-52002334D01*
X72625277Y-51980731D01*
X72690910Y-51945649D01*
X72748438Y-51898438D01*
X72795649Y-51840910D01*
X72830731Y-51775277D01*
X72852334Y-51704062D01*
X72859628Y-51630000D01*
X72859628Y-50713997D01*
X85742200Y-50713997D01*
X85742200Y-50946003D01*
X85787462Y-51173552D01*
X85876247Y-51387898D01*
X86005143Y-51580804D01*
X86169196Y-51744857D01*
X86362102Y-51873753D01*
X86576448Y-51962538D01*
X86593909Y-51966011D01*
X86403059Y-52023906D01*
X86315576Y-52238074D01*
X86920000Y-52842498D01*
X87524424Y-52238074D01*
X87436941Y-52023906D01*
X87234731Y-51968271D01*
X87263552Y-51962538D01*
X87477898Y-51873753D01*
X87670804Y-51744857D01*
X87834857Y-51580804D01*
X87963753Y-51387898D01*
X88052538Y-51173552D01*
X88097800Y-50946003D01*
X88097800Y-50713997D01*
X88052538Y-50486448D01*
X87963753Y-50272102D01*
X87834857Y-50079196D01*
X87670804Y-49915143D01*
X87477898Y-49786247D01*
X87263552Y-49697462D01*
X87036003Y-49652200D01*
X86803997Y-49652200D01*
X86576448Y-49697462D01*
X86362102Y-49786247D01*
X86169196Y-49915143D01*
X86005143Y-50079196D01*
X85876247Y-50272102D01*
X85787462Y-50486448D01*
X85742200Y-50713997D01*
X72859628Y-50713997D01*
X72859628Y-50030000D01*
X72852334Y-49955938D01*
X72830731Y-49884723D01*
X72795649Y-49819090D01*
X72748438Y-49761562D01*
X72690910Y-49714351D01*
X72625277Y-49679269D01*
X72554062Y-49657666D01*
X72480000Y-49650372D01*
X70880000Y-49650372D01*
X70805938Y-49657666D01*
X70734723Y-49679269D01*
X70669090Y-49714351D01*
X70611562Y-49761562D01*
X70564351Y-49819090D01*
X70529269Y-49884723D01*
X70507666Y-49955938D01*
X70500372Y-50030000D01*
X61461325Y-50030000D01*
X62054629Y-49805809D01*
X63341108Y-49482668D01*
X64661165Y-49308879D01*
X65508755Y-49277800D01*
X93486232Y-49277800D01*
X94824242Y-49354949D01*
%TA.AperFunction,Conductor*%
D18*
G36*
X94824242Y-49354949D02*
G01*
X96130921Y-49583001D01*
X97402734Y-49959730D01*
X98622824Y-50480142D01*
X99775003Y-51137333D01*
X100844021Y-51922603D01*
X101815692Y-52825536D01*
X102677142Y-53834165D01*
X103416958Y-54935127D01*
X104025327Y-56113818D01*
X104494191Y-57354629D01*
X104817332Y-58641108D01*
X104991121Y-59961165D01*
X105022201Y-60808782D01*
X105022200Y-88786232D01*
X104945051Y-90124242D01*
X104716999Y-91430923D01*
X104340270Y-92702734D01*
X103819857Y-93922827D01*
X103162667Y-95075003D01*
X102377396Y-96144021D01*
X101474464Y-97115693D01*
X100465835Y-97977142D01*
X99364869Y-98716960D01*
X98186178Y-99325329D01*
X96945374Y-99794190D01*
X95658893Y-100117331D01*
X94338835Y-100291121D01*
X93491246Y-100322200D01*
X65513768Y-100322200D01*
X64175758Y-100245051D01*
X62869077Y-100016999D01*
X61597266Y-99640270D01*
X60377173Y-99119857D01*
X59224997Y-98462667D01*
X58155979Y-97677396D01*
X57184307Y-96774464D01*
X56322858Y-95765835D01*
X55771418Y-94945204D01*
X57152200Y-94945204D01*
X57152200Y-95334796D01*
X57228205Y-95716903D01*
X57377296Y-96076840D01*
X57593742Y-96400774D01*
X57869226Y-96676258D01*
X58193160Y-96892704D01*
X58553097Y-97041795D01*
X58935204Y-97117800D01*
X59324796Y-97117800D01*
X59706903Y-97041795D01*
X60066840Y-96892704D01*
X60390774Y-96676258D01*
X60666258Y-96400774D01*
X60882704Y-96076840D01*
X61031795Y-95716903D01*
X61107800Y-95334796D01*
X61107800Y-94945204D01*
X61101833Y-94915204D01*
X97872200Y-94915204D01*
X97872200Y-95304796D01*
X97948205Y-95686903D01*
X98097296Y-96046840D01*
X98313742Y-96370774D01*
X98589226Y-96646258D01*
X98913160Y-96862704D01*
X99273097Y-97011795D01*
X99655204Y-97087800D01*
X100044796Y-97087800D01*
X100426903Y-97011795D01*
X100786840Y-96862704D01*
X101110774Y-96646258D01*
X101386258Y-96370774D01*
X101602704Y-96046840D01*
X101751795Y-95686903D01*
X101827800Y-95304796D01*
X101827800Y-94915204D01*
X101751795Y-94533097D01*
X101602704Y-94173160D01*
X101386258Y-93849226D01*
X101110774Y-93573742D01*
X100786840Y-93357296D01*
X100426903Y-93208205D01*
X100044796Y-93132200D01*
X99655204Y-93132200D01*
X99273097Y-93208205D01*
X98913160Y-93357296D01*
X98589226Y-93573742D01*
X98313742Y-93849226D01*
X98097296Y-94173160D01*
X97948205Y-94533097D01*
X97872200Y-94915204D01*
X61101833Y-94915204D01*
X61031795Y-94563097D01*
X60882704Y-94203160D01*
X60666258Y-93879226D01*
X60390774Y-93603742D01*
X60066840Y-93387296D01*
X59706903Y-93238205D01*
X59324796Y-93162200D01*
X58935204Y-93162200D01*
X58553097Y-93238205D01*
X58193160Y-93387296D01*
X57869226Y-93603742D01*
X57593742Y-93879226D01*
X57377296Y-94203160D01*
X57228205Y-94563097D01*
X57152200Y-94945204D01*
X55771418Y-94945204D01*
X55583040Y-94664869D01*
X54974671Y-93486178D01*
X54505810Y-92245374D01*
X54182669Y-90958893D01*
X54008879Y-89638835D01*
X53977800Y-88791246D01*
X53977800Y-85023393D01*
X54622200Y-85023393D01*
X54622200Y-85176607D01*
X54652091Y-85326876D01*
X54710723Y-85468426D01*
X54795844Y-85595818D01*
X54904182Y-85704156D01*
X55031574Y-85789277D01*
X55173124Y-85847909D01*
X55323393Y-85877800D01*
X55476607Y-85877800D01*
X55626876Y-85847909D01*
X55768426Y-85789277D01*
X55895818Y-85704156D01*
X55997174Y-85602800D01*
X64733691Y-85602800D01*
X64795844Y-85695818D01*
X64904182Y-85804156D01*
X65031574Y-85889277D01*
X65173124Y-85947909D01*
X65323393Y-85977800D01*
X65476607Y-85977800D01*
X65626876Y-85947909D01*
X65768426Y-85889277D01*
X65895818Y-85804156D01*
X66004156Y-85695818D01*
X66089277Y-85568426D01*
X66147909Y-85426876D01*
X66177800Y-85276607D01*
X66177800Y-85123393D01*
X66147909Y-84973124D01*
X66089277Y-84831574D01*
X66004156Y-84704182D01*
X65895818Y-84595844D01*
X65768426Y-84510723D01*
X65626876Y-84452091D01*
X65476607Y-84422200D01*
X65323393Y-84422200D01*
X65173124Y-84452091D01*
X65031574Y-84510723D01*
X64904182Y-84595844D01*
X64902826Y-84597200D01*
X55997174Y-84597200D01*
X55895818Y-84495844D01*
X55768426Y-84410723D01*
X55626876Y-84352091D01*
X55476607Y-84322200D01*
X55323393Y-84322200D01*
X55173124Y-84352091D01*
X55031574Y-84410723D01*
X54904182Y-84495844D01*
X54795844Y-84604182D01*
X54710723Y-84731574D01*
X54652091Y-84873124D01*
X54622200Y-85023393D01*
X53977800Y-85023393D01*
X53977800Y-81300000D01*
X75620372Y-81300000D01*
X75620372Y-83300000D01*
X75627666Y-83374062D01*
X75649269Y-83445277D01*
X75684351Y-83510910D01*
X75731562Y-83568438D01*
X75789090Y-83615649D01*
X75854723Y-83650731D01*
X75925938Y-83672334D01*
X76000000Y-83679628D01*
X78000000Y-83679628D01*
X78074062Y-83672334D01*
X78145277Y-83650731D01*
X78210910Y-83615649D01*
X78268438Y-83568438D01*
X78315649Y-83510910D01*
X78340973Y-83463532D01*
X78602473Y-83725032D01*
X78747975Y-83579530D01*
X78861302Y-83813678D01*
X79168877Y-83909197D01*
X79489178Y-83942875D01*
X79809895Y-83913418D01*
X80118703Y-83821960D01*
X80138698Y-83813678D01*
X80252026Y-83579527D01*
X79500000Y-82827502D01*
X79485858Y-82841644D01*
X78958356Y-82314142D01*
X78972498Y-82300000D01*
X78958356Y-82285858D01*
X79485858Y-81758356D01*
X79500000Y-81772498D01*
X80252026Y-81020473D01*
X80138698Y-80786322D01*
X79831123Y-80690803D01*
X79510822Y-80657125D01*
X79190105Y-80686582D01*
X78881297Y-80778040D01*
X78861302Y-80786322D01*
X78747975Y-81020470D01*
X78602473Y-80874968D01*
X78340973Y-81136468D01*
X78315649Y-81089090D01*
X78268438Y-81031562D01*
X78210910Y-80984351D01*
X78145277Y-80949269D01*
X78074062Y-80927666D01*
X78000000Y-80920372D01*
X76000000Y-80920372D01*
X75925938Y-80927666D01*
X75854723Y-80949269D01*
X75789090Y-80984351D01*
X75731562Y-81031562D01*
X75684351Y-81089090D01*
X75649269Y-81154723D01*
X75627666Y-81225938D01*
X75620372Y-81300000D01*
X53977800Y-81300000D01*
X53977800Y-78653997D01*
X70502200Y-78653997D01*
X70502200Y-78886003D01*
X70547462Y-79113552D01*
X70636247Y-79327898D01*
X70765143Y-79520804D01*
X70929196Y-79684857D01*
X71122102Y-79813753D01*
X71336448Y-79902538D01*
X71563997Y-79947800D01*
X71796003Y-79947800D01*
X72023552Y-79902538D01*
X72237898Y-79813753D01*
X72430804Y-79684857D01*
X72594857Y-79520804D01*
X72723753Y-79327898D01*
X72812538Y-79113552D01*
X72857800Y-78886003D01*
X72857800Y-78653997D01*
X72812538Y-78426448D01*
X72723753Y-78212102D01*
X72594857Y-78019196D01*
X72430804Y-77855143D01*
X72237898Y-77726247D01*
X72023552Y-77637462D01*
X71796003Y-77592200D01*
X71563997Y-77592200D01*
X71336448Y-77637462D01*
X71122102Y-77726247D01*
X70929196Y-77855143D01*
X70765143Y-78019196D01*
X70636247Y-78212102D01*
X70547462Y-78426448D01*
X70502200Y-78653997D01*
X53977800Y-78653997D01*
X53977800Y-76113997D01*
X70502200Y-76113997D01*
X70502200Y-76346003D01*
X70547462Y-76573552D01*
X70636247Y-76787898D01*
X70765143Y-76980804D01*
X70929196Y-77144857D01*
X71122102Y-77273753D01*
X71336448Y-77362538D01*
X71563997Y-77407800D01*
X71796003Y-77407800D01*
X72023552Y-77362538D01*
X72237898Y-77273753D01*
X72430804Y-77144857D01*
X72594857Y-76980804D01*
X72723753Y-76787898D01*
X72812538Y-76573552D01*
X72857800Y-76346003D01*
X72857800Y-76113997D01*
X72812538Y-75886448D01*
X72723753Y-75672102D01*
X72594857Y-75479196D01*
X72430804Y-75315143D01*
X72237898Y-75186247D01*
X72023552Y-75097462D01*
X71796003Y-75052200D01*
X71563997Y-75052200D01*
X71336448Y-75097462D01*
X71122102Y-75186247D01*
X70929196Y-75315143D01*
X70765143Y-75479196D01*
X70636247Y-75672102D01*
X70547462Y-75886448D01*
X70502200Y-76113997D01*
X53977800Y-76113997D01*
X53977800Y-73573997D01*
X70502200Y-73573997D01*
X70502200Y-73806003D01*
X70547462Y-74033552D01*
X70636247Y-74247898D01*
X70765143Y-74440804D01*
X70929196Y-74604857D01*
X71122102Y-74733753D01*
X71336448Y-74822538D01*
X71563997Y-74867800D01*
X71796003Y-74867800D01*
X72023552Y-74822538D01*
X72237898Y-74733753D01*
X72430804Y-74604857D01*
X72594857Y-74440804D01*
X72723753Y-74247898D01*
X72812538Y-74033552D01*
X72857800Y-73806003D01*
X72857800Y-73573997D01*
X72812538Y-73346448D01*
X72723753Y-73132102D01*
X72594857Y-72939196D01*
X72430804Y-72775143D01*
X72237898Y-72646247D01*
X72023552Y-72557462D01*
X71796003Y-72512200D01*
X71563997Y-72512200D01*
X71336448Y-72557462D01*
X71122102Y-72646247D01*
X70929196Y-72775143D01*
X70765143Y-72939196D01*
X70636247Y-73132102D01*
X70547462Y-73346448D01*
X70502200Y-73573997D01*
X53977800Y-73573997D01*
X53977800Y-71033997D01*
X70502200Y-71033997D01*
X70502200Y-71266003D01*
X70547462Y-71493552D01*
X70636247Y-71707898D01*
X70765143Y-71900804D01*
X70929196Y-72064857D01*
X71122102Y-72193753D01*
X71336448Y-72282538D01*
X71563997Y-72327800D01*
X71796003Y-72327800D01*
X72023552Y-72282538D01*
X72237898Y-72193753D01*
X72430804Y-72064857D01*
X72594857Y-71900804D01*
X72723753Y-71707898D01*
X72812538Y-71493552D01*
X72857800Y-71266003D01*
X72857800Y-71033997D01*
X72812538Y-70806448D01*
X72723753Y-70592102D01*
X72594857Y-70399196D01*
X72430804Y-70235143D01*
X72237898Y-70106247D01*
X72023552Y-70017462D01*
X71796003Y-69972200D01*
X71563997Y-69972200D01*
X71336448Y-70017462D01*
X71122102Y-70106247D01*
X70929196Y-70235143D01*
X70765143Y-70399196D01*
X70636247Y-70592102D01*
X70547462Y-70806448D01*
X70502200Y-71033997D01*
X53977800Y-71033997D01*
X53977800Y-68493997D01*
X70502200Y-68493997D01*
X70502200Y-68726003D01*
X70547462Y-68953552D01*
X70636247Y-69167898D01*
X70765143Y-69360804D01*
X70929196Y-69524857D01*
X71122102Y-69653753D01*
X71336448Y-69742538D01*
X71563997Y-69787800D01*
X71796003Y-69787800D01*
X72023552Y-69742538D01*
X72078650Y-69719716D01*
X81497200Y-79138267D01*
X81497201Y-81016946D01*
X81347367Y-81079009D01*
X81121703Y-81229793D01*
X80929793Y-81421703D01*
X80829319Y-81572073D01*
X80779527Y-81547974D01*
X80027502Y-82300000D01*
X80779527Y-83052026D01*
X80829319Y-83027927D01*
X80929793Y-83178297D01*
X81121703Y-83370207D01*
X81347367Y-83520991D01*
X81598110Y-83624852D01*
X81864299Y-83677800D01*
X82135701Y-83677800D01*
X82401890Y-83624852D01*
X82652633Y-83520991D01*
X82878297Y-83370207D01*
X83070207Y-83178297D01*
X83220991Y-82952633D01*
X83324852Y-82701890D01*
X83377800Y-82435701D01*
X83377800Y-82164299D01*
X83324852Y-81898110D01*
X83220991Y-81647367D01*
X83070207Y-81421703D01*
X82878297Y-81229793D01*
X82652633Y-81079009D01*
X82502800Y-81016946D01*
X82502800Y-78954692D01*
X82505232Y-78930000D01*
X82495524Y-78831434D01*
X82466774Y-78736657D01*
X82466774Y-78736656D01*
X82422592Y-78653997D01*
X85742200Y-78653997D01*
X85742200Y-78886003D01*
X85787462Y-79113552D01*
X85876247Y-79327898D01*
X86005143Y-79520804D01*
X86169196Y-79684857D01*
X86362102Y-79813753D01*
X86576448Y-79902538D01*
X86803997Y-79947800D01*
X87036003Y-79947800D01*
X87263552Y-79902538D01*
X87477898Y-79813753D01*
X87670804Y-79684857D01*
X87834857Y-79520804D01*
X87963753Y-79327898D01*
X88052538Y-79113552D01*
X88097800Y-78886003D01*
X88097800Y-78653997D01*
X88052538Y-78426448D01*
X87963753Y-78212102D01*
X87834857Y-78019196D01*
X87670804Y-77855143D01*
X87477898Y-77726247D01*
X87263552Y-77637462D01*
X87036003Y-77592200D01*
X86803997Y-77592200D01*
X86576448Y-77637462D01*
X86362102Y-77726247D01*
X86169196Y-77855143D01*
X86005143Y-78019196D01*
X85876247Y-78212102D01*
X85787462Y-78426448D01*
X85742200Y-78653997D01*
X82422592Y-78653997D01*
X82420085Y-78649308D01*
X82357253Y-78572747D01*
X82338075Y-78557008D01*
X79895064Y-76113997D01*
X85742200Y-76113997D01*
X85742200Y-76346003D01*
X85787462Y-76573552D01*
X85876247Y-76787898D01*
X86005143Y-76980804D01*
X86169196Y-77144857D01*
X86362102Y-77273753D01*
X86576448Y-77362538D01*
X86803997Y-77407800D01*
X87036003Y-77407800D01*
X87263552Y-77362538D01*
X87477898Y-77273753D01*
X87670804Y-77144857D01*
X87834857Y-76980804D01*
X87963753Y-76787898D01*
X88052538Y-76573552D01*
X88097800Y-76346003D01*
X88097800Y-76113997D01*
X88052538Y-75886448D01*
X87963753Y-75672102D01*
X87834857Y-75479196D01*
X87670804Y-75315143D01*
X87477898Y-75186247D01*
X87263552Y-75097462D01*
X87036003Y-75052200D01*
X86803997Y-75052200D01*
X86576448Y-75097462D01*
X86362102Y-75186247D01*
X86169196Y-75315143D01*
X86005143Y-75479196D01*
X85876247Y-75672102D01*
X85787462Y-75886448D01*
X85742200Y-76113997D01*
X79895064Y-76113997D01*
X77355064Y-73573997D01*
X85742200Y-73573997D01*
X85742200Y-73806003D01*
X85787462Y-74033552D01*
X85876247Y-74247898D01*
X86005143Y-74440804D01*
X86169196Y-74604857D01*
X86362102Y-74733753D01*
X86576448Y-74822538D01*
X86803997Y-74867800D01*
X87036003Y-74867800D01*
X87263552Y-74822538D01*
X87477898Y-74733753D01*
X87670804Y-74604857D01*
X87834857Y-74440804D01*
X87963753Y-74247898D01*
X88052538Y-74033552D01*
X88097800Y-73806003D01*
X88097800Y-73573997D01*
X88052538Y-73346448D01*
X87963753Y-73132102D01*
X87834857Y-72939196D01*
X87670804Y-72775143D01*
X87477898Y-72646247D01*
X87263552Y-72557462D01*
X87036003Y-72512200D01*
X86803997Y-72512200D01*
X86576448Y-72557462D01*
X86362102Y-72646247D01*
X86169196Y-72775143D01*
X86005143Y-72939196D01*
X85876247Y-73132102D01*
X85787462Y-73346448D01*
X85742200Y-73573997D01*
X77355064Y-73573997D01*
X74815064Y-71033997D01*
X85742200Y-71033997D01*
X85742200Y-71266003D01*
X85787462Y-71493552D01*
X85876247Y-71707898D01*
X86005143Y-71900804D01*
X86169196Y-72064857D01*
X86362102Y-72193753D01*
X86576448Y-72282538D01*
X86803997Y-72327800D01*
X87036003Y-72327800D01*
X87263552Y-72282538D01*
X87477898Y-72193753D01*
X87670804Y-72064857D01*
X87834857Y-71900804D01*
X87963753Y-71707898D01*
X88052538Y-71493552D01*
X88097800Y-71266003D01*
X88097800Y-71033997D01*
X88052538Y-70806448D01*
X87963753Y-70592102D01*
X87834857Y-70399196D01*
X87670804Y-70235143D01*
X87477898Y-70106247D01*
X87263552Y-70017462D01*
X87036003Y-69972200D01*
X86803997Y-69972200D01*
X86576448Y-70017462D01*
X86362102Y-70106247D01*
X86169196Y-70235143D01*
X86005143Y-70399196D01*
X85876247Y-70592102D01*
X85787462Y-70806448D01*
X85742200Y-71033997D01*
X74815064Y-71033997D01*
X72860594Y-69079527D01*
X76247974Y-69079527D01*
X76361302Y-69313678D01*
X76668877Y-69409197D01*
X76989178Y-69442875D01*
X77309895Y-69413418D01*
X77618703Y-69321960D01*
X77638698Y-69313678D01*
X77752026Y-69079527D01*
X77000000Y-68327502D01*
X76247974Y-69079527D01*
X72860594Y-69079527D01*
X72789716Y-69008650D01*
X72812538Y-68953552D01*
X72857800Y-68726003D01*
X72857800Y-68493997D01*
X72812538Y-68266448D01*
X72723753Y-68052102D01*
X72594857Y-67859196D01*
X72524839Y-67789178D01*
X75357125Y-67789178D01*
X75386582Y-68109895D01*
X75478040Y-68418703D01*
X75486322Y-68438698D01*
X75720473Y-68552026D01*
X76472498Y-67800000D01*
X77527502Y-67800000D01*
X78279527Y-68552026D01*
X78513678Y-68438698D01*
X78609197Y-68131123D01*
X78642875Y-67810822D01*
X78629418Y-67664299D01*
X80622200Y-67664299D01*
X80622200Y-67935701D01*
X80675148Y-68201890D01*
X80779009Y-68452633D01*
X80929793Y-68678297D01*
X81121703Y-68870207D01*
X81347367Y-69020991D01*
X81598110Y-69124852D01*
X81864299Y-69177800D01*
X82135701Y-69177800D01*
X82401890Y-69124852D01*
X82652633Y-69020991D01*
X82878297Y-68870207D01*
X83070207Y-68678297D01*
X83193352Y-68493997D01*
X85742200Y-68493997D01*
X85742200Y-68726003D01*
X85787462Y-68953552D01*
X85876247Y-69167898D01*
X86005143Y-69360804D01*
X86169196Y-69524857D01*
X86362102Y-69653753D01*
X86576448Y-69742538D01*
X86803997Y-69787800D01*
X87036003Y-69787800D01*
X87263552Y-69742538D01*
X87477898Y-69653753D01*
X87670804Y-69524857D01*
X87834857Y-69360804D01*
X87963753Y-69167898D01*
X88052538Y-68953552D01*
X88097800Y-68726003D01*
X88097800Y-68493997D01*
X88052538Y-68266448D01*
X87963753Y-68052102D01*
X87834857Y-67859196D01*
X87670804Y-67695143D01*
X87477898Y-67566247D01*
X87263552Y-67477462D01*
X87036003Y-67432200D01*
X86803997Y-67432200D01*
X86576448Y-67477462D01*
X86362102Y-67566247D01*
X86169196Y-67695143D01*
X86005143Y-67859196D01*
X85876247Y-68052102D01*
X85787462Y-68266448D01*
X85742200Y-68493997D01*
X83193352Y-68493997D01*
X83220991Y-68452633D01*
X83324852Y-68201890D01*
X83377800Y-67935701D01*
X83377800Y-67664299D01*
X83324852Y-67398110D01*
X83220991Y-67147367D01*
X83070207Y-66921703D01*
X82878297Y-66729793D01*
X82652633Y-66579009D01*
X82401890Y-66475148D01*
X82135701Y-66422200D01*
X81864299Y-66422200D01*
X81598110Y-66475148D01*
X81347367Y-66579009D01*
X81121703Y-66729793D01*
X80929793Y-66921703D01*
X80779009Y-67147367D01*
X80675148Y-67398110D01*
X80622200Y-67664299D01*
X78629418Y-67664299D01*
X78613418Y-67490105D01*
X78521960Y-67181297D01*
X78513678Y-67161302D01*
X78279527Y-67047974D01*
X77527502Y-67800000D01*
X76472498Y-67800000D01*
X75720473Y-67047974D01*
X75486322Y-67161302D01*
X75390803Y-67468877D01*
X75357125Y-67789178D01*
X72524839Y-67789178D01*
X72430804Y-67695143D01*
X72237898Y-67566247D01*
X72023552Y-67477462D01*
X71796003Y-67432200D01*
X71563997Y-67432200D01*
X71336448Y-67477462D01*
X71122102Y-67566247D01*
X70929196Y-67695143D01*
X70765143Y-67859196D01*
X70636247Y-68052102D01*
X70547462Y-68266448D01*
X70502200Y-68493997D01*
X53977800Y-68493997D01*
X53977800Y-65953997D01*
X70502200Y-65953997D01*
X70502200Y-66186003D01*
X70547462Y-66413552D01*
X70636247Y-66627898D01*
X70765143Y-66820804D01*
X70929196Y-66984857D01*
X71122102Y-67113753D01*
X71336448Y-67202538D01*
X71563997Y-67247800D01*
X71796003Y-67247800D01*
X72023552Y-67202538D01*
X72237898Y-67113753D01*
X72430804Y-66984857D01*
X72594857Y-66820804D01*
X72723753Y-66627898D01*
X72768249Y-66520473D01*
X76247974Y-66520473D01*
X77000000Y-67272498D01*
X77752026Y-66520473D01*
X77638698Y-66286322D01*
X77331123Y-66190803D01*
X77010822Y-66157125D01*
X76690105Y-66186582D01*
X76381297Y-66278040D01*
X76361302Y-66286322D01*
X76247974Y-66520473D01*
X72768249Y-66520473D01*
X72812538Y-66413552D01*
X72857800Y-66186003D01*
X72857800Y-65953997D01*
X85742200Y-65953997D01*
X85742200Y-66186003D01*
X85787462Y-66413552D01*
X85876247Y-66627898D01*
X86005143Y-66820804D01*
X86169196Y-66984857D01*
X86362102Y-67113753D01*
X86576448Y-67202538D01*
X86803997Y-67247800D01*
X87036003Y-67247800D01*
X87263552Y-67202538D01*
X87477898Y-67113753D01*
X87670804Y-66984857D01*
X87834857Y-66820804D01*
X87963753Y-66627898D01*
X88052538Y-66413552D01*
X88097800Y-66186003D01*
X88097800Y-65953997D01*
X88052538Y-65726448D01*
X87963753Y-65512102D01*
X87834857Y-65319196D01*
X87670804Y-65155143D01*
X87477898Y-65026247D01*
X87263552Y-64937462D01*
X87036003Y-64892200D01*
X86803997Y-64892200D01*
X86576448Y-64937462D01*
X86362102Y-65026247D01*
X86169196Y-65155143D01*
X86005143Y-65319196D01*
X85876247Y-65512102D01*
X85787462Y-65726448D01*
X85742200Y-65953997D01*
X72857800Y-65953997D01*
X72812538Y-65726448D01*
X72723753Y-65512102D01*
X72594857Y-65319196D01*
X72430804Y-65155143D01*
X72237898Y-65026247D01*
X72023552Y-64937462D01*
X71796003Y-64892200D01*
X71563997Y-64892200D01*
X71336448Y-64937462D01*
X71122102Y-65026247D01*
X70929196Y-65155143D01*
X70765143Y-65319196D01*
X70636247Y-65512102D01*
X70547462Y-65726448D01*
X70502200Y-65953997D01*
X53977800Y-65953997D01*
X53977800Y-63413997D01*
X70502200Y-63413997D01*
X70502200Y-63646003D01*
X70547462Y-63873552D01*
X70636247Y-64087898D01*
X70765143Y-64280804D01*
X70929196Y-64444857D01*
X71122102Y-64573753D01*
X71336448Y-64662538D01*
X71563997Y-64707800D01*
X71796003Y-64707800D01*
X72023552Y-64662538D01*
X72237898Y-64573753D01*
X72430804Y-64444857D01*
X72594857Y-64280804D01*
X72723753Y-64087898D01*
X72812538Y-63873552D01*
X72857800Y-63646003D01*
X72857800Y-63413997D01*
X72812538Y-63186448D01*
X72723753Y-62972102D01*
X72594857Y-62779196D01*
X72430804Y-62615143D01*
X72237898Y-62486247D01*
X72023552Y-62397462D01*
X71796003Y-62352200D01*
X71563997Y-62352200D01*
X71336448Y-62397462D01*
X71122102Y-62486247D01*
X70929196Y-62615143D01*
X70765143Y-62779196D01*
X70636247Y-62972102D01*
X70547462Y-63186448D01*
X70502200Y-63413997D01*
X53977800Y-63413997D01*
X53977800Y-60873997D01*
X70502200Y-60873997D01*
X70502200Y-61106003D01*
X70547462Y-61333552D01*
X70636247Y-61547898D01*
X70765143Y-61740804D01*
X70929196Y-61904857D01*
X71122102Y-62033753D01*
X71336448Y-62122538D01*
X71563997Y-62167800D01*
X71796003Y-62167800D01*
X72023552Y-62122538D01*
X72078650Y-62099716D01*
X74717004Y-64738070D01*
X74732747Y-64757253D01*
X74809308Y-64820085D01*
X74896656Y-64866774D01*
X74991434Y-64895524D01*
X75065308Y-64902800D01*
X75065317Y-64902800D01*
X75089999Y-64905231D01*
X75114681Y-64902800D01*
X81433425Y-64902800D01*
X81456247Y-64957898D01*
X81585143Y-65150804D01*
X81749196Y-65314857D01*
X81942102Y-65443753D01*
X82156448Y-65532538D01*
X82383997Y-65577800D01*
X82616003Y-65577800D01*
X82843552Y-65532538D01*
X83057898Y-65443753D01*
X83250804Y-65314857D01*
X83414857Y-65150804D01*
X83543753Y-64957898D01*
X83632538Y-64743552D01*
X83677800Y-64516003D01*
X83677800Y-64283997D01*
X83632538Y-64056448D01*
X83543753Y-63842102D01*
X83414857Y-63649196D01*
X83250804Y-63485143D01*
X83144327Y-63413997D01*
X85742200Y-63413997D01*
X85742200Y-63646003D01*
X85787462Y-63873552D01*
X85876247Y-64087898D01*
X86005143Y-64280804D01*
X86169196Y-64444857D01*
X86362102Y-64573753D01*
X86576448Y-64662538D01*
X86803997Y-64707800D01*
X87036003Y-64707800D01*
X87263552Y-64662538D01*
X87477898Y-64573753D01*
X87670804Y-64444857D01*
X87834857Y-64280804D01*
X87963753Y-64087898D01*
X88052538Y-63873552D01*
X88097800Y-63646003D01*
X88097800Y-63413997D01*
X88052538Y-63186448D01*
X87963753Y-62972102D01*
X87834857Y-62779196D01*
X87670804Y-62615143D01*
X87477898Y-62486247D01*
X87263552Y-62397462D01*
X87036003Y-62352200D01*
X86803997Y-62352200D01*
X86576448Y-62397462D01*
X86362102Y-62486247D01*
X86169196Y-62615143D01*
X86005143Y-62779196D01*
X85876247Y-62972102D01*
X85787462Y-63186448D01*
X85742200Y-63413997D01*
X83144327Y-63413997D01*
X83057898Y-63356247D01*
X82843552Y-63267462D01*
X82616003Y-63222200D01*
X82383997Y-63222200D01*
X82156448Y-63267462D01*
X81942102Y-63356247D01*
X81749196Y-63485143D01*
X81585143Y-63649196D01*
X81456247Y-63842102D01*
X81433425Y-63897200D01*
X75298266Y-63897200D01*
X72789716Y-61388650D01*
X72812538Y-61333552D01*
X72857800Y-61106003D01*
X72857800Y-60873997D01*
X85742200Y-60873997D01*
X85742200Y-61106003D01*
X85787462Y-61333552D01*
X85876247Y-61547898D01*
X86005143Y-61740804D01*
X86169196Y-61904857D01*
X86362102Y-62033753D01*
X86576448Y-62122538D01*
X86803997Y-62167800D01*
X87036003Y-62167800D01*
X87263552Y-62122538D01*
X87477898Y-62033753D01*
X87670804Y-61904857D01*
X87834857Y-61740804D01*
X87963753Y-61547898D01*
X88015324Y-61423393D01*
X88922200Y-61423393D01*
X88922200Y-61576607D01*
X88952091Y-61726876D01*
X89010723Y-61868426D01*
X89095844Y-61995818D01*
X89204182Y-62104156D01*
X89331574Y-62189277D01*
X89473124Y-62247909D01*
X89623393Y-62277800D01*
X89776607Y-62277800D01*
X89926876Y-62247909D01*
X90068426Y-62189277D01*
X90195818Y-62104156D01*
X90297174Y-62002800D01*
X94591734Y-62002800D01*
X98227008Y-65638075D01*
X98242747Y-65657253D01*
X98261925Y-65672992D01*
X98261926Y-65672993D01*
X98319308Y-65720085D01*
X98406656Y-65766774D01*
X98501434Y-65795524D01*
X98600000Y-65805232D01*
X98624692Y-65802800D01*
X103102826Y-65802800D01*
X103204182Y-65904156D01*
X103331574Y-65989277D01*
X103473124Y-66047909D01*
X103623393Y-66077800D01*
X103776607Y-66077800D01*
X103926876Y-66047909D01*
X104068426Y-65989277D01*
X104195818Y-65904156D01*
X104304156Y-65795818D01*
X104389277Y-65668426D01*
X104447909Y-65526876D01*
X104477800Y-65376607D01*
X104477800Y-65223393D01*
X104447909Y-65073124D01*
X104389277Y-64931574D01*
X104304156Y-64804182D01*
X104195818Y-64695844D01*
X104068426Y-64610723D01*
X103926876Y-64552091D01*
X103776607Y-64522200D01*
X103623393Y-64522200D01*
X103473124Y-64552091D01*
X103331574Y-64610723D01*
X103204182Y-64695844D01*
X103102826Y-64797200D01*
X98808267Y-64797200D01*
X95172996Y-61161930D01*
X95157253Y-61142747D01*
X95080692Y-61079915D01*
X94993344Y-61033226D01*
X94898566Y-61004476D01*
X94824692Y-60997200D01*
X94800000Y-60994768D01*
X94775308Y-60997200D01*
X90297174Y-60997200D01*
X90195818Y-60895844D01*
X90068426Y-60810723D01*
X89926876Y-60752091D01*
X89776607Y-60722200D01*
X89623393Y-60722200D01*
X89473124Y-60752091D01*
X89331574Y-60810723D01*
X89204182Y-60895844D01*
X89095844Y-61004182D01*
X89010723Y-61131574D01*
X88952091Y-61273124D01*
X88922200Y-61423393D01*
X88015324Y-61423393D01*
X88052538Y-61333552D01*
X88097800Y-61106003D01*
X88097800Y-60873997D01*
X88052538Y-60646448D01*
X87963753Y-60432102D01*
X87834857Y-60239196D01*
X87670804Y-60075143D01*
X87477898Y-59946247D01*
X87263552Y-59857462D01*
X87036003Y-59812200D01*
X86803997Y-59812200D01*
X86576448Y-59857462D01*
X86362102Y-59946247D01*
X86169196Y-60075143D01*
X86005143Y-60239196D01*
X85876247Y-60432102D01*
X85787462Y-60646448D01*
X85742200Y-60873997D01*
X72857800Y-60873997D01*
X72812538Y-60646448D01*
X72723753Y-60432102D01*
X72594857Y-60239196D01*
X72430804Y-60075143D01*
X72237898Y-59946247D01*
X72023552Y-59857462D01*
X71796003Y-59812200D01*
X71563997Y-59812200D01*
X71336448Y-59857462D01*
X71122102Y-59946247D01*
X70929196Y-60075143D01*
X70765143Y-60239196D01*
X70636247Y-60432102D01*
X70547462Y-60646448D01*
X70502200Y-60873997D01*
X53977800Y-60873997D01*
X53977800Y-60813768D01*
X54054949Y-59475758D01*
X54254218Y-58333997D01*
X70502200Y-58333997D01*
X70502200Y-58566003D01*
X70547462Y-58793552D01*
X70636247Y-59007898D01*
X70765143Y-59200804D01*
X70929196Y-59364857D01*
X71122102Y-59493753D01*
X71336448Y-59582538D01*
X71563997Y-59627800D01*
X71796003Y-59627800D01*
X72023552Y-59582538D01*
X72237898Y-59493753D01*
X72430804Y-59364857D01*
X72594857Y-59200804D01*
X72723753Y-59007898D01*
X72812538Y-58793552D01*
X72857800Y-58566003D01*
X72857800Y-58333997D01*
X85742200Y-58333997D01*
X85742200Y-58566003D01*
X85787462Y-58793552D01*
X85876247Y-59007898D01*
X86005143Y-59200804D01*
X86169196Y-59364857D01*
X86362102Y-59493753D01*
X86576448Y-59582538D01*
X86803997Y-59627800D01*
X87036003Y-59627800D01*
X87263552Y-59582538D01*
X87477898Y-59493753D01*
X87670804Y-59364857D01*
X87834857Y-59200804D01*
X87963753Y-59007898D01*
X88052538Y-58793552D01*
X88097800Y-58566003D01*
X88097800Y-58333997D01*
X88052538Y-58106448D01*
X87963753Y-57892102D01*
X87834857Y-57699196D01*
X87670804Y-57535143D01*
X87477898Y-57406247D01*
X87263552Y-57317462D01*
X87036003Y-57272200D01*
X86803997Y-57272200D01*
X86576448Y-57317462D01*
X86362102Y-57406247D01*
X86169196Y-57535143D01*
X86005143Y-57699196D01*
X85876247Y-57892102D01*
X85787462Y-58106448D01*
X85742200Y-58333997D01*
X72857800Y-58333997D01*
X72812538Y-58106448D01*
X72723753Y-57892102D01*
X72594857Y-57699196D01*
X72430804Y-57535143D01*
X72237898Y-57406247D01*
X72023552Y-57317462D01*
X71796003Y-57272200D01*
X71563997Y-57272200D01*
X71336448Y-57317462D01*
X71122102Y-57406247D01*
X70929196Y-57535143D01*
X70765143Y-57699196D01*
X70636247Y-57892102D01*
X70547462Y-58106448D01*
X70502200Y-58333997D01*
X54254218Y-58333997D01*
X54283001Y-58169079D01*
X54659730Y-56897266D01*
X55180142Y-55677176D01*
X55837333Y-54524997D01*
X56072243Y-54205204D01*
X57152200Y-54205204D01*
X57152200Y-54594796D01*
X57228205Y-54976903D01*
X57377296Y-55336840D01*
X57593742Y-55660774D01*
X57869226Y-55936258D01*
X58193160Y-56152704D01*
X58553097Y-56301795D01*
X58935204Y-56377800D01*
X59324796Y-56377800D01*
X59706903Y-56301795D01*
X60066840Y-56152704D01*
X60390774Y-55936258D01*
X60533035Y-55793997D01*
X70502200Y-55793997D01*
X70502200Y-56026003D01*
X70547462Y-56253552D01*
X70636247Y-56467898D01*
X70765143Y-56660804D01*
X70929196Y-56824857D01*
X71122102Y-56953753D01*
X71336448Y-57042538D01*
X71563997Y-57087800D01*
X71796003Y-57087800D01*
X72023552Y-57042538D01*
X72237898Y-56953753D01*
X72430804Y-56824857D01*
X72594857Y-56660804D01*
X72723753Y-56467898D01*
X72812538Y-56253552D01*
X72857800Y-56026003D01*
X72857800Y-55793997D01*
X85742200Y-55793997D01*
X85742200Y-56026003D01*
X85787462Y-56253552D01*
X85876247Y-56467898D01*
X86005143Y-56660804D01*
X86169196Y-56824857D01*
X86362102Y-56953753D01*
X86576448Y-57042538D01*
X86803997Y-57087800D01*
X87036003Y-57087800D01*
X87263552Y-57042538D01*
X87477898Y-56953753D01*
X87670804Y-56824857D01*
X87834857Y-56660804D01*
X87963753Y-56467898D01*
X88052538Y-56253552D01*
X88097800Y-56026003D01*
X88097800Y-55793997D01*
X88052538Y-55566448D01*
X87963753Y-55352102D01*
X87834857Y-55159196D01*
X87670804Y-54995143D01*
X87477898Y-54866247D01*
X87263552Y-54777462D01*
X87246091Y-54773989D01*
X87436941Y-54716094D01*
X87524424Y-54501926D01*
X87227702Y-54205204D01*
X97872200Y-54205204D01*
X97872200Y-54594796D01*
X97948205Y-54976903D01*
X98097296Y-55336840D01*
X98313742Y-55660774D01*
X98589226Y-55936258D01*
X98913160Y-56152704D01*
X99273097Y-56301795D01*
X99655204Y-56377800D01*
X100044796Y-56377800D01*
X100426903Y-56301795D01*
X100786840Y-56152704D01*
X101110774Y-55936258D01*
X101386258Y-55660774D01*
X101602704Y-55336840D01*
X101751795Y-54976903D01*
X101827800Y-54594796D01*
X101827800Y-54205204D01*
X101751795Y-53823097D01*
X101602704Y-53463160D01*
X101386258Y-53139226D01*
X101110774Y-52863742D01*
X100786840Y-52647296D01*
X100426903Y-52498205D01*
X100044796Y-52422200D01*
X99655204Y-52422200D01*
X99273097Y-52498205D01*
X98913160Y-52647296D01*
X98589226Y-52863742D01*
X98313742Y-53139226D01*
X98097296Y-53463160D01*
X97948205Y-53823097D01*
X97872200Y-54205204D01*
X87227702Y-54205204D01*
X86920000Y-53897502D01*
X86315576Y-54501926D01*
X86403059Y-54716094D01*
X86605269Y-54771729D01*
X86576448Y-54777462D01*
X86362102Y-54866247D01*
X86169196Y-54995143D01*
X86005143Y-55159196D01*
X85876247Y-55352102D01*
X85787462Y-55566448D01*
X85742200Y-55793997D01*
X72857800Y-55793997D01*
X72812538Y-55566448D01*
X72723753Y-55352102D01*
X72594857Y-55159196D01*
X72430804Y-54995143D01*
X72237898Y-54866247D01*
X72023552Y-54777462D01*
X71796003Y-54732200D01*
X71563997Y-54732200D01*
X71336448Y-54777462D01*
X71122102Y-54866247D01*
X70929196Y-54995143D01*
X70765143Y-55159196D01*
X70636247Y-55352102D01*
X70547462Y-55566448D01*
X70502200Y-55793997D01*
X60533035Y-55793997D01*
X60666258Y-55660774D01*
X60882704Y-55336840D01*
X61031795Y-54976903D01*
X61107800Y-54594796D01*
X61107800Y-54205204D01*
X61031795Y-53823097D01*
X60882704Y-53463160D01*
X60742946Y-53253997D01*
X70502200Y-53253997D01*
X70502200Y-53486003D01*
X70547462Y-53713552D01*
X70636247Y-53927898D01*
X70765143Y-54120804D01*
X70929196Y-54284857D01*
X71122102Y-54413753D01*
X71336448Y-54502538D01*
X71563997Y-54547800D01*
X71796003Y-54547800D01*
X72023552Y-54502538D01*
X72237898Y-54413753D01*
X72430804Y-54284857D01*
X72591664Y-54123997D01*
X81322200Y-54123997D01*
X81322200Y-54356003D01*
X81367462Y-54583552D01*
X81456247Y-54797898D01*
X81585143Y-54990804D01*
X81749196Y-55154857D01*
X81942102Y-55283753D01*
X82156448Y-55372538D01*
X82383997Y-55417800D01*
X82616003Y-55417800D01*
X82843552Y-55372538D01*
X83057898Y-55283753D01*
X83250804Y-55154857D01*
X83414857Y-54990804D01*
X83543753Y-54797898D01*
X83632538Y-54583552D01*
X83677800Y-54356003D01*
X83677800Y-54123997D01*
X83632538Y-53896448D01*
X83543753Y-53682102D01*
X83414857Y-53489196D01*
X83333198Y-53407537D01*
X85478546Y-53407537D01*
X85513566Y-53688030D01*
X85573906Y-53886941D01*
X85788074Y-53974424D01*
X86392498Y-53370000D01*
X87447502Y-53370000D01*
X88051926Y-53974424D01*
X88266094Y-53886941D01*
X88341080Y-53614398D01*
X88361454Y-53332463D01*
X88326434Y-53051970D01*
X88266094Y-52853059D01*
X88051926Y-52765576D01*
X87447502Y-53370000D01*
X86392498Y-53370000D01*
X85788074Y-52765576D01*
X85573906Y-52853059D01*
X85498920Y-53125602D01*
X85478546Y-53407537D01*
X83333198Y-53407537D01*
X83250804Y-53325143D01*
X83057898Y-53196247D01*
X82843552Y-53107462D01*
X82616003Y-53062200D01*
X82383997Y-53062200D01*
X82156448Y-53107462D01*
X81942102Y-53196247D01*
X81749196Y-53325143D01*
X81585143Y-53489196D01*
X81456247Y-53682102D01*
X81367462Y-53896448D01*
X81322200Y-54123997D01*
X72591664Y-54123997D01*
X72594857Y-54120804D01*
X72723753Y-53927898D01*
X72812538Y-53713552D01*
X72857800Y-53486003D01*
X72857800Y-53253997D01*
X72812538Y-53026448D01*
X72723753Y-52812102D01*
X72594857Y-52619196D01*
X72430804Y-52455143D01*
X72237898Y-52326247D01*
X72023552Y-52237462D01*
X71796003Y-52192200D01*
X71563997Y-52192200D01*
X71336448Y-52237462D01*
X71122102Y-52326247D01*
X70929196Y-52455143D01*
X70765143Y-52619196D01*
X70636247Y-52812102D01*
X70547462Y-53026448D01*
X70502200Y-53253997D01*
X60742946Y-53253997D01*
X60666258Y-53139226D01*
X60390774Y-52863742D01*
X60066840Y-52647296D01*
X59706903Y-52498205D01*
X59324796Y-52422200D01*
X58935204Y-52422200D01*
X58553097Y-52498205D01*
X58193160Y-52647296D01*
X57869226Y-52863742D01*
X57593742Y-53139226D01*
X57377296Y-53463160D01*
X57228205Y-53823097D01*
X57152200Y-54205204D01*
X56072243Y-54205204D01*
X56622603Y-53455979D01*
X57525536Y-52484308D01*
X58534165Y-51622858D01*
X59635127Y-50883042D01*
X60813818Y-50274673D01*
X61461325Y-50030000D01*
X70500372Y-50030000D01*
X70500372Y-51630000D01*
X70507666Y-51704062D01*
X70529269Y-51775277D01*
X70564351Y-51840910D01*
X70611562Y-51898438D01*
X70669090Y-51945649D01*
X70734723Y-51980731D01*
X70805938Y-52002334D01*
X70880000Y-52009628D01*
X72480000Y-52009628D01*
X72554062Y-52002334D01*
X72625277Y-51980731D01*
X72690910Y-51945649D01*
X72748438Y-51898438D01*
X72795649Y-51840910D01*
X72830731Y-51775277D01*
X72852334Y-51704062D01*
X72859628Y-51630000D01*
X72859628Y-50713997D01*
X85742200Y-50713997D01*
X85742200Y-50946003D01*
X85787462Y-51173552D01*
X85876247Y-51387898D01*
X86005143Y-51580804D01*
X86169196Y-51744857D01*
X86362102Y-51873753D01*
X86576448Y-51962538D01*
X86593909Y-51966011D01*
X86403059Y-52023906D01*
X86315576Y-52238074D01*
X86920000Y-52842498D01*
X87524424Y-52238074D01*
X87436941Y-52023906D01*
X87234731Y-51968271D01*
X87263552Y-51962538D01*
X87477898Y-51873753D01*
X87670804Y-51744857D01*
X87834857Y-51580804D01*
X87963753Y-51387898D01*
X88052538Y-51173552D01*
X88097800Y-50946003D01*
X88097800Y-50713997D01*
X88052538Y-50486448D01*
X87963753Y-50272102D01*
X87834857Y-50079196D01*
X87670804Y-49915143D01*
X87477898Y-49786247D01*
X87263552Y-49697462D01*
X87036003Y-49652200D01*
X86803997Y-49652200D01*
X86576448Y-49697462D01*
X86362102Y-49786247D01*
X86169196Y-49915143D01*
X86005143Y-50079196D01*
X85876247Y-50272102D01*
X85787462Y-50486448D01*
X85742200Y-50713997D01*
X72859628Y-50713997D01*
X72859628Y-50030000D01*
X72852334Y-49955938D01*
X72830731Y-49884723D01*
X72795649Y-49819090D01*
X72748438Y-49761562D01*
X72690910Y-49714351D01*
X72625277Y-49679269D01*
X72554062Y-49657666D01*
X72480000Y-49650372D01*
X70880000Y-49650372D01*
X70805938Y-49657666D01*
X70734723Y-49679269D01*
X70669090Y-49714351D01*
X70611562Y-49761562D01*
X70564351Y-49819090D01*
X70529269Y-49884723D01*
X70507666Y-49955938D01*
X70500372Y-50030000D01*
X61461325Y-50030000D01*
X62054629Y-49805809D01*
X63341108Y-49482668D01*
X64661165Y-49308879D01*
X65508755Y-49277800D01*
X93486232Y-49277800D01*
X94824242Y-49354949D01*
G37*
%TD.AperFunction*%
%TD*%
M02*
