M48
; DRILL file {KiCad (5.1.10)-1} date 11/16/21 11:27:18
; FORMAT={-:-/ absolute / metric / decimal}
; #@! TF.CreationDate,2021-11-16T11:27:18+01:00
; #@! TF.GenerationSoftware,Kicad,Pcbnew,(5.1.10)-1
FMAT,2
METRIC
T1C0.400
T2C0.800
T3C1.000
T4C1.100
T5C3.200
%
G90
G05
T1
X55.4Y-85.1
X58.81Y-60.79
X65.4Y-85.2
X89.7Y-61.5
X103.7Y-65.3
T2
X82.5Y-54.24
X82.5Y-64.4
T3
X77.0Y-67.8
X77.0Y-82.3
X79.5Y-82.3
X82.0Y-67.8
X82.0Y-82.3
T4
X71.68Y-50.83
X71.68Y-53.37
X71.68Y-55.91
X71.68Y-58.45
X71.68Y-60.99
X71.68Y-63.53
X71.68Y-66.07
X71.68Y-68.61
X71.68Y-71.15
X71.68Y-73.69
X71.68Y-76.23
X71.68Y-78.77
X86.92Y-50.83
X86.92Y-53.37
X86.92Y-55.91
X86.92Y-58.45
X86.92Y-60.99
X86.92Y-63.53
X86.92Y-66.07
X86.92Y-68.61
X86.92Y-71.15
X86.92Y-73.69
X86.92Y-76.23
X86.92Y-78.77
T5
X59.13Y-54.4
X59.13Y-95.14
X99.85Y-54.4
X99.85Y-95.11
T0
M30
