%TF.GenerationSoftware,KiCad,Pcbnew,(6.0.0)*%
%TF.CreationDate,2022-01-02T19:46:58+01:00*%
%TF.ProjectId,VolumeKnob,566f6c75-6d65-44b6-9e6f-622e6b696361,rev?*%
%TF.SameCoordinates,Original*%
%TF.FileFunction,Soldermask,Top*%
%TF.FilePolarity,Negative*%
%FSLAX46Y46*%
G04 Gerber Fmt 4.6, Leading zero omitted, Abs format (unit mm)*
G04 Created by KiCad (PCBNEW (6.0.0)) date 2022-01-02 19:46:58*
%MOMM*%
%LPD*%
G01*
G04 APERTURE LIST*
%ADD10C,0.500000*%
%ADD11R,1.500000X1.000000*%
%ADD12C,1.600000*%
%ADD13O,1.600000X1.600000*%
%ADD14C,3.200000*%
%ADD15R,1.600000X1.600000*%
%ADD16R,2.000000X2.000000*%
%ADD17C,2.000000*%
%ADD18C,1.152000*%
G04 APERTURE END LIST*
D10*
%TO.C,REF\u002A\u002A*%
X75798997Y-113666335D03*
%TD*%
%TO.C,REF\u002A\u002A*%
X78201003Y-93333667D03*
%TD*%
%TO.C,REF\u002A\u002A*%
X75798997Y-57666332D03*
%TD*%
%TO.C,REF\u002A\u002A*%
X110666335Y-129799000D03*
%TD*%
%TO.C,REF\u002A\u002A*%
X112666336Y-75798999D03*
%TD*%
%TO.C,REF\u002A\u002A*%
X78201002Y-97333667D03*
%TD*%
D11*
%TO.C,D34*%
X109020004Y-123520003D03*
X109020004Y-126720003D03*
X113920004Y-126720003D03*
X113920004Y-123520003D03*
%TD*%
D12*
%TO.C,R1*%
X109110004Y-39599997D03*
D13*
X98950004Y-39599997D03*
%TD*%
D11*
%TO.C,D20*%
X47539997Y-80140003D03*
X47539997Y-83340003D03*
X52439997Y-83340003D03*
X52439997Y-80140003D03*
%TD*%
D10*
%TO.C,REF\u002A\u002A*%
X75798999Y-96333667D03*
%TD*%
D11*
%TO.C,D17*%
X79410004Y-44399997D03*
X79410004Y-47599997D03*
X84310004Y-47599997D03*
X84310004Y-44399997D03*
%TD*%
%TO.C,D28*%
X79410004Y-98400003D03*
X79410004Y-101600003D03*
X84310004Y-101600003D03*
X84310004Y-98400003D03*
%TD*%
D10*
%TO.C,REF\u002A\u002A*%
X57666332Y-24200997D03*
%TD*%
%TO.C,REF\u002A\u002A*%
X78201001Y-110666335D03*
%TD*%
D11*
%TO.C,D36*%
X82100004Y-113830003D03*
X82100004Y-117030003D03*
X87000004Y-117030003D03*
X87000004Y-113830003D03*
%TD*%
D10*
%TO.C,REF\u002A\u002A*%
X113666336Y-75798999D03*
%TD*%
%TO.C,REF\u002A\u002A*%
X40333664Y-78201000D03*
%TD*%
%TO.C,REF\u002A\u002A*%
X57666332Y-75798999D03*
%TD*%
%TO.C,REF\u002A\u002A*%
X113666335Y-78201002D03*
%TD*%
%TO.C,REF\u002A\u002A*%
X113666335Y-129799000D03*
%TD*%
%TO.C,REF\u002A\u002A*%
X57666332Y-129799000D03*
%TD*%
D11*
%TO.C,D6*%
X39499997Y-69159997D03*
X39499997Y-72359997D03*
X44399997Y-72359997D03*
X44399997Y-69159997D03*
%TD*%
%TO.C,D15*%
X93500004Y-69159997D03*
X93500004Y-72359997D03*
X98400004Y-72359997D03*
X98400004Y-69159997D03*
%TD*%
%TO.C,D27*%
X25409997Y-98400003D03*
X25409997Y-101600003D03*
X30309997Y-101600003D03*
X30309997Y-98400003D03*
%TD*%
%TO.C,D29*%
X88210004Y-84390003D03*
X88210004Y-87590003D03*
X93110004Y-87590003D03*
X93110004Y-84390003D03*
%TD*%
D10*
%TO.C,REF\u002A\u002A*%
X59666332Y-75798999D03*
%TD*%
%TO.C,REF\u002A\u002A*%
X60666332Y-129799000D03*
%TD*%
%TO.C,REF\u002A\u002A*%
X40333664Y-24200999D03*
%TD*%
%TO.C,REF\u002A\u002A*%
X60666332Y-78201002D03*
%TD*%
D14*
%TO.C,REF\u002A\u002A*%
X29629997Y-70339997D03*
%TD*%
D10*
%TO.C,REF\u002A\u002A*%
X56666332Y-129799000D03*
%TD*%
%TO.C,REF\u002A\u002A*%
X57666332Y-78201002D03*
%TD*%
%TO.C,REF\u002A\u002A*%
X59666332Y-78201002D03*
%TD*%
%TO.C,REF\u002A\u002A*%
X110666336Y-75798999D03*
%TD*%
D14*
%TO.C,REF\u002A\u002A*%
X124350004Y-83600003D03*
%TD*%
D10*
%TO.C,REF\u002A\u002A*%
X75798997Y-111666335D03*
%TD*%
D14*
%TO.C,REF\u002A\u002A*%
X83630004Y-124340003D03*
%TD*%
D10*
%TO.C,REF\u002A\u002A*%
X75798997Y-56666332D03*
%TD*%
%TO.C,REF\u002A\u002A*%
X75798999Y-40333664D03*
%TD*%
%TO.C,REF\u002A\u002A*%
X111666336Y-24200997D03*
%TD*%
D11*
%TO.C,D18*%
X88210004Y-30389997D03*
X88210004Y-33589997D03*
X93110004Y-33589997D03*
X93110004Y-30389997D03*
%TD*%
D15*
%TO.C,U1*%
X96330004Y-82320003D03*
D12*
X96330004Y-84860003D03*
X96330004Y-87400003D03*
X96330004Y-89940003D03*
X96330004Y-92480003D03*
X96330004Y-95020003D03*
X96330004Y-97560003D03*
X96330004Y-100100003D03*
X96330004Y-102640003D03*
X96330004Y-105180003D03*
X96330004Y-107720003D03*
X96330004Y-110260003D03*
X111570004Y-110260003D03*
X111570004Y-107720003D03*
X111570004Y-105180003D03*
X111570004Y-102640003D03*
X111570004Y-100100003D03*
X111570004Y-97560003D03*
X111570004Y-95020003D03*
X111570004Y-92480003D03*
X111570004Y-89940003D03*
X111570004Y-87400003D03*
X111570004Y-84860003D03*
X111570004Y-82320003D03*
%TD*%
D10*
%TO.C,REF\u002A\u002A*%
X112666335Y-78201002D03*
%TD*%
%TO.C,REF\u002A\u002A*%
X78201002Y-43333664D03*
%TD*%
%TO.C,REF\u002A\u002A*%
X94333668Y-24200999D03*
%TD*%
D16*
%TO.C,SW1*%
X47499997Y-57499997D03*
D17*
X52499997Y-57499997D03*
X49999997Y-57499997D03*
X47499997Y-42999997D03*
X52499997Y-42999997D03*
%TD*%
D10*
%TO.C,REF\u002A\u002A*%
X78201003Y-42333664D03*
%TD*%
%TO.C,REF\u002A\u002A*%
X56666332Y-24200997D03*
%TD*%
D14*
%TO.C,REF\u002A\u002A*%
X124350004Y-29599997D03*
%TD*%
D10*
%TO.C,REF\u002A\u002A*%
X58666332Y-129799000D03*
%TD*%
%TO.C,REF\u002A\u002A*%
X43333664Y-24200999D03*
%TD*%
D11*
%TO.C,D1*%
X47539997Y-26139997D03*
X47539997Y-29339997D03*
X52439997Y-29339997D03*
X52439997Y-26139997D03*
%TD*%
D10*
%TO.C,REF\u002A\u002A*%
X75798997Y-114666335D03*
%TD*%
%TO.C,REF\u002A\u002A*%
X78201003Y-40333664D03*
%TD*%
D11*
%TO.C,D24*%
X55019997Y-123520003D03*
X55019997Y-126720003D03*
X59919997Y-126720003D03*
X59919997Y-123520003D03*
%TD*%
D10*
%TO.C,REF\u002A\u002A*%
X39333664Y-129799002D03*
%TD*%
%TO.C,REF\u002A\u002A*%
X78201003Y-39333664D03*
%TD*%
D14*
%TO.C,REF\u002A\u002A*%
X124350004Y-70309997D03*
%TD*%
D10*
%TO.C,REF\u002A\u002A*%
X75798999Y-97333667D03*
%TD*%
%TO.C,REF\u002A\u002A*%
X114666335Y-78201002D03*
%TD*%
D15*
%TO.C,U1*%
X42329997Y-82320003D03*
D12*
X42329997Y-84860003D03*
X42329997Y-87400003D03*
X42329997Y-89940003D03*
X42329997Y-92480003D03*
X42329997Y-95020003D03*
X42329997Y-97560003D03*
X42329997Y-100100003D03*
X42329997Y-102640003D03*
X42329997Y-105180003D03*
X42329997Y-107720003D03*
X42329997Y-110260003D03*
X57569997Y-110260003D03*
X57569997Y-107720003D03*
X57569997Y-105180003D03*
X57569997Y-102640003D03*
X57569997Y-100100003D03*
X57569997Y-97560003D03*
X57569997Y-95020003D03*
X57569997Y-92480003D03*
X57569997Y-89940003D03*
X57569997Y-87400003D03*
X57569997Y-84860003D03*
X57569997Y-82320003D03*
%TD*%
D10*
%TO.C,REF\u002A\u002A*%
X97333668Y-24200999D03*
%TD*%
%TO.C,REF\u002A\u002A*%
X111666335Y-78201002D03*
%TD*%
D14*
%TO.C,REF\u002A\u002A*%
X29629997Y-29599997D03*
%TD*%
D10*
%TO.C,REF\u002A\u002A*%
X41333664Y-129799002D03*
%TD*%
%TO.C,REF\u002A\u002A*%
X78201000Y-113666335D03*
%TD*%
D14*
%TO.C,REF\u002A\u002A*%
X83630004Y-83600003D03*
%TD*%
D11*
%TO.C,D11*%
X115110004Y-30429997D03*
X115110004Y-33629997D03*
X120010004Y-33629997D03*
X120010004Y-30429997D03*
%TD*%
D10*
%TO.C,REF\u002A\u002A*%
X56666332Y-75798999D03*
%TD*%
D11*
%TO.C,D9*%
X34209997Y-30389997D03*
X34209997Y-33589997D03*
X39109997Y-33589997D03*
X39109997Y-30389997D03*
%TD*%
D10*
%TO.C,REF\u002A\u002A*%
X110666335Y-78201002D03*
%TD*%
%TO.C,REF\u002A\u002A*%
X58666332Y-75798999D03*
%TD*%
D14*
%TO.C,REF\u002A\u002A*%
X70349997Y-124310003D03*
%TD*%
D10*
%TO.C,REF\u002A\u002A*%
X94333667Y-78201000D03*
%TD*%
D11*
%TO.C,D31*%
X115110004Y-84430003D03*
X115110004Y-87630003D03*
X120010004Y-87630003D03*
X120010004Y-84430003D03*
%TD*%
D10*
%TO.C,REF\u002A\u002A*%
X39333664Y-24200999D03*
%TD*%
D11*
%TO.C,D4*%
X67219997Y-59739997D03*
X67219997Y-62939997D03*
X72119997Y-62939997D03*
X72119997Y-59739997D03*
%TD*%
D16*
%TO.C,SW1*%
X101500004Y-57499997D03*
D17*
X106500004Y-57499997D03*
X104000004Y-57499997D03*
X101500004Y-42999997D03*
X106500004Y-42999997D03*
%TD*%
D11*
%TO.C,D25*%
X39499997Y-123160003D03*
X39499997Y-126360003D03*
X44399997Y-126360003D03*
X44399997Y-123160003D03*
%TD*%
D15*
%TO.C,U1*%
X42329997Y-28319997D03*
D12*
X42329997Y-30859997D03*
X42329997Y-33399997D03*
X42329997Y-35939997D03*
X42329997Y-38479997D03*
X42329997Y-41019997D03*
X42329997Y-43559997D03*
X42329997Y-46099997D03*
X42329997Y-48639997D03*
X42329997Y-51179997D03*
X42329997Y-53719997D03*
X42329997Y-56259997D03*
X57569997Y-56259997D03*
X57569997Y-53719997D03*
X57569997Y-51179997D03*
X57569997Y-48639997D03*
X57569997Y-46099997D03*
X57569997Y-43559997D03*
X57569997Y-41019997D03*
X57569997Y-38479997D03*
X57569997Y-35939997D03*
X57569997Y-33399997D03*
X57569997Y-30859997D03*
X57569997Y-28319997D03*
%TD*%
D10*
%TO.C,REF\u002A\u002A*%
X95333668Y-75798997D03*
%TD*%
%TO.C,REF\u002A\u002A*%
X93333667Y-78201000D03*
%TD*%
D11*
%TO.C,D21*%
X61109997Y-84430003D03*
X61109997Y-87630003D03*
X66009997Y-87630003D03*
X66009997Y-84430003D03*
%TD*%
D10*
%TO.C,REF\u002A\u002A*%
X42333664Y-24200999D03*
%TD*%
%TO.C,REF\u002A\u002A*%
X93333668Y-24200999D03*
%TD*%
%TO.C,REF\u002A\u002A*%
X95333667Y-129799002D03*
%TD*%
%TO.C,REF\u002A\u002A*%
X95333668Y-24200999D03*
%TD*%
D12*
%TO.C,R1*%
X55109997Y-39599997D03*
D13*
X44949997Y-39599997D03*
%TD*%
D16*
%TO.C,SW1*%
X101500004Y-111500003D03*
D17*
X106500004Y-111500003D03*
X104000004Y-111500003D03*
X101500004Y-97000003D03*
X106500004Y-97000003D03*
%TD*%
D10*
%TO.C,REF\u002A\u002A*%
X78201000Y-59666332D03*
%TD*%
%TO.C,REF\u002A\u002A*%
X112666336Y-24200997D03*
%TD*%
%TO.C,REF\u002A\u002A*%
X75798999Y-43333664D03*
%TD*%
%TO.C,REF\u002A\u002A*%
X97333667Y-129799002D03*
%TD*%
%TO.C,REF\u002A\u002A*%
X114666336Y-75798999D03*
%TD*%
D15*
%TO.C,U1*%
X96330004Y-28319997D03*
D12*
X96330004Y-30859997D03*
X96330004Y-33399997D03*
X96330004Y-35939997D03*
X96330004Y-38479997D03*
X96330004Y-41019997D03*
X96330004Y-43559997D03*
X96330004Y-46099997D03*
X96330004Y-48639997D03*
X96330004Y-51179997D03*
X96330004Y-53719997D03*
X96330004Y-56259997D03*
X111570004Y-56259997D03*
X111570004Y-53719997D03*
X111570004Y-51179997D03*
X111570004Y-48639997D03*
X111570004Y-46099997D03*
X111570004Y-43559997D03*
X111570004Y-41019997D03*
X111570004Y-38479997D03*
X111570004Y-35939997D03*
X111570004Y-33399997D03*
X111570004Y-30859997D03*
X111570004Y-28319997D03*
%TD*%
D10*
%TO.C,REF\u002A\u002A*%
X39333664Y-78201000D03*
%TD*%
D11*
%TO.C,D19*%
X34209997Y-84390003D03*
X34209997Y-87590003D03*
X39109997Y-87590003D03*
X39109997Y-84390003D03*
%TD*%
D10*
%TO.C,REF\u002A\u002A*%
X60666332Y-24200997D03*
%TD*%
D11*
%TO.C,D32*%
X123560004Y-98390003D03*
X123560004Y-101590003D03*
X128460004Y-101590003D03*
X128460004Y-98390003D03*
%TD*%
D10*
%TO.C,REF\u002A\u002A*%
X113666336Y-24200997D03*
%TD*%
%TO.C,REF\u002A\u002A*%
X41333664Y-75798997D03*
%TD*%
%TO.C,REF\u002A\u002A*%
X93333667Y-129799002D03*
%TD*%
D11*
%TO.C,D22*%
X69559997Y-98390003D03*
X69559997Y-101590003D03*
X74459997Y-101590003D03*
X74459997Y-98390003D03*
%TD*%
D10*
%TO.C,REF\u002A\u002A*%
X75798997Y-58666332D03*
%TD*%
D12*
%TO.C,R1*%
X109110004Y-93600003D03*
D13*
X98950004Y-93600003D03*
%TD*%
D18*
%TO.C,REF\u002A\u002A*%
X26498997Y-18501997D03*
%TD*%
%TO.C,REF\u002A\u002A*%
X26498997Y-135498002D03*
%TD*%
D10*
%TO.C,REF\u002A\u002A*%
X59666332Y-24200997D03*
%TD*%
D12*
%TO.C,R1*%
X55109997Y-93600003D03*
D13*
X44949997Y-93600003D03*
%TD*%
D10*
%TO.C,REF\u002A\u002A*%
X41333664Y-24200999D03*
%TD*%
D11*
%TO.C,D2*%
X61109997Y-30429997D03*
X61109997Y-33629997D03*
X66009997Y-33629997D03*
X66009997Y-30429997D03*
%TD*%
D10*
%TO.C,REF\u002A\u002A*%
X39333664Y-75798997D03*
%TD*%
D14*
%TO.C,REF\u002A\u002A*%
X83630004Y-29599997D03*
%TD*%
D10*
%TO.C,REF\u002A\u002A*%
X42333664Y-129799002D03*
%TD*%
%TO.C,REF\u002A\u002A*%
X78201000Y-114666335D03*
%TD*%
%TO.C,REF\u002A\u002A*%
X75798997Y-59666332D03*
%TD*%
%TO.C,REF\u002A\u002A*%
X75798999Y-41333664D03*
%TD*%
%TO.C,REF\u002A\u002A*%
X78201000Y-57666332D03*
%TD*%
D16*
%TO.C,SW1*%
X47499997Y-111500003D03*
D17*
X52499997Y-111500003D03*
X49999997Y-111500003D03*
X47499997Y-97000003D03*
X52499997Y-97000003D03*
%TD*%
D10*
%TO.C,REF\u002A\u002A*%
X75798997Y-60666332D03*
%TD*%
%TO.C,REF\u002A\u002A*%
X94333667Y-129799002D03*
%TD*%
%TO.C,REF\u002A\u002A*%
X42333664Y-75798997D03*
%TD*%
D11*
%TO.C,D14*%
X109020004Y-69519997D03*
X109020004Y-72719997D03*
X113920004Y-72719997D03*
X113920004Y-69519997D03*
%TD*%
D14*
%TO.C,REF\u002A\u002A*%
X70349997Y-70309997D03*
%TD*%
D10*
%TO.C,REF\u002A\u002A*%
X59666332Y-129799000D03*
%TD*%
D11*
%TO.C,D16*%
X82100004Y-59829997D03*
X82100004Y-63029997D03*
X87000004Y-63029997D03*
X87000004Y-59829997D03*
%TD*%
%TO.C,D7*%
X28099997Y-59829997D03*
X28099997Y-63029997D03*
X32999997Y-63029997D03*
X32999997Y-59829997D03*
%TD*%
D10*
%TO.C,REF\u002A\u002A*%
X40333664Y-75798997D03*
%TD*%
%TO.C,REF\u002A\u002A*%
X96333668Y-24200999D03*
%TD*%
%TO.C,REF\u002A\u002A*%
X56666332Y-78201002D03*
%TD*%
%TO.C,REF\u002A\u002A*%
X110666336Y-24200997D03*
%TD*%
%TO.C,REF\u002A\u002A*%
X78201001Y-56666332D03*
%TD*%
%TO.C,REF\u002A\u002A*%
X75798999Y-93333667D03*
%TD*%
%TO.C,REF\u002A\u002A*%
X78201000Y-60666332D03*
%TD*%
%TO.C,REF\u002A\u002A*%
X93333668Y-75798997D03*
%TD*%
D11*
%TO.C,D5*%
X55019997Y-69519997D03*
X55019997Y-72719997D03*
X59919997Y-72719997D03*
X59919997Y-69519997D03*
%TD*%
D10*
%TO.C,REF\u002A\u002A*%
X41333664Y-78201000D03*
%TD*%
%TO.C,REF\u002A\u002A*%
X97333668Y-75798997D03*
%TD*%
%TO.C,REF\u002A\u002A*%
X111666336Y-75798999D03*
%TD*%
D11*
%TO.C,D13*%
X121220004Y-59739997D03*
X121220004Y-62939997D03*
X126120004Y-62939997D03*
X126120004Y-59739997D03*
%TD*%
D14*
%TO.C,REF\u002A\u002A*%
X70349997Y-83600003D03*
%TD*%
D10*
%TO.C,REF\u002A\u002A*%
X78201000Y-58666332D03*
%TD*%
D11*
%TO.C,D35*%
X93500004Y-123160003D03*
X93500004Y-126360003D03*
X98400004Y-126360003D03*
X98400004Y-123160003D03*
%TD*%
D10*
%TO.C,REF\u002A\u002A*%
X42333664Y-78201000D03*
%TD*%
%TO.C,REF\u002A\u002A*%
X97333667Y-78201000D03*
%TD*%
%TO.C,REF\u002A\u002A*%
X95333667Y-78201000D03*
%TD*%
D11*
%TO.C,D30*%
X101540004Y-80140003D03*
X101540004Y-83340003D03*
X106440004Y-83340003D03*
X106440004Y-80140003D03*
%TD*%
D10*
%TO.C,REF\u002A\u002A*%
X58666332Y-24200997D03*
%TD*%
%TO.C,REF\u002A\u002A*%
X40333664Y-129799002D03*
%TD*%
D11*
%TO.C,D23*%
X67219997Y-113740003D03*
X67219997Y-116940003D03*
X72119997Y-116940003D03*
X72119997Y-113740003D03*
%TD*%
D10*
%TO.C,REF\u002A\u002A*%
X111666335Y-129799000D03*
%TD*%
D14*
%TO.C,REF\u002A\u002A*%
X83630004Y-70339997D03*
%TD*%
D10*
%TO.C,REF\u002A\u002A*%
X75798999Y-94333667D03*
%TD*%
%TO.C,REF\u002A\u002A*%
X60666332Y-75798999D03*
%TD*%
%TO.C,REF\u002A\u002A*%
X78201003Y-95333667D03*
%TD*%
%TO.C,REF\u002A\u002A*%
X78201003Y-96333667D03*
%TD*%
%TO.C,REF\u002A\u002A*%
X94333668Y-75798997D03*
%TD*%
%TO.C,REF\u002A\u002A*%
X96333667Y-129799002D03*
%TD*%
%TO.C,REF\u002A\u002A*%
X75798997Y-112666335D03*
%TD*%
%TO.C,REF\u002A\u002A*%
X58666332Y-78201002D03*
%TD*%
D11*
%TO.C,D26*%
X28099997Y-113830003D03*
X28099997Y-117030003D03*
X32999997Y-117030003D03*
X32999997Y-113830003D03*
%TD*%
%TO.C,D8*%
X25409997Y-44399997D03*
X25409997Y-47599997D03*
X30309997Y-47599997D03*
X30309997Y-44399997D03*
%TD*%
D14*
%TO.C,REF\u002A\u002A*%
X70349997Y-29599997D03*
%TD*%
D10*
%TO.C,REF\u002A\u002A*%
X75798999Y-95333667D03*
%TD*%
%TO.C,REF\u002A\u002A*%
X78201000Y-111666335D03*
%TD*%
%TO.C,REF\u002A\u002A*%
X96333668Y-75798997D03*
%TD*%
%TO.C,REF\u002A\u002A*%
X96333667Y-78201000D03*
%TD*%
%TO.C,REF\u002A\u002A*%
X78201003Y-41333664D03*
%TD*%
D11*
%TO.C,D12*%
X123560004Y-44389997D03*
X123560004Y-47589997D03*
X128460004Y-47589997D03*
X128460004Y-44389997D03*
%TD*%
D10*
%TO.C,REF\u002A\u002A*%
X75798997Y-110666335D03*
%TD*%
%TO.C,REF\u002A\u002A*%
X75798999Y-39333664D03*
%TD*%
D14*
%TO.C,REF\u002A\u002A*%
X124350004Y-124310003D03*
%TD*%
D10*
%TO.C,REF\u002A\u002A*%
X43333664Y-129799002D03*
%TD*%
%TO.C,REF\u002A\u002A*%
X112666335Y-129799000D03*
%TD*%
%TO.C,REF\u002A\u002A*%
X78201000Y-112666335D03*
%TD*%
%TO.C,REF\u002A\u002A*%
X114666335Y-129799000D03*
%TD*%
%TO.C,REF\u002A\u002A*%
X75798999Y-42333664D03*
%TD*%
D11*
%TO.C,D10*%
X101540004Y-26139997D03*
X101540004Y-29339997D03*
X106440004Y-29339997D03*
X106440004Y-26139997D03*
%TD*%
D14*
%TO.C,REF\u002A\u002A*%
X29629997Y-83600003D03*
%TD*%
D11*
%TO.C,D3*%
X69559997Y-44389997D03*
X69559997Y-47589997D03*
X74459997Y-47589997D03*
X74459997Y-44389997D03*
%TD*%
D10*
%TO.C,REF\u002A\u002A*%
X114666336Y-24200997D03*
%TD*%
D14*
%TO.C,REF\u002A\u002A*%
X29629997Y-124340003D03*
%TD*%
D11*
%TO.C,D33*%
X121220004Y-113740003D03*
X121220004Y-116940003D03*
X126120004Y-116940003D03*
X126120004Y-113740003D03*
%TD*%
D10*
%TO.C,REF\u002A\u002A*%
X43333664Y-75798997D03*
%TD*%
%TO.C,REF\u002A\u002A*%
X78201003Y-94333667D03*
%TD*%
%TO.C,REF\u002A\u002A*%
X43333664Y-78201000D03*
%TD*%
D18*
%TO.C,REF\u002A\u002A*%
X127501003Y-18501997D03*
%TD*%
M02*
