M48
; DRILL file {KiCad (6.0.0)} date Thu Dec 30 22:01:48 2021
; FORMAT={-:-/ absolute / metric / decimal}
; #@! TF.CreationDate,2021-12-30T22:01:48+01:00
; #@! TF.GenerationSoftware,Kicad,Pcbnew,(6.0.0)
; #@! TF.FileFunction,MixedPlating,1,2
FMAT,2
METRIC
; #@! TA.AperFunction,Plated,PTH,ViaDrill
T1C0.400
; #@! TA.AperFunction,Plated,PTH,ComponentDrill
T2C0.800
; #@! TA.AperFunction,Plated,PTH,ComponentDrill
T3C1.000
; #@! TA.AperFunction,Plated,PTH,ComponentDrill
T4C1.100
; #@! TA.AperFunction,NonPlated,NPTH,ComponentDrill
T5C3.200
%
G90
G05
T1
X79.46Y-81.16
X82.89Y-112.69
X85.3Y-107.22
X93.73Y-74.37
X120.35Y-97.77
T2
X93.88Y-83.83
X104.04Y-83.83
T3
X96.43Y-87.23
X96.43Y-101.73
X98.93Y-101.73
X101.43Y-87.23
X101.43Y-101.73
T4
X91.26Y-72.55
X91.26Y-75.09
X91.26Y-77.63
X91.26Y-80.17
X91.26Y-82.71
X91.26Y-85.25
X91.26Y-87.79
X91.26Y-90.33
X91.26Y-92.87
X91.26Y-95.41
X91.26Y-97.95
X91.26Y-100.49
X106.5Y-72.55
X106.5Y-75.09
X106.5Y-77.63
X106.5Y-80.17
X106.5Y-82.71
X106.5Y-85.25
X106.5Y-87.79
X106.5Y-90.33
X106.5Y-92.87
X106.5Y-95.41
X106.5Y-97.95
X106.5Y-100.49
T5
X78.56Y-73.83
X78.56Y-114.57
X119.28Y-73.83
X119.28Y-114.54
T0
M30
