G04 #@! TF.GenerationSoftware,KiCad,Pcbnew,(6.0.0)*
G04 #@! TF.CreationDate,2021-12-30T22:01:48+01:00*
G04 #@! TF.ProjectId,VolumeKnob,566f6c75-6d65-44b6-9e6f-622e6b696361,rev?*
G04 #@! TF.SameCoordinates,Original*
G04 #@! TF.FileFunction,Soldermask,Top*
G04 #@! TF.FilePolarity,Negative*
%FSLAX46Y46*%
G04 Gerber Fmt 4.6, Leading zero omitted, Abs format (unit mm)*
G04 Created by KiCad (PCBNEW (6.0.0)) date 2021-12-30 22:01:48*
%MOMM*%
%LPD*%
G01*
G04 APERTURE LIST*
%ADD10C,3.200000*%
%ADD11R,1.600000X1.600000*%
%ADD12C,1.600000*%
%ADD13O,1.600000X1.600000*%
%ADD14R,2.000000X2.000000*%
%ADD15C,2.000000*%
%ADD16R,1.500000X1.000000*%
G04 APERTURE END LIST*
D10*
G04 #@! TO.C,REF\u002A\u002A*
X119280000Y-114540000D03*
G04 #@! TD*
G04 #@! TO.C,REF\u002A\u002A*
X119280000Y-73830000D03*
G04 #@! TD*
G04 #@! TO.C,REF\u002A\u002A*
X78560000Y-73830000D03*
G04 #@! TD*
G04 #@! TO.C,REF\u002A\u002A*
X78560000Y-114570000D03*
G04 #@! TD*
D11*
G04 #@! TO.C,U1*
X91260000Y-72550000D03*
D12*
X91260000Y-75090000D03*
X91260000Y-77630000D03*
X91260000Y-80170000D03*
X91260000Y-82710000D03*
X91260000Y-85250000D03*
X91260000Y-87790000D03*
X91260000Y-90330000D03*
X91260000Y-92870000D03*
X91260000Y-95410000D03*
X91260000Y-97950000D03*
X91260000Y-100490000D03*
X106500000Y-100490000D03*
X106500000Y-97950000D03*
X106500000Y-95410000D03*
X106500000Y-92870000D03*
X106500000Y-90330000D03*
X106500000Y-87790000D03*
X106500000Y-85250000D03*
X106500000Y-82710000D03*
X106500000Y-80170000D03*
X106500000Y-77630000D03*
X106500000Y-75090000D03*
X106500000Y-72550000D03*
G04 #@! TD*
G04 #@! TO.C,R1*
X104040000Y-83830000D03*
D13*
X93880000Y-83830000D03*
G04 #@! TD*
D14*
G04 #@! TO.C,SW1*
X96430000Y-101730000D03*
D15*
X101430000Y-101730000D03*
X98930000Y-101730000D03*
X96430000Y-87230000D03*
X101430000Y-87230000D03*
G04 #@! TD*
D16*
G04 #@! TO.C,D9*
X96470000Y-70370000D03*
X96470000Y-73570000D03*
X101370000Y-73570000D03*
X101370000Y-70370000D03*
G04 #@! TD*
G04 #@! TO.C,D10*
X110040000Y-74660000D03*
X110040000Y-77860000D03*
X114940000Y-77860000D03*
X114940000Y-74660000D03*
G04 #@! TD*
G04 #@! TO.C,D11*
X118490000Y-88620000D03*
X118490000Y-91820000D03*
X123390000Y-91820000D03*
X123390000Y-88620000D03*
G04 #@! TD*
G04 #@! TO.C,D12*
X116150000Y-103970000D03*
X116150000Y-107170000D03*
X121050000Y-107170000D03*
X121050000Y-103970000D03*
G04 #@! TD*
G04 #@! TO.C,D13*
X103950000Y-113750000D03*
X103950000Y-116950000D03*
X108850000Y-116950000D03*
X108850000Y-113750000D03*
G04 #@! TD*
G04 #@! TO.C,D14*
X88430000Y-113390000D03*
X88430000Y-116590000D03*
X93330000Y-116590000D03*
X93330000Y-113390000D03*
G04 #@! TD*
G04 #@! TO.C,D15*
X77030000Y-104060000D03*
X77030000Y-107260000D03*
X81930000Y-107260000D03*
X81930000Y-104060000D03*
G04 #@! TD*
G04 #@! TO.C,D16*
X74340000Y-88630000D03*
X74340000Y-91830000D03*
X79240000Y-91830000D03*
X79240000Y-88630000D03*
G04 #@! TD*
G04 #@! TO.C,D17*
X83140000Y-74620000D03*
X83140000Y-77820000D03*
X88040000Y-77820000D03*
X88040000Y-74620000D03*
G04 #@! TD*
M02*
