G04 #@! TF.GenerationSoftware,KiCad,Pcbnew,(6.0.0)*
G04 #@! TF.CreationDate,2021-12-30T22:01:47+01:00*
G04 #@! TF.ProjectId,VolumeKnob,566f6c75-6d65-44b6-9e6f-622e6b696361,rev?*
G04 #@! TF.SameCoordinates,Original*
G04 #@! TF.FileFunction,Legend,Top*
G04 #@! TF.FilePolarity,Positive*
%FSLAX46Y46*%
G04 Gerber Fmt 4.6, Leading zero omitted, Abs format (unit mm)*
G04 Created by KiCad (PCBNEW (6.0.0)) date 2021-12-30 22:01:47*
%MOMM*%
%LPD*%
G01*
G04 APERTURE LIST*
%ADD10C,0.150000*%
%ADD11C,0.120000*%
G04 APERTURE END LIST*
D10*
G04 #@! TO.C,U1*
X95966190Y-79142380D02*
X95966190Y-78142380D01*
X96347142Y-78142380D01*
X96442380Y-78190000D01*
X96490000Y-78237619D01*
X96537619Y-78332857D01*
X96537619Y-78475714D01*
X96490000Y-78570952D01*
X96442380Y-78618571D01*
X96347142Y-78666190D01*
X95966190Y-78666190D01*
X96966190Y-79142380D02*
X96966190Y-78475714D01*
X96966190Y-78666190D02*
X97013809Y-78570952D01*
X97061428Y-78523333D01*
X97156666Y-78475714D01*
X97251904Y-78475714D01*
X97728095Y-79142380D02*
X97632857Y-79094761D01*
X97585238Y-79047142D01*
X97537619Y-78951904D01*
X97537619Y-78666190D01*
X97585238Y-78570952D01*
X97632857Y-78523333D01*
X97728095Y-78475714D01*
X97870952Y-78475714D01*
X97966190Y-78523333D01*
X98013809Y-78570952D01*
X98061428Y-78666190D01*
X98061428Y-78951904D01*
X98013809Y-79047142D01*
X97966190Y-79094761D01*
X97870952Y-79142380D01*
X97728095Y-79142380D01*
X98490000Y-79142380D02*
X98490000Y-78142380D01*
X98823333Y-78856666D01*
X99156666Y-78142380D01*
X99156666Y-79142380D01*
X99632857Y-79142380D02*
X99632857Y-78475714D01*
X99632857Y-78142380D02*
X99585238Y-78190000D01*
X99632857Y-78237619D01*
X99680476Y-78190000D01*
X99632857Y-78142380D01*
X99632857Y-78237619D01*
X100537619Y-79094761D02*
X100442380Y-79142380D01*
X100251904Y-79142380D01*
X100156666Y-79094761D01*
X100109047Y-79047142D01*
X100061428Y-78951904D01*
X100061428Y-78666190D01*
X100109047Y-78570952D01*
X100156666Y-78523333D01*
X100251904Y-78475714D01*
X100442380Y-78475714D01*
X100537619Y-78523333D01*
X100966190Y-79142380D02*
X100966190Y-78475714D01*
X100966190Y-78666190D02*
X101013809Y-78570952D01*
X101061428Y-78523333D01*
X101156666Y-78475714D01*
X101251904Y-78475714D01*
X101728095Y-79142380D02*
X101632857Y-79094761D01*
X101585238Y-79047142D01*
X101537619Y-78951904D01*
X101537619Y-78666190D01*
X101585238Y-78570952D01*
X101632857Y-78523333D01*
X101728095Y-78475714D01*
X101870952Y-78475714D01*
X101966190Y-78523333D01*
X102013809Y-78570952D01*
X102061428Y-78666190D01*
X102061428Y-78951904D01*
X102013809Y-79047142D01*
X101966190Y-79094761D01*
X101870952Y-79142380D01*
X101728095Y-79142380D01*
G04 #@! TO.C,R1*
X98793333Y-86652380D02*
X98460000Y-86176190D01*
X98221904Y-86652380D02*
X98221904Y-85652380D01*
X98602857Y-85652380D01*
X98698095Y-85700000D01*
X98745714Y-85747619D01*
X98793333Y-85842857D01*
X98793333Y-85985714D01*
X98745714Y-86080952D01*
X98698095Y-86128571D01*
X98602857Y-86176190D01*
X98221904Y-86176190D01*
X99745714Y-86652380D02*
X99174285Y-86652380D01*
X99460000Y-86652380D02*
X99460000Y-85652380D01*
X99364761Y-85795238D01*
X99269523Y-85890476D01*
X99174285Y-85938095D01*
X96821428Y-84182380D02*
X96250000Y-84182380D01*
X96535714Y-84182380D02*
X96535714Y-83182380D01*
X96440476Y-83325238D01*
X96345238Y-83420476D01*
X96250000Y-83468095D01*
X97440476Y-83182380D02*
X97535714Y-83182380D01*
X97630952Y-83230000D01*
X97678571Y-83277619D01*
X97726190Y-83372857D01*
X97773809Y-83563333D01*
X97773809Y-83801428D01*
X97726190Y-83991904D01*
X97678571Y-84087142D01*
X97630952Y-84134761D01*
X97535714Y-84182380D01*
X97440476Y-84182380D01*
X97345238Y-84134761D01*
X97297619Y-84087142D01*
X97250000Y-83991904D01*
X97202380Y-83801428D01*
X97202380Y-83563333D01*
X97250000Y-83372857D01*
X97297619Y-83277619D01*
X97345238Y-83230000D01*
X97440476Y-83182380D01*
X98964285Y-84182380D02*
X98964285Y-83182380D01*
X99059523Y-83801428D02*
X99345238Y-84182380D01*
X99345238Y-83515714D02*
X98964285Y-83896666D01*
X99726190Y-84182380D02*
X99964285Y-84182380D01*
X99964285Y-83991904D01*
X99869047Y-83944285D01*
X99773809Y-83849047D01*
X99726190Y-83706190D01*
X99726190Y-83468095D01*
X99773809Y-83325238D01*
X99869047Y-83230000D01*
X100011904Y-83182380D01*
X100202380Y-83182380D01*
X100345238Y-83230000D01*
X100440476Y-83325238D01*
X100488095Y-83468095D01*
X100488095Y-83706190D01*
X100440476Y-83849047D01*
X100345238Y-83944285D01*
X100250000Y-83991904D01*
X100250000Y-84182380D01*
X100488095Y-84182380D01*
G04 #@! TO.C,SW1*
X103434761Y-91563333D02*
X103482380Y-91420476D01*
X103482380Y-91182380D01*
X103434761Y-91087142D01*
X103387142Y-91039523D01*
X103291904Y-90991904D01*
X103196666Y-90991904D01*
X103101428Y-91039523D01*
X103053809Y-91087142D01*
X103006190Y-91182380D01*
X102958571Y-91372857D01*
X102910952Y-91468095D01*
X102863333Y-91515714D01*
X102768095Y-91563333D01*
X102672857Y-91563333D01*
X102577619Y-91515714D01*
X102530000Y-91468095D01*
X102482380Y-91372857D01*
X102482380Y-91134761D01*
X102530000Y-90991904D01*
X102482380Y-90658571D02*
X103482380Y-90420476D01*
X102768095Y-90230000D01*
X103482380Y-90039523D01*
X102482380Y-89801428D01*
X103482380Y-88896666D02*
X103482380Y-89468095D01*
X103482380Y-89182380D02*
X102482380Y-89182380D01*
X102625238Y-89277619D01*
X102720476Y-89372857D01*
X102768095Y-89468095D01*
G04 #@! TO.C,D9*
X92681904Y-70382380D02*
X92681904Y-69382380D01*
X92920000Y-69382380D01*
X93062857Y-69430000D01*
X93158095Y-69525238D01*
X93205714Y-69620476D01*
X93253333Y-69810952D01*
X93253333Y-69953809D01*
X93205714Y-70144285D01*
X93158095Y-70239523D01*
X93062857Y-70334761D01*
X92920000Y-70382380D01*
X92681904Y-70382380D01*
X93729523Y-70382380D02*
X93920000Y-70382380D01*
X94015238Y-70334761D01*
X94062857Y-70287142D01*
X94158095Y-70144285D01*
X94205714Y-69953809D01*
X94205714Y-69572857D01*
X94158095Y-69477619D01*
X94110476Y-69430000D01*
X94015238Y-69382380D01*
X93824761Y-69382380D01*
X93729523Y-69430000D01*
X93681904Y-69477619D01*
X93634285Y-69572857D01*
X93634285Y-69810952D01*
X93681904Y-69906190D01*
X93729523Y-69953809D01*
X93824761Y-70001428D01*
X94015238Y-70001428D01*
X94110476Y-69953809D01*
X94158095Y-69906190D01*
X94205714Y-69810952D01*
X95055714Y-70822380D02*
X94484285Y-70822380D01*
X94770000Y-70822380D02*
X94770000Y-69822380D01*
X94674761Y-69965238D01*
X94579523Y-70060476D01*
X94484285Y-70108095D01*
G04 #@! TO.C,D10*
X111275714Y-73212380D02*
X111275714Y-72212380D01*
X111513809Y-72212380D01*
X111656666Y-72260000D01*
X111751904Y-72355238D01*
X111799523Y-72450476D01*
X111847142Y-72640952D01*
X111847142Y-72783809D01*
X111799523Y-72974285D01*
X111751904Y-73069523D01*
X111656666Y-73164761D01*
X111513809Y-73212380D01*
X111275714Y-73212380D01*
X112799523Y-73212380D02*
X112228095Y-73212380D01*
X112513809Y-73212380D02*
X112513809Y-72212380D01*
X112418571Y-72355238D01*
X112323333Y-72450476D01*
X112228095Y-72498095D01*
X113418571Y-72212380D02*
X113513809Y-72212380D01*
X113609047Y-72260000D01*
X113656666Y-72307619D01*
X113704285Y-72402857D01*
X113751904Y-72593333D01*
X113751904Y-72831428D01*
X113704285Y-73021904D01*
X113656666Y-73117142D01*
X113609047Y-73164761D01*
X113513809Y-73212380D01*
X113418571Y-73212380D01*
X113323333Y-73164761D01*
X113275714Y-73117142D01*
X113228095Y-73021904D01*
X113180476Y-72831428D01*
X113180476Y-72593333D01*
X113228095Y-72402857D01*
X113275714Y-72307619D01*
X113323333Y-72260000D01*
X113418571Y-72212380D01*
X108625714Y-75112380D02*
X108054285Y-75112380D01*
X108340000Y-75112380D02*
X108340000Y-74112380D01*
X108244761Y-74255238D01*
X108149523Y-74350476D01*
X108054285Y-74398095D01*
G04 #@! TO.C,D11*
X119725714Y-87172380D02*
X119725714Y-86172380D01*
X119963809Y-86172380D01*
X120106666Y-86220000D01*
X120201904Y-86315238D01*
X120249523Y-86410476D01*
X120297142Y-86600952D01*
X120297142Y-86743809D01*
X120249523Y-86934285D01*
X120201904Y-87029523D01*
X120106666Y-87124761D01*
X119963809Y-87172380D01*
X119725714Y-87172380D01*
X121249523Y-87172380D02*
X120678095Y-87172380D01*
X120963809Y-87172380D02*
X120963809Y-86172380D01*
X120868571Y-86315238D01*
X120773333Y-86410476D01*
X120678095Y-86458095D01*
X122201904Y-87172380D02*
X121630476Y-87172380D01*
X121916190Y-87172380D02*
X121916190Y-86172380D01*
X121820952Y-86315238D01*
X121725714Y-86410476D01*
X121630476Y-86458095D01*
X117075714Y-89072380D02*
X116504285Y-89072380D01*
X116790000Y-89072380D02*
X116790000Y-88072380D01*
X116694761Y-88215238D01*
X116599523Y-88310476D01*
X116504285Y-88358095D01*
G04 #@! TO.C,D12*
X117385714Y-102522380D02*
X117385714Y-101522380D01*
X117623809Y-101522380D01*
X117766666Y-101570000D01*
X117861904Y-101665238D01*
X117909523Y-101760476D01*
X117957142Y-101950952D01*
X117957142Y-102093809D01*
X117909523Y-102284285D01*
X117861904Y-102379523D01*
X117766666Y-102474761D01*
X117623809Y-102522380D01*
X117385714Y-102522380D01*
X118909523Y-102522380D02*
X118338095Y-102522380D01*
X118623809Y-102522380D02*
X118623809Y-101522380D01*
X118528571Y-101665238D01*
X118433333Y-101760476D01*
X118338095Y-101808095D01*
X119290476Y-101617619D02*
X119338095Y-101570000D01*
X119433333Y-101522380D01*
X119671428Y-101522380D01*
X119766666Y-101570000D01*
X119814285Y-101617619D01*
X119861904Y-101712857D01*
X119861904Y-101808095D01*
X119814285Y-101950952D01*
X119242857Y-102522380D01*
X119861904Y-102522380D01*
X114735714Y-104422380D02*
X114164285Y-104422380D01*
X114450000Y-104422380D02*
X114450000Y-103422380D01*
X114354761Y-103565238D01*
X114259523Y-103660476D01*
X114164285Y-103708095D01*
G04 #@! TO.C,D13*
X105185714Y-112302380D02*
X105185714Y-111302380D01*
X105423809Y-111302380D01*
X105566666Y-111350000D01*
X105661904Y-111445238D01*
X105709523Y-111540476D01*
X105757142Y-111730952D01*
X105757142Y-111873809D01*
X105709523Y-112064285D01*
X105661904Y-112159523D01*
X105566666Y-112254761D01*
X105423809Y-112302380D01*
X105185714Y-112302380D01*
X106709523Y-112302380D02*
X106138095Y-112302380D01*
X106423809Y-112302380D02*
X106423809Y-111302380D01*
X106328571Y-111445238D01*
X106233333Y-111540476D01*
X106138095Y-111588095D01*
X107042857Y-111302380D02*
X107661904Y-111302380D01*
X107328571Y-111683333D01*
X107471428Y-111683333D01*
X107566666Y-111730952D01*
X107614285Y-111778571D01*
X107661904Y-111873809D01*
X107661904Y-112111904D01*
X107614285Y-112207142D01*
X107566666Y-112254761D01*
X107471428Y-112302380D01*
X107185714Y-112302380D01*
X107090476Y-112254761D01*
X107042857Y-112207142D01*
X102535714Y-114202380D02*
X101964285Y-114202380D01*
X102250000Y-114202380D02*
X102250000Y-113202380D01*
X102154761Y-113345238D01*
X102059523Y-113440476D01*
X101964285Y-113488095D01*
G04 #@! TO.C,D14*
X89665714Y-111942380D02*
X89665714Y-110942380D01*
X89903809Y-110942380D01*
X90046666Y-110990000D01*
X90141904Y-111085238D01*
X90189523Y-111180476D01*
X90237142Y-111370952D01*
X90237142Y-111513809D01*
X90189523Y-111704285D01*
X90141904Y-111799523D01*
X90046666Y-111894761D01*
X89903809Y-111942380D01*
X89665714Y-111942380D01*
X91189523Y-111942380D02*
X90618095Y-111942380D01*
X90903809Y-111942380D02*
X90903809Y-110942380D01*
X90808571Y-111085238D01*
X90713333Y-111180476D01*
X90618095Y-111228095D01*
X92046666Y-111275714D02*
X92046666Y-111942380D01*
X91808571Y-110894761D02*
X91570476Y-111609047D01*
X92189523Y-111609047D01*
X87015714Y-113842380D02*
X86444285Y-113842380D01*
X86730000Y-113842380D02*
X86730000Y-112842380D01*
X86634761Y-112985238D01*
X86539523Y-113080476D01*
X86444285Y-113128095D01*
G04 #@! TO.C,D15*
X78265714Y-102612380D02*
X78265714Y-101612380D01*
X78503809Y-101612380D01*
X78646666Y-101660000D01*
X78741904Y-101755238D01*
X78789523Y-101850476D01*
X78837142Y-102040952D01*
X78837142Y-102183809D01*
X78789523Y-102374285D01*
X78741904Y-102469523D01*
X78646666Y-102564761D01*
X78503809Y-102612380D01*
X78265714Y-102612380D01*
X79789523Y-102612380D02*
X79218095Y-102612380D01*
X79503809Y-102612380D02*
X79503809Y-101612380D01*
X79408571Y-101755238D01*
X79313333Y-101850476D01*
X79218095Y-101898095D01*
X80694285Y-101612380D02*
X80218095Y-101612380D01*
X80170476Y-102088571D01*
X80218095Y-102040952D01*
X80313333Y-101993333D01*
X80551428Y-101993333D01*
X80646666Y-102040952D01*
X80694285Y-102088571D01*
X80741904Y-102183809D01*
X80741904Y-102421904D01*
X80694285Y-102517142D01*
X80646666Y-102564761D01*
X80551428Y-102612380D01*
X80313333Y-102612380D01*
X80218095Y-102564761D01*
X80170476Y-102517142D01*
X75615714Y-104512380D02*
X75044285Y-104512380D01*
X75330000Y-104512380D02*
X75330000Y-103512380D01*
X75234761Y-103655238D01*
X75139523Y-103750476D01*
X75044285Y-103798095D01*
G04 #@! TO.C,D16*
X75575714Y-87182380D02*
X75575714Y-86182380D01*
X75813809Y-86182380D01*
X75956666Y-86230000D01*
X76051904Y-86325238D01*
X76099523Y-86420476D01*
X76147142Y-86610952D01*
X76147142Y-86753809D01*
X76099523Y-86944285D01*
X76051904Y-87039523D01*
X75956666Y-87134761D01*
X75813809Y-87182380D01*
X75575714Y-87182380D01*
X77099523Y-87182380D02*
X76528095Y-87182380D01*
X76813809Y-87182380D02*
X76813809Y-86182380D01*
X76718571Y-86325238D01*
X76623333Y-86420476D01*
X76528095Y-86468095D01*
X77956666Y-86182380D02*
X77766190Y-86182380D01*
X77670952Y-86230000D01*
X77623333Y-86277619D01*
X77528095Y-86420476D01*
X77480476Y-86610952D01*
X77480476Y-86991904D01*
X77528095Y-87087142D01*
X77575714Y-87134761D01*
X77670952Y-87182380D01*
X77861428Y-87182380D01*
X77956666Y-87134761D01*
X78004285Y-87087142D01*
X78051904Y-86991904D01*
X78051904Y-86753809D01*
X78004285Y-86658571D01*
X77956666Y-86610952D01*
X77861428Y-86563333D01*
X77670952Y-86563333D01*
X77575714Y-86610952D01*
X77528095Y-86658571D01*
X77480476Y-86753809D01*
X72925714Y-89082380D02*
X72354285Y-89082380D01*
X72640000Y-89082380D02*
X72640000Y-88082380D01*
X72544761Y-88225238D01*
X72449523Y-88320476D01*
X72354285Y-88368095D01*
G04 #@! TO.C,D17*
X84375714Y-73172380D02*
X84375714Y-72172380D01*
X84613809Y-72172380D01*
X84756666Y-72220000D01*
X84851904Y-72315238D01*
X84899523Y-72410476D01*
X84947142Y-72600952D01*
X84947142Y-72743809D01*
X84899523Y-72934285D01*
X84851904Y-73029523D01*
X84756666Y-73124761D01*
X84613809Y-73172380D01*
X84375714Y-73172380D01*
X85899523Y-73172380D02*
X85328095Y-73172380D01*
X85613809Y-73172380D02*
X85613809Y-72172380D01*
X85518571Y-72315238D01*
X85423333Y-72410476D01*
X85328095Y-72458095D01*
X86232857Y-72172380D02*
X86899523Y-72172380D01*
X86470952Y-73172380D01*
X81725714Y-75072380D02*
X81154285Y-75072380D01*
X81440000Y-75072380D02*
X81440000Y-74072380D01*
X81344761Y-74215238D01*
X81249523Y-74310476D01*
X81154285Y-74358095D01*
D11*
G04 #@! TO.C,R1*
X102230000Y-85200000D02*
X102230000Y-82460000D01*
X95690000Y-85200000D02*
X102230000Y-85200000D01*
X95690000Y-82460000D02*
X95690000Y-85200000D01*
X102230000Y-82460000D02*
X95690000Y-82460000D01*
X94920000Y-83830000D02*
X95690000Y-83830000D01*
X103000000Y-83830000D02*
X102230000Y-83830000D01*
G04 #@! TO.C,SW1*
X98930000Y-94730000D02*
X98930000Y-93730000D01*
X92630000Y-92430000D02*
X92630000Y-87530000D01*
X94830000Y-102030000D02*
X94830000Y-101430000D01*
X92630000Y-87530000D02*
X95230000Y-87530000D01*
X92630000Y-100930000D02*
X95130000Y-100930000D01*
X95130000Y-101730000D02*
X94830000Y-102030000D01*
X97630000Y-87530000D02*
X100230000Y-87530000D01*
X94830000Y-101430000D02*
X95130000Y-101730000D01*
X105230000Y-100930000D02*
X102430000Y-100930000D01*
X92630000Y-96130000D02*
X92630000Y-100930000D01*
X102630000Y-87530000D02*
X105230000Y-87530000D01*
X105230000Y-96030000D02*
X105230000Y-100930000D01*
X105230000Y-87530000D02*
X105230000Y-92430000D01*
X98430000Y-94230000D02*
X99430000Y-94230000D01*
X101930000Y-94230000D02*
G75*
G03*
X101930000Y-94230000I-3000000J0D01*
G01*
G04 #@! TO.C,D9*
X102570000Y-74720000D02*
X102570000Y-73570000D01*
X95270000Y-69220000D02*
X102570000Y-69220000D01*
X95270000Y-74720000D02*
X102570000Y-74720000D01*
G04 #@! TO.C,D10*
X108840000Y-73510000D02*
X116140000Y-73510000D01*
X108840000Y-79010000D02*
X116140000Y-79010000D01*
X116140000Y-79010000D02*
X116140000Y-77860000D01*
G04 #@! TO.C,D11*
X124590000Y-92970000D02*
X124590000Y-91820000D01*
X117290000Y-87470000D02*
X124590000Y-87470000D01*
X117290000Y-92970000D02*
X124590000Y-92970000D01*
G04 #@! TO.C,D12*
X114950000Y-102820000D02*
X122250000Y-102820000D01*
X122250000Y-108320000D02*
X122250000Y-107170000D01*
X114950000Y-108320000D02*
X122250000Y-108320000D01*
G04 #@! TO.C,D13*
X102750000Y-118100000D02*
X110050000Y-118100000D01*
X102750000Y-112600000D02*
X110050000Y-112600000D01*
X110050000Y-118100000D02*
X110050000Y-116950000D01*
G04 #@! TO.C,D14*
X87230000Y-117740000D02*
X94530000Y-117740000D01*
X94530000Y-117740000D02*
X94530000Y-116590000D01*
X87230000Y-112240000D02*
X94530000Y-112240000D01*
G04 #@! TO.C,D15*
X83130000Y-108410000D02*
X83130000Y-107260000D01*
X75830000Y-102910000D02*
X83130000Y-102910000D01*
X75830000Y-108410000D02*
X83130000Y-108410000D01*
G04 #@! TO.C,D16*
X73140000Y-87480000D02*
X80440000Y-87480000D01*
X73140000Y-92980000D02*
X80440000Y-92980000D01*
X80440000Y-92980000D02*
X80440000Y-91830000D01*
G04 #@! TO.C,D17*
X81940000Y-78970000D02*
X89240000Y-78970000D01*
X89240000Y-78970000D02*
X89240000Y-77820000D01*
X81940000Y-73470000D02*
X89240000Y-73470000D01*
G04 #@! TD*
M02*
