G04 #@! TF.GenerationSoftware,KiCad,Pcbnew,(6.0.0)*
G04 #@! TF.CreationDate,2021-12-30T22:01:47+01:00*
G04 #@! TF.ProjectId,VolumeKnob,566f6c75-6d65-44b6-9e6f-622e6b696361,rev?*
G04 #@! TF.SameCoordinates,Original*
G04 #@! TF.FileFunction,Copper,L2,Bot*
G04 #@! TF.FilePolarity,Positive*
%FSLAX46Y46*%
G04 Gerber Fmt 4.6, Leading zero omitted, Abs format (unit mm)*
G04 Created by KiCad (PCBNEW (6.0.0)) date 2021-12-30 22:01:47*
%MOMM*%
%LPD*%
G01*
G04 APERTURE LIST*
G04 #@! TA.AperFunction,ComponentPad*
%ADD10R,1.600000X1.600000*%
G04 #@! TD*
G04 #@! TA.AperFunction,ComponentPad*
%ADD11C,1.600000*%
G04 #@! TD*
G04 #@! TA.AperFunction,ComponentPad*
%ADD12O,1.600000X1.600000*%
G04 #@! TD*
G04 #@! TA.AperFunction,ComponentPad*
%ADD13R,2.000000X2.000000*%
G04 #@! TD*
G04 #@! TA.AperFunction,ComponentPad*
%ADD14C,2.000000*%
G04 #@! TD*
G04 #@! TA.AperFunction,ViaPad*
%ADD15C,0.800000*%
G04 #@! TD*
G04 #@! TA.AperFunction,Conductor*
%ADD16C,0.250000*%
G04 #@! TD*
G04 #@! TA.AperFunction,Conductor*
%ADD17C,0.254000*%
G04 #@! TD*
G04 APERTURE END LIST*
D10*
G04 #@! TO.P,U1,1*
G04 #@! TO.N,Net-(U1-Pad1)*
X91260000Y-72550000D03*
D11*
G04 #@! TO.P,U1,2*
G04 #@! TO.N,Net-(U1-Pad2)*
X91260000Y-75090000D03*
G04 #@! TO.P,U1,3*
G04 #@! TO.N,Net-(U1-Pad3)*
X91260000Y-77630000D03*
G04 #@! TO.P,U1,4*
G04 #@! TO.N,Net-(U1-Pad4)*
X91260000Y-80170000D03*
G04 #@! TO.P,U1,5*
G04 #@! TO.N,ButtonR*
X91260000Y-82710000D03*
G04 #@! TO.P,U1,6*
G04 #@! TO.N,Net-(U1-Pad6)*
X91260000Y-85250000D03*
G04 #@! TO.P,U1,7*
G04 #@! TO.N,Net-(U1-Pad7)*
X91260000Y-87790000D03*
G04 #@! TO.P,U1,8*
G04 #@! TO.N,C6*
X91260000Y-90330000D03*
G04 #@! TO.P,U1,9*
G04 #@! TO.N,D7*
X91260000Y-92870000D03*
G04 #@! TO.P,U1,10*
G04 #@! TO.N,DIN*
X91260000Y-95410000D03*
G04 #@! TO.P,U1,11*
G04 #@! TO.N,Net-(U1-Pad11)*
X91260000Y-97950000D03*
G04 #@! TO.P,U1,12*
G04 #@! TO.N,Net-(U1-Pad12)*
X91260000Y-100490000D03*
G04 #@! TO.P,U1,13*
G04 #@! TO.N,Net-(U1-Pad13)*
X106500000Y-100490000D03*
G04 #@! TO.P,U1,14*
G04 #@! TO.N,Net-(U1-Pad14)*
X106500000Y-97950000D03*
G04 #@! TO.P,U1,15*
G04 #@! TO.N,Net-(U1-Pad15)*
X106500000Y-95410000D03*
G04 #@! TO.P,U1,16*
G04 #@! TO.N,Net-(U1-Pad16)*
X106500000Y-92870000D03*
G04 #@! TO.P,U1,17*
G04 #@! TO.N,Net-(U1-Pad17)*
X106500000Y-90330000D03*
G04 #@! TO.P,U1,18*
G04 #@! TO.N,Net-(U1-Pad18)*
X106500000Y-87790000D03*
G04 #@! TO.P,U1,19*
G04 #@! TO.N,Net-(U1-Pad19)*
X106500000Y-85250000D03*
G04 #@! TO.P,U1,20*
G04 #@! TO.N,Net-(U1-Pad20)*
X106500000Y-82710000D03*
G04 #@! TO.P,U1,21*
G04 #@! TO.N,VCC*
X106500000Y-80170000D03*
G04 #@! TO.P,U1,22*
G04 #@! TO.N,Net-(U1-Pad22)*
X106500000Y-77630000D03*
G04 #@! TO.P,U1,23*
G04 #@! TO.N,GND*
X106500000Y-75090000D03*
G04 #@! TO.P,U1,24*
G04 #@! TO.N,Net-(U1-Pad24)*
X106500000Y-72550000D03*
G04 #@! TD*
G04 #@! TO.P,R1,1*
G04 #@! TO.N,ButtonR*
X104040000Y-83830000D03*
D12*
G04 #@! TO.P,R1,2*
G04 #@! TO.N,VCC*
X93880000Y-83830000D03*
G04 #@! TD*
D13*
G04 #@! TO.P,SW1,A*
G04 #@! TO.N,D7*
X96430000Y-101730000D03*
D14*
G04 #@! TO.P,SW1,B*
G04 #@! TO.N,C6*
X101430000Y-101730000D03*
G04 #@! TO.P,SW1,C*
G04 #@! TO.N,GND*
X98930000Y-101730000D03*
G04 #@! TO.P,SW1,S1*
X96430000Y-87230000D03*
G04 #@! TO.P,SW1,S2*
G04 #@! TO.N,ButtonR*
X101430000Y-87230000D03*
G04 #@! TD*
D15*
G04 #@! TO.N,VCC*
X93730000Y-74370000D03*
G04 #@! TO.N,GND*
X120350000Y-97770000D03*
X79460000Y-81160000D03*
G04 #@! TO.N,Net-(D14-Pad2)*
X85300000Y-107220000D03*
X82890000Y-112690000D03*
G04 #@! TD*
D16*
G04 #@! TO.N,VCC*
X93880000Y-83830000D02*
X93880000Y-81940000D01*
X95650000Y-80170000D02*
X106500000Y-80170000D01*
X95650000Y-76290000D02*
X93730000Y-74370000D01*
X95650000Y-80170000D02*
X95650000Y-76290000D01*
X93880000Y-81940000D02*
X95650000Y-80170000D01*
G04 #@! TO.N,C6*
X96560000Y-90330000D02*
X91040000Y-90330000D01*
X101430000Y-95200000D02*
X96560000Y-90330000D01*
X101430000Y-101730000D02*
X101430000Y-95200000D01*
G04 #@! TO.N,Net-(D14-Pad2)*
X85300000Y-107220000D02*
X85300000Y-107220000D01*
X82890000Y-111410000D02*
X85300000Y-109000000D01*
X85300000Y-109000000D02*
X85300000Y-107220000D01*
X82890000Y-112690000D02*
X82890000Y-111410000D01*
G04 #@! TD*
G04 #@! TO.N,GND*
D17*
X114254242Y-68784949D02*
X115560921Y-69013001D01*
X116832734Y-69389730D01*
X118052824Y-69910142D01*
X119205003Y-70567333D01*
X120274021Y-71352603D01*
X121245692Y-72255536D01*
X122107142Y-73264165D01*
X122846958Y-74365127D01*
X123455327Y-75543818D01*
X123924191Y-76784629D01*
X124247332Y-78071108D01*
X124421121Y-79391165D01*
X124452201Y-80238782D01*
X124452200Y-108216232D01*
X124375051Y-109554242D01*
X124146999Y-110860923D01*
X123770270Y-112132734D01*
X123249857Y-113352827D01*
X122592667Y-114505003D01*
X121807396Y-115574021D01*
X120904464Y-116545693D01*
X119895835Y-117407142D01*
X118794869Y-118146960D01*
X117616178Y-118755329D01*
X116375374Y-119224190D01*
X115088893Y-119547331D01*
X113768835Y-119721121D01*
X112921246Y-119752200D01*
X84943768Y-119752200D01*
X83605758Y-119675051D01*
X82299077Y-119446999D01*
X81027266Y-119070270D01*
X79807173Y-118549857D01*
X78654997Y-117892667D01*
X77585979Y-117107396D01*
X76614307Y-116204464D01*
X75752858Y-115195835D01*
X75201418Y-114375204D01*
X76582200Y-114375204D01*
X76582200Y-114764796D01*
X76658205Y-115146903D01*
X76807296Y-115506840D01*
X77023742Y-115830774D01*
X77299226Y-116106258D01*
X77623160Y-116322704D01*
X77983097Y-116471795D01*
X78365204Y-116547800D01*
X78754796Y-116547800D01*
X79136903Y-116471795D01*
X79496840Y-116322704D01*
X79820774Y-116106258D01*
X80096258Y-115830774D01*
X80312704Y-115506840D01*
X80461795Y-115146903D01*
X80537800Y-114764796D01*
X80537800Y-114375204D01*
X80531833Y-114345204D01*
X117302200Y-114345204D01*
X117302200Y-114734796D01*
X117378205Y-115116903D01*
X117527296Y-115476840D01*
X117743742Y-115800774D01*
X118019226Y-116076258D01*
X118343160Y-116292704D01*
X118703097Y-116441795D01*
X119085204Y-116517800D01*
X119474796Y-116517800D01*
X119856903Y-116441795D01*
X120216840Y-116292704D01*
X120540774Y-116076258D01*
X120816258Y-115800774D01*
X121032704Y-115476840D01*
X121181795Y-115116903D01*
X121257800Y-114734796D01*
X121257800Y-114345204D01*
X121181795Y-113963097D01*
X121032704Y-113603160D01*
X120816258Y-113279226D01*
X120540774Y-113003742D01*
X120216840Y-112787296D01*
X119856903Y-112638205D01*
X119474796Y-112562200D01*
X119085204Y-112562200D01*
X118703097Y-112638205D01*
X118343160Y-112787296D01*
X118019226Y-113003742D01*
X117743742Y-113279226D01*
X117527296Y-113603160D01*
X117378205Y-113963097D01*
X117302200Y-114345204D01*
X80531833Y-114345204D01*
X80461795Y-113993097D01*
X80312704Y-113633160D01*
X80096258Y-113309226D01*
X79820774Y-113033742D01*
X79496840Y-112817296D01*
X79136903Y-112668205D01*
X78861342Y-112613393D01*
X82112200Y-112613393D01*
X82112200Y-112766607D01*
X82142091Y-112916876D01*
X82200723Y-113058426D01*
X82285844Y-113185818D01*
X82394182Y-113294156D01*
X82521574Y-113379277D01*
X82663124Y-113437909D01*
X82813393Y-113467800D01*
X82966607Y-113467800D01*
X83116876Y-113437909D01*
X83258426Y-113379277D01*
X83385818Y-113294156D01*
X83494156Y-113185818D01*
X83579277Y-113058426D01*
X83637909Y-112916876D01*
X83667800Y-112766607D01*
X83667800Y-112613393D01*
X83637909Y-112463124D01*
X83579277Y-112321574D01*
X83494156Y-112194182D01*
X83392800Y-112092826D01*
X83392800Y-111618266D01*
X85638075Y-109372992D01*
X85657253Y-109357253D01*
X85674002Y-109336845D01*
X85720085Y-109280692D01*
X85766774Y-109193344D01*
X85795524Y-109098566D01*
X85805232Y-109000000D01*
X85802800Y-108975308D01*
X85802800Y-107817174D01*
X85904156Y-107715818D01*
X85989277Y-107588426D01*
X86047909Y-107446876D01*
X86077800Y-107296607D01*
X86077800Y-107143393D01*
X86047909Y-106993124D01*
X85989277Y-106851574D01*
X85904156Y-106724182D01*
X85795818Y-106615844D01*
X85668426Y-106530723D01*
X85526876Y-106472091D01*
X85376607Y-106442200D01*
X85223393Y-106442200D01*
X85073124Y-106472091D01*
X84931574Y-106530723D01*
X84804182Y-106615844D01*
X84695844Y-106724182D01*
X84610723Y-106851574D01*
X84552091Y-106993124D01*
X84522200Y-107143393D01*
X84522200Y-107296607D01*
X84552091Y-107446876D01*
X84610723Y-107588426D01*
X84695844Y-107715818D01*
X84797201Y-107817175D01*
X84797200Y-108791733D01*
X82551926Y-111037008D01*
X82532748Y-111052747D01*
X82517009Y-111071925D01*
X82517007Y-111071927D01*
X82469915Y-111129309D01*
X82423227Y-111216656D01*
X82394476Y-111311435D01*
X82384768Y-111410000D01*
X82387201Y-111434702D01*
X82387200Y-112092826D01*
X82285844Y-112194182D01*
X82200723Y-112321574D01*
X82142091Y-112463124D01*
X82112200Y-112613393D01*
X78861342Y-112613393D01*
X78754796Y-112592200D01*
X78365204Y-112592200D01*
X77983097Y-112668205D01*
X77623160Y-112817296D01*
X77299226Y-113033742D01*
X77023742Y-113309226D01*
X76807296Y-113633160D01*
X76658205Y-113993097D01*
X76582200Y-114375204D01*
X75201418Y-114375204D01*
X75013040Y-114094869D01*
X74404671Y-112916178D01*
X73935810Y-111675374D01*
X73612669Y-110388893D01*
X73438879Y-109068835D01*
X73407800Y-108221246D01*
X73407800Y-100373997D01*
X90082200Y-100373997D01*
X90082200Y-100606003D01*
X90127462Y-100833552D01*
X90216247Y-101047898D01*
X90345143Y-101240804D01*
X90509196Y-101404857D01*
X90702102Y-101533753D01*
X90916448Y-101622538D01*
X91143997Y-101667800D01*
X91376003Y-101667800D01*
X91603552Y-101622538D01*
X91817898Y-101533753D01*
X92010804Y-101404857D01*
X92174857Y-101240804D01*
X92303753Y-101047898D01*
X92392538Y-100833552D01*
X92413135Y-100730000D01*
X95050372Y-100730000D01*
X95050372Y-102730000D01*
X95057666Y-102804062D01*
X95079269Y-102875277D01*
X95114351Y-102940910D01*
X95161562Y-102998438D01*
X95219090Y-103045649D01*
X95284723Y-103080731D01*
X95355938Y-103102334D01*
X95430000Y-103109628D01*
X97430000Y-103109628D01*
X97504062Y-103102334D01*
X97575277Y-103080731D01*
X97640910Y-103045649D01*
X97698438Y-102998438D01*
X97745649Y-102940910D01*
X97770973Y-102893532D01*
X98032473Y-103155032D01*
X98177975Y-103009530D01*
X98291302Y-103243678D01*
X98598877Y-103339197D01*
X98919178Y-103372875D01*
X99239895Y-103343418D01*
X99548703Y-103251960D01*
X99568698Y-103243678D01*
X99682026Y-103009527D01*
X98930000Y-102257502D01*
X98915858Y-102271644D01*
X98388356Y-101744142D01*
X98402498Y-101730000D01*
X98388356Y-101715858D01*
X98915858Y-101188356D01*
X98930000Y-101202498D01*
X99682026Y-100450473D01*
X99568698Y-100216322D01*
X99261123Y-100120803D01*
X98940822Y-100087125D01*
X98620105Y-100116582D01*
X98311297Y-100208040D01*
X98291302Y-100216322D01*
X98177975Y-100450470D01*
X98032473Y-100304968D01*
X97770973Y-100566468D01*
X97745649Y-100519090D01*
X97698438Y-100461562D01*
X97640910Y-100414351D01*
X97575277Y-100379269D01*
X97504062Y-100357666D01*
X97430000Y-100350372D01*
X95430000Y-100350372D01*
X95355938Y-100357666D01*
X95284723Y-100379269D01*
X95219090Y-100414351D01*
X95161562Y-100461562D01*
X95114351Y-100519090D01*
X95079269Y-100584723D01*
X95057666Y-100655938D01*
X95050372Y-100730000D01*
X92413135Y-100730000D01*
X92437800Y-100606003D01*
X92437800Y-100373997D01*
X92392538Y-100146448D01*
X92303753Y-99932102D01*
X92174857Y-99739196D01*
X92010804Y-99575143D01*
X91817898Y-99446247D01*
X91603552Y-99357462D01*
X91376003Y-99312200D01*
X91143997Y-99312200D01*
X90916448Y-99357462D01*
X90702102Y-99446247D01*
X90509196Y-99575143D01*
X90345143Y-99739196D01*
X90216247Y-99932102D01*
X90127462Y-100146448D01*
X90082200Y-100373997D01*
X73407800Y-100373997D01*
X73407800Y-97833997D01*
X90082200Y-97833997D01*
X90082200Y-98066003D01*
X90127462Y-98293552D01*
X90216247Y-98507898D01*
X90345143Y-98700804D01*
X90509196Y-98864857D01*
X90702102Y-98993753D01*
X90916448Y-99082538D01*
X91143997Y-99127800D01*
X91376003Y-99127800D01*
X91603552Y-99082538D01*
X91817898Y-98993753D01*
X92010804Y-98864857D01*
X92174857Y-98700804D01*
X92303753Y-98507898D01*
X92392538Y-98293552D01*
X92437800Y-98066003D01*
X92437800Y-97833997D01*
X92392538Y-97606448D01*
X92303753Y-97392102D01*
X92174857Y-97199196D01*
X92010804Y-97035143D01*
X91817898Y-96906247D01*
X91603552Y-96817462D01*
X91376003Y-96772200D01*
X91143997Y-96772200D01*
X90916448Y-96817462D01*
X90702102Y-96906247D01*
X90509196Y-97035143D01*
X90345143Y-97199196D01*
X90216247Y-97392102D01*
X90127462Y-97606448D01*
X90082200Y-97833997D01*
X73407800Y-97833997D01*
X73407800Y-95293997D01*
X90082200Y-95293997D01*
X90082200Y-95526003D01*
X90127462Y-95753552D01*
X90216247Y-95967898D01*
X90345143Y-96160804D01*
X90509196Y-96324857D01*
X90702102Y-96453753D01*
X90916448Y-96542538D01*
X91143997Y-96587800D01*
X91376003Y-96587800D01*
X91603552Y-96542538D01*
X91817898Y-96453753D01*
X92010804Y-96324857D01*
X92174857Y-96160804D01*
X92303753Y-95967898D01*
X92392538Y-95753552D01*
X92437800Y-95526003D01*
X92437800Y-95293997D01*
X92392538Y-95066448D01*
X92303753Y-94852102D01*
X92174857Y-94659196D01*
X92010804Y-94495143D01*
X91817898Y-94366247D01*
X91603552Y-94277462D01*
X91376003Y-94232200D01*
X91143997Y-94232200D01*
X90916448Y-94277462D01*
X90702102Y-94366247D01*
X90509196Y-94495143D01*
X90345143Y-94659196D01*
X90216247Y-94852102D01*
X90127462Y-95066448D01*
X90082200Y-95293997D01*
X73407800Y-95293997D01*
X73407800Y-92753997D01*
X90082200Y-92753997D01*
X90082200Y-92986003D01*
X90127462Y-93213552D01*
X90216247Y-93427898D01*
X90345143Y-93620804D01*
X90509196Y-93784857D01*
X90702102Y-93913753D01*
X90916448Y-94002538D01*
X91143997Y-94047800D01*
X91376003Y-94047800D01*
X91603552Y-94002538D01*
X91817898Y-93913753D01*
X92010804Y-93784857D01*
X92174857Y-93620804D01*
X92303753Y-93427898D01*
X92392538Y-93213552D01*
X92437800Y-92986003D01*
X92437800Y-92753997D01*
X92392538Y-92526448D01*
X92303753Y-92312102D01*
X92174857Y-92119196D01*
X92010804Y-91955143D01*
X91817898Y-91826247D01*
X91603552Y-91737462D01*
X91376003Y-91692200D01*
X91143997Y-91692200D01*
X90916448Y-91737462D01*
X90702102Y-91826247D01*
X90509196Y-91955143D01*
X90345143Y-92119196D01*
X90216247Y-92312102D01*
X90127462Y-92526448D01*
X90082200Y-92753997D01*
X73407800Y-92753997D01*
X73407800Y-90213997D01*
X90082200Y-90213997D01*
X90082200Y-90446003D01*
X90127462Y-90673552D01*
X90216247Y-90887898D01*
X90345143Y-91080804D01*
X90509196Y-91244857D01*
X90702102Y-91373753D01*
X90916448Y-91462538D01*
X91143997Y-91507800D01*
X91376003Y-91507800D01*
X91603552Y-91462538D01*
X91817898Y-91373753D01*
X92010804Y-91244857D01*
X92174857Y-91080804D01*
X92303753Y-90887898D01*
X92326575Y-90832800D01*
X96351734Y-90832800D01*
X100927201Y-95408268D01*
X100927200Y-100446946D01*
X100777367Y-100509009D01*
X100551703Y-100659793D01*
X100359793Y-100851703D01*
X100259319Y-101002073D01*
X100209527Y-100977974D01*
X99457502Y-101730000D01*
X100209527Y-102482026D01*
X100259319Y-102457927D01*
X100359793Y-102608297D01*
X100551703Y-102800207D01*
X100777367Y-102950991D01*
X101028110Y-103054852D01*
X101294299Y-103107800D01*
X101565701Y-103107800D01*
X101831890Y-103054852D01*
X102082633Y-102950991D01*
X102308297Y-102800207D01*
X102500207Y-102608297D01*
X102650991Y-102382633D01*
X102754852Y-102131890D01*
X102807800Y-101865701D01*
X102807800Y-101594299D01*
X102754852Y-101328110D01*
X102650991Y-101077367D01*
X102500207Y-100851703D01*
X102308297Y-100659793D01*
X102082633Y-100509009D01*
X101932800Y-100446946D01*
X101932800Y-100373997D01*
X105322200Y-100373997D01*
X105322200Y-100606003D01*
X105367462Y-100833552D01*
X105456247Y-101047898D01*
X105585143Y-101240804D01*
X105749196Y-101404857D01*
X105942102Y-101533753D01*
X106156448Y-101622538D01*
X106383997Y-101667800D01*
X106616003Y-101667800D01*
X106843552Y-101622538D01*
X107057898Y-101533753D01*
X107250804Y-101404857D01*
X107414857Y-101240804D01*
X107543753Y-101047898D01*
X107632538Y-100833552D01*
X107677800Y-100606003D01*
X107677800Y-100373997D01*
X107632538Y-100146448D01*
X107543753Y-99932102D01*
X107414857Y-99739196D01*
X107250804Y-99575143D01*
X107057898Y-99446247D01*
X106843552Y-99357462D01*
X106616003Y-99312200D01*
X106383997Y-99312200D01*
X106156448Y-99357462D01*
X105942102Y-99446247D01*
X105749196Y-99575143D01*
X105585143Y-99739196D01*
X105456247Y-99932102D01*
X105367462Y-100146448D01*
X105322200Y-100373997D01*
X101932800Y-100373997D01*
X101932800Y-97833997D01*
X105322200Y-97833997D01*
X105322200Y-98066003D01*
X105367462Y-98293552D01*
X105456247Y-98507898D01*
X105585143Y-98700804D01*
X105749196Y-98864857D01*
X105942102Y-98993753D01*
X106156448Y-99082538D01*
X106383997Y-99127800D01*
X106616003Y-99127800D01*
X106843552Y-99082538D01*
X107057898Y-98993753D01*
X107250804Y-98864857D01*
X107414857Y-98700804D01*
X107543753Y-98507898D01*
X107632538Y-98293552D01*
X107677800Y-98066003D01*
X107677800Y-97833997D01*
X107632538Y-97606448D01*
X107543753Y-97392102D01*
X107414857Y-97199196D01*
X107250804Y-97035143D01*
X107057898Y-96906247D01*
X106843552Y-96817462D01*
X106616003Y-96772200D01*
X106383997Y-96772200D01*
X106156448Y-96817462D01*
X105942102Y-96906247D01*
X105749196Y-97035143D01*
X105585143Y-97199196D01*
X105456247Y-97392102D01*
X105367462Y-97606448D01*
X105322200Y-97833997D01*
X101932800Y-97833997D01*
X101932800Y-95293997D01*
X105322200Y-95293997D01*
X105322200Y-95526003D01*
X105367462Y-95753552D01*
X105456247Y-95967898D01*
X105585143Y-96160804D01*
X105749196Y-96324857D01*
X105942102Y-96453753D01*
X106156448Y-96542538D01*
X106383997Y-96587800D01*
X106616003Y-96587800D01*
X106843552Y-96542538D01*
X107057898Y-96453753D01*
X107250804Y-96324857D01*
X107414857Y-96160804D01*
X107543753Y-95967898D01*
X107632538Y-95753552D01*
X107677800Y-95526003D01*
X107677800Y-95293997D01*
X107632538Y-95066448D01*
X107543753Y-94852102D01*
X107414857Y-94659196D01*
X107250804Y-94495143D01*
X107057898Y-94366247D01*
X106843552Y-94277462D01*
X106616003Y-94232200D01*
X106383997Y-94232200D01*
X106156448Y-94277462D01*
X105942102Y-94366247D01*
X105749196Y-94495143D01*
X105585143Y-94659196D01*
X105456247Y-94852102D01*
X105367462Y-95066448D01*
X105322200Y-95293997D01*
X101932800Y-95293997D01*
X101932800Y-95224691D01*
X101935232Y-95199999D01*
X101925524Y-95101434D01*
X101914911Y-95066448D01*
X101896774Y-95006656D01*
X101850085Y-94919308D01*
X101787253Y-94842747D01*
X101768075Y-94827008D01*
X99695064Y-92753997D01*
X105322200Y-92753997D01*
X105322200Y-92986003D01*
X105367462Y-93213552D01*
X105456247Y-93427898D01*
X105585143Y-93620804D01*
X105749196Y-93784857D01*
X105942102Y-93913753D01*
X106156448Y-94002538D01*
X106383997Y-94047800D01*
X106616003Y-94047800D01*
X106843552Y-94002538D01*
X107057898Y-93913753D01*
X107250804Y-93784857D01*
X107414857Y-93620804D01*
X107543753Y-93427898D01*
X107632538Y-93213552D01*
X107677800Y-92986003D01*
X107677800Y-92753997D01*
X107632538Y-92526448D01*
X107543753Y-92312102D01*
X107414857Y-92119196D01*
X107250804Y-91955143D01*
X107057898Y-91826247D01*
X106843552Y-91737462D01*
X106616003Y-91692200D01*
X106383997Y-91692200D01*
X106156448Y-91737462D01*
X105942102Y-91826247D01*
X105749196Y-91955143D01*
X105585143Y-92119196D01*
X105456247Y-92312102D01*
X105367462Y-92526448D01*
X105322200Y-92753997D01*
X99695064Y-92753997D01*
X97155064Y-90213997D01*
X105322200Y-90213997D01*
X105322200Y-90446003D01*
X105367462Y-90673552D01*
X105456247Y-90887898D01*
X105585143Y-91080804D01*
X105749196Y-91244857D01*
X105942102Y-91373753D01*
X106156448Y-91462538D01*
X106383997Y-91507800D01*
X106616003Y-91507800D01*
X106843552Y-91462538D01*
X107057898Y-91373753D01*
X107250804Y-91244857D01*
X107414857Y-91080804D01*
X107543753Y-90887898D01*
X107632538Y-90673552D01*
X107677800Y-90446003D01*
X107677800Y-90213997D01*
X107632538Y-89986448D01*
X107543753Y-89772102D01*
X107414857Y-89579196D01*
X107250804Y-89415143D01*
X107057898Y-89286247D01*
X106843552Y-89197462D01*
X106616003Y-89152200D01*
X106383997Y-89152200D01*
X106156448Y-89197462D01*
X105942102Y-89286247D01*
X105749196Y-89415143D01*
X105585143Y-89579196D01*
X105456247Y-89772102D01*
X105367462Y-89986448D01*
X105322200Y-90213997D01*
X97155064Y-90213997D01*
X96932996Y-89991930D01*
X96917253Y-89972747D01*
X96840692Y-89909915D01*
X96753344Y-89863226D01*
X96658566Y-89834476D01*
X96584692Y-89827200D01*
X96560000Y-89824768D01*
X96535308Y-89827200D01*
X92326575Y-89827200D01*
X92303753Y-89772102D01*
X92174857Y-89579196D01*
X92010804Y-89415143D01*
X91817898Y-89286247D01*
X91603552Y-89197462D01*
X91376003Y-89152200D01*
X91143997Y-89152200D01*
X90916448Y-89197462D01*
X90702102Y-89286247D01*
X90509196Y-89415143D01*
X90345143Y-89579196D01*
X90216247Y-89772102D01*
X90127462Y-89986448D01*
X90082200Y-90213997D01*
X73407800Y-90213997D01*
X73407800Y-87673997D01*
X90082200Y-87673997D01*
X90082200Y-87906003D01*
X90127462Y-88133552D01*
X90216247Y-88347898D01*
X90345143Y-88540804D01*
X90509196Y-88704857D01*
X90702102Y-88833753D01*
X90916448Y-88922538D01*
X91143997Y-88967800D01*
X91376003Y-88967800D01*
X91603552Y-88922538D01*
X91817898Y-88833753D01*
X92010804Y-88704857D01*
X92174857Y-88540804D01*
X92195755Y-88509527D01*
X95677974Y-88509527D01*
X95791302Y-88743678D01*
X96098877Y-88839197D01*
X96419178Y-88872875D01*
X96739895Y-88843418D01*
X97048703Y-88751960D01*
X97068698Y-88743678D01*
X97182026Y-88509527D01*
X96430000Y-87757502D01*
X95677974Y-88509527D01*
X92195755Y-88509527D01*
X92303753Y-88347898D01*
X92392538Y-88133552D01*
X92437800Y-87906003D01*
X92437800Y-87673997D01*
X92392538Y-87446448D01*
X92303753Y-87232102D01*
X92295118Y-87219178D01*
X94787125Y-87219178D01*
X94816582Y-87539895D01*
X94908040Y-87848703D01*
X94916322Y-87868698D01*
X95150473Y-87982026D01*
X95902498Y-87230000D01*
X96957502Y-87230000D01*
X97709527Y-87982026D01*
X97943678Y-87868698D01*
X98039197Y-87561123D01*
X98072875Y-87240822D01*
X98059418Y-87094299D01*
X100052200Y-87094299D01*
X100052200Y-87365701D01*
X100105148Y-87631890D01*
X100209009Y-87882633D01*
X100359793Y-88108297D01*
X100551703Y-88300207D01*
X100777367Y-88450991D01*
X101028110Y-88554852D01*
X101294299Y-88607800D01*
X101565701Y-88607800D01*
X101831890Y-88554852D01*
X102082633Y-88450991D01*
X102308297Y-88300207D01*
X102500207Y-88108297D01*
X102650991Y-87882633D01*
X102737410Y-87673997D01*
X105322200Y-87673997D01*
X105322200Y-87906003D01*
X105367462Y-88133552D01*
X105456247Y-88347898D01*
X105585143Y-88540804D01*
X105749196Y-88704857D01*
X105942102Y-88833753D01*
X106156448Y-88922538D01*
X106383997Y-88967800D01*
X106616003Y-88967800D01*
X106843552Y-88922538D01*
X107057898Y-88833753D01*
X107250804Y-88704857D01*
X107414857Y-88540804D01*
X107543753Y-88347898D01*
X107632538Y-88133552D01*
X107677800Y-87906003D01*
X107677800Y-87673997D01*
X107632538Y-87446448D01*
X107543753Y-87232102D01*
X107414857Y-87039196D01*
X107250804Y-86875143D01*
X107057898Y-86746247D01*
X106843552Y-86657462D01*
X106616003Y-86612200D01*
X106383997Y-86612200D01*
X106156448Y-86657462D01*
X105942102Y-86746247D01*
X105749196Y-86875143D01*
X105585143Y-87039196D01*
X105456247Y-87232102D01*
X105367462Y-87446448D01*
X105322200Y-87673997D01*
X102737410Y-87673997D01*
X102754852Y-87631890D01*
X102807800Y-87365701D01*
X102807800Y-87094299D01*
X102754852Y-86828110D01*
X102650991Y-86577367D01*
X102500207Y-86351703D01*
X102308297Y-86159793D01*
X102082633Y-86009009D01*
X101831890Y-85905148D01*
X101565701Y-85852200D01*
X101294299Y-85852200D01*
X101028110Y-85905148D01*
X100777367Y-86009009D01*
X100551703Y-86159793D01*
X100359793Y-86351703D01*
X100209009Y-86577367D01*
X100105148Y-86828110D01*
X100052200Y-87094299D01*
X98059418Y-87094299D01*
X98043418Y-86920105D01*
X97951960Y-86611297D01*
X97943678Y-86591302D01*
X97709527Y-86477974D01*
X96957502Y-87230000D01*
X95902498Y-87230000D01*
X95150473Y-86477974D01*
X94916322Y-86591302D01*
X94820803Y-86898877D01*
X94787125Y-87219178D01*
X92295118Y-87219178D01*
X92174857Y-87039196D01*
X92010804Y-86875143D01*
X91817898Y-86746247D01*
X91603552Y-86657462D01*
X91376003Y-86612200D01*
X91143997Y-86612200D01*
X90916448Y-86657462D01*
X90702102Y-86746247D01*
X90509196Y-86875143D01*
X90345143Y-87039196D01*
X90216247Y-87232102D01*
X90127462Y-87446448D01*
X90082200Y-87673997D01*
X73407800Y-87673997D01*
X73407800Y-85133997D01*
X90082200Y-85133997D01*
X90082200Y-85366003D01*
X90127462Y-85593552D01*
X90216247Y-85807898D01*
X90345143Y-86000804D01*
X90509196Y-86164857D01*
X90702102Y-86293753D01*
X90916448Y-86382538D01*
X91143997Y-86427800D01*
X91376003Y-86427800D01*
X91603552Y-86382538D01*
X91817898Y-86293753D01*
X92010804Y-86164857D01*
X92174857Y-86000804D01*
X92208487Y-85950473D01*
X95677974Y-85950473D01*
X96430000Y-86702498D01*
X97182026Y-85950473D01*
X97068698Y-85716322D01*
X96761123Y-85620803D01*
X96440822Y-85587125D01*
X96120105Y-85616582D01*
X95811297Y-85708040D01*
X95791302Y-85716322D01*
X95677974Y-85950473D01*
X92208487Y-85950473D01*
X92303753Y-85807898D01*
X92392538Y-85593552D01*
X92437800Y-85366003D01*
X92437800Y-85133997D01*
X105322200Y-85133997D01*
X105322200Y-85366003D01*
X105367462Y-85593552D01*
X105456247Y-85807898D01*
X105585143Y-86000804D01*
X105749196Y-86164857D01*
X105942102Y-86293753D01*
X106156448Y-86382538D01*
X106383997Y-86427800D01*
X106616003Y-86427800D01*
X106843552Y-86382538D01*
X107057898Y-86293753D01*
X107250804Y-86164857D01*
X107414857Y-86000804D01*
X107543753Y-85807898D01*
X107632538Y-85593552D01*
X107677800Y-85366003D01*
X107677800Y-85133997D01*
X107632538Y-84906448D01*
X107543753Y-84692102D01*
X107414857Y-84499196D01*
X107250804Y-84335143D01*
X107057898Y-84206247D01*
X106843552Y-84117462D01*
X106616003Y-84072200D01*
X106383997Y-84072200D01*
X106156448Y-84117462D01*
X105942102Y-84206247D01*
X105749196Y-84335143D01*
X105585143Y-84499196D01*
X105456247Y-84692102D01*
X105367462Y-84906448D01*
X105322200Y-85133997D01*
X92437800Y-85133997D01*
X92392538Y-84906448D01*
X92303753Y-84692102D01*
X92174857Y-84499196D01*
X92010804Y-84335143D01*
X91817898Y-84206247D01*
X91603552Y-84117462D01*
X91376003Y-84072200D01*
X91143997Y-84072200D01*
X90916448Y-84117462D01*
X90702102Y-84206247D01*
X90509196Y-84335143D01*
X90345143Y-84499196D01*
X90216247Y-84692102D01*
X90127462Y-84906448D01*
X90082200Y-85133997D01*
X73407800Y-85133997D01*
X73407800Y-82593997D01*
X90082200Y-82593997D01*
X90082200Y-82826003D01*
X90127462Y-83053552D01*
X90216247Y-83267898D01*
X90345143Y-83460804D01*
X90509196Y-83624857D01*
X90702102Y-83753753D01*
X90916448Y-83842538D01*
X91143997Y-83887800D01*
X91376003Y-83887800D01*
X91603552Y-83842538D01*
X91817898Y-83753753D01*
X91877396Y-83713997D01*
X92702200Y-83713997D01*
X92702200Y-83946003D01*
X92747462Y-84173552D01*
X92836247Y-84387898D01*
X92965143Y-84580804D01*
X93129196Y-84744857D01*
X93322102Y-84873753D01*
X93536448Y-84962538D01*
X93763997Y-85007800D01*
X93996003Y-85007800D01*
X94223552Y-84962538D01*
X94437898Y-84873753D01*
X94630804Y-84744857D01*
X94794857Y-84580804D01*
X94923753Y-84387898D01*
X95012538Y-84173552D01*
X95057800Y-83946003D01*
X95057800Y-83713997D01*
X102862200Y-83713997D01*
X102862200Y-83946003D01*
X102907462Y-84173552D01*
X102996247Y-84387898D01*
X103125143Y-84580804D01*
X103289196Y-84744857D01*
X103482102Y-84873753D01*
X103696448Y-84962538D01*
X103923997Y-85007800D01*
X104156003Y-85007800D01*
X104383552Y-84962538D01*
X104597898Y-84873753D01*
X104790804Y-84744857D01*
X104954857Y-84580804D01*
X105083753Y-84387898D01*
X105172538Y-84173552D01*
X105217800Y-83946003D01*
X105217800Y-83713997D01*
X105172538Y-83486448D01*
X105083753Y-83272102D01*
X104954857Y-83079196D01*
X104790804Y-82915143D01*
X104597898Y-82786247D01*
X104383552Y-82697462D01*
X104156003Y-82652200D01*
X103923997Y-82652200D01*
X103696448Y-82697462D01*
X103482102Y-82786247D01*
X103289196Y-82915143D01*
X103125143Y-83079196D01*
X102996247Y-83272102D01*
X102907462Y-83486448D01*
X102862200Y-83713997D01*
X95057800Y-83713997D01*
X95012538Y-83486448D01*
X94923753Y-83272102D01*
X94794857Y-83079196D01*
X94630804Y-82915143D01*
X94437898Y-82786247D01*
X94382800Y-82763425D01*
X94382800Y-82593997D01*
X105322200Y-82593997D01*
X105322200Y-82826003D01*
X105367462Y-83053552D01*
X105456247Y-83267898D01*
X105585143Y-83460804D01*
X105749196Y-83624857D01*
X105942102Y-83753753D01*
X106156448Y-83842538D01*
X106383997Y-83887800D01*
X106616003Y-83887800D01*
X106843552Y-83842538D01*
X107057898Y-83753753D01*
X107250804Y-83624857D01*
X107414857Y-83460804D01*
X107543753Y-83267898D01*
X107632538Y-83053552D01*
X107677800Y-82826003D01*
X107677800Y-82593997D01*
X107632538Y-82366448D01*
X107543753Y-82152102D01*
X107414857Y-81959196D01*
X107250804Y-81795143D01*
X107057898Y-81666247D01*
X106843552Y-81577462D01*
X106616003Y-81532200D01*
X106383997Y-81532200D01*
X106156448Y-81577462D01*
X105942102Y-81666247D01*
X105749196Y-81795143D01*
X105585143Y-81959196D01*
X105456247Y-82152102D01*
X105367462Y-82366448D01*
X105322200Y-82593997D01*
X94382800Y-82593997D01*
X94382800Y-82148266D01*
X95858267Y-80672800D01*
X105433425Y-80672800D01*
X105456247Y-80727898D01*
X105585143Y-80920804D01*
X105749196Y-81084857D01*
X105942102Y-81213753D01*
X106156448Y-81302538D01*
X106383997Y-81347800D01*
X106616003Y-81347800D01*
X106843552Y-81302538D01*
X107057898Y-81213753D01*
X107250804Y-81084857D01*
X107414857Y-80920804D01*
X107543753Y-80727898D01*
X107632538Y-80513552D01*
X107677800Y-80286003D01*
X107677800Y-80053997D01*
X107632538Y-79826448D01*
X107543753Y-79612102D01*
X107414857Y-79419196D01*
X107250804Y-79255143D01*
X107057898Y-79126247D01*
X106843552Y-79037462D01*
X106616003Y-78992200D01*
X106383997Y-78992200D01*
X106156448Y-79037462D01*
X105942102Y-79126247D01*
X105749196Y-79255143D01*
X105585143Y-79419196D01*
X105456247Y-79612102D01*
X105433425Y-79667200D01*
X96152800Y-79667200D01*
X96152800Y-77513997D01*
X105322200Y-77513997D01*
X105322200Y-77746003D01*
X105367462Y-77973552D01*
X105456247Y-78187898D01*
X105585143Y-78380804D01*
X105749196Y-78544857D01*
X105942102Y-78673753D01*
X106156448Y-78762538D01*
X106383997Y-78807800D01*
X106616003Y-78807800D01*
X106843552Y-78762538D01*
X107057898Y-78673753D01*
X107250804Y-78544857D01*
X107414857Y-78380804D01*
X107543753Y-78187898D01*
X107632538Y-77973552D01*
X107677800Y-77746003D01*
X107677800Y-77513997D01*
X107632538Y-77286448D01*
X107543753Y-77072102D01*
X107414857Y-76879196D01*
X107250804Y-76715143D01*
X107057898Y-76586247D01*
X106843552Y-76497462D01*
X106826091Y-76493989D01*
X107016941Y-76436094D01*
X107104424Y-76221926D01*
X106500000Y-75617502D01*
X105895576Y-76221926D01*
X105983059Y-76436094D01*
X106185269Y-76491729D01*
X106156448Y-76497462D01*
X105942102Y-76586247D01*
X105749196Y-76715143D01*
X105585143Y-76879196D01*
X105456247Y-77072102D01*
X105367462Y-77286448D01*
X105322200Y-77513997D01*
X96152800Y-77513997D01*
X96152800Y-76314691D01*
X96155232Y-76289999D01*
X96145524Y-76191434D01*
X96128027Y-76133753D01*
X96116774Y-76096656D01*
X96070085Y-76009308D01*
X96044134Y-75977687D01*
X96022993Y-75951926D01*
X96022992Y-75951925D01*
X96007253Y-75932747D01*
X95988075Y-75917008D01*
X95198604Y-75127537D01*
X105058546Y-75127537D01*
X105093566Y-75408030D01*
X105153906Y-75606941D01*
X105368074Y-75694424D01*
X105972498Y-75090000D01*
X107027502Y-75090000D01*
X107631926Y-75694424D01*
X107846094Y-75606941D01*
X107921080Y-75334398D01*
X107941454Y-75052463D01*
X107906434Y-74771970D01*
X107846094Y-74573059D01*
X107631926Y-74485576D01*
X107027502Y-75090000D01*
X105972498Y-75090000D01*
X105368074Y-74485576D01*
X105153906Y-74573059D01*
X105078920Y-74845602D01*
X105058546Y-75127537D01*
X95198604Y-75127537D01*
X94507800Y-74436734D01*
X94507800Y-74293393D01*
X94477909Y-74143124D01*
X94419277Y-74001574D01*
X94334156Y-73874182D01*
X94225818Y-73765844D01*
X94098426Y-73680723D01*
X93956876Y-73622091D01*
X93806607Y-73592200D01*
X93653393Y-73592200D01*
X93503124Y-73622091D01*
X93361574Y-73680723D01*
X93234182Y-73765844D01*
X93125844Y-73874182D01*
X93040723Y-74001574D01*
X92982091Y-74143124D01*
X92952200Y-74293393D01*
X92952200Y-74446607D01*
X92982091Y-74596876D01*
X93040723Y-74738426D01*
X93125844Y-74865818D01*
X93234182Y-74974156D01*
X93361574Y-75059277D01*
X93503124Y-75117909D01*
X93653393Y-75147800D01*
X93796734Y-75147800D01*
X95147201Y-76498268D01*
X95147200Y-79961733D01*
X93541926Y-81567008D01*
X93522748Y-81582747D01*
X93507009Y-81601925D01*
X93507007Y-81601927D01*
X93459915Y-81659309D01*
X93413227Y-81746656D01*
X93384476Y-81841435D01*
X93374768Y-81940000D01*
X93377201Y-81964702D01*
X93377201Y-82763424D01*
X93322102Y-82786247D01*
X93129196Y-82915143D01*
X92965143Y-83079196D01*
X92836247Y-83272102D01*
X92747462Y-83486448D01*
X92702200Y-83713997D01*
X91877396Y-83713997D01*
X92010804Y-83624857D01*
X92174857Y-83460804D01*
X92303753Y-83267898D01*
X92392538Y-83053552D01*
X92437800Y-82826003D01*
X92437800Y-82593997D01*
X92392538Y-82366448D01*
X92303753Y-82152102D01*
X92174857Y-81959196D01*
X92010804Y-81795143D01*
X91817898Y-81666247D01*
X91603552Y-81577462D01*
X91376003Y-81532200D01*
X91143997Y-81532200D01*
X90916448Y-81577462D01*
X90702102Y-81666247D01*
X90509196Y-81795143D01*
X90345143Y-81959196D01*
X90216247Y-82152102D01*
X90127462Y-82366448D01*
X90082200Y-82593997D01*
X73407800Y-82593997D01*
X73407800Y-80243768D01*
X73418742Y-80053997D01*
X90082200Y-80053997D01*
X90082200Y-80286003D01*
X90127462Y-80513552D01*
X90216247Y-80727898D01*
X90345143Y-80920804D01*
X90509196Y-81084857D01*
X90702102Y-81213753D01*
X90916448Y-81302538D01*
X91143997Y-81347800D01*
X91376003Y-81347800D01*
X91603552Y-81302538D01*
X91817898Y-81213753D01*
X92010804Y-81084857D01*
X92174857Y-80920804D01*
X92303753Y-80727898D01*
X92392538Y-80513552D01*
X92437800Y-80286003D01*
X92437800Y-80053997D01*
X92392538Y-79826448D01*
X92303753Y-79612102D01*
X92174857Y-79419196D01*
X92010804Y-79255143D01*
X91817898Y-79126247D01*
X91603552Y-79037462D01*
X91376003Y-78992200D01*
X91143997Y-78992200D01*
X90916448Y-79037462D01*
X90702102Y-79126247D01*
X90509196Y-79255143D01*
X90345143Y-79419196D01*
X90216247Y-79612102D01*
X90127462Y-79826448D01*
X90082200Y-80053997D01*
X73418742Y-80053997D01*
X73484949Y-78905758D01*
X73713001Y-77599079D01*
X73738203Y-77513997D01*
X90082200Y-77513997D01*
X90082200Y-77746003D01*
X90127462Y-77973552D01*
X90216247Y-78187898D01*
X90345143Y-78380804D01*
X90509196Y-78544857D01*
X90702102Y-78673753D01*
X90916448Y-78762538D01*
X91143997Y-78807800D01*
X91376003Y-78807800D01*
X91603552Y-78762538D01*
X91817898Y-78673753D01*
X92010804Y-78544857D01*
X92174857Y-78380804D01*
X92303753Y-78187898D01*
X92392538Y-77973552D01*
X92437800Y-77746003D01*
X92437800Y-77513997D01*
X92392538Y-77286448D01*
X92303753Y-77072102D01*
X92174857Y-76879196D01*
X92010804Y-76715143D01*
X91817898Y-76586247D01*
X91603552Y-76497462D01*
X91376003Y-76452200D01*
X91143997Y-76452200D01*
X90916448Y-76497462D01*
X90702102Y-76586247D01*
X90509196Y-76715143D01*
X90345143Y-76879196D01*
X90216247Y-77072102D01*
X90127462Y-77286448D01*
X90082200Y-77513997D01*
X73738203Y-77513997D01*
X74089730Y-76327266D01*
X74610142Y-75107176D01*
X75267333Y-73954997D01*
X75502243Y-73635204D01*
X76582200Y-73635204D01*
X76582200Y-74024796D01*
X76658205Y-74406903D01*
X76807296Y-74766840D01*
X77023742Y-75090774D01*
X77299226Y-75366258D01*
X77623160Y-75582704D01*
X77983097Y-75731795D01*
X78365204Y-75807800D01*
X78754796Y-75807800D01*
X79136903Y-75731795D01*
X79496840Y-75582704D01*
X79820774Y-75366258D01*
X80096258Y-75090774D01*
X80174285Y-74973997D01*
X90082200Y-74973997D01*
X90082200Y-75206003D01*
X90127462Y-75433552D01*
X90216247Y-75647898D01*
X90345143Y-75840804D01*
X90509196Y-76004857D01*
X90702102Y-76133753D01*
X90916448Y-76222538D01*
X91143997Y-76267800D01*
X91376003Y-76267800D01*
X91603552Y-76222538D01*
X91817898Y-76133753D01*
X92010804Y-76004857D01*
X92174857Y-75840804D01*
X92303753Y-75647898D01*
X92392538Y-75433552D01*
X92437800Y-75206003D01*
X92437800Y-74973997D01*
X92392538Y-74746448D01*
X92303753Y-74532102D01*
X92174857Y-74339196D01*
X92010804Y-74175143D01*
X91817898Y-74046247D01*
X91603552Y-73957462D01*
X91376003Y-73912200D01*
X91143997Y-73912200D01*
X90916448Y-73957462D01*
X90702102Y-74046247D01*
X90509196Y-74175143D01*
X90345143Y-74339196D01*
X90216247Y-74532102D01*
X90127462Y-74746448D01*
X90082200Y-74973997D01*
X80174285Y-74973997D01*
X80312704Y-74766840D01*
X80461795Y-74406903D01*
X80537800Y-74024796D01*
X80537800Y-73635204D01*
X80461795Y-73253097D01*
X80312704Y-72893160D01*
X80096258Y-72569226D01*
X79820774Y-72293742D01*
X79496840Y-72077296D01*
X79136903Y-71928205D01*
X78754796Y-71852200D01*
X78365204Y-71852200D01*
X77983097Y-71928205D01*
X77623160Y-72077296D01*
X77299226Y-72293742D01*
X77023742Y-72569226D01*
X76807296Y-72893160D01*
X76658205Y-73253097D01*
X76582200Y-73635204D01*
X75502243Y-73635204D01*
X76052603Y-72885979D01*
X76955536Y-71914308D01*
X77147916Y-71750000D01*
X90080372Y-71750000D01*
X90080372Y-73350000D01*
X90087666Y-73424062D01*
X90109269Y-73495277D01*
X90144351Y-73560910D01*
X90191562Y-73618438D01*
X90249090Y-73665649D01*
X90314723Y-73700731D01*
X90385938Y-73722334D01*
X90460000Y-73729628D01*
X92060000Y-73729628D01*
X92134062Y-73722334D01*
X92205277Y-73700731D01*
X92270910Y-73665649D01*
X92328438Y-73618438D01*
X92375649Y-73560910D01*
X92410731Y-73495277D01*
X92432334Y-73424062D01*
X92439628Y-73350000D01*
X92439628Y-72433997D01*
X105322200Y-72433997D01*
X105322200Y-72666003D01*
X105367462Y-72893552D01*
X105456247Y-73107898D01*
X105585143Y-73300804D01*
X105749196Y-73464857D01*
X105942102Y-73593753D01*
X106156448Y-73682538D01*
X106173909Y-73686011D01*
X105983059Y-73743906D01*
X105895576Y-73958074D01*
X106500000Y-74562498D01*
X107104424Y-73958074D01*
X107016941Y-73743906D01*
X106814731Y-73688271D01*
X106843552Y-73682538D01*
X106957826Y-73635204D01*
X117302200Y-73635204D01*
X117302200Y-74024796D01*
X117378205Y-74406903D01*
X117527296Y-74766840D01*
X117743742Y-75090774D01*
X118019226Y-75366258D01*
X118343160Y-75582704D01*
X118703097Y-75731795D01*
X119085204Y-75807800D01*
X119474796Y-75807800D01*
X119856903Y-75731795D01*
X120216840Y-75582704D01*
X120540774Y-75366258D01*
X120816258Y-75090774D01*
X121032704Y-74766840D01*
X121181795Y-74406903D01*
X121257800Y-74024796D01*
X121257800Y-73635204D01*
X121181795Y-73253097D01*
X121032704Y-72893160D01*
X120816258Y-72569226D01*
X120540774Y-72293742D01*
X120216840Y-72077296D01*
X119856903Y-71928205D01*
X119474796Y-71852200D01*
X119085204Y-71852200D01*
X118703097Y-71928205D01*
X118343160Y-72077296D01*
X118019226Y-72293742D01*
X117743742Y-72569226D01*
X117527296Y-72893160D01*
X117378205Y-73253097D01*
X117302200Y-73635204D01*
X106957826Y-73635204D01*
X107057898Y-73593753D01*
X107250804Y-73464857D01*
X107414857Y-73300804D01*
X107543753Y-73107898D01*
X107632538Y-72893552D01*
X107677800Y-72666003D01*
X107677800Y-72433997D01*
X107632538Y-72206448D01*
X107543753Y-71992102D01*
X107414857Y-71799196D01*
X107250804Y-71635143D01*
X107057898Y-71506247D01*
X106843552Y-71417462D01*
X106616003Y-71372200D01*
X106383997Y-71372200D01*
X106156448Y-71417462D01*
X105942102Y-71506247D01*
X105749196Y-71635143D01*
X105585143Y-71799196D01*
X105456247Y-71992102D01*
X105367462Y-72206448D01*
X105322200Y-72433997D01*
X92439628Y-72433997D01*
X92439628Y-71750000D01*
X92432334Y-71675938D01*
X92410731Y-71604723D01*
X92375649Y-71539090D01*
X92328438Y-71481562D01*
X92270910Y-71434351D01*
X92205277Y-71399269D01*
X92134062Y-71377666D01*
X92060000Y-71370372D01*
X90460000Y-71370372D01*
X90385938Y-71377666D01*
X90314723Y-71399269D01*
X90249090Y-71434351D01*
X90191562Y-71481562D01*
X90144351Y-71539090D01*
X90109269Y-71604723D01*
X90087666Y-71675938D01*
X90080372Y-71750000D01*
X77147916Y-71750000D01*
X77964165Y-71052858D01*
X79065127Y-70313042D01*
X80243818Y-69704673D01*
X81484629Y-69235809D01*
X82771108Y-68912668D01*
X84091165Y-68738879D01*
X84938755Y-68707800D01*
X112916232Y-68707800D01*
X114254242Y-68784949D02*
X112916232Y-68707800D01*
G04 #@! TA.AperFunction,Conductor*
G36*
X114254242Y-68784949D02*
G01*
X115560921Y-69013001D01*
X116832734Y-69389730D01*
X118052824Y-69910142D01*
X119205003Y-70567333D01*
X120274021Y-71352603D01*
X121245692Y-72255536D01*
X122107142Y-73264165D01*
X122846958Y-74365127D01*
X123455327Y-75543818D01*
X123924191Y-76784629D01*
X124247332Y-78071108D01*
X124421121Y-79391165D01*
X124452201Y-80238782D01*
X124452200Y-108216232D01*
X124375051Y-109554242D01*
X124146999Y-110860923D01*
X123770270Y-112132734D01*
X123249857Y-113352827D01*
X122592667Y-114505003D01*
X121807396Y-115574021D01*
X120904464Y-116545693D01*
X119895835Y-117407142D01*
X118794869Y-118146960D01*
X117616178Y-118755329D01*
X116375374Y-119224190D01*
X115088893Y-119547331D01*
X113768835Y-119721121D01*
X112921246Y-119752200D01*
X84943768Y-119752200D01*
X83605758Y-119675051D01*
X82299077Y-119446999D01*
X81027266Y-119070270D01*
X79807173Y-118549857D01*
X78654997Y-117892667D01*
X77585979Y-117107396D01*
X76614307Y-116204464D01*
X75752858Y-115195835D01*
X75201418Y-114375204D01*
X76582200Y-114375204D01*
X76582200Y-114764796D01*
X76658205Y-115146903D01*
X76807296Y-115506840D01*
X77023742Y-115830774D01*
X77299226Y-116106258D01*
X77623160Y-116322704D01*
X77983097Y-116471795D01*
X78365204Y-116547800D01*
X78754796Y-116547800D01*
X79136903Y-116471795D01*
X79496840Y-116322704D01*
X79820774Y-116106258D01*
X80096258Y-115830774D01*
X80312704Y-115506840D01*
X80461795Y-115146903D01*
X80537800Y-114764796D01*
X80537800Y-114375204D01*
X80531833Y-114345204D01*
X117302200Y-114345204D01*
X117302200Y-114734796D01*
X117378205Y-115116903D01*
X117527296Y-115476840D01*
X117743742Y-115800774D01*
X118019226Y-116076258D01*
X118343160Y-116292704D01*
X118703097Y-116441795D01*
X119085204Y-116517800D01*
X119474796Y-116517800D01*
X119856903Y-116441795D01*
X120216840Y-116292704D01*
X120540774Y-116076258D01*
X120816258Y-115800774D01*
X121032704Y-115476840D01*
X121181795Y-115116903D01*
X121257800Y-114734796D01*
X121257800Y-114345204D01*
X121181795Y-113963097D01*
X121032704Y-113603160D01*
X120816258Y-113279226D01*
X120540774Y-113003742D01*
X120216840Y-112787296D01*
X119856903Y-112638205D01*
X119474796Y-112562200D01*
X119085204Y-112562200D01*
X118703097Y-112638205D01*
X118343160Y-112787296D01*
X118019226Y-113003742D01*
X117743742Y-113279226D01*
X117527296Y-113603160D01*
X117378205Y-113963097D01*
X117302200Y-114345204D01*
X80531833Y-114345204D01*
X80461795Y-113993097D01*
X80312704Y-113633160D01*
X80096258Y-113309226D01*
X79820774Y-113033742D01*
X79496840Y-112817296D01*
X79136903Y-112668205D01*
X78861342Y-112613393D01*
X82112200Y-112613393D01*
X82112200Y-112766607D01*
X82142091Y-112916876D01*
X82200723Y-113058426D01*
X82285844Y-113185818D01*
X82394182Y-113294156D01*
X82521574Y-113379277D01*
X82663124Y-113437909D01*
X82813393Y-113467800D01*
X82966607Y-113467800D01*
X83116876Y-113437909D01*
X83258426Y-113379277D01*
X83385818Y-113294156D01*
X83494156Y-113185818D01*
X83579277Y-113058426D01*
X83637909Y-112916876D01*
X83667800Y-112766607D01*
X83667800Y-112613393D01*
X83637909Y-112463124D01*
X83579277Y-112321574D01*
X83494156Y-112194182D01*
X83392800Y-112092826D01*
X83392800Y-111618266D01*
X85638075Y-109372992D01*
X85657253Y-109357253D01*
X85674002Y-109336845D01*
X85720085Y-109280692D01*
X85766774Y-109193344D01*
X85795524Y-109098566D01*
X85805232Y-109000000D01*
X85802800Y-108975308D01*
X85802800Y-107817174D01*
X85904156Y-107715818D01*
X85989277Y-107588426D01*
X86047909Y-107446876D01*
X86077800Y-107296607D01*
X86077800Y-107143393D01*
X86047909Y-106993124D01*
X85989277Y-106851574D01*
X85904156Y-106724182D01*
X85795818Y-106615844D01*
X85668426Y-106530723D01*
X85526876Y-106472091D01*
X85376607Y-106442200D01*
X85223393Y-106442200D01*
X85073124Y-106472091D01*
X84931574Y-106530723D01*
X84804182Y-106615844D01*
X84695844Y-106724182D01*
X84610723Y-106851574D01*
X84552091Y-106993124D01*
X84522200Y-107143393D01*
X84522200Y-107296607D01*
X84552091Y-107446876D01*
X84610723Y-107588426D01*
X84695844Y-107715818D01*
X84797201Y-107817175D01*
X84797200Y-108791733D01*
X82551926Y-111037008D01*
X82532748Y-111052747D01*
X82517009Y-111071925D01*
X82517007Y-111071927D01*
X82469915Y-111129309D01*
X82423227Y-111216656D01*
X82394476Y-111311435D01*
X82384768Y-111410000D01*
X82387201Y-111434702D01*
X82387200Y-112092826D01*
X82285844Y-112194182D01*
X82200723Y-112321574D01*
X82142091Y-112463124D01*
X82112200Y-112613393D01*
X78861342Y-112613393D01*
X78754796Y-112592200D01*
X78365204Y-112592200D01*
X77983097Y-112668205D01*
X77623160Y-112817296D01*
X77299226Y-113033742D01*
X77023742Y-113309226D01*
X76807296Y-113633160D01*
X76658205Y-113993097D01*
X76582200Y-114375204D01*
X75201418Y-114375204D01*
X75013040Y-114094869D01*
X74404671Y-112916178D01*
X73935810Y-111675374D01*
X73612669Y-110388893D01*
X73438879Y-109068835D01*
X73407800Y-108221246D01*
X73407800Y-100373997D01*
X90082200Y-100373997D01*
X90082200Y-100606003D01*
X90127462Y-100833552D01*
X90216247Y-101047898D01*
X90345143Y-101240804D01*
X90509196Y-101404857D01*
X90702102Y-101533753D01*
X90916448Y-101622538D01*
X91143997Y-101667800D01*
X91376003Y-101667800D01*
X91603552Y-101622538D01*
X91817898Y-101533753D01*
X92010804Y-101404857D01*
X92174857Y-101240804D01*
X92303753Y-101047898D01*
X92392538Y-100833552D01*
X92413135Y-100730000D01*
X95050372Y-100730000D01*
X95050372Y-102730000D01*
X95057666Y-102804062D01*
X95079269Y-102875277D01*
X95114351Y-102940910D01*
X95161562Y-102998438D01*
X95219090Y-103045649D01*
X95284723Y-103080731D01*
X95355938Y-103102334D01*
X95430000Y-103109628D01*
X97430000Y-103109628D01*
X97504062Y-103102334D01*
X97575277Y-103080731D01*
X97640910Y-103045649D01*
X97698438Y-102998438D01*
X97745649Y-102940910D01*
X97770973Y-102893532D01*
X98032473Y-103155032D01*
X98177975Y-103009530D01*
X98291302Y-103243678D01*
X98598877Y-103339197D01*
X98919178Y-103372875D01*
X99239895Y-103343418D01*
X99548703Y-103251960D01*
X99568698Y-103243678D01*
X99682026Y-103009527D01*
X98930000Y-102257502D01*
X98915858Y-102271644D01*
X98388356Y-101744142D01*
X98402498Y-101730000D01*
X98388356Y-101715858D01*
X98915858Y-101188356D01*
X98930000Y-101202498D01*
X99682026Y-100450473D01*
X99568698Y-100216322D01*
X99261123Y-100120803D01*
X98940822Y-100087125D01*
X98620105Y-100116582D01*
X98311297Y-100208040D01*
X98291302Y-100216322D01*
X98177975Y-100450470D01*
X98032473Y-100304968D01*
X97770973Y-100566468D01*
X97745649Y-100519090D01*
X97698438Y-100461562D01*
X97640910Y-100414351D01*
X97575277Y-100379269D01*
X97504062Y-100357666D01*
X97430000Y-100350372D01*
X95430000Y-100350372D01*
X95355938Y-100357666D01*
X95284723Y-100379269D01*
X95219090Y-100414351D01*
X95161562Y-100461562D01*
X95114351Y-100519090D01*
X95079269Y-100584723D01*
X95057666Y-100655938D01*
X95050372Y-100730000D01*
X92413135Y-100730000D01*
X92437800Y-100606003D01*
X92437800Y-100373997D01*
X92392538Y-100146448D01*
X92303753Y-99932102D01*
X92174857Y-99739196D01*
X92010804Y-99575143D01*
X91817898Y-99446247D01*
X91603552Y-99357462D01*
X91376003Y-99312200D01*
X91143997Y-99312200D01*
X90916448Y-99357462D01*
X90702102Y-99446247D01*
X90509196Y-99575143D01*
X90345143Y-99739196D01*
X90216247Y-99932102D01*
X90127462Y-100146448D01*
X90082200Y-100373997D01*
X73407800Y-100373997D01*
X73407800Y-97833997D01*
X90082200Y-97833997D01*
X90082200Y-98066003D01*
X90127462Y-98293552D01*
X90216247Y-98507898D01*
X90345143Y-98700804D01*
X90509196Y-98864857D01*
X90702102Y-98993753D01*
X90916448Y-99082538D01*
X91143997Y-99127800D01*
X91376003Y-99127800D01*
X91603552Y-99082538D01*
X91817898Y-98993753D01*
X92010804Y-98864857D01*
X92174857Y-98700804D01*
X92303753Y-98507898D01*
X92392538Y-98293552D01*
X92437800Y-98066003D01*
X92437800Y-97833997D01*
X92392538Y-97606448D01*
X92303753Y-97392102D01*
X92174857Y-97199196D01*
X92010804Y-97035143D01*
X91817898Y-96906247D01*
X91603552Y-96817462D01*
X91376003Y-96772200D01*
X91143997Y-96772200D01*
X90916448Y-96817462D01*
X90702102Y-96906247D01*
X90509196Y-97035143D01*
X90345143Y-97199196D01*
X90216247Y-97392102D01*
X90127462Y-97606448D01*
X90082200Y-97833997D01*
X73407800Y-97833997D01*
X73407800Y-95293997D01*
X90082200Y-95293997D01*
X90082200Y-95526003D01*
X90127462Y-95753552D01*
X90216247Y-95967898D01*
X90345143Y-96160804D01*
X90509196Y-96324857D01*
X90702102Y-96453753D01*
X90916448Y-96542538D01*
X91143997Y-96587800D01*
X91376003Y-96587800D01*
X91603552Y-96542538D01*
X91817898Y-96453753D01*
X92010804Y-96324857D01*
X92174857Y-96160804D01*
X92303753Y-95967898D01*
X92392538Y-95753552D01*
X92437800Y-95526003D01*
X92437800Y-95293997D01*
X92392538Y-95066448D01*
X92303753Y-94852102D01*
X92174857Y-94659196D01*
X92010804Y-94495143D01*
X91817898Y-94366247D01*
X91603552Y-94277462D01*
X91376003Y-94232200D01*
X91143997Y-94232200D01*
X90916448Y-94277462D01*
X90702102Y-94366247D01*
X90509196Y-94495143D01*
X90345143Y-94659196D01*
X90216247Y-94852102D01*
X90127462Y-95066448D01*
X90082200Y-95293997D01*
X73407800Y-95293997D01*
X73407800Y-92753997D01*
X90082200Y-92753997D01*
X90082200Y-92986003D01*
X90127462Y-93213552D01*
X90216247Y-93427898D01*
X90345143Y-93620804D01*
X90509196Y-93784857D01*
X90702102Y-93913753D01*
X90916448Y-94002538D01*
X91143997Y-94047800D01*
X91376003Y-94047800D01*
X91603552Y-94002538D01*
X91817898Y-93913753D01*
X92010804Y-93784857D01*
X92174857Y-93620804D01*
X92303753Y-93427898D01*
X92392538Y-93213552D01*
X92437800Y-92986003D01*
X92437800Y-92753997D01*
X92392538Y-92526448D01*
X92303753Y-92312102D01*
X92174857Y-92119196D01*
X92010804Y-91955143D01*
X91817898Y-91826247D01*
X91603552Y-91737462D01*
X91376003Y-91692200D01*
X91143997Y-91692200D01*
X90916448Y-91737462D01*
X90702102Y-91826247D01*
X90509196Y-91955143D01*
X90345143Y-92119196D01*
X90216247Y-92312102D01*
X90127462Y-92526448D01*
X90082200Y-92753997D01*
X73407800Y-92753997D01*
X73407800Y-90213997D01*
X90082200Y-90213997D01*
X90082200Y-90446003D01*
X90127462Y-90673552D01*
X90216247Y-90887898D01*
X90345143Y-91080804D01*
X90509196Y-91244857D01*
X90702102Y-91373753D01*
X90916448Y-91462538D01*
X91143997Y-91507800D01*
X91376003Y-91507800D01*
X91603552Y-91462538D01*
X91817898Y-91373753D01*
X92010804Y-91244857D01*
X92174857Y-91080804D01*
X92303753Y-90887898D01*
X92326575Y-90832800D01*
X96351734Y-90832800D01*
X100927201Y-95408268D01*
X100927200Y-100446946D01*
X100777367Y-100509009D01*
X100551703Y-100659793D01*
X100359793Y-100851703D01*
X100259319Y-101002073D01*
X100209527Y-100977974D01*
X99457502Y-101730000D01*
X100209527Y-102482026D01*
X100259319Y-102457927D01*
X100359793Y-102608297D01*
X100551703Y-102800207D01*
X100777367Y-102950991D01*
X101028110Y-103054852D01*
X101294299Y-103107800D01*
X101565701Y-103107800D01*
X101831890Y-103054852D01*
X102082633Y-102950991D01*
X102308297Y-102800207D01*
X102500207Y-102608297D01*
X102650991Y-102382633D01*
X102754852Y-102131890D01*
X102807800Y-101865701D01*
X102807800Y-101594299D01*
X102754852Y-101328110D01*
X102650991Y-101077367D01*
X102500207Y-100851703D01*
X102308297Y-100659793D01*
X102082633Y-100509009D01*
X101932800Y-100446946D01*
X101932800Y-100373997D01*
X105322200Y-100373997D01*
X105322200Y-100606003D01*
X105367462Y-100833552D01*
X105456247Y-101047898D01*
X105585143Y-101240804D01*
X105749196Y-101404857D01*
X105942102Y-101533753D01*
X106156448Y-101622538D01*
X106383997Y-101667800D01*
X106616003Y-101667800D01*
X106843552Y-101622538D01*
X107057898Y-101533753D01*
X107250804Y-101404857D01*
X107414857Y-101240804D01*
X107543753Y-101047898D01*
X107632538Y-100833552D01*
X107677800Y-100606003D01*
X107677800Y-100373997D01*
X107632538Y-100146448D01*
X107543753Y-99932102D01*
X107414857Y-99739196D01*
X107250804Y-99575143D01*
X107057898Y-99446247D01*
X106843552Y-99357462D01*
X106616003Y-99312200D01*
X106383997Y-99312200D01*
X106156448Y-99357462D01*
X105942102Y-99446247D01*
X105749196Y-99575143D01*
X105585143Y-99739196D01*
X105456247Y-99932102D01*
X105367462Y-100146448D01*
X105322200Y-100373997D01*
X101932800Y-100373997D01*
X101932800Y-97833997D01*
X105322200Y-97833997D01*
X105322200Y-98066003D01*
X105367462Y-98293552D01*
X105456247Y-98507898D01*
X105585143Y-98700804D01*
X105749196Y-98864857D01*
X105942102Y-98993753D01*
X106156448Y-99082538D01*
X106383997Y-99127800D01*
X106616003Y-99127800D01*
X106843552Y-99082538D01*
X107057898Y-98993753D01*
X107250804Y-98864857D01*
X107414857Y-98700804D01*
X107543753Y-98507898D01*
X107632538Y-98293552D01*
X107677800Y-98066003D01*
X107677800Y-97833997D01*
X107632538Y-97606448D01*
X107543753Y-97392102D01*
X107414857Y-97199196D01*
X107250804Y-97035143D01*
X107057898Y-96906247D01*
X106843552Y-96817462D01*
X106616003Y-96772200D01*
X106383997Y-96772200D01*
X106156448Y-96817462D01*
X105942102Y-96906247D01*
X105749196Y-97035143D01*
X105585143Y-97199196D01*
X105456247Y-97392102D01*
X105367462Y-97606448D01*
X105322200Y-97833997D01*
X101932800Y-97833997D01*
X101932800Y-95293997D01*
X105322200Y-95293997D01*
X105322200Y-95526003D01*
X105367462Y-95753552D01*
X105456247Y-95967898D01*
X105585143Y-96160804D01*
X105749196Y-96324857D01*
X105942102Y-96453753D01*
X106156448Y-96542538D01*
X106383997Y-96587800D01*
X106616003Y-96587800D01*
X106843552Y-96542538D01*
X107057898Y-96453753D01*
X107250804Y-96324857D01*
X107414857Y-96160804D01*
X107543753Y-95967898D01*
X107632538Y-95753552D01*
X107677800Y-95526003D01*
X107677800Y-95293997D01*
X107632538Y-95066448D01*
X107543753Y-94852102D01*
X107414857Y-94659196D01*
X107250804Y-94495143D01*
X107057898Y-94366247D01*
X106843552Y-94277462D01*
X106616003Y-94232200D01*
X106383997Y-94232200D01*
X106156448Y-94277462D01*
X105942102Y-94366247D01*
X105749196Y-94495143D01*
X105585143Y-94659196D01*
X105456247Y-94852102D01*
X105367462Y-95066448D01*
X105322200Y-95293997D01*
X101932800Y-95293997D01*
X101932800Y-95224691D01*
X101935232Y-95199999D01*
X101925524Y-95101434D01*
X101914911Y-95066448D01*
X101896774Y-95006656D01*
X101850085Y-94919308D01*
X101787253Y-94842747D01*
X101768075Y-94827008D01*
X99695064Y-92753997D01*
X105322200Y-92753997D01*
X105322200Y-92986003D01*
X105367462Y-93213552D01*
X105456247Y-93427898D01*
X105585143Y-93620804D01*
X105749196Y-93784857D01*
X105942102Y-93913753D01*
X106156448Y-94002538D01*
X106383997Y-94047800D01*
X106616003Y-94047800D01*
X106843552Y-94002538D01*
X107057898Y-93913753D01*
X107250804Y-93784857D01*
X107414857Y-93620804D01*
X107543753Y-93427898D01*
X107632538Y-93213552D01*
X107677800Y-92986003D01*
X107677800Y-92753997D01*
X107632538Y-92526448D01*
X107543753Y-92312102D01*
X107414857Y-92119196D01*
X107250804Y-91955143D01*
X107057898Y-91826247D01*
X106843552Y-91737462D01*
X106616003Y-91692200D01*
X106383997Y-91692200D01*
X106156448Y-91737462D01*
X105942102Y-91826247D01*
X105749196Y-91955143D01*
X105585143Y-92119196D01*
X105456247Y-92312102D01*
X105367462Y-92526448D01*
X105322200Y-92753997D01*
X99695064Y-92753997D01*
X97155064Y-90213997D01*
X105322200Y-90213997D01*
X105322200Y-90446003D01*
X105367462Y-90673552D01*
X105456247Y-90887898D01*
X105585143Y-91080804D01*
X105749196Y-91244857D01*
X105942102Y-91373753D01*
X106156448Y-91462538D01*
X106383997Y-91507800D01*
X106616003Y-91507800D01*
X106843552Y-91462538D01*
X107057898Y-91373753D01*
X107250804Y-91244857D01*
X107414857Y-91080804D01*
X107543753Y-90887898D01*
X107632538Y-90673552D01*
X107677800Y-90446003D01*
X107677800Y-90213997D01*
X107632538Y-89986448D01*
X107543753Y-89772102D01*
X107414857Y-89579196D01*
X107250804Y-89415143D01*
X107057898Y-89286247D01*
X106843552Y-89197462D01*
X106616003Y-89152200D01*
X106383997Y-89152200D01*
X106156448Y-89197462D01*
X105942102Y-89286247D01*
X105749196Y-89415143D01*
X105585143Y-89579196D01*
X105456247Y-89772102D01*
X105367462Y-89986448D01*
X105322200Y-90213997D01*
X97155064Y-90213997D01*
X96932996Y-89991930D01*
X96917253Y-89972747D01*
X96840692Y-89909915D01*
X96753344Y-89863226D01*
X96658566Y-89834476D01*
X96584692Y-89827200D01*
X96560000Y-89824768D01*
X96535308Y-89827200D01*
X92326575Y-89827200D01*
X92303753Y-89772102D01*
X92174857Y-89579196D01*
X92010804Y-89415143D01*
X91817898Y-89286247D01*
X91603552Y-89197462D01*
X91376003Y-89152200D01*
X91143997Y-89152200D01*
X90916448Y-89197462D01*
X90702102Y-89286247D01*
X90509196Y-89415143D01*
X90345143Y-89579196D01*
X90216247Y-89772102D01*
X90127462Y-89986448D01*
X90082200Y-90213997D01*
X73407800Y-90213997D01*
X73407800Y-87673997D01*
X90082200Y-87673997D01*
X90082200Y-87906003D01*
X90127462Y-88133552D01*
X90216247Y-88347898D01*
X90345143Y-88540804D01*
X90509196Y-88704857D01*
X90702102Y-88833753D01*
X90916448Y-88922538D01*
X91143997Y-88967800D01*
X91376003Y-88967800D01*
X91603552Y-88922538D01*
X91817898Y-88833753D01*
X92010804Y-88704857D01*
X92174857Y-88540804D01*
X92195755Y-88509527D01*
X95677974Y-88509527D01*
X95791302Y-88743678D01*
X96098877Y-88839197D01*
X96419178Y-88872875D01*
X96739895Y-88843418D01*
X97048703Y-88751960D01*
X97068698Y-88743678D01*
X97182026Y-88509527D01*
X96430000Y-87757502D01*
X95677974Y-88509527D01*
X92195755Y-88509527D01*
X92303753Y-88347898D01*
X92392538Y-88133552D01*
X92437800Y-87906003D01*
X92437800Y-87673997D01*
X92392538Y-87446448D01*
X92303753Y-87232102D01*
X92295118Y-87219178D01*
X94787125Y-87219178D01*
X94816582Y-87539895D01*
X94908040Y-87848703D01*
X94916322Y-87868698D01*
X95150473Y-87982026D01*
X95902498Y-87230000D01*
X96957502Y-87230000D01*
X97709527Y-87982026D01*
X97943678Y-87868698D01*
X98039197Y-87561123D01*
X98072875Y-87240822D01*
X98059418Y-87094299D01*
X100052200Y-87094299D01*
X100052200Y-87365701D01*
X100105148Y-87631890D01*
X100209009Y-87882633D01*
X100359793Y-88108297D01*
X100551703Y-88300207D01*
X100777367Y-88450991D01*
X101028110Y-88554852D01*
X101294299Y-88607800D01*
X101565701Y-88607800D01*
X101831890Y-88554852D01*
X102082633Y-88450991D01*
X102308297Y-88300207D01*
X102500207Y-88108297D01*
X102650991Y-87882633D01*
X102737410Y-87673997D01*
X105322200Y-87673997D01*
X105322200Y-87906003D01*
X105367462Y-88133552D01*
X105456247Y-88347898D01*
X105585143Y-88540804D01*
X105749196Y-88704857D01*
X105942102Y-88833753D01*
X106156448Y-88922538D01*
X106383997Y-88967800D01*
X106616003Y-88967800D01*
X106843552Y-88922538D01*
X107057898Y-88833753D01*
X107250804Y-88704857D01*
X107414857Y-88540804D01*
X107543753Y-88347898D01*
X107632538Y-88133552D01*
X107677800Y-87906003D01*
X107677800Y-87673997D01*
X107632538Y-87446448D01*
X107543753Y-87232102D01*
X107414857Y-87039196D01*
X107250804Y-86875143D01*
X107057898Y-86746247D01*
X106843552Y-86657462D01*
X106616003Y-86612200D01*
X106383997Y-86612200D01*
X106156448Y-86657462D01*
X105942102Y-86746247D01*
X105749196Y-86875143D01*
X105585143Y-87039196D01*
X105456247Y-87232102D01*
X105367462Y-87446448D01*
X105322200Y-87673997D01*
X102737410Y-87673997D01*
X102754852Y-87631890D01*
X102807800Y-87365701D01*
X102807800Y-87094299D01*
X102754852Y-86828110D01*
X102650991Y-86577367D01*
X102500207Y-86351703D01*
X102308297Y-86159793D01*
X102082633Y-86009009D01*
X101831890Y-85905148D01*
X101565701Y-85852200D01*
X101294299Y-85852200D01*
X101028110Y-85905148D01*
X100777367Y-86009009D01*
X100551703Y-86159793D01*
X100359793Y-86351703D01*
X100209009Y-86577367D01*
X100105148Y-86828110D01*
X100052200Y-87094299D01*
X98059418Y-87094299D01*
X98043418Y-86920105D01*
X97951960Y-86611297D01*
X97943678Y-86591302D01*
X97709527Y-86477974D01*
X96957502Y-87230000D01*
X95902498Y-87230000D01*
X95150473Y-86477974D01*
X94916322Y-86591302D01*
X94820803Y-86898877D01*
X94787125Y-87219178D01*
X92295118Y-87219178D01*
X92174857Y-87039196D01*
X92010804Y-86875143D01*
X91817898Y-86746247D01*
X91603552Y-86657462D01*
X91376003Y-86612200D01*
X91143997Y-86612200D01*
X90916448Y-86657462D01*
X90702102Y-86746247D01*
X90509196Y-86875143D01*
X90345143Y-87039196D01*
X90216247Y-87232102D01*
X90127462Y-87446448D01*
X90082200Y-87673997D01*
X73407800Y-87673997D01*
X73407800Y-85133997D01*
X90082200Y-85133997D01*
X90082200Y-85366003D01*
X90127462Y-85593552D01*
X90216247Y-85807898D01*
X90345143Y-86000804D01*
X90509196Y-86164857D01*
X90702102Y-86293753D01*
X90916448Y-86382538D01*
X91143997Y-86427800D01*
X91376003Y-86427800D01*
X91603552Y-86382538D01*
X91817898Y-86293753D01*
X92010804Y-86164857D01*
X92174857Y-86000804D01*
X92208487Y-85950473D01*
X95677974Y-85950473D01*
X96430000Y-86702498D01*
X97182026Y-85950473D01*
X97068698Y-85716322D01*
X96761123Y-85620803D01*
X96440822Y-85587125D01*
X96120105Y-85616582D01*
X95811297Y-85708040D01*
X95791302Y-85716322D01*
X95677974Y-85950473D01*
X92208487Y-85950473D01*
X92303753Y-85807898D01*
X92392538Y-85593552D01*
X92437800Y-85366003D01*
X92437800Y-85133997D01*
X105322200Y-85133997D01*
X105322200Y-85366003D01*
X105367462Y-85593552D01*
X105456247Y-85807898D01*
X105585143Y-86000804D01*
X105749196Y-86164857D01*
X105942102Y-86293753D01*
X106156448Y-86382538D01*
X106383997Y-86427800D01*
X106616003Y-86427800D01*
X106843552Y-86382538D01*
X107057898Y-86293753D01*
X107250804Y-86164857D01*
X107414857Y-86000804D01*
X107543753Y-85807898D01*
X107632538Y-85593552D01*
X107677800Y-85366003D01*
X107677800Y-85133997D01*
X107632538Y-84906448D01*
X107543753Y-84692102D01*
X107414857Y-84499196D01*
X107250804Y-84335143D01*
X107057898Y-84206247D01*
X106843552Y-84117462D01*
X106616003Y-84072200D01*
X106383997Y-84072200D01*
X106156448Y-84117462D01*
X105942102Y-84206247D01*
X105749196Y-84335143D01*
X105585143Y-84499196D01*
X105456247Y-84692102D01*
X105367462Y-84906448D01*
X105322200Y-85133997D01*
X92437800Y-85133997D01*
X92392538Y-84906448D01*
X92303753Y-84692102D01*
X92174857Y-84499196D01*
X92010804Y-84335143D01*
X91817898Y-84206247D01*
X91603552Y-84117462D01*
X91376003Y-84072200D01*
X91143997Y-84072200D01*
X90916448Y-84117462D01*
X90702102Y-84206247D01*
X90509196Y-84335143D01*
X90345143Y-84499196D01*
X90216247Y-84692102D01*
X90127462Y-84906448D01*
X90082200Y-85133997D01*
X73407800Y-85133997D01*
X73407800Y-82593997D01*
X90082200Y-82593997D01*
X90082200Y-82826003D01*
X90127462Y-83053552D01*
X90216247Y-83267898D01*
X90345143Y-83460804D01*
X90509196Y-83624857D01*
X90702102Y-83753753D01*
X90916448Y-83842538D01*
X91143997Y-83887800D01*
X91376003Y-83887800D01*
X91603552Y-83842538D01*
X91817898Y-83753753D01*
X91877396Y-83713997D01*
X92702200Y-83713997D01*
X92702200Y-83946003D01*
X92747462Y-84173552D01*
X92836247Y-84387898D01*
X92965143Y-84580804D01*
X93129196Y-84744857D01*
X93322102Y-84873753D01*
X93536448Y-84962538D01*
X93763997Y-85007800D01*
X93996003Y-85007800D01*
X94223552Y-84962538D01*
X94437898Y-84873753D01*
X94630804Y-84744857D01*
X94794857Y-84580804D01*
X94923753Y-84387898D01*
X95012538Y-84173552D01*
X95057800Y-83946003D01*
X95057800Y-83713997D01*
X102862200Y-83713997D01*
X102862200Y-83946003D01*
X102907462Y-84173552D01*
X102996247Y-84387898D01*
X103125143Y-84580804D01*
X103289196Y-84744857D01*
X103482102Y-84873753D01*
X103696448Y-84962538D01*
X103923997Y-85007800D01*
X104156003Y-85007800D01*
X104383552Y-84962538D01*
X104597898Y-84873753D01*
X104790804Y-84744857D01*
X104954857Y-84580804D01*
X105083753Y-84387898D01*
X105172538Y-84173552D01*
X105217800Y-83946003D01*
X105217800Y-83713997D01*
X105172538Y-83486448D01*
X105083753Y-83272102D01*
X104954857Y-83079196D01*
X104790804Y-82915143D01*
X104597898Y-82786247D01*
X104383552Y-82697462D01*
X104156003Y-82652200D01*
X103923997Y-82652200D01*
X103696448Y-82697462D01*
X103482102Y-82786247D01*
X103289196Y-82915143D01*
X103125143Y-83079196D01*
X102996247Y-83272102D01*
X102907462Y-83486448D01*
X102862200Y-83713997D01*
X95057800Y-83713997D01*
X95012538Y-83486448D01*
X94923753Y-83272102D01*
X94794857Y-83079196D01*
X94630804Y-82915143D01*
X94437898Y-82786247D01*
X94382800Y-82763425D01*
X94382800Y-82593997D01*
X105322200Y-82593997D01*
X105322200Y-82826003D01*
X105367462Y-83053552D01*
X105456247Y-83267898D01*
X105585143Y-83460804D01*
X105749196Y-83624857D01*
X105942102Y-83753753D01*
X106156448Y-83842538D01*
X106383997Y-83887800D01*
X106616003Y-83887800D01*
X106843552Y-83842538D01*
X107057898Y-83753753D01*
X107250804Y-83624857D01*
X107414857Y-83460804D01*
X107543753Y-83267898D01*
X107632538Y-83053552D01*
X107677800Y-82826003D01*
X107677800Y-82593997D01*
X107632538Y-82366448D01*
X107543753Y-82152102D01*
X107414857Y-81959196D01*
X107250804Y-81795143D01*
X107057898Y-81666247D01*
X106843552Y-81577462D01*
X106616003Y-81532200D01*
X106383997Y-81532200D01*
X106156448Y-81577462D01*
X105942102Y-81666247D01*
X105749196Y-81795143D01*
X105585143Y-81959196D01*
X105456247Y-82152102D01*
X105367462Y-82366448D01*
X105322200Y-82593997D01*
X94382800Y-82593997D01*
X94382800Y-82148266D01*
X95858267Y-80672800D01*
X105433425Y-80672800D01*
X105456247Y-80727898D01*
X105585143Y-80920804D01*
X105749196Y-81084857D01*
X105942102Y-81213753D01*
X106156448Y-81302538D01*
X106383997Y-81347800D01*
X106616003Y-81347800D01*
X106843552Y-81302538D01*
X107057898Y-81213753D01*
X107250804Y-81084857D01*
X107414857Y-80920804D01*
X107543753Y-80727898D01*
X107632538Y-80513552D01*
X107677800Y-80286003D01*
X107677800Y-80053997D01*
X107632538Y-79826448D01*
X107543753Y-79612102D01*
X107414857Y-79419196D01*
X107250804Y-79255143D01*
X107057898Y-79126247D01*
X106843552Y-79037462D01*
X106616003Y-78992200D01*
X106383997Y-78992200D01*
X106156448Y-79037462D01*
X105942102Y-79126247D01*
X105749196Y-79255143D01*
X105585143Y-79419196D01*
X105456247Y-79612102D01*
X105433425Y-79667200D01*
X96152800Y-79667200D01*
X96152800Y-77513997D01*
X105322200Y-77513997D01*
X105322200Y-77746003D01*
X105367462Y-77973552D01*
X105456247Y-78187898D01*
X105585143Y-78380804D01*
X105749196Y-78544857D01*
X105942102Y-78673753D01*
X106156448Y-78762538D01*
X106383997Y-78807800D01*
X106616003Y-78807800D01*
X106843552Y-78762538D01*
X107057898Y-78673753D01*
X107250804Y-78544857D01*
X107414857Y-78380804D01*
X107543753Y-78187898D01*
X107632538Y-77973552D01*
X107677800Y-77746003D01*
X107677800Y-77513997D01*
X107632538Y-77286448D01*
X107543753Y-77072102D01*
X107414857Y-76879196D01*
X107250804Y-76715143D01*
X107057898Y-76586247D01*
X106843552Y-76497462D01*
X106826091Y-76493989D01*
X107016941Y-76436094D01*
X107104424Y-76221926D01*
X106500000Y-75617502D01*
X105895576Y-76221926D01*
X105983059Y-76436094D01*
X106185269Y-76491729D01*
X106156448Y-76497462D01*
X105942102Y-76586247D01*
X105749196Y-76715143D01*
X105585143Y-76879196D01*
X105456247Y-77072102D01*
X105367462Y-77286448D01*
X105322200Y-77513997D01*
X96152800Y-77513997D01*
X96152800Y-76314691D01*
X96155232Y-76289999D01*
X96145524Y-76191434D01*
X96128027Y-76133753D01*
X96116774Y-76096656D01*
X96070085Y-76009308D01*
X96044134Y-75977687D01*
X96022993Y-75951926D01*
X96022992Y-75951925D01*
X96007253Y-75932747D01*
X95988075Y-75917008D01*
X95198604Y-75127537D01*
X105058546Y-75127537D01*
X105093566Y-75408030D01*
X105153906Y-75606941D01*
X105368074Y-75694424D01*
X105972498Y-75090000D01*
X107027502Y-75090000D01*
X107631926Y-75694424D01*
X107846094Y-75606941D01*
X107921080Y-75334398D01*
X107941454Y-75052463D01*
X107906434Y-74771970D01*
X107846094Y-74573059D01*
X107631926Y-74485576D01*
X107027502Y-75090000D01*
X105972498Y-75090000D01*
X105368074Y-74485576D01*
X105153906Y-74573059D01*
X105078920Y-74845602D01*
X105058546Y-75127537D01*
X95198604Y-75127537D01*
X94507800Y-74436734D01*
X94507800Y-74293393D01*
X94477909Y-74143124D01*
X94419277Y-74001574D01*
X94334156Y-73874182D01*
X94225818Y-73765844D01*
X94098426Y-73680723D01*
X93956876Y-73622091D01*
X93806607Y-73592200D01*
X93653393Y-73592200D01*
X93503124Y-73622091D01*
X93361574Y-73680723D01*
X93234182Y-73765844D01*
X93125844Y-73874182D01*
X93040723Y-74001574D01*
X92982091Y-74143124D01*
X92952200Y-74293393D01*
X92952200Y-74446607D01*
X92982091Y-74596876D01*
X93040723Y-74738426D01*
X93125844Y-74865818D01*
X93234182Y-74974156D01*
X93361574Y-75059277D01*
X93503124Y-75117909D01*
X93653393Y-75147800D01*
X93796734Y-75147800D01*
X95147201Y-76498268D01*
X95147200Y-79961733D01*
X93541926Y-81567008D01*
X93522748Y-81582747D01*
X93507009Y-81601925D01*
X93507007Y-81601927D01*
X93459915Y-81659309D01*
X93413227Y-81746656D01*
X93384476Y-81841435D01*
X93374768Y-81940000D01*
X93377201Y-81964702D01*
X93377201Y-82763424D01*
X93322102Y-82786247D01*
X93129196Y-82915143D01*
X92965143Y-83079196D01*
X92836247Y-83272102D01*
X92747462Y-83486448D01*
X92702200Y-83713997D01*
X91877396Y-83713997D01*
X92010804Y-83624857D01*
X92174857Y-83460804D01*
X92303753Y-83267898D01*
X92392538Y-83053552D01*
X92437800Y-82826003D01*
X92437800Y-82593997D01*
X92392538Y-82366448D01*
X92303753Y-82152102D01*
X92174857Y-81959196D01*
X92010804Y-81795143D01*
X91817898Y-81666247D01*
X91603552Y-81577462D01*
X91376003Y-81532200D01*
X91143997Y-81532200D01*
X90916448Y-81577462D01*
X90702102Y-81666247D01*
X90509196Y-81795143D01*
X90345143Y-81959196D01*
X90216247Y-82152102D01*
X90127462Y-82366448D01*
X90082200Y-82593997D01*
X73407800Y-82593997D01*
X73407800Y-80243768D01*
X73418742Y-80053997D01*
X90082200Y-80053997D01*
X90082200Y-80286003D01*
X90127462Y-80513552D01*
X90216247Y-80727898D01*
X90345143Y-80920804D01*
X90509196Y-81084857D01*
X90702102Y-81213753D01*
X90916448Y-81302538D01*
X91143997Y-81347800D01*
X91376003Y-81347800D01*
X91603552Y-81302538D01*
X91817898Y-81213753D01*
X92010804Y-81084857D01*
X92174857Y-80920804D01*
X92303753Y-80727898D01*
X92392538Y-80513552D01*
X92437800Y-80286003D01*
X92437800Y-80053997D01*
X92392538Y-79826448D01*
X92303753Y-79612102D01*
X92174857Y-79419196D01*
X92010804Y-79255143D01*
X91817898Y-79126247D01*
X91603552Y-79037462D01*
X91376003Y-78992200D01*
X91143997Y-78992200D01*
X90916448Y-79037462D01*
X90702102Y-79126247D01*
X90509196Y-79255143D01*
X90345143Y-79419196D01*
X90216247Y-79612102D01*
X90127462Y-79826448D01*
X90082200Y-80053997D01*
X73418742Y-80053997D01*
X73484949Y-78905758D01*
X73713001Y-77599079D01*
X73738203Y-77513997D01*
X90082200Y-77513997D01*
X90082200Y-77746003D01*
X90127462Y-77973552D01*
X90216247Y-78187898D01*
X90345143Y-78380804D01*
X90509196Y-78544857D01*
X90702102Y-78673753D01*
X90916448Y-78762538D01*
X91143997Y-78807800D01*
X91376003Y-78807800D01*
X91603552Y-78762538D01*
X91817898Y-78673753D01*
X92010804Y-78544857D01*
X92174857Y-78380804D01*
X92303753Y-78187898D01*
X92392538Y-77973552D01*
X92437800Y-77746003D01*
X92437800Y-77513997D01*
X92392538Y-77286448D01*
X92303753Y-77072102D01*
X92174857Y-76879196D01*
X92010804Y-76715143D01*
X91817898Y-76586247D01*
X91603552Y-76497462D01*
X91376003Y-76452200D01*
X91143997Y-76452200D01*
X90916448Y-76497462D01*
X90702102Y-76586247D01*
X90509196Y-76715143D01*
X90345143Y-76879196D01*
X90216247Y-77072102D01*
X90127462Y-77286448D01*
X90082200Y-77513997D01*
X73738203Y-77513997D01*
X74089730Y-76327266D01*
X74610142Y-75107176D01*
X75267333Y-73954997D01*
X75502243Y-73635204D01*
X76582200Y-73635204D01*
X76582200Y-74024796D01*
X76658205Y-74406903D01*
X76807296Y-74766840D01*
X77023742Y-75090774D01*
X77299226Y-75366258D01*
X77623160Y-75582704D01*
X77983097Y-75731795D01*
X78365204Y-75807800D01*
X78754796Y-75807800D01*
X79136903Y-75731795D01*
X79496840Y-75582704D01*
X79820774Y-75366258D01*
X80096258Y-75090774D01*
X80174285Y-74973997D01*
X90082200Y-74973997D01*
X90082200Y-75206003D01*
X90127462Y-75433552D01*
X90216247Y-75647898D01*
X90345143Y-75840804D01*
X90509196Y-76004857D01*
X90702102Y-76133753D01*
X90916448Y-76222538D01*
X91143997Y-76267800D01*
X91376003Y-76267800D01*
X91603552Y-76222538D01*
X91817898Y-76133753D01*
X92010804Y-76004857D01*
X92174857Y-75840804D01*
X92303753Y-75647898D01*
X92392538Y-75433552D01*
X92437800Y-75206003D01*
X92437800Y-74973997D01*
X92392538Y-74746448D01*
X92303753Y-74532102D01*
X92174857Y-74339196D01*
X92010804Y-74175143D01*
X91817898Y-74046247D01*
X91603552Y-73957462D01*
X91376003Y-73912200D01*
X91143997Y-73912200D01*
X90916448Y-73957462D01*
X90702102Y-74046247D01*
X90509196Y-74175143D01*
X90345143Y-74339196D01*
X90216247Y-74532102D01*
X90127462Y-74746448D01*
X90082200Y-74973997D01*
X80174285Y-74973997D01*
X80312704Y-74766840D01*
X80461795Y-74406903D01*
X80537800Y-74024796D01*
X80537800Y-73635204D01*
X80461795Y-73253097D01*
X80312704Y-72893160D01*
X80096258Y-72569226D01*
X79820774Y-72293742D01*
X79496840Y-72077296D01*
X79136903Y-71928205D01*
X78754796Y-71852200D01*
X78365204Y-71852200D01*
X77983097Y-71928205D01*
X77623160Y-72077296D01*
X77299226Y-72293742D01*
X77023742Y-72569226D01*
X76807296Y-72893160D01*
X76658205Y-73253097D01*
X76582200Y-73635204D01*
X75502243Y-73635204D01*
X76052603Y-72885979D01*
X76955536Y-71914308D01*
X77147916Y-71750000D01*
X90080372Y-71750000D01*
X90080372Y-73350000D01*
X90087666Y-73424062D01*
X90109269Y-73495277D01*
X90144351Y-73560910D01*
X90191562Y-73618438D01*
X90249090Y-73665649D01*
X90314723Y-73700731D01*
X90385938Y-73722334D01*
X90460000Y-73729628D01*
X92060000Y-73729628D01*
X92134062Y-73722334D01*
X92205277Y-73700731D01*
X92270910Y-73665649D01*
X92328438Y-73618438D01*
X92375649Y-73560910D01*
X92410731Y-73495277D01*
X92432334Y-73424062D01*
X92439628Y-73350000D01*
X92439628Y-72433997D01*
X105322200Y-72433997D01*
X105322200Y-72666003D01*
X105367462Y-72893552D01*
X105456247Y-73107898D01*
X105585143Y-73300804D01*
X105749196Y-73464857D01*
X105942102Y-73593753D01*
X106156448Y-73682538D01*
X106173909Y-73686011D01*
X105983059Y-73743906D01*
X105895576Y-73958074D01*
X106500000Y-74562498D01*
X107104424Y-73958074D01*
X107016941Y-73743906D01*
X106814731Y-73688271D01*
X106843552Y-73682538D01*
X106957826Y-73635204D01*
X117302200Y-73635204D01*
X117302200Y-74024796D01*
X117378205Y-74406903D01*
X117527296Y-74766840D01*
X117743742Y-75090774D01*
X118019226Y-75366258D01*
X118343160Y-75582704D01*
X118703097Y-75731795D01*
X119085204Y-75807800D01*
X119474796Y-75807800D01*
X119856903Y-75731795D01*
X120216840Y-75582704D01*
X120540774Y-75366258D01*
X120816258Y-75090774D01*
X121032704Y-74766840D01*
X121181795Y-74406903D01*
X121257800Y-74024796D01*
X121257800Y-73635204D01*
X121181795Y-73253097D01*
X121032704Y-72893160D01*
X120816258Y-72569226D01*
X120540774Y-72293742D01*
X120216840Y-72077296D01*
X119856903Y-71928205D01*
X119474796Y-71852200D01*
X119085204Y-71852200D01*
X118703097Y-71928205D01*
X118343160Y-72077296D01*
X118019226Y-72293742D01*
X117743742Y-72569226D01*
X117527296Y-72893160D01*
X117378205Y-73253097D01*
X117302200Y-73635204D01*
X106957826Y-73635204D01*
X107057898Y-73593753D01*
X107250804Y-73464857D01*
X107414857Y-73300804D01*
X107543753Y-73107898D01*
X107632538Y-72893552D01*
X107677800Y-72666003D01*
X107677800Y-72433997D01*
X107632538Y-72206448D01*
X107543753Y-71992102D01*
X107414857Y-71799196D01*
X107250804Y-71635143D01*
X107057898Y-71506247D01*
X106843552Y-71417462D01*
X106616003Y-71372200D01*
X106383997Y-71372200D01*
X106156448Y-71417462D01*
X105942102Y-71506247D01*
X105749196Y-71635143D01*
X105585143Y-71799196D01*
X105456247Y-71992102D01*
X105367462Y-72206448D01*
X105322200Y-72433997D01*
X92439628Y-72433997D01*
X92439628Y-71750000D01*
X92432334Y-71675938D01*
X92410731Y-71604723D01*
X92375649Y-71539090D01*
X92328438Y-71481562D01*
X92270910Y-71434351D01*
X92205277Y-71399269D01*
X92134062Y-71377666D01*
X92060000Y-71370372D01*
X90460000Y-71370372D01*
X90385938Y-71377666D01*
X90314723Y-71399269D01*
X90249090Y-71434351D01*
X90191562Y-71481562D01*
X90144351Y-71539090D01*
X90109269Y-71604723D01*
X90087666Y-71675938D01*
X90080372Y-71750000D01*
X77147916Y-71750000D01*
X77964165Y-71052858D01*
X79065127Y-70313042D01*
X80243818Y-69704673D01*
X81484629Y-69235809D01*
X82771108Y-68912668D01*
X84091165Y-68738879D01*
X84938755Y-68707800D01*
X112916232Y-68707800D01*
X114254242Y-68784949D01*
G37*
G04 #@! TD.AperFunction*
G04 #@! TD*
M02*
