%TF.GenerationSoftware,KiCad,Pcbnew,(6.0.0)*%
%TF.CreationDate,2022-01-01T21:56:51+01:00*%
%TF.ProjectId,VolumeKnob,566f6c75-6d65-44b6-9e6f-622e6b696361,rev?*%
%TF.SameCoordinates,Original*%
%TF.FileFunction,Paste,Top*%
%TF.FilePolarity,Positive*%
%FSLAX46Y46*%
G04 Gerber Fmt 4.6, Leading zero omitted, Abs format (unit mm)*
G04 Created by KiCad (PCBNEW (6.0.0)) date 2022-01-01 21:56:51*
%MOMM*%
%LPD*%
G01*
G04 APERTURE LIST*
%ADD10R,1.500000X1.000000*%
G04 APERTURE END LIST*
D10*
%TO.C,D3*%
X69559997Y-44389997D03*
X69559997Y-47589997D03*
X74459997Y-47589997D03*
X74459997Y-44389997D03*
%TD*%
%TO.C,D8*%
X79410004Y-98400003D03*
X79410004Y-101600003D03*
X84310004Y-101600003D03*
X84310004Y-98400003D03*
%TD*%
%TO.C,D4*%
X121220004Y-113740003D03*
X121220004Y-116940003D03*
X126120004Y-116940003D03*
X126120004Y-113740003D03*
%TD*%
%TO.C,D1*%
X47539997Y-26139997D03*
X47539997Y-29339997D03*
X52439997Y-29339997D03*
X52439997Y-26139997D03*
%TD*%
%TO.C,D1*%
X101540004Y-80140003D03*
X101540004Y-83340003D03*
X106440004Y-83340003D03*
X106440004Y-80140003D03*
%TD*%
%TO.C,D3*%
X123560004Y-98390003D03*
X123560004Y-101590003D03*
X128460004Y-101590003D03*
X128460004Y-98390003D03*
%TD*%
%TO.C,D8*%
X25409997Y-44399997D03*
X25409997Y-47599997D03*
X30309997Y-47599997D03*
X30309997Y-44399997D03*
%TD*%
%TO.C,D7*%
X28099997Y-113830003D03*
X28099997Y-117030003D03*
X32999997Y-117030003D03*
X32999997Y-113830003D03*
%TD*%
%TO.C,D5*%
X109020004Y-123520003D03*
X109020004Y-126720003D03*
X113920004Y-126720003D03*
X113920004Y-123520003D03*
%TD*%
%TO.C,D2*%
X61109997Y-30429997D03*
X61109997Y-33629997D03*
X66009997Y-33629997D03*
X66009997Y-30429997D03*
%TD*%
%TO.C,D1*%
X101540004Y-26139997D03*
X101540004Y-29339997D03*
X106440004Y-29339997D03*
X106440004Y-26139997D03*
%TD*%
%TO.C,D2*%
X61109997Y-84430003D03*
X61109997Y-87630003D03*
X66009997Y-87630003D03*
X66009997Y-84430003D03*
%TD*%
%TO.C,D5*%
X55019997Y-123520003D03*
X55019997Y-126720003D03*
X59919997Y-126720003D03*
X59919997Y-123520003D03*
%TD*%
%TO.C,D4*%
X67219997Y-59739997D03*
X67219997Y-62939997D03*
X72119997Y-62939997D03*
X72119997Y-59739997D03*
%TD*%
%TO.C,D5*%
X55019997Y-69519997D03*
X55019997Y-72719997D03*
X59919997Y-72719997D03*
X59919997Y-69519997D03*
%TD*%
%TO.C,D3*%
X69559997Y-98390003D03*
X69559997Y-101590003D03*
X74459997Y-101590003D03*
X74459997Y-98390003D03*
%TD*%
%TO.C,D9*%
X88210004Y-30389997D03*
X88210004Y-33589997D03*
X93110004Y-33589997D03*
X93110004Y-30389997D03*
%TD*%
%TO.C,D6*%
X93500004Y-123160003D03*
X93500004Y-126360003D03*
X98400004Y-126360003D03*
X98400004Y-123160003D03*
%TD*%
%TO.C,D4*%
X121220004Y-59739997D03*
X121220004Y-62939997D03*
X126120004Y-62939997D03*
X126120004Y-59739997D03*
%TD*%
%TO.C,D9*%
X34209997Y-84390003D03*
X34209997Y-87590003D03*
X39109997Y-87590003D03*
X39109997Y-84390003D03*
%TD*%
%TO.C,D9*%
X34209997Y-30389997D03*
X34209997Y-33589997D03*
X39109997Y-33589997D03*
X39109997Y-30389997D03*
%TD*%
%TO.C,D8*%
X25409997Y-98400003D03*
X25409997Y-101600003D03*
X30309997Y-101600003D03*
X30309997Y-98400003D03*
%TD*%
%TO.C,D4*%
X67219997Y-113740003D03*
X67219997Y-116940003D03*
X72119997Y-116940003D03*
X72119997Y-113740003D03*
%TD*%
%TO.C,D6*%
X39499997Y-69159997D03*
X39499997Y-72359997D03*
X44399997Y-72359997D03*
X44399997Y-69159997D03*
%TD*%
%TO.C,D7*%
X82100004Y-113830003D03*
X82100004Y-117030003D03*
X87000004Y-117030003D03*
X87000004Y-113830003D03*
%TD*%
%TO.C,D7*%
X82100004Y-59829997D03*
X82100004Y-63029997D03*
X87000004Y-63029997D03*
X87000004Y-59829997D03*
%TD*%
%TO.C,D5*%
X109020004Y-69519997D03*
X109020004Y-72719997D03*
X113920004Y-72719997D03*
X113920004Y-69519997D03*
%TD*%
%TO.C,D1*%
X47539997Y-80140003D03*
X47539997Y-83340003D03*
X52439997Y-83340003D03*
X52439997Y-80140003D03*
%TD*%
%TO.C,D9*%
X88210004Y-84390003D03*
X88210004Y-87590003D03*
X93110004Y-87590003D03*
X93110004Y-84390003D03*
%TD*%
%TO.C,D3*%
X123560004Y-44389997D03*
X123560004Y-47589997D03*
X128460004Y-47589997D03*
X128460004Y-44389997D03*
%TD*%
%TO.C,D2*%
X115110004Y-84430003D03*
X115110004Y-87630003D03*
X120010004Y-87630003D03*
X120010004Y-84430003D03*
%TD*%
%TO.C,D7*%
X28099997Y-59829997D03*
X28099997Y-63029997D03*
X32999997Y-63029997D03*
X32999997Y-59829997D03*
%TD*%
%TO.C,D8*%
X79410004Y-44399997D03*
X79410004Y-47599997D03*
X84310004Y-47599997D03*
X84310004Y-44399997D03*
%TD*%
%TO.C,D6*%
X93500004Y-69159997D03*
X93500004Y-72359997D03*
X98400004Y-72359997D03*
X98400004Y-69159997D03*
%TD*%
%TO.C,D2*%
X115110004Y-30429997D03*
X115110004Y-33629997D03*
X120010004Y-33629997D03*
X120010004Y-30429997D03*
%TD*%
%TO.C,D6*%
X39499997Y-123160003D03*
X39499997Y-126360003D03*
X44399997Y-126360003D03*
X44399997Y-123160003D03*
%TD*%
M02*
