%TF.GenerationSoftware,KiCad,Pcbnew,(6.0.0)*%
%TF.CreationDate,2022-01-01T21:56:53+01:00*%
%TF.ProjectId,VolumeKnob,566f6c75-6d65-44b6-9e6f-622e6b696361,rev?*%
%TF.SameCoordinates,Original*%
%TF.FileFunction,Profile,NP*%
%FSLAX46Y46*%
G04 Gerber Fmt 4.6, Leading zero omitted, Abs format (unit mm)*
G04 Created by KiCad (PCBNEW (6.0.0)) date 2022-01-01 21:56:53*
%MOMM*%
%LPD*%
G01*
G04 APERTURE LIST*
%TA.AperFunction,Profile*%
%ADD10C,0.100000*%
%TD*%
G04 APERTURE END LIST*
D10*
X65877469Y-75853140D02*
X66501547Y-75737209D01*
X114987083Y-21016572D02*
X115035149Y-21009443D01*
X39783696Y-77319545D02*
X39767326Y-77365296D01*
X74064873Y-70536063D02*
X74393151Y-70000351D01*
X110971510Y-130401258D02*
X110999490Y-130440986D01*
X77365296Y-111099997D02*
X77319545Y-111116367D01*
X76966703Y-42833963D02*
X77057579Y-42834857D01*
X77882102Y-56643014D02*
X77858151Y-56685293D01*
X77956371Y-56463714D02*
X77941128Y-56509853D01*
X65877469Y-129853146D02*
X66495242Y-129738642D01*
X77969333Y-93084217D02*
X77949035Y-93154212D01*
X43823725Y-130001002D02*
X56176270Y-130001000D01*
X76774089Y-42857720D02*
X76821747Y-42848240D01*
X87504988Y-75738685D02*
X88116172Y-75852047D01*
X60177048Y-76845736D02*
X60190387Y-76774089D01*
X125547264Y-127330531D02*
X126030269Y-126918340D01*
X76589809Y-57081399D02*
X76545882Y-57060623D01*
X81969913Y-126918498D02*
X82442533Y-127322263D01*
X43028489Y-130401260D02*
X43074028Y-130344361D01*
X114167529Y-130942423D02*
X114173782Y-130869813D01*
X129413506Y-67708619D02*
X129590213Y-67112385D01*
X56297518Y-77991556D02*
X56249161Y-77996318D01*
X93814644Y-130797863D02*
X93822951Y-130845739D01*
X76076357Y-110555191D02*
X76058869Y-110509855D01*
X76503030Y-42962279D02*
X76545884Y-42939373D01*
X76401257Y-93638842D02*
X76362950Y-93608947D01*
X43654412Y-77984424D02*
X43606754Y-77974945D01*
X96836351Y-76918168D02*
X96841114Y-76869811D01*
X39310347Y-76117895D02*
X39352626Y-76141846D01*
X36003210Y-130001002D02*
X38867960Y-130001301D01*
X60391052Y-76362950D02*
X60439328Y-76308355D01*
X60171100Y-130893963D02*
X60177048Y-130845737D01*
X60224204Y-21658476D02*
X60241692Y-21613140D01*
X39692815Y-132516964D02*
X39666818Y-132558017D01*
X97106663Y-21309352D02*
X97141023Y-21274992D01*
X43090123Y-23673842D02*
X43043202Y-23618078D01*
X77342521Y-57108460D02*
X77273046Y-57130469D01*
X60915782Y-23969327D02*
X60868950Y-23956367D01*
X39716766Y-77475682D02*
X39680069Y-77538647D01*
X115156397Y-77999002D02*
X115107758Y-77997809D01*
X114361161Y-77598744D02*
X114333181Y-77559016D01*
X76257456Y-60491489D02*
X76290962Y-60456297D01*
X56822972Y-130241364D02*
X56858976Y-130273996D01*
X111165142Y-23057574D02*
X111158889Y-23130184D01*
X96987263Y-132537650D02*
X96962282Y-132495971D01*
X57151756Y-76821747D02*
X57158886Y-76869812D01*
X93107713Y-21037859D02*
X93177188Y-21059869D01*
X39060574Y-77974944D02*
X38988927Y-77988284D01*
X93653076Y-77579050D02*
X93608947Y-77637049D01*
X114777479Y-76076359D02*
X114822815Y-76058871D01*
X75203856Y-122300635D02*
X75413499Y-121708625D01*
X76036862Y-39107710D02*
X76020022Y-39036803D01*
X110858980Y-76273995D02*
X110893340Y-76308354D01*
X77996317Y-56249161D02*
X77991555Y-56297518D01*
X76058871Y-93177188D02*
X76043629Y-93131049D01*
X76461351Y-42987260D02*
X76503030Y-42962279D01*
X97294020Y-76154593D02*
X97335699Y-76129612D01*
X77517962Y-57025483D02*
X77475683Y-57049433D01*
X122300636Y-24796137D02*
X121708378Y-24586414D01*
X39471713Y-76225717D02*
X39526309Y-76273993D01*
X56785411Y-130210538D02*
X56822972Y-130241364D01*
X43141020Y-21274992D02*
X43195615Y-21226717D01*
X76726952Y-57130469D02*
X76680453Y-57116364D01*
X39154209Y-76050965D02*
X39199960Y-76067335D01*
X32894045Y-75592019D02*
X33504726Y-75738631D01*
X77984425Y-56345584D02*
X77969331Y-56416882D01*
X121105929Y-129592032D02*
X121702216Y-129415498D01*
X56440377Y-76036861D02*
X56486877Y-76050967D01*
X76225719Y-93471716D02*
X76195824Y-93433409D01*
X76589808Y-114251268D02*
X76634701Y-114232673D01*
X56925968Y-130344360D02*
X56956794Y-130381921D01*
X42900002Y-130634706D02*
X42928715Y-130567722D01*
X39352626Y-23858150D02*
X39288779Y-23893291D01*
X111116368Y-132318547D02*
X111090976Y-132386859D01*
X93199963Y-132931665D02*
X93154212Y-132948035D01*
X88745423Y-75935152D02*
X89371781Y-75984455D01*
X43536283Y-21044626D02*
X43606754Y-21026052D01*
X77999000Y-115156396D02*
X77999084Y-118003239D01*
X57147309Y-21798857D02*
X57155616Y-21846733D01*
X93288782Y-21107705D02*
X93352629Y-21142846D01*
X93244856Y-23914066D02*
X93177188Y-23941127D01*
X110416886Y-132968333D02*
X110345588Y-132983427D01*
X93084218Y-130030672D02*
X93131049Y-130043632D01*
X39452743Y-130210540D02*
X39508507Y-130257461D01*
X24064222Y-88752121D02*
X24015524Y-89372041D01*
X119260978Y-129934401D02*
X119877476Y-129853146D01*
X97195619Y-130225722D02*
X97253618Y-130181593D01*
X24796221Y-68300849D02*
X25036558Y-68881076D01*
X93830984Y-76918168D02*
X93833369Y-76966701D01*
X93413717Y-130181594D02*
X93452746Y-130210540D01*
X97536286Y-130043631D02*
X97583117Y-130030671D01*
X110249164Y-21004680D02*
X110297522Y-21009443D01*
X42928715Y-77432280D02*
X42900002Y-77365296D01*
X114294950Y-132495971D02*
X114272044Y-132453117D01*
X114800040Y-21068334D02*
X114845791Y-21051964D01*
X76000999Y-38843603D02*
X76000915Y-35996760D01*
X96962282Y-76503028D02*
X96987263Y-76461350D01*
X97702481Y-21009443D02*
X97750839Y-21004680D01*
X61156393Y-130001000D02*
X64000071Y-130000977D01*
X60190387Y-21775086D02*
X60202194Y-21727951D01*
X76001298Y-92867963D02*
X76000999Y-90003207D01*
X56440377Y-130036863D02*
X56486876Y-130050968D01*
X76058869Y-110509855D02*
X76043627Y-110463716D01*
X110599615Y-77903950D02*
X110555192Y-77923642D01*
X76195824Y-97233925D02*
X76225719Y-97195618D01*
X110577524Y-130085933D02*
X110621450Y-130106709D01*
X77963138Y-60892287D02*
X77974944Y-60939422D01*
X77994235Y-38940701D02*
X77984427Y-39012916D01*
X56785411Y-21211534D02*
X56822972Y-21242360D01*
X93393682Y-77832154D02*
X93352629Y-77858151D01*
X76482037Y-96974516D02*
X76524316Y-96950566D01*
X76008445Y-97702481D02*
X76015575Y-97654415D01*
X60166332Y-21992058D02*
X60169015Y-21919168D01*
X125053868Y-26290985D02*
X124536070Y-25935120D01*
X77999002Y-97823729D02*
X77999001Y-110176274D01*
X29999438Y-79606966D02*
X29463952Y-79935112D01*
X127330532Y-82452742D02*
X126918516Y-81969931D01*
X77949035Y-43513120D02*
X77963140Y-43559619D01*
X93830984Y-21919168D02*
X93833668Y-21992058D01*
X42833963Y-130966706D02*
X42838432Y-130893965D01*
X77296384Y-42876294D02*
X77342523Y-42891536D01*
X61011069Y-76011715D02*
X61059295Y-76005767D01*
X43141020Y-130273998D02*
X43195615Y-130225722D01*
X39738613Y-130567723D02*
X39758304Y-130612146D01*
X130001003Y-133008002D02*
X129999179Y-133002244D01*
X93452746Y-76210534D02*
X93490308Y-76241361D01*
X39716766Y-21525314D02*
X39738613Y-21568717D01*
X56785411Y-23789460D02*
X56726346Y-23832152D01*
X43444808Y-23923639D02*
X43400385Y-23903947D01*
X43356982Y-21118895D02*
X43422476Y-21086930D01*
X76015575Y-97654415D02*
X76030668Y-97583117D01*
X24147946Y-88116171D02*
X24064222Y-88752121D01*
X96863337Y-21751446D02*
X96876297Y-21704615D01*
X111071284Y-130567721D02*
X111090976Y-130612144D01*
X61083503Y-77996319D02*
X61011069Y-77988286D01*
X129984477Y-89372067D02*
X129935189Y-88745709D01*
X77974944Y-60939422D02*
X77988284Y-61011069D01*
X129853184Y-65877237D02*
X129935187Y-65254316D01*
X39244853Y-21086930D02*
X39288779Y-21107705D01*
X60375869Y-130381921D02*
X60422791Y-130326157D01*
X57123702Y-132295384D02*
X57108460Y-132341523D01*
X38916493Y-23996316D02*
X38867960Y-23998700D01*
X24015524Y-89372041D02*
X23999019Y-89999918D01*
X129203779Y-31699144D02*
X128963442Y-31118917D01*
X75853179Y-88122775D02*
X75738636Y-87504757D01*
X81513993Y-81514159D02*
X81081508Y-81969912D01*
X75203772Y-31699144D02*
X74963328Y-31118678D01*
X97378553Y-132892294D02*
X97335699Y-132869388D01*
X77999001Y-110176274D02*
X77996317Y-110249164D01*
X110486880Y-21051964D02*
X110532631Y-21068334D01*
X129739953Y-120488676D02*
X129853184Y-119877243D01*
X114566594Y-77804177D02*
X114509695Y-77758638D01*
X81085965Y-126034919D02*
X81518791Y-126490523D01*
X93012920Y-132983427D02*
X92964854Y-132990556D01*
X114216303Y-76680454D02*
X114241695Y-76612143D01*
X43559619Y-23963136D02*
X43513120Y-23949031D01*
X76117898Y-93310350D02*
X76096050Y-93266946D01*
X43467368Y-77932662D02*
X43400385Y-77903949D01*
X39680069Y-76461350D02*
X39716766Y-76524314D01*
X111161568Y-21894960D02*
X111165142Y-21943420D01*
X76680452Y-114216303D02*
X76750447Y-114196005D01*
X43513119Y-132948035D02*
X43444808Y-132922643D01*
X38964851Y-130008448D02*
X39012916Y-130015578D01*
X56532628Y-23932659D02*
X56463714Y-23956368D01*
X56297518Y-23991551D02*
X56249161Y-23996314D01*
X76117897Y-97356985D02*
X76141848Y-97314706D01*
X39783696Y-132318547D02*
X39767326Y-132364298D01*
X77996319Y-97750838D02*
X77999002Y-97823729D01*
X67708594Y-129413513D02*
X68300849Y-129203778D01*
X60190387Y-76774089D02*
X60208962Y-76703618D01*
X31118893Y-128963430D02*
X31699364Y-129203862D01*
X128396310Y-84005277D02*
X128068322Y-83469392D01*
X78015531Y-89372041D02*
X77999026Y-89999918D01*
X23999086Y-64003303D02*
X24015536Y-64628193D01*
X129738643Y-87504757D02*
X129591965Y-86893824D01*
X92940704Y-21006764D02*
X92988931Y-21012713D01*
X56956794Y-132617081D02*
X56909873Y-132672845D01*
X60668363Y-130129614D02*
X60711217Y-130106708D01*
X38988927Y-77988284D02*
X38940701Y-77994232D01*
X39797802Y-21727951D02*
X39809609Y-21775086D01*
X76050965Y-60845787D02*
X76076357Y-60777475D01*
X127322264Y-71557467D02*
X127712746Y-71048581D01*
X93727959Y-76545882D02*
X93758308Y-76612141D01*
X76106706Y-56621447D02*
X76085930Y-56577520D01*
X35378364Y-75984718D02*
X36003210Y-76000996D01*
X60528283Y-77774282D02*
X60491489Y-77742543D01*
X77758636Y-114509694D02*
X77804175Y-114566593D01*
X114169019Y-21919168D02*
X114173782Y-21870810D01*
X39791034Y-23296381D02*
X39775792Y-23342520D01*
X110176274Y-23998997D02*
X97823729Y-23998999D01*
X84557607Y-128695806D02*
X85118900Y-128963430D01*
X56532628Y-77932664D02*
X56486876Y-77949034D01*
X33504981Y-129738691D02*
X34122498Y-129853142D01*
X77538650Y-96987263D02*
X77579052Y-97014259D01*
X93608947Y-76362948D02*
X93638842Y-76401255D01*
X97775091Y-132996809D02*
X97702481Y-132990556D01*
X115132040Y-23998698D02*
X115083507Y-23996314D01*
X129984462Y-118628225D02*
X130000917Y-118003300D01*
X123448409Y-128692841D02*
X124000562Y-128393039D01*
X114963196Y-132978979D02*
X114892290Y-132962140D01*
X97536286Y-77956371D02*
X97490147Y-77941128D01*
X129984464Y-35371800D02*
X129934402Y-34739022D01*
X93222524Y-77923640D02*
X93177188Y-77941128D01*
X24407974Y-86894051D02*
X24261362Y-87504732D01*
X111155619Y-77154265D02*
X111147312Y-77202141D01*
X36003207Y-77999000D02*
X35378350Y-78015281D01*
X128064894Y-29463952D02*
X127712738Y-28951401D01*
X70536063Y-25935120D02*
X70000351Y-25606842D01*
X96833668Y-132007941D02*
X96833966Y-130966706D01*
X110893340Y-21309352D02*
X110925972Y-21345356D01*
X60626685Y-132844407D02*
X60566590Y-132803177D01*
X76273995Y-43141020D02*
X76308354Y-43106660D01*
X56577520Y-132913069D02*
X56532628Y-132931665D01*
X60733053Y-76096050D02*
X60800036Y-76067337D01*
X96900005Y-76634701D02*
X96918601Y-76589809D01*
X43559619Y-76036860D02*
X43606754Y-76025053D01*
X39638839Y-76401255D02*
X39680069Y-76461350D01*
X88122763Y-129853183D02*
X88745684Y-129935186D01*
X42833963Y-21967701D02*
X42838432Y-21894960D01*
X130000810Y-136996679D02*
X130001003Y-133008002D01*
X76461350Y-60319927D02*
X76503028Y-60294946D01*
X76025052Y-114939425D02*
X76043627Y-114868953D01*
X92892245Y-23997806D02*
X92843606Y-23998999D01*
X97490147Y-130058874D02*
X97536286Y-130043631D01*
X60241692Y-21613140D02*
X60261383Y-21568717D01*
X114173782Y-21870810D02*
X114180911Y-21822744D01*
X119877502Y-24146857D02*
X119254584Y-24064841D01*
X25307170Y-84551574D02*
X25039366Y-85112825D01*
X39413714Y-132817411D02*
X39373311Y-132844407D01*
X76869812Y-96841113D02*
X76918170Y-96836350D01*
X114845791Y-132948035D02*
X114800040Y-132931665D01*
X60822811Y-130058872D02*
X60868950Y-130043630D01*
X43654412Y-21016572D02*
X43702478Y-21009443D01*
X114800040Y-132931665D02*
X114733056Y-132902951D01*
X39508507Y-23742540D02*
X39471713Y-23774279D01*
X77130186Y-114173781D02*
X77178252Y-114180911D01*
X110999490Y-130440986D02*
X111025486Y-130482039D01*
X56999486Y-77559016D02*
X56971507Y-77598744D01*
X60361157Y-23598739D02*
X60333178Y-23559011D01*
X110785414Y-21211534D02*
X110822976Y-21242360D01*
X56393242Y-76025054D02*
X56440377Y-76036861D01*
X111163652Y-76918170D02*
X111166037Y-76966703D01*
X60333178Y-23559011D02*
X60307181Y-23517958D01*
X61011069Y-23988281D02*
X60963193Y-23979974D01*
X96891540Y-23342519D02*
X96869530Y-23273044D01*
X39393678Y-23832153D02*
X39352626Y-23858150D01*
X61107755Y-130002193D02*
X61156393Y-130001000D01*
X39830981Y-21919168D02*
X39833664Y-21992058D01*
X87498453Y-78262790D02*
X86893825Y-78408041D01*
X42838432Y-130893965D02*
X42844380Y-130845739D01*
X72030068Y-126918515D02*
X72486007Y-126485846D01*
X129591965Y-86893824D02*
X129413514Y-86291405D01*
X39508507Y-132741544D02*
X39452743Y-132788465D01*
X60868950Y-130043630D02*
X60915782Y-130030670D01*
X111166335Y-130991062D02*
X111166335Y-132007941D01*
X76000999Y-97823728D02*
X76003682Y-97750838D01*
X110345588Y-132983427D02*
X110297522Y-132990556D01*
X43214585Y-23789461D02*
X43158821Y-23742540D01*
X97141023Y-76273993D02*
X97177027Y-76241361D01*
X77858154Y-93352629D02*
X77818411Y-93413717D01*
X77858151Y-60647371D02*
X77893291Y-60711217D01*
X93154212Y-132948035D02*
X93107713Y-132962140D01*
X75984455Y-118628225D02*
X76000996Y-117996789D01*
X96962282Y-132495971D02*
X96928719Y-132431282D01*
X60216300Y-77319547D02*
X60202194Y-77273048D01*
X76005767Y-38940701D02*
X76002192Y-38892241D01*
X74692942Y-123448198D02*
X74963318Y-122881345D01*
X43606754Y-23974943D02*
X43559619Y-23963136D01*
X39433406Y-21196822D02*
X39471713Y-21226717D01*
X60307181Y-23517958D02*
X60283230Y-23475679D01*
X76015573Y-56345584D02*
X76008443Y-56297518D01*
X39638839Y-21402255D02*
X39666818Y-21441982D01*
X76545884Y-42939373D02*
X76589810Y-42918597D01*
X56393242Y-23974942D02*
X56345584Y-23984421D01*
X39666818Y-21441982D02*
X39692815Y-21483035D01*
X60180908Y-21822744D02*
X60190387Y-21775086D01*
X110577524Y-21086930D02*
X110621450Y-21107705D01*
X110746385Y-130181592D02*
X110785414Y-130210538D01*
X56971507Y-77598744D02*
X56941612Y-77637051D01*
X77296382Y-60208962D02*
X77342521Y-60224204D01*
X118003236Y-77999087D02*
X115156397Y-77999002D01*
X79039373Y-85112825D02*
X78796238Y-85699126D01*
X76129613Y-43335695D02*
X76154594Y-43294017D01*
X68294699Y-75206044D02*
X68881076Y-74963435D01*
X75206089Y-85705423D02*
X74963435Y-85118923D01*
X78015531Y-35372035D02*
X77999088Y-35996764D01*
X57071281Y-77432281D02*
X57049433Y-77475684D01*
X57060623Y-23454112D02*
X57037717Y-23496966D01*
X43253614Y-21182588D02*
X43294017Y-21155592D01*
X77789465Y-43214585D02*
X77818411Y-43253615D01*
X43400385Y-23903947D02*
X43356982Y-23882100D01*
X97823729Y-21001997D02*
X110176274Y-21001997D01*
X43490143Y-130058874D02*
X43536282Y-130043631D01*
X43559619Y-132962140D02*
X43513119Y-132948035D01*
X76058869Y-114822814D02*
X76076357Y-114777478D01*
X97177027Y-76241361D02*
X97214589Y-76210535D01*
X76011713Y-61011069D02*
X76025052Y-60939422D01*
X29463930Y-128064879D02*
X29999642Y-128393157D01*
X111136666Y-130750450D02*
X111147312Y-130797861D01*
X60626685Y-21155592D02*
X60689649Y-21118895D01*
X60216300Y-23319542D02*
X60202194Y-23273042D01*
X76076357Y-114777478D02*
X76106705Y-114711220D01*
X77154263Y-60177048D02*
X77225910Y-60190387D01*
X97141023Y-132725007D02*
X97106663Y-132690647D01*
X77999003Y-38843603D02*
X77997810Y-38892241D01*
X110685297Y-23858148D02*
X110643018Y-23882099D01*
X97253618Y-130181593D02*
X97294020Y-130154597D01*
X43726627Y-23994231D02*
X43678401Y-23988283D01*
X38988927Y-132987286D02*
X38940701Y-132993235D01*
X97014259Y-132578052D02*
X96987263Y-132537650D01*
X61083503Y-23996314D02*
X61011069Y-23988281D01*
X111136666Y-77249552D02*
X111123706Y-77296383D01*
X76000996Y-117996789D02*
X76001296Y-115132039D01*
X96844384Y-21846733D02*
X96852691Y-21798857D01*
X42863334Y-132248553D02*
X42848240Y-132177255D01*
X93577209Y-21327154D02*
X93624130Y-21382918D01*
X43702478Y-130008448D02*
X43750835Y-130003685D01*
X42918597Y-23410187D02*
X42900002Y-23365295D01*
X68881100Y-25036569D02*
X68306841Y-24798612D01*
X76076357Y-60777475D02*
X76106705Y-60711217D01*
X57116364Y-130680456D02*
X57130469Y-130726955D01*
X130001003Y-17007134D02*
X129998471Y-16998526D01*
X28951401Y-80287268D02*
X28442516Y-80677750D01*
X56532628Y-76067337D02*
X56577521Y-76085932D01*
X25606960Y-124000561D02*
X25935248Y-124536267D01*
X97014259Y-77579050D02*
X96974517Y-77517962D01*
X93452746Y-21211534D02*
X93508510Y-21258455D01*
X57142276Y-130774090D02*
X57155616Y-130845737D01*
X60456297Y-132708038D02*
X60422791Y-132672845D01*
X76703615Y-60208962D02*
X76774087Y-60190387D01*
X81081666Y-72030262D02*
X81513975Y-72485822D01*
X28447689Y-26673445D02*
X27969925Y-27081484D01*
X39244853Y-23914066D02*
X39199960Y-23932661D01*
X93154212Y-76050965D02*
X93222524Y-76076357D01*
X114241695Y-77387858D02*
X114224208Y-77342523D01*
X76344358Y-43074028D02*
X76381920Y-43043202D01*
X72486007Y-126485846D02*
X72918317Y-126030288D01*
X77249553Y-42863334D02*
X77296384Y-42876294D01*
X93833668Y-21992058D02*
X93833668Y-23008938D01*
X114180911Y-132177255D02*
X114173782Y-132129189D01*
X93727959Y-132453117D02*
X93705053Y-132495971D01*
X56249161Y-132995319D02*
X56176270Y-132998002D01*
X60892286Y-21037859D02*
X60939422Y-21026052D01*
X24796137Y-31699364D02*
X24586414Y-32291622D01*
X77991555Y-110297521D02*
X77984425Y-110345587D01*
X110766077Y-77804177D02*
X110726350Y-77832156D01*
X24261357Y-120495248D02*
X24407967Y-121105928D01*
X43074028Y-77655641D02*
X43043202Y-77618079D01*
X97606758Y-76025053D02*
X97654415Y-76015573D01*
X93131049Y-130043632D02*
X93177188Y-130058874D01*
X56999486Y-21441982D02*
X57025483Y-21483035D01*
X60733053Y-132902951D02*
X60668363Y-132869388D01*
X60232670Y-76634703D02*
X60261383Y-76567720D01*
X76290964Y-97123632D02*
X76326156Y-97090126D01*
X75592026Y-86894077D02*
X75413588Y-86291653D01*
X56876367Y-132708038D02*
X56822972Y-132757639D01*
X126918324Y-72030282D02*
X127322264Y-71557467D01*
X60283230Y-23475679D02*
X60261383Y-23432276D01*
X92940704Y-77994232D02*
X92892244Y-77997807D01*
X82447676Y-73326532D02*
X82946139Y-73709008D01*
X110804384Y-77774281D02*
X110766077Y-77804177D01*
X88745450Y-78064844D02*
X88122531Y-78146859D01*
X114166335Y-76991061D02*
X114169019Y-76918170D01*
X39797802Y-77273045D02*
X39783696Y-77319545D01*
X76000999Y-43823725D02*
X76003682Y-43750835D01*
X110176274Y-76000999D02*
X110249164Y-76003682D01*
X110393246Y-76025054D02*
X110440381Y-76036861D01*
X97123632Y-77709035D02*
X97090126Y-77673843D01*
X79307165Y-123448408D02*
X79606967Y-124000561D01*
X32291399Y-24586486D02*
X31699144Y-24796221D01*
X77033296Y-111166036D02*
X76942420Y-111165142D01*
X93783700Y-132318547D02*
X93767330Y-132364298D01*
X110621450Y-130106709D02*
X110664304Y-130129615D01*
X39331633Y-132869388D02*
X39288779Y-132892294D01*
X75853181Y-34122782D02*
X75738691Y-33505007D01*
X57166332Y-130991062D02*
X57166332Y-132007941D01*
X39767326Y-132364298D02*
X39748731Y-132409191D01*
X68881339Y-79036681D02*
X68300629Y-78796143D01*
X60733053Y-23903946D02*
X60689649Y-23882098D01*
X97467372Y-76067335D02*
X97513123Y-76050965D01*
X43444808Y-132922643D02*
X43378549Y-132892294D01*
X24146853Y-119877475D02*
X24261357Y-120495248D01*
X77893294Y-97378552D02*
X77914069Y-97422479D01*
X79310170Y-84545888D02*
X79039373Y-85112825D01*
X93830984Y-23081828D02*
X93822952Y-23154262D01*
X117996790Y-23998997D02*
X115132040Y-23998698D01*
X39131046Y-130043632D02*
X39177185Y-130058874D01*
X42900002Y-77365296D02*
X42883632Y-77319545D01*
X43823726Y-21001997D02*
X56176270Y-21001997D01*
X64000071Y-130000977D02*
X64628193Y-129984463D01*
X77758639Y-97177027D02*
X77789465Y-97214588D01*
X93822951Y-21846733D02*
X93830984Y-21919168D01*
X111161568Y-130893963D02*
X111165142Y-130942423D01*
X77996317Y-110249164D02*
X77991555Y-110297521D01*
X93797805Y-77273045D02*
X93783700Y-77319545D01*
X77893294Y-93288782D02*
X77858154Y-93352629D01*
X75593610Y-67099681D02*
X75738685Y-66495012D01*
X31112807Y-79039378D02*
X30551591Y-79307164D01*
X56925968Y-76344358D02*
X56956794Y-76381920D01*
X38892241Y-132996809D02*
X38843603Y-132998002D01*
X114208965Y-23296378D02*
X114190391Y-23225907D01*
X56941612Y-21363948D02*
X56971507Y-21402255D01*
X60647371Y-76141848D02*
X60689649Y-76117898D01*
X110345588Y-23984421D02*
X110297522Y-23991551D01*
X39413714Y-130181594D02*
X39452743Y-130210540D01*
X72914035Y-27965080D02*
X72481209Y-27509476D01*
X76750449Y-39803994D02*
X76680454Y-39783696D01*
X57166332Y-21992058D02*
X57166332Y-23008936D01*
X93288782Y-77893291D02*
X93222524Y-77923640D01*
X60800036Y-132931665D02*
X60733053Y-132902951D01*
X97422479Y-130085935D02*
X97490147Y-130058874D01*
X42900002Y-21635701D02*
X42928715Y-21568717D01*
X77517964Y-39692815D02*
X77475685Y-39716766D01*
X43823726Y-76000997D02*
X56176271Y-76000999D01*
X60939422Y-77974947D02*
X60868950Y-77956372D01*
X76020022Y-39036803D02*
X76011715Y-38988927D01*
X97444811Y-132922643D02*
X97378553Y-132892294D01*
X74692942Y-69448192D02*
X74963424Y-68881100D01*
X43177024Y-76241361D02*
X43214585Y-76210535D01*
X76440983Y-110999489D02*
X76401255Y-110971510D01*
X74064745Y-83463738D02*
X73708870Y-82945948D01*
X93543703Y-21291961D02*
X93577209Y-21327154D01*
X93393682Y-21168842D02*
X93452746Y-21211534D01*
X114892290Y-132962140D02*
X114845791Y-132948035D01*
X77709036Y-56876367D02*
X77655641Y-56925968D01*
X39060574Y-76025052D02*
X39107710Y-76036859D01*
X110893340Y-76308354D02*
X110925972Y-76344358D01*
X39624127Y-23618078D02*
X39593300Y-23655640D01*
X77319545Y-114216303D02*
X77387856Y-114241695D01*
X93830984Y-130918173D02*
X93833369Y-130966706D01*
X93748734Y-77410188D02*
X93727959Y-77454115D01*
X60668363Y-132869388D02*
X60626685Y-132844407D01*
X76524315Y-111049436D02*
X76482036Y-111025485D01*
X81518791Y-126490523D02*
X81969913Y-126918498D01*
X75935758Y-34751971D02*
X75853181Y-34122782D01*
X60845787Y-21051964D02*
X60892286Y-21037859D01*
X60509691Y-21242360D02*
X60547253Y-21211534D01*
X93767330Y-130634706D02*
X93783700Y-130680457D01*
X60586282Y-130181591D02*
X60626685Y-130154595D01*
X43123629Y-23709034D02*
X43090123Y-23673842D01*
X64628219Y-24015538D02*
X64000081Y-23999019D01*
X60566590Y-76195824D02*
X60606318Y-76167845D01*
X93680072Y-130461355D02*
X93705053Y-130503033D01*
X76210534Y-60547253D02*
X76257456Y-60491489D01*
X77999084Y-118003239D02*
X78015530Y-118627938D01*
X93653076Y-130420952D02*
X93680072Y-130461355D01*
X43378549Y-130106710D02*
X43422475Y-130085935D01*
X43294017Y-21155592D02*
X43356982Y-21118895D01*
X93012920Y-23984423D02*
X92964854Y-23991553D01*
X114241695Y-76612143D02*
X114272044Y-76545884D01*
X60406696Y-21345356D02*
X60439328Y-21309352D01*
X57151756Y-132177255D02*
X57142276Y-132224913D01*
X64000081Y-23999019D02*
X61132036Y-23998698D01*
X79931678Y-83469404D02*
X79606849Y-83999648D01*
X115059299Y-130005768D02*
X115132040Y-130001299D01*
X110440381Y-130036863D02*
X110486880Y-130050968D01*
X81969738Y-27081659D02*
X81513993Y-27514153D01*
X76362948Y-114391055D02*
X76401255Y-114361160D01*
X114241695Y-132386859D02*
X114216303Y-132318547D01*
X76225719Y-97195618D02*
X76257458Y-97158824D01*
X85705301Y-78793955D02*
X85118924Y-79036564D01*
X114375873Y-130381921D02*
X114422794Y-130326157D01*
X93177188Y-21059869D02*
X93244856Y-21086930D01*
X39783696Y-76680452D02*
X39803994Y-76750447D01*
X29463952Y-79935112D02*
X28951401Y-80287268D01*
X97356985Y-21118895D02*
X97400388Y-21097048D01*
X76482038Y-93692818D02*
X76440985Y-93666821D01*
X111090976Y-132386859D02*
X111060627Y-132453117D01*
X76008443Y-56297518D02*
X76003681Y-56249161D01*
X60626685Y-130154595D02*
X60668363Y-130129614D01*
X57158886Y-132129189D02*
X57151756Y-132177255D01*
X57165139Y-77057579D02*
X57161564Y-77106039D01*
X23999019Y-89999918D02*
X23999000Y-117996793D01*
X110463717Y-132955373D02*
X110416886Y-132968333D01*
X39060574Y-23974944D02*
X39012916Y-23984423D01*
X77914068Y-110577524D02*
X77893292Y-110621450D01*
X56486876Y-77949034D02*
X56440377Y-77963139D01*
X78064845Y-65254550D02*
X78146860Y-65877469D01*
X96950566Y-77475683D02*
X96928719Y-77432280D01*
X110841178Y-77742543D02*
X110804384Y-77774281D01*
X29999415Y-74393020D02*
X30551568Y-74692823D01*
X39433406Y-23804174D02*
X39393678Y-23832153D01*
X39822948Y-77154263D02*
X39809609Y-77225910D01*
X96900005Y-130634706D02*
X96928719Y-130567722D01*
X56664301Y-130129615D02*
X56705979Y-130154596D01*
X110345588Y-130015576D02*
X110393245Y-130025056D01*
X57130469Y-23273043D02*
X57116364Y-23319542D01*
X77342521Y-60224204D02*
X77387856Y-60241692D01*
X76020022Y-93036806D02*
X76008445Y-92964854D01*
X25606960Y-70000555D02*
X25935106Y-70536041D01*
X43823726Y-132998002D02*
X43775087Y-132996809D01*
X93680072Y-132537650D02*
X93653076Y-132578052D01*
X110249164Y-23996314D02*
X110176274Y-23998997D01*
X97654415Y-132983427D02*
X97606757Y-132973947D01*
X97335699Y-132869388D02*
X97294020Y-132844407D01*
X93822951Y-130845739D02*
X93830984Y-130918173D01*
X25036569Y-31118893D02*
X24796137Y-31699364D01*
X96950566Y-21525314D02*
X96987263Y-21462349D01*
X43513119Y-77949032D02*
X43467368Y-77932662D01*
X56249161Y-23996314D02*
X56176271Y-23998997D01*
X77618081Y-97043205D02*
X77655643Y-97074031D01*
X32893818Y-78408041D02*
X32291647Y-78586411D01*
X88122531Y-78146859D02*
X87498453Y-78262790D01*
X77923643Y-39222521D02*
X77903952Y-39266943D01*
X114733056Y-23903946D02*
X114689653Y-23882098D01*
X74393151Y-70000351D02*
X74692942Y-69448192D01*
X77832154Y-114606321D02*
X77858151Y-114647374D01*
X72485822Y-72486025D02*
X72918492Y-72030087D01*
X93433409Y-77804175D02*
X93393682Y-77832154D01*
X39373311Y-130154598D02*
X39413714Y-130181594D01*
X77882104Y-39310347D02*
X77845407Y-39373311D01*
X114422794Y-77673845D02*
X114391056Y-77637051D01*
X76257456Y-114491492D02*
X76308352Y-114439331D01*
X93310350Y-23882101D02*
X93244856Y-23914066D01*
X39833664Y-76991058D02*
X39830981Y-77081829D01*
X57166033Y-76966703D02*
X57165139Y-77057579D01*
X114361161Y-76401257D02*
X114406699Y-76344359D01*
X76000997Y-110176273D02*
X76000999Y-97823728D01*
X43106660Y-21309352D02*
X43141020Y-21274992D01*
X57155616Y-21846733D02*
X57161564Y-21894960D01*
X110956798Y-76381920D02*
X110985744Y-76420949D01*
X39107710Y-21037859D02*
X39154209Y-21051964D01*
X38940701Y-132993235D02*
X38892241Y-132996809D01*
X56463713Y-132955373D02*
X56416882Y-132968333D01*
X92843606Y-132998002D02*
X61132036Y-132997704D01*
X56858976Y-21274992D02*
X56909873Y-21327154D01*
X39653073Y-23579049D02*
X39624127Y-23618078D01*
X114892290Y-77963140D02*
X114845791Y-77949034D01*
X39716766Y-130524320D02*
X39738613Y-130567723D01*
X97106663Y-130308357D02*
X97141023Y-130273998D01*
X122881107Y-25036569D02*
X122300636Y-24796137D01*
X76036860Y-56440377D02*
X76025053Y-56393242D01*
X111165142Y-21943420D02*
X111166335Y-21992058D01*
X110876371Y-132708038D02*
X110822976Y-132757639D01*
X111158889Y-23130184D02*
X111151760Y-23178249D01*
X114202198Y-130726954D02*
X114216303Y-130680455D01*
X76154593Y-56705979D02*
X76129612Y-56664301D01*
X61059295Y-130005768D02*
X61107755Y-130002193D01*
X93833369Y-76966701D02*
X93832474Y-77057577D01*
X60711217Y-77893294D02*
X60647370Y-77858153D01*
X39508507Y-130257461D02*
X39543699Y-130290967D01*
X96876297Y-132295384D02*
X96863337Y-132248553D01*
X80290992Y-82946138D02*
X79931678Y-83469404D01*
X39822948Y-76845734D02*
X39830981Y-76918168D01*
X121106182Y-75591958D02*
X121708353Y-75413588D01*
X39716766Y-23475682D02*
X39692815Y-23517960D01*
X97195619Y-21226717D02*
X97233926Y-21196822D01*
X57108460Y-132341523D02*
X57090972Y-132386859D01*
X24001925Y-20999068D02*
X24008997Y-21001997D01*
X110956798Y-23618076D02*
X110909877Y-23673840D01*
X77454115Y-60272040D02*
X77496969Y-60294946D01*
X77598742Y-114361160D02*
X77655641Y-114406699D01*
X56345584Y-132983427D02*
X56297518Y-132990556D01*
X96869530Y-76726952D02*
X96883635Y-76680453D01*
X60307181Y-132516964D02*
X60272040Y-132453117D01*
X110925972Y-130344360D02*
X110971510Y-130401258D01*
X57090972Y-77387858D02*
X57071281Y-77432281D01*
X76461350Y-57012736D02*
X76420948Y-56985740D01*
X43123629Y-77709035D02*
X43074028Y-77655641D01*
X57081399Y-130589812D02*
X57099994Y-130634704D01*
X66501547Y-75737209D02*
X67106175Y-75591958D01*
X60196002Y-132248553D02*
X60185355Y-132201142D01*
X77081829Y-114169018D02*
X77130186Y-114173781D01*
X60456297Y-130290965D02*
X60491489Y-130257459D01*
X96857723Y-23225909D02*
X96848243Y-23178251D01*
X114509695Y-130241364D02*
X114547257Y-130210537D01*
X76893962Y-93828899D02*
X76845736Y-93822951D01*
X118627965Y-78015530D02*
X118003236Y-77999087D01*
X76966702Y-57166033D02*
X76918168Y-57163649D01*
X114224208Y-77342523D02*
X114202198Y-77273048D01*
X114333181Y-77559016D02*
X114294950Y-77496971D01*
X93131049Y-23956369D02*
X93084218Y-23969329D01*
X97513123Y-76050965D02*
X97559622Y-76036860D01*
X76011713Y-110321598D02*
X76003681Y-110249164D01*
X93791038Y-23296381D02*
X93767330Y-23365295D01*
X110746385Y-23818406D02*
X110685297Y-23858148D01*
X76821745Y-57151756D02*
X76774087Y-57142276D01*
X57165139Y-130942423D02*
X57166332Y-130991062D01*
X129413506Y-121708625D02*
X129590213Y-121112391D01*
X77178253Y-57151756D02*
X77130187Y-57158886D01*
X114406699Y-76344359D02*
X114456300Y-76290964D01*
X76869810Y-60173778D02*
X76918168Y-60169015D01*
X110532631Y-21068334D02*
X110577524Y-21086930D01*
X42857720Y-77225910D02*
X42848240Y-77178252D01*
X43654412Y-76015573D02*
X43702478Y-76008443D01*
X85693159Y-129201387D02*
X86291381Y-129413505D01*
X33504726Y-75738631D02*
X34116165Y-75852047D01*
X97028493Y-23598741D02*
X97000513Y-23559013D01*
X42974513Y-77517962D02*
X42950563Y-77475683D01*
X82442533Y-127322263D02*
X82945928Y-127708860D01*
X39758304Y-130612146D02*
X39775792Y-130657481D01*
X93608947Y-130362953D02*
X93653076Y-130420952D01*
X77496969Y-60294946D02*
X77538647Y-60319927D01*
X114892290Y-76036862D02*
X114963196Y-76020022D01*
X93758308Y-76612141D02*
X93775795Y-76657476D01*
X97750839Y-21004680D02*
X97823729Y-21001997D01*
X111130473Y-76726953D02*
X111142280Y-76774089D01*
X32894045Y-129592025D02*
X33504981Y-129738691D01*
X56393242Y-130025056D02*
X56440377Y-130036863D01*
X77999088Y-35996764D02*
X77999003Y-38843603D01*
X39748731Y-77410188D02*
X39716766Y-77475682D01*
X56249161Y-76003682D02*
X56297518Y-76008445D01*
X124536070Y-25935120D02*
X124000358Y-25606842D01*
X93814644Y-23202138D02*
X93803998Y-23249549D01*
X56393242Y-77974946D02*
X56345584Y-77984426D01*
X128064880Y-70536063D02*
X128393027Y-70000578D01*
X97294020Y-132844407D02*
X97233926Y-132803177D01*
X76634703Y-42900002D02*
X76680454Y-42883632D01*
X75413588Y-86291653D02*
X75206089Y-85705423D01*
X56766074Y-77804177D02*
X56726346Y-77832156D01*
X96848243Y-76821745D02*
X96857723Y-76774087D01*
X56956794Y-76381920D02*
X56985740Y-76420949D01*
X77984427Y-97654415D02*
X77991556Y-97702481D01*
X56176271Y-23998997D02*
X43823726Y-23998999D01*
X96836351Y-23081828D02*
X96833668Y-23008937D01*
X56746382Y-21182588D02*
X56785411Y-21211534D01*
X76025052Y-60939422D02*
X76036859Y-60892286D01*
X25039366Y-85112825D02*
X24793944Y-85705312D01*
X30545870Y-25310169D02*
X29999438Y-25606960D01*
X77225913Y-39809609D02*
X77178255Y-39819088D01*
X56822972Y-21242360D02*
X56858976Y-21274992D01*
X115083507Y-23996314D02*
X115035149Y-23991551D01*
X77932665Y-97467371D02*
X77949035Y-97513123D01*
X57049433Y-77475684D02*
X57025482Y-77517963D01*
X114822815Y-76058871D02*
X114892290Y-76036862D01*
X29999642Y-128393157D02*
X30551801Y-128692948D01*
X24008997Y-21001997D02*
X38843603Y-21001997D01*
X60166631Y-77033298D02*
X60167525Y-76942422D01*
X56176270Y-130001000D02*
X56249161Y-130003684D01*
X93833668Y-132007941D02*
X93830984Y-132080831D01*
X43726627Y-132993235D02*
X43678401Y-132987286D01*
X39107710Y-132962140D02*
X39060574Y-132973947D01*
X92988930Y-77988284D02*
X92940704Y-77994232D01*
X43106660Y-76308353D02*
X43141020Y-76273993D01*
X114272044Y-21546882D02*
X114294950Y-21504028D01*
X24586486Y-67708594D02*
X24796221Y-68300849D01*
X79034025Y-31124833D02*
X78796144Y-31699364D01*
X76141847Y-110685296D02*
X76117896Y-110643017D01*
X56176270Y-77999002D02*
X43823725Y-77999000D01*
X110664304Y-130129615D02*
X110705983Y-130154596D01*
X76797860Y-93814644D02*
X76750449Y-93803997D01*
X43606754Y-21026052D02*
X43654412Y-21016572D01*
X77202142Y-42852687D02*
X77249553Y-42863334D01*
X129853184Y-119877243D02*
X129935187Y-119254322D01*
X56393242Y-21026052D02*
X56440377Y-21037859D01*
X43294017Y-23845403D02*
X43253615Y-23818407D01*
X96869530Y-130726956D02*
X96883635Y-130680457D01*
X61156393Y-76000999D02*
X64003239Y-76000915D01*
X43422476Y-21086930D02*
X43467368Y-21068334D01*
X110893340Y-130308356D02*
X110925972Y-130344360D01*
X81969738Y-81081665D02*
X81513993Y-81514159D01*
X56440377Y-21037859D02*
X56486877Y-21051964D01*
X97233926Y-132803177D02*
X97177027Y-132757639D01*
X28452643Y-127330459D02*
X28946132Y-127709014D01*
X110297522Y-23991551D02*
X110249164Y-23996314D01*
X76545882Y-60272040D02*
X76589808Y-60251265D01*
X83999445Y-25606960D02*
X83463739Y-25935248D01*
X60868950Y-77956372D02*
X60800036Y-77932664D01*
X110297522Y-21009443D02*
X110345588Y-21016572D01*
X38916493Y-76003680D02*
X38988927Y-76011713D01*
X60606318Y-77832156D02*
X60566590Y-77804177D01*
X121708378Y-24586414D02*
X121105955Y-24407974D01*
X76918168Y-57163649D02*
X76869811Y-57158886D01*
X93471716Y-132773282D02*
X93433409Y-132803177D01*
X114509695Y-23758633D02*
X114456300Y-23709032D01*
X96857723Y-76774087D02*
X96869530Y-76726952D01*
X96869530Y-23273044D02*
X96857723Y-23225909D01*
X114586286Y-23818405D02*
X114547257Y-23789459D01*
X97467372Y-23932661D02*
X97422479Y-23914066D01*
X77923640Y-60777476D02*
X77949032Y-60845787D01*
X27077248Y-126025242D02*
X27518784Y-126490523D01*
X60626685Y-23845401D02*
X60586282Y-23818405D01*
X57025482Y-77517963D02*
X56999486Y-77559016D01*
X114473691Y-21274992D02*
X114509695Y-21242360D01*
X76845734Y-114177051D02*
X76918168Y-114169018D01*
X56577521Y-76085932D02*
X56621447Y-76106707D01*
X56705979Y-21155592D02*
X56746382Y-21182588D01*
X93490308Y-23758635D02*
X93452746Y-23789462D01*
X42833664Y-23008937D02*
X42833963Y-21967701D01*
X60800036Y-76067337D02*
X60868950Y-76043629D01*
X56176270Y-21001997D02*
X56249161Y-21004680D01*
X110985744Y-21421947D02*
X111025486Y-21483035D01*
X93310350Y-76117895D02*
X93352629Y-76141846D01*
X77774280Y-56804381D02*
X77742542Y-56841175D01*
X89996771Y-76000912D02*
X92843606Y-76000997D01*
X93352629Y-132857153D02*
X93310350Y-132881104D01*
X77758636Y-60509691D02*
X77804175Y-60566590D01*
X60208962Y-76703618D02*
X60232670Y-76634703D01*
X56726346Y-77832156D02*
X56685293Y-77858152D01*
X76326156Y-39577205D02*
X76273995Y-39526309D01*
X64628219Y-78015544D02*
X63996783Y-77999003D01*
X43214585Y-76210535D02*
X43253615Y-76181589D01*
X60439328Y-77691647D02*
X60391052Y-77637051D01*
X39288779Y-21107705D02*
X39331633Y-21130611D01*
X78584508Y-67702209D02*
X78793956Y-68294699D01*
X111147312Y-130797861D02*
X111155619Y-130845737D01*
X128995989Y-16001997D02*
X25001781Y-16002028D01*
X78261315Y-33504981D02*
X78146823Y-34122756D01*
X38964851Y-21009443D02*
X39012916Y-21016572D01*
X77178255Y-96848243D02*
X77225912Y-96857723D01*
X76003682Y-43750835D02*
X76008445Y-43702478D01*
X76225718Y-110804384D02*
X76195822Y-110766077D01*
X56746382Y-76181590D02*
X56785411Y-76210536D01*
X60171100Y-132105039D02*
X60167525Y-132056579D01*
X31118678Y-25036665D02*
X30545870Y-25310169D01*
X93767330Y-21635701D02*
X93783700Y-21681452D01*
X39452743Y-132788465D02*
X39413714Y-132817411D01*
X24993659Y-137993664D02*
X24998210Y-137997169D01*
X114406699Y-132654643D02*
X114361161Y-132597744D01*
X39373311Y-132844407D02*
X39331633Y-132869388D01*
X96909027Y-132386859D02*
X96891540Y-132341523D01*
X73708870Y-82945948D02*
X73326383Y-82447492D01*
X42869527Y-76726952D02*
X42883632Y-76680453D01*
X76117896Y-110643017D02*
X76096049Y-110599614D01*
X97214589Y-76210535D02*
X97253618Y-76181589D01*
X42838432Y-21894960D02*
X42844380Y-21846733D01*
X39797802Y-130726957D02*
X39809609Y-130774092D01*
X76381918Y-56956794D02*
X76344357Y-56925968D01*
X77618079Y-110956797D02*
X77579050Y-110985743D01*
X77033298Y-96833966D02*
X77081831Y-96836350D01*
X60456297Y-23709032D02*
X60422791Y-23673840D01*
X97233926Y-21196822D02*
X97294020Y-21155592D01*
X77673846Y-39577205D02*
X77637052Y-39608944D01*
X115132040Y-76001298D02*
X117996792Y-76000999D01*
X56858976Y-76273995D02*
X56893336Y-76308354D01*
X114892290Y-21037859D02*
X114939425Y-21026052D01*
X111166335Y-132007941D02*
X111165142Y-132056579D01*
X76401255Y-114361160D02*
X76440983Y-114333181D01*
X76008445Y-92964854D02*
X76003682Y-92916496D01*
X74963318Y-122881345D02*
X75203856Y-122300635D01*
X78796144Y-31699364D02*
X78586501Y-32291374D01*
X77870388Y-97335698D02*
X77893294Y-97378552D01*
X93490308Y-77758636D02*
X93433409Y-77804175D01*
X114232673Y-130634704D02*
X114261387Y-130567721D01*
X77130187Y-111158889D02*
X77081829Y-111163652D01*
X114689653Y-23882098D02*
X114626688Y-23845401D01*
X77974947Y-43606754D02*
X77984427Y-43654412D01*
X77130187Y-57158886D02*
X77081829Y-57163649D01*
X97823729Y-23998999D02*
X97775091Y-23997805D01*
X115132040Y-130001299D02*
X117996793Y-130000999D01*
X110297522Y-130008446D02*
X110345588Y-130015576D01*
X110345588Y-21016572D02*
X110393246Y-21026052D01*
X114169019Y-23081826D02*
X114166634Y-23033293D01*
X115011073Y-76011715D02*
X115059299Y-76005767D01*
X39012916Y-21016572D02*
X39060574Y-21026052D01*
X77225911Y-111142279D02*
X77178253Y-111151759D01*
X42848240Y-77178252D02*
X42841110Y-77130187D01*
X43195615Y-21226717D02*
X43253614Y-21182588D01*
X93826221Y-132129189D02*
X93819092Y-132177255D01*
X87504758Y-24261357D02*
X86893825Y-24408035D01*
X79935255Y-124536267D02*
X80291130Y-125054057D01*
X97294020Y-130154597D02*
X97356985Y-130117900D01*
X43775087Y-23997805D02*
X43726627Y-23994231D01*
X76308352Y-114439331D02*
X76362948Y-114391055D01*
X76567718Y-111071284D02*
X76524315Y-111049436D01*
X114647374Y-77858153D02*
X114606321Y-77832156D01*
X57130469Y-130726955D02*
X57142276Y-130774090D01*
X77202142Y-93814644D02*
X77154266Y-93822951D01*
X77991555Y-56297518D02*
X77984425Y-56345584D01*
X89372055Y-24015523D02*
X88745450Y-24064838D01*
X39560668Y-23691644D02*
X39508507Y-23742540D01*
X124000562Y-74393033D02*
X124536048Y-74064887D01*
X60586282Y-23818405D02*
X60547253Y-23789459D01*
X90003206Y-23999000D02*
X89372055Y-24015523D01*
X111142280Y-132224913D02*
X111130473Y-132272048D01*
X110999490Y-77559016D02*
X110971510Y-77598744D01*
X76058871Y-39177185D02*
X76036862Y-39107710D01*
X56621447Y-76106707D02*
X56664301Y-76129613D01*
X93577209Y-130326159D02*
X93608947Y-130362953D01*
X111090976Y-77387858D02*
X111071284Y-77432281D01*
X39199960Y-21068334D02*
X39244853Y-21086930D01*
X31699144Y-24796221D02*
X31118678Y-25036665D01*
X114915785Y-130030670D02*
X114963196Y-130020023D01*
X76030668Y-97583117D02*
X76043628Y-97536285D01*
X111166335Y-21992058D02*
X111166335Y-23008936D01*
X39809609Y-130774092D02*
X39822948Y-130845739D01*
X110621450Y-76106707D02*
X110664304Y-76129613D01*
X60647370Y-77858153D02*
X60606318Y-77832156D01*
X97106663Y-132690647D02*
X97058388Y-132636051D01*
X77249553Y-93803997D02*
X77202142Y-93814644D01*
X24586414Y-32291622D02*
X24407974Y-32894045D01*
X56297518Y-130008446D02*
X56345584Y-130015576D01*
X77579053Y-93653076D02*
X77517964Y-93692818D01*
X114439331Y-132690647D02*
X114406699Y-132654643D01*
X111108463Y-77342522D02*
X111090976Y-77387858D01*
X77496969Y-111037720D02*
X77454115Y-111060626D01*
X38916493Y-21004680D02*
X38964851Y-21009443D01*
X42841110Y-23130185D02*
X42836347Y-23081828D01*
X93653076Y-132578052D02*
X93624130Y-132617081D01*
X110925972Y-76344358D02*
X110956798Y-76381920D01*
X60689649Y-23882098D02*
X60626685Y-23845401D01*
X39819088Y-23178251D02*
X39809609Y-23225909D01*
X129998471Y-16998526D02*
X129006341Y-16006335D01*
X39288779Y-23893291D02*
X39244853Y-23914066D01*
X111155619Y-21846733D02*
X111161568Y-21894960D01*
X97750839Y-77996317D02*
X97702481Y-77991554D01*
X43043202Y-77618079D02*
X43014256Y-77579050D01*
X34122524Y-24146853D02*
X33504751Y-24261357D01*
X93767330Y-77365296D02*
X93748734Y-77410188D01*
X43422476Y-76085930D02*
X43467368Y-76067335D01*
X77903952Y-39266943D02*
X77882104Y-39310347D01*
X114177052Y-23154260D02*
X114169019Y-23081826D01*
X76589811Y-39748731D02*
X76524317Y-39716766D01*
X56532628Y-132931665D02*
X56463713Y-132955373D01*
X93060578Y-76025052D02*
X93107713Y-76036859D01*
X76290962Y-110876370D02*
X76257456Y-110841178D01*
X93452746Y-23789462D02*
X93393682Y-23832153D01*
X76096050Y-93266946D02*
X76076359Y-93222523D01*
X81081508Y-81969912D02*
X80673468Y-82447675D01*
X114173782Y-132129189D02*
X114169019Y-132080831D01*
X26287262Y-71048592D02*
X26677744Y-71557477D01*
X93266947Y-130096053D02*
X93331636Y-130129617D01*
X60391052Y-23637046D02*
X60361157Y-23598739D01*
X60566590Y-132803177D02*
X60509691Y-132757639D01*
X65877237Y-24146816D02*
X65254316Y-24064813D01*
X86291629Y-75413579D02*
X86900319Y-75593610D01*
X76085930Y-56577520D02*
X76067335Y-56532628D01*
X39775792Y-23342520D02*
X39758304Y-23387855D01*
X77178253Y-111151759D02*
X77130187Y-111158889D01*
X34745677Y-75935180D02*
X35378364Y-75984718D01*
X110532631Y-132931665D02*
X110463717Y-132955373D01*
X70536041Y-74064887D02*
X71054051Y-73708870D01*
X110393245Y-130025056D02*
X110440381Y-130036863D01*
X39560668Y-132690647D02*
X39508507Y-132741544D01*
X129203863Y-68300629D02*
X129413506Y-67708619D01*
X56909873Y-77673845D02*
X56876367Y-77709037D01*
X76000915Y-35996760D02*
X75984470Y-35372061D01*
X76085932Y-43422475D02*
X76106707Y-43378549D01*
X39352625Y-77858151D02*
X39310347Y-77882101D01*
X97058388Y-77637049D02*
X97014259Y-77579050D01*
X76524317Y-39716766D02*
X76482038Y-39692815D01*
X122887193Y-74960621D02*
X123448409Y-74692835D01*
X39624127Y-132617081D02*
X39593300Y-132654643D01*
X25307051Y-30551801D02*
X25036569Y-31118893D01*
X66501407Y-78262757D02*
X65870838Y-78145895D01*
X76129611Y-114668366D02*
X76154592Y-114626688D01*
X114185359Y-130797861D02*
X114202198Y-130726954D01*
X71054051Y-127708876D02*
X71552507Y-127326389D01*
X60777476Y-23923637D02*
X60733053Y-23903946D01*
X81513975Y-72485822D02*
X81969913Y-72918492D01*
X111116368Y-23319542D02*
X111090976Y-23387854D01*
X93593304Y-132654643D02*
X93560672Y-132690647D01*
X97028493Y-130401260D02*
X97058388Y-130362953D01*
X97378553Y-23893290D02*
X97314706Y-23858149D01*
X77538648Y-111012739D02*
X77496969Y-111037720D01*
X97422479Y-77914067D02*
X97356985Y-77882102D01*
X115107758Y-77997809D02*
X115059299Y-77994234D01*
X24993658Y-16006335D02*
X24003335Y-16996658D01*
X68300629Y-78796143D02*
X67708619Y-78586500D01*
X77932665Y-43467368D02*
X77949035Y-43513120D01*
X92867963Y-130001301D02*
X92916496Y-130003685D01*
X56685293Y-77858152D02*
X56621447Y-77893293D01*
X76273993Y-56858976D02*
X76241361Y-56822972D01*
X56486877Y-21051964D02*
X56532628Y-21068334D01*
X71552324Y-80673467D02*
X71053861Y-80290991D01*
X124536268Y-128064751D02*
X125053847Y-127709030D01*
X111123706Y-77296383D02*
X111108463Y-77342522D01*
X114180911Y-77178254D02*
X114173782Y-77130189D01*
X43028489Y-21402255D02*
X43058384Y-21363948D01*
X96883635Y-77319545D02*
X96869530Y-77273046D01*
X65870838Y-78145895D02*
X65254316Y-78064819D01*
X76482036Y-111025485D02*
X76440983Y-110999489D01*
X76043627Y-110463716D02*
X76030667Y-110416885D01*
X93653076Y-21421947D02*
X93692818Y-21483035D01*
X111012740Y-76461351D02*
X111037721Y-76503030D01*
X120495019Y-24261308D02*
X119877502Y-24146857D01*
X77996319Y-43750835D02*
X77999002Y-43823726D01*
X43014256Y-77579050D02*
X42974513Y-77517962D01*
X72481209Y-27509476D02*
X72030087Y-27081501D01*
X42928715Y-21568717D02*
X42962279Y-21504028D01*
X89371781Y-129984461D02*
X89999919Y-130000980D01*
X114822815Y-23941125D02*
X114777479Y-23923637D01*
X93826221Y-76869810D02*
X93830984Y-76918168D01*
X129935187Y-65254316D02*
X129984462Y-64628219D01*
X24000964Y-133002046D02*
X23998997Y-133008002D01*
X111151760Y-76821747D02*
X111158889Y-76869812D01*
X60177048Y-132153266D02*
X60171100Y-132105039D01*
X69442393Y-25304193D02*
X68881100Y-25036569D01*
X25606842Y-29999642D02*
X25307051Y-30551801D01*
X93608947Y-77637049D02*
X93577209Y-77673843D01*
X61011069Y-132987286D02*
X60939422Y-132973947D01*
X39608944Y-21363948D02*
X39638839Y-21402255D01*
X110532631Y-130067338D02*
X110577524Y-130085933D01*
X77365298Y-96900005D02*
X77410191Y-96918600D01*
X23998997Y-20991997D02*
X24001925Y-20999068D01*
X93352629Y-77858151D02*
X93288782Y-77893291D01*
X76942422Y-93832474D02*
X76893962Y-93828899D01*
X43823725Y-77999000D02*
X43750835Y-77996317D01*
X114272044Y-132453117D02*
X114241695Y-132386859D01*
X39680069Y-77538647D02*
X39638839Y-77598742D01*
X114845791Y-77949034D02*
X114800040Y-77932664D01*
X97106663Y-76308353D02*
X97141023Y-76273993D01*
X114800040Y-77932664D02*
X114733056Y-77903951D01*
X57147309Y-77202141D02*
X57136662Y-77249552D01*
X42974514Y-23517960D02*
X42950563Y-23475681D01*
X93797805Y-132272048D02*
X93783700Y-132318547D01*
X93393682Y-132831157D02*
X93352629Y-132857153D01*
X93177188Y-23941127D02*
X93131049Y-23956369D01*
X110416886Y-23969328D02*
X110345588Y-23984421D01*
X77963138Y-114892290D02*
X77979977Y-114963196D01*
X29999438Y-25606960D02*
X29469386Y-25931678D01*
X110685297Y-77858152D02*
X110643018Y-77882103D01*
X93692818Y-23517960D02*
X93666822Y-23559013D01*
X111049437Y-130524318D02*
X111071284Y-130567721D01*
X96841114Y-132129189D02*
X96836351Y-132080831D01*
X129001790Y-16002830D02*
X128995989Y-16001997D01*
X76634703Y-96900005D02*
X76680454Y-96883635D01*
X111099998Y-76634703D02*
X111116368Y-76680454D01*
X60491489Y-77742543D02*
X60439328Y-77691647D01*
X77932662Y-114800039D02*
X77949032Y-114845790D01*
X82447493Y-80673616D02*
X81969738Y-81081665D01*
X78146860Y-65877469D02*
X78262791Y-66501547D01*
X85118685Y-25036665D02*
X84551598Y-25307158D01*
X23999238Y-17003078D02*
X23998997Y-20991997D01*
X110999490Y-23559011D02*
X110956798Y-23618076D01*
X126918341Y-27969731D02*
X126485847Y-27513986D01*
X82447493Y-26673610D02*
X81969738Y-27081659D01*
X114361161Y-23598739D02*
X114319931Y-23538644D01*
X111165142Y-130942423D02*
X111166335Y-130991062D01*
X96836351Y-132080831D02*
X96833668Y-132007941D01*
X76000997Y-61156393D02*
X76002190Y-61107755D01*
X60216300Y-130680455D02*
X60241692Y-130612144D01*
X28442526Y-73322257D02*
X28951412Y-73712739D01*
X61059295Y-132993235D02*
X61011069Y-132987286D01*
X66495242Y-129738642D02*
X67106175Y-129591964D01*
X56893336Y-130308356D02*
X56925968Y-130344360D01*
X43750835Y-21004680D02*
X43823726Y-21001997D01*
X77893294Y-43378549D02*
X77914069Y-43422476D01*
X77057580Y-39832471D02*
X77008942Y-39833664D01*
X93809612Y-76774087D02*
X93819092Y-76821745D01*
X28951412Y-73712739D02*
X29463930Y-74064873D01*
X111142280Y-23225907D02*
X111130473Y-23273043D01*
X42950563Y-77475683D02*
X42928715Y-77432280D01*
X72918317Y-126030288D02*
X73326367Y-125552533D01*
X60185355Y-77202141D02*
X60177048Y-77154265D01*
X129590213Y-121112391D02*
X129739953Y-120488676D01*
X60939422Y-21026052D02*
X60987080Y-21016572D01*
X39653072Y-130420952D02*
X39692815Y-130482041D01*
X76181589Y-56746381D02*
X76154593Y-56705979D01*
X77618079Y-56956794D02*
X77579050Y-56985740D01*
X74695795Y-84557594D02*
X74389727Y-83993888D01*
X43513120Y-76050965D02*
X43559619Y-76036860D01*
X79036565Y-68881076D02*
X79307046Y-69448169D01*
X111147312Y-21798857D02*
X111155619Y-21846733D01*
X60251265Y-132409191D02*
X60232670Y-132364298D01*
X24793944Y-85705312D02*
X24586414Y-86291628D01*
X97141023Y-130273998D02*
X97195619Y-130225722D01*
X111025486Y-77517963D02*
X110999490Y-77559016D01*
X76067335Y-56532628D02*
X76050965Y-56486876D01*
X77758639Y-39490305D02*
X77726007Y-39526309D01*
X97273653Y-77832155D02*
X97233926Y-77804175D01*
X110705983Y-21155592D02*
X110746385Y-21182588D01*
X76030669Y-93084217D02*
X76020022Y-93036806D01*
X97702481Y-76008443D02*
X97750839Y-76003681D01*
X56971507Y-21402255D02*
X56999486Y-21441982D01*
X42841110Y-76869811D02*
X42848240Y-76821745D01*
X77923643Y-93222524D02*
X77893294Y-93288782D01*
X34116152Y-78147954D02*
X33504751Y-78261363D01*
X76106707Y-43378549D02*
X76129613Y-43335695D01*
X78586493Y-121708600D02*
X78796228Y-122300855D01*
X126913961Y-126035005D02*
X127326539Y-125552330D01*
X39577205Y-130326159D02*
X39608944Y-130362953D01*
X42836347Y-23081828D02*
X42833664Y-23008937D01*
X57142276Y-132224913D02*
X57123702Y-132295384D01*
X92843606Y-23998999D02*
X90003206Y-23999000D01*
X56532628Y-21068334D02*
X56577520Y-21086930D01*
X65254303Y-129935187D02*
X65877469Y-129853146D01*
X93819092Y-76821745D02*
X93826221Y-76869810D01*
X93266947Y-76096048D02*
X93310350Y-76117895D01*
X42883632Y-23319543D02*
X42863334Y-23249549D01*
X97775091Y-23997805D02*
X97726631Y-23994231D01*
X114216303Y-132318547D02*
X114196005Y-132248553D01*
X60509691Y-23758633D02*
X60456297Y-23709032D01*
X88745450Y-24064838D02*
X88122531Y-24146853D01*
X77410191Y-96918600D02*
X77454117Y-96939376D01*
X77818411Y-43253615D02*
X77845407Y-43294017D01*
X39803994Y-132248553D02*
X39783696Y-132318547D01*
X42939373Y-76545882D02*
X42962279Y-76503028D01*
X114166634Y-23033293D02*
X114166335Y-21992058D01*
X27969731Y-81081665D02*
X27513986Y-81514159D01*
X77432280Y-57071281D02*
X77387857Y-57090972D01*
X67708619Y-78586500D02*
X67106200Y-78408048D01*
X110249164Y-130003684D02*
X110297522Y-130008446D01*
X77319545Y-111116367D02*
X77273046Y-111130472D01*
X110822976Y-130241364D02*
X110858980Y-130273996D01*
X30551591Y-79307164D02*
X29999438Y-79606966D01*
X56822972Y-76241363D02*
X56858976Y-76273995D01*
X129993906Y-21001566D02*
X129999036Y-20997953D01*
X97678405Y-23988283D02*
X97606758Y-23974943D01*
X42909024Y-132386859D02*
X42891536Y-132341523D01*
X114606321Y-77832156D02*
X114566594Y-77804177D01*
X114547257Y-130210537D02*
X114586286Y-130181591D01*
X75413499Y-121708625D02*
X75591951Y-121106206D01*
X79606849Y-83999648D02*
X79310170Y-84545888D01*
X56941612Y-77637051D02*
X56909873Y-77673845D01*
X93716769Y-23475682D02*
X93692818Y-23517960D01*
X65254316Y-78064819D02*
X64628219Y-78015544D01*
X114473691Y-132725007D02*
X114439331Y-132690647D01*
X39177185Y-130058874D02*
X39222520Y-130076362D01*
X38843603Y-132998002D02*
X24006094Y-132998433D01*
X76797858Y-111147312D02*
X76750447Y-111136665D01*
X76210535Y-56785411D02*
X76181589Y-56746381D01*
X76025054Y-43606754D02*
X76036861Y-43559619D01*
X77858151Y-114647374D02*
X77893291Y-114711220D01*
X97000513Y-23559013D02*
X96962282Y-23496968D01*
X76797858Y-114185358D02*
X76845734Y-114177051D01*
X60171100Y-76893962D02*
X60177048Y-76845736D01*
X118621650Y-75984718D02*
X119254557Y-75935155D01*
X77984427Y-43654412D02*
X77991556Y-43702478D01*
X25001781Y-16002028D02*
X24993658Y-16006335D01*
X93452746Y-130210540D02*
X93490308Y-130241366D01*
X110841178Y-23742538D02*
X110785414Y-23789460D01*
X76141848Y-93352628D02*
X76117898Y-93310350D01*
X57161564Y-21894960D02*
X57165139Y-21943420D01*
X93783700Y-130680457D02*
X93797805Y-130726957D01*
X39060574Y-130025058D02*
X39131046Y-130043632D01*
X57136662Y-21751446D02*
X57147309Y-21798857D01*
X77984427Y-39012916D02*
X77974947Y-39060574D01*
X114190391Y-77225912D02*
X114180911Y-77178254D01*
X115011072Y-77988286D02*
X114963196Y-77979979D01*
X77870388Y-43335695D02*
X77893294Y-43378549D01*
X39692815Y-23517960D02*
X39653073Y-23579049D01*
X43750835Y-130003685D02*
X43823725Y-130001002D01*
X56925968Y-23655638D02*
X56876367Y-23709032D01*
X76612143Y-93758307D02*
X76567720Y-93738616D01*
X42841110Y-77130187D02*
X42836347Y-77081829D01*
X111116368Y-76680454D02*
X111130473Y-76726953D01*
X39830981Y-76918168D02*
X39833664Y-76991058D01*
X76750447Y-114196005D02*
X76797858Y-114185358D01*
X93060578Y-132973947D02*
X93012920Y-132983427D01*
X88745684Y-129935186D02*
X89371781Y-129984461D01*
X71054072Y-26291139D02*
X70536063Y-25935120D01*
X76003681Y-110249164D02*
X76000997Y-110176273D01*
X110785414Y-130210538D02*
X110822976Y-130241364D01*
X60547253Y-23789459D02*
X60509691Y-23758633D01*
X96918601Y-76589809D02*
X96939376Y-76545882D01*
X57165139Y-21943420D02*
X57166332Y-21992058D01*
X97273653Y-23832153D02*
X97233926Y-23804174D01*
X93826221Y-77130186D02*
X93814644Y-77202139D01*
X43074028Y-76344357D02*
X43106660Y-76308353D01*
X72030262Y-72918334D02*
X72485822Y-72486025D01*
X114456300Y-23709032D02*
X114422794Y-23673840D01*
X73326532Y-71552324D02*
X73709008Y-71053861D01*
X42962279Y-21504028D02*
X42987260Y-21462349D01*
X79310170Y-30545882D02*
X79034025Y-31124833D01*
X43378549Y-132892294D02*
X43335695Y-132869388D01*
X32893818Y-24408035D02*
X32291399Y-24586486D01*
X93819092Y-132177255D02*
X93809612Y-132224913D01*
X110822976Y-132757639D02*
X110785414Y-132788465D01*
X23998997Y-136992865D02*
X24001529Y-137001473D01*
X93814644Y-77202139D02*
X93797805Y-77273045D01*
X97356985Y-130117900D02*
X97422479Y-130085935D01*
X57155616Y-130845737D02*
X57161564Y-130893963D01*
X96987263Y-21462349D02*
X97014259Y-21421947D01*
X96883635Y-76680453D02*
X96900005Y-76634701D01*
X97014259Y-21421947D02*
X97058388Y-21363948D01*
X39748731Y-132409191D02*
X39716766Y-132474685D01*
X77106037Y-60171100D02*
X77154263Y-60177048D01*
X75984718Y-89378356D02*
X75935182Y-88745709D01*
X93767330Y-23365295D02*
X93738616Y-23432278D01*
X92867963Y-21002295D02*
X92940704Y-21006764D01*
X110664304Y-21130611D02*
X110705983Y-21155592D01*
X93526312Y-76273993D02*
X93577209Y-76326154D01*
X96918601Y-21590808D02*
X96950566Y-21525314D01*
X76440985Y-93666821D02*
X76401257Y-93638842D01*
X114177052Y-76845736D02*
X114190391Y-76774089D01*
X39060574Y-21026052D02*
X39107710Y-21037859D01*
X93373315Y-130154598D02*
X93413717Y-130181594D01*
X114422794Y-23673840D02*
X114391056Y-23637046D01*
X61035145Y-21009443D02*
X61083503Y-21004680D01*
X38988927Y-76011713D02*
X39060574Y-76025052D01*
X77979977Y-114963196D02*
X77988284Y-115011072D01*
X83999649Y-74393151D02*
X84551808Y-74692942D01*
X23998997Y-133008002D02*
X23998997Y-136992865D01*
X110705983Y-130154596D02*
X110746385Y-130181592D01*
X24015536Y-64628193D02*
X24064811Y-65254290D01*
X93331636Y-130129617D02*
X93373315Y-130154598D01*
X56746381Y-130181592D02*
X56785411Y-130210538D01*
X78015543Y-64628193D02*
X78064845Y-65254550D01*
X76015575Y-43654412D02*
X76025054Y-43606754D01*
X76362950Y-93608947D02*
X76326156Y-93577208D01*
X76308353Y-56893336D02*
X76273993Y-56858976D01*
X114547257Y-23789459D02*
X114509695Y-23758633D01*
X76257456Y-110841178D02*
X76225718Y-110804384D01*
X96841114Y-77130187D02*
X96836351Y-77081829D01*
X42876294Y-21704615D02*
X42900002Y-21635701D01*
X42876294Y-132295384D02*
X42863334Y-132248553D01*
X43253614Y-130181593D02*
X43314703Y-130141851D01*
X85699371Y-75203856D02*
X86291629Y-75413579D01*
X39266943Y-130096053D02*
X39331633Y-130129617D01*
X57090972Y-132386859D02*
X57060623Y-132453117D01*
X77994232Y-61059295D02*
X77997807Y-61107755D01*
X77963141Y-39107710D02*
X77949035Y-39154209D01*
X97606758Y-23974943D02*
X97536286Y-23956369D01*
X120495249Y-75738636D02*
X121106182Y-75591958D01*
X110532631Y-76067337D02*
X110577524Y-76085932D01*
X60509691Y-132757639D02*
X60456297Y-132708038D01*
X77726007Y-39526309D02*
X77673846Y-39577205D01*
X56785411Y-76210536D02*
X56822972Y-76241363D01*
X93490308Y-130241366D02*
X93526312Y-130273998D01*
X97606757Y-21026052D02*
X97654415Y-21016572D01*
X130001003Y-20991997D02*
X130001003Y-17007134D01*
X114868954Y-130043630D02*
X114915785Y-130030670D01*
X110643018Y-23882099D02*
X110577524Y-23914064D01*
X82946139Y-73709008D02*
X83463937Y-74064873D01*
X60241692Y-23387853D02*
X60216300Y-23319542D01*
X76503028Y-60294946D02*
X76545882Y-60272040D01*
X71053861Y-80290991D02*
X70536063Y-79935126D01*
X39154209Y-21051964D02*
X39199960Y-21068334D01*
X70000351Y-25606842D02*
X69442393Y-25304193D01*
X89371781Y-75984455D02*
X89996771Y-76000912D01*
X96987263Y-130461354D02*
X97028493Y-130401260D01*
X97422479Y-76085930D02*
X97467372Y-76067335D01*
X76482036Y-114307184D02*
X76524314Y-114283233D01*
X77387856Y-114241695D02*
X77454115Y-114272043D01*
X77991557Y-92964854D02*
X77984427Y-93012919D01*
X77893291Y-114711220D02*
X77914067Y-114755146D01*
X76918168Y-114169018D02*
X77008939Y-114166335D01*
X39738613Y-23432278D02*
X39716766Y-23475682D01*
X43253615Y-76181589D02*
X43294017Y-76154593D01*
X121702216Y-129415498D02*
X122306860Y-129201381D01*
X57060623Y-76545884D02*
X57081399Y-76589810D01*
X27513986Y-81514159D02*
X27081676Y-81969717D01*
X76043628Y-97536285D02*
X76058871Y-97490146D01*
X60241692Y-130612144D02*
X60261383Y-130567721D01*
X60283230Y-77475685D02*
X60261383Y-77432281D01*
X57090972Y-23387854D02*
X57060623Y-23454112D01*
X76043629Y-93131049D02*
X76030669Y-93084217D01*
X77914069Y-43422476D02*
X77932665Y-43467368D01*
X114689653Y-130117898D02*
X114733056Y-130096051D01*
X93107713Y-132962140D02*
X93060578Y-132973947D01*
X39767326Y-21635701D02*
X39783696Y-21681452D01*
X76750447Y-111136665D02*
X76703616Y-111123705D01*
X93833369Y-130966706D02*
X93833668Y-132007941D01*
X82945949Y-26291123D02*
X82447493Y-26673610D01*
X97726631Y-23994231D02*
X97678405Y-23988283D01*
X111071284Y-21568717D02*
X111090976Y-21613140D01*
X122306860Y-129201381D02*
X122881322Y-128963334D01*
X77804175Y-56766074D02*
X77774280Y-56804381D01*
X39107710Y-23963137D02*
X39060574Y-23974944D01*
X114626688Y-132844407D02*
X114586286Y-132817411D01*
X76482038Y-39692815D02*
X76440985Y-39666818D01*
X76067337Y-43467368D02*
X76085932Y-43422475D01*
X26673445Y-125552310D02*
X27077248Y-126025242D01*
X114647374Y-76141848D02*
X114689653Y-76117898D01*
X56486876Y-130050968D02*
X56532628Y-130067338D01*
X114319931Y-23538644D02*
X114294950Y-23496966D01*
X39288779Y-132892294D02*
X39222520Y-132922643D01*
X86894052Y-129592025D02*
X87504988Y-129738691D01*
X56532628Y-130067338D02*
X56577520Y-130085933D01*
X93803998Y-23249549D02*
X93791038Y-23296381D01*
X73326383Y-82447492D02*
X72918334Y-81969737D01*
X43606754Y-132973947D02*
X43559619Y-132962140D01*
X60167525Y-76942422D02*
X60171100Y-76893962D01*
X96841114Y-76869811D02*
X96848243Y-76821745D01*
X60261383Y-76567720D02*
X60283230Y-76524317D01*
X26290985Y-28946132D02*
X25935120Y-29463930D01*
X96848243Y-23178251D02*
X96841114Y-23130185D01*
X110685297Y-132857153D02*
X110621450Y-132892294D01*
X110486880Y-76050967D02*
X110532631Y-76067337D01*
X123448199Y-79307057D02*
X122881107Y-79036575D01*
X77845407Y-97294020D02*
X77870388Y-97335698D01*
X114547257Y-21211534D02*
X114586286Y-21182588D01*
X24015524Y-35372035D02*
X23998997Y-36003276D01*
X57165139Y-132056579D02*
X57158886Y-132129189D01*
X75591951Y-121106206D02*
X75737242Y-120501413D01*
X56985740Y-130420951D02*
X57012736Y-130461353D01*
X78586501Y-32291374D02*
X78407981Y-32894045D01*
X60173778Y-21870810D02*
X60180908Y-21822744D01*
X110321598Y-77988286D02*
X110249164Y-77996318D01*
X110416886Y-77969332D02*
X110369475Y-77979978D01*
X129739953Y-66488670D02*
X129853184Y-65877237D01*
X61132036Y-23998698D02*
X61083503Y-23996314D01*
X77845407Y-43294017D02*
X77870388Y-43335695D01*
X27969711Y-72918317D02*
X28442526Y-73322257D01*
X77858151Y-56685293D02*
X77832155Y-56726346D01*
X64628193Y-129984463D02*
X65254303Y-129935187D01*
X60375869Y-21382918D02*
X60406696Y-21345356D01*
X81081508Y-27969906D02*
X80669547Y-28452643D01*
X96883635Y-130680457D02*
X96900005Y-130634706D01*
X115083507Y-21004680D02*
X115156397Y-21001997D01*
X30551568Y-74692823D02*
X31112819Y-74960627D01*
X42836347Y-76918168D02*
X42841110Y-76869811D01*
X39107710Y-76036859D02*
X39154209Y-76050965D01*
X97058388Y-130362953D02*
X97106663Y-130308357D01*
X39814641Y-76797858D02*
X39822948Y-76845734D01*
X42863334Y-130750451D02*
X42876294Y-130703620D01*
X86297791Y-78584507D02*
X85705301Y-78793955D01*
X125053847Y-127709030D02*
X125547264Y-127330531D01*
X93577209Y-77673843D02*
X93543703Y-77709035D01*
X92988931Y-21012713D02*
X93060578Y-21026052D01*
X129738643Y-33504751D02*
X129591965Y-32893818D01*
X97177027Y-132757639D02*
X97141023Y-132725007D01*
X96962282Y-23496968D02*
X96928719Y-23432278D01*
X128963442Y-31118917D02*
X128692961Y-30551824D01*
X114456300Y-77709037D02*
X114422794Y-77673845D01*
X96838435Y-21894960D02*
X96844384Y-21846733D01*
X96939376Y-76545882D02*
X96962282Y-76503028D01*
X79935113Y-70536041D02*
X80291130Y-71054051D01*
X39803994Y-76750447D02*
X39814641Y-76797858D01*
X114586286Y-130181591D02*
X114626688Y-130154595D01*
X72030087Y-81081507D02*
X71552324Y-80673467D01*
X72918334Y-81969737D02*
X72485840Y-81513992D01*
X114202198Y-21727951D02*
X114216303Y-21681452D01*
X126485829Y-126486031D02*
X126913961Y-126035005D01*
X39692815Y-130482041D02*
X39716766Y-130524320D01*
X60439328Y-76308355D02*
X60473687Y-76273995D01*
X27514153Y-72486007D02*
X27969711Y-72918317D01*
X73326367Y-125552533D02*
X73705088Y-125059122D01*
X110297522Y-76008445D02*
X110345588Y-76015575D01*
X76003681Y-56249161D02*
X76000997Y-56176270D01*
X56577520Y-77914069D02*
X56532628Y-77932664D01*
X84551598Y-25307158D02*
X83999445Y-25606960D01*
X61083503Y-21004680D02*
X61132036Y-21002295D01*
X60346924Y-76420949D02*
X60391052Y-76362950D01*
X84551808Y-74692942D02*
X85118900Y-74963424D01*
X71557467Y-26677736D02*
X71054072Y-26291139D01*
X110971510Y-77598744D02*
X110941615Y-77637051D01*
X79606967Y-70000555D02*
X79935113Y-70536041D01*
X121105955Y-24407974D02*
X120495019Y-24261308D01*
X77991556Y-43702478D02*
X77996319Y-43750835D01*
X60307181Y-76482038D02*
X60346924Y-76420949D01*
X110925972Y-132654643D02*
X110876371Y-132708038D01*
X93393682Y-76167843D02*
X93452746Y-76210534D01*
X42962279Y-130503033D02*
X43000510Y-130440988D01*
X83463937Y-74064873D02*
X83999649Y-74393151D01*
X56664301Y-21130611D02*
X56705979Y-21155592D01*
X67106175Y-75591958D02*
X67702209Y-75415492D01*
X93791038Y-76703615D02*
X93809612Y-76774087D01*
X75935182Y-88745709D02*
X75853179Y-88122775D01*
X77387859Y-93758307D02*
X77319548Y-93783699D01*
X97233926Y-77804175D02*
X97195619Y-77774280D01*
X77789463Y-110785414D02*
X77758637Y-110822976D01*
X111081402Y-76589810D02*
X111099998Y-76634703D01*
X114733056Y-77903951D02*
X114689653Y-77882104D01*
X76085932Y-97422478D02*
X76117897Y-97356985D01*
X24146816Y-34122756D02*
X24064813Y-34745677D01*
X93638842Y-76401255D02*
X93680072Y-76461350D01*
X93814644Y-21798857D02*
X93822951Y-21846733D01*
X121708353Y-75413588D02*
X122294583Y-75206089D01*
X26287254Y-82951418D02*
X25935120Y-83463936D01*
X93393682Y-23832153D02*
X93352629Y-23858150D01*
X111025486Y-23517959D02*
X110999490Y-23559011D01*
X26677744Y-71557477D02*
X27081659Y-72030262D01*
X76918170Y-39830981D02*
X76845736Y-39822948D01*
X60166631Y-23033293D02*
X60166332Y-21992058D01*
X110249164Y-132995319D02*
X110176274Y-132998002D01*
X38916493Y-130003685D02*
X38964851Y-130008448D01*
X76942420Y-111165142D02*
X76893960Y-111161567D01*
X76680454Y-96883635D02*
X76726953Y-96869530D01*
X43823726Y-23998999D02*
X43775087Y-23997805D01*
X60166631Y-130966704D02*
X60171100Y-130893963D01*
X110726350Y-77832156D02*
X110685297Y-77858152D01*
X128061167Y-124541631D02*
X128393158Y-124000357D01*
X96928719Y-23432278D02*
X96909027Y-23387855D01*
X123448409Y-74692835D02*
X124000562Y-74393033D01*
X76612141Y-111090975D02*
X76567718Y-111071284D01*
X77454115Y-111060626D02*
X77410189Y-111081402D01*
X43467368Y-21068334D02*
X43536283Y-21044626D01*
X85118900Y-74963424D02*
X85699371Y-75203856D01*
X96928719Y-132431282D02*
X96909027Y-132386859D01*
X43000510Y-23559013D02*
X42974514Y-23517960D01*
X60915782Y-130030670D02*
X60963192Y-130020023D01*
X39526309Y-77726004D02*
X39471713Y-77774280D01*
X110369475Y-77979978D02*
X110321598Y-77988286D01*
X83999445Y-79606966D02*
X83463959Y-79935112D01*
X97823729Y-130001002D02*
X110176274Y-130001000D01*
X39413714Y-76181588D02*
X39471713Y-76225717D01*
X96833966Y-21967701D02*
X96838435Y-21894960D01*
X97702481Y-130008448D02*
X97750839Y-130003685D01*
X77033296Y-57166033D02*
X76966702Y-57166033D01*
X110555192Y-77923642D02*
X110509856Y-77941130D01*
X114626688Y-23845401D02*
X114586286Y-23818405D01*
X76020021Y-110369474D02*
X76011713Y-110321598D01*
X42848240Y-23178251D02*
X42841110Y-23130185D01*
X57151756Y-23178249D02*
X57142276Y-23225907D01*
X77988284Y-61011069D02*
X77994232Y-61059295D01*
X97058388Y-132636051D02*
X97014259Y-132578052D01*
X114528287Y-76225719D02*
X114586286Y-76181591D01*
X97490147Y-77941128D02*
X97422479Y-77914067D01*
X97654415Y-21016572D02*
X97702481Y-21009443D01*
X76002190Y-61107755D02*
X76005765Y-61059295D01*
X39331633Y-130129617D02*
X39373311Y-130154598D01*
X57130469Y-76726953D02*
X57142276Y-76774089D01*
X120495019Y-78261314D02*
X119877244Y-78146822D01*
X56685293Y-23858148D02*
X56621447Y-23893289D01*
X114626688Y-21155592D02*
X114668367Y-21130611D01*
X89999919Y-130000980D02*
X92867963Y-130001301D01*
X57099994Y-76634703D02*
X57116364Y-76680454D01*
X77637051Y-43058384D02*
X77673845Y-43090123D01*
X43195615Y-130225722D02*
X43253614Y-130181593D01*
X43314703Y-130141851D02*
X43378549Y-130106710D01*
X60169015Y-21919168D02*
X60173778Y-21870810D01*
X39692815Y-21483035D02*
X39716766Y-21525314D01*
X77999001Y-56176271D02*
X77996317Y-56249161D01*
X96848243Y-77178252D02*
X96841114Y-77130187D01*
X31705417Y-78793910D02*
X31112807Y-79039378D01*
X32291622Y-75413579D02*
X32894045Y-75592019D01*
X77538647Y-60319927D02*
X77598742Y-60361157D01*
X39716766Y-76524314D02*
X39748731Y-76589808D01*
X39244853Y-77914067D02*
X39177185Y-77941128D01*
X129994602Y-132998673D02*
X115156397Y-132998002D01*
X36003206Y-23999000D02*
X35365348Y-24015960D01*
X77845405Y-110705982D02*
X77818409Y-110746385D01*
X76210537Y-39452743D02*
X76167845Y-39393678D01*
X39222520Y-130076362D02*
X39266943Y-130096053D01*
X56621447Y-132892294D02*
X56577520Y-132913069D01*
X39543699Y-130290967D02*
X39577205Y-130326159D01*
X34745416Y-129935158D02*
X35365362Y-129984040D01*
X111166335Y-23008936D02*
X111165142Y-23057574D01*
X57025483Y-132516964D02*
X56999486Y-132558017D01*
X39593300Y-23655640D02*
X39560668Y-23691644D01*
X79036672Y-122881321D02*
X79307165Y-123448408D01*
X43090123Y-132672845D02*
X43058384Y-132636051D01*
X77579050Y-110985743D02*
X77538648Y-111012739D01*
X56297518Y-132990556D02*
X56249161Y-132995319D01*
X72485840Y-81513992D02*
X72030087Y-81081507D01*
X111155619Y-130845737D02*
X111161568Y-130893963D01*
X77387857Y-57090972D02*
X77342521Y-57108460D01*
X76589810Y-42918597D02*
X76634703Y-42900002D01*
X97823729Y-132998002D02*
X97775091Y-132996809D01*
X35365362Y-129984040D02*
X36003210Y-130001002D01*
X111136666Y-21751446D02*
X111147312Y-21798857D01*
X110876371Y-77709037D02*
X110841178Y-77742543D01*
X86291406Y-24586486D02*
X85699151Y-24796221D01*
X60294946Y-21504028D02*
X60319927Y-21462349D01*
X76001296Y-115132039D02*
X76005765Y-115059298D01*
X110643018Y-77882103D02*
X110599615Y-77903950D01*
X39543699Y-21291961D02*
X39577205Y-21327154D01*
X76524316Y-96950566D02*
X76567719Y-96928718D01*
X93830984Y-132080831D02*
X93826221Y-132129189D01*
X43536282Y-130043631D02*
X43583114Y-130030671D01*
X77319547Y-96883635D02*
X77365298Y-96900005D01*
X76210536Y-43214585D02*
X76241363Y-43177024D01*
X24146812Y-65877211D02*
X24260049Y-66488683D01*
X24260049Y-66488683D02*
X24409791Y-67112397D01*
X39608944Y-130362953D02*
X39653072Y-130420952D01*
X56685293Y-132857153D02*
X56621447Y-132892294D01*
X35378350Y-78015281D02*
X34745443Y-78064844D01*
X42928715Y-132431282D02*
X42909024Y-132386859D01*
X77130189Y-96841113D02*
X77178255Y-96848243D01*
X56577520Y-130085933D02*
X56621447Y-130106709D01*
X119877476Y-129853146D02*
X120494993Y-129738697D01*
X39833365Y-23033295D02*
X39828896Y-23106036D01*
X110746385Y-21182588D02*
X110785414Y-21211534D01*
X93177188Y-130058874D02*
X93222524Y-130076362D01*
X39199960Y-76067335D02*
X39266943Y-76096048D01*
X67106200Y-78408048D02*
X66501407Y-78262757D01*
X60202194Y-130726954D02*
X60216300Y-130680455D01*
X93666822Y-23559013D02*
X93638842Y-23598741D01*
X57060623Y-132453117D02*
X57025483Y-132516964D01*
X77949032Y-114845790D02*
X77963138Y-114892290D01*
X77726005Y-110858980D02*
X77691645Y-110893339D01*
X34745443Y-24064838D02*
X34122524Y-24146853D01*
X96852691Y-130797862D02*
X96869530Y-130726956D01*
X93266947Y-132902951D02*
X93199963Y-132931665D01*
X114261387Y-23432276D02*
X114241695Y-23387853D01*
X77273046Y-111130472D02*
X77225911Y-111142279D01*
X110463717Y-77956372D02*
X110416886Y-77969332D01*
X38964851Y-23991553D02*
X38916493Y-23996316D01*
X77758639Y-43177024D02*
X77789465Y-43214585D01*
X24407967Y-121105928D02*
X24586405Y-121708352D01*
X114196005Y-132248553D02*
X114180911Y-132177255D01*
X129006341Y-16006335D02*
X129001790Y-16002830D01*
X38843603Y-21001997D02*
X38916493Y-21004680D01*
X93310350Y-132881104D02*
X93266947Y-132902951D01*
X96863337Y-132248553D02*
X96848243Y-132177255D01*
X24015960Y-118634651D02*
X24064838Y-119254556D01*
X76015573Y-114987083D02*
X76025052Y-114939425D01*
X39352626Y-76141846D02*
X39413714Y-76181588D01*
X43014256Y-76420948D02*
X43043202Y-76381918D01*
X39577205Y-77673843D02*
X39526309Y-77726004D01*
X128695807Y-69442393D02*
X128963431Y-68881100D01*
X39833365Y-130966706D02*
X39833664Y-132007941D01*
X39266943Y-76096048D02*
X39310347Y-76117895D01*
X96857723Y-77225910D02*
X96848243Y-77178252D01*
X77691648Y-93560671D02*
X77637052Y-93608947D01*
X114822815Y-130058872D02*
X114868954Y-130043630D01*
X39716766Y-132474685D02*
X39692815Y-132516964D01*
X73326383Y-28447486D02*
X72914035Y-27965080D01*
X125054079Y-80291145D02*
X124541632Y-79938839D01*
X77319548Y-93783699D02*
X77249553Y-93803997D01*
X24064838Y-119254556D02*
X24146853Y-119877475D01*
X76344357Y-56925968D02*
X76308353Y-56893336D01*
X60963193Y-23979974D02*
X60915782Y-23969327D01*
X70000328Y-128393170D02*
X70536261Y-128064751D01*
X114361161Y-132597744D02*
X114319931Y-132537650D01*
X97536286Y-23956369D02*
X97467372Y-23932661D01*
X73705088Y-125059122D02*
X74064731Y-124536289D01*
X97536286Y-21044626D02*
X97606757Y-21026052D01*
X76050965Y-56486876D02*
X76036860Y-56440377D01*
X77997810Y-38892241D02*
X77994235Y-38940701D01*
X60987080Y-21016572D02*
X61035145Y-21009443D01*
X93705053Y-76503028D02*
X93727959Y-76545882D01*
X129591965Y-32893818D02*
X129413514Y-32291399D01*
X119254584Y-24064841D02*
X118634638Y-24015959D01*
X97177027Y-23758635D02*
X97141023Y-23726003D01*
X60232670Y-132364298D02*
X60208962Y-132295384D01*
X97141023Y-21274992D02*
X97195619Y-21226717D01*
X111060627Y-23454112D02*
X111025486Y-23517959D01*
X76036861Y-43559619D02*
X76050967Y-43513119D01*
X42869527Y-77273046D02*
X42857720Y-77225910D01*
X42836347Y-132080831D02*
X42833664Y-132007941D01*
X77988284Y-115011072D02*
X77994232Y-115059298D01*
X76845736Y-93822951D02*
X76797860Y-93814644D01*
X43356982Y-77882102D02*
X43314703Y-77858151D01*
X76966701Y-60166631D02*
X77057577Y-60167525D01*
X97702481Y-77991554D02*
X97654415Y-77984424D01*
X60307181Y-77517963D02*
X60283230Y-77475685D01*
X76401255Y-110971510D02*
X76362948Y-110941615D01*
X56345584Y-130015576D02*
X56393242Y-130025056D01*
X76821747Y-96848243D02*
X76869812Y-96841113D01*
X76025053Y-56393242D02*
X76015573Y-56345584D01*
X39828896Y-23106036D02*
X39819088Y-23178251D01*
X77984425Y-110345587D02*
X77974945Y-110393245D01*
X60689649Y-21118895D02*
X60733053Y-21097048D01*
X77949035Y-93154212D02*
X77923643Y-93222524D01*
X24261362Y-87504732D02*
X24147946Y-88116171D01*
X77691645Y-110893339D02*
X77655641Y-110925971D01*
X64003239Y-76000915D02*
X64628193Y-75984457D01*
X128393158Y-124000357D02*
X128692830Y-123448431D01*
X77517961Y-114307184D02*
X77559014Y-114333181D01*
X39471713Y-21226717D02*
X39508507Y-21258455D01*
X57037717Y-23496966D02*
X57012736Y-23538645D01*
X114586286Y-132817411D02*
X114528287Y-132773282D01*
X76869812Y-42841110D02*
X76918170Y-42836347D01*
X57166332Y-132007941D02*
X57165139Y-132056579D01*
X76225717Y-114528286D02*
X76257456Y-114491492D01*
X75984470Y-35372061D02*
X75935758Y-34751971D01*
X114190391Y-76774089D02*
X114202198Y-76726954D01*
X76703616Y-111123705D02*
X76657477Y-111108463D01*
X87504988Y-129738691D02*
X88122763Y-129853183D01*
X110956798Y-21382918D02*
X110985744Y-21421947D01*
X76545882Y-57060623D02*
X76503028Y-57037717D01*
X88116172Y-75852047D02*
X88745423Y-75935152D01*
X129996665Y-137003339D02*
X130000810Y-136996679D01*
X125552534Y-80673632D02*
X125054079Y-80291145D01*
X77949035Y-39154209D02*
X77923643Y-39222521D01*
X60939422Y-76025055D02*
X61011069Y-76011715D01*
X77225912Y-96857723D02*
X77273048Y-96869530D01*
X60261383Y-130567721D02*
X60294946Y-130503031D01*
X43000510Y-130440988D02*
X43028489Y-130401260D01*
X110621450Y-21107705D02*
X110664304Y-21130611D01*
X60755143Y-77914069D02*
X60711217Y-77893294D01*
X114755147Y-21086930D02*
X114800040Y-21068334D01*
X111166037Y-76966703D02*
X111165142Y-77057579D01*
X60777475Y-130076360D02*
X60822811Y-130058872D01*
X74963328Y-31118678D02*
X74692835Y-30551591D01*
X114166335Y-21992058D02*
X114169019Y-21919168D01*
X56621447Y-77893293D02*
X56577520Y-77914069D01*
X33504751Y-78261363D02*
X32893818Y-78408041D01*
X60473687Y-21274992D02*
X60509691Y-21242360D01*
X110176274Y-77999002D02*
X97823729Y-77999000D01*
X119248016Y-78064240D02*
X118627965Y-78015530D01*
X76167844Y-97273653D02*
X76195824Y-97233925D01*
X27518784Y-126490523D02*
X27969906Y-126918498D01*
X27081659Y-72030262D02*
X27514153Y-72486007D01*
X78261315Y-87504987D02*
X78146823Y-88122762D01*
X114939425Y-21026052D02*
X114987083Y-21016572D01*
X43775087Y-132996809D02*
X43726627Y-132993235D01*
X80673468Y-82447675D02*
X80290992Y-82946138D01*
X93560672Y-132690647D02*
X93508510Y-132741544D01*
X114987083Y-23984421D02*
X114939426Y-23974941D01*
X126918516Y-81969931D02*
X126486032Y-81514177D01*
X83463937Y-128064879D02*
X83999649Y-128393157D01*
X60283230Y-76524317D02*
X60307181Y-76482038D01*
X43678401Y-23988283D02*
X43606754Y-23974943D01*
X110297522Y-132990556D02*
X110249164Y-132995319D01*
X128692961Y-30551824D02*
X128396310Y-30005271D01*
X39393678Y-77832154D02*
X39352625Y-77858151D01*
X93638842Y-23598741D02*
X93608947Y-23637048D01*
X97559622Y-132962140D02*
X97513123Y-132948035D01*
X92892245Y-76002190D02*
X92940704Y-76005765D01*
X97654415Y-77984424D02*
X97583117Y-77969331D01*
X111151760Y-132177255D02*
X111142280Y-132224913D01*
X97314706Y-23858149D02*
X97273653Y-23832153D01*
X23998997Y-36003276D02*
X23999086Y-64003303D01*
X23999000Y-117996793D02*
X24015960Y-118634651D01*
X97654415Y-76015573D02*
X97702481Y-76008443D01*
X76000997Y-56176270D02*
X76000999Y-43823725D01*
X93084218Y-23969329D02*
X93012920Y-23984423D01*
X76050967Y-43513119D02*
X76067337Y-43467368D01*
X77870386Y-110664304D02*
X77845405Y-110705982D01*
X111049437Y-21525314D02*
X111071284Y-21568717D01*
X125552331Y-26673461D02*
X125053868Y-26290985D01*
X85118924Y-79036564D02*
X84551831Y-79307045D01*
X97400388Y-21097048D02*
X97467372Y-21068334D01*
X124000358Y-25606842D02*
X123448199Y-25307051D01*
X56249161Y-130003684D02*
X56297518Y-130008446D01*
X77081829Y-111163652D02*
X77033296Y-111166036D01*
X114391056Y-77637051D02*
X114361161Y-77598744D01*
X76381920Y-39624127D02*
X76326156Y-39577205D01*
X76008445Y-43702478D02*
X76015575Y-43654412D01*
X110909877Y-23673840D02*
X110876371Y-23709032D01*
X57142276Y-23225907D02*
X57130469Y-23273043D01*
X42918597Y-76589809D02*
X42939373Y-76545882D01*
X96900005Y-21635701D02*
X96918601Y-21590808D01*
X32291647Y-78586411D02*
X31705417Y-78793910D01*
X29463930Y-74064873D02*
X29999415Y-74393020D01*
X33504751Y-24261357D02*
X32893818Y-24408035D01*
X60177048Y-23154260D02*
X60171100Y-23106034D01*
X43233922Y-132803177D02*
X43177024Y-132757639D01*
X77845407Y-39373311D02*
X77818411Y-39413714D01*
X39373311Y-21155592D02*
X39433406Y-21196822D01*
X76774087Y-60190387D02*
X76821745Y-60180908D01*
X78146819Y-119877217D02*
X78261309Y-120494992D01*
X60202194Y-21727951D02*
X60224204Y-21658476D01*
X110621450Y-132892294D02*
X110577524Y-132913069D01*
X77273048Y-39797802D02*
X77225913Y-39809609D01*
X60319927Y-130461353D02*
X60346923Y-130420950D01*
X111037721Y-132495971D02*
X110999490Y-132558017D01*
X24261308Y-33504981D02*
X24146816Y-34122756D01*
X43058384Y-132636051D02*
X43028489Y-132597744D01*
X75413579Y-67708371D02*
X75593610Y-67099681D01*
X39593300Y-132654643D02*
X39560668Y-132690647D01*
X57025483Y-21483035D02*
X57049433Y-21525314D01*
X86900319Y-75593610D02*
X87504988Y-75738685D01*
X24064811Y-65254290D02*
X24146812Y-65877211D01*
X114777479Y-130076360D02*
X114822815Y-130058872D01*
X43314703Y-77858151D02*
X43253614Y-77818409D01*
X57081399Y-76589810D02*
X57099994Y-76634703D01*
X111060627Y-132453117D02*
X111037721Y-132495971D01*
X60733053Y-21097048D02*
X60777476Y-21077356D01*
X42848240Y-76821745D02*
X42857720Y-76774087D01*
X76129614Y-39331633D02*
X76106708Y-39288779D01*
X110909877Y-77673845D02*
X110876371Y-77709037D01*
X110440381Y-76036861D02*
X110486880Y-76050967D01*
X43356982Y-23882100D02*
X43294017Y-23845403D01*
X114169019Y-77081831D02*
X114166335Y-76991061D01*
X114845791Y-21051964D02*
X114892290Y-21037859D01*
X114346927Y-130420950D02*
X114375873Y-130381921D01*
X126030094Y-27081501D02*
X125552331Y-26673461D01*
X77559017Y-43000510D02*
X77598744Y-43028489D01*
X60606318Y-76167845D02*
X60647371Y-76141848D01*
X78064241Y-88751990D02*
X78015531Y-89372041D01*
X74963424Y-68881100D02*
X75203856Y-68300629D01*
X56893336Y-76308354D02*
X56925968Y-76344358D01*
X115059299Y-77994234D02*
X115011072Y-77988286D01*
X76241363Y-39490305D02*
X76210537Y-39452743D01*
X77081831Y-96836350D02*
X77130189Y-96841113D01*
X26290969Y-125053846D02*
X26673445Y-125552310D01*
X39107710Y-77963137D02*
X39060574Y-77974944D01*
X111090976Y-23387854D02*
X111060627Y-23454112D01*
X114294950Y-77496971D02*
X114261387Y-77432281D01*
X56841175Y-77742543D02*
X56804381Y-77774281D01*
X122881107Y-79036575D02*
X122300636Y-78796143D01*
X60177048Y-77154265D02*
X60171100Y-77106039D01*
X78261309Y-120494992D02*
X78408042Y-121106181D01*
X97467372Y-21068334D02*
X97536286Y-21044626D01*
X60171100Y-77106039D02*
X60166631Y-77033298D01*
X60202194Y-23273042D02*
X60190387Y-23225907D01*
X124536048Y-74064887D02*
X125048599Y-73712731D01*
X77454118Y-93727959D02*
X77387859Y-93758307D01*
X76634701Y-60232670D02*
X76703615Y-60208962D01*
X28442516Y-80677750D02*
X27969731Y-81081665D01*
X114224208Y-23342518D02*
X114208965Y-23296378D01*
X119883848Y-75852045D02*
X120495249Y-75738636D01*
X43253615Y-23818407D02*
X43214585Y-23789461D01*
X129413514Y-32291399D02*
X129203779Y-31699144D01*
X42987260Y-76461350D02*
X43014256Y-76420948D01*
X76845734Y-111155619D02*
X76797858Y-111147312D01*
X97074031Y-76344357D02*
X97106663Y-76308353D01*
X79935127Y-29463930D02*
X79606980Y-29999415D01*
X42883632Y-76680453D02*
X42900002Y-76634701D01*
X76106705Y-60711217D02*
X76129611Y-60668363D01*
X78407981Y-32894045D02*
X78261315Y-33504981D01*
X56985740Y-76420949D02*
X57012736Y-76461351D01*
X76273995Y-39526309D02*
X76241363Y-39490305D01*
X60346923Y-130420950D02*
X60375869Y-130381921D01*
X39222520Y-132922643D02*
X39154209Y-132948035D01*
X60167525Y-132056579D02*
X60166332Y-132007941D01*
X114232673Y-21635701D02*
X114251269Y-21590808D01*
X56249161Y-21004680D02*
X56297518Y-21009443D01*
X114169019Y-132080831D02*
X114166634Y-132032298D01*
X56956794Y-130381921D02*
X56985740Y-130420951D01*
X96891540Y-132341523D02*
X96876297Y-132295384D01*
X93803998Y-21751446D02*
X93814644Y-21798857D01*
X77454115Y-114272043D02*
X77517961Y-114307184D01*
X77410189Y-111081402D02*
X77365296Y-111099997D01*
X77994232Y-115059298D02*
X77997807Y-115107758D01*
X75413507Y-32291399D02*
X75203772Y-31699144D01*
X76567720Y-93738616D02*
X76524317Y-93716769D01*
X115156397Y-21001997D02*
X129993906Y-21001566D01*
X56577520Y-21086930D02*
X56621447Y-21107705D01*
X57123702Y-77296383D02*
X57108460Y-77342522D01*
X39012916Y-130015578D02*
X39060574Y-130025058D01*
X78796228Y-122300855D02*
X79036672Y-122881321D01*
X129935189Y-88745709D02*
X129853147Y-88122530D01*
X77579050Y-56985740D02*
X77517962Y-57025483D01*
X39826218Y-21870810D02*
X39830981Y-21919168D01*
X93608947Y-23637048D02*
X93560672Y-23691644D01*
X77106040Y-39828896D02*
X77057580Y-39832471D01*
X79606980Y-29999415D02*
X79310170Y-30545882D01*
X93797805Y-130726957D02*
X93814644Y-130797863D01*
X97141023Y-23726003D02*
X97106663Y-23691643D01*
X60868950Y-23956367D02*
X60822811Y-23941125D01*
X25039372Y-122887192D02*
X25307158Y-123448408D01*
X43214585Y-77789463D02*
X43177024Y-77758636D01*
X114307185Y-76482038D02*
X114333181Y-76440985D01*
X110176274Y-21001997D02*
X110249164Y-21004680D01*
X97294020Y-21155592D02*
X97356985Y-21118895D01*
X93222524Y-76076357D02*
X93266947Y-76096048D01*
X76181590Y-43253614D02*
X76210536Y-43214585D01*
X43335695Y-132869388D02*
X43294017Y-132844407D01*
X76290962Y-60456297D02*
X76326154Y-60422791D01*
X76005765Y-61059295D02*
X76011713Y-61011069D01*
X78146823Y-88122762D02*
X78064241Y-88751990D01*
X114190391Y-21775086D02*
X114202198Y-21727951D01*
X61132036Y-21002295D02*
X92867963Y-21002295D01*
X110249164Y-77996318D02*
X110176274Y-77999002D01*
X78588568Y-86285295D02*
X78408049Y-86893799D01*
X93526312Y-23726003D02*
X93490308Y-23758635D01*
X31705430Y-75206093D02*
X32291622Y-75413579D01*
X77758637Y-110822976D02*
X77726005Y-110858980D01*
X93748734Y-132409191D02*
X93727959Y-132453117D01*
X79606967Y-124000561D02*
X79935255Y-124536267D01*
X96869530Y-77273046D02*
X96857723Y-77225910D01*
X42950563Y-23475681D02*
X42918597Y-23410187D01*
X110785414Y-76210536D02*
X110822976Y-76241363D01*
X73709008Y-71053861D02*
X74064873Y-70536063D01*
X42857720Y-76774087D02*
X42869527Y-76726952D01*
X93560672Y-23691644D02*
X93526312Y-23726003D01*
X34116165Y-75852047D02*
X34745677Y-75935180D01*
X76726953Y-42869527D02*
X76774089Y-42857720D01*
X57155616Y-77154265D02*
X57147309Y-77202141D01*
X60261383Y-21568717D02*
X60294946Y-21504028D01*
X77999000Y-61156393D02*
X77999084Y-64003239D01*
X76401255Y-60361157D02*
X76461350Y-60319927D01*
X39199960Y-23932661D02*
X39154209Y-23949031D01*
X76440983Y-114333181D02*
X76482036Y-114307184D01*
X43106660Y-130308357D02*
X43141020Y-130273998D01*
X76167843Y-110726349D02*
X76141847Y-110685296D01*
X76257458Y-93508510D02*
X76225719Y-93471716D01*
X114456300Y-76290964D02*
X114491493Y-76257458D01*
X42962279Y-76503028D02*
X42987260Y-76461350D01*
X67708619Y-24586494D02*
X67105948Y-24407974D01*
X97158825Y-77742541D02*
X97123632Y-77709035D01*
X39767326Y-76634701D02*
X39783696Y-76680452D01*
X76524314Y-114283233D02*
X76589808Y-114251268D01*
X110345588Y-76015575D02*
X110393246Y-76025054D01*
X93508510Y-132741544D02*
X93471716Y-132773282D01*
X72030087Y-27081501D02*
X71557467Y-26677736D01*
X77974945Y-110393245D02*
X77963138Y-110440380D01*
X39833664Y-132007941D02*
X39830981Y-132080831D01*
X56785411Y-132788465D02*
X56726346Y-132831157D01*
X39775792Y-130657481D02*
X39797802Y-130726957D01*
X60319927Y-21462349D02*
X60346923Y-21421947D01*
X77818411Y-39413714D02*
X77789465Y-39452743D01*
X77387859Y-42909024D02*
X77432282Y-42928715D01*
X74064731Y-124536289D02*
X74393020Y-124000584D01*
X111025486Y-21483035D02*
X111049437Y-21525314D01*
X77273048Y-96869530D02*
X77319547Y-96883635D01*
X114272044Y-76545884D02*
X114307185Y-76482038D01*
X76106705Y-114711220D02*
X76129611Y-114668366D01*
X25935106Y-70536041D02*
X26287262Y-71048592D01*
X39012916Y-23984423D02*
X38964851Y-23991553D01*
X124000562Y-128393039D02*
X124536268Y-128064751D01*
X77949033Y-110486880D02*
X77932663Y-110532631D01*
X77709035Y-114456300D02*
X77758636Y-114509694D01*
X77949032Y-60845787D02*
X77963138Y-60892287D01*
X110822976Y-76241363D02*
X110858980Y-76273995D01*
X114711221Y-21107705D02*
X114755147Y-21086930D01*
X60232670Y-77365298D02*
X60216300Y-77319547D01*
X43335695Y-76129612D02*
X43378549Y-76106706D01*
X42900002Y-23365295D02*
X42883632Y-23319543D01*
X73708870Y-28945942D02*
X73326383Y-28447486D01*
X93680072Y-76461350D02*
X93705053Y-76503028D01*
X43028489Y-132597744D02*
X43000510Y-132558017D01*
X110985744Y-76420949D02*
X111012740Y-76461351D01*
X43467368Y-76067335D02*
X43513120Y-76050965D01*
X60171100Y-23106034D02*
X60166631Y-23033293D01*
X114733056Y-130096051D02*
X114777479Y-130076360D01*
X114491493Y-76257458D02*
X114528287Y-76225719D01*
X81969913Y-72918492D02*
X82447676Y-73326532D01*
X114202198Y-77273048D02*
X114190391Y-77225912D01*
X69448169Y-74692954D02*
X70000555Y-74393033D01*
X111108463Y-21658476D02*
X111123706Y-21704615D01*
X114169019Y-76918170D02*
X114177052Y-76845736D01*
X114668367Y-21130611D02*
X114711221Y-21107705D01*
X39608944Y-77637049D02*
X39577205Y-77673843D01*
X96852691Y-21798857D02*
X96863337Y-21751446D01*
X110746385Y-76181590D02*
X110785414Y-76210536D01*
X77963140Y-43559619D02*
X77974947Y-43606754D01*
X86291381Y-129413505D02*
X86894052Y-129592025D01*
X97043205Y-76381918D02*
X97074031Y-76344357D01*
X39331633Y-21130611D02*
X39373311Y-21155592D01*
X123448199Y-25307051D02*
X122881107Y-25036569D01*
X56416882Y-132968333D02*
X56345584Y-132983427D01*
X93748734Y-21590808D02*
X93767330Y-21635701D01*
X92892244Y-77997807D02*
X92843606Y-77999000D01*
X77225911Y-57142276D02*
X77178253Y-57151756D01*
X76129612Y-56664301D02*
X76106706Y-56621447D01*
X80673617Y-125552513D02*
X81085965Y-126034919D01*
X77517964Y-42974514D02*
X77559017Y-43000510D01*
X39060574Y-132973947D02*
X38988927Y-132987286D01*
X43513120Y-23949031D02*
X43444808Y-23923639D01*
X34745443Y-78064844D02*
X34116152Y-78147954D01*
X93244856Y-21086930D02*
X93288782Y-21107705D01*
X43606754Y-76025053D02*
X43654412Y-76015573D01*
X76362948Y-60391052D02*
X76401255Y-60361157D01*
X76290964Y-93543702D02*
X76257458Y-93508510D01*
X60800036Y-77932664D02*
X60755143Y-77914069D01*
X92940704Y-76005765D02*
X93012920Y-76015573D01*
X56726346Y-23832152D02*
X56685293Y-23858148D01*
X56726346Y-132831157D02*
X56685293Y-132857153D01*
X114509695Y-21242360D02*
X114547257Y-21211534D01*
X93748734Y-130589814D02*
X93767330Y-130634706D01*
X76524317Y-93716769D02*
X76482038Y-93692818D01*
X76154592Y-114626688D02*
X76195822Y-114566593D01*
X24409791Y-67112397D02*
X24586486Y-67708594D01*
X68300849Y-129203778D02*
X68881315Y-128963334D01*
X60272040Y-132453117D02*
X60251265Y-132409191D01*
X93060577Y-77974944D02*
X92988930Y-77988284D01*
X61107755Y-76002192D02*
X61156393Y-76000999D01*
X25036558Y-68881076D02*
X25304198Y-69442405D01*
X85118900Y-128963430D02*
X85693159Y-129201387D01*
X97314706Y-77858151D02*
X97273653Y-77832155D01*
X111123706Y-21704615D02*
X111136666Y-21751446D01*
X29469386Y-25931678D02*
X28951401Y-26287262D01*
X42891536Y-132341523D02*
X42876294Y-132295384D01*
X114939426Y-23974941D02*
X114868954Y-23956367D01*
X57163649Y-76918170D02*
X57166033Y-76966703D01*
X114173782Y-130869813D02*
X114185359Y-130797861D01*
X76918170Y-42836347D02*
X76966703Y-42833963D01*
X60586282Y-21182588D02*
X60626685Y-21155592D01*
X76036859Y-60892286D02*
X76050965Y-60845787D01*
X110858980Y-130273996D02*
X110893340Y-130308356D01*
X77726006Y-97141023D02*
X77758639Y-97177027D01*
X114241695Y-23387853D02*
X114224208Y-23342518D01*
X130001000Y-90003271D02*
X129984477Y-89372067D01*
X92964854Y-23991553D02*
X92892245Y-23997806D01*
X77387859Y-39758304D02*
X77342524Y-39775792D01*
X57108460Y-77342522D02*
X57090972Y-77387858D01*
X24064813Y-34745677D02*
X24015524Y-35372035D01*
X56621447Y-23893289D02*
X56577521Y-23914064D01*
X75203856Y-68300629D02*
X75413579Y-67708371D01*
X77974947Y-97606757D02*
X77984427Y-97654415D01*
X69448402Y-128692841D02*
X70000328Y-128393170D01*
X76893960Y-111161567D02*
X76845734Y-111155619D01*
X127712746Y-71048581D02*
X128064880Y-70536063D01*
X78146823Y-34122756D02*
X78064241Y-34751984D01*
X122881322Y-128963334D02*
X123448409Y-128692841D01*
X43422475Y-130085935D02*
X43490143Y-130058874D01*
X76567719Y-96928718D02*
X76634703Y-96900005D01*
X76167845Y-39393678D02*
X76129614Y-39331633D01*
X129999179Y-133002244D02*
X129994602Y-132998673D01*
X70536063Y-79935126D02*
X70000351Y-79606848D01*
X80291130Y-125054057D02*
X80673617Y-125552513D01*
X114294950Y-23496966D02*
X114261387Y-23432276D01*
X128692842Y-84551597D02*
X128396310Y-84005277D01*
X60422791Y-130326157D02*
X60456297Y-130290965D01*
X93508510Y-21258455D02*
X93543703Y-21291961D01*
X43177024Y-77758636D02*
X43123629Y-77709035D01*
X74064745Y-29463732D02*
X73708870Y-28945942D01*
X96848243Y-132177255D02*
X96841114Y-132129189D01*
X76420948Y-56985740D02*
X76381918Y-56956794D01*
X110463717Y-23956368D02*
X110416886Y-23969328D01*
X43141020Y-76273993D02*
X43177024Y-76241361D01*
X75935152Y-65254577D02*
X75984455Y-64628219D01*
X39526309Y-76273993D02*
X39577205Y-76326154D01*
X93131049Y-77956370D02*
X93060577Y-77974944D01*
X77057577Y-60167525D02*
X77106037Y-60171100D01*
X111060627Y-76545884D02*
X111081402Y-76589810D01*
X25307158Y-123448408D02*
X25606960Y-124000561D01*
X56345584Y-77984426D02*
X56297518Y-77991556D01*
X60185355Y-130797861D02*
X60202194Y-130726954D01*
X39154209Y-132948035D02*
X39107710Y-132962140D01*
X93727959Y-21546882D02*
X93748734Y-21590808D01*
X26677736Y-82442532D02*
X26287254Y-82951418D01*
X74963435Y-85118923D02*
X74695795Y-84557594D01*
X39310347Y-77882101D02*
X39244853Y-77914067D01*
X26673461Y-28447669D02*
X26290985Y-28946132D01*
X97253618Y-76181589D02*
X97294020Y-76154593D01*
X77673845Y-43090123D02*
X77726006Y-43141020D01*
X56621447Y-21107705D02*
X56664301Y-21130611D01*
X76703618Y-93791037D02*
X76657478Y-93775795D01*
X57012736Y-23538645D02*
X56971507Y-23598739D01*
X92916496Y-132995319D02*
X92843606Y-132998002D01*
X129203779Y-85699150D02*
X128960628Y-85112813D01*
X86893825Y-24408035D02*
X86291406Y-24586486D01*
X93692818Y-77517961D02*
X93653076Y-77579050D01*
X75738636Y-87504757D02*
X75592026Y-86894077D01*
X60185355Y-132201142D02*
X60177048Y-132153266D01*
X129203863Y-122300635D02*
X129413506Y-121708625D01*
X39738613Y-21568717D02*
X39767326Y-21635701D01*
X76326156Y-93577208D02*
X76290964Y-93543702D01*
X110509856Y-23941125D02*
X110463717Y-23956368D01*
X117996792Y-76000999D02*
X118621650Y-75984718D01*
X78064242Y-119248028D02*
X78146819Y-119877217D01*
X69448192Y-79307057D02*
X68881339Y-79036681D01*
X77914069Y-97422479D02*
X77932665Y-97467371D01*
X97378553Y-76106706D02*
X97422479Y-76085930D01*
X92964854Y-132990556D02*
X92916496Y-132995319D01*
X43043202Y-76381918D02*
X43074028Y-76344357D01*
X77655641Y-114406699D02*
X77709035Y-114456300D01*
X97090126Y-77673843D02*
X97058388Y-77637049D01*
X127322256Y-28442516D02*
X126918341Y-27969731D01*
X97823729Y-76000997D02*
X110176274Y-76000999D01*
X74692835Y-30551591D02*
X74393033Y-29999438D01*
X56486877Y-76050967D02*
X56532628Y-76067337D01*
X56577521Y-23914064D02*
X56532628Y-23932659D01*
X60202194Y-77273048D02*
X60185355Y-77202141D01*
X39508507Y-21258455D02*
X39543699Y-21291961D01*
X111142280Y-76774089D02*
X111151760Y-76821747D01*
X60868950Y-132955373D02*
X60800036Y-132931665D01*
X57158886Y-23130184D02*
X57151756Y-23178249D01*
X77178252Y-114180911D02*
X77249550Y-114196005D01*
X126486014Y-72485840D02*
X126918324Y-72030282D01*
X74393020Y-124000584D02*
X74692942Y-123448198D01*
X39822948Y-130845739D02*
X39830981Y-130918173D01*
X114166634Y-132032298D02*
X114166335Y-130991061D01*
X93783700Y-21681452D02*
X93803998Y-21751446D01*
X56804381Y-77774281D02*
X56766074Y-77804177D01*
X129590213Y-67112385D02*
X129739953Y-66488670D01*
X76000999Y-90003207D02*
X75984718Y-89378356D01*
X78064241Y-34751984D02*
X78015531Y-35372035D01*
X129934402Y-34739022D02*
X129853147Y-34122524D01*
X56176270Y-132998002D02*
X43823726Y-132998002D01*
X34122498Y-129853142D02*
X34745416Y-129935158D01*
X76774087Y-57142276D02*
X76726952Y-57130469D01*
X24586405Y-121708352D02*
X24793904Y-122294582D01*
X110577524Y-76085932D02*
X110621450Y-76106707D01*
X111071284Y-77432281D02*
X111049437Y-77475684D01*
X25935248Y-124536267D02*
X26290969Y-125053846D01*
X76195824Y-93433409D02*
X76167845Y-93393681D01*
X60177048Y-130845737D02*
X60185355Y-130797861D01*
X77893292Y-110621450D02*
X77870386Y-110664304D01*
X61132036Y-77998703D02*
X61083503Y-77996319D01*
X77637052Y-39608944D02*
X77598745Y-39638839D01*
X57060623Y-130545885D02*
X57081399Y-130589812D01*
X42863334Y-23249549D02*
X42848240Y-23178251D01*
X129984462Y-64628219D02*
X130000919Y-64003229D01*
X126030269Y-126918340D02*
X126485829Y-126486031D01*
X93543703Y-77709035D02*
X93490308Y-77758636D01*
X97106663Y-23691643D02*
X97058388Y-23637048D01*
X122294583Y-75206089D02*
X122887193Y-74960621D01*
X93060578Y-21026052D02*
X93107713Y-21037859D01*
X39809609Y-77225910D02*
X39797802Y-77273045D01*
X93692818Y-21483035D02*
X93727959Y-21546882D01*
X96833966Y-130966706D02*
X96836351Y-130918173D01*
X60422791Y-23673840D02*
X60391052Y-23637046D01*
X42852687Y-21798857D02*
X42863334Y-21751446D01*
X118634638Y-24015959D02*
X117996790Y-23998997D01*
X114251269Y-21590808D02*
X114272044Y-21546882D01*
X42848240Y-132177255D02*
X42841110Y-132129189D01*
X114626688Y-130154595D02*
X114689653Y-130117898D01*
X86893825Y-78408041D02*
X86297791Y-78584507D01*
X27513986Y-27514153D02*
X27081501Y-27969906D01*
X57108460Y-21658476D02*
X57123702Y-21704615D01*
X72918492Y-72030087D02*
X73326532Y-71552324D01*
X77598742Y-60361157D02*
X77655641Y-60406696D01*
X130001000Y-36003271D02*
X129984464Y-35371800D01*
X77893291Y-60711217D02*
X77923640Y-60777476D01*
X42863334Y-21751446D02*
X42876294Y-21704615D01*
X96836351Y-77081829D02*
X96833966Y-77033296D01*
X114216303Y-130680455D02*
X114232673Y-130634704D01*
X110486880Y-130050968D02*
X110532631Y-130067338D01*
X39822948Y-132153266D02*
X39814641Y-132201142D01*
X124541632Y-79938839D02*
X123994717Y-79603690D01*
X79307046Y-69448169D02*
X79606967Y-70000555D01*
X76991061Y-93833667D02*
X76942422Y-93832474D01*
X77559017Y-39666818D02*
X77517964Y-39692815D01*
X24006094Y-132998433D02*
X24000964Y-133002046D01*
X76129611Y-60668363D02*
X76154592Y-60626685D01*
X42833664Y-132007941D02*
X42833963Y-130966706D01*
X39809609Y-23225909D02*
X39791034Y-23296381D01*
X121105955Y-78407980D02*
X120495019Y-78261314D01*
X114422794Y-130326157D02*
X114456300Y-130290965D01*
X110176274Y-132998002D02*
X97823729Y-132998002D01*
X27969906Y-126918498D02*
X28452643Y-127330459D01*
X39666818Y-132558017D02*
X39624127Y-132617081D01*
X75738685Y-66495012D02*
X75852047Y-65883828D01*
X25935120Y-83463936D02*
X25606842Y-83999648D01*
X93352629Y-21142846D02*
X93393682Y-21168842D01*
X77996320Y-92916496D02*
X77991557Y-92964854D01*
X39830981Y-130918173D02*
X39833365Y-130966706D01*
X93490308Y-76241361D02*
X93526312Y-76273993D01*
X60190387Y-23225907D02*
X60177048Y-23154260D01*
X96833966Y-77033296D02*
X96833966Y-76966702D01*
X93624130Y-21382918D02*
X93653076Y-21421947D01*
X114733056Y-76096050D02*
X114777479Y-76076359D01*
X76750449Y-93803997D02*
X76703618Y-93791037D01*
X97356985Y-77882102D02*
X97314706Y-77858151D01*
X96928719Y-77432280D02*
X96900005Y-77365296D01*
X128068322Y-83469392D02*
X127709031Y-82946159D01*
X56463714Y-23956368D02*
X56393242Y-23974942D01*
X71054051Y-73708870D02*
X71552507Y-73326383D01*
X123994717Y-79603690D02*
X123448199Y-79307057D01*
X92964854Y-130008448D02*
X93036807Y-130020025D01*
X111147312Y-77202141D02*
X111136666Y-77249552D01*
X111161568Y-77106039D02*
X111155619Y-77154265D01*
X56999486Y-132558017D02*
X56956794Y-132617081D01*
X39783696Y-21681452D02*
X39797802Y-21727951D01*
X76680453Y-57116364D02*
X76634701Y-57099994D01*
X76154594Y-43294017D02*
X76181590Y-43253614D01*
X71552507Y-127326389D02*
X72030068Y-126918515D01*
X126486032Y-81514177D02*
X126030094Y-81081507D01*
X42987260Y-21462349D02*
X43028489Y-21402255D01*
X43750835Y-76003681D02*
X43823726Y-76000997D01*
X114777479Y-23923637D02*
X114733056Y-23903946D01*
X129004473Y-137995470D02*
X129996665Y-137003339D01*
X97058388Y-21363948D02*
X97106663Y-21309352D01*
X96909027Y-23387855D02*
X96891540Y-23342519D01*
X60711217Y-130106708D02*
X60777475Y-130076360D01*
X56971507Y-23598739D02*
X56925968Y-23655638D01*
X76181588Y-60586282D02*
X76210534Y-60547253D01*
X76680454Y-42883632D02*
X76726953Y-42869527D01*
X39154209Y-23949031D02*
X39107710Y-23963137D01*
X77081829Y-57163649D02*
X77033296Y-57166033D01*
X114528287Y-132773282D02*
X114473691Y-132725007D01*
X56876367Y-77709037D02*
X56841175Y-77742543D01*
X27969925Y-27081484D02*
X27513986Y-27514153D01*
X114307185Y-130482039D02*
X114346927Y-130420950D01*
X76966703Y-96833966D02*
X77033298Y-96833966D01*
X66495012Y-24261308D02*
X65877237Y-24146816D01*
X77106039Y-42838432D02*
X77154265Y-42844380D01*
X78015530Y-118627938D02*
X78064242Y-119248028D01*
X43654412Y-130015578D02*
X43702478Y-130008448D01*
X97750839Y-130003685D02*
X97823729Y-130001002D01*
X56822972Y-132757639D02*
X56785411Y-132788465D01*
X76362950Y-97058387D02*
X76420949Y-97014259D01*
X28946132Y-127709014D02*
X29463930Y-128064879D01*
X93767330Y-132364298D02*
X93748734Y-132409191D01*
X96987263Y-76461350D02*
X97014259Y-76420948D01*
X111037721Y-76503030D02*
X111060627Y-76545884D01*
X60822811Y-23941125D02*
X60777476Y-23923637D01*
X92916496Y-130003685D02*
X92964854Y-130008448D01*
X43559619Y-77963138D02*
X43513119Y-77949032D01*
X76362948Y-110941615D02*
X76326154Y-110909876D01*
X110726350Y-132831157D02*
X110685297Y-132857153D01*
X38867960Y-76001296D02*
X38916493Y-76003680D01*
X77008942Y-39833664D02*
X76918170Y-39830981D01*
X77454117Y-96939376D02*
X77496971Y-96962282D01*
X43606754Y-77974945D02*
X43559619Y-77963138D01*
X60375869Y-132617081D02*
X60333178Y-132558017D01*
X119877244Y-78146822D02*
X119248016Y-78064240D01*
X127708861Y-125054078D02*
X128061167Y-124541631D01*
X77637052Y-93608947D02*
X77579053Y-93653076D01*
X77273046Y-57130469D02*
X77225911Y-57142276D01*
X43583114Y-130030671D02*
X43654412Y-130015578D01*
X121708378Y-78586420D02*
X121105955Y-78407980D01*
X61132036Y-132997704D02*
X61059295Y-132993235D01*
X77999026Y-89999918D02*
X77999003Y-92843606D01*
X38867960Y-23998700D02*
X36003206Y-23999000D01*
X39758304Y-23387855D02*
X39738613Y-23432278D01*
X114586286Y-21182588D02*
X114626688Y-21155592D01*
X68881076Y-74963435D02*
X69448169Y-74692954D01*
X93624130Y-132617081D02*
X93593304Y-132654643D01*
X77655641Y-60406696D02*
X77709035Y-60456297D01*
X39830981Y-132080831D02*
X39822948Y-132153266D01*
X115035149Y-23991551D02*
X114987083Y-23984421D01*
X76797860Y-39814641D02*
X76750449Y-39803994D01*
X89996760Y-77999084D02*
X89371807Y-78015542D01*
X25606842Y-83999648D02*
X25307170Y-84551574D01*
X77475685Y-39716766D02*
X77432282Y-39738613D01*
X77963140Y-97559622D02*
X77974947Y-97606757D01*
X56345584Y-76015575D02*
X56393242Y-76025054D01*
X114456300Y-130290965D02*
X114509695Y-130241364D01*
X129853147Y-34122524D02*
X129738643Y-33504751D01*
X42844380Y-130845739D02*
X42852687Y-130797862D01*
X39748731Y-76589808D02*
X39767326Y-76634701D01*
X76774089Y-96857723D02*
X76821747Y-96848243D01*
X93822952Y-23154262D02*
X93814644Y-23202138D01*
X76308354Y-43106660D02*
X76344358Y-43074028D01*
X129413514Y-86291405D02*
X129203779Y-85699150D01*
X130000919Y-64003229D02*
X130001000Y-36003271D01*
X80290992Y-28946132D02*
X79935127Y-29463930D01*
X60391052Y-77637051D02*
X60346923Y-77579052D01*
X115035149Y-21009443D02*
X115083507Y-21004680D01*
X93833668Y-23008938D02*
X93830984Y-23081828D01*
X43294017Y-132844407D02*
X43233922Y-132803177D01*
X130000917Y-118003300D02*
X130001000Y-90003271D01*
X38867960Y-77998701D02*
X36003207Y-77999000D01*
X115035149Y-132990556D02*
X114963196Y-132978979D01*
X114180911Y-21822744D02*
X114190391Y-21775086D01*
X115107759Y-132996809D02*
X115035149Y-132990556D01*
X56909873Y-132672845D02*
X56876367Y-132708038D01*
X126485847Y-27513986D02*
X126030094Y-27081501D01*
X76657478Y-93775795D02*
X76612143Y-93758307D01*
X122300636Y-78796143D02*
X121708378Y-78586420D01*
X42836347Y-77081829D02*
X42833963Y-77033296D01*
X97654415Y-130015578D02*
X97702481Y-130008448D01*
X77496971Y-96962282D02*
X77538650Y-96987263D01*
X27081676Y-81969717D02*
X26677736Y-82442532D01*
X43000510Y-132558017D02*
X42962279Y-132495971D01*
X76003682Y-92916496D02*
X76001298Y-92867963D01*
X43158821Y-23742540D02*
X43123629Y-23709034D01*
X43123629Y-132708038D02*
X43090123Y-132672845D01*
X56345584Y-23984421D02*
X56297518Y-23991551D01*
X110785414Y-132788465D02*
X110726350Y-132831157D01*
X97583117Y-77969331D02*
X97536286Y-77956371D01*
X39433406Y-77804175D02*
X39393678Y-77832154D01*
X31112819Y-74960627D02*
X31705430Y-75206093D01*
X110176274Y-130001000D02*
X110249164Y-130003684D01*
X97422479Y-23914066D02*
X97378553Y-23893290D01*
X56705979Y-130154596D02*
X56746381Y-130181592D01*
X77432282Y-39738613D02*
X77387859Y-39758304D01*
X97823729Y-77999000D02*
X97750839Y-77996317D01*
X42962279Y-132495971D02*
X42928715Y-132431282D01*
X39577205Y-76326154D02*
X39608944Y-76362948D01*
X39608944Y-76362948D02*
X39638839Y-76401255D01*
X77999003Y-92843606D02*
X77996320Y-92916496D01*
X76503028Y-57037717D02*
X76461350Y-57012736D01*
X114261387Y-130567721D02*
X114283234Y-130524317D01*
X39767326Y-77365296D02*
X39748731Y-77410188D01*
X76043627Y-114868953D02*
X76058869Y-114822814D01*
X77106040Y-93828899D02*
X77057580Y-93832474D01*
X96974517Y-77517962D02*
X96950566Y-77475683D01*
X77726007Y-93526312D02*
X77691648Y-93560671D01*
X83463959Y-79935112D02*
X82945949Y-80291129D01*
X77559014Y-114333181D02*
X77598742Y-114361160D01*
X60261383Y-77432281D02*
X60232670Y-77365298D01*
X76845736Y-39822948D02*
X76797860Y-39814641D01*
X43058384Y-21363948D02*
X43106660Y-21309352D01*
X76326154Y-110909876D02*
X76290962Y-110876370D01*
X60689649Y-76117898D02*
X60733053Y-76096050D01*
X83999649Y-128393157D02*
X84557607Y-128695806D01*
X114963196Y-76020022D02*
X115011073Y-76011715D01*
X43400385Y-77903949D02*
X43356982Y-77882102D01*
X114422794Y-21327154D02*
X114473691Y-21274992D01*
X80673617Y-71552507D02*
X81081666Y-72030262D01*
X77057579Y-42834857D02*
X77106039Y-42838432D01*
X74389727Y-83993888D02*
X74064745Y-83463738D01*
X67702209Y-75415492D02*
X68294699Y-75206044D01*
X77941128Y-56509853D02*
X77914068Y-56577521D01*
X77517964Y-93692818D02*
X77454118Y-93727959D01*
X60208962Y-132295384D02*
X60196002Y-132248553D01*
X77963138Y-110440380D02*
X77949033Y-110486880D01*
X77984427Y-93012919D02*
X77969333Y-93084217D01*
X110925972Y-21345356D02*
X110956798Y-21382918D01*
X114319931Y-132537650D02*
X114294950Y-132495971D01*
X56664301Y-76129613D02*
X56705979Y-76154594D01*
X65254550Y-75935155D02*
X65877469Y-75853140D01*
X110577524Y-132913069D02*
X110532631Y-132931665D01*
X77789465Y-39452743D02*
X77758639Y-39490305D01*
X92843606Y-77999000D02*
X89996760Y-77999084D01*
X60346923Y-77579052D02*
X60307181Y-77517963D01*
X77691647Y-97106663D02*
X77726006Y-97141023D01*
X110858980Y-21274992D02*
X110893340Y-21309352D01*
X97233926Y-23804174D02*
X97177027Y-23758635D01*
X96950566Y-130524319D02*
X96987263Y-130461354D01*
X111090976Y-130612144D02*
X111108463Y-130657480D01*
X82945949Y-80291129D02*
X82447493Y-80673616D01*
X77432282Y-42928715D02*
X77475685Y-42950563D01*
X78408049Y-86893799D02*
X78261315Y-87504987D01*
X115011072Y-130011716D02*
X115059299Y-130005768D01*
X76154592Y-60626685D02*
X76181588Y-60586282D01*
X111090976Y-21613140D02*
X111108463Y-21658476D01*
X60777476Y-21077356D02*
X60845787Y-21051964D01*
X57161564Y-77106039D02*
X57155616Y-77154265D01*
X60528283Y-130225720D02*
X60586282Y-130181591D01*
X77154266Y-93822951D02*
X77106040Y-93828899D01*
X128995865Y-137998002D02*
X129004473Y-137995470D01*
X77579052Y-97014259D02*
X77618081Y-97043205D01*
X67105948Y-24407974D02*
X66495012Y-24261308D01*
X128963431Y-68881100D02*
X129203863Y-68300629D01*
X93577209Y-76326154D02*
X93608947Y-76362948D01*
X97058388Y-23637048D02*
X97028493Y-23598741D01*
X31699364Y-129203862D02*
X32291622Y-129413585D01*
X39471713Y-23774279D02*
X39433406Y-23804174D01*
X110577524Y-23914064D02*
X110509856Y-23941125D01*
X97335699Y-76129612D02*
X97378553Y-76106706D01*
X118628200Y-129984463D02*
X119260978Y-129934401D01*
X43074028Y-130344361D02*
X43106660Y-130308357D01*
X77997807Y-115107758D02*
X77999000Y-115156396D01*
X77709035Y-60456297D02*
X77758636Y-60509691D01*
X24407974Y-32894045D02*
X24261308Y-33504981D01*
X75738691Y-33505007D02*
X75591958Y-32893818D01*
X43043202Y-23618078D02*
X43000510Y-23559013D01*
X111123706Y-130703619D02*
X111136666Y-130750450D01*
X76680454Y-39783696D02*
X76634703Y-39767326D01*
X76076359Y-93222523D02*
X76058871Y-93177188D01*
X76440985Y-39666818D02*
X76381920Y-39624127D01*
X76634701Y-57099994D02*
X76589809Y-57081399D01*
X56705979Y-76154594D02*
X56746382Y-76181590D01*
X77832155Y-56726346D02*
X77804175Y-56766074D01*
X110785414Y-23789460D02*
X110746385Y-23818406D01*
X128393027Y-70000578D02*
X128695807Y-69442393D01*
X75737242Y-120501413D02*
X75854104Y-119870844D01*
X77969331Y-56416882D02*
X77956371Y-56463714D01*
X125048599Y-73712731D02*
X125557484Y-73322249D01*
X114586286Y-76181591D02*
X114647374Y-76141848D01*
X77974947Y-39060574D02*
X77963141Y-39107710D01*
X56909873Y-21327154D02*
X56941612Y-21363948D01*
X76869811Y-57158886D02*
X76821745Y-57151756D01*
X42844380Y-21846733D02*
X42852687Y-21798857D01*
X42852687Y-130797862D02*
X42863334Y-130750451D01*
X78793956Y-68294699D02*
X79036565Y-68881076D01*
X56345584Y-21016572D02*
X56393242Y-21026052D01*
X43378549Y-76106706D02*
X43422476Y-76085930D01*
X77598745Y-39638839D02*
X77559017Y-39666818D01*
X81513993Y-27514153D02*
X81081508Y-27969906D01*
X77818411Y-97253618D02*
X77845407Y-97294020D01*
X77475685Y-42950563D02*
X77517964Y-42974514D01*
X57136662Y-77249552D02*
X57123702Y-77296383D01*
X111165142Y-132056579D02*
X111158889Y-132129189D01*
X76381920Y-43043202D02*
X76420949Y-43014256D01*
X76195822Y-114566593D02*
X76225717Y-114528286D01*
X30551801Y-128692948D02*
X31118893Y-128963430D01*
X129853147Y-88122530D02*
X129738643Y-87504757D01*
X77655641Y-56925968D02*
X77618079Y-56956794D01*
X24793904Y-122294582D02*
X25039372Y-122887192D01*
X111025486Y-130482039D02*
X111049437Y-130524318D01*
X93036807Y-130020025D02*
X93084218Y-130030672D01*
X24998210Y-137997169D02*
X25004011Y-137998002D01*
X127712738Y-28951401D02*
X127322256Y-28442516D01*
X114294950Y-21504028D02*
X114319931Y-21462349D01*
X57037717Y-76503030D02*
X57060623Y-76545884D01*
X43702478Y-76008443D02*
X43750835Y-76003681D01*
X65254316Y-24064813D02*
X64628219Y-24015538D01*
X42841110Y-132129189D02*
X42836347Y-132080831D01*
X93783700Y-77319545D02*
X93767330Y-77365296D01*
X128960634Y-122887180D02*
X129203863Y-122300635D01*
X57142276Y-76774089D02*
X57151756Y-76821747D01*
X110393246Y-21026052D02*
X110440381Y-21037859D01*
X42883632Y-77319545D02*
X42869527Y-77273046D01*
X75935180Y-119254322D02*
X75984455Y-118628225D01*
X97014259Y-76420948D02*
X97043205Y-76381918D01*
X57116364Y-23319542D02*
X57090972Y-23387854D01*
X39471713Y-77774280D02*
X39433406Y-77804175D01*
X77774283Y-93471716D02*
X77726007Y-93526312D01*
X39833664Y-21992058D02*
X39833365Y-23033295D01*
X77789465Y-97214588D02*
X77818411Y-97253618D01*
X60939422Y-132973947D02*
X60868950Y-132955373D01*
X56176271Y-76000999D02*
X56249161Y-76003682D01*
X56440377Y-77963139D02*
X56393242Y-77974946D01*
X77154265Y-42844380D02*
X77202142Y-42852687D01*
X57049433Y-21525314D02*
X57071281Y-21568717D01*
X114668367Y-132869388D02*
X114626688Y-132844407D01*
X82945928Y-127708860D02*
X83463937Y-128064879D01*
X83463739Y-25935248D02*
X82945949Y-26291123D01*
X76195822Y-110766077D02*
X76167843Y-110726349D01*
X76657477Y-111108463D02*
X76612141Y-111090975D01*
X115156397Y-132998002D02*
X115107759Y-132996809D01*
X77342523Y-42891536D02*
X77387859Y-42909024D01*
X57037717Y-130503031D02*
X57060623Y-130545885D01*
X114346927Y-21421947D02*
X114375873Y-21382918D01*
X43750835Y-77996317D02*
X43702478Y-77991554D01*
X70000351Y-79606848D02*
X69448192Y-79307057D01*
X77655641Y-110925971D02*
X77618079Y-110956797D01*
X60491489Y-130257459D02*
X60528283Y-130225720D01*
X43253614Y-77818409D02*
X43214585Y-77789463D01*
X57116364Y-76680454D02*
X57130469Y-76726953D01*
X60333178Y-132558017D02*
X60307181Y-132516964D01*
X43702478Y-21009443D02*
X43750835Y-21004680D01*
X97559622Y-76036860D02*
X97606758Y-76025053D01*
X39177185Y-77941128D02*
X39107710Y-77963137D01*
X114283234Y-130524317D02*
X114307185Y-130482039D01*
X96928719Y-130567722D02*
X96950566Y-130524319D01*
X96841114Y-23130185D02*
X96836351Y-23081828D01*
X89371807Y-78015542D02*
X88745450Y-78064844D01*
X70000555Y-74393033D02*
X70536041Y-74064887D01*
X76141848Y-97314706D02*
X76167844Y-97273653D01*
X76589808Y-60251265D02*
X76634701Y-60232670D01*
X42900002Y-76634701D02*
X42918597Y-76589809D01*
X43678401Y-132987286D02*
X43606754Y-132973947D01*
X77342524Y-39775792D02*
X77273048Y-39797802D01*
X56822972Y-23758633D02*
X56785411Y-23789460D01*
X97513123Y-132948035D02*
X97444811Y-132922643D01*
X114391056Y-23637046D02*
X114361161Y-23598739D01*
X76420949Y-43014256D02*
X76461351Y-42987260D01*
X76002192Y-38892241D02*
X76000999Y-38843603D01*
X35365348Y-24015960D02*
X34745443Y-24064838D01*
X97583117Y-130030671D02*
X97654415Y-130015578D01*
X127326539Y-125552330D02*
X127708861Y-125054078D01*
X97750839Y-76003681D02*
X97823729Y-76000997D01*
X64628193Y-75984457D02*
X65254550Y-75935155D01*
X78408042Y-67106175D02*
X78584508Y-67702209D01*
X57012736Y-76461351D02*
X57037717Y-76503030D01*
X42928715Y-130567722D02*
X42962279Y-130503033D01*
X57071281Y-21568717D02*
X57090972Y-21613140D01*
X77991556Y-97702481D02*
X77996319Y-97750838D01*
X60547253Y-21211534D02*
X60586282Y-21182588D01*
X75852047Y-65883828D02*
X75935152Y-65254577D01*
X93107713Y-76036859D02*
X93154212Y-76050965D01*
X60261383Y-23432276D02*
X60241692Y-23387853D01*
X28951401Y-26287262D02*
X28447689Y-26673445D01*
X56858976Y-130273996D02*
X56893336Y-130308356D01*
X97195619Y-77774280D02*
X97158825Y-77742541D01*
X76821747Y-42848240D02*
X76869812Y-42841110D01*
X43702478Y-77991554D02*
X43654412Y-77984424D01*
X93012920Y-76015573D02*
X93060578Y-76025052D01*
X115059299Y-76005767D02*
X115132040Y-76001298D01*
X110941615Y-77637051D02*
X110909877Y-77673845D01*
X128692830Y-123448431D02*
X128960634Y-122887180D01*
X114333181Y-76440985D02*
X114361161Y-76401257D01*
X76000912Y-64003229D02*
X76000997Y-61156393D01*
X93222524Y-130076362D02*
X93266947Y-130096053D01*
X77997807Y-61107755D02*
X77999000Y-61156393D01*
X93352629Y-76141846D02*
X93393682Y-76167843D01*
X76634701Y-114232673D02*
X76680452Y-114216303D01*
X77387856Y-60241692D02*
X77454115Y-60272040D01*
X77804175Y-60566590D02*
X77832154Y-60606318D01*
X119254557Y-75935155D02*
X119883848Y-75852045D01*
X84551831Y-79307045D02*
X83999445Y-79606966D01*
X25935120Y-29463930D02*
X25606842Y-29999642D01*
X77008939Y-114166335D02*
X77081829Y-114169018D01*
X96833966Y-76966702D02*
X96836351Y-76918168D01*
X56249161Y-77996318D02*
X56176270Y-77999002D01*
X77726006Y-43141020D02*
X77758639Y-43177024D01*
X76241361Y-56822972D02*
X76210535Y-56785411D01*
X76030667Y-110416885D02*
X76020021Y-110369474D01*
X126030269Y-72918334D02*
X126486014Y-72485840D01*
X76167845Y-93393681D02*
X76141848Y-93352628D01*
X111158889Y-76869812D02*
X111163652Y-76918170D01*
X76326156Y-97090126D02*
X76362950Y-97058387D01*
X76003682Y-97750838D02*
X76008445Y-97702481D01*
X114375873Y-21382918D02*
X114422794Y-21327154D01*
X77999084Y-64003239D02*
X78015543Y-64628193D01*
X57012736Y-130461353D02*
X57037717Y-130503031D01*
X77914068Y-56577521D02*
X77882102Y-56643014D01*
X76420949Y-97014259D02*
X76482037Y-96974516D01*
X60566590Y-77804177D02*
X60528283Y-77774282D01*
X114509695Y-77758638D02*
X114456300Y-77709037D01*
X93775795Y-76657476D02*
X93791038Y-76703615D01*
X74393033Y-29999438D02*
X74064745Y-29463732D01*
X114689653Y-76117898D02*
X114733056Y-76096050D01*
X77804175Y-114566593D02*
X77832154Y-114606321D01*
X93526312Y-130273998D02*
X93577209Y-130326159D01*
X88122531Y-24146853D02*
X87504758Y-24261357D01*
X114963196Y-77979979D02*
X114892290Y-77963140D01*
X60294946Y-130503031D02*
X60319927Y-130461353D01*
X93177188Y-77941128D02*
X93131049Y-77956370D01*
X60422791Y-132672845D02*
X60375869Y-132617081D01*
X39577205Y-21327154D02*
X39608944Y-21363948D01*
X114190391Y-23225907D02*
X114177052Y-23154260D01*
X77742542Y-56841175D02*
X77709036Y-56876367D01*
X93705053Y-130503033D02*
X93727959Y-130545887D01*
X117996793Y-130000999D02*
X118628200Y-129984463D01*
X68306841Y-24798612D02*
X67708619Y-24586494D01*
X114216303Y-21681452D02*
X114232673Y-21635701D01*
X93705053Y-132495971D02*
X93680072Y-132537650D01*
X24586414Y-86291628D02*
X24407974Y-86894051D01*
X78408042Y-121106181D02*
X78586493Y-121708600D01*
X129999036Y-20997953D02*
X130001003Y-20991997D01*
X60473687Y-76273995D02*
X60509691Y-76241363D01*
X110705983Y-76154594D02*
X110746385Y-76181590D01*
X56297518Y-76008445D02*
X56345584Y-76015575D01*
X114319931Y-21462349D02*
X114346927Y-21421947D01*
X60439328Y-21309352D02*
X60473687Y-21274992D01*
X111130473Y-132272048D02*
X111116368Y-132318547D01*
X42833963Y-77033296D02*
X42833963Y-76966702D01*
X76257458Y-97158824D02*
X76290964Y-97123632D01*
X110999490Y-132558017D02*
X110956798Y-132617081D01*
X36003210Y-76000996D02*
X38867960Y-76001296D01*
X61059295Y-76005767D02*
X61107755Y-76002192D01*
X77475683Y-57049433D02*
X77432280Y-57071281D01*
X76058871Y-97490146D02*
X76085932Y-97422478D01*
X120494993Y-129738697D02*
X121105929Y-129592032D01*
X77178255Y-39819088D02*
X77106040Y-39828896D01*
X25004011Y-137998002D02*
X128995865Y-137998002D01*
X61011069Y-77988286D02*
X60939422Y-77974947D01*
X96836351Y-130918173D02*
X96841114Y-130869815D01*
X63996783Y-77999003D02*
X61132036Y-77998703D01*
X57165139Y-23057574D02*
X57158886Y-23130184D01*
X56621447Y-130106709D02*
X56664301Y-130129615D01*
X61011069Y-130011716D02*
X61059295Y-130005768D01*
X114868954Y-23956367D02*
X114822815Y-23941125D01*
X43294017Y-76154593D02*
X43335695Y-76129612D01*
X77932663Y-110532631D02*
X77914068Y-110577524D01*
X75591958Y-32893818D02*
X75413507Y-32291399D01*
X60868950Y-76043629D02*
X60939422Y-76025055D01*
X114733056Y-132902951D02*
X114668367Y-132869388D01*
X39819088Y-21822744D02*
X39826218Y-21870810D01*
X42833963Y-76966702D02*
X42836347Y-76918168D01*
X114173782Y-77130189D02*
X114169019Y-77081831D01*
X38940701Y-77994232D02*
X38867960Y-77998701D01*
X76918170Y-96836350D02*
X76966703Y-96833966D01*
X77655643Y-97074031D02*
X77691647Y-97106663D01*
X24001529Y-137001473D02*
X24993659Y-137993664D01*
X39814641Y-132201142D02*
X39803994Y-132248553D01*
X76241363Y-43177024D02*
X76273995Y-43141020D01*
X110956798Y-132617081D02*
X110925972Y-132654643D01*
X71552507Y-73326383D02*
X72030262Y-72918334D01*
X76726953Y-96869530D02*
X76774089Y-96857723D01*
X76106708Y-39288779D02*
X76085932Y-39244853D01*
X77225910Y-60190387D02*
X77296382Y-60208962D01*
X92843606Y-76000997D02*
X92892245Y-76002190D01*
X85699151Y-24796221D02*
X85118685Y-25036665D01*
X77249550Y-114196005D02*
X77319545Y-114216303D01*
X76085932Y-39244853D02*
X76058871Y-39177185D01*
X77914067Y-114755146D02*
X77932662Y-114800039D01*
X60509691Y-76241363D02*
X60566590Y-76195824D01*
X78796238Y-85699126D02*
X78588568Y-86285295D01*
X97606757Y-132973947D02*
X97559622Y-132962140D01*
X128960628Y-85112813D02*
X128692842Y-84551597D01*
X43177024Y-132757639D02*
X43123629Y-132708038D01*
X68881315Y-128963334D02*
X69448402Y-128692841D01*
X57099994Y-130634704D02*
X57116364Y-130680456D01*
X110509856Y-77941130D02*
X110463717Y-77956372D01*
X75854104Y-119870844D02*
X75935180Y-119254322D01*
X39809609Y-21775086D02*
X39819088Y-21822744D01*
X76918168Y-60169015D02*
X76966701Y-60166631D01*
X80669547Y-28452643D02*
X80290992Y-28946132D01*
X96833668Y-23008937D02*
X96833966Y-21967701D01*
X57090972Y-21613140D02*
X57108460Y-21658476D01*
X67106175Y-129591964D02*
X67708594Y-129413513D01*
X42876294Y-130703620D02*
X42900002Y-130634706D01*
X93832474Y-77057577D02*
X93826221Y-77130186D01*
X77999002Y-43823726D02*
X77999001Y-56176271D01*
X127709031Y-82946159D02*
X127330532Y-82452742D01*
X76005765Y-115059298D02*
X76015573Y-114987083D01*
X110664304Y-76129613D02*
X110705983Y-76154594D01*
X77818409Y-110746385D02*
X77789463Y-110785414D01*
X114689653Y-77882104D02*
X114647374Y-77858153D01*
X27081501Y-27969906D02*
X26673461Y-28447669D01*
X93727959Y-77454115D02*
X93692818Y-77517961D01*
X57161564Y-130893963D02*
X57165139Y-130942423D01*
X114261387Y-77432281D02*
X114241695Y-77387858D01*
X129935187Y-119254322D02*
X129984462Y-118628225D01*
X76821745Y-60180908D02*
X76869810Y-60173778D01*
X77832154Y-60606318D02*
X77858151Y-60647371D01*
X111158889Y-132129189D02*
X111151760Y-132177255D01*
X76096049Y-110599614D02*
X76076357Y-110555191D01*
X77598744Y-43028489D02*
X77637051Y-43058384D01*
X114202198Y-76726954D02*
X114216303Y-76680454D01*
X93352629Y-23858150D02*
X93310350Y-23882101D01*
X77818411Y-93413717D02*
X77774283Y-93471716D01*
X110822976Y-21242360D02*
X110858980Y-21274992D01*
X114166335Y-130991061D02*
X114167529Y-130942423D01*
X125557484Y-73322249D02*
X126030269Y-72918334D01*
X77057580Y-93832474D02*
X76991061Y-93833667D01*
X93738616Y-23432278D02*
X93716769Y-23475682D01*
X38867960Y-130001301D02*
X38916493Y-130003685D01*
X39830981Y-77081829D02*
X39822948Y-77154263D01*
X70536261Y-128064751D02*
X71054051Y-127708876D01*
X80291130Y-71054051D02*
X80673617Y-71552507D01*
X128396310Y-30005271D02*
X128064894Y-29463952D01*
X77949035Y-97513123D02*
X77963140Y-97559622D01*
X57166332Y-23008936D02*
X57165139Y-23057574D01*
X24003335Y-16996658D02*
X23999238Y-17003078D01*
X60166332Y-132007941D02*
X60166631Y-130966704D01*
X76011715Y-38988927D02*
X76005767Y-38940701D01*
X110876371Y-23709032D02*
X110841178Y-23742538D01*
X76326154Y-60422791D02*
X76362948Y-60391052D01*
X111165142Y-77057579D02*
X111161568Y-77106039D01*
X110249164Y-76003682D02*
X110297522Y-76008445D01*
X93809612Y-132224913D02*
X93797805Y-132272048D01*
X96900005Y-77365296D02*
X96883635Y-77319545D01*
X60346923Y-21421947D02*
X60375869Y-21382918D01*
X39638839Y-77598742D02*
X39608944Y-77637049D01*
X25304198Y-69442405D02*
X25606960Y-70000555D01*
X56297518Y-21009443D02*
X56345584Y-21016572D01*
X56876367Y-23709032D02*
X56822972Y-23758633D01*
X96876297Y-21704615D02*
X96900005Y-21635701D01*
X75984455Y-64628219D02*
X76000912Y-64003229D01*
X78262791Y-66501547D02*
X78408042Y-67106175D01*
X93727959Y-130545887D02*
X93748734Y-130589814D01*
X93433409Y-132803177D02*
X93393682Y-132831157D01*
X60963192Y-130020023D02*
X61011069Y-130011716D01*
X114963196Y-130020023D02*
X115011072Y-130011716D01*
X57123702Y-21704615D02*
X57136662Y-21751446D01*
X97702481Y-132990556D02*
X97654415Y-132983427D01*
X57158886Y-76869812D02*
X57163649Y-76918170D01*
X111049437Y-77475684D02*
X111025486Y-77517963D01*
X111151760Y-23178249D02*
X111142280Y-23225907D01*
X32291622Y-129413585D02*
X32894045Y-129592025D01*
X76634703Y-39767326D02*
X76589811Y-39748731D01*
X96841114Y-130869815D02*
X96852691Y-130797862D01*
X126030094Y-81081507D02*
X125552534Y-80673632D01*
X110440381Y-21037859D02*
X110486880Y-21051964D01*
X111108463Y-130657480D02*
X111123706Y-130703619D01*
X111130473Y-23273043D02*
X111116368Y-23319542D01*
M02*
