M48
; DRILL file {KiCad (6.0.0)} date Sat Jan  1 22:40:46 2022
; FORMAT={-:-/ absolute / metric / decimal}
; #@! TF.CreationDate,2022-01-01T22:40:46+01:00
; #@! TF.GenerationSoftware,Kicad,Pcbnew,(6.0.0)
; #@! TF.FileFunction,MixedPlating,1,2
FMAT,2
METRIC
; #@! TA.AperFunction,Plated,PTH,ViaDrill
T1C0.400
; #@! TA.AperFunction,Plated,PTH,ComponentDrill
T2C0.800
; #@! TA.AperFunction,Plated,PTH,ComponentDrill
T3C1.000
; #@! TA.AperFunction,Plated,PTH,ComponentDrill
T4C1.100
; #@! TA.AperFunction,NonPlated,NPTH,ComponentDrill
T5C0.500
; #@! TA.AperFunction,NonPlated,NPTH,ComponentDrill
T6C3.200
%
G90
G05
T1
X30.53Y-36.93
X30.53Y-90.93
X33.96Y-68.46
X33.96Y-122.46
X36.37Y-62.99
X36.37Y-116.99
X44.8Y-30.14
X44.8Y-84.14
X71.42Y-53.54
X71.42Y-107.54
X84.53Y-36.93
X84.53Y-90.93
X87.96Y-68.46
X87.96Y-122.46
X90.37Y-62.99
X90.37Y-116.99
X98.8Y-30.14
X98.8Y-84.14
X125.42Y-53.54
X125.42Y-107.54
T2
X44.95Y-39.6
X44.95Y-93.6
X55.11Y-39.6
X55.11Y-93.6
X98.95Y-39.6
X98.95Y-93.6
X109.11Y-39.6
X109.11Y-93.6
T3
X47.5Y-43.0
X47.5Y-57.5
X47.5Y-97.0
X47.5Y-111.5
X50.0Y-57.5
X50.0Y-111.5
X52.5Y-43.0
X52.5Y-57.5
X52.5Y-97.0
X52.5Y-111.5
X101.5Y-43.0
X101.5Y-57.5
X101.5Y-97.0
X101.5Y-111.5
X104.0Y-57.5
X104.0Y-111.5
X106.5Y-43.0
X106.5Y-57.5
X106.5Y-97.0
X106.5Y-111.5
T4
X42.33Y-28.32
X42.33Y-30.86
X42.33Y-33.4
X42.33Y-35.94
X42.33Y-38.48
X42.33Y-41.02
X42.33Y-43.56
X42.33Y-46.1
X42.33Y-48.64
X42.33Y-51.18
X42.33Y-53.72
X42.33Y-56.26
X42.33Y-82.32
X42.33Y-84.86
X42.33Y-87.4
X42.33Y-89.94
X42.33Y-92.48
X42.33Y-95.02
X42.33Y-97.56
X42.33Y-100.1
X42.33Y-102.64
X42.33Y-105.18
X42.33Y-107.72
X42.33Y-110.26
X57.57Y-28.32
X57.57Y-30.86
X57.57Y-33.4
X57.57Y-35.94
X57.57Y-38.48
X57.57Y-41.02
X57.57Y-43.56
X57.57Y-46.1
X57.57Y-48.64
X57.57Y-51.18
X57.57Y-53.72
X57.57Y-56.26
X57.57Y-82.32
X57.57Y-84.86
X57.57Y-87.4
X57.57Y-89.94
X57.57Y-92.48
X57.57Y-95.02
X57.57Y-97.56
X57.57Y-100.1
X57.57Y-102.64
X57.57Y-105.18
X57.57Y-107.72
X57.57Y-110.26
X96.33Y-28.32
X96.33Y-30.86
X96.33Y-33.4
X96.33Y-35.94
X96.33Y-38.48
X96.33Y-41.02
X96.33Y-43.56
X96.33Y-46.1
X96.33Y-48.64
X96.33Y-51.18
X96.33Y-53.72
X96.33Y-56.26
X96.33Y-82.32
X96.33Y-84.86
X96.33Y-87.4
X96.33Y-89.94
X96.33Y-92.48
X96.33Y-95.02
X96.33Y-97.56
X96.33Y-100.1
X96.33Y-102.64
X96.33Y-105.18
X96.33Y-107.72
X96.33Y-110.26
X111.57Y-28.32
X111.57Y-30.86
X111.57Y-33.4
X111.57Y-35.94
X111.57Y-38.48
X111.57Y-41.02
X111.57Y-43.56
X111.57Y-46.1
X111.57Y-48.64
X111.57Y-51.18
X111.57Y-53.72
X111.57Y-56.26
X111.57Y-82.32
X111.57Y-84.86
X111.57Y-87.4
X111.57Y-89.94
X111.57Y-92.48
X111.57Y-95.02
X111.57Y-97.56
X111.57Y-100.1
X111.57Y-102.64
X111.57Y-105.18
X111.57Y-107.72
X111.57Y-110.26
T5
X39.334Y-75.799
X39.334Y-78.201
X40.334Y-75.799
X40.334Y-78.201
X41.334Y-75.799
X41.334Y-78.201
X42.334Y-75.799
X42.334Y-78.201
X43.334Y-75.799
X43.334Y-78.201
X56.666Y-75.799
X56.666Y-78.201
X57.666Y-75.799
X57.666Y-78.201
X58.666Y-75.799
X58.666Y-78.201
X59.666Y-75.799
X59.666Y-78.201
X60.666Y-75.799
X60.666Y-78.201
X75.799Y-56.666
X75.799Y-57.666
X75.799Y-58.666
X75.799Y-59.666
X75.799Y-60.666
X75.799Y-110.666
X75.799Y-111.666
X75.799Y-112.666
X75.799Y-113.666
X75.799Y-114.666
X75.799Y-39.334
X75.799Y-40.334
X75.799Y-41.334
X75.799Y-42.334
X75.799Y-43.334
X75.799Y-93.334
X75.799Y-94.334
X75.799Y-95.334
X75.799Y-96.334
X75.799Y-97.334
X78.201Y-57.666
X78.201Y-58.666
X78.201Y-59.666
X78.201Y-60.666
X78.201Y-111.666
X78.201Y-112.666
X78.201Y-113.666
X78.201Y-114.666
X78.201Y-56.666
X78.201Y-110.666
X78.201Y-43.334
X78.201Y-97.334
X78.201Y-39.334
X78.201Y-40.334
X78.201Y-41.334
X78.201Y-42.334
X78.201Y-93.334
X78.201Y-94.334
X78.201Y-95.334
X78.201Y-96.334
X93.334Y-78.201
X93.334Y-75.799
X94.334Y-78.201
X94.334Y-75.799
X95.334Y-78.201
X95.334Y-75.799
X96.334Y-78.201
X96.334Y-75.799
X97.334Y-78.201
X97.334Y-75.799
X110.666Y-78.201
X110.666Y-75.799
X111.666Y-78.201
X111.666Y-75.799
X112.666Y-78.201
X112.666Y-75.799
X113.666Y-78.201
X113.666Y-75.799
X114.666Y-78.201
X114.666Y-75.799
T6
X29.63Y-29.6
X29.63Y-70.34
X29.63Y-83.6
X29.63Y-124.34
X70.35Y-29.6
X70.35Y-70.31
X70.35Y-83.6
X70.35Y-124.31
X83.63Y-29.6
X83.63Y-70.34
X83.63Y-83.6
X83.63Y-124.34
X124.35Y-29.6
X124.35Y-70.31
X124.35Y-83.6
X124.35Y-124.31
T0
M30
