%TF.GenerationSoftware,KiCad,Pcbnew,(6.0.0)*%
%TF.CreationDate,2022-01-02T19:46:58+01:00*%
%TF.ProjectId,VolumeKnob,566f6c75-6d65-44b6-9e6f-622e6b696361,rev?*%
%TF.SameCoordinates,Original*%
%TF.FileFunction,Legend,Top*%
%TF.FilePolarity,Positive*%
%FSLAX46Y46*%
G04 Gerber Fmt 4.6, Leading zero omitted, Abs format (unit mm)*
G04 Created by KiCad (PCBNEW (6.0.0)) date 2022-01-02 19:46:58*
%MOMM*%
%LPD*%
G01*
G04 APERTURE LIST*
%ADD10C,0.300000*%
%ADD11C,0.150000*%
%ADD12C,0.120000*%
G04 APERTURE END LIST*
D10*
X53928571Y-19632949D02*
X53928571Y-17132949D01*
X54428571Y-18918663D01*
X54928571Y-17132949D01*
X54928571Y-19632949D01*
X56285714Y-19632949D02*
X56285714Y-18323425D01*
X56214285Y-18085330D01*
X56071428Y-17966282D01*
X55785714Y-17966282D01*
X55642857Y-18085330D01*
X56285714Y-19513901D02*
X56142857Y-19632949D01*
X55785714Y-19632949D01*
X55642857Y-19513901D01*
X55571428Y-19275806D01*
X55571428Y-19037711D01*
X55642857Y-18799616D01*
X55785714Y-18680568D01*
X56142857Y-18680568D01*
X56285714Y-18561520D01*
X56857142Y-19632949D02*
X57642857Y-17966282D01*
X56857142Y-17966282D02*
X57642857Y-19632949D01*
X59285714Y-19513901D02*
X59499999Y-19632949D01*
X59857142Y-19632949D01*
X59999999Y-19513901D01*
X60071428Y-19394854D01*
X60142857Y-19156758D01*
X60142857Y-18918663D01*
X60071428Y-18680568D01*
X59999999Y-18561520D01*
X59857142Y-18442473D01*
X59571428Y-18323425D01*
X59428571Y-18204377D01*
X59357142Y-18085330D01*
X59285714Y-17847235D01*
X59285714Y-17609139D01*
X59357142Y-17371044D01*
X59428571Y-17251997D01*
X59571428Y-17132949D01*
X59928571Y-17132949D01*
X60142857Y-17251997D01*
X60785714Y-19632949D02*
X60785714Y-17966282D01*
X60785714Y-17132949D02*
X60714285Y-17251997D01*
X60785714Y-17371044D01*
X60857142Y-17251997D01*
X60785714Y-17132949D01*
X60785714Y-17371044D01*
X62071428Y-19513901D02*
X61928571Y-19632949D01*
X61642857Y-19632949D01*
X61499999Y-19513901D01*
X61428571Y-19275806D01*
X61428571Y-18323425D01*
X61499999Y-18085330D01*
X61642857Y-17966282D01*
X61928571Y-17966282D01*
X62071428Y-18085330D01*
X62142857Y-18323425D01*
X62142857Y-18561520D01*
X61428571Y-18799616D01*
X62785714Y-19632949D02*
X62785714Y-17132949D01*
X62785714Y-18085330D02*
X62928571Y-17966282D01*
X63214285Y-17966282D01*
X63357142Y-18085330D01*
X63428571Y-18204377D01*
X63499999Y-18442473D01*
X63499999Y-19156758D01*
X63428571Y-19394854D01*
X63357142Y-19513901D01*
X63214285Y-19632949D01*
X62928571Y-19632949D01*
X62785714Y-19513901D01*
X64714285Y-19513901D02*
X64571428Y-19632949D01*
X64285714Y-19632949D01*
X64142857Y-19513901D01*
X64071428Y-19275806D01*
X64071428Y-18323425D01*
X64142857Y-18085330D01*
X64285714Y-17966282D01*
X64571428Y-17966282D01*
X64714285Y-18085330D01*
X64785714Y-18323425D01*
X64785714Y-18561520D01*
X64071428Y-18799616D01*
X65428571Y-17966282D02*
X65428571Y-19632949D01*
X65428571Y-18204377D02*
X65499999Y-18085330D01*
X65642857Y-17966282D01*
X65857142Y-17966282D01*
X65999999Y-18085330D01*
X66071428Y-18323425D01*
X66071428Y-19632949D01*
X66714285Y-19513901D02*
X66857142Y-19632949D01*
X67142857Y-19632949D01*
X67285714Y-19513901D01*
X67357142Y-19275806D01*
X67357142Y-19156758D01*
X67285714Y-18918663D01*
X67142857Y-18799616D01*
X66928571Y-18799616D01*
X66785714Y-18680568D01*
X66714285Y-18442473D01*
X66714285Y-18323425D01*
X66785714Y-18085330D01*
X66928571Y-17966282D01*
X67142857Y-17966282D01*
X67285714Y-18085330D01*
X68642857Y-19513901D02*
X68500000Y-19632949D01*
X68214285Y-19632949D01*
X68071428Y-19513901D01*
X68000000Y-19394854D01*
X67928571Y-19156758D01*
X67928571Y-18442473D01*
X68000000Y-18204377D01*
X68071428Y-18085330D01*
X68214285Y-17966282D01*
X68500000Y-17966282D01*
X68642857Y-18085330D01*
X69285714Y-19632949D02*
X69285714Y-17132949D01*
X69928571Y-19632949D02*
X69928571Y-18323425D01*
X69857142Y-18085330D01*
X69714285Y-17966282D01*
X69500000Y-17966282D01*
X69357142Y-18085330D01*
X69285714Y-18204377D01*
X70857142Y-19632949D02*
X70714285Y-19513901D01*
X70642857Y-19275806D01*
X70642857Y-17132949D01*
X72071428Y-19632949D02*
X72071428Y-18323425D01*
X72000000Y-18085330D01*
X71857142Y-17966282D01*
X71571428Y-17966282D01*
X71428571Y-18085330D01*
X72071428Y-19513901D02*
X71928571Y-19632949D01*
X71571428Y-19632949D01*
X71428571Y-19513901D01*
X71357142Y-19275806D01*
X71357142Y-19037711D01*
X71428571Y-18799616D01*
X71571428Y-18680568D01*
X71928571Y-18680568D01*
X72071428Y-18561520D01*
X71428571Y-17132949D02*
X71500000Y-17251997D01*
X71428571Y-17371044D01*
X71357142Y-17251997D01*
X71428571Y-17132949D01*
X71428571Y-17371044D01*
X72000000Y-17132949D02*
X72071428Y-17251997D01*
X72000000Y-17371044D01*
X71928571Y-17251997D01*
X72000000Y-17132949D01*
X72000000Y-17371044D01*
X72571428Y-17966282D02*
X73142857Y-17966282D01*
X72785714Y-19632949D02*
X72785714Y-17490092D01*
X72857142Y-17251997D01*
X73000000Y-17132949D01*
X73142857Y-17132949D01*
X74214285Y-19513901D02*
X74071428Y-19632949D01*
X73785714Y-19632949D01*
X73642857Y-19513901D01*
X73571428Y-19275806D01*
X73571428Y-18323425D01*
X73642857Y-18085330D01*
X73785714Y-17966282D01*
X74071428Y-17966282D01*
X74214285Y-18085330D01*
X74285714Y-18323425D01*
X74285714Y-18561520D01*
X73571428Y-18799616D01*
X74928571Y-19632949D02*
X74928571Y-17966282D01*
X74928571Y-18442473D02*
X75000000Y-18204377D01*
X75071428Y-18085330D01*
X75214285Y-17966282D01*
X75357142Y-17966282D01*
X77000000Y-18680568D02*
X78142857Y-18680568D01*
X79785714Y-17132949D02*
X80285714Y-19632949D01*
X80785714Y-17132949D01*
X81500000Y-19632949D02*
X81357142Y-19513901D01*
X81285714Y-19394854D01*
X81214285Y-19156758D01*
X81214285Y-18442473D01*
X81285714Y-18204377D01*
X81357142Y-18085330D01*
X81500000Y-17966282D01*
X81714285Y-17966282D01*
X81857142Y-18085330D01*
X81928571Y-18204377D01*
X82000000Y-18442473D01*
X82000000Y-19156758D01*
X81928571Y-19394854D01*
X81857142Y-19513901D01*
X81714285Y-19632949D01*
X81500000Y-19632949D01*
X82857142Y-19632949D02*
X82714285Y-19513901D01*
X82642857Y-19275806D01*
X82642857Y-17132949D01*
X84071428Y-17966282D02*
X84071428Y-19632949D01*
X83428571Y-17966282D02*
X83428571Y-19275806D01*
X83500000Y-19513901D01*
X83642857Y-19632949D01*
X83857142Y-19632949D01*
X84000000Y-19513901D01*
X84071428Y-19394854D01*
X84785714Y-19632949D02*
X84785714Y-17966282D01*
X84785714Y-18204377D02*
X84857142Y-18085330D01*
X85000000Y-17966282D01*
X85214285Y-17966282D01*
X85357142Y-18085330D01*
X85428571Y-18323425D01*
X85428571Y-19632949D01*
X85428571Y-18323425D02*
X85500000Y-18085330D01*
X85642857Y-17966282D01*
X85857142Y-17966282D01*
X86000000Y-18085330D01*
X86071428Y-18323425D01*
X86071428Y-19632949D01*
X87357142Y-19513901D02*
X87214285Y-19632949D01*
X86928571Y-19632949D01*
X86785714Y-19513901D01*
X86714285Y-19275806D01*
X86714285Y-18323425D01*
X86785714Y-18085330D01*
X86928571Y-17966282D01*
X87214285Y-17966282D01*
X87357142Y-18085330D01*
X87428571Y-18323425D01*
X87428571Y-18561520D01*
X86714285Y-18799616D01*
X89214285Y-19632949D02*
X89214285Y-17132949D01*
X90071428Y-19632949D02*
X89428571Y-18204377D01*
X90071428Y-17132949D02*
X89214285Y-18561520D01*
X90714285Y-17966282D02*
X90714285Y-19632949D01*
X90714285Y-18204377D02*
X90785714Y-18085330D01*
X90928571Y-17966282D01*
X91142857Y-17966282D01*
X91285714Y-18085330D01*
X91357142Y-18323425D01*
X91357142Y-19632949D01*
X92285714Y-19632949D02*
X92142857Y-19513901D01*
X92071428Y-19394854D01*
X92000000Y-19156758D01*
X92000000Y-18442473D01*
X92071428Y-18204377D01*
X92142857Y-18085330D01*
X92285714Y-17966282D01*
X92500000Y-17966282D01*
X92642857Y-18085330D01*
X92714285Y-18204377D01*
X92785714Y-18442473D01*
X92785714Y-19156758D01*
X92714285Y-19394854D01*
X92642857Y-19513901D01*
X92500000Y-19632949D01*
X92285714Y-19632949D01*
X93428571Y-19632949D02*
X93428571Y-17132949D01*
X93428571Y-18085330D02*
X93571428Y-17966282D01*
X93857142Y-17966282D01*
X94000000Y-18085330D01*
X94071428Y-18204377D01*
X94142857Y-18442473D01*
X94142857Y-19156758D01*
X94071428Y-19394854D01*
X94000000Y-19513901D01*
X93857142Y-19632949D01*
X93571428Y-19632949D01*
X93428571Y-19513901D01*
X95714285Y-17132949D02*
X96214285Y-19632949D01*
X96714285Y-17132949D01*
X97500000Y-17132949D02*
X97642857Y-17132949D01*
X97785714Y-17251997D01*
X97857142Y-17371044D01*
X97928571Y-17609139D01*
X98000000Y-18085330D01*
X98000000Y-18680568D01*
X97928571Y-19156758D01*
X97857142Y-19394854D01*
X97785714Y-19513901D01*
X97642857Y-19632949D01*
X97500000Y-19632949D01*
X97357142Y-19513901D01*
X97285714Y-19394854D01*
X97214285Y-19156758D01*
X97142857Y-18680568D01*
X97142857Y-18085330D01*
X97214285Y-17609139D01*
X97285714Y-17371044D01*
X97357142Y-17251997D01*
X97500000Y-17132949D01*
X98642857Y-19394854D02*
X98714285Y-19513901D01*
X98642857Y-19632949D01*
X98571428Y-19513901D01*
X98642857Y-19394854D01*
X98642857Y-19632949D01*
X99214285Y-17132949D02*
X100142857Y-17132949D01*
X99642857Y-18085330D01*
X99857142Y-18085330D01*
X100000000Y-18204377D01*
X100071428Y-18323425D01*
X100142857Y-18561520D01*
X100142857Y-19156758D01*
X100071428Y-19394854D01*
X100000000Y-19513901D01*
X99857142Y-19632949D01*
X99428571Y-19632949D01*
X99285714Y-19513901D01*
X99214285Y-19394854D01*
D11*
%TO.C,D34*%
X110255718Y-122072383D02*
X110255718Y-121072383D01*
X110493813Y-121072383D01*
X110636670Y-121120003D01*
X110731908Y-121215241D01*
X110779527Y-121310479D01*
X110827146Y-121500955D01*
X110827146Y-121643812D01*
X110779527Y-121834288D01*
X110731908Y-121929526D01*
X110636670Y-122024764D01*
X110493813Y-122072383D01*
X110255718Y-122072383D01*
X111160480Y-121072383D02*
X111779527Y-121072383D01*
X111446194Y-121453336D01*
X111589051Y-121453336D01*
X111684289Y-121500955D01*
X111731908Y-121548574D01*
X111779527Y-121643812D01*
X111779527Y-121881907D01*
X111731908Y-121977145D01*
X111684289Y-122024764D01*
X111589051Y-122072383D01*
X111303337Y-122072383D01*
X111208099Y-122024764D01*
X111160480Y-121977145D01*
X112636670Y-121405717D02*
X112636670Y-122072383D01*
X112398575Y-121024764D02*
X112160480Y-121739050D01*
X112779527Y-121739050D01*
%TO.C,R1*%
X103863337Y-42422377D02*
X103530004Y-41946187D01*
X103291908Y-42422377D02*
X103291908Y-41422377D01*
X103672861Y-41422377D01*
X103768099Y-41469997D01*
X103815718Y-41517616D01*
X103863337Y-41612854D01*
X103863337Y-41755711D01*
X103815718Y-41850949D01*
X103768099Y-41898568D01*
X103672861Y-41946187D01*
X103291908Y-41946187D01*
X104815718Y-42422377D02*
X104244289Y-42422377D01*
X104530004Y-42422377D02*
X104530004Y-41422377D01*
X104434765Y-41565235D01*
X104339527Y-41660473D01*
X104244289Y-41708092D01*
X101891432Y-39952377D02*
X101320004Y-39952377D01*
X101605718Y-39952377D02*
X101605718Y-38952377D01*
X101510480Y-39095235D01*
X101415242Y-39190473D01*
X101320004Y-39238092D01*
X102510480Y-38952377D02*
X102605718Y-38952377D01*
X102700956Y-38999997D01*
X102748575Y-39047616D01*
X102796194Y-39142854D01*
X102843813Y-39333330D01*
X102843813Y-39571425D01*
X102796194Y-39761901D01*
X102748575Y-39857139D01*
X102700956Y-39904758D01*
X102605718Y-39952377D01*
X102510480Y-39952377D01*
X102415242Y-39904758D01*
X102367623Y-39857139D01*
X102320004Y-39761901D01*
X102272384Y-39571425D01*
X102272384Y-39333330D01*
X102320004Y-39142854D01*
X102367623Y-39047616D01*
X102415242Y-38999997D01*
X102510480Y-38952377D01*
X104034289Y-39952377D02*
X104034289Y-38952377D01*
X104129527Y-39571425D02*
X104415242Y-39952377D01*
X104415242Y-39285711D02*
X104034289Y-39666663D01*
X104796194Y-39952377D02*
X105034289Y-39952377D01*
X105034289Y-39761901D01*
X104939051Y-39714282D01*
X104843813Y-39619044D01*
X104796194Y-39476187D01*
X104796194Y-39238092D01*
X104843813Y-39095235D01*
X104939051Y-38999997D01*
X105081908Y-38952377D01*
X105272384Y-38952377D01*
X105415242Y-38999997D01*
X105510480Y-39095235D01*
X105558099Y-39238092D01*
X105558099Y-39476187D01*
X105510480Y-39619044D01*
X105415242Y-39714282D01*
X105320004Y-39761901D01*
X105320004Y-39952377D01*
X105558099Y-39952377D01*
%TO.C,D20*%
X43275711Y-80152383D02*
X43275711Y-79152383D01*
X43513806Y-79152383D01*
X43656663Y-79200003D01*
X43751901Y-79295241D01*
X43799520Y-79390479D01*
X43847139Y-79580955D01*
X43847139Y-79723812D01*
X43799520Y-79914288D01*
X43751901Y-80009526D01*
X43656663Y-80104764D01*
X43513806Y-80152383D01*
X43275711Y-80152383D01*
X44228092Y-79247622D02*
X44275711Y-79200003D01*
X44370949Y-79152383D01*
X44609044Y-79152383D01*
X44704282Y-79200003D01*
X44751901Y-79247622D01*
X44799520Y-79342860D01*
X44799520Y-79438098D01*
X44751901Y-79580955D01*
X44180473Y-80152383D01*
X44799520Y-80152383D01*
X45418568Y-79152383D02*
X45513806Y-79152383D01*
X45609044Y-79200003D01*
X45656663Y-79247622D01*
X45704282Y-79342860D01*
X45751901Y-79533336D01*
X45751901Y-79771431D01*
X45704282Y-79961907D01*
X45656663Y-80057145D01*
X45609044Y-80104764D01*
X45513806Y-80152383D01*
X45418568Y-80152383D01*
X45323330Y-80104764D01*
X45275711Y-80057145D01*
X45228092Y-79961907D01*
X45180473Y-79771431D01*
X45180473Y-79533336D01*
X45228092Y-79342860D01*
X45275711Y-79247622D01*
X45323330Y-79200003D01*
X45418568Y-79152383D01*
%TO.C,D17*%
X80645718Y-42952377D02*
X80645718Y-41952377D01*
X80883813Y-41952377D01*
X81026670Y-41999997D01*
X81121908Y-42095235D01*
X81169527Y-42190473D01*
X81217146Y-42380949D01*
X81217146Y-42523806D01*
X81169527Y-42714282D01*
X81121908Y-42809520D01*
X81026670Y-42904758D01*
X80883813Y-42952377D01*
X80645718Y-42952377D01*
X82169527Y-42952377D02*
X81598099Y-42952377D01*
X81883813Y-42952377D02*
X81883813Y-41952377D01*
X81788575Y-42095235D01*
X81693337Y-42190473D01*
X81598099Y-42238092D01*
X82502861Y-41952377D02*
X83169527Y-41952377D01*
X82740956Y-42952377D01*
%TO.C,D28*%
X80645718Y-96952383D02*
X80645718Y-95952383D01*
X80883813Y-95952383D01*
X81026670Y-96000003D01*
X81121908Y-96095241D01*
X81169527Y-96190479D01*
X81217146Y-96380955D01*
X81217146Y-96523812D01*
X81169527Y-96714288D01*
X81121908Y-96809526D01*
X81026670Y-96904764D01*
X80883813Y-96952383D01*
X80645718Y-96952383D01*
X81598099Y-96047622D02*
X81645718Y-96000003D01*
X81740956Y-95952383D01*
X81979051Y-95952383D01*
X82074289Y-96000003D01*
X82121908Y-96047622D01*
X82169527Y-96142860D01*
X82169527Y-96238098D01*
X82121908Y-96380955D01*
X81550480Y-96952383D01*
X82169527Y-96952383D01*
X82740956Y-96380955D02*
X82645718Y-96333336D01*
X82598099Y-96285717D01*
X82550480Y-96190479D01*
X82550480Y-96142860D01*
X82598099Y-96047622D01*
X82645718Y-96000003D01*
X82740956Y-95952383D01*
X82931432Y-95952383D01*
X83026670Y-96000003D01*
X83074289Y-96047622D01*
X83121908Y-96142860D01*
X83121908Y-96190479D01*
X83074289Y-96285717D01*
X83026670Y-96333336D01*
X82931432Y-96380955D01*
X82740956Y-96380955D01*
X82645718Y-96428574D01*
X82598099Y-96476193D01*
X82550480Y-96571431D01*
X82550480Y-96761907D01*
X82598099Y-96857145D01*
X82645718Y-96904764D01*
X82740956Y-96952383D01*
X82931432Y-96952383D01*
X83026670Y-96904764D01*
X83074289Y-96857145D01*
X83121908Y-96761907D01*
X83121908Y-96571431D01*
X83074289Y-96476193D01*
X83026670Y-96428574D01*
X82931432Y-96380955D01*
%TO.C,D36*%
X83335718Y-112382383D02*
X83335718Y-111382383D01*
X83573813Y-111382383D01*
X83716670Y-111430003D01*
X83811908Y-111525241D01*
X83859527Y-111620479D01*
X83907146Y-111810955D01*
X83907146Y-111953812D01*
X83859527Y-112144288D01*
X83811908Y-112239526D01*
X83716670Y-112334764D01*
X83573813Y-112382383D01*
X83335718Y-112382383D01*
X84240480Y-111382383D02*
X84859527Y-111382383D01*
X84526194Y-111763336D01*
X84669051Y-111763336D01*
X84764289Y-111810955D01*
X84811908Y-111858574D01*
X84859527Y-111953812D01*
X84859527Y-112191907D01*
X84811908Y-112287145D01*
X84764289Y-112334764D01*
X84669051Y-112382383D01*
X84383337Y-112382383D01*
X84288099Y-112334764D01*
X84240480Y-112287145D01*
X85716670Y-111382383D02*
X85526194Y-111382383D01*
X85430956Y-111430003D01*
X85383337Y-111477622D01*
X85288099Y-111620479D01*
X85240480Y-111810955D01*
X85240480Y-112191907D01*
X85288099Y-112287145D01*
X85335718Y-112334764D01*
X85430956Y-112382383D01*
X85621432Y-112382383D01*
X85716670Y-112334764D01*
X85764289Y-112287145D01*
X85811908Y-112191907D01*
X85811908Y-111953812D01*
X85764289Y-111858574D01*
X85716670Y-111810955D01*
X85621432Y-111763336D01*
X85430956Y-111763336D01*
X85335718Y-111810955D01*
X85288099Y-111858574D01*
X85240480Y-111953812D01*
%TO.C,D6*%
X41211901Y-67712377D02*
X41211901Y-66712377D01*
X41449997Y-66712377D01*
X41592854Y-66759997D01*
X41688092Y-66855235D01*
X41735711Y-66950473D01*
X41783330Y-67140949D01*
X41783330Y-67283806D01*
X41735711Y-67474282D01*
X41688092Y-67569520D01*
X41592854Y-67664758D01*
X41449997Y-67712377D01*
X41211901Y-67712377D01*
X42640473Y-66712377D02*
X42449997Y-66712377D01*
X42354758Y-66759997D01*
X42307139Y-66807616D01*
X42211901Y-66950473D01*
X42164282Y-67140949D01*
X42164282Y-67521901D01*
X42211901Y-67617139D01*
X42259520Y-67664758D01*
X42354758Y-67712377D01*
X42545235Y-67712377D01*
X42640473Y-67664758D01*
X42688092Y-67617139D01*
X42735711Y-67521901D01*
X42735711Y-67283806D01*
X42688092Y-67188568D01*
X42640473Y-67140949D01*
X42545235Y-67093330D01*
X42354758Y-67093330D01*
X42259520Y-67140949D01*
X42211901Y-67188568D01*
X42164282Y-67283806D01*
%TO.C,D15*%
X94735718Y-67712377D02*
X94735718Y-66712377D01*
X94973813Y-66712377D01*
X95116670Y-66759997D01*
X95211908Y-66855235D01*
X95259527Y-66950473D01*
X95307146Y-67140949D01*
X95307146Y-67283806D01*
X95259527Y-67474282D01*
X95211908Y-67569520D01*
X95116670Y-67664758D01*
X94973813Y-67712377D01*
X94735718Y-67712377D01*
X96259527Y-67712377D02*
X95688099Y-67712377D01*
X95973813Y-67712377D02*
X95973813Y-66712377D01*
X95878575Y-66855235D01*
X95783337Y-66950473D01*
X95688099Y-66998092D01*
X97164289Y-66712377D02*
X96688099Y-66712377D01*
X96640480Y-67188568D01*
X96688099Y-67140949D01*
X96783337Y-67093330D01*
X97021432Y-67093330D01*
X97116670Y-67140949D01*
X97164289Y-67188568D01*
X97211908Y-67283806D01*
X97211908Y-67521901D01*
X97164289Y-67617139D01*
X97116670Y-67664758D01*
X97021432Y-67712377D01*
X96783337Y-67712377D01*
X96688099Y-67664758D01*
X96640480Y-67617139D01*
%TO.C,D27*%
X26645711Y-96952383D02*
X26645711Y-95952383D01*
X26883806Y-95952383D01*
X27026663Y-96000003D01*
X27121901Y-96095241D01*
X27169520Y-96190479D01*
X27217139Y-96380955D01*
X27217139Y-96523812D01*
X27169520Y-96714288D01*
X27121901Y-96809526D01*
X27026663Y-96904764D01*
X26883806Y-96952383D01*
X26645711Y-96952383D01*
X27598092Y-96047622D02*
X27645711Y-96000003D01*
X27740949Y-95952383D01*
X27979044Y-95952383D01*
X28074282Y-96000003D01*
X28121901Y-96047622D01*
X28169520Y-96142860D01*
X28169520Y-96238098D01*
X28121901Y-96380955D01*
X27550473Y-96952383D01*
X28169520Y-96952383D01*
X28502854Y-95952383D02*
X29169520Y-95952383D01*
X28740949Y-96952383D01*
%TO.C,D29*%
X89445718Y-82942383D02*
X89445718Y-81942383D01*
X89683813Y-81942383D01*
X89826670Y-81990003D01*
X89921908Y-82085241D01*
X89969527Y-82180479D01*
X90017146Y-82370955D01*
X90017146Y-82513812D01*
X89969527Y-82704288D01*
X89921908Y-82799526D01*
X89826670Y-82894764D01*
X89683813Y-82942383D01*
X89445718Y-82942383D01*
X90398099Y-82037622D02*
X90445718Y-81990003D01*
X90540956Y-81942383D01*
X90779051Y-81942383D01*
X90874289Y-81990003D01*
X90921908Y-82037622D01*
X90969527Y-82132860D01*
X90969527Y-82228098D01*
X90921908Y-82370955D01*
X90350480Y-82942383D01*
X90969527Y-82942383D01*
X91445718Y-82942383D02*
X91636194Y-82942383D01*
X91731432Y-82894764D01*
X91779051Y-82847145D01*
X91874289Y-82704288D01*
X91921908Y-82513812D01*
X91921908Y-82132860D01*
X91874289Y-82037622D01*
X91826670Y-81990003D01*
X91731432Y-81942383D01*
X91540956Y-81942383D01*
X91445718Y-81990003D01*
X91398099Y-82037622D01*
X91350480Y-82132860D01*
X91350480Y-82370955D01*
X91398099Y-82466193D01*
X91445718Y-82513812D01*
X91540956Y-82561431D01*
X91731432Y-82561431D01*
X91826670Y-82513812D01*
X91874289Y-82466193D01*
X91921908Y-82370955D01*
%TO.C,D18*%
X89445718Y-28942377D02*
X89445718Y-27942377D01*
X89683813Y-27942377D01*
X89826670Y-27989997D01*
X89921908Y-28085235D01*
X89969527Y-28180473D01*
X90017146Y-28370949D01*
X90017146Y-28513806D01*
X89969527Y-28704282D01*
X89921908Y-28799520D01*
X89826670Y-28894758D01*
X89683813Y-28942377D01*
X89445718Y-28942377D01*
X90969527Y-28942377D02*
X90398099Y-28942377D01*
X90683813Y-28942377D02*
X90683813Y-27942377D01*
X90588575Y-28085235D01*
X90493337Y-28180473D01*
X90398099Y-28228092D01*
X91540956Y-28370949D02*
X91445718Y-28323330D01*
X91398099Y-28275711D01*
X91350480Y-28180473D01*
X91350480Y-28132854D01*
X91398099Y-28037616D01*
X91445718Y-27989997D01*
X91540956Y-27942377D01*
X91731432Y-27942377D01*
X91826670Y-27989997D01*
X91874289Y-28037616D01*
X91921908Y-28132854D01*
X91921908Y-28180473D01*
X91874289Y-28275711D01*
X91826670Y-28323330D01*
X91731432Y-28370949D01*
X91540956Y-28370949D01*
X91445718Y-28418568D01*
X91398099Y-28466187D01*
X91350480Y-28561425D01*
X91350480Y-28751901D01*
X91398099Y-28847139D01*
X91445718Y-28894758D01*
X91540956Y-28942377D01*
X91731432Y-28942377D01*
X91826670Y-28894758D01*
X91874289Y-28847139D01*
X91921908Y-28751901D01*
X91921908Y-28561425D01*
X91874289Y-28466187D01*
X91826670Y-28418568D01*
X91731432Y-28370949D01*
%TO.C,U1*%
X101036194Y-88912383D02*
X101036194Y-87912383D01*
X101417146Y-87912383D01*
X101512384Y-87960003D01*
X101560004Y-88007622D01*
X101607623Y-88102860D01*
X101607623Y-88245717D01*
X101560004Y-88340955D01*
X101512384Y-88388574D01*
X101417146Y-88436193D01*
X101036194Y-88436193D01*
X102036194Y-88912383D02*
X102036194Y-88245717D01*
X102036194Y-88436193D02*
X102083813Y-88340955D01*
X102131432Y-88293336D01*
X102226670Y-88245717D01*
X102321908Y-88245717D01*
X102798099Y-88912383D02*
X102702861Y-88864764D01*
X102655242Y-88817145D01*
X102607623Y-88721907D01*
X102607623Y-88436193D01*
X102655242Y-88340955D01*
X102702861Y-88293336D01*
X102798099Y-88245717D01*
X102940956Y-88245717D01*
X103036194Y-88293336D01*
X103083813Y-88340955D01*
X103131432Y-88436193D01*
X103131432Y-88721907D01*
X103083813Y-88817145D01*
X103036194Y-88864764D01*
X102940956Y-88912383D01*
X102798099Y-88912383D01*
X103560004Y-88912383D02*
X103560004Y-87912383D01*
X103893337Y-88626669D01*
X104226670Y-87912383D01*
X104226670Y-88912383D01*
X104702861Y-88912383D02*
X104702861Y-88245717D01*
X104702861Y-87912383D02*
X104655242Y-87960003D01*
X104702861Y-88007622D01*
X104750480Y-87960003D01*
X104702861Y-87912383D01*
X104702861Y-88007622D01*
X105607623Y-88864764D02*
X105512384Y-88912383D01*
X105321908Y-88912383D01*
X105226670Y-88864764D01*
X105179051Y-88817145D01*
X105131432Y-88721907D01*
X105131432Y-88436193D01*
X105179051Y-88340955D01*
X105226670Y-88293336D01*
X105321908Y-88245717D01*
X105512384Y-88245717D01*
X105607623Y-88293336D01*
X106036194Y-88912383D02*
X106036194Y-88245717D01*
X106036194Y-88436193D02*
X106083813Y-88340955D01*
X106131432Y-88293336D01*
X106226670Y-88245717D01*
X106321908Y-88245717D01*
X106798099Y-88912383D02*
X106702861Y-88864764D01*
X106655242Y-88817145D01*
X106607623Y-88721907D01*
X106607623Y-88436193D01*
X106655242Y-88340955D01*
X106702861Y-88293336D01*
X106798099Y-88245717D01*
X106940956Y-88245717D01*
X107036194Y-88293336D01*
X107083813Y-88340955D01*
X107131432Y-88436193D01*
X107131432Y-88721907D01*
X107083813Y-88817145D01*
X107036194Y-88864764D01*
X106940956Y-88912383D01*
X106798099Y-88912383D01*
%TO.C,SW1*%
X54504758Y-47333330D02*
X54552377Y-47190473D01*
X54552377Y-46952377D01*
X54504758Y-46857139D01*
X54457139Y-46809520D01*
X54361901Y-46761901D01*
X54266663Y-46761901D01*
X54171425Y-46809520D01*
X54123806Y-46857139D01*
X54076187Y-46952377D01*
X54028568Y-47142854D01*
X53980949Y-47238092D01*
X53933330Y-47285711D01*
X53838092Y-47333330D01*
X53742854Y-47333330D01*
X53647616Y-47285711D01*
X53599997Y-47238092D01*
X53552377Y-47142854D01*
X53552377Y-46904758D01*
X53599997Y-46761901D01*
X53552377Y-46428568D02*
X54552377Y-46190473D01*
X53838092Y-45999997D01*
X54552377Y-45809520D01*
X53552377Y-45571425D01*
X54552377Y-44666663D02*
X54552377Y-45238092D01*
X54552377Y-44952377D02*
X53552377Y-44952377D01*
X53695235Y-45047616D01*
X53790473Y-45142854D01*
X53838092Y-45238092D01*
%TO.C,D1*%
X43751901Y-26152377D02*
X43751901Y-25152377D01*
X43989997Y-25152377D01*
X44132854Y-25199997D01*
X44228092Y-25295235D01*
X44275711Y-25390473D01*
X44323330Y-25580949D01*
X44323330Y-25723806D01*
X44275711Y-25914282D01*
X44228092Y-26009520D01*
X44132854Y-26104758D01*
X43989997Y-26152377D01*
X43751901Y-26152377D01*
X45275711Y-26152377D02*
X44704282Y-26152377D01*
X44989997Y-26152377D02*
X44989997Y-25152377D01*
X44894758Y-25295235D01*
X44799520Y-25390473D01*
X44704282Y-25438092D01*
%TO.C,D24*%
X56255711Y-122072383D02*
X56255711Y-121072383D01*
X56493806Y-121072383D01*
X56636663Y-121120003D01*
X56731901Y-121215241D01*
X56779520Y-121310479D01*
X56827139Y-121500955D01*
X56827139Y-121643812D01*
X56779520Y-121834288D01*
X56731901Y-121929526D01*
X56636663Y-122024764D01*
X56493806Y-122072383D01*
X56255711Y-122072383D01*
X57208092Y-121167622D02*
X57255711Y-121120003D01*
X57350949Y-121072383D01*
X57589044Y-121072383D01*
X57684282Y-121120003D01*
X57731901Y-121167622D01*
X57779520Y-121262860D01*
X57779520Y-121358098D01*
X57731901Y-121500955D01*
X57160473Y-122072383D01*
X57779520Y-122072383D01*
X58636663Y-121405717D02*
X58636663Y-122072383D01*
X58398568Y-121024764D02*
X58160473Y-121739050D01*
X58779520Y-121739050D01*
%TO.C,U1*%
X47036187Y-88912383D02*
X47036187Y-87912383D01*
X47417139Y-87912383D01*
X47512377Y-87960003D01*
X47559997Y-88007622D01*
X47607616Y-88102860D01*
X47607616Y-88245717D01*
X47559997Y-88340955D01*
X47512377Y-88388574D01*
X47417139Y-88436193D01*
X47036187Y-88436193D01*
X48036187Y-88912383D02*
X48036187Y-88245717D01*
X48036187Y-88436193D02*
X48083806Y-88340955D01*
X48131425Y-88293336D01*
X48226663Y-88245717D01*
X48321901Y-88245717D01*
X48798092Y-88912383D02*
X48702854Y-88864764D01*
X48655235Y-88817145D01*
X48607616Y-88721907D01*
X48607616Y-88436193D01*
X48655235Y-88340955D01*
X48702854Y-88293336D01*
X48798092Y-88245717D01*
X48940949Y-88245717D01*
X49036187Y-88293336D01*
X49083806Y-88340955D01*
X49131425Y-88436193D01*
X49131425Y-88721907D01*
X49083806Y-88817145D01*
X49036187Y-88864764D01*
X48940949Y-88912383D01*
X48798092Y-88912383D01*
X49559997Y-88912383D02*
X49559997Y-87912383D01*
X49893330Y-88626669D01*
X50226663Y-87912383D01*
X50226663Y-88912383D01*
X50702854Y-88912383D02*
X50702854Y-88245717D01*
X50702854Y-87912383D02*
X50655235Y-87960003D01*
X50702854Y-88007622D01*
X50750473Y-87960003D01*
X50702854Y-87912383D01*
X50702854Y-88007622D01*
X51607616Y-88864764D02*
X51512377Y-88912383D01*
X51321901Y-88912383D01*
X51226663Y-88864764D01*
X51179044Y-88817145D01*
X51131425Y-88721907D01*
X51131425Y-88436193D01*
X51179044Y-88340955D01*
X51226663Y-88293336D01*
X51321901Y-88245717D01*
X51512377Y-88245717D01*
X51607616Y-88293336D01*
X52036187Y-88912383D02*
X52036187Y-88245717D01*
X52036187Y-88436193D02*
X52083806Y-88340955D01*
X52131425Y-88293336D01*
X52226663Y-88245717D01*
X52321901Y-88245717D01*
X52798092Y-88912383D02*
X52702854Y-88864764D01*
X52655235Y-88817145D01*
X52607616Y-88721907D01*
X52607616Y-88436193D01*
X52655235Y-88340955D01*
X52702854Y-88293336D01*
X52798092Y-88245717D01*
X52940949Y-88245717D01*
X53036187Y-88293336D01*
X53083806Y-88340955D01*
X53131425Y-88436193D01*
X53131425Y-88721907D01*
X53083806Y-88817145D01*
X53036187Y-88864764D01*
X52940949Y-88912383D01*
X52798092Y-88912383D01*
%TO.C,D11*%
X116345718Y-28982377D02*
X116345718Y-27982377D01*
X116583813Y-27982377D01*
X116726670Y-28029997D01*
X116821908Y-28125235D01*
X116869527Y-28220473D01*
X116917146Y-28410949D01*
X116917146Y-28553806D01*
X116869527Y-28744282D01*
X116821908Y-28839520D01*
X116726670Y-28934758D01*
X116583813Y-28982377D01*
X116345718Y-28982377D01*
X117869527Y-28982377D02*
X117298099Y-28982377D01*
X117583813Y-28982377D02*
X117583813Y-27982377D01*
X117488575Y-28125235D01*
X117393337Y-28220473D01*
X117298099Y-28268092D01*
X118821908Y-28982377D02*
X118250480Y-28982377D01*
X118536194Y-28982377D02*
X118536194Y-27982377D01*
X118440956Y-28125235D01*
X118345718Y-28220473D01*
X118250480Y-28268092D01*
%TO.C,D9*%
X35921901Y-28942377D02*
X35921901Y-27942377D01*
X36159997Y-27942377D01*
X36302854Y-27989997D01*
X36398092Y-28085235D01*
X36445711Y-28180473D01*
X36493330Y-28370949D01*
X36493330Y-28513806D01*
X36445711Y-28704282D01*
X36398092Y-28799520D01*
X36302854Y-28894758D01*
X36159997Y-28942377D01*
X35921901Y-28942377D01*
X36969520Y-28942377D02*
X37159997Y-28942377D01*
X37255235Y-28894758D01*
X37302854Y-28847139D01*
X37398092Y-28704282D01*
X37445711Y-28513806D01*
X37445711Y-28132854D01*
X37398092Y-28037616D01*
X37350473Y-27989997D01*
X37255235Y-27942377D01*
X37064758Y-27942377D01*
X36969520Y-27989997D01*
X36921901Y-28037616D01*
X36874282Y-28132854D01*
X36874282Y-28370949D01*
X36921901Y-28466187D01*
X36969520Y-28513806D01*
X37064758Y-28561425D01*
X37255235Y-28561425D01*
X37350473Y-28513806D01*
X37398092Y-28466187D01*
X37445711Y-28370949D01*
%TO.C,D31*%
X116345718Y-82982383D02*
X116345718Y-81982383D01*
X116583813Y-81982383D01*
X116726670Y-82030003D01*
X116821908Y-82125241D01*
X116869527Y-82220479D01*
X116917146Y-82410955D01*
X116917146Y-82553812D01*
X116869527Y-82744288D01*
X116821908Y-82839526D01*
X116726670Y-82934764D01*
X116583813Y-82982383D01*
X116345718Y-82982383D01*
X117250480Y-81982383D02*
X117869527Y-81982383D01*
X117536194Y-82363336D01*
X117679051Y-82363336D01*
X117774289Y-82410955D01*
X117821908Y-82458574D01*
X117869527Y-82553812D01*
X117869527Y-82791907D01*
X117821908Y-82887145D01*
X117774289Y-82934764D01*
X117679051Y-82982383D01*
X117393337Y-82982383D01*
X117298099Y-82934764D01*
X117250480Y-82887145D01*
X118821908Y-82982383D02*
X118250480Y-82982383D01*
X118536194Y-82982383D02*
X118536194Y-81982383D01*
X118440956Y-82125241D01*
X118345718Y-82220479D01*
X118250480Y-82268098D01*
%TO.C,D4*%
X68931901Y-58292377D02*
X68931901Y-57292377D01*
X69169997Y-57292377D01*
X69312854Y-57339997D01*
X69408092Y-57435235D01*
X69455711Y-57530473D01*
X69503330Y-57720949D01*
X69503330Y-57863806D01*
X69455711Y-58054282D01*
X69408092Y-58149520D01*
X69312854Y-58244758D01*
X69169997Y-58292377D01*
X68931901Y-58292377D01*
X70360473Y-57625711D02*
X70360473Y-58292377D01*
X70122377Y-57244758D02*
X69884282Y-57959044D01*
X70503330Y-57959044D01*
%TO.C,SW1*%
X108504765Y-47333330D02*
X108552384Y-47190473D01*
X108552384Y-46952377D01*
X108504765Y-46857139D01*
X108457146Y-46809520D01*
X108361908Y-46761901D01*
X108266670Y-46761901D01*
X108171432Y-46809520D01*
X108123813Y-46857139D01*
X108076194Y-46952377D01*
X108028575Y-47142854D01*
X107980956Y-47238092D01*
X107933337Y-47285711D01*
X107838099Y-47333330D01*
X107742861Y-47333330D01*
X107647623Y-47285711D01*
X107600004Y-47238092D01*
X107552384Y-47142854D01*
X107552384Y-46904758D01*
X107600004Y-46761901D01*
X107552384Y-46428568D02*
X108552384Y-46190473D01*
X107838099Y-45999997D01*
X108552384Y-45809520D01*
X107552384Y-45571425D01*
X108552384Y-44666663D02*
X108552384Y-45238092D01*
X108552384Y-44952377D02*
X107552384Y-44952377D01*
X107695242Y-45047616D01*
X107790480Y-45142854D01*
X107838099Y-45238092D01*
%TO.C,D25*%
X40735711Y-121712383D02*
X40735711Y-120712383D01*
X40973806Y-120712383D01*
X41116663Y-120760003D01*
X41211901Y-120855241D01*
X41259520Y-120950479D01*
X41307139Y-121140955D01*
X41307139Y-121283812D01*
X41259520Y-121474288D01*
X41211901Y-121569526D01*
X41116663Y-121664764D01*
X40973806Y-121712383D01*
X40735711Y-121712383D01*
X41688092Y-120807622D02*
X41735711Y-120760003D01*
X41830949Y-120712383D01*
X42069044Y-120712383D01*
X42164282Y-120760003D01*
X42211901Y-120807622D01*
X42259520Y-120902860D01*
X42259520Y-120998098D01*
X42211901Y-121140955D01*
X41640473Y-121712383D01*
X42259520Y-121712383D01*
X43164282Y-120712383D02*
X42688092Y-120712383D01*
X42640473Y-121188574D01*
X42688092Y-121140955D01*
X42783330Y-121093336D01*
X43021425Y-121093336D01*
X43116663Y-121140955D01*
X43164282Y-121188574D01*
X43211901Y-121283812D01*
X43211901Y-121521907D01*
X43164282Y-121617145D01*
X43116663Y-121664764D01*
X43021425Y-121712383D01*
X42783330Y-121712383D01*
X42688092Y-121664764D01*
X42640473Y-121617145D01*
%TO.C,U1*%
X47036187Y-34912377D02*
X47036187Y-33912377D01*
X47417139Y-33912377D01*
X47512377Y-33959997D01*
X47559997Y-34007616D01*
X47607616Y-34102854D01*
X47607616Y-34245711D01*
X47559997Y-34340949D01*
X47512377Y-34388568D01*
X47417139Y-34436187D01*
X47036187Y-34436187D01*
X48036187Y-34912377D02*
X48036187Y-34245711D01*
X48036187Y-34436187D02*
X48083806Y-34340949D01*
X48131425Y-34293330D01*
X48226663Y-34245711D01*
X48321901Y-34245711D01*
X48798092Y-34912377D02*
X48702854Y-34864758D01*
X48655235Y-34817139D01*
X48607616Y-34721901D01*
X48607616Y-34436187D01*
X48655235Y-34340949D01*
X48702854Y-34293330D01*
X48798092Y-34245711D01*
X48940949Y-34245711D01*
X49036187Y-34293330D01*
X49083806Y-34340949D01*
X49131425Y-34436187D01*
X49131425Y-34721901D01*
X49083806Y-34817139D01*
X49036187Y-34864758D01*
X48940949Y-34912377D01*
X48798092Y-34912377D01*
X49559997Y-34912377D02*
X49559997Y-33912377D01*
X49893330Y-34626663D01*
X50226663Y-33912377D01*
X50226663Y-34912377D01*
X50702854Y-34912377D02*
X50702854Y-34245711D01*
X50702854Y-33912377D02*
X50655235Y-33959997D01*
X50702854Y-34007616D01*
X50750473Y-33959997D01*
X50702854Y-33912377D01*
X50702854Y-34007616D01*
X51607616Y-34864758D02*
X51512377Y-34912377D01*
X51321901Y-34912377D01*
X51226663Y-34864758D01*
X51179044Y-34817139D01*
X51131425Y-34721901D01*
X51131425Y-34436187D01*
X51179044Y-34340949D01*
X51226663Y-34293330D01*
X51321901Y-34245711D01*
X51512377Y-34245711D01*
X51607616Y-34293330D01*
X52036187Y-34912377D02*
X52036187Y-34245711D01*
X52036187Y-34436187D02*
X52083806Y-34340949D01*
X52131425Y-34293330D01*
X52226663Y-34245711D01*
X52321901Y-34245711D01*
X52798092Y-34912377D02*
X52702854Y-34864758D01*
X52655235Y-34817139D01*
X52607616Y-34721901D01*
X52607616Y-34436187D01*
X52655235Y-34340949D01*
X52702854Y-34293330D01*
X52798092Y-34245711D01*
X52940949Y-34245711D01*
X53036187Y-34293330D01*
X53083806Y-34340949D01*
X53131425Y-34436187D01*
X53131425Y-34721901D01*
X53083806Y-34817139D01*
X53036187Y-34864758D01*
X52940949Y-34912377D01*
X52798092Y-34912377D01*
%TO.C,D21*%
X62345711Y-82982383D02*
X62345711Y-81982383D01*
X62583806Y-81982383D01*
X62726663Y-82030003D01*
X62821901Y-82125241D01*
X62869520Y-82220479D01*
X62917139Y-82410955D01*
X62917139Y-82553812D01*
X62869520Y-82744288D01*
X62821901Y-82839526D01*
X62726663Y-82934764D01*
X62583806Y-82982383D01*
X62345711Y-82982383D01*
X63298092Y-82077622D02*
X63345711Y-82030003D01*
X63440949Y-81982383D01*
X63679044Y-81982383D01*
X63774282Y-82030003D01*
X63821901Y-82077622D01*
X63869520Y-82172860D01*
X63869520Y-82268098D01*
X63821901Y-82410955D01*
X63250473Y-82982383D01*
X63869520Y-82982383D01*
X64821901Y-82982383D02*
X64250473Y-82982383D01*
X64536187Y-82982383D02*
X64536187Y-81982383D01*
X64440949Y-82125241D01*
X64345711Y-82220479D01*
X64250473Y-82268098D01*
%TO.C,R1*%
X49863330Y-42422377D02*
X49529997Y-41946187D01*
X49291901Y-42422377D02*
X49291901Y-41422377D01*
X49672854Y-41422377D01*
X49768092Y-41469997D01*
X49815711Y-41517616D01*
X49863330Y-41612854D01*
X49863330Y-41755711D01*
X49815711Y-41850949D01*
X49768092Y-41898568D01*
X49672854Y-41946187D01*
X49291901Y-41946187D01*
X50815711Y-42422377D02*
X50244282Y-42422377D01*
X50529997Y-42422377D02*
X50529997Y-41422377D01*
X50434758Y-41565235D01*
X50339520Y-41660473D01*
X50244282Y-41708092D01*
X47891425Y-39952377D02*
X47319997Y-39952377D01*
X47605711Y-39952377D02*
X47605711Y-38952377D01*
X47510473Y-39095235D01*
X47415235Y-39190473D01*
X47319997Y-39238092D01*
X48510473Y-38952377D02*
X48605711Y-38952377D01*
X48700949Y-38999997D01*
X48748568Y-39047616D01*
X48796187Y-39142854D01*
X48843806Y-39333330D01*
X48843806Y-39571425D01*
X48796187Y-39761901D01*
X48748568Y-39857139D01*
X48700949Y-39904758D01*
X48605711Y-39952377D01*
X48510473Y-39952377D01*
X48415235Y-39904758D01*
X48367616Y-39857139D01*
X48319997Y-39761901D01*
X48272377Y-39571425D01*
X48272377Y-39333330D01*
X48319997Y-39142854D01*
X48367616Y-39047616D01*
X48415235Y-38999997D01*
X48510473Y-38952377D01*
X50034282Y-39952377D02*
X50034282Y-38952377D01*
X50129520Y-39571425D02*
X50415235Y-39952377D01*
X50415235Y-39285711D02*
X50034282Y-39666663D01*
X50796187Y-39952377D02*
X51034282Y-39952377D01*
X51034282Y-39761901D01*
X50939044Y-39714282D01*
X50843806Y-39619044D01*
X50796187Y-39476187D01*
X50796187Y-39238092D01*
X50843806Y-39095235D01*
X50939044Y-38999997D01*
X51081901Y-38952377D01*
X51272377Y-38952377D01*
X51415235Y-38999997D01*
X51510473Y-39095235D01*
X51558092Y-39238092D01*
X51558092Y-39476187D01*
X51510473Y-39619044D01*
X51415235Y-39714282D01*
X51319997Y-39761901D01*
X51319997Y-39952377D01*
X51558092Y-39952377D01*
%TO.C,SW1*%
X108504765Y-101333336D02*
X108552384Y-101190479D01*
X108552384Y-100952383D01*
X108504765Y-100857145D01*
X108457146Y-100809526D01*
X108361908Y-100761907D01*
X108266670Y-100761907D01*
X108171432Y-100809526D01*
X108123813Y-100857145D01*
X108076194Y-100952383D01*
X108028575Y-101142860D01*
X107980956Y-101238098D01*
X107933337Y-101285717D01*
X107838099Y-101333336D01*
X107742861Y-101333336D01*
X107647623Y-101285717D01*
X107600004Y-101238098D01*
X107552384Y-101142860D01*
X107552384Y-100904764D01*
X107600004Y-100761907D01*
X107552384Y-100428574D02*
X108552384Y-100190479D01*
X107838099Y-100000003D01*
X108552384Y-99809526D01*
X107552384Y-99571431D01*
X108552384Y-98666669D02*
X108552384Y-99238098D01*
X108552384Y-98952383D02*
X107552384Y-98952383D01*
X107695242Y-99047622D01*
X107790480Y-99142860D01*
X107838099Y-99238098D01*
%TO.C,U1*%
X101036194Y-34912377D02*
X101036194Y-33912377D01*
X101417146Y-33912377D01*
X101512384Y-33959997D01*
X101560004Y-34007616D01*
X101607623Y-34102854D01*
X101607623Y-34245711D01*
X101560004Y-34340949D01*
X101512384Y-34388568D01*
X101417146Y-34436187D01*
X101036194Y-34436187D01*
X102036194Y-34912377D02*
X102036194Y-34245711D01*
X102036194Y-34436187D02*
X102083813Y-34340949D01*
X102131432Y-34293330D01*
X102226670Y-34245711D01*
X102321908Y-34245711D01*
X102798099Y-34912377D02*
X102702861Y-34864758D01*
X102655242Y-34817139D01*
X102607623Y-34721901D01*
X102607623Y-34436187D01*
X102655242Y-34340949D01*
X102702861Y-34293330D01*
X102798099Y-34245711D01*
X102940956Y-34245711D01*
X103036194Y-34293330D01*
X103083813Y-34340949D01*
X103131432Y-34436187D01*
X103131432Y-34721901D01*
X103083813Y-34817139D01*
X103036194Y-34864758D01*
X102940956Y-34912377D01*
X102798099Y-34912377D01*
X103560004Y-34912377D02*
X103560004Y-33912377D01*
X103893337Y-34626663D01*
X104226670Y-33912377D01*
X104226670Y-34912377D01*
X104702861Y-34912377D02*
X104702861Y-34245711D01*
X104702861Y-33912377D02*
X104655242Y-33959997D01*
X104702861Y-34007616D01*
X104750480Y-33959997D01*
X104702861Y-33912377D01*
X104702861Y-34007616D01*
X105607623Y-34864758D02*
X105512384Y-34912377D01*
X105321908Y-34912377D01*
X105226670Y-34864758D01*
X105179051Y-34817139D01*
X105131432Y-34721901D01*
X105131432Y-34436187D01*
X105179051Y-34340949D01*
X105226670Y-34293330D01*
X105321908Y-34245711D01*
X105512384Y-34245711D01*
X105607623Y-34293330D01*
X106036194Y-34912377D02*
X106036194Y-34245711D01*
X106036194Y-34436187D02*
X106083813Y-34340949D01*
X106131432Y-34293330D01*
X106226670Y-34245711D01*
X106321908Y-34245711D01*
X106798099Y-34912377D02*
X106702861Y-34864758D01*
X106655242Y-34817139D01*
X106607623Y-34721901D01*
X106607623Y-34436187D01*
X106655242Y-34340949D01*
X106702861Y-34293330D01*
X106798099Y-34245711D01*
X106940956Y-34245711D01*
X107036194Y-34293330D01*
X107083813Y-34340949D01*
X107131432Y-34436187D01*
X107131432Y-34721901D01*
X107083813Y-34817139D01*
X107036194Y-34864758D01*
X106940956Y-34912377D01*
X106798099Y-34912377D01*
%TO.C,D19*%
X35445711Y-82942383D02*
X35445711Y-81942383D01*
X35683806Y-81942383D01*
X35826663Y-81990003D01*
X35921901Y-82085241D01*
X35969520Y-82180479D01*
X36017139Y-82370955D01*
X36017139Y-82513812D01*
X35969520Y-82704288D01*
X35921901Y-82799526D01*
X35826663Y-82894764D01*
X35683806Y-82942383D01*
X35445711Y-82942383D01*
X36969520Y-82942383D02*
X36398092Y-82942383D01*
X36683806Y-82942383D02*
X36683806Y-81942383D01*
X36588568Y-82085241D01*
X36493330Y-82180479D01*
X36398092Y-82228098D01*
X37445711Y-82942383D02*
X37636187Y-82942383D01*
X37731425Y-82894764D01*
X37779044Y-82847145D01*
X37874282Y-82704288D01*
X37921901Y-82513812D01*
X37921901Y-82132860D01*
X37874282Y-82037622D01*
X37826663Y-81990003D01*
X37731425Y-81942383D01*
X37540949Y-81942383D01*
X37445711Y-81990003D01*
X37398092Y-82037622D01*
X37350473Y-82132860D01*
X37350473Y-82370955D01*
X37398092Y-82466193D01*
X37445711Y-82513812D01*
X37540949Y-82561431D01*
X37731425Y-82561431D01*
X37826663Y-82513812D01*
X37874282Y-82466193D01*
X37921901Y-82370955D01*
%TO.C,D32*%
X124795718Y-96942383D02*
X124795718Y-95942383D01*
X125033813Y-95942383D01*
X125176670Y-95990003D01*
X125271908Y-96085241D01*
X125319527Y-96180479D01*
X125367146Y-96370955D01*
X125367146Y-96513812D01*
X125319527Y-96704288D01*
X125271908Y-96799526D01*
X125176670Y-96894764D01*
X125033813Y-96942383D01*
X124795718Y-96942383D01*
X125700480Y-95942383D02*
X126319527Y-95942383D01*
X125986194Y-96323336D01*
X126129051Y-96323336D01*
X126224289Y-96370955D01*
X126271908Y-96418574D01*
X126319527Y-96513812D01*
X126319527Y-96751907D01*
X126271908Y-96847145D01*
X126224289Y-96894764D01*
X126129051Y-96942383D01*
X125843337Y-96942383D01*
X125748099Y-96894764D01*
X125700480Y-96847145D01*
X126700480Y-96037622D02*
X126748099Y-95990003D01*
X126843337Y-95942383D01*
X127081432Y-95942383D01*
X127176670Y-95990003D01*
X127224289Y-96037622D01*
X127271908Y-96132860D01*
X127271908Y-96228098D01*
X127224289Y-96370955D01*
X126652861Y-96942383D01*
X127271908Y-96942383D01*
%TO.C,D22*%
X70795711Y-96942383D02*
X70795711Y-95942383D01*
X71033806Y-95942383D01*
X71176663Y-95990003D01*
X71271901Y-96085241D01*
X71319520Y-96180479D01*
X71367139Y-96370955D01*
X71367139Y-96513812D01*
X71319520Y-96704288D01*
X71271901Y-96799526D01*
X71176663Y-96894764D01*
X71033806Y-96942383D01*
X70795711Y-96942383D01*
X71748092Y-96037622D02*
X71795711Y-95990003D01*
X71890949Y-95942383D01*
X72129044Y-95942383D01*
X72224282Y-95990003D01*
X72271901Y-96037622D01*
X72319520Y-96132860D01*
X72319520Y-96228098D01*
X72271901Y-96370955D01*
X71700473Y-96942383D01*
X72319520Y-96942383D01*
X72700473Y-96037622D02*
X72748092Y-95990003D01*
X72843330Y-95942383D01*
X73081425Y-95942383D01*
X73176663Y-95990003D01*
X73224282Y-96037622D01*
X73271901Y-96132860D01*
X73271901Y-96228098D01*
X73224282Y-96370955D01*
X72652854Y-96942383D01*
X73271901Y-96942383D01*
%TO.C,R1*%
X103863337Y-96422383D02*
X103530004Y-95946193D01*
X103291908Y-96422383D02*
X103291908Y-95422383D01*
X103672861Y-95422383D01*
X103768099Y-95470003D01*
X103815718Y-95517622D01*
X103863337Y-95612860D01*
X103863337Y-95755717D01*
X103815718Y-95850955D01*
X103768099Y-95898574D01*
X103672861Y-95946193D01*
X103291908Y-95946193D01*
X104815718Y-96422383D02*
X104244289Y-96422383D01*
X104530004Y-96422383D02*
X104530004Y-95422383D01*
X104434765Y-95565241D01*
X104339527Y-95660479D01*
X104244289Y-95708098D01*
X101891432Y-93952383D02*
X101320004Y-93952383D01*
X101605718Y-93952383D02*
X101605718Y-92952383D01*
X101510480Y-93095241D01*
X101415242Y-93190479D01*
X101320004Y-93238098D01*
X102510480Y-92952383D02*
X102605718Y-92952383D01*
X102700956Y-93000003D01*
X102748575Y-93047622D01*
X102796194Y-93142860D01*
X102843813Y-93333336D01*
X102843813Y-93571431D01*
X102796194Y-93761907D01*
X102748575Y-93857145D01*
X102700956Y-93904764D01*
X102605718Y-93952383D01*
X102510480Y-93952383D01*
X102415242Y-93904764D01*
X102367623Y-93857145D01*
X102320004Y-93761907D01*
X102272384Y-93571431D01*
X102272384Y-93333336D01*
X102320004Y-93142860D01*
X102367623Y-93047622D01*
X102415242Y-93000003D01*
X102510480Y-92952383D01*
X104034289Y-93952383D02*
X104034289Y-92952383D01*
X104129527Y-93571431D02*
X104415242Y-93952383D01*
X104415242Y-93285717D02*
X104034289Y-93666669D01*
X104796194Y-93952383D02*
X105034289Y-93952383D01*
X105034289Y-93761907D01*
X104939051Y-93714288D01*
X104843813Y-93619050D01*
X104796194Y-93476193D01*
X104796194Y-93238098D01*
X104843813Y-93095241D01*
X104939051Y-93000003D01*
X105081908Y-92952383D01*
X105272384Y-92952383D01*
X105415242Y-93000003D01*
X105510480Y-93095241D01*
X105558099Y-93238098D01*
X105558099Y-93476193D01*
X105510480Y-93619050D01*
X105415242Y-93714288D01*
X105320004Y-93761907D01*
X105320004Y-93952383D01*
X105558099Y-93952383D01*
X49863330Y-96422383D02*
X49529997Y-95946193D01*
X49291901Y-96422383D02*
X49291901Y-95422383D01*
X49672854Y-95422383D01*
X49768092Y-95470003D01*
X49815711Y-95517622D01*
X49863330Y-95612860D01*
X49863330Y-95755717D01*
X49815711Y-95850955D01*
X49768092Y-95898574D01*
X49672854Y-95946193D01*
X49291901Y-95946193D01*
X50815711Y-96422383D02*
X50244282Y-96422383D01*
X50529997Y-96422383D02*
X50529997Y-95422383D01*
X50434758Y-95565241D01*
X50339520Y-95660479D01*
X50244282Y-95708098D01*
X47891425Y-93952383D02*
X47319997Y-93952383D01*
X47605711Y-93952383D02*
X47605711Y-92952383D01*
X47510473Y-93095241D01*
X47415235Y-93190479D01*
X47319997Y-93238098D01*
X48510473Y-92952383D02*
X48605711Y-92952383D01*
X48700949Y-93000003D01*
X48748568Y-93047622D01*
X48796187Y-93142860D01*
X48843806Y-93333336D01*
X48843806Y-93571431D01*
X48796187Y-93761907D01*
X48748568Y-93857145D01*
X48700949Y-93904764D01*
X48605711Y-93952383D01*
X48510473Y-93952383D01*
X48415235Y-93904764D01*
X48367616Y-93857145D01*
X48319997Y-93761907D01*
X48272377Y-93571431D01*
X48272377Y-93333336D01*
X48319997Y-93142860D01*
X48367616Y-93047622D01*
X48415235Y-93000003D01*
X48510473Y-92952383D01*
X50034282Y-93952383D02*
X50034282Y-92952383D01*
X50129520Y-93571431D02*
X50415235Y-93952383D01*
X50415235Y-93285717D02*
X50034282Y-93666669D01*
X50796187Y-93952383D02*
X51034282Y-93952383D01*
X51034282Y-93761907D01*
X50939044Y-93714288D01*
X50843806Y-93619050D01*
X50796187Y-93476193D01*
X50796187Y-93238098D01*
X50843806Y-93095241D01*
X50939044Y-93000003D01*
X51081901Y-92952383D01*
X51272377Y-92952383D01*
X51415235Y-93000003D01*
X51510473Y-93095241D01*
X51558092Y-93238098D01*
X51558092Y-93476193D01*
X51510473Y-93619050D01*
X51415235Y-93714288D01*
X51319997Y-93761907D01*
X51319997Y-93952383D01*
X51558092Y-93952383D01*
%TO.C,D2*%
X62821901Y-28982377D02*
X62821901Y-27982377D01*
X63059997Y-27982377D01*
X63202854Y-28029997D01*
X63298092Y-28125235D01*
X63345711Y-28220473D01*
X63393330Y-28410949D01*
X63393330Y-28553806D01*
X63345711Y-28744282D01*
X63298092Y-28839520D01*
X63202854Y-28934758D01*
X63059997Y-28982377D01*
X62821901Y-28982377D01*
X63774282Y-28077616D02*
X63821901Y-28029997D01*
X63917139Y-27982377D01*
X64155235Y-27982377D01*
X64250473Y-28029997D01*
X64298092Y-28077616D01*
X64345711Y-28172854D01*
X64345711Y-28268092D01*
X64298092Y-28410949D01*
X63726663Y-28982377D01*
X64345711Y-28982377D01*
%TO.C,SW1*%
X54504758Y-101333336D02*
X54552377Y-101190479D01*
X54552377Y-100952383D01*
X54504758Y-100857145D01*
X54457139Y-100809526D01*
X54361901Y-100761907D01*
X54266663Y-100761907D01*
X54171425Y-100809526D01*
X54123806Y-100857145D01*
X54076187Y-100952383D01*
X54028568Y-101142860D01*
X53980949Y-101238098D01*
X53933330Y-101285717D01*
X53838092Y-101333336D01*
X53742854Y-101333336D01*
X53647616Y-101285717D01*
X53599997Y-101238098D01*
X53552377Y-101142860D01*
X53552377Y-100904764D01*
X53599997Y-100761907D01*
X53552377Y-100428574D02*
X54552377Y-100190479D01*
X53838092Y-100000003D01*
X54552377Y-99809526D01*
X53552377Y-99571431D01*
X54552377Y-98666669D02*
X54552377Y-99238098D01*
X54552377Y-98952383D02*
X53552377Y-98952383D01*
X53695235Y-99047622D01*
X53790473Y-99142860D01*
X53838092Y-99238098D01*
%TO.C,D14*%
X110255718Y-68072377D02*
X110255718Y-67072377D01*
X110493813Y-67072377D01*
X110636670Y-67119997D01*
X110731908Y-67215235D01*
X110779527Y-67310473D01*
X110827146Y-67500949D01*
X110827146Y-67643806D01*
X110779527Y-67834282D01*
X110731908Y-67929520D01*
X110636670Y-68024758D01*
X110493813Y-68072377D01*
X110255718Y-68072377D01*
X111779527Y-68072377D02*
X111208099Y-68072377D01*
X111493813Y-68072377D02*
X111493813Y-67072377D01*
X111398575Y-67215235D01*
X111303337Y-67310473D01*
X111208099Y-67358092D01*
X112636670Y-67405711D02*
X112636670Y-68072377D01*
X112398575Y-67024758D02*
X112160480Y-67739044D01*
X112779527Y-67739044D01*
%TO.C,D16*%
X83335718Y-58382377D02*
X83335718Y-57382377D01*
X83573813Y-57382377D01*
X83716670Y-57429997D01*
X83811908Y-57525235D01*
X83859527Y-57620473D01*
X83907146Y-57810949D01*
X83907146Y-57953806D01*
X83859527Y-58144282D01*
X83811908Y-58239520D01*
X83716670Y-58334758D01*
X83573813Y-58382377D01*
X83335718Y-58382377D01*
X84859527Y-58382377D02*
X84288099Y-58382377D01*
X84573813Y-58382377D02*
X84573813Y-57382377D01*
X84478575Y-57525235D01*
X84383337Y-57620473D01*
X84288099Y-57668092D01*
X85716670Y-57382377D02*
X85526194Y-57382377D01*
X85430956Y-57429997D01*
X85383337Y-57477616D01*
X85288099Y-57620473D01*
X85240480Y-57810949D01*
X85240480Y-58191901D01*
X85288099Y-58287139D01*
X85335718Y-58334758D01*
X85430956Y-58382377D01*
X85621432Y-58382377D01*
X85716670Y-58334758D01*
X85764289Y-58287139D01*
X85811908Y-58191901D01*
X85811908Y-57953806D01*
X85764289Y-57858568D01*
X85716670Y-57810949D01*
X85621432Y-57763330D01*
X85430956Y-57763330D01*
X85335718Y-57810949D01*
X85288099Y-57858568D01*
X85240480Y-57953806D01*
%TO.C,D7*%
X29811901Y-58382377D02*
X29811901Y-57382377D01*
X30049997Y-57382377D01*
X30192854Y-57429997D01*
X30288092Y-57525235D01*
X30335711Y-57620473D01*
X30383330Y-57810949D01*
X30383330Y-57953806D01*
X30335711Y-58144282D01*
X30288092Y-58239520D01*
X30192854Y-58334758D01*
X30049997Y-58382377D01*
X29811901Y-58382377D01*
X30716663Y-57382377D02*
X31383330Y-57382377D01*
X30954758Y-58382377D01*
%TO.C,D5*%
X56731901Y-68072377D02*
X56731901Y-67072377D01*
X56969997Y-67072377D01*
X57112854Y-67119997D01*
X57208092Y-67215235D01*
X57255711Y-67310473D01*
X57303330Y-67500949D01*
X57303330Y-67643806D01*
X57255711Y-67834282D01*
X57208092Y-67929520D01*
X57112854Y-68024758D01*
X56969997Y-68072377D01*
X56731901Y-68072377D01*
X58208092Y-67072377D02*
X57731901Y-67072377D01*
X57684282Y-67548568D01*
X57731901Y-67500949D01*
X57827139Y-67453330D01*
X58065235Y-67453330D01*
X58160473Y-67500949D01*
X58208092Y-67548568D01*
X58255711Y-67643806D01*
X58255711Y-67881901D01*
X58208092Y-67977139D01*
X58160473Y-68024758D01*
X58065235Y-68072377D01*
X57827139Y-68072377D01*
X57731901Y-68024758D01*
X57684282Y-67977139D01*
%TO.C,D13*%
X122455718Y-58292377D02*
X122455718Y-57292377D01*
X122693813Y-57292377D01*
X122836670Y-57339997D01*
X122931908Y-57435235D01*
X122979527Y-57530473D01*
X123027146Y-57720949D01*
X123027146Y-57863806D01*
X122979527Y-58054282D01*
X122931908Y-58149520D01*
X122836670Y-58244758D01*
X122693813Y-58292377D01*
X122455718Y-58292377D01*
X123979527Y-58292377D02*
X123408099Y-58292377D01*
X123693813Y-58292377D02*
X123693813Y-57292377D01*
X123598575Y-57435235D01*
X123503337Y-57530473D01*
X123408099Y-57578092D01*
X124312861Y-57292377D02*
X124931908Y-57292377D01*
X124598575Y-57673330D01*
X124741432Y-57673330D01*
X124836670Y-57720949D01*
X124884289Y-57768568D01*
X124931908Y-57863806D01*
X124931908Y-58101901D01*
X124884289Y-58197139D01*
X124836670Y-58244758D01*
X124741432Y-58292377D01*
X124455718Y-58292377D01*
X124360480Y-58244758D01*
X124312861Y-58197139D01*
%TO.C,D35*%
X94735718Y-121712383D02*
X94735718Y-120712383D01*
X94973813Y-120712383D01*
X95116670Y-120760003D01*
X95211908Y-120855241D01*
X95259527Y-120950479D01*
X95307146Y-121140955D01*
X95307146Y-121283812D01*
X95259527Y-121474288D01*
X95211908Y-121569526D01*
X95116670Y-121664764D01*
X94973813Y-121712383D01*
X94735718Y-121712383D01*
X95640480Y-120712383D02*
X96259527Y-120712383D01*
X95926194Y-121093336D01*
X96069051Y-121093336D01*
X96164289Y-121140955D01*
X96211908Y-121188574D01*
X96259527Y-121283812D01*
X96259527Y-121521907D01*
X96211908Y-121617145D01*
X96164289Y-121664764D01*
X96069051Y-121712383D01*
X95783337Y-121712383D01*
X95688099Y-121664764D01*
X95640480Y-121617145D01*
X97164289Y-120712383D02*
X96688099Y-120712383D01*
X96640480Y-121188574D01*
X96688099Y-121140955D01*
X96783337Y-121093336D01*
X97021432Y-121093336D01*
X97116670Y-121140955D01*
X97164289Y-121188574D01*
X97211908Y-121283812D01*
X97211908Y-121521907D01*
X97164289Y-121617145D01*
X97116670Y-121664764D01*
X97021432Y-121712383D01*
X96783337Y-121712383D01*
X96688099Y-121664764D01*
X96640480Y-121617145D01*
%TO.C,D30*%
X97275718Y-80152383D02*
X97275718Y-79152383D01*
X97513813Y-79152383D01*
X97656670Y-79200003D01*
X97751908Y-79295241D01*
X97799527Y-79390479D01*
X97847146Y-79580955D01*
X97847146Y-79723812D01*
X97799527Y-79914288D01*
X97751908Y-80009526D01*
X97656670Y-80104764D01*
X97513813Y-80152383D01*
X97275718Y-80152383D01*
X98180480Y-79152383D02*
X98799527Y-79152383D01*
X98466194Y-79533336D01*
X98609051Y-79533336D01*
X98704289Y-79580955D01*
X98751908Y-79628574D01*
X98799527Y-79723812D01*
X98799527Y-79961907D01*
X98751908Y-80057145D01*
X98704289Y-80104764D01*
X98609051Y-80152383D01*
X98323337Y-80152383D01*
X98228099Y-80104764D01*
X98180480Y-80057145D01*
X99418575Y-79152383D02*
X99513813Y-79152383D01*
X99609051Y-79200003D01*
X99656670Y-79247622D01*
X99704289Y-79342860D01*
X99751908Y-79533336D01*
X99751908Y-79771431D01*
X99704289Y-79961907D01*
X99656670Y-80057145D01*
X99609051Y-80104764D01*
X99513813Y-80152383D01*
X99418575Y-80152383D01*
X99323337Y-80104764D01*
X99275718Y-80057145D01*
X99228099Y-79961907D01*
X99180480Y-79771431D01*
X99180480Y-79533336D01*
X99228099Y-79342860D01*
X99275718Y-79247622D01*
X99323337Y-79200003D01*
X99418575Y-79152383D01*
%TO.C,D23*%
X68455711Y-112292383D02*
X68455711Y-111292383D01*
X68693806Y-111292383D01*
X68836663Y-111340003D01*
X68931901Y-111435241D01*
X68979520Y-111530479D01*
X69027139Y-111720955D01*
X69027139Y-111863812D01*
X68979520Y-112054288D01*
X68931901Y-112149526D01*
X68836663Y-112244764D01*
X68693806Y-112292383D01*
X68455711Y-112292383D01*
X69408092Y-111387622D02*
X69455711Y-111340003D01*
X69550949Y-111292383D01*
X69789044Y-111292383D01*
X69884282Y-111340003D01*
X69931901Y-111387622D01*
X69979520Y-111482860D01*
X69979520Y-111578098D01*
X69931901Y-111720955D01*
X69360473Y-112292383D01*
X69979520Y-112292383D01*
X70312854Y-111292383D02*
X70931901Y-111292383D01*
X70598568Y-111673336D01*
X70741425Y-111673336D01*
X70836663Y-111720955D01*
X70884282Y-111768574D01*
X70931901Y-111863812D01*
X70931901Y-112101907D01*
X70884282Y-112197145D01*
X70836663Y-112244764D01*
X70741425Y-112292383D01*
X70455711Y-112292383D01*
X70360473Y-112244764D01*
X70312854Y-112197145D01*
%TO.C,D26*%
X29335711Y-112382383D02*
X29335711Y-111382383D01*
X29573806Y-111382383D01*
X29716663Y-111430003D01*
X29811901Y-111525241D01*
X29859520Y-111620479D01*
X29907139Y-111810955D01*
X29907139Y-111953812D01*
X29859520Y-112144288D01*
X29811901Y-112239526D01*
X29716663Y-112334764D01*
X29573806Y-112382383D01*
X29335711Y-112382383D01*
X30288092Y-111477622D02*
X30335711Y-111430003D01*
X30430949Y-111382383D01*
X30669044Y-111382383D01*
X30764282Y-111430003D01*
X30811901Y-111477622D01*
X30859520Y-111572860D01*
X30859520Y-111668098D01*
X30811901Y-111810955D01*
X30240473Y-112382383D01*
X30859520Y-112382383D01*
X31716663Y-111382383D02*
X31526187Y-111382383D01*
X31430949Y-111430003D01*
X31383330Y-111477622D01*
X31288092Y-111620479D01*
X31240473Y-111810955D01*
X31240473Y-112191907D01*
X31288092Y-112287145D01*
X31335711Y-112334764D01*
X31430949Y-112382383D01*
X31621425Y-112382383D01*
X31716663Y-112334764D01*
X31764282Y-112287145D01*
X31811901Y-112191907D01*
X31811901Y-111953812D01*
X31764282Y-111858574D01*
X31716663Y-111810955D01*
X31621425Y-111763336D01*
X31430949Y-111763336D01*
X31335711Y-111810955D01*
X31288092Y-111858574D01*
X31240473Y-111953812D01*
%TO.C,D8*%
X27121901Y-42952377D02*
X27121901Y-41952377D01*
X27359997Y-41952377D01*
X27502854Y-41999997D01*
X27598092Y-42095235D01*
X27645711Y-42190473D01*
X27693330Y-42380949D01*
X27693330Y-42523806D01*
X27645711Y-42714282D01*
X27598092Y-42809520D01*
X27502854Y-42904758D01*
X27359997Y-42952377D01*
X27121901Y-42952377D01*
X28264758Y-42380949D02*
X28169520Y-42333330D01*
X28121901Y-42285711D01*
X28074282Y-42190473D01*
X28074282Y-42142854D01*
X28121901Y-42047616D01*
X28169520Y-41999997D01*
X28264758Y-41952377D01*
X28455235Y-41952377D01*
X28550473Y-41999997D01*
X28598092Y-42047616D01*
X28645711Y-42142854D01*
X28645711Y-42190473D01*
X28598092Y-42285711D01*
X28550473Y-42333330D01*
X28455235Y-42380949D01*
X28264758Y-42380949D01*
X28169520Y-42428568D01*
X28121901Y-42476187D01*
X28074282Y-42571425D01*
X28074282Y-42761901D01*
X28121901Y-42857139D01*
X28169520Y-42904758D01*
X28264758Y-42952377D01*
X28455235Y-42952377D01*
X28550473Y-42904758D01*
X28598092Y-42857139D01*
X28645711Y-42761901D01*
X28645711Y-42571425D01*
X28598092Y-42476187D01*
X28550473Y-42428568D01*
X28455235Y-42380949D01*
%TO.C,D12*%
X124795718Y-42942377D02*
X124795718Y-41942377D01*
X125033813Y-41942377D01*
X125176670Y-41989997D01*
X125271908Y-42085235D01*
X125319527Y-42180473D01*
X125367146Y-42370949D01*
X125367146Y-42513806D01*
X125319527Y-42704282D01*
X125271908Y-42799520D01*
X125176670Y-42894758D01*
X125033813Y-42942377D01*
X124795718Y-42942377D01*
X126319527Y-42942377D02*
X125748099Y-42942377D01*
X126033813Y-42942377D02*
X126033813Y-41942377D01*
X125938575Y-42085235D01*
X125843337Y-42180473D01*
X125748099Y-42228092D01*
X126700480Y-42037616D02*
X126748099Y-41989997D01*
X126843337Y-41942377D01*
X127081432Y-41942377D01*
X127176670Y-41989997D01*
X127224289Y-42037616D01*
X127271908Y-42132854D01*
X127271908Y-42228092D01*
X127224289Y-42370949D01*
X126652861Y-42942377D01*
X127271908Y-42942377D01*
%TO.C,D10*%
X97275718Y-26152377D02*
X97275718Y-25152377D01*
X97513813Y-25152377D01*
X97656670Y-25199997D01*
X97751908Y-25295235D01*
X97799527Y-25390473D01*
X97847146Y-25580949D01*
X97847146Y-25723806D01*
X97799527Y-25914282D01*
X97751908Y-26009520D01*
X97656670Y-26104758D01*
X97513813Y-26152377D01*
X97275718Y-26152377D01*
X98799527Y-26152377D02*
X98228099Y-26152377D01*
X98513813Y-26152377D02*
X98513813Y-25152377D01*
X98418575Y-25295235D01*
X98323337Y-25390473D01*
X98228099Y-25438092D01*
X99418575Y-25152377D02*
X99513813Y-25152377D01*
X99609051Y-25199997D01*
X99656670Y-25247616D01*
X99704289Y-25342854D01*
X99751908Y-25533330D01*
X99751908Y-25771425D01*
X99704289Y-25961901D01*
X99656670Y-26057139D01*
X99609051Y-26104758D01*
X99513813Y-26152377D01*
X99418575Y-26152377D01*
X99323337Y-26104758D01*
X99275718Y-26057139D01*
X99228099Y-25961901D01*
X99180480Y-25771425D01*
X99180480Y-25533330D01*
X99228099Y-25342854D01*
X99275718Y-25247616D01*
X99323337Y-25199997D01*
X99418575Y-25152377D01*
%TO.C,D3*%
X71271901Y-42942377D02*
X71271901Y-41942377D01*
X71509997Y-41942377D01*
X71652854Y-41989997D01*
X71748092Y-42085235D01*
X71795711Y-42180473D01*
X71843330Y-42370949D01*
X71843330Y-42513806D01*
X71795711Y-42704282D01*
X71748092Y-42799520D01*
X71652854Y-42894758D01*
X71509997Y-42942377D01*
X71271901Y-42942377D01*
X72176663Y-41942377D02*
X72795711Y-41942377D01*
X72462377Y-42323330D01*
X72605235Y-42323330D01*
X72700473Y-42370949D01*
X72748092Y-42418568D01*
X72795711Y-42513806D01*
X72795711Y-42751901D01*
X72748092Y-42847139D01*
X72700473Y-42894758D01*
X72605235Y-42942377D01*
X72319520Y-42942377D01*
X72224282Y-42894758D01*
X72176663Y-42847139D01*
%TO.C,D33*%
X122455718Y-112292383D02*
X122455718Y-111292383D01*
X122693813Y-111292383D01*
X122836670Y-111340003D01*
X122931908Y-111435241D01*
X122979527Y-111530479D01*
X123027146Y-111720955D01*
X123027146Y-111863812D01*
X122979527Y-112054288D01*
X122931908Y-112149526D01*
X122836670Y-112244764D01*
X122693813Y-112292383D01*
X122455718Y-112292383D01*
X123360480Y-111292383D02*
X123979527Y-111292383D01*
X123646194Y-111673336D01*
X123789051Y-111673336D01*
X123884289Y-111720955D01*
X123931908Y-111768574D01*
X123979527Y-111863812D01*
X123979527Y-112101907D01*
X123931908Y-112197145D01*
X123884289Y-112244764D01*
X123789051Y-112292383D01*
X123503337Y-112292383D01*
X123408099Y-112244764D01*
X123360480Y-112197145D01*
X124312861Y-111292383D02*
X124931908Y-111292383D01*
X124598575Y-111673336D01*
X124741432Y-111673336D01*
X124836670Y-111720955D01*
X124884289Y-111768574D01*
X124931908Y-111863812D01*
X124931908Y-112101907D01*
X124884289Y-112197145D01*
X124836670Y-112244764D01*
X124741432Y-112292383D01*
X124455718Y-112292383D01*
X124360480Y-112244764D01*
X124312861Y-112197145D01*
D12*
%TO.C,D34*%
X107820004Y-122370003D02*
X115120004Y-122370003D01*
X115120004Y-127870003D02*
X115120004Y-126720003D01*
X107820004Y-127870003D02*
X115120004Y-127870003D01*
%TO.C,R1*%
X107300004Y-38229997D02*
X100760004Y-38229997D01*
X108070004Y-39599997D02*
X107300004Y-39599997D01*
X107300004Y-40969997D02*
X107300004Y-38229997D01*
X100760004Y-40969997D02*
X107300004Y-40969997D01*
X99990004Y-39599997D02*
X100760004Y-39599997D01*
X100760004Y-38229997D02*
X100760004Y-40969997D01*
%TO.C,D20*%
X46339997Y-78990003D02*
X53639997Y-78990003D01*
X46339997Y-84490003D02*
X53639997Y-84490003D01*
X53639997Y-84490003D02*
X53639997Y-83340003D01*
%TO.C,D17*%
X78210004Y-48749997D02*
X85510004Y-48749997D01*
X85510004Y-48749997D02*
X85510004Y-47599997D01*
X78210004Y-43249997D02*
X85510004Y-43249997D01*
%TO.C,D28*%
X78210004Y-97250003D02*
X85510004Y-97250003D01*
X78210004Y-102750003D02*
X85510004Y-102750003D01*
X85510004Y-102750003D02*
X85510004Y-101600003D01*
%TO.C,D36*%
X80900004Y-112680003D02*
X88200004Y-112680003D01*
X80900004Y-118180003D02*
X88200004Y-118180003D01*
X88200004Y-118180003D02*
X88200004Y-117030003D01*
%TO.C,D6*%
X38299997Y-68009997D02*
X45599997Y-68009997D01*
X38299997Y-73509997D02*
X45599997Y-73509997D01*
X45599997Y-73509997D02*
X45599997Y-72359997D01*
%TO.C,D15*%
X99600004Y-73509997D02*
X99600004Y-72359997D01*
X92300004Y-68009997D02*
X99600004Y-68009997D01*
X92300004Y-73509997D02*
X99600004Y-73509997D01*
%TO.C,D27*%
X31509997Y-102750003D02*
X31509997Y-101600003D01*
X24209997Y-102750003D02*
X31509997Y-102750003D01*
X24209997Y-97250003D02*
X31509997Y-97250003D01*
%TO.C,D29*%
X87010004Y-88740003D02*
X94310004Y-88740003D01*
X94310004Y-88740003D02*
X94310004Y-87590003D01*
X87010004Y-83240003D02*
X94310004Y-83240003D01*
%TO.C,D18*%
X94310004Y-34739997D02*
X94310004Y-33589997D01*
X87010004Y-34739997D02*
X94310004Y-34739997D01*
X87010004Y-29239997D02*
X94310004Y-29239997D01*
%TO.C,SW1*%
X45899997Y-57199997D02*
X46199997Y-57499997D01*
X48699997Y-43299997D02*
X51299997Y-43299997D01*
X56299997Y-56699997D02*
X53499997Y-56699997D01*
X49499997Y-49999997D02*
X50499997Y-49999997D01*
X46199997Y-57499997D02*
X45899997Y-57799997D01*
X43699997Y-43299997D02*
X46299997Y-43299997D01*
X43699997Y-48199997D02*
X43699997Y-43299997D01*
X43699997Y-51899997D02*
X43699997Y-56699997D01*
X45899997Y-57799997D02*
X45899997Y-57199997D01*
X56299997Y-51799997D02*
X56299997Y-56699997D01*
X43699997Y-56699997D02*
X46199997Y-56699997D01*
X53699997Y-43299997D02*
X56299997Y-43299997D01*
X56299997Y-43299997D02*
X56299997Y-48199997D01*
X49999997Y-50499997D02*
X49999997Y-49499997D01*
X52999997Y-49999997D02*
G75*
G03*
X52999997Y-49999997I-3000000J0D01*
G01*
%TO.C,D1*%
X53639997Y-30489997D02*
X53639997Y-29339997D01*
X46339997Y-24989997D02*
X53639997Y-24989997D01*
X46339997Y-30489997D02*
X53639997Y-30489997D01*
%TO.C,D24*%
X53819997Y-127870003D02*
X61119997Y-127870003D01*
X53819997Y-122370003D02*
X61119997Y-122370003D01*
X61119997Y-127870003D02*
X61119997Y-126720003D01*
%TO.C,D11*%
X113910004Y-34779997D02*
X121210004Y-34779997D01*
X113910004Y-29279997D02*
X121210004Y-29279997D01*
X121210004Y-34779997D02*
X121210004Y-33629997D01*
%TO.C,D9*%
X33009997Y-34739997D02*
X40309997Y-34739997D01*
X33009997Y-29239997D02*
X40309997Y-29239997D01*
X40309997Y-34739997D02*
X40309997Y-33589997D01*
%TO.C,D31*%
X113910004Y-88780003D02*
X121210004Y-88780003D01*
X121210004Y-88780003D02*
X121210004Y-87630003D01*
X113910004Y-83280003D02*
X121210004Y-83280003D01*
%TO.C,D4*%
X73319997Y-64089997D02*
X73319997Y-62939997D01*
X66019997Y-64089997D02*
X73319997Y-64089997D01*
X66019997Y-58589997D02*
X73319997Y-58589997D01*
%TO.C,SW1*%
X99900004Y-57799997D02*
X99900004Y-57199997D01*
X99900004Y-57199997D02*
X100200004Y-57499997D01*
X97700004Y-56699997D02*
X100200004Y-56699997D01*
X110300004Y-56699997D02*
X107500004Y-56699997D01*
X110300004Y-51799997D02*
X110300004Y-56699997D01*
X100200004Y-57499997D02*
X99900004Y-57799997D01*
X97700004Y-43299997D02*
X100300004Y-43299997D01*
X110300004Y-43299997D02*
X110300004Y-48199997D01*
X107700004Y-43299997D02*
X110300004Y-43299997D01*
X104000004Y-50499997D02*
X104000004Y-49499997D01*
X97700004Y-48199997D02*
X97700004Y-43299997D01*
X103500004Y-49999997D02*
X104500004Y-49999997D01*
X97700004Y-51899997D02*
X97700004Y-56699997D01*
X102700004Y-43299997D02*
X105300004Y-43299997D01*
X107000004Y-49999997D02*
G75*
G03*
X107000004Y-49999997I-3000000J0D01*
G01*
%TO.C,D25*%
X38299997Y-127510003D02*
X45599997Y-127510003D01*
X38299997Y-122010003D02*
X45599997Y-122010003D01*
X45599997Y-127510003D02*
X45599997Y-126360003D01*
%TO.C,D21*%
X67209997Y-88780003D02*
X67209997Y-87630003D01*
X59909997Y-83280003D02*
X67209997Y-83280003D01*
X59909997Y-88780003D02*
X67209997Y-88780003D01*
%TO.C,R1*%
X46759997Y-38229997D02*
X46759997Y-40969997D01*
X53299997Y-40969997D02*
X53299997Y-38229997D01*
X53299997Y-38229997D02*
X46759997Y-38229997D01*
X54069997Y-39599997D02*
X53299997Y-39599997D01*
X45989997Y-39599997D02*
X46759997Y-39599997D01*
X46759997Y-40969997D02*
X53299997Y-40969997D01*
%TO.C,SW1*%
X97700004Y-105900003D02*
X97700004Y-110700003D01*
X104000004Y-104500003D02*
X104000004Y-103500003D01*
X100200004Y-111500003D02*
X99900004Y-111800003D01*
X103500004Y-104000003D02*
X104500004Y-104000003D01*
X99900004Y-111200003D02*
X100200004Y-111500003D01*
X102700004Y-97300003D02*
X105300004Y-97300003D01*
X99900004Y-111800003D02*
X99900004Y-111200003D01*
X97700004Y-102200003D02*
X97700004Y-97300003D01*
X97700004Y-110700003D02*
X100200004Y-110700003D01*
X110300004Y-97300003D02*
X110300004Y-102200003D01*
X107700004Y-97300003D02*
X110300004Y-97300003D01*
X110300004Y-110700003D02*
X107500004Y-110700003D01*
X97700004Y-97300003D02*
X100300004Y-97300003D01*
X110300004Y-105800003D02*
X110300004Y-110700003D01*
X107000004Y-104000003D02*
G75*
G03*
X107000004Y-104000003I-3000000J0D01*
G01*
%TO.C,D19*%
X40309997Y-88740003D02*
X40309997Y-87590003D01*
X33009997Y-88740003D02*
X40309997Y-88740003D01*
X33009997Y-83240003D02*
X40309997Y-83240003D01*
%TO.C,D32*%
X129660004Y-102740003D02*
X129660004Y-101590003D01*
X122360004Y-102740003D02*
X129660004Y-102740003D01*
X122360004Y-97240003D02*
X129660004Y-97240003D01*
%TO.C,D22*%
X75659997Y-102740003D02*
X75659997Y-101590003D01*
X68359997Y-102740003D02*
X75659997Y-102740003D01*
X68359997Y-97240003D02*
X75659997Y-97240003D01*
%TO.C,R1*%
X107300004Y-94970003D02*
X107300004Y-92230003D01*
X99990004Y-93600003D02*
X100760004Y-93600003D01*
X108070004Y-93600003D02*
X107300004Y-93600003D01*
X100760004Y-94970003D02*
X107300004Y-94970003D01*
X107300004Y-92230003D02*
X100760004Y-92230003D01*
X100760004Y-92230003D02*
X100760004Y-94970003D01*
X45989997Y-93600003D02*
X46759997Y-93600003D01*
X46759997Y-92230003D02*
X46759997Y-94970003D01*
X53299997Y-94970003D02*
X53299997Y-92230003D01*
X54069997Y-93600003D02*
X53299997Y-93600003D01*
X46759997Y-94970003D02*
X53299997Y-94970003D01*
X53299997Y-92230003D02*
X46759997Y-92230003D01*
%TO.C,D2*%
X67209997Y-34779997D02*
X67209997Y-33629997D01*
X59909997Y-29279997D02*
X67209997Y-29279997D01*
X59909997Y-34779997D02*
X67209997Y-34779997D01*
%TO.C,SW1*%
X53699997Y-97300003D02*
X56299997Y-97300003D01*
X56299997Y-97300003D02*
X56299997Y-102200003D01*
X43699997Y-102200003D02*
X43699997Y-97300003D01*
X45899997Y-111800003D02*
X45899997Y-111200003D01*
X43699997Y-110700003D02*
X46199997Y-110700003D01*
X49499997Y-104000003D02*
X50499997Y-104000003D01*
X43699997Y-105900003D02*
X43699997Y-110700003D01*
X56299997Y-110700003D02*
X53499997Y-110700003D01*
X46199997Y-111500003D02*
X45899997Y-111800003D01*
X43699997Y-97300003D02*
X46299997Y-97300003D01*
X49999997Y-104500003D02*
X49999997Y-103500003D01*
X48699997Y-97300003D02*
X51299997Y-97300003D01*
X45899997Y-111200003D02*
X46199997Y-111500003D01*
X56299997Y-105800003D02*
X56299997Y-110700003D01*
X52999997Y-104000003D02*
G75*
G03*
X52999997Y-104000003I-3000000J0D01*
G01*
%TO.C,D14*%
X107820004Y-68369997D02*
X115120004Y-68369997D01*
X107820004Y-73869997D02*
X115120004Y-73869997D01*
X115120004Y-73869997D02*
X115120004Y-72719997D01*
%TO.C,D16*%
X88200004Y-64179997D02*
X88200004Y-63029997D01*
X80900004Y-58679997D02*
X88200004Y-58679997D01*
X80900004Y-64179997D02*
X88200004Y-64179997D01*
%TO.C,D7*%
X26899997Y-58679997D02*
X34199997Y-58679997D01*
X26899997Y-64179997D02*
X34199997Y-64179997D01*
X34199997Y-64179997D02*
X34199997Y-63029997D01*
%TO.C,D5*%
X61119997Y-73869997D02*
X61119997Y-72719997D01*
X53819997Y-68369997D02*
X61119997Y-68369997D01*
X53819997Y-73869997D02*
X61119997Y-73869997D01*
%TO.C,D13*%
X120020004Y-58589997D02*
X127320004Y-58589997D01*
X120020004Y-64089997D02*
X127320004Y-64089997D01*
X127320004Y-64089997D02*
X127320004Y-62939997D01*
%TO.C,D35*%
X99600004Y-127510003D02*
X99600004Y-126360003D01*
X92300004Y-122010003D02*
X99600004Y-122010003D01*
X92300004Y-127510003D02*
X99600004Y-127510003D01*
%TO.C,D30*%
X100340004Y-78990003D02*
X107640004Y-78990003D01*
X107640004Y-84490003D02*
X107640004Y-83340003D01*
X100340004Y-84490003D02*
X107640004Y-84490003D01*
%TO.C,D23*%
X66019997Y-118090003D02*
X73319997Y-118090003D01*
X66019997Y-112590003D02*
X73319997Y-112590003D01*
X73319997Y-118090003D02*
X73319997Y-116940003D01*
%TO.C,D26*%
X34199997Y-118180003D02*
X34199997Y-117030003D01*
X26899997Y-118180003D02*
X34199997Y-118180003D01*
X26899997Y-112680003D02*
X34199997Y-112680003D01*
%TO.C,D8*%
X31509997Y-48749997D02*
X31509997Y-47599997D01*
X24209997Y-48749997D02*
X31509997Y-48749997D01*
X24209997Y-43249997D02*
X31509997Y-43249997D01*
%TO.C,D12*%
X129660004Y-48739997D02*
X129660004Y-47589997D01*
X122360004Y-48739997D02*
X129660004Y-48739997D01*
X122360004Y-43239997D02*
X129660004Y-43239997D01*
%TO.C,D10*%
X100340004Y-30489997D02*
X107640004Y-30489997D01*
X107640004Y-30489997D02*
X107640004Y-29339997D01*
X100340004Y-24989997D02*
X107640004Y-24989997D01*
%TO.C,D3*%
X68359997Y-43239997D02*
X75659997Y-43239997D01*
X68359997Y-48739997D02*
X75659997Y-48739997D01*
X75659997Y-48739997D02*
X75659997Y-47589997D01*
%TO.C,D33*%
X120020004Y-118090003D02*
X127320004Y-118090003D01*
X127320004Y-118090003D02*
X127320004Y-116940003D01*
X120020004Y-112590003D02*
X127320004Y-112590003D01*
%TD*%
M02*
