M48
; DRILL file {KiCad (6.0.0)} date Sun Jan  2 19:47:00 2022
; FORMAT={-:-/ absolute / inch / decimal}
; #@! TF.CreationDate,2022-01-02T19:47:00+01:00
; #@! TF.GenerationSoftware,Kicad,Pcbnew,(6.0.0)
; #@! TF.FileFunction,Plated,1,2,PTH
FMAT,2
INCH
; #@! TA.AperFunction,Plated,PTH,ViaDrill
T1C0.0157
; #@! TA.AperFunction,Plated,PTH,ComponentDrill
T2C0.0315
; #@! TA.AperFunction,Plated,PTH,ComponentDrill
T3C0.0394
; #@! TA.AperFunction,Plated,PTH,ComponentDrill
T4C0.0433
%
G90
G05
T1
X1.202Y-1.4539
X1.202Y-3.5799
X1.337Y-2.6953
X1.337Y-4.8213
X1.4319Y-2.4799
X1.4319Y-4.6059
X1.7638Y-1.1866
X1.7638Y-3.3126
X2.8118Y-2.1079
X2.8118Y-4.2339
X3.328Y-1.4539
X3.328Y-3.5799
X3.463Y-2.6953
X3.463Y-4.8213
X3.5579Y-2.4799
X3.5579Y-4.6059
X3.8898Y-1.1866
X3.8898Y-3.3126
X4.9378Y-2.1079
X4.9378Y-4.2339
T2
X1.7697Y-1.5591
X1.7697Y-3.685
X2.1697Y-1.5591
X2.1697Y-3.685
X3.8957Y-1.5591
X3.8957Y-3.685
X4.2957Y-1.5591
X4.2957Y-3.685
T3
X1.8701Y-1.6929
X1.8701Y-2.2638
X1.8701Y-3.8189
X1.8701Y-4.3898
X1.9685Y-2.2638
X1.9685Y-4.3898
X2.0669Y-1.6929
X2.0669Y-2.2638
X2.0669Y-3.8189
X2.0669Y-4.3898
X3.9961Y-1.6929
X3.9961Y-2.2638
X3.9961Y-3.8189
X3.9961Y-4.3898
X4.0945Y-2.2638
X4.0945Y-4.3898
X4.1929Y-1.6929
X4.1929Y-2.2638
X4.1929Y-3.8189
X4.1929Y-4.3898
T4
X1.6665Y-1.115
X1.6665Y-1.215
X1.6665Y-1.315
X1.6665Y-1.415
X1.6665Y-1.515
X1.6665Y-1.615
X1.6665Y-1.715
X1.6665Y-1.815
X1.6665Y-1.915
X1.6665Y-2.015
X1.6665Y-2.115
X1.6665Y-2.215
X1.6665Y-3.2409
X1.6665Y-3.3409
X1.6665Y-3.4409
X1.6665Y-3.5409
X1.6665Y-3.6409
X1.6665Y-3.7409
X1.6665Y-3.8409
X1.6665Y-3.9409
X1.6665Y-4.0409
X1.6665Y-4.1409
X1.6665Y-4.2409
X1.6665Y-4.3409
X2.2665Y-1.115
X2.2665Y-1.215
X2.2665Y-1.315
X2.2665Y-1.415
X2.2665Y-1.515
X2.2665Y-1.615
X2.2665Y-1.715
X2.2665Y-1.815
X2.2665Y-1.915
X2.2665Y-2.015
X2.2665Y-2.115
X2.2665Y-2.215
X2.2665Y-3.2409
X2.2665Y-3.3409
X2.2665Y-3.4409
X2.2665Y-3.5409
X2.2665Y-3.6409
X2.2665Y-3.7409
X2.2665Y-3.8409
X2.2665Y-3.9409
X2.2665Y-4.0409
X2.2665Y-4.1409
X2.2665Y-4.2409
X2.2665Y-4.3409
X3.7925Y-1.115
X3.7925Y-1.215
X3.7925Y-1.315
X3.7925Y-1.415
X3.7925Y-1.515
X3.7925Y-1.615
X3.7925Y-1.715
X3.7925Y-1.815
X3.7925Y-1.915
X3.7925Y-2.015
X3.7925Y-2.115
X3.7925Y-2.215
X3.7925Y-3.2409
X3.7925Y-3.3409
X3.7925Y-3.4409
X3.7925Y-3.5409
X3.7925Y-3.6409
X3.7925Y-3.7409
X3.7925Y-3.8409
X3.7925Y-3.9409
X3.7925Y-4.0409
X3.7925Y-4.1409
X3.7925Y-4.2409
X3.7925Y-4.3409
X4.3925Y-1.115
X4.3925Y-1.215
X4.3925Y-1.315
X4.3925Y-1.415
X4.3925Y-1.515
X4.3925Y-1.615
X4.3925Y-1.715
X4.3925Y-1.815
X4.3925Y-1.915
X4.3925Y-2.015
X4.3925Y-2.115
X4.3925Y-2.215
X4.3925Y-3.2409
X4.3925Y-3.3409
X4.3925Y-3.4409
X4.3925Y-3.5409
X4.3925Y-3.6409
X4.3925Y-3.7409
X4.3925Y-3.8409
X4.3925Y-3.9409
X4.3925Y-4.0409
X4.3925Y-4.1409
X4.3925Y-4.2409
X4.3925Y-4.3409
T0
M30
