%TF.GenerationSoftware,KiCad,Pcbnew,(6.0.0)*%
%TF.CreationDate,2022-01-02T19:46:59+01:00*%
%TF.ProjectId,VolumeKnob,566f6c75-6d65-44b6-9e6f-622e6b696361,rev?*%
%TF.SameCoordinates,Original*%
%TF.FileFunction,Soldermask,Bot*%
%TF.FilePolarity,Negative*%
%FSLAX46Y46*%
G04 Gerber Fmt 4.6, Leading zero omitted, Abs format (unit mm)*
G04 Created by KiCad (PCBNEW (6.0.0)) date 2022-01-02 19:46:59*
%MOMM*%
%LPD*%
G01*
G04 APERTURE LIST*
%ADD10C,0.500000*%
%ADD11C,1.600000*%
%ADD12O,1.600000X1.600000*%
%ADD13C,3.200000*%
%ADD14R,1.600000X1.600000*%
%ADD15R,2.000000X2.000000*%
%ADD16C,2.000000*%
%ADD17C,1.152000*%
G04 APERTURE END LIST*
D10*
%TO.C,REF\u002A\u002A*%
X75798997Y-113666335D03*
%TD*%
%TO.C,REF\u002A\u002A*%
X78201003Y-93333667D03*
%TD*%
%TO.C,REF\u002A\u002A*%
X75798997Y-57666332D03*
%TD*%
%TO.C,REF\u002A\u002A*%
X110666335Y-129799000D03*
%TD*%
%TO.C,REF\u002A\u002A*%
X112666336Y-75798999D03*
%TD*%
%TO.C,REF\u002A\u002A*%
X78201002Y-97333667D03*
%TD*%
D11*
%TO.C,R1*%
X109110004Y-39599997D03*
D12*
X98950004Y-39599997D03*
%TD*%
D10*
%TO.C,REF\u002A\u002A*%
X75798999Y-96333667D03*
%TD*%
%TO.C,REF\u002A\u002A*%
X57666332Y-24200997D03*
%TD*%
%TO.C,REF\u002A\u002A*%
X78201001Y-110666335D03*
%TD*%
%TO.C,REF\u002A\u002A*%
X113666336Y-75798999D03*
%TD*%
%TO.C,REF\u002A\u002A*%
X40333664Y-78201000D03*
%TD*%
%TO.C,REF\u002A\u002A*%
X57666332Y-75798999D03*
%TD*%
%TO.C,REF\u002A\u002A*%
X113666335Y-78201002D03*
%TD*%
%TO.C,REF\u002A\u002A*%
X113666335Y-129799000D03*
%TD*%
%TO.C,REF\u002A\u002A*%
X57666332Y-129799000D03*
%TD*%
%TO.C,REF\u002A\u002A*%
X59666332Y-75798999D03*
%TD*%
%TO.C,REF\u002A\u002A*%
X60666332Y-129799000D03*
%TD*%
%TO.C,REF\u002A\u002A*%
X40333664Y-24200999D03*
%TD*%
%TO.C,REF\u002A\u002A*%
X60666332Y-78201002D03*
%TD*%
D13*
%TO.C,REF\u002A\u002A*%
X29629997Y-70339997D03*
%TD*%
D10*
%TO.C,REF\u002A\u002A*%
X56666332Y-129799000D03*
%TD*%
%TO.C,REF\u002A\u002A*%
X57666332Y-78201002D03*
%TD*%
%TO.C,REF\u002A\u002A*%
X59666332Y-78201002D03*
%TD*%
%TO.C,REF\u002A\u002A*%
X110666336Y-75798999D03*
%TD*%
D13*
%TO.C,REF\u002A\u002A*%
X124350004Y-83600003D03*
%TD*%
D10*
%TO.C,REF\u002A\u002A*%
X75798997Y-111666335D03*
%TD*%
D13*
%TO.C,REF\u002A\u002A*%
X83630004Y-124340003D03*
%TD*%
D10*
%TO.C,REF\u002A\u002A*%
X75798997Y-56666332D03*
%TD*%
%TO.C,REF\u002A\u002A*%
X75798999Y-40333664D03*
%TD*%
%TO.C,REF\u002A\u002A*%
X111666336Y-24200997D03*
%TD*%
D14*
%TO.C,U1*%
X96330004Y-82320003D03*
D11*
X96330004Y-84860003D03*
X96330004Y-87400003D03*
X96330004Y-89940003D03*
X96330004Y-92480003D03*
X96330004Y-95020003D03*
X96330004Y-97560003D03*
X96330004Y-100100003D03*
X96330004Y-102640003D03*
X96330004Y-105180003D03*
X96330004Y-107720003D03*
X96330004Y-110260003D03*
X111570004Y-110260003D03*
X111570004Y-107720003D03*
X111570004Y-105180003D03*
X111570004Y-102640003D03*
X111570004Y-100100003D03*
X111570004Y-97560003D03*
X111570004Y-95020003D03*
X111570004Y-92480003D03*
X111570004Y-89940003D03*
X111570004Y-87400003D03*
X111570004Y-84860003D03*
X111570004Y-82320003D03*
%TD*%
D10*
%TO.C,REF\u002A\u002A*%
X112666335Y-78201002D03*
%TD*%
%TO.C,REF\u002A\u002A*%
X78201002Y-43333664D03*
%TD*%
%TO.C,REF\u002A\u002A*%
X94333668Y-24200999D03*
%TD*%
D15*
%TO.C,SW1*%
X47499997Y-57499997D03*
D16*
X52499997Y-57499997D03*
X49999997Y-57499997D03*
X47499997Y-42999997D03*
X52499997Y-42999997D03*
%TD*%
D10*
%TO.C,REF\u002A\u002A*%
X78201003Y-42333664D03*
%TD*%
%TO.C,REF\u002A\u002A*%
X56666332Y-24200997D03*
%TD*%
D13*
%TO.C,REF\u002A\u002A*%
X124350004Y-29599997D03*
%TD*%
D10*
%TO.C,REF\u002A\u002A*%
X58666332Y-129799000D03*
%TD*%
%TO.C,REF\u002A\u002A*%
X43333664Y-24200999D03*
%TD*%
%TO.C,REF\u002A\u002A*%
X75798997Y-114666335D03*
%TD*%
%TO.C,REF\u002A\u002A*%
X78201003Y-40333664D03*
%TD*%
%TO.C,REF\u002A\u002A*%
X39333664Y-129799002D03*
%TD*%
%TO.C,REF\u002A\u002A*%
X78201003Y-39333664D03*
%TD*%
D13*
%TO.C,REF\u002A\u002A*%
X124350004Y-70309997D03*
%TD*%
D10*
%TO.C,REF\u002A\u002A*%
X75798999Y-97333667D03*
%TD*%
%TO.C,REF\u002A\u002A*%
X114666335Y-78201002D03*
%TD*%
D14*
%TO.C,U1*%
X42329997Y-82320003D03*
D11*
X42329997Y-84860003D03*
X42329997Y-87400003D03*
X42329997Y-89940003D03*
X42329997Y-92480003D03*
X42329997Y-95020003D03*
X42329997Y-97560003D03*
X42329997Y-100100003D03*
X42329997Y-102640003D03*
X42329997Y-105180003D03*
X42329997Y-107720003D03*
X42329997Y-110260003D03*
X57569997Y-110260003D03*
X57569997Y-107720003D03*
X57569997Y-105180003D03*
X57569997Y-102640003D03*
X57569997Y-100100003D03*
X57569997Y-97560003D03*
X57569997Y-95020003D03*
X57569997Y-92480003D03*
X57569997Y-89940003D03*
X57569997Y-87400003D03*
X57569997Y-84860003D03*
X57569997Y-82320003D03*
%TD*%
D10*
%TO.C,REF\u002A\u002A*%
X97333668Y-24200999D03*
%TD*%
%TO.C,REF\u002A\u002A*%
X111666335Y-78201002D03*
%TD*%
D13*
%TO.C,REF\u002A\u002A*%
X29629997Y-29599997D03*
%TD*%
D10*
%TO.C,REF\u002A\u002A*%
X41333664Y-129799002D03*
%TD*%
%TO.C,REF\u002A\u002A*%
X78201000Y-113666335D03*
%TD*%
D13*
%TO.C,REF\u002A\u002A*%
X83630004Y-83600003D03*
%TD*%
D10*
%TO.C,REF\u002A\u002A*%
X56666332Y-75798999D03*
%TD*%
%TO.C,REF\u002A\u002A*%
X110666335Y-78201002D03*
%TD*%
%TO.C,REF\u002A\u002A*%
X58666332Y-75798999D03*
%TD*%
D13*
%TO.C,REF\u002A\u002A*%
X70349997Y-124310003D03*
%TD*%
D10*
%TO.C,REF\u002A\u002A*%
X94333667Y-78201000D03*
%TD*%
%TO.C,REF\u002A\u002A*%
X39333664Y-24200999D03*
%TD*%
D15*
%TO.C,SW1*%
X101500004Y-57499997D03*
D16*
X106500004Y-57499997D03*
X104000004Y-57499997D03*
X101500004Y-42999997D03*
X106500004Y-42999997D03*
%TD*%
D14*
%TO.C,U1*%
X42329997Y-28319997D03*
D11*
X42329997Y-30859997D03*
X42329997Y-33399997D03*
X42329997Y-35939997D03*
X42329997Y-38479997D03*
X42329997Y-41019997D03*
X42329997Y-43559997D03*
X42329997Y-46099997D03*
X42329997Y-48639997D03*
X42329997Y-51179997D03*
X42329997Y-53719997D03*
X42329997Y-56259997D03*
X57569997Y-56259997D03*
X57569997Y-53719997D03*
X57569997Y-51179997D03*
X57569997Y-48639997D03*
X57569997Y-46099997D03*
X57569997Y-43559997D03*
X57569997Y-41019997D03*
X57569997Y-38479997D03*
X57569997Y-35939997D03*
X57569997Y-33399997D03*
X57569997Y-30859997D03*
X57569997Y-28319997D03*
%TD*%
D10*
%TO.C,REF\u002A\u002A*%
X95333668Y-75798997D03*
%TD*%
%TO.C,REF\u002A\u002A*%
X93333667Y-78201000D03*
%TD*%
%TO.C,REF\u002A\u002A*%
X42333664Y-24200999D03*
%TD*%
%TO.C,REF\u002A\u002A*%
X93333668Y-24200999D03*
%TD*%
%TO.C,REF\u002A\u002A*%
X95333667Y-129799002D03*
%TD*%
%TO.C,REF\u002A\u002A*%
X95333668Y-24200999D03*
%TD*%
D11*
%TO.C,R1*%
X55109997Y-39599997D03*
D12*
X44949997Y-39599997D03*
%TD*%
D15*
%TO.C,SW1*%
X101500004Y-111500003D03*
D16*
X106500004Y-111500003D03*
X104000004Y-111500003D03*
X101500004Y-97000003D03*
X106500004Y-97000003D03*
%TD*%
D10*
%TO.C,REF\u002A\u002A*%
X78201000Y-59666332D03*
%TD*%
%TO.C,REF\u002A\u002A*%
X112666336Y-24200997D03*
%TD*%
%TO.C,REF\u002A\u002A*%
X75798999Y-43333664D03*
%TD*%
%TO.C,REF\u002A\u002A*%
X97333667Y-129799002D03*
%TD*%
%TO.C,REF\u002A\u002A*%
X114666336Y-75798999D03*
%TD*%
D14*
%TO.C,U1*%
X96330004Y-28319997D03*
D11*
X96330004Y-30859997D03*
X96330004Y-33399997D03*
X96330004Y-35939997D03*
X96330004Y-38479997D03*
X96330004Y-41019997D03*
X96330004Y-43559997D03*
X96330004Y-46099997D03*
X96330004Y-48639997D03*
X96330004Y-51179997D03*
X96330004Y-53719997D03*
X96330004Y-56259997D03*
X111570004Y-56259997D03*
X111570004Y-53719997D03*
X111570004Y-51179997D03*
X111570004Y-48639997D03*
X111570004Y-46099997D03*
X111570004Y-43559997D03*
X111570004Y-41019997D03*
X111570004Y-38479997D03*
X111570004Y-35939997D03*
X111570004Y-33399997D03*
X111570004Y-30859997D03*
X111570004Y-28319997D03*
%TD*%
D10*
%TO.C,REF\u002A\u002A*%
X39333664Y-78201000D03*
%TD*%
%TO.C,REF\u002A\u002A*%
X60666332Y-24200997D03*
%TD*%
%TO.C,REF\u002A\u002A*%
X113666336Y-24200997D03*
%TD*%
%TO.C,REF\u002A\u002A*%
X41333664Y-75798997D03*
%TD*%
%TO.C,REF\u002A\u002A*%
X93333667Y-129799002D03*
%TD*%
%TO.C,REF\u002A\u002A*%
X75798997Y-58666332D03*
%TD*%
D11*
%TO.C,R1*%
X109110004Y-93600003D03*
D12*
X98950004Y-93600003D03*
%TD*%
D17*
%TO.C,REF\u002A\u002A*%
X26498997Y-18501997D03*
%TD*%
%TO.C,REF\u002A\u002A*%
X26498997Y-135498002D03*
%TD*%
D10*
%TO.C,REF\u002A\u002A*%
X59666332Y-24200997D03*
%TD*%
D11*
%TO.C,R1*%
X55109997Y-93600003D03*
D12*
X44949997Y-93600003D03*
%TD*%
D10*
%TO.C,REF\u002A\u002A*%
X41333664Y-24200999D03*
%TD*%
%TO.C,REF\u002A\u002A*%
X39333664Y-75798997D03*
%TD*%
D13*
%TO.C,REF\u002A\u002A*%
X83630004Y-29599997D03*
%TD*%
D10*
%TO.C,REF\u002A\u002A*%
X42333664Y-129799002D03*
%TD*%
%TO.C,REF\u002A\u002A*%
X78201000Y-114666335D03*
%TD*%
%TO.C,REF\u002A\u002A*%
X75798997Y-59666332D03*
%TD*%
%TO.C,REF\u002A\u002A*%
X75798999Y-41333664D03*
%TD*%
%TO.C,REF\u002A\u002A*%
X78201000Y-57666332D03*
%TD*%
D15*
%TO.C,SW1*%
X47499997Y-111500003D03*
D16*
X52499997Y-111500003D03*
X49999997Y-111500003D03*
X47499997Y-97000003D03*
X52499997Y-97000003D03*
%TD*%
D10*
%TO.C,REF\u002A\u002A*%
X75798997Y-60666332D03*
%TD*%
%TO.C,REF\u002A\u002A*%
X94333667Y-129799002D03*
%TD*%
%TO.C,REF\u002A\u002A*%
X42333664Y-75798997D03*
%TD*%
D13*
%TO.C,REF\u002A\u002A*%
X70349997Y-70309997D03*
%TD*%
D10*
%TO.C,REF\u002A\u002A*%
X59666332Y-129799000D03*
%TD*%
%TO.C,REF\u002A\u002A*%
X40333664Y-75798997D03*
%TD*%
%TO.C,REF\u002A\u002A*%
X96333668Y-24200999D03*
%TD*%
%TO.C,REF\u002A\u002A*%
X56666332Y-78201002D03*
%TD*%
%TO.C,REF\u002A\u002A*%
X110666336Y-24200997D03*
%TD*%
%TO.C,REF\u002A\u002A*%
X78201001Y-56666332D03*
%TD*%
%TO.C,REF\u002A\u002A*%
X75798999Y-93333667D03*
%TD*%
%TO.C,REF\u002A\u002A*%
X78201000Y-60666332D03*
%TD*%
%TO.C,REF\u002A\u002A*%
X93333668Y-75798997D03*
%TD*%
%TO.C,REF\u002A\u002A*%
X41333664Y-78201000D03*
%TD*%
%TO.C,REF\u002A\u002A*%
X97333668Y-75798997D03*
%TD*%
%TO.C,REF\u002A\u002A*%
X111666336Y-75798999D03*
%TD*%
D13*
%TO.C,REF\u002A\u002A*%
X70349997Y-83600003D03*
%TD*%
D10*
%TO.C,REF\u002A\u002A*%
X78201000Y-58666332D03*
%TD*%
%TO.C,REF\u002A\u002A*%
X42333664Y-78201000D03*
%TD*%
%TO.C,REF\u002A\u002A*%
X97333667Y-78201000D03*
%TD*%
%TO.C,REF\u002A\u002A*%
X95333667Y-78201000D03*
%TD*%
%TO.C,REF\u002A\u002A*%
X58666332Y-24200997D03*
%TD*%
%TO.C,REF\u002A\u002A*%
X40333664Y-129799002D03*
%TD*%
%TO.C,REF\u002A\u002A*%
X111666335Y-129799000D03*
%TD*%
D13*
%TO.C,REF\u002A\u002A*%
X83630004Y-70339997D03*
%TD*%
D10*
%TO.C,REF\u002A\u002A*%
X75798999Y-94333667D03*
%TD*%
%TO.C,REF\u002A\u002A*%
X60666332Y-75798999D03*
%TD*%
%TO.C,REF\u002A\u002A*%
X78201003Y-95333667D03*
%TD*%
%TO.C,REF\u002A\u002A*%
X78201003Y-96333667D03*
%TD*%
%TO.C,REF\u002A\u002A*%
X94333668Y-75798997D03*
%TD*%
%TO.C,REF\u002A\u002A*%
X96333667Y-129799002D03*
%TD*%
%TO.C,REF\u002A\u002A*%
X75798997Y-112666335D03*
%TD*%
%TO.C,REF\u002A\u002A*%
X58666332Y-78201002D03*
%TD*%
D13*
%TO.C,REF\u002A\u002A*%
X70349997Y-29599997D03*
%TD*%
D10*
%TO.C,REF\u002A\u002A*%
X75798999Y-95333667D03*
%TD*%
%TO.C,REF\u002A\u002A*%
X78201000Y-111666335D03*
%TD*%
%TO.C,REF\u002A\u002A*%
X96333668Y-75798997D03*
%TD*%
%TO.C,REF\u002A\u002A*%
X96333667Y-78201000D03*
%TD*%
%TO.C,REF\u002A\u002A*%
X78201003Y-41333664D03*
%TD*%
%TO.C,REF\u002A\u002A*%
X75798997Y-110666335D03*
%TD*%
%TO.C,REF\u002A\u002A*%
X75798999Y-39333664D03*
%TD*%
D13*
%TO.C,REF\u002A\u002A*%
X124350004Y-124310003D03*
%TD*%
D10*
%TO.C,REF\u002A\u002A*%
X43333664Y-129799002D03*
%TD*%
%TO.C,REF\u002A\u002A*%
X112666335Y-129799000D03*
%TD*%
%TO.C,REF\u002A\u002A*%
X78201000Y-112666335D03*
%TD*%
%TO.C,REF\u002A\u002A*%
X114666335Y-129799000D03*
%TD*%
%TO.C,REF\u002A\u002A*%
X75798999Y-42333664D03*
%TD*%
D13*
%TO.C,REF\u002A\u002A*%
X29629997Y-83600003D03*
%TD*%
D10*
%TO.C,REF\u002A\u002A*%
X114666336Y-24200997D03*
%TD*%
D13*
%TO.C,REF\u002A\u002A*%
X29629997Y-124340003D03*
%TD*%
D10*
%TO.C,REF\u002A\u002A*%
X43333664Y-75798997D03*
%TD*%
%TO.C,REF\u002A\u002A*%
X78201003Y-94333667D03*
%TD*%
%TO.C,REF\u002A\u002A*%
X43333664Y-78201000D03*
%TD*%
D17*
%TO.C,REF\u002A\u002A*%
X127501003Y-18501997D03*
%TD*%
M02*
