M48
; DRILL file {KiCad (6.0.0)} date Sun Jan  2 19:47:00 2022
; FORMAT={-:-/ absolute / inch / decimal}
; #@! TF.CreationDate,2022-01-02T19:47:00+01:00
; #@! TF.GenerationSoftware,Kicad,Pcbnew,(6.0.0)
; #@! TF.FileFunction,NonPlated,1,2,NPTH
FMAT,2
INCH
; #@! TA.AperFunction,NonPlated,NPTH,ComponentDrill
T1C0.0197
; #@! TA.AperFunction,NonPlated,NPTH,ComponentDrill
T2C0.0454
; #@! TA.AperFunction,NonPlated,NPTH,ComponentDrill
T3C0.1260
%
G90
G05
T1
X1.5486Y-0.9528
X1.5486Y-2.9842
X1.5486Y-3.0788
X1.5486Y-5.1102
X1.5879Y-0.9528
X1.5879Y-2.9842
X1.5879Y-3.0788
X1.5879Y-5.1102
X1.6273Y-0.9528
X1.6273Y-2.9842
X1.6273Y-3.0788
X1.6273Y-5.1102
X1.6667Y-0.9528
X1.6667Y-2.9842
X1.6667Y-3.0788
X1.6667Y-5.1102
X1.706Y-0.9528
X1.706Y-2.9842
X1.706Y-3.0788
X1.706Y-5.1102
X2.231Y-0.9528
X2.231Y-2.9842
X2.231Y-3.0788
X2.231Y-5.1102
X2.2703Y-0.9528
X2.2703Y-2.9842
X2.2703Y-3.0788
X2.2703Y-5.1102
X2.3097Y-0.9528
X2.3097Y-2.9842
X2.3097Y-3.0788
X2.3097Y-5.1102
X2.3491Y-0.9528
X2.3491Y-2.9842
X2.3491Y-3.0788
X2.3491Y-5.1102
X2.3884Y-0.9528
X2.3884Y-2.9842
X2.3884Y-3.0788
X2.3884Y-5.1102
X2.9842Y-2.231
X2.9842Y-2.2703
X2.9842Y-2.3097
X2.9842Y-2.3491
X2.9842Y-2.3884
X2.9842Y-4.3569
X2.9842Y-4.3963
X2.9842Y-4.4357
X2.9842Y-4.4751
X2.9842Y-4.5144
X2.9842Y-1.5486
X2.9842Y-1.5879
X2.9842Y-1.6273
X2.9842Y-1.6667
X2.9842Y-1.706
X2.9842Y-3.6746
X2.9842Y-3.7139
X2.9842Y-3.7533
X2.9842Y-3.7927
X2.9842Y-3.832
X3.0788Y-2.2703
X3.0788Y-2.3097
X3.0788Y-2.3491
X3.0788Y-2.3884
X3.0788Y-4.3963
X3.0788Y-4.4357
X3.0788Y-4.4751
X3.0788Y-4.5144
X3.0788Y-2.231
X3.0788Y-4.3569
X3.0788Y-1.706
X3.0788Y-3.832
X3.0788Y-1.5486
X3.0788Y-1.5879
X3.0788Y-1.6273
X3.0788Y-1.6667
X3.0788Y-3.6746
X3.0788Y-3.7139
X3.0788Y-3.7533
X3.0788Y-3.7927
X3.6746Y-3.0788
X3.6746Y-5.1102
X3.6746Y-0.9528
X3.6746Y-2.9842
X3.7139Y-3.0788
X3.7139Y-5.1102
X3.7139Y-0.9528
X3.7139Y-2.9842
X3.7533Y-3.0788
X3.7533Y-5.1102
X3.7533Y-0.9528
X3.7533Y-2.9842
X3.7927Y-3.0788
X3.7927Y-5.1102
X3.7927Y-0.9528
X3.7927Y-2.9842
X3.832Y-3.0788
X3.832Y-5.1102
X3.832Y-0.9528
X3.832Y-2.9842
X4.3569Y-3.0788
X4.3569Y-5.1102
X4.3569Y-0.9528
X4.3569Y-2.9842
X4.3963Y-3.0788
X4.3963Y-5.1102
X4.3963Y-0.9528
X4.3963Y-2.9842
X4.4357Y-3.0788
X4.4357Y-5.1102
X4.4357Y-0.9528
X4.4357Y-2.9842
X4.4751Y-3.0788
X4.4751Y-5.1102
X4.4751Y-0.9528
X4.4751Y-2.9842
X4.5144Y-3.0788
X4.5144Y-5.1102
X4.5144Y-0.9528
X4.5144Y-2.9842
T2
X1.0433Y-0.7284
X1.0433Y-5.3346
X5.0197Y-0.7284
T3
X1.1665Y-1.1654
X1.1665Y-2.7693
X1.1665Y-3.2913
X1.1665Y-4.8953
X2.7697Y-1.1654
X2.7697Y-2.7681
X2.7697Y-3.2913
X2.7697Y-4.8941
X3.2925Y-1.1654
X3.2925Y-2.7693
X3.2925Y-3.2913
X3.2925Y-4.8953
X4.8957Y-1.1654
X4.8957Y-2.7681
X4.8957Y-3.2913
X4.8957Y-4.8941
T0
M30
